<svg width="247" height="107" viewBox="0 0 247 107" fill="none" xmlns="http://www.w3.org/2000/svg">
<path d="M72.2306 40.5326C70.4449 40.5326 68.8013 40.2331 67.2999 39.634C65.7965 39.0369 64.4927 38.1902 63.3868 37.0938C62.2789 35.9974 61.4264 34.6995 60.8273 33.1961C60.2302 31.6946 59.9307 30.0395 59.9307 28.2327C59.9307 26.4701 60.2456 24.8438 60.8773 23.3538C61.5109 21.862 62.3864 20.5697 63.5058 19.4734C64.6233 18.377 65.9443 17.5245 67.4688 16.9139C68.9934 16.3053 70.66 16 72.4667 16C73.5957 16 74.7036 16.1478 75.7885 16.4397C76.8714 16.7335 77.8832 17.1693 78.8202 17.7453C79.7572 18.3214 80.5656 19.0049 81.2434 19.796L77.72 23.8281C77.2458 23.3308 76.7427 22.8949 76.2128 22.5225C75.6809 22.15 75.0992 21.8619 74.4675 21.6584C73.8338 21.4549 73.156 21.3531 72.4341 21.3531C71.5298 21.3531 70.6772 21.5183 69.8747 21.8447C69.074 22.173 68.3732 22.6357 67.7741 23.2348C67.1751 23.8339 66.7066 24.5616 66.3686 25.4198C66.0288 26.2781 65.8598 27.2381 65.8598 28.2999C65.8598 29.3387 66.0288 30.2814 66.3686 31.1301C66.7066 31.9768 67.1808 32.7045 67.7914 33.3151C68.402 33.9257 69.1412 34.3884 70.011 34.7052C70.8808 35.0221 71.8466 35.1795 72.9084 35.1795C73.6303 35.1795 74.3196 35.0777 74.9743 34.8742C75.631 34.6707 76.2339 34.3942 76.7869 34.0428C77.3399 33.6934 77.8314 33.2921 78.2615 32.8409L81.0398 37.2455C80.4753 37.8791 79.7246 38.4436 78.7876 38.939C77.8487 39.4363 76.8099 39.8261 75.6694 40.1102C74.5289 40.3906 73.3826 40.5326 72.2306 40.5326ZM112.727 40.1947V16.4743H117.878L130.312 33.4169L129.195 33.2479C129.082 32.5029 128.991 31.7906 128.924 31.1128C128.855 30.435 128.794 29.7688 128.738 29.114C128.68 28.4593 128.634 27.7911 128.602 27.1133C128.567 26.4375 128.546 25.7021 128.534 24.911C128.523 24.1219 128.517 23.2636 128.517 22.3362V16.4743H134.108V40.1947H128.89L115.912 22.7087L117.64 22.9468C117.753 24.0297 117.849 24.9513 117.928 25.7078C118.007 26.4643 118.076 27.1364 118.132 27.7239C118.187 28.3114 118.228 28.8414 118.251 29.3176C118.272 29.7918 118.289 30.2603 118.301 30.723C118.312 31.1858 118.318 31.7003 118.318 32.2648V40.1947H112.727ZM166.717 40.1947V16.4743H171.866L180.507 30.5368L176.814 30.5022L185.556 16.4743H190.504V40.1947H184.913V32.8063C184.913 30.7749 184.963 28.9431 185.065 27.3168C185.167 25.6906 185.341 24.0758 185.589 22.4725L186.234 24.2332L179.66 34.4326H177.423L170.985 24.3024L171.63 22.4725C171.878 23.9855 172.053 25.5389 172.154 27.1306C172.256 28.7243 172.308 30.6155 172.308 32.8063V40.1947H166.717ZM195.366 40.1947V35.3485H199.364V21.3205H195.366V16.4743H209.156V21.3205H205.124V35.3485H209.156V40.1947H195.366ZM224.985 40.5326C223.199 40.5326 221.556 40.2331 220.054 39.634C218.551 39.0369 217.247 38.1902 216.141 37.0938C215.033 35.9974 214.181 34.6995 213.582 33.1961C212.985 31.6946 212.685 30.0395 212.685 28.2327C212.685 26.4701 213 24.8438 213.634 23.3538C214.265 21.862 215.141 20.5697 216.26 19.4734C217.378 18.377 218.699 17.5245 220.223 16.9139C221.748 16.3053 223.414 16 225.221 16C226.352 16 227.458 16.1478 228.543 16.4397C229.626 16.7335 230.638 17.1693 231.575 17.7453C232.512 18.3214 233.32 19.0049 233.998 19.796L230.474 23.8281C230 23.3308 229.497 22.8949 228.967 22.5225C228.435 22.15 227.854 21.8619 227.222 21.6584C226.588 21.4549 225.91 21.3531 225.188 21.3531C224.284 21.3531 223.432 21.5183 222.629 21.8447C221.828 22.173 221.128 22.6357 220.529 23.2348C219.929 23.8339 219.461 24.5616 219.123 25.4198C218.783 26.2781 218.614 27.2381 218.614 28.2999C218.614 29.3387 218.783 30.2814 219.123 31.1301C219.461 31.9768 219.935 32.7045 220.546 33.3151C221.156 33.9257 221.896 34.3884 222.765 34.7052C223.635 35.0221 224.601 35.1795 225.663 35.1795C226.385 35.1795 227.074 35.0777 227.729 34.8742C228.385 34.6707 228.988 34.3942 229.541 34.0428C230.094 33.6934 230.586 33.2921 231.016 32.8409L233.794 37.2455C233.23 37.8791 232.479 38.4436 231.542 38.939C230.603 39.4363 229.564 39.8261 228.424 40.1102C227.283 40.3906 226.137 40.5326 224.985 40.5326ZM50.027 71.6607C48.4871 71.6607 47.0163 71.4264 45.6108 70.9541C44.2073 70.4837 43.1013 69.8712 42.293 69.1224L43.3605 66.8721C44.1305 67.5441 45.1116 68.1028 46.304 68.5444C47.4963 68.988 48.7367 69.2088 50.027 69.2088C51.2001 69.2088 52.1525 69.0744 52.8821 68.8036C53.6137 68.5348 54.1532 68.1643 54.4988 67.6938C54.8463 67.2215 55.0191 66.6877 55.0191 66.0925C55.0191 65.3994 54.7926 64.8425 54.3414 64.4182C53.8882 63.9939 53.3026 63.654 52.5807 63.3929C51.8587 63.1337 51.0657 62.9071 50.1998 62.7151C49.3338 62.5231 48.4621 62.2965 47.5885 62.0373C46.713 61.7781 45.9142 61.446 45.1923 61.0427C44.4722 60.6376 43.8885 60.0942 43.4469 59.4107C43.0053 58.7291 42.7845 57.8478 42.7845 56.7706C42.7845 55.7318 43.0572 54.7757 43.6063 53.9001C44.1535 53.0246 45.0003 52.3218 46.1446 51.7938C47.289 51.2639 48.7463 50.9989 50.5166 50.9989C51.6898 50.9989 52.8552 51.1525 54.0092 51.4616C55.1631 51.7688 56.1635 52.2105 57.0102 52.7884L56.0579 55.0982C55.1919 54.5203 54.278 54.1017 53.316 53.8425C52.3541 53.5833 51.4209 53.4527 50.5166 53.4527C49.3818 53.4527 48.4487 53.5967 47.7171 53.8848C46.9856 54.1747 46.4518 54.5587 46.1158 55.0387C45.7798 55.5206 45.6108 56.0602 45.6108 56.6554C45.6108 57.3677 45.8374 57.9361 46.2886 58.3585C46.7418 58.7809 47.3274 59.1188 48.0493 59.3685C48.7713 59.6181 49.5642 59.8446 50.4302 60.0462C51.2961 60.2478 52.1659 60.4744 53.0415 60.724C53.917 60.9736 54.7158 61.302 55.4377 61.7052C56.1577 62.1084 56.7414 62.6479 57.1831 63.3219C57.6266 63.9939 57.8474 64.8617 57.8474 65.9178C57.8474 66.9393 57.5671 67.8858 57.0102 68.7614C56.4515 69.6369 55.5913 70.3397 54.4278 70.8677C53.2623 71.3976 51.7973 71.6607 50.027 71.6607ZM71.0747 64.2454L69.7767 62.8015H75.9805C77.8276 62.8015 79.2273 62.4079 80.1796 61.6188C81.132 60.8296 81.6082 59.7141 81.6082 58.2721C81.6082 56.8282 81.132 55.7127 80.1796 54.9235C79.2273 54.1363 77.8276 53.7407 75.9805 53.7407H69.7767L71.0747 52.2988V64.2454ZM68.1888 71.4303V51.2312H76.0669C77.8372 51.2312 79.3483 51.5096 80.5982 52.0665C81.8482 52.6252 82.8101 53.4335 83.4841 54.4915C84.1561 55.5494 84.494 56.809 84.494 58.2721C84.494 59.7333 84.1561 60.989 83.4841 62.0373C82.8101 63.0876 81.8482 63.894 80.5982 64.4605C79.3483 65.0288 77.8372 65.313 76.0669 65.313H69.7767L71.0747 63.9574V71.4303H68.1888ZM130.71 71.6607C129.17 71.6607 127.751 71.4072 126.453 70.8965C125.153 70.3877 124.028 69.6657 123.076 68.7326C122.123 67.7994 121.378 66.7069 120.841 65.457C120.301 64.207 120.031 62.8303 120.031 61.3308C120.031 59.8293 120.301 58.4545 120.841 57.2045C121.378 55.9527 122.129 54.8621 123.091 53.9289C124.053 52.9958 125.182 52.2738 126.482 51.7631C127.78 51.2543 129.199 50.9989 130.739 50.9989C132.296 50.9989 133.734 51.2639 135.051 51.7938C136.37 52.3218 137.492 53.1052 138.413 54.144L136.537 55.9623C135.769 55.1539 134.901 54.5529 133.941 54.1593C132.979 53.7657 131.95 53.5679 130.854 53.5679C129.717 53.5679 128.665 53.7599 127.693 54.144C126.722 54.5299 125.879 55.0694 125.169 55.7607C124.456 56.4538 123.903 57.2756 123.51 58.2279C123.114 59.1803 122.916 60.2152 122.916 61.3308C122.916 62.4463 123.114 63.4793 123.51 64.4317C123.903 65.384 124.456 66.2077 125.169 66.8989C125.879 67.5921 126.722 68.1316 127.693 68.5156C128.665 68.9016 129.717 69.0936 130.854 69.0936C131.95 69.0936 132.979 68.8958 133.941 68.5022C134.901 68.1086 135.769 67.4961 136.537 66.6685L138.413 68.4868C137.492 69.5256 136.37 70.3147 135.051 70.8523C133.734 71.3919 132.286 71.6607 130.71 71.6607ZM148.428 59.9445H158.816V62.3983H148.428V59.9445ZM148.687 68.9208H160.461V71.4303H145.802V51.2312H160.058V53.7407H148.687V68.9208Z" fill="#15172A"/>
<path d="M99.6359 34.0455C99.6359 34.9499 99.0944 35.7755 98.2534 36.1039C97.7139 36.3151 97.0515 36.4859 96.2834 36.5147C95.3465 36.5493 94.5419 36.3592 93.9102 36.1154C93.0501 35.787 92.4856 34.9614 92.4856 34.0417V23.1319C92.4856 22.1085 93.1825 21.2195 94.1752 20.9757C94.6533 20.8566 95.2005 20.7702 95.8034 20.7491C96.6252 20.7242 97.3568 20.8278 97.9712 20.9814C98.9542 21.2272 99.6359 22.12 99.6359 23.1319V34.0455ZM107.608 23.4737C106.99 21.9607 106.118 20.6435 104.997 19.5222C104.419 18.9423 103.783 18.4297 103.096 17.9881C102.956 17.8997 102.817 17.8133 102.673 17.7269C102.155 17.4255 101.606 17.1567 101.028 16.9282C99.5053 16.3195 97.8502 16.0181 96.0607 16.0181C94.252 16.0181 92.5912 16.3195 91.0781 16.9282C90.5041 17.1567 89.9607 17.4255 89.4442 17.7269C89.3482 17.7845 89.256 17.8421 89.1638 17.9017C88.4246 18.3606 87.7468 18.902 87.1267 19.5222C86.0053 20.6435 85.1336 21.9607 84.5154 23.4737C83.899 24.9867 83.5899 26.6437 83.5899 28.4562C83.5899 30.2649 83.899 31.9277 84.5154 33.4388C85.1336 34.9518 86.0053 36.2671 87.1267 37.3903C88.2499 38.5097 89.569 39.3833 91.0781 39.9997C92.5912 40.6179 94.252 40.929 96.0607 40.929C97.8713 40.929 99.5341 40.6179 101.043 39.9997C102.554 39.3833 103.873 38.5097 104.997 37.3903C106.118 36.2671 106.99 34.9518 107.608 33.4388C108.226 31.9277 108.535 30.2553 108.535 28.4217C108.535 26.6341 108.226 24.9867 107.608 23.4737ZM144.834 32.0122C144.039 32.0045 143.31 31.5399 143 30.8064C142.76 30.2361 142.553 29.5027 142.53 28.6406C142.499 27.6037 142.743 26.7301 143.029 26.0715C143.35 25.3285 144.087 24.8542 144.897 24.8619L156.097 24.9541C157.003 24.9617 157.796 25.5685 158.031 26.4421C158.173 26.972 158.28 27.5941 158.298 28.2892C158.319 29.2108 158.177 30.0153 157.988 30.6701C157.739 31.5322 156.934 32.112 156.038 32.1044L144.834 32.0122ZM155.477 40.0726C156.994 39.4678 158.319 38.6057 159.448 37.494C160.033 36.918 160.552 36.2901 160.999 35.6066C161.089 35.4664 161.176 35.3282 161.264 35.1841C161.571 34.6677 161.842 34.1224 162.076 33.5444C162.696 32.0295 163.013 30.3744 163.029 28.5849C163.042 26.7781 162.754 25.1134 162.159 23.5966C161.934 23.0206 161.671 22.4753 161.372 21.9568C161.316 21.8608 161.26 21.7687 161.201 21.6746C160.748 20.9334 160.212 20.2499 159.596 19.624C158.484 18.495 157.174 17.6117 155.667 16.98C154.16 16.3503 152.503 16.0277 150.692 16.0142C148.884 15.9989 147.219 16.2927 145.702 16.8994C144.185 17.5042 142.862 18.3644 141.729 19.4761C140.6 20.5917 139.717 21.9031 139.085 23.4065C138.456 24.9137 138.129 26.5727 138.116 28.3814C138.1 30.192 138.398 31.8567 139.005 33.3716C139.61 34.8885 140.472 36.2133 141.582 37.3461C142.697 38.4771 144.005 39.3603 145.512 39.9901C147.019 40.6198 148.688 40.9424 150.521 40.9578C152.307 40.9712 153.958 40.6774 155.477 40.0726ZM102.389 68.4742C99.513 72.0609 91.8039 80.92 79.9303 86.0812C72.1195 89.4758 64.7003 90.3168 63.6232 90.4301C62.8647 90.5107 60.3437 90.7296 57.1334 90.7296C46.9321 90.7296 37.2876 88.487 29.4576 84.236C19.7152 78.9424 13.907 71.17 13.0967 62.3434C12.2865 53.5227 16.5874 44.819 25.2066 37.8454C29.5901 34.2952 34.8357 31.4055 40.64 29.2934C41.5329 28.9689 42.4353 28.6617 43.3531 28.3756C44.3016 28.078 45.2578 27.8015 46.2332 27.5481C48.6659 26.9048 51.1677 26.3883 53.7272 26.012V30.1382C53.082 30.2419 52.4427 30.3513 51.8052 30.4704C49.9062 30.8256 48.0438 31.2615 46.2332 31.7741C44.315 32.3175 42.4468 32.9454 40.64 33.6577C35.8188 35.5509 31.4564 38.0335 27.7718 41.0173C20.249 47.1077 16.4818 54.548 17.1615 61.9729C17.8412 69.3958 22.9025 76.0296 31.4065 80.6474C44.9448 87.9993 58.4601 87.0316 63.2488 86.3653C82.7816 83.6427 94.9836 70.9588 98.8947 66.5042C100.06 67.1609 101.226 67.8175 102.389 68.4742Z" fill="#F08C03"/>
<path d="M106.941 71.5045L106.793 71.4258C102.308 68.9834 97.8072 66.543 93.32 64.1007C93.2182 64.0527 93.1145 63.9894 93.0262 63.9433L91.8934 63.325C91.0697 62.8815 91.0466 61.7141 91.8242 61.2283L106.952 51.6914C107.576 51.3362 108.323 51.3438 108.926 51.7067C109.761 52.2251 109.823 53.1698 109.834 53.2601C109.833 53.3196 109.833 53.3637 109.831 53.4252L110.076 71.1531C110.092 72.0805 109.101 72.6776 108.279 72.2341L106.941 71.5045Z" fill="#F08C03"/>
<path d="M46.234 35.3168C46.2129 35.3206 46.1937 35.3283 46.1726 35.3341C44.2429 35.8774 42.3632 36.5091 40.5468 37.2215C40.5449 37.2215 40.5449 37.2234 40.543 37.2234V40.2513L57.5144 40.2686L57.5163 35.3264L46.234 35.3168ZM57.1937 16.4138L57.1899 21.3541L46.1822 21.3445L46.1764 27.5386C45.1972 27.794 44.2352 28.0705 43.281 28.37C42.3574 28.6561 41.4492 28.9652 40.5526 29.2878L40.5641 16.3965L57.1937 16.4138Z" fill="#15172A"/>
</svg>
