<svg width="258" height="87" viewBox="0 0 258 87" fill="none" xmlns="http://www.w3.org/2000/svg">
<path d="M68.9586 28.8446C66.8816 28.8446 64.9672 28.5014 63.2154 27.8191C61.4677 27.1327 59.9476 26.1671 58.6592 24.9141C57.3707 23.6612 56.379 22.1768 55.684 20.4609C54.9849 18.7411 54.6353 16.8497 54.6353 14.7867C54.6353 12.7716 55.0052 10.9121 55.7409 9.20827C56.4765 7.50441 57.4967 6.028 58.7973 4.77504C60.102 3.52209 61.6384 2.54446 63.4146 1.85015C65.1908 1.15184 67.1295 0.804688 69.2349 0.804688C70.5478 0.804688 71.8362 0.97228 73.1003 1.30747C74.3602 1.64265 75.5389 2.14144 76.6323 2.79984C77.7216 3.45425 78.6605 4.23635 79.453 5.14215L75.3479 9.75095C74.7951 9.18433 74.2099 8.68554 73.5921 8.25858C72.9743 7.83162 72.2955 7.50441 71.5598 7.27297C70.8242 7.04154 70.0356 6.92183 69.1943 6.92183C68.1416 6.92183 67.1499 7.10937 66.215 7.48446C65.2843 7.85955 64.4673 8.39026 63.7682 9.0726C63.0732 9.75494 62.5245 10.5889 62.1302 11.5705C61.74 12.5521 61.5409 13.6495 61.5409 14.8625C61.5409 16.0516 61.74 17.129 62.1302 18.0947C62.5245 19.0643 63.0813 19.8983 63.7885 20.5926C64.4998 21.2909 65.3615 21.8216 66.3735 22.1808C67.3856 22.5439 68.5074 22.7234 69.7471 22.7234C70.5884 22.7234 71.3891 22.6077 72.1532 22.3763C72.9174 22.1448 73.6164 21.8296 74.2627 21.4266C74.909 21.0276 75.482 20.5687 75.982 20.0539L79.2132 25.0897C78.5589 25.8119 77.6809 26.4584 76.5916 27.025C75.4983 27.5916 74.2912 28.0385 72.9621 28.3617C71.633 28.681 70.2998 28.8446 68.9586 28.8446ZM116.107 28.4575V1.34737H122.102L136.579 20.7123L135.279 20.5168C135.145 19.6669 135.043 18.8528 134.962 18.0787C134.884 17.3006 134.811 16.5425 134.746 15.7923C134.677 15.0421 134.628 14.2839 134.588 13.5058C134.547 12.7317 134.523 11.8937 134.506 10.9879C134.494 10.0861 134.49 9.10452 134.49 8.04709V1.34737H140.997V28.4575H134.921L119.813 8.47406L121.825 8.7454C121.955 9.98239 122.065 11.0358 122.159 11.9017C122.252 12.7636 122.329 13.5338 122.398 14.2041C122.463 14.8745 122.508 15.481 122.537 16.0237C122.561 16.5664 122.581 17.1011 122.593 17.6318C122.606 18.1625 122.614 18.7491 122.614 19.3955V28.4575H116.107ZM178.964 28.4575V1.34737H184.959L195.018 17.4203L190.718 17.3804L200.896 1.34737H206.655V28.4575H200.144V20.014C200.144 17.6917 200.205 15.6007 200.323 13.7373C200.44 11.8778 200.644 10.0343 200.936 8.20272L201.684 10.2138L194.031 21.8735H191.425L183.931 10.2936L184.682 8.20272C184.971 9.93052 185.174 11.7062 185.292 13.5258C185.41 15.3454 185.471 17.5081 185.471 20.014V28.4575H178.964ZM212.317 28.4575V22.919H216.971V6.88591H212.317V1.34737H228.372V6.88591H223.677V22.919H228.372V28.4575H212.317ZM246.8 28.8446C244.723 28.8446 242.809 28.5014 241.057 27.8191C239.309 27.1327 237.793 26.1671 236.501 24.9141C235.216 23.6612 234.22 22.1768 233.525 20.4609C232.826 18.7411 232.477 16.8497 232.477 14.7867C232.477 12.7716 232.847 10.9121 233.582 9.20827C234.318 7.50441 235.338 6.028 236.639 4.77504C237.943 3.52209 239.48 2.54446 241.256 1.85015C243.032 1.15184 244.971 0.804688 247.076 0.804688C248.389 0.804688 249.678 0.97228 250.942 1.30747C252.202 1.64265 253.38 2.14144 254.474 2.79984C255.563 3.45425 256.506 4.23635 257.294 5.14215L253.189 9.75095C252.637 9.18433 252.051 8.68554 251.433 8.25858C250.816 7.83162 250.141 7.50441 249.405 7.27297C248.666 7.04154 247.877 6.92183 247.036 6.92183C245.983 6.92183 244.991 7.10937 244.056 7.48446C243.126 7.85955 242.309 8.39026 241.614 9.0726C240.915 9.75494 240.366 10.5889 239.972 11.5705C239.581 12.5521 239.382 13.6495 239.382 14.8625C239.382 16.0516 239.581 17.129 239.972 18.0947C240.366 19.0643 240.923 19.8983 241.63 20.5926C242.341 21.2909 243.203 21.8216 244.215 22.1808C245.227 22.5439 246.353 22.7234 247.588 22.7234C248.43 22.7234 249.23 22.6077 249.995 22.3763C250.759 22.1448 251.462 21.8296 252.104 21.4266C252.75 21.0276 253.323 20.5687 253.823 20.0539L257.055 25.0897C256.4 25.8119 255.522 26.4584 254.433 27.025C253.34 27.5916 252.133 28.0385 250.803 28.3617C249.474 28.681 248.141 28.8446 246.8 28.8446ZM43.1085 64.4221C41.312 64.4221 39.6008 64.1548 37.9669 63.6161C36.3289 63.0774 35.0445 62.3791 34.1016 61.5212L35.3453 58.9474C36.2395 59.7176 37.3857 60.356 38.7717 60.8628C40.1617 61.3696 41.6046 61.6209 43.1085 61.6209C44.4741 61.6209 45.5797 61.4653 46.4332 61.1581C47.2827 60.8508 47.9086 60.4278 48.3151 59.8892C48.7174 59.3505 48.9207 58.7399 48.9207 58.0576C48.9207 57.2675 48.6565 56.6291 48.1281 56.1462C47.6038 55.6634 46.9209 55.2724 46.0796 54.9731C45.2423 54.6778 44.3156 54.4184 43.3076 54.199C42.2996 53.9795 41.2876 53.7201 40.2674 53.4249C39.2472 53.1256 38.3205 52.7465 37.4791 52.2836C36.6419 51.8247 35.9631 51.2023 35.4469 50.4241C34.9307 49.642 34.6747 48.6365 34.6747 47.4035C34.6747 46.2184 34.9957 45.121 35.6298 44.1235C36.272 43.1219 37.2556 42.3198 38.5887 41.7133C39.9178 41.1108 41.6168 40.8075 43.6775 40.8075C45.0431 40.8075 46.4007 40.9831 47.742 41.3342C49.0873 41.6854 50.2497 42.1921 51.2374 42.8545L50.1278 45.4921C49.1198 44.8297 48.0549 44.3549 46.9372 44.0556C45.8154 43.7603 44.7302 43.6087 43.6775 43.6087C42.3565 43.6087 41.2713 43.7763 40.4178 44.1075C39.5683 44.4347 38.9464 44.8736 38.5562 45.4243C38.162 45.975 37.9669 46.5935 37.9669 47.2718C37.9669 48.0858 38.2311 48.7362 38.7554 49.2191C39.2797 49.7019 39.9666 50.089 40.808 50.3723C41.6452 50.6596 42.5679 50.915 43.5759 51.1504C44.5839 51.3778 45.6 51.6372 46.6161 51.9245C47.6363 52.2078 48.5671 52.5829 49.4084 53.0458C50.2457 53.5047 50.9244 54.1232 51.4406 54.8933C51.9528 55.6634 52.2129 56.653 52.2129 57.8581C52.2129 59.0272 51.8877 60.1086 51.2374 61.1102C50.5871 62.1078 49.5872 62.9138 48.2297 63.5163C46.8762 64.1229 45.1651 64.4221 43.1085 64.4221ZM67.6132 55.9467L66.1012 54.2987H73.3238C75.4739 54.2987 77.1038 53.8478 78.2134 52.946C79.323 52.0442 79.8758 50.7673 79.8758 49.1193C79.8758 47.4713 79.323 46.1944 78.2134 45.2926C77.1038 44.3908 75.4739 43.9399 73.3238 43.9399H66.1012L67.6132 42.2919V55.9467ZM64.2519 64.1588V41.0709H73.4254C75.482 41.0709 77.242 41.3901 78.6971 42.0285C80.1562 42.667 81.2739 43.5888 82.0584 44.7978C82.8428 46.0069 83.233 47.4474 83.233 49.1193C83.233 50.7913 82.8428 52.2238 82.0584 53.4249C81.2739 54.622 80.1562 55.5437 78.6971 56.1941C77.242 56.8446 75.482 57.1678 73.4254 57.1678H66.1012L67.6132 55.6195V64.1588H64.2519ZM137.043 64.4221C135.246 64.4221 133.596 64.1348 132.084 63.5483C130.572 62.9657 129.263 62.1437 128.154 61.0783C127.044 60.0089 126.178 58.7599 125.552 57.3314C124.922 55.9028 124.609 54.3307 124.609 52.6148C124.609 50.903 124.922 49.3308 125.552 47.8983C126.178 46.4698 127.048 45.2208 128.17 44.1554C129.292 43.09 130.605 42.264 132.121 41.6814C133.629 41.0988 135.283 40.8075 137.075 40.8075C138.888 40.8075 140.563 41.1108 142.095 41.7133C143.631 42.3198 144.936 43.2137 146.009 44.4028L143.826 46.4817C142.932 45.556 141.92 44.8696 140.802 44.4187C139.685 43.9678 138.486 43.7444 137.209 43.7444C135.888 43.7444 134.661 43.9638 133.531 44.4028C132.397 44.8417 131.417 45.4602 130.588 46.2503C129.759 47.0404 129.117 47.9821 128.658 49.0714C128.198 50.1568 127.967 51.3419 127.967 52.6148C127.967 53.8917 128.198 55.0729 128.658 56.1622C129.117 57.2516 129.759 58.1893 130.588 58.9834C131.417 59.7734 132.397 60.3879 133.531 60.8269C134.661 61.2698 135.888 61.4893 137.209 61.4893C138.486 61.4893 139.685 61.2618 140.802 60.8149C141.92 60.36 142.932 59.6657 143.826 58.716L146.009 60.795C144.936 61.9841 143.631 62.8859 142.095 63.5004C140.563 64.1149 138.876 64.4221 137.043 64.4221ZM157.67 51.0347H169.766V53.8359H157.67V51.0347ZM157.971 61.2898H171.68V64.1588H154.609V41.0709H171.209V43.9399H157.971V61.2898Z" fill="white"/>
<path d="M100.863 21.4289C100.863 22.4624 100.233 23.4041 99.2533 23.7792C98.6274 24.0186 97.8552 24.2181 96.961 24.2501C95.8717 24.29 94.9328 24.0705 94.1971 23.7952C93.1973 23.4161 92.5388 22.4744 92.5388 21.4249V8.95122C92.5388 7.78606 93.3477 6.76853 94.506 6.48522C95.0629 6.35354 95.701 6.25378 96.4001 6.22984C97.3593 6.19791 98.2088 6.31762 98.9282 6.49719C100.07 6.77651 100.863 7.79803 100.863 8.95521V21.4289ZM110.146 9.34227C109.427 7.61447 108.411 6.11013 107.106 4.82525C106.431 4.16685 105.696 3.58027 104.895 3.0735C104.728 2.96976 104.566 2.87399 104.399 2.77423C103.793 2.42707 103.159 2.12381 102.485 1.86045C100.713 1.16614 98.7859 0.818981 96.7009 0.818981C94.5955 0.818981 92.6608 1.16614 90.9008 1.86045C90.2343 2.12381 89.6002 2.42707 88.9987 2.77423C88.8849 2.84207 88.7792 2.90591 88.6735 2.97375C87.8118 3.50047 87.0233 4.11896 86.2999 4.82525C84.9952 6.11013 83.979 7.61447 83.2596 9.34227C82.5402 11.0701 82.1825 12.9695 82.1825 15.0364C82.1825 17.1074 82.5402 19.0068 83.2596 20.7346C83.979 22.4624 84.9952 23.9628 86.2999 25.2476C87.6086 26.5285 89.1409 27.5261 90.9008 28.2324C92.6608 28.9387 94.5955 29.2938 96.7009 29.2938C98.8103 29.2938 100.745 28.9387 102.501 28.2324C104.265 27.5261 105.797 26.5285 107.106 25.2476C108.411 23.9628 109.427 22.4624 110.146 20.7346C110.862 19.0068 111.223 17.0954 111.223 14.9965C111.223 12.9575 110.862 11.0701 110.146 9.34227ZM153.486 19.1026C152.559 19.0946 151.71 18.5639 151.352 17.7259C151.071 17.0715 150.828 16.2335 150.803 15.2479C150.767 14.0628 151.051 13.0652 151.38 12.3151C151.758 11.4651 152.616 10.9224 153.559 10.9304L166.598 11.0342C167.65 11.0421 168.577 11.7365 168.849 12.738C169.016 13.3406 169.138 14.0508 169.158 14.8489C169.187 15.8983 169.02 16.8201 168.801 17.5703C168.508 18.5559 167.573 19.2143 166.529 19.2063L153.486 19.1026ZM165.874 28.3162C167.642 27.6219 169.183 26.6402 170.5 25.3673C171.178 24.7129 171.784 23.9907 172.304 23.2086C172.41 23.049 172.512 22.8934 172.613 22.7297C172.971 22.1392 173.284 21.5167 173.56 20.8543C174.28 19.1225 174.649 17.2311 174.666 15.1881C174.686 13.1211 174.349 11.2177 173.654 9.48193C173.394 8.82752 173.089 8.20105 172.739 7.61048C172.674 7.49875 172.609 7.395 172.54 7.28727C172.012 6.43733 171.39 5.65922 170.67 4.94496C169.378 3.6521 167.85 2.64255 166.098 1.9243C164.342 1.20205 162.415 0.834942 160.306 0.814991C158.201 0.79903 156.262 1.13821 154.494 1.82853C152.73 2.51885 151.189 3.50446 149.868 4.77337C148.555 6.05027 147.527 7.54664 146.792 9.26646C146.06 10.9903 145.682 12.8857 145.662 14.9526C145.645 17.0236 145.995 18.927 146.698 20.6548C147.401 22.3906 148.405 23.9029 149.698 25.1997C150.994 26.4926 152.518 27.5022 154.274 28.2204C156.026 28.9427 157.973 29.3098 160.107 29.3257C162.184 29.3457 164.11 29.0065 165.874 28.3162ZM104.07 60.7773C100.721 64.8793 91.7422 75.0028 77.9189 80.9004C68.8266 84.783 60.1896 85.7447 58.9378 85.8723C58.0517 85.9681 55.1212 86.2155 51.3778 86.2155C39.5055 86.2155 28.2753 83.6537 19.1587 78.7935C7.81879 72.7442 1.0555 63.8578 0.112536 53.7703C-0.830423 43.6868 4.17702 33.739 14.2122 25.7704C19.3131 21.7122 25.4221 18.4082 32.1772 15.9941C33.2177 15.627 34.2704 15.2759 35.3353 14.9487C36.4409 14.6055 37.5545 14.2903 38.6885 13.999C41.5215 13.2647 44.4357 12.6742 47.415 12.2432V16.9598C46.6671 17.0795 45.9192 17.2032 45.1754 17.3428C42.9644 17.7459 40.798 18.2446 38.6885 18.8312C36.4571 19.4497 34.2826 20.168 32.1772 20.982C26.5642 23.1487 21.4876 25.9858 17.1956 29.3936C8.44066 36.3566 4.05102 44.86 4.84766 53.3474C5.63617 61.8308 11.5297 69.4123 21.4307 74.6915C37.1928 83.0951 52.9264 81.9898 58.5029 81.2276C81.2436 78.1192 95.4449 63.6184 100.001 58.5268C101.359 59.277 102.712 60.0271 104.07 60.7773Z" fill="#FC8025"/>
<path d="M109.368 64.2447L109.197 64.1529C103.971 61.3637 98.7314 58.5705 93.5126 55.7812C93.3907 55.7254 93.2687 55.6535 93.1671 55.6017L91.8502 54.8954C90.891 54.3886 90.8626 53.0519 91.7689 52.4972L109.38 41.5957C110.108 41.1927 110.978 41.2007 111.681 41.6156C112.652 42.2102 112.721 43.2876 112.738 43.3913C112.734 43.4592 112.734 43.511 112.729 43.5789L113.018 63.8417C113.034 64.9031 111.884 65.5854 110.925 65.0747L109.368 64.2447Z" fill="#FC8025"/>
<path d="M38.6917 22.8774C38.6673 22.8854 38.6429 22.8933 38.6185 22.8973C36.3709 23.5198 34.1842 24.2421 32.0706 25.0561C32.0666 25.0561 32.0666 25.0601 32.0666 25.0601L32.0625 28.5197L51.8199 28.5396L51.824 22.8893L38.6917 22.8774ZM51.4501 1.27386L51.446 6.92014L38.6307 6.90817L38.6226 13.991C37.4845 14.2823 36.3627 14.5975 35.2531 14.9407C34.176 15.2679 33.1193 15.619 32.0747 15.9901L32.0869 1.25391L51.4501 1.27386Z" fill="white"/>
</svg>
