<svg width="385" height="116" viewBox="0 0 385 116" fill="none" xmlns="http://www.w3.org/2000/svg">
<path d="M43.5756 101.283L53.8043 18.832H67.0189L56.8788 101.283H43.5756ZM0 82.4512V69.5914H76.1833V82.4512H0ZM13.0668 101.283L23.325 18.832H36.6283L26.2518 101.283H13.0668ZM3.87273 50.5233V37.6931H79.9674L80.0856 50.5233H3.87273Z" fill="#81E0D8"/>
<path d="M103.673 33.4784H118.033V38.8884H103.673V33.4784ZM104.183 45.7913H120.413V51.3269H97.3242V21.5128H119.866V27.0485H104.183V45.7913ZM154.794 28.0684C156.605 28.0684 158.224 28.4305 159.628 29.1548C161.032 29.8791 162.133 30.9877 162.924 32.4806C163.722 33.9736 164.121 35.8804 164.121 38.2084V51.3269H157.477V39.2283C157.477 37.3807 157.1 36.0208 156.346 35.1413C155.592 34.2618 154.536 33.8183 153.176 33.8183C152.178 33.8183 151.298 34.0401 150.53 34.4835C149.761 34.9196 149.177 35.5699 148.763 36.442C148.35 37.3068 148.143 38.4375 148.143 39.827V51.3269H141.506V39.2283C141.506 37.3807 141.121 36.0208 140.375 35.1413C139.621 34.2618 138.535 33.8183 137.116 33.8183C136.148 33.8183 135.283 34.0401 134.514 34.4835C133.746 34.9196 133.154 35.5699 132.726 36.442C132.297 37.3068 132.083 38.4375 132.083 39.827V51.3269H125.438V28.4084H131.787V34.6313L130.597 32.8354C131.358 31.2833 132.482 30.0934 133.96 29.2805C135.438 28.4749 137.101 28.0684 138.941 28.0684C141.048 28.0684 142.895 28.6005 144.484 29.6648C146.073 30.729 147.123 32.355 147.633 34.5426L145.29 33.907C146.058 32.1481 147.278 30.729 148.956 29.6648C150.633 28.6005 152.577 28.0684 154.794 28.0684ZM183.611 46.5008C184.712 46.4121 185.673 46.0721 186.493 45.4883C187.313 44.9044 187.949 44.121 188.392 43.1232C188.836 42.1329 188.998 40.9873 188.888 39.6866C188.777 38.3562 188.422 37.2476 187.816 36.3534C187.217 35.4665 186.463 34.8087 185.554 34.3874C184.653 33.9662 183.648 33.8036 182.546 33.8996C181.438 33.9883 180.47 34.3209 179.634 34.89C178.799 35.4591 178.156 36.2351 177.713 37.2107C177.269 38.1936 177.107 39.3466 177.218 40.6769C177.329 41.9777 177.683 43.0789 178.289 43.9806C178.888 44.8822 179.657 45.5548 180.573 45.9908C181.497 46.4269 182.509 46.5969 183.611 46.5008ZM185.17 51.8443C183.278 52.0069 181.571 51.7186 180.056 50.9943C178.541 50.27 177.306 49.0654 176.353 47.3951C175.4 45.7248 174.816 43.5593 174.587 40.8986C174.357 38.2084 174.55 35.969 175.17 34.1805C175.791 32.3919 176.789 31.0025 178.178 30.0343C179.561 29.0587 181.231 28.4897 183.182 28.3271C185.362 28.1423 187.35 28.4675 189.146 29.2952C190.935 30.1304 192.413 31.3794 193.566 33.0497C194.719 34.72 195.399 36.7377 195.598 39.1175C195.798 41.5268 195.473 43.6406 194.615 45.4661C193.758 47.2916 192.516 48.7623 190.89 49.8857C189.257 51.0091 187.35 51.6595 185.17 51.8443ZM172.384 60.8757L169.753 29.8052L176.08 29.2731L176.479 33.9366L176.922 40.7434L177.92 47.4542L179.006 60.314L172.384 60.8757ZM236.425 49.7527L231.983 24.3361L238.812 25.3412L242.478 47.5429L238.982 47.0255L249.218 26.8711L255.419 27.7875L259.04 49.9744L255.714 49.4866L265.788 29.31L272.232 30.256L260.659 53.315L253.534 52.2655L250.312 33.2345L252.204 33.5153L243.549 50.7948L236.425 49.7527ZM286.534 54.5714C283.932 54.771 281.611 54.431 279.579 53.5663C277.554 52.6942 275.928 51.4156 274.716 49.7231C273.504 48.0381 272.816 46.0647 272.639 43.7958C272.469 41.5342 272.831 39.4648 273.733 37.6024C274.627 35.7399 275.965 34.2396 277.746 33.0941C279.52 31.9411 281.574 31.2833 283.895 31.106C286.127 30.936 288.182 31.2612 290.059 32.0889C291.929 32.9167 293.451 34.1657 294.634 35.8434C295.816 37.5137 296.504 39.5831 296.688 42.0516C296.71 42.3029 296.718 42.5985 296.71 42.9237C296.71 43.2489 296.703 43.5593 296.696 43.8401L278.138 45.2592L277.842 41.3938L292.919 40.2409L290.414 41.586C290.354 40.3961 290.051 39.3762 289.505 38.541C288.95 37.6985 288.233 37.0629 287.346 36.6342C286.46 36.1982 285.447 36.0282 284.316 36.1169C283.186 36.1982 282.203 36.5233 281.382 37.085C280.554 37.6467 279.934 38.3932 279.52 39.317C279.106 40.2483 278.951 41.3199 279.039 42.5394L279.121 43.5593C279.217 44.8379 279.579 45.9169 280.222 46.8038C280.857 47.6981 281.693 48.3559 282.72 48.7771C283.747 49.191 284.959 49.3536 286.341 49.2501C287.531 49.154 288.573 48.888 289.468 48.4519C290.362 48.0159 291.16 47.3951 291.87 46.6043L295.683 50.1592C294.73 51.4304 293.481 52.4429 291.943 53.1968C290.406 53.958 288.603 54.4162 286.534 54.5714ZM302.268 51.3269V28.4084H308.617V34.927L307.715 33.0128C308.403 31.3942 309.496 30.1673 310.997 29.3248C312.504 28.4897 314.337 28.0684 316.495 28.0684V34.247C316.237 34.1879 315.993 34.1509 315.749 34.1214C315.505 34.0918 315.276 34.077 315.047 34.077C313.17 34.077 311.684 34.6018 310.575 35.6512C309.467 36.7007 308.913 38.3193 308.913 40.5069V51.3269H302.268ZM320.841 26.4572H327.485V49.3758H320.841V26.4572ZM324.16 23.2644C322.911 23.2644 321.905 22.9097 321.137 22.2002C320.368 21.4907 319.984 20.6038 319.984 19.5543C319.984 18.5048 320.368 17.6253 321.137 16.9158C321.905 16.2063 322.911 15.8516 324.16 15.8516C325.386 15.8516 326.384 16.1841 327.168 16.8493C327.944 17.5145 328.335 18.3792 328.335 19.4287C328.335 20.5373 327.951 21.4537 327.19 22.178C326.421 22.9023 325.409 23.2644 324.16 23.2644ZM347.588 28.0684C349.406 28.0684 351.032 28.4305 352.466 29.1548C353.9 29.8791 355.03 30.9877 355.858 32.4806C356.679 33.9736 357.092 35.8804 357.092 38.2084V51.3269H350.448V39.2283C350.448 37.3807 350.042 36.0208 349.229 35.1413C348.423 34.2618 347.278 33.8183 345.807 33.8183C344.75 33.8183 343.804 34.0475 342.969 34.5057C342.134 34.9565 341.483 35.6217 341.01 36.5012C340.537 37.3807 340.308 38.5484 340.308 39.997V51.3269H333.664V28.4084H340.005V34.757L338.815 32.8354C339.636 31.3055 340.818 30.1304 342.355 29.3026C343.885 28.4823 345.63 28.0684 347.588 28.0684ZM373.167 43.2415C374.254 43.2415 375.215 43.0124 376.057 42.5689C376.907 42.1181 377.565 41.4973 378.038 40.7065C378.511 39.9157 378.747 39.0066 378.747 37.9719C378.747 36.9224 378.511 36.006 378.038 35.2226C377.565 34.4466 376.907 33.8479 376.057 33.4266C375.215 33.0054 374.254 32.791 373.167 32.791C372.118 32.791 371.157 33.0054 370.3 33.4266C369.442 33.8479 368.77 34.4466 368.282 35.2226C367.794 36.006 367.55 36.9224 367.55 37.9719C367.55 39.0066 367.794 39.9157 368.282 40.7065C368.77 41.4973 369.442 42.1181 370.3 42.5689C371.157 43.0124 372.118 43.2415 373.167 43.2415ZM372.894 57.2912C370.884 57.2912 368.955 57.0473 367.092 56.5595C365.237 56.0717 363.685 55.3327 362.443 54.3571L364.897 49.8857C365.821 50.6544 366.966 51.253 368.319 51.6891C369.679 52.1251 371.061 52.3394 372.458 52.3394C374.623 52.3394 376.205 51.8517 377.203 50.8761C378.208 49.9005 378.71 48.4519 378.71 46.523V43.3597L379.109 37.9719L378.984 32.5545V28.0019H384.845V45.7322C384.845 49.664 383.817 52.5686 381.755 54.4606C379.701 56.3452 376.744 57.2912 372.894 57.2912ZM371.903 48.2672C369.974 48.2672 368.208 47.8385 366.597 46.9812C364.993 46.1239 363.707 44.9192 362.761 43.3745C361.808 41.8373 361.335 40.0339 361.335 37.9719C361.335 35.8951 361.808 34.077 362.761 32.5324C363.707 30.9877 364.993 29.7978 366.597 28.9553C368.208 28.1053 369.974 27.6841 371.903 27.6841C373.751 27.6841 375.355 28.0462 376.715 28.7705C378.067 29.5022 379.132 30.6256 379.9 32.1554C380.661 33.6853 381.046 35.6291 381.046 37.9719C381.046 40.3222 380.661 42.2585 379.9 43.7736C379.132 45.2887 378.067 46.4195 376.715 47.1586C375.355 47.8976 373.751 48.2672 371.903 48.2672ZM103.673 80.9193H118.033V86.3293H103.673V80.9193ZM104.183 93.2322H120.413V98.7678H97.3242V68.9537H119.866V74.4894H104.183V93.2322ZM136.347 99.1078C133.879 99.1078 131.684 98.6052 129.762 97.6001C127.848 96.5875 126.34 95.1907 125.246 93.4022C124.16 91.6136 123.613 89.5812 123.613 87.3122C123.613 85.0137 124.16 82.9813 125.246 81.2149C126.34 79.4559 127.848 78.0665 129.762 77.0465C131.684 76.0266 133.879 75.5093 136.347 75.5093C138.756 75.5093 140.87 76.0118 142.674 77.0244C144.477 78.0295 145.778 79.4559 146.568 81.3036L141.461 84.1194C140.833 83.0404 140.079 82.2496 139.2 81.7544C138.32 81.2519 137.352 81.008 136.303 81.008C135.194 81.008 134.189 81.2519 133.28 81.7544C132.371 82.2496 131.647 82.9665 131.107 83.9051C130.568 84.8437 130.294 85.9745 130.294 87.3122C130.294 88.6499 130.568 89.7881 131.107 90.7415C131.647 91.6949 132.371 92.4118 133.28 92.9144C134.189 93.4096 135.194 93.6608 136.303 93.6608C137.352 93.6608 138.32 93.4096 139.2 92.9144C140.079 92.4118 140.833 91.6136 141.461 90.505L146.568 93.3209C145.778 95.1316 144.477 96.558 142.674 97.5779C140.87 98.5978 138.756 99.1078 136.347 99.1078ZM191.977 75.5093C193.795 75.5093 195.421 75.8714 196.855 76.5957C198.289 77.32 199.419 78.4286 200.247 79.9215C201.067 81.4144 201.481 83.3213 201.481 85.6493V98.7678H194.837V86.6692C194.837 84.8289 194.431 83.4617 193.618 82.5822C192.812 81.7027 191.666 81.2592 190.188 81.2592C189.139 81.2592 188.193 81.4884 187.358 81.9466C186.523 82.3974 185.872 83.0626 185.399 83.9421C184.934 84.8289 184.697 85.9893 184.697 87.4379V98.7678H178.053V75.8493H184.394V82.1979L183.204 80.2837C184.032 78.7464 185.207 77.5713 186.744 76.7435C188.274 75.9232 190.018 75.5093 191.977 75.5093ZM264.908 75.5093C266.726 75.5093 268.338 75.8714 269.742 76.5957C271.146 77.32 272.247 78.4286 273.045 79.9215C273.836 81.4144 274.235 83.3213 274.235 85.6493V98.7678H267.591V86.6692C267.591 84.8289 267.214 83.4617 266.46 82.5822C265.707 81.7027 264.65 81.2592 263.29 81.2592C262.292 81.2592 261.413 81.481 260.651 81.9244C259.883 82.3605 259.291 83.0182 258.878 83.8829C258.471 84.7477 258.264 85.8784 258.264 87.2679V98.7678H251.62V86.6692C251.62 84.8289 251.243 83.4617 250.489 82.5822C249.735 81.7027 248.649 81.2592 247.23 81.2592C246.262 81.2592 245.397 81.481 244.628 81.9244C243.867 82.3605 243.268 83.0182 242.84 83.8829C242.418 84.7477 242.204 85.8784 242.204 87.2679V98.7678H235.56V75.8493H241.901V82.0722L240.711 80.2837C241.48 78.7242 242.603 77.5343 244.074 76.7287C245.552 75.9158 247.215 75.5093 249.063 75.5093C251.162 75.5093 253.009 76.0414 254.598 77.1131C256.195 78.1699 257.237 79.8033 257.754 81.9835L255.411 81.3479C256.173 79.5889 257.399 78.1699 259.07 77.1131C260.747 76.0414 262.691 75.5093 264.908 75.5093ZM280.244 75.8493H286.888V98.7678H280.244V75.8493ZM283.562 72.6565C282.313 72.6565 281.308 72.3017 280.54 71.5922C279.778 70.8827 279.394 70.0032 279.394 68.9537C279.394 67.9043 279.778 67.0174 280.54 66.3079C281.308 65.5984 282.313 65.2436 283.562 65.2436C284.789 65.2436 285.787 65.5762 286.57 66.2487C287.346 66.9139 287.738 67.7712 287.738 68.8207C287.738 69.9293 287.354 70.8457 286.593 71.57C285.824 72.2943 284.811 72.6565 283.562 72.6565ZM300.775 99.1078C298.817 99.1078 296.947 98.8787 295.151 98.4057C293.363 97.94 291.929 97.3488 290.85 96.6393L293.023 91.9092C294.102 92.5374 295.358 93.0548 296.792 93.4687C298.226 93.8752 299.637 94.0821 301.034 94.0821C302.564 94.0821 303.65 93.8973 304.293 93.5278C304.929 93.1583 305.247 92.6483 305.247 91.9979C305.247 91.4584 305.003 91.0519 304.5 90.7859C304.005 90.5124 303.355 90.3055 302.542 90.165C301.736 90.0246 300.835 89.8842 299.837 89.7364C298.846 89.5959 297.856 89.3964 296.88 89.1451C295.898 88.8864 294.988 88.5243 294.153 88.0587C293.311 87.5857 292.646 86.9427 292.15 86.1223C291.655 85.2946 291.404 84.2303 291.404 82.9221C291.404 81.4736 291.833 80.1876 292.683 79.0716C293.532 77.9482 294.745 77.0761 296.304 76.4479C297.863 75.8271 299.755 75.5093 301.973 75.5093C303.562 75.5093 305.158 75.6867 306.762 76.0414C308.366 76.3962 309.726 76.8913 310.827 77.5122L308.573 82.2422C307.494 81.6214 306.392 81.1779 305.269 80.9193C304.146 80.668 303.074 80.5423 302.054 80.5423C300.517 80.5423 299.415 80.7345 298.728 81.1336C298.048 81.5327 297.708 82.0427 297.708 82.6709C297.708 83.24 297.967 83.6686 298.477 83.9642C298.987 84.2673 299.652 84.489 300.48 84.6294C301.3 84.7698 302.209 84.9102 303.207 85.0507C304.197 85.1985 305.18 85.3906 306.141 85.6493C307.109 85.908 308.011 86.2627 308.853 86.7357C309.689 87.2014 310.354 87.8517 310.849 88.6721C311.344 89.4999 311.595 90.5641 311.595 91.8723C311.595 93.2617 311.167 94.5034 310.317 95.5972C309.467 96.691 308.24 97.5483 306.636 98.1766C305.032 98.7974 303.074 99.1078 300.775 99.1078ZM325.054 99.1078C322.356 99.1078 320.257 98.4204 318.75 97.0458C317.249 95.6711 316.495 93.6165 316.495 90.8893V70.7792H323.184V90.7637C323.184 91.7245 323.435 92.4783 323.93 93.0178C324.426 93.5574 325.098 93.8308 325.948 93.8308C327.027 93.8308 327.936 93.5426 328.675 92.9809L330.427 97.6592C329.769 98.147 328.971 98.5091 328.017 98.753C327.064 98.9895 326.081 99.1078 325.054 99.1078ZM312.955 76.3666H328.845V81.4736H312.955V76.3666ZM341.927 99.1078C339.968 99.1078 338.091 98.8787 336.302 98.4057C334.514 97.94 333.08 97.3488 332.001 96.6393L334.174 91.9092C335.253 92.5374 336.509 93.0548 337.943 93.4687C339.377 93.8752 340.789 94.0821 342.178 94.0821C343.715 94.0821 344.802 93.8973 345.437 93.5278C346.08 93.1583 346.398 92.6483 346.398 91.9979C346.398 91.4584 346.147 91.0519 345.652 90.7859C345.157 90.5124 344.506 90.3055 343.693 90.165C342.888 90.0246 341.979 89.8842 340.988 89.7364C339.998 89.5959 339.007 89.3964 338.032 89.1451C337.049 88.8864 336.14 88.5243 335.305 88.0587C334.462 87.5857 333.797 86.9427 333.302 86.1223C332.799 85.2946 332.555 84.2303 332.555 82.9221C332.555 81.4736 332.977 80.1876 333.834 79.0716C334.684 77.9482 335.889 77.0761 337.455 76.4479C339.015 75.8271 340.899 75.5093 343.117 75.5093C344.713 75.5093 346.309 75.6867 347.913 76.0414C349.517 76.3962 350.87 76.8913 351.978 77.5122L349.724 82.2422C348.638 81.6214 347.544 81.1779 346.42 80.9193C345.297 80.668 344.225 80.5423 343.205 80.5423C341.668 80.5423 340.56 80.7345 339.88 81.1336C339.2 81.5327 338.86 82.0427 338.86 82.6709C338.86 83.24 339.118 83.6686 339.628 83.9642C340.138 84.2673 340.803 84.489 341.624 84.6294C342.452 84.7698 343.361 84.9102 344.351 85.0507C345.349 85.1985 346.324 85.3906 347.292 85.6493C348.261 85.908 349.162 86.2627 349.997 86.7357C350.833 87.2014 351.505 87.8517 352 88.6721C352.495 89.4999 352.747 90.5641 352.747 91.8723C352.747 93.2617 352.318 94.5034 351.468 95.5972C350.618 96.691 349.384 97.5483 347.788 98.1766C346.176 98.7974 344.225 99.1078 341.927 99.1078Z" fill="#FC8025"/>
<path d="M164.902 92.7465C164.902 93.6408 164.37 94.4611 163.534 94.7863C163.002 94.9933 162.345 95.1632 161.583 95.1928C160.659 95.2224 159.861 95.0376 159.233 94.7937C158.383 94.4685 157.821 93.6555 157.821 92.7391V81.9339C157.821 80.9288 158.516 80.0419 159.499 79.798C159.972 79.6871 160.512 79.5984 161.11 79.5763C161.923 79.5541 162.648 79.6576 163.254 79.8054C164.229 80.0493 164.902 80.9361 164.902 81.9413V92.7465ZM172.802 82.2739C172.189 80.7809 171.324 79.4728 170.216 78.3642C169.639 77.7877 169.011 77.2777 168.331 76.8417C168.191 76.753 168.058 76.6717 167.91 76.583C167.4 76.2874 166.853 76.0213 166.284 75.7922C164.776 75.1936 163.135 74.8906 161.362 74.8906C159.573 74.8906 157.925 75.1936 156.432 75.7922C155.863 76.0213 155.323 76.2874 154.813 76.583C154.717 76.6421 154.629 76.7013 154.533 76.7604C153.801 77.2112 153.128 77.7508 152.515 78.3642C151.406 79.4728 150.542 80.7809 149.928 82.2739C149.315 83.7742 149.012 85.4149 149.012 87.2108C149.012 88.9994 149.315 90.6475 149.928 92.1478C150.542 93.6408 151.406 94.9415 152.515 96.0575C153.631 97.1661 154.932 98.0308 156.432 98.6443C157.925 99.2577 159.573 99.5681 161.362 99.5681C163.158 99.5681 164.806 99.2577 166.299 98.6443C167.799 98.0308 169.1 97.1661 170.216 96.0575C171.324 94.9415 172.189 93.6408 172.802 92.1478C173.408 90.6475 173.719 88.992 173.719 87.1739C173.719 85.4075 173.408 83.7742 172.802 82.2739ZM212.986 90.3002C212.091 90.3002 211.278 89.768 210.953 88.9329C210.746 88.4008 210.576 87.743 210.539 86.9817C210.51 86.0579 210.694 85.2597 210.938 84.6315C211.264 83.7816 212.084 83.2199 212.993 83.2199H223.798C224.811 83.2199 225.69 83.9146 225.934 84.8976C226.052 85.3706 226.134 85.9101 226.156 86.5087C226.185 87.3217 226.082 88.046 225.927 88.652C225.683 89.6276 224.796 90.3002 223.798 90.3002H212.986ZM223.458 98.2008C224.959 97.5874 226.267 96.7227 227.375 95.6141C227.944 95.0376 228.454 94.4094 228.89 93.7294C228.979 93.589 229.068 93.456 229.149 93.3082C229.452 92.7982 229.718 92.2587 229.94 91.6822C230.546 90.1745 230.849 88.5338 230.849 86.76C230.849 84.9715 230.546 83.3233 229.94 81.823C229.718 81.2613 229.452 80.7218 229.149 80.2119C229.09 80.1158 229.038 80.0271 228.979 79.931C228.521 79.1993 227.989 78.5268 227.375 77.9133C226.267 76.8047 224.959 75.94 223.458 75.3266C221.958 74.7132 220.317 74.4102 218.521 74.4102C216.733 74.4102 215.085 74.7132 213.592 75.3266C212.091 75.94 210.791 76.8047 209.675 77.9133C208.566 79.0293 207.701 80.3301 207.088 81.823C206.482 83.3233 206.171 84.9715 206.171 86.76C206.171 88.556 206.482 90.2041 207.088 91.697C207.701 93.1973 208.566 94.4981 209.675 95.6141C210.791 96.7227 212.091 97.5874 213.592 98.2008C215.085 98.8142 216.74 99.1173 218.558 99.1173C220.325 99.1173 221.958 98.8142 223.458 98.2008Z" fill="#81E0D8"/>
<path d="M213.427 106.245C211.949 107.029 210.109 107.894 207.95 108.721C206.524 109.261 204.004 110.162 200.781 110.857C195.881 111.914 190.952 112.35 186 111.907C182.918 111.626 179.711 111.131 176.806 110.096C173.776 109.024 170.864 107.62 167.967 106.245C166.599 105.595 164.345 106.231 165.04 108.219C165.306 108.965 166.016 109.416 166.681 109.8C175.468 114.789 185.948 116.925 196.074 115.624C202.836 114.76 209.466 112.461 215.526 109.15C216.827 108.381 217.226 106.992 216.819 106.305C216.391 105.558 214.787 105.218 213.427 106.245Z" fill="#15172B"/>
<path d="M226.891 33.7723C227.039 35.5683 226.861 37.2312 226.329 38.7684C225.812 40.3057 225.006 41.673 223.927 42.8777C222.848 44.075 221.547 45.0431 220.018 45.7748C218.495 46.5139 216.78 46.9647 214.896 47.1273C213.004 47.2825 211.245 47.1125 209.611 46.6395C208.222 46.233 206.958 45.627 205.827 44.8288C205.643 44.7032 205.458 44.5701 205.28 44.4223C204.807 44.0454 204.371 43.6389 203.958 43.2029C203.292 42.4712 202.709 41.6656 202.228 40.7713C201.467 39.3375 201.009 37.7411 200.861 35.96C200.713 34.1862 200.905 32.5307 201.423 30.9934C201.94 29.4562 202.745 28.0889 203.825 26.8916C204.423 26.2264 205.088 25.6352 205.82 25.1252C205.909 25.0513 206.005 24.9922 206.101 24.9257C206.611 24.5857 207.158 24.2827 207.734 24.0018C209.264 23.2775 210.971 22.8341 212.863 22.6715C214.09 22.5754 215.273 22.605 216.411 22.775C216.049 24.3344 215.583 25.8569 215.029 27.3498C214.423 27.2833 213.735 27.2537 212.982 27.3424C212.353 27.4163 211.784 27.5494 211.297 27.7046C210.284 28.0297 209.626 28.9684 209.715 29.9735L210.602 40.6752C210.676 41.5769 211.326 42.3308 212.257 42.582C212.937 42.7668 213.795 42.8851 214.763 42.7668C215.568 42.6707 216.241 42.449 216.788 42.1977C217.638 41.7986 218.133 40.9487 218.059 40.0618L217.246 30.2543C218.192 28.111 218.939 25.8791 219.471 23.5953C219.618 23.6545 219.766 23.7136 219.907 23.7801C220.062 23.854 220.217 23.9205 220.365 24.0018C221.119 24.3787 221.821 24.8296 222.471 25.3395C223.735 26.3447 224.755 27.5567 225.524 28.9905C226.292 30.4243 226.743 32.0207 226.891 33.7723Z" fill="#FC8025"/>
<path d="M220.411 8.75618C220.884 13.5823 220.64 18.4676 219.568 23.1385C219.561 23.1607 219.553 23.1902 219.546 23.2124C219.006 25.5331 218.253 27.802 217.292 29.9823C215.599 33.8033 213.301 37.3508 210.522 40.4327L210.152 36.0057C211.63 34.1358 212.828 31.9704 213.84 29.8418C214.284 28.918 214.675 27.9794 215.03 27.026C215.592 25.5035 216.065 23.9588 216.434 22.3772C216.774 20.9952 217.04 19.5909 217.24 18.1645C217.528 16.1395 217.654 14.0923 217.632 12.0377C217.632 11.8677 217.543 10.7886 217.462 9.68002C217.373 8.41621 217.27 7.12284 217.277 7.11545C218.23 6.85677 219.169 6.59071 220.115 6.33203C220.226 7.13023 220.329 7.9432 220.411 8.75618Z" fill="#1C1E3C"/>
<path d="M222.745 8.01812L222.664 8.04768C220.099 8.85327 217.527 9.65885 214.97 10.4644C214.911 10.4866 214.845 10.5014 214.8 10.5236L214.15 10.7231C213.684 10.8709 213.233 10.457 213.329 9.98404L215.251 0.767843C215.347 0.405699 215.621 0.124851 215.975 0.0287727C216.478 -0.0968687 216.862 0.228323 216.899 0.250494C216.921 0.272666 216.936 0.294837 216.958 0.31701L223.758 6.70257C224.12 7.03515 223.979 7.62641 223.514 7.77422L222.745 8.01812Z" fill="#1C1E3C"/>
</svg>
