<svg xmlns="http://www.w3.org/2000/svg" viewBox="0 0 1080 1080"><defs><style>.cls-1{fill:#f3eee9;}.cls-2{fill:#f08d07;}.cls-3{fill:#1c1f3b;}</style></defs><title>Asset 2</title><g id="Layer_2" data-name="Layer 2"><g id="Layer_1-2" data-name="Layer 1"><rect class="cls-1" width="1080" height="1080" rx="540"/><path class="cls-2" d="M196.84,662.58Q238,636.19,281.2,611.64q38.06-21.58,77.52-41.74,40.81-20.88,83-39.93A2095.94,2095.94,0,0,1,661,444.89Q683.22,502.46,705.38,560c-19.59,7.09-47,17.21-79.67,29.92-58.06,22.6-103.71,40.31-162.25,68.15a1813.91,1813.91,0,0,0-159.82,85.86c-30,18.13-54.84,34.33-73.24,46.7"/><path class="cls-3" d="M483.42,763.84c-.6.26-1.19.57-1.79.84q-83,39.39-159.78,85.65c-.06,0-.05.06-.1.07l15.41,91.18,511.32-86.19L823.33,706.5Z"/><path class="cls-3" d="M717,138.42l25.1,148.87L410.48,343.21,442,529.86q-42.29,19-83,39.82-39.46,20-77.5,41.64L216,222.91Z"/><path class="cls-2" d="M646.27,413.57h0l.66,1.83q31.17,85.13,62.35,170.27c.45,1.26.91,2.52,1.38,3.77l5.27,14.4a14.41,14.41,0,0,0,24.46,4.43l137.7-160.54a22.77,22.77,0,0,0,3.25-23.12c-4.57-10.7-15.6-13.08-16.56-13.28-.64-.09-1.29-.2-1.94-.31l-207-33.59a14.41,14.41,0,0,0-15.84,19.17Z"/></g></g></svg>