<svg width="727" height="381" viewBox="0 0 727 381" fill="none" xmlns="http://www.w3.org/2000/svg">
<g filter="url(#filter0_d_3722_9263)">
<g clip-path="url(#clip0_3722_9263)">
<rect x="3" y="1" width="713" height="367" rx="8" fill="#83DDD6"/>
<path opacity="0.85" d="M7.78911 90.7528C19.8837 94.8216 33.1603 96.2362 45.7395 95.4728C59.2594 94.6608 72.5113 92.136 85.667 89.6123C99.1283 87.0287 112.667 84.3223 126.483 83.3086C139.942 82.3231 153.329 83.3854 166.325 86.3585C191.179 92.0449 213.676 106.332 219.416 127.451C224.855 147.512 212.932 166.669 200.224 183.227C193.796 191.603 186.837 199.707 180.656 208.206C179.959 209.172 179.265 210.131 178.593 211.105C178.685 210.971 177.249 213.091 177.859 212.168C178.474 211.253 177.09 213.366 177.171 213.237C175.8 215.361 174.509 217.519 173.321 219.723C172.224 221.755 171.22 223.831 170.348 225.932C169.946 226.92 169.565 227.906 169.219 228.896C169.025 229.447 168.84 229.999 168.674 230.551C168.506 231.086 168.54 230.996 168.762 230.284C168.639 230.725 168.524 231.169 168.418 231.615C167.95 233.609 167.625 235.625 167.469 237.647C167.385 238.772 167.354 239.906 167.375 241.032C167.372 240.715 167.24 239.723 167.39 241.16C167.466 241.848 167.525 242.531 167.62 243.217C168.343 248.384 170.031 252.607 173.359 257.221C179.418 265.632 190.961 272.82 201.782 277.013C214.486 281.934 228.47 284.981 242.358 283.272C256.468 281.538 266.985 274.319 278.163 267.499C291.069 259.614 304.708 253.996 320.454 250.806C335.495 247.754 351.755 246.91 367.094 248.893C395.276 252.543 422.793 266.948 431.532 289.807C436.232 302.13 435.45 314.95 435.415 327.684C435.397 333.426 435.658 339.045 436.989 344.787C437.243 345.885 437.527 346.977 437.872 348.065C438.044 348.651 438.238 349.229 438.444 349.802C438.918 351.1 437.723 348.258 438.697 350.398C439.712 352.651 440.752 354.873 442.041 357.034C444.609 361.336 446.717 363.966 450.92 368.086C452.636 369.768 454.474 371.357 456.344 372.917C458.352 374.589 455.662 372.42 456.907 373.362C457.455 373.779 458.006 374.189 458.569 374.595C459.698 375.4 460.853 376.19 462.029 376.956C464.384 378.48 466.837 379.92 469.375 381.261C470.391 381.8 471.416 382.318 472.457 382.826C473.233 383.205 474.023 383.573 474.818 383.935C473.412 383.291 475.588 384.266 475.867 384.384C480.995 386.512 486.355 388.272 491.865 389.615C493.312 389.97 494.775 390.291 496.243 390.584C494.635 390.264 496.542 390.638 496.934 390.697C497.671 390.817 498.413 390.946 499.144 391.057C502.09 391.498 505.065 391.816 508.056 392.001C510.728 392.171 513.416 392.247 516.098 392.196C514.296 392.226 517.217 392.134 517.285 392.132C517.883 392.1 518.476 392.06 519.061 392.017C520.686 391.894 522.311 391.733 523.919 391.528C536.118 389.975 546.371 385.649 555.944 378.725C558.289 377.026 559.899 375.748 561.615 374.224C563.955 372.153 566.168 369.987 568.276 367.759C572.501 363.304 576.301 358.595 579.801 353.754C580.578 352.681 581.341 351.597 582.084 350.514C583.014 349.156 581.072 352.062 582.61 349.726C582.93 349.254 583.244 348.772 583.559 348.29C585.256 345.679 586.9 343.037 588.445 340.363C591.789 334.601 594.865 328.578 595.683 322.196C596.336 317.069 595.34 312.134 592.332 308.035C591.001 306.225 589.03 304.495 587.195 303.425C584.953 302.105 583.173 301.585 580.757 301.378C578.581 301.19 579.767 301.148 577.621 301.38C577.015 301.447 576.417 301.54 575.818 301.633C573.036 302.038 576.533 301.375 574.949 301.773C571.502 302.652 569.7 303.57 567.396 304.981C566.35 305.615 565.349 306.294 564.389 307.008C562.869 308.137 563.281 307.793 561.915 309.1C560.839 310.119 559.837 311.184 558.904 312.285C558.532 312.726 558.169 313.17 557.822 313.619C557.759 313.692 556.326 315.705 557.044 314.614C550.304 324.716 548.564 336.39 551.306 347.582C553.9 358.179 561.239 367.782 570.951 374.597C573.552 376.429 576.316 378.119 579.215 379.627C582.221 381.191 584.132 381.999 587.561 383.153C593.576 385.185 599.691 386.483 605.797 386.064C619.502 385.124 630.561 378.313 640.697 370.869C650.4 363.731 658.986 354.818 665.785 345.236C668.519 341.386 671.675 335.959 674.066 331.099C676.637 325.878 678.795 320.521 680.55 315.086C687.248 294.349 687.655 271.032 683.186 249.41C680.809 237.891 677.153 227.598 672.369 216.84C666.994 204.771 661.121 192.34 660.209 179.405C658.939 161.377 665.692 140.967 679.459 126.59C686.49 119.243 695.828 113.621 707.237 111.777C718.803 109.905 721.724 124.489 710.201 126.352C709.454 126.476 708.72 126.612 707.989 126.764C708.34 126.687 709.624 126.258 708.077 126.76C706.915 127.134 705.754 127.485 704.63 127.941C704.064 128.167 703.519 128.408 702.972 128.655C701.702 129.236 704.649 127.638 702.721 128.802C701.592 129.487 700.444 130.136 699.366 130.876C698.47 131.495 697.618 132.143 696.785 132.811C698.156 131.714 695.59 133.94 695.199 134.321C693.264 136.225 691.525 138.259 689.949 140.374C689.659 140.763 689.383 141.164 689.09 141.56C687.706 143.472 689.583 140.762 688.825 141.957C688.166 143.004 687.527 144.05 686.918 145.113C685.644 147.376 684.504 149.68 683.494 152.032C682.544 154.256 681.7 156.521 680.97 158.805C680.824 159.254 680.686 159.706 680.549 160.158C680.961 158.764 680.535 160.246 680.454 160.6C680.149 161.826 679.84 163.043 679.58 164.276C678.715 168.419 678.443 172.521 678.253 176.711C678.162 178.598 678.063 175.177 678.254 177.012C678.288 177.363 678.303 177.715 678.334 178.072C678.468 179.566 678.697 181.058 678.961 182.538C679.578 185.973 680.5 189.372 681.605 192.726C685.675 205.109 692.224 216.862 696.405 229.233C711.752 274.646 706.432 328.243 670.193 366.545C651.986 385.788 623.43 405.69 591.343 399.572C560.822 393.761 536.558 371.325 532.525 346.324C530.336 332.817 533.337 318.807 541.611 306.901C548.377 297.169 560.511 288.312 574.648 286.803C591.165 285.034 605.884 293.808 611.314 306.188C617.322 319.866 612.439 333.934 604.978 346.563C592.57 367.571 575.913 389.11 549.592 400.187C526.304 409.986 497.319 408.474 473.847 399.933C450.746 391.537 430.199 376.162 421.999 356.421C416.915 344.18 417.163 331.519 417.296 318.761C417.41 307.372 416.909 295.808 409.474 285.843C410.029 286.587 408.901 285.156 408.779 285.01C408.304 284.439 407.824 283.88 407.311 283.328C406.306 282.221 405.243 281.158 404.127 280.125C401.856 278.039 400.62 277.077 397.736 275.196C391.99 271.447 387.249 269.269 380.809 267.167C367.925 262.946 353.811 261.806 339.254 263.092C324.745 264.378 309.689 267.843 297.755 274.283C284.785 281.274 273.346 290.439 258.542 294.987C228.157 304.311 191.545 293.965 169.06 276.267C158.682 268.095 151.229 257.36 149.575 245.609C148.16 235.508 150.65 225.418 155.4 216.067C160.264 206.473 167.129 197.56 174.061 188.869C177.459 184.607 180.915 180.362 184.261 176.068C185.917 173.947 187.542 171.809 189.113 169.645C189.81 168.679 190.499 167.711 191.179 166.74C191.378 166.461 192.322 165.054 191.544 166.211C191.975 165.565 192.398 164.915 192.82 164.266C195.585 159.947 198.039 155.477 199.867 150.837C200.26 149.846 200.592 148.844 200.952 147.843C201.717 145.686 200.643 149.3 201.17 147.1C201.277 146.654 201.403 146.206 201.501 145.758C202.065 143.298 202.413 140.811 202.499 138.311C202.515 137.853 202.512 137.396 202.517 136.942C202.554 134.768 202.608 137.758 202.501 136.451C202.411 135.411 202.301 134.373 202.132 133.339C201.684 130.675 200.979 128.27 200.262 126.658C198.016 121.637 196.146 119.189 191.976 115.303C191 114.398 189.978 113.51 188.913 112.67C189.937 113.474 188.839 112.624 188.668 112.502C187.976 112.025 187.308 111.54 186.613 111.07C184.269 109.502 181.781 108.075 179.196 106.773C178.406 106.382 177.61 106.004 176.806 105.624C176.602 105.53 175.216 104.946 176.505 105.492C175.119 104.908 173.719 104.351 172.293 103.832C169.262 102.724 166.153 101.762 162.996 100.939C152.376 98.1762 138.766 97.0603 127.466 98.0497C99.326 100.523 72.5026 109.351 44.0972 110.266C29.3923 110.735 14.9105 109.14 1.24805 104.547C-3.31058 103.012 -5.8219 98.813 -4.01736 95.0074C-2.28309 91.35 3.2138 89.2127 7.78911 90.7528Z" fill="#E29134"/>
<path opacity="0.85" d="M8.57981 113.456C37.4242 108.168 42.4232 109.879 57.7495 130.324C51.2028 107.013 53.3227 102.978 78.6181 90.5914C49.7756 95.8836 44.7794 94.1668 29.4503 73.7275C35.9998 97.033 33.8771 101.074 8.57981 113.456ZM647.566 322.857C671.152 318.532 675.234 319.935 687.765 336.645C682.414 317.591 684.149 314.289 704.829 304.163C681.248 308.487 677.163 307.089 664.629 290.375C669.983 309.433 668.251 312.73 647.566 322.857Z" fill="white"/>
<path opacity="0.85" d="M293.095 272.722C321.94 267.434 326.939 269.145 342.265 289.59C335.718 266.279 337.838 262.243 363.134 249.857C334.291 255.149 329.295 253.432 313.966 232.993C320.515 256.299 318.393 260.339 293.095 272.722ZM932.081 482.123C955.667 477.797 959.749 479.201 972.281 495.911C966.93 476.857 968.664 473.554 989.344 463.429C965.763 467.753 961.678 466.355 949.145 449.641C954.498 468.699 952.766 471.996 932.081 482.123Z" fill="white"/>
<g opacity="0.85" filter="url(#filter1_d_3722_9263)">
<path d="M308.095 8.23577C305.473 6.21176 304.513 3.11732 305.778 0.371913C306.765 -1.76912 308.37 -4.25872 310.989 -6.63415C314.135 -9.49006 317.676 -11.2182 320.682 -12.2629C324.073 -13.4434 328.007 -12.85 330.672 -10.7865L367.572 17.7739C370.558 20.0798 371.294 23.717 369.337 26.6537C368.152 28.4342 366.563 30.3757 364.444 32.285C361.635 34.8108 358.645 36.6132 355.969 37.8927C352.447 39.5753 347.959 39.0945 345.006 36.8071L308.095 8.23577ZM318.213 56.7655C325.148 58.9803 332.244 60.0178 339.473 59.8923C343.21 59.8263 346.899 59.4481 350.528 58.7426C351.26 58.5966 351.987 58.4422 352.723 58.2801C355.353 57.6709 357.967 56.8958 360.551 55.9398C367.355 53.4398 373.572 49.8017 379.22 45.0387C384.929 40.2268 389.18 35.03 391.946 29.4527C392.998 27.3443 393.838 25.2121 394.465 23.0662C394.58 22.6668 394.681 22.2767 394.777 21.8741C395.595 18.7418 395.95 15.5553 395.867 12.3162C395.712 6.47508 394.124 0.793751 391.088 -4.70842C388.055 -10.2064 383.562 -15.2575 377.598 -19.8768C371.637 -24.4877 365.184 -27.906 358.257 -30.1183C351.324 -32.3289 344.237 -33.3597 336.999 -33.2409C329.762 -33.1078 322.731 -31.8245 315.929 -29.3793C309.123 -26.9324 302.849 -23.3 297.146 -18.4897C291.426 -13.6643 287.21 -8.44485 284.483 -2.85077C281.745 2.7467 280.461 8.48069 280.608 14.3294C280.774 20.1814 282.353 25.856 285.381 31.3557C288.417 36.8578 292.949 41.9399 298.991 46.6171C304.874 51.1701 311.28 54.5549 318.213 56.7655ZM887.009 364.292C888.436 361.602 891.686 359.788 895.308 359.784C898.138 359.779 901.588 360.12 905.258 361.264C909.675 362.643 912.916 364.719 915.182 366.624C917.74 368.776 918.432 371.963 916.976 374.703L896.821 412.644C895.196 415.712 891.242 417.545 887.15 417.096C884.671 416.82 881.87 416.302 878.909 415.367C874.994 414.132 871.858 412.495 869.431 410.921C866.251 408.845 865.239 405.283 866.848 402.245L887.009 364.292ZM834.32 388.974C834.185 394.998 835.471 400.729 838.154 406.156C839.541 408.964 841.274 411.62 843.363 414.117C843.786 414.624 844.221 415.118 844.665 415.618C846.299 417.397 848.112 419.099 850.126 420.72C855.415 424.992 861.814 428.423 869.312 431.026C876.896 433.655 884.405 435.047 891.837 435.183C894.656 435.24 897.418 435.126 900.126 434.853C900.63 434.796 901.119 434.734 901.617 434.664C905.535 434.187 909.352 433.337 913.073 432.137C919.788 429.969 925.815 426.774 931.128 422.551C936.439 418.324 940.718 413.157 943.972 407.019C947.226 400.892 948.924 394.812 949.056 388.794C949.19 382.771 947.898 377.051 945.221 371.613C942.523 366.182 938.569 361.312 933.357 357.024C928.125 352.732 921.718 349.26 914.142 346.634C906.543 344 899.013 342.639 891.58 342.538C884.126 342.429 877.033 343.469 870.302 345.632C863.586 347.81 857.56 350.995 852.249 355.222C846.936 359.445 842.638 364.657 839.336 370.869C836.122 376.92 834.451 382.956 834.32 388.974Z" fill="white"/>
</g>
<g opacity="0.85" filter="url(#filter2_d_3722_9263)">
<path d="M61.1095 316.96L60.8005 316.663C51.4086 307.576 41.9685 298.474 32.5706 289.385C32.3499 289.194 32.1431 288.973 31.9586 288.793L29.5865 286.495C27.8607 284.835 29.025 282.297 31.6113 281.912L82.053 274.245C84.0883 274.015 86.0765 274.67 87.2987 275.962C88.9842 277.794 88.152 279.882 88.0895 280.086C88.0209 280.216 87.9685 280.312 87.9022 280.437L69.8487 318.876C68.918 320.893 65.6386 321.337 63.9128 319.677L61.1095 316.96ZM479.671 442.929L479.362 442.632C469.964 433.543 460.53 424.443 451.134 415.35C450.911 415.163 450.701 414.935 450.52 414.762L448.15 412.46C446.416 410.802 447.586 408.266 450.173 407.881L500.608 400.213C502.652 399.979 504.64 400.635 505.86 401.931C507.546 403.764 506.707 405.849 506.651 406.055C506.582 406.185 506.53 406.281 506.464 406.406L488.41 444.845C487.473 446.861 484.202 447.301 482.474 445.646L479.671 442.929Z" fill="#F2EEE9"/>
</g>
<g filter="url(#filter3_d_3722_9263)">
<rect width="234" height="37.322" transform="translate(242 169)" fill="white"/>
<path opacity="0.85" d="M288.857 195.354C287.443 195.354 286.223 195.074 285.197 194.514C284.17 193.954 283.377 193.134 282.817 192.054C282.257 190.974 281.977 189.654 281.977 188.094C281.977 186.988 282.137 185.981 282.457 185.074C282.79 184.168 283.263 183.394 283.877 182.754C284.49 182.101 285.223 181.601 286.077 181.254C286.943 180.908 287.91 180.734 288.977 180.734C289.67 180.734 290.27 180.828 290.777 181.014C291.283 181.201 291.743 181.454 292.157 181.774L292.417 180.714H293.817L294.597 185.734L292.757 186.094C292.49 185.294 292.183 184.661 291.837 184.194C291.49 183.728 291.11 183.394 290.697 183.194C290.283 182.981 289.83 182.874 289.337 182.874C288.63 182.874 288.05 183.068 287.597 183.454C287.157 183.828 286.823 184.368 286.597 185.074C286.383 185.781 286.277 186.621 286.277 187.594C286.277 188.594 286.377 189.428 286.577 190.094C286.79 190.748 287.07 191.274 287.417 191.674C287.763 192.061 288.15 192.334 288.577 192.494C289.017 192.654 289.47 192.734 289.937 192.734C290.497 192.734 291.01 192.654 291.477 192.494C291.957 192.334 292.377 192.128 292.737 191.874C293.11 191.621 293.41 191.361 293.637 191.094L294.777 192.614C294.563 192.894 294.283 193.194 293.937 193.514C293.59 193.834 293.177 194.134 292.697 194.414C292.217 194.694 291.657 194.921 291.017 195.094C290.377 195.268 289.657 195.354 288.857 195.354ZM301.502 195.354C300.288 195.354 299.255 195.161 298.402 194.774C297.562 194.374 296.915 193.781 296.462 192.994C296.022 192.208 295.802 191.241 295.802 190.094C295.802 188.788 296.055 187.728 296.562 186.914C297.082 186.088 297.802 185.474 298.722 185.074C299.642 184.674 300.708 184.474 301.922 184.474C303.028 184.474 303.995 184.654 304.822 185.014C305.662 185.374 306.322 185.941 306.802 186.714C307.282 187.474 307.522 188.474 307.522 189.714C307.522 190.928 307.282 191.954 306.802 192.794C306.335 193.634 305.655 194.274 304.762 194.714C303.868 195.141 302.782 195.354 301.502 195.354ZM301.762 193.454C302.175 193.454 302.495 193.341 302.722 193.114C302.948 192.874 303.108 192.508 303.202 192.014C303.295 191.508 303.342 190.861 303.342 190.074C303.342 189.341 303.302 188.734 303.222 188.254C303.155 187.774 303.042 187.401 302.882 187.134C302.735 186.854 302.555 186.661 302.342 186.554C302.128 186.434 301.888 186.374 301.622 186.374C301.275 186.374 300.975 186.468 300.722 186.654C300.482 186.828 300.295 187.134 300.162 187.574C300.028 188.014 299.962 188.634 299.962 189.434C299.962 190.381 300.022 191.154 300.142 191.754C300.262 192.341 300.455 192.774 300.722 193.054C300.988 193.321 301.335 193.454 301.762 193.454ZM308.675 195.074V193.534L309.375 193.414C309.588 193.374 309.722 193.294 309.775 193.174C309.842 193.054 309.875 192.814 309.875 192.454V187.794C309.875 187.394 309.835 187.114 309.755 186.954C309.675 186.794 309.488 186.694 309.195 186.654L308.515 186.534L308.675 184.874L313.055 184.614L313.395 184.794L313.535 186.654H313.595C313.808 186.201 314.075 185.814 314.395 185.494C314.728 185.161 315.108 184.908 315.535 184.734C315.975 184.561 316.462 184.474 316.995 184.474C317.835 184.474 318.502 184.661 318.995 185.034C319.502 185.408 319.848 185.908 320.035 186.534C320.342 185.881 320.775 185.374 321.335 185.014C321.895 184.654 322.575 184.474 323.375 184.474C324.122 184.474 324.735 184.628 325.215 184.934C325.695 185.241 326.042 185.654 326.255 186.174C326.482 186.694 326.595 187.288 326.595 187.954V192.614C326.595 192.894 326.635 193.094 326.715 193.214C326.795 193.321 326.962 193.394 327.215 193.434L327.815 193.534V195.074H321.835V193.554L322.135 193.494C322.348 193.468 322.482 193.388 322.535 193.254C322.602 193.121 322.635 192.914 322.635 192.634V188.654C322.635 188.214 322.595 187.874 322.515 187.634C322.448 187.381 322.342 187.208 322.195 187.114C322.048 187.008 321.868 186.954 321.655 186.954C321.415 186.954 321.182 187.021 320.955 187.154C320.742 187.274 320.568 187.474 320.435 187.754C320.302 188.034 320.235 188.408 320.235 188.874V192.574C320.235 192.854 320.255 193.068 320.295 193.214C320.335 193.361 320.468 193.454 320.695 193.494L321.035 193.554V195.074H315.455V193.554L315.755 193.494C315.968 193.468 316.102 193.388 316.155 193.254C316.222 193.121 316.255 192.914 316.255 192.634V188.654C316.255 188.201 316.215 187.854 316.135 187.614C316.068 187.361 315.962 187.188 315.815 187.094C315.682 187.001 315.502 186.954 315.275 186.954C315.035 186.954 314.802 187.021 314.575 187.154C314.362 187.274 314.188 187.474 314.055 187.754C313.922 188.034 313.855 188.401 313.855 188.854V192.574C313.855 192.854 313.875 193.068 313.915 193.214C313.968 193.361 314.108 193.454 314.335 193.494L314.655 193.554V195.074H308.675ZM328.829 195.074V193.514L329.589 193.394C329.816 193.354 329.962 193.274 330.029 193.154C330.096 193.021 330.129 192.781 330.129 192.434V187.894C330.129 187.454 330.089 187.154 330.009 186.994C329.929 186.821 329.736 186.708 329.429 186.654L328.749 186.554L328.889 184.874L333.789 184.614L334.089 184.814V192.454C334.089 192.748 334.116 192.968 334.169 193.114C334.236 193.248 334.389 193.341 334.629 193.394L335.389 193.534V195.074H328.829ZM331.829 183.194C331.109 183.194 330.542 183.028 330.129 182.694C329.716 182.361 329.509 181.894 329.509 181.294C329.509 180.708 329.702 180.248 330.089 179.914C330.489 179.568 331.069 179.394 331.829 179.394C332.602 179.394 333.182 179.561 333.569 179.894C333.956 180.228 334.149 180.694 334.149 181.294C334.149 181.894 333.942 182.361 333.529 182.694C333.116 183.028 332.549 183.194 331.829 183.194ZM336.566 195.074V193.534L337.266 193.414C337.479 193.374 337.612 193.294 337.666 193.174C337.732 193.054 337.766 192.814 337.766 192.454V187.794C337.766 187.394 337.726 187.114 337.646 186.954C337.566 186.794 337.379 186.694 337.086 186.654L336.406 186.534L336.566 184.874L340.946 184.614L341.286 184.794L341.426 186.654H341.486C341.806 185.974 342.259 185.441 342.846 185.054C343.432 184.668 344.172 184.474 345.066 184.474C345.866 184.474 346.512 184.628 347.006 184.934C347.512 185.228 347.879 185.641 348.106 186.174C348.346 186.694 348.466 187.288 348.466 187.954V192.614C348.466 192.894 348.499 193.094 348.566 193.214C348.646 193.321 348.812 193.394 349.066 193.434L349.686 193.534V195.074H343.526V193.554L343.966 193.474C344.192 193.434 344.332 193.354 344.386 193.234C344.452 193.114 344.486 192.914 344.486 192.634V188.794C344.486 188.328 344.446 187.961 344.366 187.694C344.299 187.428 344.179 187.241 344.006 187.134C343.832 187.014 343.606 186.954 343.326 186.954C343.032 186.954 342.766 187.021 342.526 187.154C342.286 187.288 342.092 187.514 341.946 187.834C341.812 188.141 341.746 188.561 341.746 189.094V192.574C341.746 192.868 341.772 193.081 341.826 193.214C341.879 193.334 342.012 193.414 342.226 193.454L342.706 193.554V195.074H336.566ZM355.504 199.674C354.571 199.674 353.771 199.614 353.104 199.494C352.451 199.388 351.911 199.221 351.484 198.994C351.071 198.781 350.764 198.514 350.564 198.194C350.364 197.874 350.264 197.508 350.264 197.094C350.264 196.614 350.378 196.228 350.604 195.934C350.831 195.641 351.131 195.408 351.504 195.234C351.878 195.074 352.271 194.941 352.684 194.834V194.774C352.071 194.601 351.638 194.354 351.384 194.034C351.144 193.701 351.024 193.361 351.024 193.014C351.024 192.654 351.124 192.334 351.324 192.054C351.524 191.774 351.824 191.488 352.224 191.194V191.134C351.758 190.854 351.378 190.488 351.084 190.034C350.804 189.568 350.664 189.008 350.664 188.354C350.664 187.448 350.904 186.714 351.384 186.154C351.864 185.581 352.504 185.161 353.304 184.894C354.104 184.614 354.978 184.474 355.924 184.474C356.151 184.474 356.424 184.488 356.744 184.514C357.064 184.541 357.398 184.594 357.744 184.674C358.091 184.741 358.424 184.848 358.744 184.994C359.131 184.181 359.524 183.541 359.924 183.074C360.324 182.594 360.818 182.354 361.404 182.354C361.658 182.354 361.904 182.408 362.144 182.514C362.384 182.608 362.584 182.768 362.744 182.994C362.904 183.208 362.984 183.494 362.984 183.854C362.984 184.254 362.858 184.608 362.604 184.914C362.364 185.221 362.044 185.374 361.644 185.374C361.418 185.374 361.218 185.314 361.044 185.194C360.884 185.074 360.738 184.921 360.604 184.734L360.364 184.414C360.244 184.548 360.124 184.714 360.004 184.914C359.898 185.114 359.798 185.314 359.704 185.514C360.078 185.861 360.404 186.248 360.684 186.674C360.964 187.088 361.104 187.628 361.104 188.294C361.104 188.961 360.898 189.581 360.484 190.154C360.084 190.714 359.498 191.168 358.724 191.514C357.964 191.848 357.038 192.014 355.944 192.014C355.531 192.014 355.164 191.988 354.844 191.934C354.524 191.881 354.218 191.814 353.924 191.734C353.844 191.814 353.771 191.901 353.704 191.994C353.651 192.074 353.624 192.181 353.624 192.314C353.624 192.501 353.684 192.648 353.804 192.754C353.924 192.848 354.084 192.908 354.284 192.934C354.484 192.961 354.711 192.974 354.964 192.974H358.684C359.938 192.974 360.878 193.208 361.504 193.674C362.131 194.141 362.444 194.788 362.444 195.614C362.444 195.921 362.398 196.254 362.304 196.614C362.211 196.974 362.031 197.334 361.764 197.694C361.498 198.054 361.104 198.381 360.584 198.674C360.078 198.981 359.411 199.221 358.584 199.394C357.758 199.581 356.731 199.674 355.504 199.674ZM355.904 197.934C356.398 197.934 356.818 197.868 357.164 197.734C357.511 197.614 357.771 197.441 357.944 197.214C358.118 196.988 358.204 196.741 358.204 196.474C358.204 196.181 358.111 195.961 357.924 195.814C357.738 195.681 357.458 195.614 357.084 195.614H354.404C354.271 195.761 354.158 195.928 354.064 196.114C353.984 196.301 353.944 196.501 353.944 196.714C353.944 197.141 354.111 197.448 354.444 197.634C354.778 197.834 355.264 197.934 355.904 197.934ZM355.904 190.094C356.304 190.094 356.604 189.941 356.804 189.634C357.004 189.328 357.104 188.868 357.104 188.254C357.104 187.548 356.998 187.041 356.784 186.734C356.571 186.428 356.264 186.274 355.864 186.274C355.424 186.274 355.118 186.461 354.944 186.834C354.771 187.208 354.684 187.668 354.684 188.214C354.684 188.788 354.784 189.248 354.984 189.594C355.198 189.928 355.504 190.094 355.904 190.094ZM367.843 195.354L367.563 191.694L369.323 191.594C369.536 192.061 369.783 192.448 370.063 192.754C370.343 193.061 370.656 193.288 371.003 193.434C371.363 193.581 371.749 193.654 372.163 193.654C372.656 193.654 373.023 193.568 373.263 193.394C373.503 193.208 373.623 192.941 373.623 192.594C373.623 192.368 373.543 192.188 373.383 192.054C373.223 191.908 372.983 191.788 372.663 191.694C372.343 191.588 371.923 191.481 371.403 191.374C370.989 191.268 370.556 191.141 370.103 190.994C369.663 190.848 369.249 190.654 368.863 190.414C368.489 190.174 368.189 189.854 367.963 189.454C367.736 189.054 367.623 188.548 367.623 187.934C367.623 187.188 367.796 186.561 368.143 186.054C368.503 185.534 368.996 185.141 369.623 184.874C370.249 184.608 370.969 184.474 371.783 184.474C372.356 184.474 372.869 184.541 373.323 184.674C373.776 184.808 374.149 184.961 374.443 185.134L374.623 184.474H376.083L376.303 187.934L374.583 187.854C374.316 187.188 373.956 186.708 373.503 186.414C373.049 186.121 372.556 185.974 372.023 185.974C371.596 185.974 371.263 186.054 371.023 186.214C370.796 186.361 370.683 186.588 370.683 186.894C370.683 187.121 370.756 187.308 370.903 187.454C371.063 187.588 371.303 187.708 371.623 187.814C371.943 187.921 372.349 188.034 372.843 188.154C373.376 188.288 373.876 188.434 374.343 188.594C374.809 188.754 375.223 188.961 375.583 189.214C375.943 189.454 376.223 189.768 376.423 190.154C376.636 190.528 376.743 191.001 376.743 191.574C376.743 192.374 376.563 193.061 376.203 193.634C375.843 194.194 375.336 194.621 374.683 194.914C374.043 195.208 373.289 195.354 372.423 195.354C371.783 195.354 371.223 195.281 370.743 195.134C370.263 195.001 369.849 194.834 369.503 194.634L369.283 195.354H367.843ZM383.591 195.354C382.378 195.354 381.345 195.161 380.491 194.774C379.651 194.374 379.005 193.781 378.551 192.994C378.111 192.208 377.891 191.241 377.891 190.094C377.891 188.788 378.145 187.728 378.651 186.914C379.171 186.088 379.891 185.474 380.811 185.074C381.731 184.674 382.798 184.474 384.011 184.474C385.118 184.474 386.085 184.654 386.911 185.014C387.751 185.374 388.411 185.941 388.891 186.714C389.371 187.474 389.611 188.474 389.611 189.714C389.611 190.928 389.371 191.954 388.891 192.794C388.425 193.634 387.745 194.274 386.851 194.714C385.958 195.141 384.871 195.354 383.591 195.354ZM383.851 193.454C384.265 193.454 384.585 193.341 384.811 193.114C385.038 192.874 385.198 192.508 385.291 192.014C385.385 191.508 385.431 190.861 385.431 190.074C385.431 189.341 385.391 188.734 385.311 188.254C385.245 187.774 385.131 187.401 384.971 187.134C384.825 186.854 384.645 186.661 384.431 186.554C384.218 186.434 383.978 186.374 383.711 186.374C383.365 186.374 383.065 186.468 382.811 186.654C382.571 186.828 382.385 187.134 382.251 187.574C382.118 188.014 382.051 188.634 382.051 189.434C382.051 190.381 382.111 191.154 382.231 191.754C382.351 192.341 382.545 192.774 382.811 193.054C383.078 193.321 383.425 193.454 383.851 193.454ZM396.541 195.354C395.327 195.354 394.294 195.161 393.441 194.774C392.601 194.374 391.954 193.781 391.501 192.994C391.061 192.208 390.841 191.241 390.841 190.094C390.841 188.788 391.094 187.728 391.601 186.914C392.121 186.088 392.841 185.474 393.761 185.074C394.681 184.674 395.747 184.474 396.961 184.474C398.067 184.474 399.034 184.654 399.861 185.014C400.701 185.374 401.361 185.941 401.841 186.714C402.321 187.474 402.561 188.474 402.561 189.714C402.561 190.928 402.321 191.954 401.841 192.794C401.374 193.634 400.694 194.274 399.801 194.714C398.907 195.141 397.821 195.354 396.541 195.354ZM396.801 193.454C397.214 193.454 397.534 193.341 397.761 193.114C397.987 192.874 398.147 192.508 398.241 192.014C398.334 191.508 398.381 190.861 398.381 190.074C398.381 189.341 398.341 188.734 398.261 188.254C398.194 187.774 398.081 187.401 397.921 187.134C397.774 186.854 397.594 186.661 397.381 186.554C397.167 186.434 396.927 186.374 396.661 186.374C396.314 186.374 396.014 186.468 395.761 186.654C395.521 186.828 395.334 187.134 395.201 187.574C395.067 188.014 395.001 188.634 395.001 189.434C395.001 190.381 395.061 191.154 395.181 191.754C395.301 192.341 395.494 192.774 395.761 193.054C396.027 193.321 396.374 193.454 396.801 193.454ZM403.714 195.074V193.534L404.414 193.414C404.627 193.374 404.761 193.294 404.814 193.174C404.881 193.054 404.914 192.814 404.914 192.454V187.794C404.914 187.394 404.874 187.114 404.794 186.954C404.714 186.794 404.527 186.694 404.234 186.654L403.554 186.534L403.714 184.874L408.094 184.614L408.434 184.794L408.574 186.654H408.634C408.954 185.974 409.407 185.441 409.994 185.054C410.581 184.668 411.321 184.474 412.214 184.474C413.014 184.474 413.661 184.628 414.154 184.934C414.661 185.228 415.027 185.641 415.254 186.174C415.494 186.694 415.614 187.288 415.614 187.954V192.614C415.614 192.894 415.647 193.094 415.714 193.214C415.794 193.321 415.961 193.394 416.214 193.434L416.834 193.534V195.074H410.674V193.554L411.114 193.474C411.341 193.434 411.481 193.354 411.534 193.234C411.601 193.114 411.634 192.914 411.634 192.634V188.794C411.634 188.328 411.594 187.961 411.514 187.694C411.447 187.428 411.327 187.241 411.154 187.134C410.981 187.014 410.754 186.954 410.474 186.954C410.181 186.954 409.914 187.021 409.674 187.154C409.434 187.288 409.241 187.514 409.094 187.834C408.961 188.141 408.894 188.561 408.894 189.094V192.574C408.894 192.868 408.921 193.081 408.974 193.214C409.027 193.334 409.161 193.414 409.374 193.454L409.854 193.554V195.074H403.714ZM420.473 195.374C419.806 195.374 419.28 195.201 418.893 194.854C418.506 194.508 418.313 194.048 418.313 193.474C418.313 192.928 418.5 192.481 418.873 192.134C419.26 191.788 419.793 191.614 420.473 191.614C421.18 191.614 421.713 191.788 422.073 192.134C422.446 192.468 422.633 192.921 422.633 193.494C422.633 194.054 422.44 194.508 422.053 194.854C421.666 195.201 421.14 195.374 420.473 195.374ZM426.996 195.374C426.33 195.374 425.803 195.201 425.416 194.854C425.03 194.508 424.836 194.048 424.836 193.474C424.836 192.928 425.023 192.481 425.396 192.134C425.783 191.788 426.316 191.614 426.996 191.614C427.703 191.614 428.236 191.788 428.596 192.134C428.97 192.468 429.156 192.921 429.156 193.494C429.156 194.054 428.963 194.508 428.576 194.854C428.19 195.201 427.663 195.374 426.996 195.374ZM433.52 195.374C432.853 195.374 432.326 195.201 431.94 194.854C431.553 194.508 431.36 194.048 431.36 193.474C431.36 192.928 431.546 192.481 431.92 192.134C432.306 191.788 432.84 191.614 433.52 191.614C434.226 191.614 434.76 191.788 435.12 192.134C435.493 192.468 435.68 192.921 435.68 193.494C435.68 194.054 435.486 194.508 435.1 194.854C434.713 195.201 434.186 195.374 433.52 195.374Z" fill="black"/>
</g>
</g>
</g>
<defs>
<filter id="filter0_d_3722_9263" x="0" y="0" width="727" height="381" filterUnits="userSpaceOnUse" color-interpolation-filters="sRGB">
<feFlood flood-opacity="0" result="BackgroundImageFix"/>
<feColorMatrix in="SourceAlpha" type="matrix" values="0 0 0 0 0 0 0 0 0 0 0 0 0 0 0 0 0 0 127 0" result="hardAlpha"/>
<feOffset dx="4" dy="6"/>
<feGaussianBlur stdDeviation="3.5"/>
<feComposite in2="hardAlpha" operator="out"/>
<feColorMatrix type="matrix" values="0 0 0 0 0.286275 0 0 0 0 0.243137 0 0 0 0 0.513726 0 0 0 0.1237 0"/>
<feBlend mode="normal" in2="BackgroundImageFix" result="effect1_dropShadow_3722_9263"/>
<feBlend mode="normal" in="SourceGraphic" in2="effect1_dropShadow_3722_9263" result="shape"/>
</filter>
<filter id="filter1_d_3722_9263" x="280.594" y="-33.25" width="677.413" height="479.628" filterUnits="userSpaceOnUse" color-interpolation-filters="sRGB">
<feFlood flood-opacity="0" result="BackgroundImageFix"/>
<feColorMatrix in="SourceAlpha" type="matrix" values="0 0 0 0 0 0 0 0 0 0 0 0 0 0 0 0 0 0 127 0" result="hardAlpha"/>
<feOffset dx="8.94426" dy="11.1803"/>
<feComposite in2="hardAlpha" operator="out"/>
<feColorMatrix type="matrix" values="0 0 0 0 0.941176 0 0 0 0 0.54902 0 0 0 0 0.0117647 0 0 0 1 0"/>
<feBlend mode="normal" in2="BackgroundImageFix" result="effect1_dropShadow_3722_9263"/>
<feBlend mode="normal" in="SourceGraphic" in2="effect1_dropShadow_3722_9263" result="shape"/>
</filter>
<filter id="filter2_d_3722_9263" x="28.7656" y="274.199" width="487.085" height="183.643" filterUnits="userSpaceOnUse" color-interpolation-filters="sRGB">
<feFlood flood-opacity="0" result="BackgroundImageFix"/>
<feColorMatrix in="SourceAlpha" type="matrix" values="0 0 0 0 0 0 0 0 0 0 0 0 0 0 0 0 0 0 127 0" result="hardAlpha"/>
<feOffset dx="8.94426" dy="11.1803"/>
<feComposite in2="hardAlpha" operator="out"/>
<feColorMatrix type="matrix" values="0 0 0 0 0.941176 0 0 0 0 0.54902 0 0 0 0 0.0117647 0 0 0 1 0"/>
<feBlend mode="normal" in2="BackgroundImageFix" result="effect1_dropShadow_3722_9263"/>
<feBlend mode="normal" in="SourceGraphic" in2="effect1_dropShadow_3722_9263" result="shape"/>
</filter>
<filter id="filter3_d_3722_9263" x="242" y="169" width="241.897" height="47.1936" filterUnits="userSpaceOnUse" color-interpolation-filters="sRGB">
<feFlood flood-opacity="0" result="BackgroundImageFix"/>
<feColorMatrix in="SourceAlpha" type="matrix" values="0 0 0 0 0 0 0 0 0 0 0 0 0 0 0 0 0 0 127 0" result="hardAlpha"/>
<feOffset dx="7.89708" dy="9.87135"/>
<feComposite in2="hardAlpha" operator="out"/>
<feColorMatrix type="matrix" values="0 0 0 0 0.941176 0 0 0 0 0.54902 0 0 0 0 0.0117647 0 0 0 1 0"/>
<feBlend mode="normal" in2="BackgroundImageFix" result="effect1_dropShadow_3722_9263"/>
<feBlend mode="normal" in="SourceGraphic" in2="effect1_dropShadow_3722_9263" result="shape"/>
</filter>
<clipPath id="clip0_3722_9263">
<rect x="3" y="1" width="713" height="367" rx="8" fill="white"/>
</clipPath>
</defs>
</svg>
