<svg width="315" height="439" viewBox="0 0 315 439" fill="none" xmlns="http://www.w3.org/2000/svg">
<mask id="mask0_160_1286" style="mask-type:alpha" maskUnits="userSpaceOnUse" x="0" y="0" width="594" height="439">
<rect width="593.941" height="439" fill="#D9D9D9"/>
</mask>
<g mask="url(#mask0_160_1286)">
<path d="M228.061 219.927L227.978 219.67C225.451 211.831 222.903 203.973 220.374 196.132C220.309 195.962 220.258 195.776 220.209 195.621L219.572 193.639C219.105 192.205 220.373 190.813 221.821 191.11L250.108 196.786C251.229 197.066 252.094 197.907 252.394 198.998C252.795 200.534 251.818 201.705 251.732 201.824C251.662 201.893 251.61 201.944 251.543 202.011L232.117 223.002C231.106 224.108 229.281 223.703 228.815 222.269L228.061 219.927ZM413.375 389.31L413.291 389.053C410.762 381.212 408.217 373.356 405.69 365.512C405.622 365.345 405.572 365.154 405.523 365.004L404.888 363.02C404.416 361.586 405.687 360.196 407.135 360.493L435.419 366.166C436.545 366.446 437.41 367.288 437.708 368.381C438.109 369.918 437.128 371.086 437.045 371.207C436.976 371.277 436.923 371.327 436.856 371.394L417.43 392.386C416.417 393.488 414.597 393.084 414.128 391.652L413.375 389.31Z" fill="#15172A"/>
<path d="M228.061 219.927L227.978 219.67C225.451 211.831 222.903 203.973 220.374 196.132C220.309 195.962 220.258 195.776 220.209 195.621L219.572 193.639C219.105 192.205 220.373 190.813 221.821 191.11L250.108 196.786C251.229 197.066 252.094 197.907 252.394 198.998C252.795 200.534 251.818 201.705 251.732 201.824C251.662 201.893 251.61 201.944 251.543 202.011L232.117 223.002C231.106 224.108 229.281 223.703 228.815 222.269L228.061 219.927ZM413.375 389.31L413.291 389.053C410.762 381.212 408.217 373.356 405.69 365.512C405.622 365.345 405.572 365.154 405.523 365.004L404.888 363.02C404.416 361.586 405.687 360.196 407.135 360.493L435.419 366.166C436.545 366.446 437.41 367.288 437.708 368.381C438.109 369.918 437.128 371.086 437.045 371.207C436.976 371.277 436.923 371.327 436.856 371.394L417.43 392.386C416.417 393.488 414.597 393.084 414.128 391.652L413.375 389.31Z" fill="#15172A"/>
<path d="M340.1 117.017C319.242 120.401 316.498 123.142 313.117 144.003C309.733 123.142 306.992 120.401 286.134 117.017C306.992 113.636 309.733 110.891 313.117 90.0334C316.498 110.891 319.242 113.636 340.1 117.017ZM-13.8062 459.687C-30.862 462.453 -33.1012 464.696 -35.8675 481.748C-38.6338 464.696 -40.8766 462.453 -57.9287 459.687C-40.8766 456.921 -38.6338 454.682 -35.8675 437.626C-33.1012 454.682 -30.862 456.921 -13.8062 459.687Z" fill="#15172A"/>
<path d="M340.1 117.017C319.242 120.401 316.498 123.142 313.117 144.003C309.733 123.142 306.992 120.401 286.134 117.017C306.992 113.636 309.733 110.891 313.117 90.0334C316.498 110.891 319.242 113.636 340.1 117.017ZM-13.8062 459.687C-30.862 462.453 -33.1012 464.696 -35.8675 481.748C-38.6338 464.696 -40.8766 462.453 -57.9287 459.687C-40.8766 456.921 -38.6338 454.682 -35.8675 437.626C-33.1012 454.682 -30.862 456.921 -13.8062 459.687Z" fill="#15172A"/>
<path d="M296.829 339.657C275.971 343.041 273.226 345.782 269.846 366.644C266.462 345.782 263.721 343.041 242.863 339.657C263.721 336.277 266.462 333.532 269.846 312.674C273.226 333.532 275.971 336.277 296.829 339.657ZM-57.0777 682.328C-74.1335 685.094 -76.3727 687.337 -79.139 704.389C-81.9052 687.337 -84.1481 685.094 -101.2 682.328C-84.1481 679.562 -81.9052 677.322 -79.139 660.267C-76.3727 677.322 -74.1335 679.562 -57.0777 682.328Z" fill="#15172A"/>
<path d="M296.829 339.657C275.971 343.041 273.226 345.782 269.846 366.644C266.462 345.782 263.721 343.041 242.863 339.657C263.721 336.277 266.462 333.532 269.846 312.674C273.226 333.532 275.971 336.277 296.829 339.657ZM-57.0777 682.328C-74.1335 685.094 -76.3727 687.337 -79.139 704.389C-81.9052 687.337 -84.1481 685.094 -101.2 682.328C-84.1481 679.562 -81.9052 677.322 -79.139 660.267C-76.3727 677.322 -74.1335 679.562 -57.0777 682.328Z" fill="#15172A"/>
<path d="M140.657 94.4837C139.69 92.3427 140.042 89.809 141.627 88.0751C142.863 86.7228 144.575 85.2615 146.862 84.131C149.61 82.7715 152.256 82.3462 154.375 82.299C156.767 82.2444 158.952 83.6403 159.933 85.8213L173.521 116.011C174.623 118.45 173.972 121.332 171.915 123.041C170.668 124.077 169.13 125.135 167.284 126.04C164.837 127.236 162.5 127.85 160.508 128.152C157.887 128.548 155.335 127.101 154.248 124.684L140.657 94.4837ZM132.158 133.019C135.658 136.349 139.61 138.842 143.99 140.504C146.255 141.362 148.585 141.976 150.977 142.332C151.46 142.401 151.944 142.463 152.434 142.521C154.197 142.707 156 142.765 157.84 142.681C162.678 142.474 167.505 141.278 172.329 139.108C177.204 136.916 181.319 134.084 184.656 130.609C185.921 129.297 187.066 127.915 188.087 126.472C188.276 126.203 188.454 125.938 188.632 125.662C190.065 123.532 191.235 121.249 192.158 118.821C193.82 114.44 194.572 109.831 194.401 105.004C194.23 100.18 193.049 95.3343 190.853 90.4524C188.658 85.5778 185.808 81.4702 182.311 78.1441C178.81 74.818 174.863 72.3316 170.479 70.6631C166.091 69.0055 161.482 68.2531 156.662 68.4203C151.838 68.5875 146.978 69.7652 142.107 71.9572C137.222 74.1564 133.121 77.0136 129.802 80.5105C126.476 84.0074 123.983 87.9588 122.314 92.3427C120.657 96.7338 119.9 101.336 120.068 106.16C120.238 110.987 121.434 115.865 123.659 120.809C125.826 125.622 128.657 129.693 132.158 133.019ZM381.476 499.703C383.141 498.049 385.638 497.489 387.816 498.365C389.517 499.049 391.487 500.139 393.348 501.88C395.588 503.978 396.911 506.308 397.7 508.275C398.59 510.496 398.049 513.033 396.351 514.716L372.847 538.031C370.949 539.918 368.023 540.321 365.7 538.994C364.293 538.188 362.767 537.122 361.269 535.708C359.288 533.84 357.896 531.862 356.911 530.103C355.624 527.788 356.085 524.894 357.965 523.026L381.476 499.703ZM342.41 505.265C340.52 509.71 339.571 514.283 339.553 518.969C339.542 521.393 339.786 523.789 340.291 526.152C340.393 526.632 340.506 527.104 340.622 527.584C341.069 529.303 341.647 531.008 342.37 532.702C344.264 537.162 347.078 541.266 350.8 545.021C354.566 548.816 358.659 551.674 363.083 553.578C364.759 554.305 366.453 554.891 368.161 555.345C368.481 555.425 368.794 555.498 369.113 555.567C371.611 556.163 374.159 556.457 376.754 556.468C381.44 556.486 386.02 555.574 390.48 553.724C394.941 551.87 399.063 549.067 402.861 545.294C406.656 541.528 409.503 537.421 411.389 532.978C413.28 528.533 414.221 523.967 414.246 519.274C414.257 514.581 413.345 510.001 411.502 505.548C409.648 501.088 406.842 496.951 403.08 493.16C399.306 489.358 395.191 486.519 390.757 484.639C386.311 482.749 381.738 481.8 377.045 481.775C372.356 481.764 367.779 482.669 363.319 484.523C358.859 486.373 354.711 489.205 350.862 493.022C347.114 496.74 344.297 500.823 342.41 505.265Z" fill="#15172A"/>
<path d="M140.657 94.4837C139.69 92.3427 140.042 89.809 141.627 88.0751C142.863 86.7228 144.575 85.2615 146.862 84.131C149.61 82.7715 152.256 82.3462 154.375 82.299C156.767 82.2444 158.952 83.6403 159.933 85.8213L173.521 116.011C174.623 118.45 173.972 121.332 171.915 123.041C170.668 124.077 169.13 125.135 167.284 126.04C164.837 127.236 162.5 127.85 160.508 128.152C157.887 128.548 155.335 127.101 154.248 124.684L140.657 94.4837ZM132.158 133.019C135.658 136.349 139.61 138.842 143.99 140.504C146.255 141.362 148.585 141.976 150.977 142.332C151.46 142.401 151.944 142.463 152.434 142.521C154.197 142.707 156 142.765 157.84 142.681C162.678 142.474 167.505 141.278 172.329 139.108C177.204 136.916 181.319 134.084 184.656 130.609C185.921 129.297 187.066 127.915 188.087 126.472C188.276 126.203 188.454 125.938 188.632 125.662C190.065 123.532 191.235 121.249 192.158 118.821C193.82 114.44 194.572 109.831 194.401 105.004C194.23 100.18 193.049 95.3343 190.853 90.4524C188.658 85.5778 185.808 81.4702 182.311 78.1441C178.81 74.818 174.863 72.3316 170.479 70.6631C166.091 69.0055 161.482 68.2531 156.662 68.4203C151.838 68.5875 146.978 69.7652 142.107 71.9572C137.222 74.1564 133.121 77.0136 129.802 80.5105C126.476 84.0074 123.983 87.9588 122.314 92.3427C120.657 96.7338 119.9 101.336 120.068 106.16C120.238 110.987 121.434 115.865 123.659 120.809C125.826 125.622 128.657 129.693 132.158 133.019ZM381.476 499.703C383.141 498.049 385.638 497.489 387.816 498.365C389.517 499.049 391.487 500.139 393.348 501.88C395.588 503.978 396.911 506.308 397.7 508.275C398.59 510.496 398.049 513.033 396.351 514.716L372.847 538.031C370.949 539.918 368.023 540.321 365.7 538.994C364.293 538.188 362.767 537.122 361.269 535.708C359.288 533.84 357.896 531.862 356.911 530.103C355.624 527.788 356.085 524.894 357.965 523.026L381.476 499.703ZM342.41 505.265C340.52 509.71 339.571 514.283 339.553 518.969C339.542 521.393 339.786 523.789 340.291 526.152C340.393 526.632 340.506 527.104 340.622 527.584C341.069 529.303 341.647 531.008 342.37 532.702C344.264 537.162 347.078 541.266 350.8 545.021C354.566 548.816 358.659 551.674 363.083 553.578C364.759 554.305 366.453 554.891 368.161 555.345C368.481 555.425 368.794 555.498 369.113 555.567C371.611 556.163 374.159 556.457 376.754 556.468C381.44 556.486 386.02 555.574 390.48 553.724C394.941 551.87 399.063 549.067 402.861 545.294C406.656 541.528 409.503 537.421 411.389 532.978C413.28 528.533 414.221 523.967 414.246 519.274C414.257 514.581 413.345 510.001 411.502 505.548C409.648 501.088 406.842 496.951 403.08 493.16C399.306 489.358 395.191 486.519 390.757 484.639C386.311 482.749 381.738 481.8 377.045 481.775C372.356 481.764 367.779 482.669 363.319 484.523C358.859 486.373 354.711 489.205 350.862 493.022C347.114 496.74 344.297 500.823 342.41 505.265Z" fill="#15172A"/>
<path d="M430.757 55.5466C431.781 53.2789 431.408 50.5954 429.729 48.7589C428.42 47.3267 426.607 45.779 424.185 44.5816C421.274 43.1417 418.471 42.6912 416.227 42.6411C413.693 42.5834 411.379 44.0618 410.34 46.3719L395.948 78.3469C394.782 80.9303 395.471 83.9834 397.65 85.793C398.971 86.8902 400.599 88.0106 402.555 88.9693C405.146 90.236 407.622 90.8866 409.732 91.2062C412.507 91.6258 415.21 90.0935 416.361 87.5332L430.757 55.5466ZM439.758 96.3615C436.051 99.8881 431.866 102.529 427.226 104.289C424.828 105.197 422.36 105.848 419.826 106.225C419.314 106.299 418.802 106.364 418.283 106.426C416.415 106.622 414.506 106.684 412.558 106.595C407.433 106.376 402.32 105.109 397.211 102.81C392.048 100.489 387.69 97.4895 384.155 93.8089C382.816 92.419 381.603 90.9559 380.521 89.4274C380.321 89.1425 380.132 88.8615 379.943 88.5689C378.426 86.3127 377.187 83.8949 376.209 81.323C374.449 76.6836 373.652 71.8017 373.833 66.6888C374.014 61.5797 375.266 56.4476 377.591 51.2769C379.916 46.1139 382.935 41.7633 386.639 38.2405C390.346 34.7176 394.528 32.0842 399.171 30.317C403.818 28.5614 408.7 27.7644 413.805 27.9415C418.914 28.1186 424.062 29.366 429.221 31.6876C434.395 34.0169 438.738 37.0431 442.253 40.7469C445.776 44.4507 448.417 48.6357 450.184 53.2789C451.94 57.9299 452.741 62.8041 452.564 67.9131C452.383 73.0261 451.116 78.1929 448.76 83.429C446.465 88.5265 443.466 92.8386 439.758 96.3615ZM175.692 484.736C173.929 482.984 171.284 482.391 168.978 483.319C167.176 484.043 165.089 485.198 163.118 487.042C160.746 489.263 159.345 491.731 158.509 493.814C157.566 496.166 158.14 498.854 159.938 500.636L184.832 525.331C186.842 527.329 189.941 527.756 192.402 526.351C193.892 525.496 195.509 524.368 197.095 522.871C199.193 520.892 200.668 518.797 201.711 516.934C203.074 514.481 202.585 511.417 200.595 509.438L175.692 484.736ZM217.069 490.626C219.071 495.335 220.076 500.178 220.095 505.141C220.107 507.709 219.849 510.246 219.314 512.749C219.206 513.257 219.087 513.758 218.963 514.266C218.49 516.087 217.878 517.893 217.112 519.687C215.106 524.411 212.126 528.758 208.183 532.735C204.194 536.754 199.859 539.78 195.174 541.798C193.399 542.568 191.605 543.188 189.795 543.669C189.456 543.754 189.125 543.831 188.786 543.904C186.141 544.535 183.442 544.847 180.694 544.859C175.731 544.878 170.88 543.911 166.156 541.952C161.432 539.988 157.066 537.02 153.042 533.023C149.023 529.035 146.008 524.684 144.01 519.979C142.008 515.271 141.011 510.435 140.984 505.464C140.972 500.494 141.939 495.643 143.891 490.927C145.854 486.202 148.826 481.821 152.811 477.805C156.808 473.778 161.166 470.771 165.863 468.781C170.572 466.779 175.415 465.774 180.385 465.747C185.352 465.735 190.199 466.694 194.923 468.658C199.648 470.617 204.04 473.616 208.118 477.659C212.087 481.598 215.071 485.921 217.069 490.626Z" fill="#15172A"/>
<path d="M430.757 55.5466C431.781 53.2789 431.408 50.5954 429.729 48.7589C428.42 47.3267 426.607 45.779 424.185 44.5816C421.274 43.1417 418.471 42.6912 416.227 42.6411C413.693 42.5834 411.379 44.0618 410.34 46.3719L395.948 78.3469C394.782 80.9303 395.471 83.9834 397.65 85.793C398.971 86.8902 400.599 88.0106 402.555 88.9693C405.146 90.236 407.622 90.8866 409.732 91.2062C412.507 91.6258 415.21 90.0935 416.361 87.5332L430.757 55.5466ZM439.758 96.3615C436.051 99.8881 431.866 102.529 427.226 104.289C424.828 105.197 422.36 105.848 419.826 106.225C419.314 106.299 418.802 106.364 418.283 106.426C416.415 106.622 414.506 106.684 412.558 106.595C407.433 106.376 402.32 105.109 397.211 102.81C392.048 100.489 387.69 97.4895 384.155 93.8089C382.816 92.419 381.603 90.9559 380.521 89.4274C380.321 89.1425 380.132 88.8615 379.943 88.5689C378.426 86.3127 377.187 83.8949 376.209 81.323C374.449 76.6836 373.652 71.8017 373.833 66.6888C374.014 61.5797 375.266 56.4476 377.591 51.2769C379.916 46.1139 382.935 41.7633 386.639 38.2405C390.346 34.7176 394.528 32.0842 399.171 30.317C403.818 28.5614 408.7 27.7644 413.805 27.9415C418.914 28.1186 424.062 29.366 429.221 31.6876C434.395 34.0169 438.738 37.0431 442.253 40.7469C445.776 44.4507 448.417 48.6357 450.184 53.2789C451.94 57.9299 452.741 62.8041 452.564 67.9131C452.383 73.0261 451.116 78.1929 448.76 83.429C446.465 88.5265 443.466 92.8386 439.758 96.3615ZM175.692 484.736C173.929 482.984 171.284 482.391 168.978 483.319C167.176 484.043 165.089 485.198 163.118 487.042C160.746 489.263 159.345 491.731 158.509 493.814C157.566 496.166 158.14 498.854 159.938 500.636L184.832 525.331C186.842 527.329 189.941 527.756 192.402 526.351C193.892 525.496 195.509 524.368 197.095 522.871C199.193 520.892 200.668 518.797 201.711 516.934C203.074 514.481 202.585 511.417 200.595 509.438L175.692 484.736ZM217.069 490.626C219.071 495.335 220.076 500.178 220.095 505.141C220.107 507.709 219.849 510.246 219.314 512.749C219.206 513.257 219.087 513.758 218.963 514.266C218.49 516.087 217.878 517.893 217.112 519.687C215.106 524.411 212.126 528.758 208.183 532.735C204.194 536.754 199.859 539.78 195.174 541.798C193.399 542.568 191.605 543.188 189.795 543.669C189.456 543.754 189.125 543.831 188.786 543.904C186.141 544.535 183.442 544.847 180.694 544.859C175.731 544.878 170.88 543.911 166.156 541.952C161.432 539.988 157.066 537.02 153.042 533.023C149.023 529.035 146.008 524.684 144.01 519.979C142.008 515.271 141.011 510.435 140.984 505.464C140.972 500.494 141.939 495.643 143.891 490.927C145.854 486.202 148.826 481.821 152.811 477.805C156.808 473.778 161.166 470.771 165.863 468.781C170.572 466.779 175.415 465.774 180.385 465.747C185.352 465.735 190.199 466.694 194.923 468.658C199.648 470.617 204.04 473.616 208.118 477.659C212.087 481.598 215.071 485.921 217.069 490.626Z" fill="#15172A"/>
<path d="M393.068 235.613C394.093 233.346 393.719 230.662 392.04 228.826C390.731 227.393 388.918 225.846 386.496 224.648C383.586 223.208 380.783 222.758 378.538 222.708C376.005 222.65 373.691 224.129 372.651 226.439L358.26 258.414C357.093 260.997 357.782 264.05 359.961 265.86C361.282 266.957 362.911 268.077 364.867 269.036C367.458 270.303 369.933 270.953 372.043 271.273C374.819 271.693 377.522 270.16 378.673 267.6L393.068 235.613ZM402.07 276.428C398.362 279.955 394.177 282.596 389.538 284.356C387.139 285.264 384.671 285.915 382.138 286.292C381.626 286.365 381.114 286.431 380.594 286.492C378.727 286.689 376.817 286.75 374.869 286.662C369.745 286.442 364.632 285.176 359.523 282.877C354.36 280.556 350.001 277.556 346.467 273.876C345.127 272.486 343.914 271.023 342.832 269.494C342.632 269.209 342.444 268.928 342.255 268.636C340.738 266.379 339.498 263.962 338.52 261.39C336.761 256.75 335.964 251.868 336.145 246.756C336.326 241.647 337.577 236.514 339.903 231.344C342.228 226.181 345.246 221.83 348.95 218.307C352.658 214.784 356.839 212.151 361.482 210.384C366.129 208.628 371.011 207.831 376.116 208.008C381.226 208.185 386.373 209.433 391.532 211.754C396.707 214.084 401.05 217.11 404.565 220.814C408.088 224.517 410.729 228.703 412.496 233.346C414.252 237.997 415.052 242.871 414.875 247.98C414.694 253.093 413.428 258.26 411.071 263.496C408.777 268.593 405.778 272.905 402.07 276.428ZM138.004 664.802C136.24 663.051 133.595 662.458 131.289 663.385C129.487 664.109 127.401 665.264 125.429 667.109C123.058 669.33 121.656 671.798 120.821 673.881C119.878 676.233 120.451 678.921 122.249 680.703L147.144 705.398C149.154 707.396 152.253 707.823 154.713 706.418C156.203 705.563 157.82 704.435 159.406 702.937C161.505 700.959 162.979 698.864 164.023 697.001C165.386 694.548 164.897 691.483 162.906 689.505L138.004 664.802ZM179.381 670.693C181.383 675.402 182.388 680.245 182.407 685.208C182.418 687.776 182.16 690.313 181.625 692.816C181.517 693.324 181.398 693.824 181.275 694.333C180.801 696.154 180.189 697.959 179.423 699.753C177.417 704.478 174.437 708.824 170.495 712.801C166.506 716.821 162.171 719.847 157.485 721.865C155.71 722.635 153.916 723.254 152.107 723.736C151.768 723.82 151.437 723.897 151.098 723.971C148.453 724.602 145.754 724.914 143.005 724.925C138.042 724.945 133.191 723.978 128.467 722.019C123.743 720.055 119.377 717.087 115.354 713.09C111.334 709.102 108.32 704.751 106.321 700.046C104.319 695.337 103.322 690.502 103.295 685.531C103.284 680.561 104.25 675.71 106.202 670.993C108.166 666.269 111.138 661.888 115.123 657.872C119.119 653.845 123.477 650.838 128.174 648.848C132.883 646.845 137.727 645.841 142.697 645.814C147.664 645.802 152.511 646.761 157.235 648.724C161.959 650.684 166.352 653.683 170.429 657.726C174.399 661.665 177.382 665.988 179.381 670.693Z" fill="#15172A"/>
<path d="M393.068 235.613C394.093 233.346 393.719 230.662 392.04 228.826C390.731 227.393 388.918 225.846 386.496 224.648C383.586 223.208 380.783 222.758 378.538 222.708C376.005 222.65 373.691 224.129 372.651 226.439L358.26 258.414C357.093 260.997 357.782 264.05 359.961 265.86C361.282 266.957 362.911 268.077 364.867 269.036C367.458 270.303 369.933 270.953 372.043 271.273C374.819 271.693 377.522 270.16 378.673 267.6L393.068 235.613ZM402.07 276.428C398.362 279.955 394.177 282.596 389.538 284.356C387.139 285.264 384.671 285.915 382.138 286.292C381.626 286.365 381.114 286.431 380.594 286.492C378.727 286.689 376.817 286.75 374.869 286.662C369.745 286.442 364.632 285.176 359.523 282.877C354.36 280.556 350.001 277.556 346.467 273.876C345.127 272.486 343.914 271.023 342.832 269.494C342.632 269.209 342.444 268.928 342.255 268.636C340.738 266.379 339.498 263.962 338.52 261.39C336.761 256.75 335.964 251.868 336.145 246.756C336.326 241.647 337.577 236.514 339.903 231.344C342.228 226.181 345.246 221.83 348.95 218.307C352.658 214.784 356.839 212.151 361.482 210.384C366.129 208.628 371.011 207.831 376.116 208.008C381.226 208.185 386.373 209.433 391.532 211.754C396.707 214.084 401.05 217.11 404.565 220.814C408.088 224.517 410.729 228.703 412.496 233.346C414.252 237.997 415.052 242.871 414.875 247.98C414.694 253.093 413.428 258.26 411.071 263.496C408.777 268.593 405.778 272.905 402.07 276.428ZM138.004 664.802C136.24 663.051 133.595 662.458 131.289 663.385C129.487 664.109 127.401 665.264 125.429 667.109C123.058 669.33 121.656 671.798 120.821 673.881C119.878 676.233 120.451 678.921 122.249 680.703L147.144 705.398C149.154 707.396 152.253 707.823 154.713 706.418C156.203 705.563 157.82 704.435 159.406 702.937C161.505 700.959 162.979 698.864 164.023 697.001C165.386 694.548 164.897 691.483 162.906 689.505L138.004 664.802ZM179.381 670.693C181.383 675.402 182.388 680.245 182.407 685.208C182.418 687.776 182.16 690.313 181.625 692.816C181.517 693.324 181.398 693.824 181.275 694.333C180.801 696.154 180.189 697.959 179.423 699.753C177.417 704.478 174.437 708.824 170.495 712.801C166.506 716.821 162.171 719.847 157.485 721.865C155.71 722.635 153.916 723.254 152.107 723.736C151.768 723.82 151.437 723.897 151.098 723.971C148.453 724.602 145.754 724.914 143.005 724.925C138.042 724.945 133.191 723.978 128.467 722.019C123.743 720.055 119.377 717.087 115.354 713.09C111.334 709.102 108.32 704.751 106.321 700.046C104.319 695.337 103.322 690.502 103.295 685.531C103.284 680.561 104.25 675.71 106.202 670.993C108.166 666.269 111.138 661.888 115.123 657.872C119.119 653.845 123.477 650.838 128.174 648.848C132.883 646.845 137.727 645.841 142.697 645.814C147.664 645.802 152.511 646.761 157.235 648.724C161.959 650.684 166.352 653.683 170.429 657.726C174.399 661.665 177.382 665.988 179.381 670.693Z" fill="#15172A"/>
<path d="M141.115 262.135C142.139 259.867 141.766 257.184 140.087 255.347C138.778 253.915 136.965 252.367 134.543 251.17C131.633 249.73 128.83 249.279 126.585 249.229C124.052 249.172 121.738 250.65 120.698 252.96L106.307 284.935C105.14 287.519 105.829 290.572 108.008 292.381C109.329 293.478 110.958 294.599 112.913 295.558C115.504 296.824 117.98 297.475 120.09 297.794C122.866 298.214 125.569 296.682 126.72 294.121L141.115 262.135ZM150.117 302.95C146.409 306.476 142.224 309.118 137.585 310.877C135.186 311.786 132.718 312.436 130.185 312.814C129.673 312.887 129.161 312.952 128.641 313.014C126.774 313.21 124.864 313.272 122.916 313.183C117.791 312.964 112.679 311.697 107.569 309.399C102.406 307.077 98.0482 304.078 94.5138 300.397C93.174 299.007 91.9612 297.544 90.8793 296.016C90.6791 295.731 90.4905 295.45 90.3018 295.157C88.7849 292.901 87.5451 290.483 86.5672 287.911C84.8077 283.272 84.0108 278.39 84.1917 273.277C84.3727 268.168 85.6239 263.036 87.9494 257.865C90.2749 252.702 93.2933 248.352 96.9971 244.829C100.705 241.306 104.886 238.672 109.529 236.905C114.176 235.15 119.058 234.353 124.163 234.53C129.272 234.707 134.42 235.954 139.579 238.276C144.754 240.605 149.097 243.631 152.612 247.335C156.135 251.039 158.776 255.224 160.543 259.867C162.299 264.518 163.099 269.392 162.922 274.501C162.741 279.614 161.475 284.781 159.118 290.017C156.824 295.115 153.824 299.427 150.117 302.95ZM-113.949 691.324C-115.713 689.572 -118.358 688.979 -120.664 689.907C-122.466 690.631 -124.552 691.786 -126.524 693.63C-128.895 695.852 -130.297 698.319 -131.132 700.402C-132.076 702.755 -131.502 705.442 -129.704 707.225L-104.809 731.919C-102.799 733.917 -99.7002 734.345 -97.24 732.939C-95.75 732.085 -94.1329 730.957 -92.5467 729.459C-90.4484 727.48 -88.9738 725.386 -87.9305 723.522C-86.5675 721.07 -87.0565 718.005 -89.047 716.026L-113.949 691.324ZM-72.5724 697.214C-70.5704 701.923 -69.5655 706.767 -69.5463 711.729C-69.5347 714.297 -69.7927 716.834 -70.3278 719.337C-70.4356 719.845 -70.555 720.346 -70.6782 720.854C-71.1518 722.675 -71.7639 724.481 -72.5301 726.275C-74.536 730.999 -77.516 735.346 -81.4585 739.323C-85.4471 743.342 -89.7823 746.369 -94.4679 748.386C-96.2428 749.156 -98.0369 749.776 -99.8465 750.257C-100.185 750.342 -100.516 750.419 -100.855 750.492C-103.5 751.123 -106.199 751.435 -108.948 751.447C-113.911 751.466 -118.762 750.5 -123.486 748.54C-128.21 746.576 -132.576 743.608 -136.599 739.612C-140.619 735.623 -143.634 731.272 -145.632 726.568C-147.634 721.859 -148.631 717.023 -148.658 712.053C-148.669 707.082 -147.703 702.231 -145.751 697.515C-143.788 692.791 -140.815 688.409 -136.83 684.394C-132.834 680.366 -128.476 677.36 -123.779 675.369C-119.07 673.367 -114.227 672.362 -109.256 672.335C-104.289 672.324 -99.4422 673.282 -94.7181 675.246C-89.9941 677.206 -85.6012 680.205 -81.5239 684.247C-77.5545 688.186 -74.5706 692.51 -72.5724 697.214Z" fill="#15172A"/>
<path d="M141.115 262.135C142.139 259.867 141.766 257.184 140.087 255.347C138.778 253.915 136.965 252.367 134.543 251.17C131.633 249.73 128.83 249.279 126.585 249.229C124.052 249.172 121.738 250.65 120.698 252.96L106.307 284.935C105.14 287.519 105.829 290.572 108.008 292.381C109.329 293.478 110.958 294.599 112.913 295.558C115.504 296.824 117.98 297.475 120.09 297.794C122.866 298.214 125.569 296.682 126.72 294.121L141.115 262.135ZM150.117 302.95C146.409 306.476 142.224 309.118 137.585 310.877C135.186 311.786 132.718 312.436 130.185 312.814C129.673 312.887 129.161 312.952 128.641 313.014C126.774 313.21 124.864 313.272 122.916 313.183C117.791 312.964 112.679 311.697 107.569 309.399C102.406 307.077 98.0482 304.078 94.5138 300.397C93.174 299.007 91.9612 297.544 90.8793 296.016C90.6791 295.731 90.4905 295.45 90.3018 295.157C88.7849 292.901 87.5451 290.483 86.5672 287.911C84.8077 283.272 84.0108 278.39 84.1917 273.277C84.3727 268.168 85.6239 263.036 87.9494 257.865C90.2749 252.702 93.2933 248.352 96.9971 244.829C100.705 241.306 104.886 238.672 109.529 236.905C114.176 235.15 119.058 234.353 124.163 234.53C129.272 234.707 134.42 235.954 139.579 238.276C144.754 240.605 149.097 243.631 152.612 247.335C156.135 251.039 158.776 255.224 160.543 259.867C162.299 264.518 163.099 269.392 162.922 274.501C162.741 279.614 161.475 284.781 159.118 290.017C156.824 295.115 153.824 299.427 150.117 302.95ZM-113.949 691.324C-115.713 689.572 -118.358 688.979 -120.664 689.907C-122.466 690.631 -124.552 691.786 -126.524 693.63C-128.895 695.852 -130.297 698.319 -131.132 700.402C-132.076 702.755 -131.502 705.442 -129.704 707.225L-104.809 731.919C-102.799 733.917 -99.7002 734.345 -97.24 732.939C-95.75 732.085 -94.1329 730.957 -92.5467 729.459C-90.4484 727.48 -88.9738 725.386 -87.9305 723.522C-86.5675 721.07 -87.0565 718.005 -89.047 716.026L-113.949 691.324ZM-72.5724 697.214C-70.5704 701.923 -69.5655 706.767 -69.5463 711.729C-69.5347 714.297 -69.7927 716.834 -70.3278 719.337C-70.4356 719.845 -70.555 720.346 -70.6782 720.854C-71.1518 722.675 -71.7639 724.481 -72.5301 726.275C-74.536 730.999 -77.516 735.346 -81.4585 739.323C-85.4471 743.342 -89.7823 746.369 -94.4679 748.386C-96.2428 749.156 -98.0369 749.776 -99.8465 750.257C-100.185 750.342 -100.516 750.419 -100.855 750.492C-103.5 751.123 -106.199 751.435 -108.948 751.447C-113.911 751.466 -118.762 750.5 -123.486 748.54C-128.21 746.576 -132.576 743.608 -136.599 739.612C-140.619 735.623 -143.634 731.272 -145.632 726.568C-147.634 721.859 -148.631 717.023 -148.658 712.053C-148.669 707.082 -147.703 702.231 -145.751 697.515C-143.788 692.791 -140.815 688.409 -136.83 684.394C-132.834 680.366 -128.476 677.36 -123.779 675.369C-119.07 673.367 -114.227 672.362 -109.256 672.335C-104.289 672.324 -99.4422 673.282 -94.7181 675.246C-89.9941 677.206 -85.6012 680.205 -81.5239 684.247C-77.5545 688.186 -74.5706 692.51 -72.5724 697.214Z" fill="#15172A"/>
</g>
</svg>
