<svg width="252" height="439" viewBox="0 0 252 439" fill="none" xmlns="http://www.w3.org/2000/svg">
<mask id="mask0_160_1267" style="mask-type:alpha" maskUnits="userSpaceOnUse" x="-342" y="0" width="594" height="439">
<rect x="-342" width="593.941" height="439" fill="#D9D9D9"/>
</mask>
<g mask="url(#mask0_160_1267)">
</g>
<mask id="mask1_160_1267" style="mask-type:alpha" maskUnits="userSpaceOnUse" x="-342" y="0" width="594" height="439">
<rect x="-342" width="593.941" height="439" fill="#D9D9D9"/>
</mask>
<g mask="url(#mask1_160_1267)">
<path d="M-113.939 219.927L-114.022 219.67C-116.549 211.831 -119.097 203.973 -121.626 196.132C-121.691 195.962 -121.742 195.776 -121.791 195.621L-122.428 193.639C-122.895 192.205 -121.627 190.813 -120.179 191.11L-91.8923 196.786C-90.7714 197.066 -89.9061 197.907 -89.6057 198.998C-89.2048 200.534 -90.1824 201.705 -90.2683 201.824C-90.3379 201.893 -90.3902 201.944 -90.4573 202.011L-109.883 223.002C-110.894 224.108 -112.719 223.703 -113.185 222.269L-113.939 219.927ZM71.375 389.31L71.2915 389.053C68.7621 381.212 66.2167 373.356 63.6898 365.512C63.6222 365.345 63.5718 365.154 63.5228 365.004L62.8877 363.02C62.4158 361.586 63.6867 360.196 65.1348 360.493L93.4186 366.166C94.5446 366.446 95.4099 367.288 95.7078 368.381C96.1087 369.918 95.1284 371.086 95.0452 371.207C94.9756 371.277 94.9234 371.327 94.8563 371.394L75.4304 392.386C74.417 393.488 72.5973 393.084 72.1281 391.652L71.375 389.31Z" fill="#15172A"/>
<path d="M-113.939 219.927L-114.022 219.67C-116.549 211.831 -119.097 203.973 -121.626 196.132C-121.691 195.962 -121.742 195.776 -121.791 195.621L-122.428 193.639C-122.895 192.205 -121.627 190.813 -120.179 191.11L-91.8923 196.786C-90.7714 197.066 -89.9061 197.907 -89.6057 198.998C-89.2048 200.534 -90.1824 201.705 -90.2683 201.824C-90.3379 201.893 -90.3902 201.944 -90.4573 202.011L-109.883 223.002C-110.894 224.108 -112.719 223.703 -113.185 222.269L-113.939 219.927ZM71.375 389.31L71.2915 389.053C68.7621 381.212 66.2167 373.356 63.6898 365.512C63.6222 365.345 63.5718 365.154 63.5228 365.004L62.8877 363.02C62.4158 361.586 63.6867 360.196 65.1348 360.493L93.4186 366.166C94.5446 366.446 95.4099 367.288 95.7078 368.381C96.1087 369.918 95.1284 371.086 95.0452 371.207C94.9756 371.277 94.9234 371.327 94.8563 371.394L75.4304 392.386C74.417 393.488 72.5973 393.084 72.1281 391.652L71.375 389.31Z" fill="#15172A"/>
<path d="M131.036 180.842L130.953 180.585C128.426 172.747 125.878 164.889 123.348 157.048C123.283 156.878 123.233 156.692 123.184 156.536L122.546 154.555C122.08 153.121 123.348 151.729 124.796 152.025L153.082 157.702C154.203 157.981 155.068 158.823 155.369 159.913C155.77 161.45 154.792 162.621 154.706 162.74C154.637 162.809 154.584 162.86 154.517 162.927L135.091 183.918C134.081 185.023 132.256 184.619 131.789 183.185L131.036 180.842ZM316.35 350.225L316.266 349.969C313.737 342.128 311.191 334.272 308.664 326.428C308.597 326.261 308.546 326.07 308.497 325.919L307.862 323.936C307.39 322.501 308.661 321.112 310.109 321.409L338.393 327.082C339.519 327.362 340.384 328.204 340.682 329.296C341.083 330.833 340.103 332.002 340.02 332.123C339.95 332.192 339.898 332.243 339.831 332.31L320.405 353.301C319.392 354.404 317.572 353.999 317.103 352.568L316.35 350.225Z" fill="#15172A"/>
<path d="M161.21 262.715C177.621 265.378 179.78 267.534 182.44 283.948C185.103 267.534 187.259 265.378 203.67 262.715C187.259 260.055 185.103 257.896 182.44 241.485C179.78 257.896 177.621 260.055 161.21 262.715ZM439.66 532.324C453.079 534.501 454.841 536.265 457.017 549.682C459.194 536.265 460.959 534.501 474.375 532.324C460.959 530.148 459.194 528.386 457.017 514.967C454.841 528.386 453.079 530.148 439.66 532.324Z" fill="#15172A"/>
<path d="M-201.343 94.4837C-202.31 92.3427 -201.958 89.809 -200.373 88.0751C-199.137 86.7228 -197.425 85.2615 -195.138 84.131C-192.39 82.7715 -189.744 82.3462 -187.625 82.299C-185.233 82.2444 -183.048 83.6403 -182.067 85.8213L-168.479 116.011C-167.377 118.45 -168.028 121.332 -170.085 123.041C-171.332 124.077 -172.87 125.135 -174.716 126.04C-177.163 127.236 -179.5 127.85 -181.492 128.152C-184.113 128.548 -186.665 127.101 -187.752 124.684L-201.343 94.4837ZM-209.842 133.019C-206.342 136.349 -202.39 138.842 -198.01 140.504C-195.745 141.362 -193.415 141.976 -191.023 142.332C-190.54 142.401 -190.056 142.463 -189.566 142.521C-187.803 142.707 -186 142.765 -184.16 142.681C-179.322 142.474 -174.495 141.278 -169.671 139.108C-164.796 136.916 -160.681 134.084 -157.344 130.609C-156.079 129.297 -154.934 127.915 -153.913 126.472C-153.724 126.203 -153.546 125.938 -153.368 125.662C-151.935 123.532 -150.765 121.249 -149.842 118.821C-148.18 114.44 -147.428 109.831 -147.599 105.004C-147.77 100.18 -148.951 95.3343 -151.147 90.4524C-153.342 85.5778 -156.192 81.4702 -159.689 78.1441C-163.19 74.818 -167.137 72.3316 -171.521 70.6631C-175.909 69.0055 -180.518 68.2531 -185.338 68.4203C-190.162 68.5875 -195.022 69.7652 -199.893 71.9572C-204.778 74.1564 -208.879 77.0136 -212.198 80.5105C-215.524 84.0074 -218.017 87.9588 -219.686 92.3427C-221.343 96.7338 -222.1 101.336 -221.932 106.16C-221.762 110.987 -220.566 115.865 -218.341 120.809C-216.174 125.622 -213.343 129.693 -209.842 133.019ZM39.4763 499.703C41.1412 498.049 43.6385 497.489 45.8159 498.365C47.5171 499.049 49.4873 500.139 51.3485 501.88C53.5877 503.978 54.9109 506.308 55.6997 508.275C56.5902 510.496 56.0486 513.033 54.351 514.716L30.8467 538.031C28.9492 539.918 26.023 540.321 23.7001 538.994C22.2934 538.188 20.7666 537.122 19.269 535.708C17.2879 533.84 15.8957 531.862 14.9106 530.103C13.6237 527.788 14.0854 524.894 15.9647 523.026L39.4763 499.703ZM0.410278 505.265C-1.47995 509.71 -2.42871 514.283 -2.44688 518.969C-2.45779 521.393 -2.21423 523.789 -1.70897 526.152C-1.60718 526.632 -1.49449 527.104 -1.37817 527.584C-0.931061 529.303 -0.353088 531.008 0.3703 532.702C2.26416 537.162 5.07771 541.266 8.80002 545.021C12.5659 548.816 16.659 551.674 21.0829 553.578C22.7587 554.305 24.4526 554.891 26.1611 555.345C26.481 555.425 26.7936 555.498 27.1135 555.567C29.6108 556.163 32.159 556.457 34.7544 556.468C39.44 556.486 44.0202 555.574 48.4804 553.724C52.9406 551.87 57.0628 549.067 60.8615 545.294C64.6565 541.528 67.5027 537.421 69.3893 532.978C71.2796 528.533 72.221 523.967 72.2465 519.274C72.2574 514.581 71.345 510.001 69.502 505.548C67.6481 501.088 64.8419 496.951 61.0796 493.16C57.3064 489.358 53.1915 486.519 48.7567 484.639C44.311 482.749 39.7381 481.8 35.0452 481.775C30.356 481.764 25.7794 482.669 21.3192 484.523C16.8589 486.373 12.7113 489.205 8.86182 493.022C5.11406 496.74 2.29688 500.823 0.410278 505.265Z" fill="#15172A"/>
<path d="M-201.343 94.4837C-202.31 92.3427 -201.958 89.809 -200.373 88.0751C-199.137 86.7228 -197.425 85.2615 -195.138 84.131C-192.39 82.7715 -189.744 82.3462 -187.625 82.299C-185.233 82.2444 -183.048 83.6403 -182.067 85.8213L-168.479 116.011C-167.377 118.45 -168.028 121.332 -170.085 123.041C-171.332 124.077 -172.87 125.135 -174.716 126.04C-177.163 127.236 -179.5 127.85 -181.492 128.152C-184.113 128.548 -186.665 127.101 -187.752 124.684L-201.343 94.4837ZM-209.842 133.019C-206.342 136.349 -202.39 138.842 -198.01 140.504C-195.745 141.362 -193.415 141.976 -191.023 142.332C-190.54 142.401 -190.056 142.463 -189.566 142.521C-187.803 142.707 -186 142.765 -184.16 142.681C-179.322 142.474 -174.495 141.278 -169.671 139.108C-164.796 136.916 -160.681 134.084 -157.344 130.609C-156.079 129.297 -154.934 127.915 -153.913 126.472C-153.724 126.203 -153.546 125.938 -153.368 125.662C-151.935 123.532 -150.765 121.249 -149.842 118.821C-148.18 114.44 -147.428 109.831 -147.599 105.004C-147.77 100.18 -148.951 95.3343 -151.147 90.4524C-153.342 85.5778 -156.192 81.4702 -159.689 78.1441C-163.19 74.818 -167.137 72.3316 -171.521 70.6631C-175.909 69.0055 -180.518 68.2531 -185.338 68.4203C-190.162 68.5875 -195.022 69.7652 -199.893 71.9572C-204.778 74.1564 -208.879 77.0136 -212.198 80.5105C-215.524 84.0074 -218.017 87.9588 -219.686 92.3427C-221.343 96.7338 -222.1 101.336 -221.932 106.16C-221.762 110.987 -220.566 115.865 -218.341 120.809C-216.174 125.622 -213.343 129.693 -209.842 133.019ZM39.4763 499.703C41.1412 498.049 43.6385 497.489 45.8159 498.365C47.5171 499.049 49.4873 500.139 51.3485 501.88C53.5877 503.978 54.9109 506.308 55.6997 508.275C56.5902 510.496 56.0486 513.033 54.351 514.716L30.8467 538.031C28.9492 539.918 26.023 540.321 23.7001 538.994C22.2934 538.188 20.7666 537.122 19.269 535.708C17.2879 533.84 15.8957 531.862 14.9106 530.103C13.6237 527.788 14.0854 524.894 15.9647 523.026L39.4763 499.703ZM0.410278 505.265C-1.47995 509.71 -2.42871 514.283 -2.44688 518.969C-2.45779 521.393 -2.21423 523.789 -1.70897 526.152C-1.60718 526.632 -1.49449 527.104 -1.37817 527.584C-0.931061 529.303 -0.353088 531.008 0.3703 532.702C2.26416 537.162 5.07771 541.266 8.80002 545.021C12.5659 548.816 16.659 551.674 21.0829 553.578C22.7587 554.305 24.4526 554.891 26.1611 555.345C26.481 555.425 26.7936 555.498 27.1135 555.567C29.6108 556.163 32.159 556.457 34.7544 556.468C39.44 556.486 44.0202 555.574 48.4804 553.724C52.9406 551.87 57.0628 549.067 60.8615 545.294C64.6565 541.528 67.5027 537.421 69.3893 532.978C71.2796 528.533 72.221 523.967 72.2465 519.274C72.2574 514.581 71.345 510.001 69.502 505.548C67.6481 501.088 64.8419 496.951 61.0796 493.16C57.3064 489.358 53.1915 486.519 48.7567 484.639C44.311 482.749 39.7381 481.8 35.0452 481.775C30.356 481.764 25.7794 482.669 21.3192 484.523C16.8589 486.373 12.7113 489.205 8.86182 493.022C5.11406 496.74 2.29688 500.823 0.410278 505.265Z" fill="#15172A"/>
<path d="M88.7569 55.5466C89.781 53.2789 89.4076 50.5954 87.7289 48.7589C86.4199 47.3267 84.6065 45.779 82.1848 44.5816C79.2741 43.1417 76.4713 42.6912 74.2267 42.6411C71.6933 42.5834 69.3794 44.0618 68.3399 46.3719L53.9482 78.3469C52.7817 80.9303 53.4708 83.9834 55.65 85.793C56.9706 86.8902 58.5991 88.0106 60.555 88.9693C63.1461 90.236 65.6217 90.8866 67.7316 91.2062C70.5075 91.6258 73.2102 90.0935 74.3614 87.5332L88.7569 55.5466ZM97.7584 96.3615C94.0508 99.8881 89.8657 102.529 85.2264 104.289C82.8278 105.197 80.3599 105.848 77.8265 106.225C77.3144 106.299 76.8024 106.364 76.2826 106.426C74.4153 106.622 72.5057 106.684 70.5575 106.595C65.4331 106.376 60.3201 105.109 55.2111 102.81C50.0481 100.489 45.6898 97.4895 42.1554 93.8089C40.8156 92.419 39.6028 90.9559 38.5209 89.4274C38.3207 89.1425 38.1321 88.8615 37.9434 88.5689C36.4265 86.3127 35.1867 83.8949 34.2088 81.323C32.4493 76.6836 31.6524 71.8017 31.8333 66.6888C32.0143 61.5797 33.2655 56.4476 35.591 51.2769C37.9165 46.1139 40.9349 41.7633 44.6387 38.2405C48.3464 34.7176 52.5275 32.0842 57.1708 30.317C61.8178 28.5614 66.6997 27.7644 71.805 27.9415C76.914 28.1186 82.0616 29.366 87.2207 31.6876C92.3952 34.0169 96.7381 37.0431 100.253 40.7469C103.776 44.4507 106.417 48.6357 108.184 53.2789C109.94 57.9299 110.741 62.8041 110.564 67.9131C110.383 73.0261 109.116 78.1929 106.76 83.429C104.465 88.5265 101.466 92.8386 97.7584 96.3615ZM-166.308 484.736C-168.071 482.984 -170.716 482.391 -173.022 483.319C-174.824 484.043 -176.911 485.198 -178.882 487.042C-181.254 489.263 -182.655 491.731 -183.491 493.814C-184.434 496.166 -183.86 498.854 -182.062 500.636L-157.168 525.331C-155.158 527.329 -152.059 527.756 -149.598 526.351C-148.108 525.496 -146.491 524.368 -144.905 522.871C-142.807 520.892 -141.332 518.797 -140.289 516.934C-138.926 514.481 -139.415 511.417 -141.405 509.438L-166.308 484.736ZM-124.931 490.626C-122.929 495.335 -121.924 500.178 -121.905 505.141C-121.893 507.709 -122.151 510.246 -122.686 512.749C-122.794 513.257 -122.913 513.758 -123.037 514.266C-123.51 516.087 -124.122 517.893 -124.888 519.687C-126.894 524.411 -129.874 528.758 -133.817 532.735C-137.806 536.754 -142.141 539.78 -146.826 541.798C-148.601 542.568 -150.395 543.188 -152.205 543.669C-152.544 543.754 -152.875 543.831 -153.214 543.904C-155.859 544.535 -158.558 544.847 -161.306 544.859C-166.269 544.878 -171.12 543.911 -175.844 541.952C-180.568 539.988 -184.934 537.02 -188.958 533.023C-192.977 529.035 -195.992 524.684 -197.99 519.979C-199.992 515.271 -200.989 510.435 -201.016 505.464C-201.028 500.494 -200.061 495.643 -198.109 490.927C-196.146 486.202 -193.174 481.821 -189.189 477.805C-185.192 473.778 -180.834 470.771 -176.137 468.781C-171.428 466.779 -166.585 465.774 -161.615 465.747C-156.648 465.735 -151.801 466.694 -147.077 468.658C-142.352 470.617 -137.96 473.616 -133.882 477.659C-129.913 481.598 -126.929 485.921 -124.931 490.626Z" fill="#15172A"/>
<path d="M88.7569 55.5466C89.781 53.2789 89.4076 50.5954 87.7289 48.7589C86.4199 47.3267 84.6065 45.779 82.1848 44.5816C79.2741 43.1417 76.4713 42.6912 74.2267 42.6411C71.6933 42.5834 69.3794 44.0618 68.3399 46.3719L53.9482 78.3469C52.7817 80.9303 53.4708 83.9834 55.65 85.793C56.9706 86.8902 58.5991 88.0106 60.555 88.9693C63.1461 90.236 65.6217 90.8866 67.7316 91.2062C70.5075 91.6258 73.2102 90.0935 74.3614 87.5332L88.7569 55.5466ZM97.7584 96.3615C94.0508 99.8881 89.8657 102.529 85.2264 104.289C82.8278 105.197 80.3599 105.848 77.8265 106.225C77.3144 106.299 76.8024 106.364 76.2826 106.426C74.4153 106.622 72.5057 106.684 70.5575 106.595C65.4331 106.376 60.3201 105.109 55.2111 102.81C50.0481 100.489 45.6898 97.4895 42.1554 93.8089C40.8156 92.419 39.6028 90.9559 38.5209 89.4274C38.3207 89.1425 38.1321 88.8615 37.9434 88.5689C36.4265 86.3127 35.1867 83.8949 34.2088 81.323C32.4493 76.6836 31.6524 71.8017 31.8333 66.6888C32.0143 61.5797 33.2655 56.4476 35.591 51.2769C37.9165 46.1139 40.9349 41.7633 44.6387 38.2405C48.3464 34.7176 52.5275 32.0842 57.1708 30.317C61.8178 28.5614 66.6997 27.7644 71.805 27.9415C76.914 28.1186 82.0616 29.366 87.2207 31.6876C92.3952 34.0169 96.7381 37.0431 100.253 40.7469C103.776 44.4507 106.417 48.6357 108.184 53.2789C109.94 57.9299 110.741 62.8041 110.564 67.9131C110.383 73.0261 109.116 78.1929 106.76 83.429C104.465 88.5265 101.466 92.8386 97.7584 96.3615ZM-166.308 484.736C-168.071 482.984 -170.716 482.391 -173.022 483.319C-174.824 484.043 -176.911 485.198 -178.882 487.042C-181.254 489.263 -182.655 491.731 -183.491 493.814C-184.434 496.166 -183.86 498.854 -182.062 500.636L-157.168 525.331C-155.158 527.329 -152.059 527.756 -149.598 526.351C-148.108 525.496 -146.491 524.368 -144.905 522.871C-142.807 520.892 -141.332 518.797 -140.289 516.934C-138.926 514.481 -139.415 511.417 -141.405 509.438L-166.308 484.736ZM-124.931 490.626C-122.929 495.335 -121.924 500.178 -121.905 505.141C-121.893 507.709 -122.151 510.246 -122.686 512.749C-122.794 513.257 -122.913 513.758 -123.037 514.266C-123.51 516.087 -124.122 517.893 -124.888 519.687C-126.894 524.411 -129.874 528.758 -133.817 532.735C-137.806 536.754 -142.141 539.78 -146.826 541.798C-148.601 542.568 -150.395 543.188 -152.205 543.669C-152.544 543.754 -152.875 543.831 -153.214 543.904C-155.859 544.535 -158.558 544.847 -161.306 544.859C-166.269 544.878 -171.12 543.911 -175.844 541.952C-180.568 539.988 -184.934 537.02 -188.958 533.023C-192.977 529.035 -195.992 524.684 -197.99 519.979C-199.992 515.271 -200.989 510.435 -201.016 505.464C-201.028 500.494 -200.061 495.643 -198.109 490.927C-196.146 486.202 -193.174 481.821 -189.189 477.805C-185.192 473.778 -180.834 470.771 -176.137 468.781C-171.428 466.779 -166.585 465.774 -161.615 465.747C-156.648 465.735 -151.801 466.694 -147.077 468.658C-142.352 470.617 -137.96 473.616 -133.882 477.659C-129.913 481.598 -126.929 485.921 -124.931 490.626Z" fill="#15172A"/>
<path d="M51.0684 235.613C52.0926 233.346 51.7191 230.662 50.0405 228.826C48.7314 227.393 46.918 225.846 44.4963 224.648C41.5857 223.208 38.7828 222.758 36.5382 222.708C34.0048 222.65 31.6909 224.129 30.6514 226.439L16.2598 258.414C15.0932 260.997 15.7823 264.05 17.9615 265.86C19.2821 266.957 20.9107 268.077 22.8665 269.036C25.4576 270.303 27.9332 270.953 30.0431 271.273C32.819 271.693 35.5218 270.16 36.6729 267.6L51.0684 235.613ZM60.0699 276.428C56.3623 279.955 52.1773 282.596 47.5379 284.356C45.1393 285.264 42.6714 285.915 40.138 286.292C39.626 286.365 39.1139 286.431 38.5941 286.492C36.7268 286.689 34.8172 286.75 32.869 286.662C27.7446 286.442 22.6317 285.176 17.5226 282.877C12.3596 280.556 8.00131 277.556 4.46693 273.876C3.1271 272.486 1.91432 271.023 0.832443 269.494C0.63224 269.209 0.443588 268.928 0.254929 268.636C-1.262 266.379 -2.50173 263.962 -3.47966 261.39C-5.23915 256.75 -6.03612 251.868 -5.85516 246.756C-5.67421 241.647 -4.42293 236.514 -2.09747 231.344C0.227982 226.181 3.24645 221.83 6.95024 218.307C10.6579 214.784 14.8391 212.151 19.4823 210.384C24.1293 208.628 29.0113 207.831 34.1165 208.008C39.2255 208.185 44.3731 209.433 49.5322 211.754C54.7068 214.084 59.0497 217.11 62.5648 220.814C66.0876 224.517 68.7288 228.703 70.496 233.346C72.2516 237.997 73.0524 242.871 72.8753 247.98C72.6944 253.093 71.4277 258.26 69.0715 263.496C66.7768 268.593 63.7776 272.905 60.0699 276.428ZM-203.996 664.802C-205.76 663.051 -208.405 662.458 -210.711 663.385C-212.513 664.109 -214.599 665.264 -216.571 667.109C-218.942 669.33 -220.344 671.798 -221.179 673.881C-222.122 676.233 -221.549 678.921 -219.751 680.703L-194.856 705.398C-192.846 707.396 -189.747 707.823 -187.287 706.418C-185.797 705.563 -184.18 704.435 -182.594 702.937C-180.495 700.959 -179.021 698.864 -177.977 697.001C-176.614 694.548 -177.103 691.483 -179.094 689.505L-203.996 664.802ZM-162.619 670.693C-160.617 675.402 -159.612 680.245 -159.593 685.208C-159.582 687.776 -159.84 690.313 -160.375 692.816C-160.483 693.324 -160.602 693.824 -160.725 694.333C-161.199 696.154 -161.811 697.959 -162.577 699.753C-164.583 704.478 -167.563 708.824 -171.505 712.801C-175.494 716.821 -179.829 719.847 -184.515 721.865C-186.29 722.635 -188.084 723.254 -189.893 723.736C-190.232 723.82 -190.563 723.897 -190.902 723.971C-193.547 724.602 -196.246 724.914 -198.995 724.925C-203.958 724.945 -208.809 723.978 -213.533 722.019C-218.257 720.055 -222.623 717.087 -226.646 713.09C-230.666 709.102 -233.68 704.751 -235.679 700.046C-237.681 695.337 -238.678 690.502 -238.705 685.531C-238.716 680.561 -237.75 675.71 -235.798 670.993C-233.834 666.269 -230.862 661.888 -226.877 657.872C-222.881 653.845 -218.523 650.838 -213.826 648.848C-209.117 646.845 -204.273 645.841 -199.303 645.814C-194.336 645.802 -189.489 646.761 -184.765 648.724C-180.041 650.684 -175.648 653.683 -171.571 657.726C-167.601 661.665 -164.618 665.988 -162.619 670.693Z" fill="#15172A"/>
<path d="M51.0684 235.613C52.0926 233.346 51.7191 230.662 50.0405 228.826C48.7314 227.393 46.918 225.846 44.4963 224.648C41.5857 223.208 38.7828 222.758 36.5382 222.708C34.0048 222.65 31.6909 224.129 30.6514 226.439L16.2598 258.414C15.0932 260.997 15.7823 264.05 17.9615 265.86C19.2821 266.957 20.9107 268.077 22.8665 269.036C25.4576 270.303 27.9332 270.953 30.0431 271.273C32.819 271.693 35.5218 270.16 36.6729 267.6L51.0684 235.613ZM60.0699 276.428C56.3623 279.955 52.1773 282.596 47.5379 284.356C45.1393 285.264 42.6714 285.915 40.138 286.292C39.626 286.365 39.1139 286.431 38.5941 286.492C36.7268 286.689 34.8172 286.75 32.869 286.662C27.7446 286.442 22.6317 285.176 17.5226 282.877C12.3596 280.556 8.00131 277.556 4.46693 273.876C3.1271 272.486 1.91432 271.023 0.832443 269.494C0.63224 269.209 0.443588 268.928 0.254929 268.636C-1.262 266.379 -2.50173 263.962 -3.47966 261.39C-5.23915 256.75 -6.03612 251.868 -5.85516 246.756C-5.67421 241.647 -4.42293 236.514 -2.09747 231.344C0.227982 226.181 3.24645 221.83 6.95024 218.307C10.6579 214.784 14.8391 212.151 19.4823 210.384C24.1293 208.628 29.0113 207.831 34.1165 208.008C39.2255 208.185 44.3731 209.433 49.5322 211.754C54.7068 214.084 59.0497 217.11 62.5648 220.814C66.0876 224.517 68.7288 228.703 70.496 233.346C72.2516 237.997 73.0524 242.871 72.8753 247.98C72.6944 253.093 71.4277 258.26 69.0715 263.496C66.7768 268.593 63.7776 272.905 60.0699 276.428ZM-203.996 664.802C-205.76 663.051 -208.405 662.458 -210.711 663.385C-212.513 664.109 -214.599 665.264 -216.571 667.109C-218.942 669.33 -220.344 671.798 -221.179 673.881C-222.122 676.233 -221.549 678.921 -219.751 680.703L-194.856 705.398C-192.846 707.396 -189.747 707.823 -187.287 706.418C-185.797 705.563 -184.18 704.435 -182.594 702.937C-180.495 700.959 -179.021 698.864 -177.977 697.001C-176.614 694.548 -177.103 691.483 -179.094 689.505L-203.996 664.802ZM-162.619 670.693C-160.617 675.402 -159.612 680.245 -159.593 685.208C-159.582 687.776 -159.84 690.313 -160.375 692.816C-160.483 693.324 -160.602 693.824 -160.725 694.333C-161.199 696.154 -161.811 697.959 -162.577 699.753C-164.583 704.478 -167.563 708.824 -171.505 712.801C-175.494 716.821 -179.829 719.847 -184.515 721.865C-186.29 722.635 -188.084 723.254 -189.893 723.736C-190.232 723.82 -190.563 723.897 -190.902 723.971C-193.547 724.602 -196.246 724.914 -198.995 724.925C-203.958 724.945 -208.809 723.978 -213.533 722.019C-218.257 720.055 -222.623 717.087 -226.646 713.09C-230.666 709.102 -233.68 704.751 -235.679 700.046C-237.681 695.337 -238.678 690.502 -238.705 685.531C-238.716 680.561 -237.75 675.71 -235.798 670.993C-233.834 666.269 -230.862 661.888 -226.877 657.872C-222.881 653.845 -218.523 650.838 -213.826 648.848C-209.117 646.845 -204.273 645.841 -199.303 645.814C-194.336 645.802 -189.489 646.761 -184.765 648.724C-180.041 650.684 -175.648 653.683 -171.571 657.726C-167.601 661.665 -164.618 665.988 -162.619 670.693Z" fill="#15172A"/>
</g>
</svg>
