<svg width="138" height="125" viewBox="0 0 138 125" fill="none" xmlns="http://www.w3.org/2000/svg">
<g clip-path="url(#clip0_475_1851)">
<path d="M93.1856 7.39785C93.5206 6.50917 93.2034 5.67677 93.1856 4.84733C93.1856 4.38226 93.0552 3.91125 93.0907 3.44914C93.1767 2.3057 94.2202 1.59772 95.2666 2.04206C95.983 2.35796 96.6444 2.78595 97.226 3.30991C99.0669 4.94805 100.356 7.01276 101.524 9.15152C101.972 9.97503 102.381 10.8193 102.855 11.7494C103.398 11.5539 103.896 11.3762 104.391 11.1925C107.993 9.86839 111.725 9.62252 115.513 9.82099C115.749 9.83131 115.983 9.86405 116.213 9.91875C117.348 10.215 117.811 11.2755 117.179 12.2886C116.823 12.803 116.419 13.283 115.973 13.7223C115.175 14.5873 114.342 15.4197 113.554 16.2906C113.26 16.6676 112.99 17.0634 112.748 17.4755C118.872 20.7488 122.906 25.8795 126.209 31.6944C127.217 33.4718 128.094 35.3084 129.105 37.0739C129.833 38.3713 130.643 39.621 131.53 40.8153C132.44 42.0002 133.605 42.9689 135.176 43.2029C135.331 43.2298 135.483 43.2685 135.633 43.3184C137.115 43.7687 137.725 45.0958 136.495 46.3488C134.791 48.0936 133.045 49.791 130.99 51.1092C130.623 51.3188 130.316 51.6199 130.099 51.9833C129.882 52.3467 129.764 52.7599 129.754 53.1828C129.599 55.846 129.132 58.4817 128.361 61.0358C127.175 64.7179 125.551 68.1808 123.2 71.2645C122.607 72.0317 122.459 72.6775 122.788 73.6136C124.163 77.5475 123.505 81.3481 121.789 85.0154C120.167 88.4753 117.781 91.3724 114.923 93.8785C109.263 98.9165 102.225 102.148 94.7123 103.156C93.2313 103.335 91.7378 103.387 90.2479 103.313C89.8245 103.279 89.3996 103.356 89.0156 103.538C88.6316 103.719 88.3021 103.998 88.0602 104.347C85.6242 107.418 82.9478 110.291 80.0564 112.938C76.2175 116.451 72.0881 119.535 67.3718 121.801C63.9173 123.504 60.1612 124.51 56.3176 124.763C51.4233 125.052 46.5677 123.743 42.4829 121.034C39.222 118.922 36.5541 116.181 34.2567 113.053C30.9959 108.58 28.6659 103.633 26.8665 98.4226C24.4239 91.3517 22.9802 84.0615 22.1828 76.6381C21.956 74.6155 21.415 72.6406 20.5791 70.7846C17.0218 62.6858 13.2748 54.661 10.3105 46.3103C9.85099 45.0187 9.83024 45.0513 8.48144 45.0602C6.6791 45.0602 4.87676 45.0434 3.07442 45.0099C2.1851 44.9891 1.33729 44.7521 0.999353 43.7746C0.723666 42.9629 1.12979 42.2609 2.25032 41.5025C2.44597 41.3722 2.65348 41.2596 2.86098 41.1471C8.102 38.2736 11.4577 33.7177 14.1256 28.5485C14.4636 27.8938 14.4221 27.4258 13.9211 26.8778C13.0612 25.9642 12.2583 24.9986 11.517 23.9866C10.8559 23.0564 11.1494 21.9515 12.0624 21.6168C12.4327 21.4946 12.8251 21.4541 13.2126 21.4983C13.8351 21.5635 14.4428 21.7471 15.0594 21.8389C16.5623 22.0611 17.9704 21.9752 19.3133 21.0539C21.7856 19.3743 24.3409 17.8251 26.8309 16.2047C29.991 14.1637 33.148 12.1019 36.6964 10.7748C38.3802 10.1468 40.1292 9.69362 41.8485 9.15744C42.4414 8.97675 42.554 8.69533 42.3791 8.09991C41.8722 6.37587 41.3505 4.65479 40.8969 2.92185C40.6924 2.15166 40.6005 1.30149 41.4631 0.848262C42.4236 0.329864 43.0817 0.948979 43.6923 1.60957C46.7249 4.89769 50.5667 5.9019 54.8265 5.20873C58.532 4.61628 62.1871 3.68316 65.8659 2.91001C70.0819 2.002 74.3685 1.45987 78.6779 1.28964C83.5573 1.12375 87.7578 2.66414 91.2825 6.06483C91.8072 6.56842 92.2251 7.31195 93.1856 7.39785ZM33.9781 47.8714C34.6213 47.6048 35.2765 47.3589 35.9079 47.0627C40.5125 44.8904 45.1142 42.718 49.713 40.5457C50.2017 40.2954 50.7091 40.0835 51.2308 39.9118C52.3691 39.58 53.291 40.3117 53.2258 41.5114C53.1457 42.1593 53.0289 42.8022 52.876 43.4369C53.9165 42.9689 54.6902 42.5956 55.4817 42.2668C56.7801 41.7277 58.0903 41.2122 59.4006 40.6909C60.5863 40.2228 61.5527 40.5931 62.365 41.467C62.7385 41.8669 63.0616 42.3142 63.3995 42.7437C64.4163 44.0382 65.4153 45.3476 66.4558 46.6243C66.7971 46.9657 67.1681 47.276 67.5645 47.5515C67.9439 46.4999 68.2433 45.6201 68.5813 44.7551C69.518 42.3468 70.7215 42.0535 72.5772 43.8664C73.8045 45.0721 74.9665 46.3577 76.0693 47.6789C78.1681 50.1879 80.2016 52.7473 82.33 55.366C82.7184 54.7735 83.0593 54.1811 83.4921 53.6479C83.6123 53.4911 83.7664 53.3635 83.9429 53.2747C84.1194 53.1859 84.3138 53.1382 84.5113 53.135C84.7089 53.1319 84.9047 53.1735 85.0839 53.2566C85.2632 53.3398 85.4213 53.4624 85.5464 53.6153C85.8459 53.973 86.077 54.3826 86.2282 54.8239C86.5661 55.7807 86.8418 56.7642 87.1175 57.7388C87.4821 58.9918 87.8319 60.2478 88.2321 61.646L94.3476 58.8348C94.7651 58.6209 95.1958 58.4339 95.6371 58.2749C95.9006 58.1847 96.1868 58.1856 96.4497 58.2775C96.7125 58.3694 96.9369 58.5469 97.0867 58.7815C97.2312 58.9687 97.3163 59.1949 97.3311 59.4309C97.3459 59.6668 97.2897 59.9018 97.1697 60.1056C96.8525 60.7218 96.4286 61.3172 96.2656 61.9748C95.3763 65.5473 94.5433 69.1317 93.7192 72.719C93.6303 73.107 93.7192 73.5306 93.7192 74.2831C95.0976 72.5057 96.2359 71.0246 97.4039 69.5671C98.231 68.5274 99.2389 67.6002 99.9058 66.4686C100.46 65.5266 101.154 65.0882 102.138 65.023C104.246 64.8867 106.362 64.6646 108.467 64.7268C112.914 64.866 116.936 66.2079 120.182 69.4042C120.385 69.5672 120.604 69.7101 120.834 69.8308C123.748 66.0139 125.744 61.5787 126.668 56.8679C126.964 55.25 127.173 53.6174 127.294 51.9771C127.397 50.7093 127.774 49.8265 129.031 49.2015C130.738 48.3686 132.223 47.1433 133.365 45.626C130.495 44.3078 128.731 42.0387 127.285 39.4704C126.825 38.6499 126.41 37.8056 125.951 36.9851C124.685 34.7308 123.511 32.4202 122.121 30.2459C119.219 25.7106 115.896 21.5842 110.696 19.4395C110.062 19.1788 109.783 18.6486 109.724 17.9584C109.67 17.6091 109.688 17.2523 109.779 16.9107C109.87 16.569 110.031 16.2499 110.252 15.9736C110.963 15.1412 111.698 14.3266 112.398 13.4824C112.62 13.1503 112.818 12.8028 112.991 12.4426C109.588 12.4426 106.508 12.6796 103.715 14.4481C102.423 15.2686 101.344 14.8717 100.594 13.5209C100.368 13.1091 100.202 12.6648 99.977 12.253C99.0669 10.6119 98.1628 8.96786 97.2201 7.34453C97.0037 6.97425 96.6421 6.69283 96.0877 6.08557C96.0344 6.91796 96.0225 7.35342 95.9721 7.78295C95.8845 8.95222 95.7351 10.116 95.5245 11.2695C95.2636 12.4308 94.3002 12.7122 93.399 11.9657C92.8565 11.5184 92.3882 10.9852 91.8753 10.4845C90.6896 9.35295 89.5216 8.17989 88.2736 7.11051C85.7924 4.9836 82.8844 4.02382 79.6176 4.01493C75.7743 4.0369 71.9428 4.44478 68.1811 5.23243C64.8046 5.90783 61.4519 6.71357 58.1022 7.46006C53.706 8.43465 49.3958 8.47612 45.2724 6.32255C45.1271 6.24849 44.884 6.36402 44.6617 6.39364C44.7062 7.47191 45.2546 8.24506 45.7852 9.00637C46.3158 9.76767 46.0668 10.6415 45.1004 11.1481C44.6753 11.3432 44.2239 11.4749 43.7605 11.5391C40.2797 12.1408 36.9303 13.3437 33.8625 15.0938C29.3951 17.7303 24.9812 20.4319 20.665 23.2756C19.417 24.0992 18.2402 24.6146 16.7936 24.6413C16.4408 24.6413 16.091 24.7212 15.51 24.7923C15.7529 25.0842 16.0133 25.3612 16.2896 25.6218C17.7244 26.7622 17.7955 26.9222 17.0011 28.507C16.2985 29.9052 15.5396 31.2797 14.7689 32.6542C12.9165 36.0334 10.4081 39.0093 7.39055 41.4077C7.1623 41.5855 6.95183 41.7899 6.53088 42.1602C6.90302 42.2442 7.28032 42.3036 7.66031 42.3379C8.52295 42.3201 9.38262 42.2431 10.2452 42.2342C11.5081 42.2342 11.8164 42.5067 12.2166 43.7716C12.6168 45.0365 12.9754 46.3281 13.4942 47.5456C15.8657 53.091 18.2787 58.6126 20.6739 64.1343C20.7599 64.3298 20.8251 64.5342 20.8992 64.7268C21.2412 61.2097 21.358 57.6745 21.249 54.1426C21.2107 53.5981 21.3029 53.0523 21.5179 52.5505C21.7328 52.0487 22.0644 51.6054 22.4852 51.2573C25.2045 48.8875 27.9228 46.5177 30.6402 44.1478C30.8771 43.9422 31.1332 43.7597 31.405 43.6028C32.6204 42.9185 33.8269 43.5702 33.8654 44.9891C33.8457 45.8487 33.7745 46.7064 33.652 47.5574V48.1499L33.9781 47.8714ZM30.5839 47.7263C28.3843 49.1482 26.7628 50.8663 24.9515 52.3563C24.2015 52.9725 23.9911 53.6953 24.0029 54.6195C24.0355 57.2855 23.9674 59.9516 24.0029 62.6176C24.1393 71.1786 24.9752 79.6685 26.8221 88.0428C28.1738 94.1866 30.0651 100.147 32.9672 105.748C35.1846 110.032 37.9088 113.945 41.6736 117.032C47.1103 121.49 53.2495 123.054 60.1565 121.428C65.1396 120.258 69.5032 117.855 73.5525 114.825C78.2303 111.326 82.2411 107.144 85.9229 102.632C86.4179 102.025 86.907 101.409 87.4317 100.828C87.6053 100.612 87.8372 100.451 88.0999 100.362C88.3626 100.274 88.6451 100.263 88.9139 100.33C91.4989 100.923 94.066 100.576 96.6035 100.034C104.281 98.4167 110.833 94.779 116.008 88.8486C118.045 86.5202 119.592 83.8956 120.363 80.8712C121.744 75.4413 119.414 70.7994 114.242 68.6636C113.585 68.4077 112.913 68.1892 112.232 68.009C109.78 67.3099 107.275 67.4165 104.759 67.4521C104.099 67.4379 103.446 67.5797 102.852 67.866C102.258 68.1522 101.74 68.5747 101.341 69.0991C98.4592 72.5235 95.7261 76.0515 93.4109 79.8877C93.0709 80.502 92.6578 81.0729 92.1807 81.588C92.0128 81.7531 91.8033 81.8695 91.5745 81.9249C91.3456 81.9804 91.106 81.9727 90.8812 81.9028C90.6564 81.8328 90.4547 81.7033 90.2978 81.5279C90.1408 81.3524 90.0345 81.1378 89.99 80.9067C89.9227 80.6005 89.8998 80.2863 89.9218 79.9736C89.9811 79.1145 90.0285 78.2525 90.1619 77.4023C90.886 72.9991 91.8399 68.6366 93.0196 64.3328C93.1678 63.7611 93.2034 63.1479 93.316 62.3332C92.2874 62.8161 91.5137 63.1716 90.7459 63.5448C90.2509 63.7848 89.7795 64.0662 89.2845 64.3002C87.2479 65.2718 86.3408 64.863 85.6353 62.6502C85.4456 62.0578 85.3122 61.4386 85.1403 60.8373C84.9298 60.1175 84.7075 59.4036 84.5059 58.74C84.2806 58.74 84.1798 58.7104 84.1324 58.74C82.2619 60.1619 81.7164 60.1323 80.6492 58.2868C78.1503 53.9767 74.7738 50.3657 71.4952 46.6747C71.4152 46.5828 71.2255 46.5917 70.9409 46.5147C70.8105 46.8405 70.68 47.1842 70.5407 47.5248C70.2514 48.3325 69.9179 49.1236 69.5417 49.8947C68.7413 51.358 67.4667 51.5713 66.2424 50.4871C65.7816 50.061 65.3572 49.5973 64.9736 49.1008C63.696 47.513 62.442 45.9074 61.1733 44.3137C60.3344 43.2621 60.1861 43.1851 58.9974 43.7035C56.703 44.7077 54.4323 45.7771 52.1527 46.8109C51.5094 47.1072 50.8691 47.4034 50.208 47.6433C49.9141 47.7621 49.5914 47.7904 49.2813 47.7244C48.9712 47.6584 48.6879 47.5012 48.4679 47.273C47.9403 46.7665 47.9462 46.1711 48.1715 45.5401C48.3464 45.081 48.7851 44.7018 48.714 44.0116C48.1448 44.2308 47.7061 44.3671 47.297 44.5655C43.2833 46.5206 39.2715 48.4817 35.2616 50.4486C34.4879 50.8248 33.7142 51.204 32.9346 51.5713C31.0137 52.4866 29.742 50.9551 30.2133 49.2696C30.3615 48.843 30.4386 48.3957 30.5839 47.7263Z" fill="#1A1A1A"/>
<path d="M34.7162 66.8149C35.3091 64.531 35.8012 62.5048 36.3436 60.4874C36.5702 59.577 36.8675 58.6856 37.233 57.8214C37.7666 56.6098 39.0887 56.4884 39.8416 57.5637C40.1332 58.0232 40.3578 58.522 40.5086 59.0448C41.143 60.9733 41.7477 62.9165 42.3702 64.8479C42.5125 65.2834 42.6904 65.704 42.9364 66.3498C43.301 65.9262 43.5056 65.6418 43.7576 65.4048C44.9433 64.2703 46.0283 64.4243 46.7219 65.858C47.0332 66.486 47.2437 67.1644 47.4927 67.822C47.6231 68.1745 47.7358 68.5359 47.9018 69.0069C48.1875 68.8469 48.4848 68.7082 48.7911 68.5922C49.9057 68.296 50.463 68.4115 50.9995 69.3358C51.5281 70.2841 51.9763 71.275 52.3394 72.298C52.4425 72.5569 52.4533 72.8432 52.3702 73.1091C52.2871 73.375 52.1151 73.6042 51.8829 73.7584C51.6759 73.9403 51.4073 74.0363 51.1318 74.0269C50.8564 74.0176 50.5949 73.9035 50.4007 73.7081C49.8642 73.2341 49.6567 73.3852 49.2298 73.9391C48.3109 75.124 47.1192 74.9582 46.5293 73.5688C45.9838 72.2832 45.5925 70.9295 45.0737 69.4217C44.811 70.0169 44.5141 70.5965 44.1844 71.1576C43.3574 72.3869 42.0501 72.301 41.4483 70.9798C41.2458 70.471 41.0736 69.9507 40.9325 69.4217L38.8308 62.718C38.5869 63.2151 38.3759 63.7277 38.1994 64.2525C37.8377 65.6951 37.5264 67.1466 37.1915 68.5922C37.0552 69.2827 36.884 69.9659 36.6786 70.6392C36.1569 72.1618 34.9534 72.3751 33.8595 71.1605C33.6135 70.888 33.3911 70.5888 32.9405 70.0349C32.816 71.125 32.7271 71.8892 32.6441 72.6535C32.5967 73.1186 32.6056 73.5955 32.5166 74.0517C32.4622 74.3215 32.3174 74.5646 32.1062 74.7412C31.895 74.9178 31.6299 75.0173 31.3546 75.0233C31.0802 74.9981 30.8219 74.8827 30.6202 74.6951C30.4185 74.5074 30.2848 74.2582 30.24 73.9865C30.1778 73.5212 30.1629 73.0508 30.1955 72.5824C30.3349 70.4762 30.492 68.3701 30.652 66.2639C30.664 66.0294 30.7018 65.7969 30.7647 65.5707C31.1412 64.3354 32.4455 63.9948 33.3318 64.9309C33.8253 65.5347 34.2874 66.1636 34.7162 66.8149Z" fill="#1A1A1A"/>
<path d="M59.2822 88.2351C60.0048 88.2449 60.7263 88.2953 61.4432 88.3862C62.5786 88.5994 63.0736 89.6066 62.3325 90.4597C61.7397 91.1322 61.6685 91.8017 61.5974 92.5837C61.3009 95.937 61.0341 99.2962 60.6043 102.632C60.4057 104.166 59.8869 105.665 59.4393 107.158C59.2428 107.753 58.9569 108.314 58.5915 108.823C56.9314 111.249 54.053 111.338 52.3456 108.924C51.6719 107.965 51.1935 106.883 50.9375 105.739C49.9458 101.309 49.2693 96.8135 48.9128 92.2875C48.895 92.0534 48.8565 91.8224 48.8535 91.5884C48.8535 90.5071 49.0462 90.1635 50.0926 89.9088C51.8386 89.4852 53.5995 89.103 55.3692 88.7831C56.7595 88.5195 58.1646 88.3832 59.2822 88.2351ZM51.4236 92.1779C51.5481 93.3065 51.6045 94.3077 51.7734 95.2912C52.31 98.449 52.8436 101.61 53.4779 104.75C53.6914 105.653 54.0638 106.512 54.5777 107.285C55.1113 108.133 55.9236 108.059 56.4245 107.182C57.2554 105.668 57.765 103.999 57.9216 102.279C58.1765 100.025 58.4462 97.7736 58.6656 95.5163C58.8079 94.0589 58.9917 92.5955 58.8079 91.0729C56.1815 90.9337 53.8781 91.6298 51.4236 92.1779Z" fill="#1A1A1A"/>
<path d="M72.4971 59.107C72.5698 59.1365 72.6453 59.1583 72.7224 59.1722C74.5959 59.2137 74.8568 59.3766 75.34 61.0947C75.8232 62.8128 76.25 64.5695 76.7036 66.3113C76.917 67.1377 77.1364 67.9613 77.4091 69.004C77.7381 68.5863 78.002 68.3167 78.1769 68.0146C78.4288 67.6206 78.5919 67.1644 78.8705 66.7941C79.5701 65.864 80.8567 65.8462 81.4318 66.8297C82.2838 68.328 82.8082 69.9899 82.9703 71.7056C82.9751 71.8615 82.952 72.017 82.9021 72.1647C82.6975 72.9734 81.6422 73.3496 81.0434 72.7779C80.6106 72.3632 80.3112 71.8063 79.8577 71.1605C79.5612 71.6819 79.3182 72.1233 79.0484 72.5439C78.7893 73.0222 78.4738 73.4677 78.1087 73.871C77.9489 74.0168 77.7575 74.1237 77.5496 74.1835C77.3416 74.2432 77.1227 74.2542 76.9098 74.2155C76.6969 74.1768 76.4958 74.0895 76.3222 73.9603C76.1487 73.8312 76.0073 73.6638 75.9091 73.4711C75.6756 72.9767 75.4938 72.4595 75.3666 71.9277C74.8746 70.1208 74.4151 68.3019 73.926 66.492C73.7866 65.9736 73.5939 65.47 73.3331 64.6702C72.2096 66.8919 71.5989 69.0188 70.7659 71.0509C70.5707 71.6438 70.34 72.2245 70.0752 72.7898C69.4823 73.8562 68.347 73.9539 67.5733 73.0297C67.1316 72.5024 66.7581 71.9218 66.3223 71.3234C65.4953 72.1914 65.4745 73.24 65.1069 74.1435C64.7927 74.9078 64.3599 75.2248 63.7315 75.1211C63.5557 75.0942 63.3878 75.0297 63.2393 74.9319C63.0908 74.8342 62.9652 74.7055 62.8711 74.5546C62.7771 74.4038 62.7168 74.2345 62.6944 74.0582C62.672 73.8819 62.688 73.7028 62.7413 73.5333C63.348 71.6834 64.0475 69.8653 64.8372 68.0857C65.2344 67.197 66.2838 67.114 67.0427 67.7569C67.4743 68.1651 67.8783 68.6015 68.2521 69.0632C68.9132 68.8677 68.8835 68.3167 69.0436 67.9376C70.2531 65.0701 71.4151 62.1848 72.6009 59.2996C72.6246 59.2403 72.5712 59.1515 72.5534 59.0744L72.4971 59.107Z" fill="#1A1A1A"/>
<path d="M106.828 77.4791C109.016 81.5818 109.117 85.6549 108.269 89.8199C108.154 90.3524 107.923 90.853 107.593 91.2862C107.421 91.5036 107.178 91.6529 106.906 91.7071C106.635 91.7614 106.353 91.7172 106.111 91.5824C105.89 91.4945 105.706 91.3351 105.587 91.1299C105.468 90.9247 105.422 90.6856 105.456 90.4509C105.506 89.9871 105.59 89.5277 105.708 89.0764C106.215 86.7772 106.264 84.4007 105.853 82.0824C105.666 80.9597 105.476 79.7541 104.391 78.9128C102.112 80.3022 100.214 82.2364 98.8687 84.5411C98.6316 84.9381 98.4537 85.4505 98.098 85.6846C97.9228 85.8297 97.7089 85.9204 97.4826 85.9454C97.2564 85.9705 97.0278 85.9287 96.8251 85.8254C96.6223 85.722 96.4543 85.5616 96.3418 85.3639C96.2293 85.1662 96.1772 84.9399 96.1919 84.7129C96.2049 84.2412 96.3633 83.785 96.6454 83.4066C97.5348 82.1269 98.3648 80.7761 99.432 79.6534C102.814 76.0986 106.985 73.8917 111.779 72.8698C112.393 72.7522 113.019 72.7114 113.643 72.7483C113.921 72.7669 114.185 72.879 114.391 73.0664C114.597 73.2538 114.733 73.5054 114.778 73.7802C114.823 74.055 114.773 74.3369 114.637 74.5798C114.501 74.8228 114.286 75.0125 114.029 75.1181C113.517 75.3032 112.993 75.4517 112.46 75.5625C111.257 75.8942 110.041 76.1905 108.856 76.5726C108.163 76.8365 107.486 77.1391 106.828 77.4791Z" fill="#1A1A1A"/>
<path d="M83.8687 77.5739C83.4418 81.0723 82.2709 84.4197 79.6237 87.1124C76.1317 90.6671 71.196 90.9219 67.3541 87.6634C64.5321 85.2728 63.1121 82.1002 62.3147 78.5929C62.2529 78.2865 62.2641 77.9699 62.3473 77.6687C62.5015 77.094 62.9224 76.6467 63.5034 76.6822C63.9552 76.7438 64.3676 76.972 64.6595 77.3221C64.9352 77.6627 64.956 78.19 65.1309 78.6255C65.6348 79.9378 66.0528 81.2915 66.699 82.5386C67.2113 83.508 67.877 84.3883 68.6703 85.1454C71.8985 88.2351 75.5714 87.7848 78.2838 84.5678C79.7838 82.7904 80.5604 80.6576 80.9932 78.3944C81.1089 77.7812 81.1533 77.1503 81.3075 76.546C81.5298 75.6573 82.1019 75.2396 82.7897 75.361C83.4774 75.4825 83.8657 76.0068 83.8954 76.931C83.8746 77.088 83.8687 77.2451 83.8687 77.5739Z" fill="#1A1A1A"/>
<path d="M42.0205 89.6599C39.7532 89.6889 37.5485 88.9167 35.7953 87.4797C32.6827 84.9795 31.2925 81.57 30.7559 77.7309C30.7295 77.4207 30.7658 77.1084 30.8626 76.8126C30.9156 76.5812 31.0399 76.3724 31.2181 76.2156C31.3963 76.0588 31.6194 75.9619 31.8557 75.9387C32.4486 75.8705 32.9822 76.0364 33.2193 76.617C33.3611 77.0588 33.4604 77.5131 33.5157 77.9738C33.8893 79.8252 34.3754 81.6499 35.5286 83.1814C36.167 84.0659 36.9252 84.8575 37.7815 85.5335C40.4287 87.5093 43.6747 87.3316 46.1974 85.1928C48.1983 83.4954 49.2032 81.2412 49.7991 78.7558C49.8821 78.2185 49.9959 77.6864 50.14 77.1621C50.2245 76.8971 50.3968 76.6689 50.6285 76.5149C50.8602 76.3608 51.1375 76.2903 51.4147 76.3149C51.7293 76.3396 52.0253 76.4737 52.2512 76.694C52.4771 76.9143 52.6185 77.2068 52.6508 77.5205C52.6879 77.8309 52.6819 78.1449 52.633 78.4537C52.0935 81.5226 50.9522 84.3071 48.726 86.5644C46.8317 88.481 44.5551 89.5503 42.0205 89.6599Z" fill="#1A1A1A"/>
<path d="M44.1786 54.3141C44.3683 54.4 44.7951 54.474 45.0353 54.7258C45.3264 55.0928 45.5648 55.4986 45.7437 55.9315C47.6463 59.7326 50.3943 63.0482 53.7772 65.624C54.1023 65.8446 54.4008 66.102 54.6665 66.3913C54.9867 66.7734 55.1468 67.2799 54.7436 67.665C54.3996 67.9489 53.9844 68.1333 53.543 68.1982C53.2762 68.2427 52.9501 68.0294 52.6774 67.8783C52.3394 67.6801 52.0164 67.4573 51.711 67.2118C48.3075 64.5381 45.5056 61.178 43.4879 57.3504C43.2024 56.7982 43.0025 56.2059 42.895 55.5938C42.7616 54.9598 43.3456 54.3733 44.1786 54.3141Z" fill="#1A1A1A"/>
<path d="M72.5297 59.0744C72.3282 59.0478 72.0406 58.9263 71.9369 59.0152C71.4771 59.4342 71.0388 59.8761 70.6237 60.3393C68.2345 62.9214 65.6281 65.294 62.8333 67.431C62.1479 67.945 61.4199 68.3999 60.6574 68.7907C60.1446 69.0603 59.5843 68.8085 59.2464 68.3019C59.0875 68.0749 59.0201 67.7964 59.0574 67.522C59.0948 67.2475 59.2342 66.9972 59.4479 66.8208C59.6826 66.6156 59.9301 66.4257 60.189 66.252C63.4622 63.8405 66.4621 61.0791 69.1355 58.0169C69.5364 57.538 69.9618 57.0802 70.4102 56.6454C70.6289 56.4184 70.9173 56.2712 71.2295 56.2272C71.5416 56.1832 71.8595 56.2449 72.1325 56.4025C72.6424 56.7579 72.7076 57.2734 72.6039 57.8569C72.5297 58.2657 71.9784 58.6449 72.4942 59.107L72.5297 59.0744Z" fill="#1A1A1A"/>
</g>
<defs>
<clipPath id="clip0_475_1851">
<rect width="136.231" height="124.146" fill="white" transform="translate(0.922852 0.643494)"/>
</clipPath>
</defs>
</svg>
