<svg width="152" height="115" viewBox="0 0 152 115" fill="none" xmlns="http://www.w3.org/2000/svg">
<g clip-path="url(#clip0_475_1863)">
<path d="M100.022 97.3804C103.995 96.8247 107.948 96.1225 111.967 95.9894C112.205 95.9894 112.438 95.9129 112.672 95.9129C113.265 95.9269 113.849 95.7669 114.352 95.4527C114.855 95.1386 115.254 94.6841 115.5 94.1458C116.168 92.9012 116.899 91.6932 117.6 90.4653C118.081 89.62 118.635 88.8247 119.74 88.8746C120.845 88.9245 121.362 89.7432 121.743 90.6283C122.06 91.3438 122.317 92.0859 122.611 92.8114C122.975 93.6999 123.102 93.7698 124.01 93.6533C126.347 93.3571 128.684 93.0709 131.021 92.7681C135.872 92.1647 140.756 91.8657 145.645 91.8729H147.494C147.2 91.2972 147.03 90.8746 146.79 90.5019C145.608 88.6483 144.453 86.7715 143.197 84.9745C140.029 80.452 138.991 75.4204 139.388 69.9994C139.508 68.3555 139.597 66.7105 139.655 65.0643C139.762 61.9063 139.505 58.7915 138.51 55.7665C138.46 55.6201 138.4 55.4737 138.36 55.3206C138.116 54.3755 138.336 53.8231 139.027 53.5935C139.718 53.3639 140.303 53.68 140.697 54.5286C140.96 55.0981 141.169 55.6908 141.321 56.299C141.97 58.6475 142.307 61.0709 142.323 63.5069C142.293 65.4703 142.226 67.4304 142.176 69.3905C142.149 70.4886 142.116 71.5868 142.112 72.685C142.068 76.2416 143.095 79.7297 145.06 82.6982C146.73 85.254 148.376 87.8463 150.028 90.4254C150.425 91.0102 150.791 91.6156 151.123 92.239C151.891 93.7764 151.34 94.645 149.634 94.655C146.723 94.655 143.808 94.655 140.897 94.7215C135.305 94.8646 129.749 95.4669 124.204 96.1392L123.97 96.1691C123.302 96.2523 122.634 96.8147 121.927 96.3854C121.113 95.8903 120.498 95.1277 120.187 94.229C120.06 93.8796 119.897 93.5435 119.643 92.9478C119.353 93.2665 119.078 93.5997 118.822 93.9461C118.488 94.4753 118.174 95.021 117.874 95.5734C116.815 97.5302 115.249 98.5352 112.952 98.6416C109.023 98.8247 105.097 99.1142 101.22 99.8629C100.913 99.9228 100.599 99.9594 100.289 100.003C98.0186 100.309 96.2491 101.251 94.8502 103.221C92.9805 105.85 90.5466 108.006 87.9124 109.903C80.0732 115.54 71.7233 116.339 62.9459 112.379C61.0332 111.461 59.1869 110.411 57.4204 109.237C56.5795 108.655 55.5522 108.402 54.5358 108.528C49.3643 109.174 44.2862 110.192 39.5386 112.419C37.8693 113.197 36.8042 112.695 36.0397 110.911C35.7926 110.339 35.6724 109.713 35.4788 109.118C35.3085 108.595 35.1149 108.083 34.8645 107.377C34.5306 107.943 34.2368 108.375 34.0098 108.821C33.5223 109.82 33.0082 110.785 32.6175 111.816C32.1935 112.888 31.4557 113.48 30.3272 113.553C28.7622 113.713 27.1895 113.786 25.6164 113.773C20.979 113.58 16.3349 113.37 11.7075 113.001C8.49906 112.745 5.31064 112.222 2.11554 111.796C1.80259 111.777 1.4999 111.678 1.2363 111.508C0.972698 111.339 0.756978 111.105 0.609695 110.829C0.462411 110.553 0.388471 110.245 0.39492 109.932C0.401368 109.62 0.487991 109.314 0.646534 109.044C0.972755 108.505 1.34115 107.992 1.74829 107.51C2.79997 106.043 3.94847 104.638 4.88329 103.101C7.96154 98.026 8.94978 92.5917 7.26042 86.8347C6.53593 84.3588 5.81144 81.823 4.64291 79.5435C1.82174 74.046 1.66816 68.4454 3.19059 62.6151C4.15176 58.812 5.39607 55.0857 6.9132 51.467C9.56076 45.2574 12.3485 39.1276 15.1029 32.9679C15.3879 32.3272 15.7488 31.7228 16.178 31.1676C16.3234 30.982 16.5314 30.8552 16.7633 30.8105C16.9953 30.7659 17.2357 30.8064 17.44 30.9246C17.6644 31.0093 17.8508 31.1714 17.9654 31.3815C18.0799 31.5916 18.115 31.8357 18.0643 32.0694C17.8856 32.7468 17.6499 33.4081 17.3599 34.0461C14.5788 40.5985 11.7342 47.1576 8.98317 53.7432C7.4516 57.3583 6.2927 61.1191 5.52432 64.9678C5.28393 66.1991 5.10698 67.4437 4.99013 68.6916C4.77006 71.2038 5.17605 73.7312 6.17202 76.0493C7.40732 79.0144 8.63929 81.9928 9.64088 85.0344C11.2905 89.8385 11.241 95.0607 9.50066 99.833C8.50288 102.565 7.09093 105.128 5.31398 107.434C4.89331 107.983 4.50602 108.552 3.95515 109.317C4.61906 109.506 5.29351 109.656 5.97504 109.766C9.26362 110.099 12.5522 110.432 15.8508 110.648C19.2295 110.858 22.6149 110.908 26.0003 111.024C26.5512 111.041 27.1021 111.041 27.6696 111.024C30.217 110.948 30.2237 110.948 31.3054 108.545C31.7896 107.474 32.247 106.389 32.7144 105.307C32.9013 104.875 33.0482 104.429 33.2753 104.013C33.6492 103.301 34.0866 102.632 35.0414 102.702C35.8594 102.758 36.2867 103.311 36.5605 103.996C36.8944 104.798 37.1748 105.61 37.4553 106.425C37.8359 107.53 38.1931 108.645 38.5871 109.84C40.9742 109.044 43.2612 108.176 45.5749 107.533C47.8418 106.898 50.1655 106.469 52.6094 105.913C52.5226 105.644 52.393 105.391 52.2255 105.164C46.0556 99.5668 41.1345 92.9678 36.8209 85.9062C35.8761 84.3621 35.0381 83.5768 32.9915 83.7864C28.698 84.219 24.9787 82.422 21.7135 79.7931C17.5869 76.4653 14.8826 72.2257 14.0145 66.9579C13.4336 63.5036 13.9044 60.1991 16.1045 57.3505C18.6619 54.0627 22.1675 53.0244 26.1739 53.4537C27.3358 53.5802 28.4676 53.9862 29.6127 54.259C30.3639 54.4387 31.1151 54.6351 31.8764 54.7815C32.7878 54.9579 33.0415 55.1575 33.2118 56.1426C33.519 57.9995 33.736 59.873 34.0966 61.7199C34.5273 63.9529 35.0548 66.1658 35.5789 68.3755C35.6557 68.7083 35.9395 68.9811 36.2801 69.5336C37.5821 62.046 40.3232 55.4038 43.5517 48.9346C44.7135 46.6051 44.7369 46.1692 47.6682 47.3373C49.9982 48.3242 52.5328 48.7363 55.0567 48.5386C56.0583 48.4421 57.0599 48.2358 58.0882 48.076C57.8111 46.0794 57.4572 44.2358 57.3236 42.3855C57.214 40.5837 57.2062 38.7772 57.3003 36.9745C57.4184 33.4423 57.8904 29.9307 58.7092 26.492C58.9011 25.733 59.1419 24.9872 59.4303 24.2591C59.5987 23.7253 59.957 23.2713 60.4379 22.9826C60.9188 22.6939 61.489 22.5904 62.0411 22.6917C63.1295 22.8305 64.1968 23.1009 65.2196 23.497C68.2243 24.6884 70.5614 26.7516 72.4912 29.3073C73.0354 30.0228 73.2824 31.0311 74.3074 31.3273C74.8683 30.695 75.4125 30.0461 75.9767 29.4338C77.5926 27.7233 79.1718 25.9696 80.8712 24.339C82.2801 22.9846 83.5421 23.1909 84.5203 24.8448C85.5487 26.5653 85.9226 28.5053 86.0628 30.4687C86.2431 33.0012 85.8391 35.4604 85.3283 37.9363V38.6518L85.8057 38.3589C86.6104 37.7399 87.4216 37.1243 88.2196 36.4953C88.5902 36.2058 88.9174 35.8498 89.3113 35.6002C89.5396 35.4421 89.8072 35.3496 90.0846 35.3329C90.3621 35.3162 90.6389 35.3759 90.8846 35.5054C91.1304 35.6349 91.3356 35.8293 91.478 36.0673C91.6204 36.3053 91.6943 36.5777 91.6918 36.8547C91.6942 37.3235 91.6381 37.7908 91.5249 38.2458C90.9142 41.0066 89.9173 43.6683 88.5635 46.1526C88.2463 46.7449 87.6787 47.2873 87.9391 48.1492C89.6385 48.4587 91.3512 48.1492 93.0506 47.9562C94.3821 47.8249 95.6953 47.5492 96.9669 47.1343C98.733 46.5419 99.758 46.9512 100.906 48.7183C101.576 49.7802 102.119 50.9159 102.526 52.1026C103.556 54.9204 104.071 57.8991 104.048 60.898C104.048 61.9163 104.048 62.9346 104.048 64.0693C104.299 63.8896 104.542 63.8064 104.622 63.6434C106.227 60.3982 107.178 56.8707 107.42 53.2607C107.595 51.3008 107.356 49.326 106.719 47.4637C106.222 46.1326 106.442 45.7998 107.824 45.1609C108.609 44.7982 109.363 44.3722 110.161 44.0195C112.979 42.7649 115.917 42.3123 118.909 43.1509C123.76 44.5153 126.36 47.9995 127.162 52.7649C128.25 59.2607 126.053 64.8381 121.703 69.6134C118.682 72.9412 114.936 74.9612 110.368 75.1974C109.397 75.2473 109.016 75.6334 108.729 76.5019C107.113 81.5027 105.103 86.3686 102.719 91.0543C101.718 93.0044 100.646 94.9245 99.6077 96.858C99.5443 97.041 99.4842 97.2207 99.4241 97.4037L100.022 97.3804ZM109.263 57.4471C109.263 57.7199 109.263 57.9928 109.263 58.2657C109.107 58.6054 108.979 58.9571 108.879 59.3173C108.779 59.8464 108.859 60.4254 108.689 60.9246C107.16 65.4936 104.936 69.6833 101.698 73.2939C101.284 73.7613 100.814 74.176 100.299 74.5285C100.017 74.7503 99.6617 74.8571 99.304 74.8274C98.9464 74.7978 98.6134 74.6339 98.3725 74.3688C97.855 73.8264 97.9284 73.2374 98.289 72.655C99.4175 70.8414 100.025 68.8181 100.669 66.8081C101.053 65.7532 101.037 65.7499 100.906 64.9146L99.788 66.888C98.7631 67.7365 97.8182 67.65 96.8701 66.7149C96.3031 66.1712 95.696 65.6706 95.0538 65.2174C91.5315 62.6717 87.642 61.5169 83.2784 62.1426C81.2151 62.4354 79.3721 63.264 77.6026 64.3089C77.0841 64.6417 76.5225 64.9025 75.9333 65.0843C75.289 65.2574 74.5378 64.7049 74.5978 64.1059C74.6746 63.1076 74.6212 62.0827 75.4091 61.254C79.2453 57.1975 83.8459 55.0544 89.525 55.6334C90.2271 55.7164 90.9145 55.8944 91.5683 56.1625C92.3729 56.472 92.7401 57.2075 92.5198 57.8264C92.2694 58.5186 91.6551 58.8414 90.8137 58.6916C90.1193 58.5685 89.4315 58.3988 88.7371 58.2757C86.7339 57.9429 84.8843 58.3522 83.0614 59.2041C85.7156 59.2374 88.3531 59.2041 90.9072 60.0327C93.5514 60.9046 95.8584 62.3622 98.1554 64.0826C98.4159 63.5968 98.6195 63.1975 98.8399 62.8048C98.9609 62.555 99.1653 62.3549 99.4181 62.239C99.6709 62.123 99.9563 62.0983 100.225 62.1692C100.559 62.2291 100.87 62.3223 101.31 62.4254C101.447 59.3905 101.31 56.5918 100.399 53.873C100.032 52.7582 99.6074 51.663 99.127 50.5918C98.703 49.6534 98.5427 49.66 97.4944 49.8264C95.9486 50.0694 94.3928 50.2624 92.8403 50.4754L85.7456 50.3822C83.8994 48.5619 84.0029 48.7183 85.2515 46.4288C86.153 44.7815 86.9409 43.0677 87.7555 41.3739C87.8757 41.1243 87.8657 40.8115 87.9959 40.0627C85.9092 41.8997 83.7091 42.8348 82.1098 44.6085C81.6591 45.111 81.1082 45.3439 80.4205 45.0045C79.489 44.5453 79.1384 43.5602 79.8663 42.695C81.8394 40.3656 82.6741 37.5369 83.1849 34.4621C81.0419 34.2116 78.8733 34.2823 76.7513 34.6717C74.8983 35.0045 73.0788 35.2374 71.149 34.9646C67.8642 34.5475 64.54 34.5397 61.2532 34.9413C60.2984 35.0444 60.1949 35.1742 60.0713 36.0827C60.0313 36.3922 60.0179 36.7083 59.9879 37.0211C59.6347 40.4612 59.8707 43.9361 60.6857 47.2973C61.2132 49.3672 60.8659 49.9595 58.806 50.5719C56.746 51.1842 54.646 51.5236 52.516 51.1209C50.3859 50.7183 48.2692 50.1692 46.0356 49.6634C45.4881 50.8281 44.9071 52.0228 44.3663 53.2341C42.2104 57.9437 40.5446 62.8613 39.395 67.9096C39.0979 69.2407 39.0344 70.3555 40.607 70.9046C40.953 71.0856 41.2749 71.3092 41.5652 71.5702C44.2361 68.4154 47.3911 66.1192 50.9434 64.2823C50.4225 64.2304 49.8968 64.2494 49.381 64.3389C48.76 64.4454 48.1557 64.6717 47.5347 64.7116C47.0639 64.7482 46.5331 64.5685 46.4529 64.0161C46.4062 63.6001 46.473 62.9645 46.7434 62.7582C47.3068 62.3362 47.9584 62.0461 48.6498 61.9096C51.2072 61.4104 53.8013 61.091 56.3955 61.457C58.2545 61.7658 60.0965 62.169 61.9143 62.665C62.3781 62.7711 62.8085 62.9894 63.1678 63.3004C63.527 63.6115 63.804 64.0058 63.9742 64.4487C64.0685 64.6631 64.1045 64.8985 64.0783 65.1312C64.0522 65.3638 63.965 65.5855 63.8255 65.7739C63.686 65.9622 63.4991 66.1105 63.2837 66.2039C63.0683 66.2972 62.832 66.3323 62.5987 66.3056C62.2123 66.2373 61.8348 66.1256 61.4736 65.9728C60.1298 65.4641 58.6746 65.3206 57.2568 65.5569C55.7787 65.7764 54.3252 66.1375 52.9166 66.6351C49.7406 67.8461 46.8853 69.7666 44.5699 72.249C44.0792 72.7582 43.6184 73.3006 43.0842 73.7632C42.1027 74.6151 41.6687 74.645 40.5402 74.0394C40.006 73.7499 39.4885 73.4304 38.8709 73.0677C38.6766 74.441 38.7583 75.8392 39.1112 77.1808C39.2432 77.6318 39.3458 78.0909 39.4184 78.5552C39.4792 78.8259 39.4495 79.1091 39.3338 79.3615C39.218 79.6138 39.0226 79.8215 38.7774 79.9528C38.4957 80.098 38.1714 80.1386 37.8625 80.0672C37.5536 79.9959 37.2803 79.8173 37.0913 79.5635C36.6981 79.0738 36.3714 78.5344 36.1198 77.9595C35.2751 75.853 34.4939 73.7166 33.6625 71.6034C33.5323 71.2706 33.2953 70.7349 33.0749 70.7182C31.8497 70.6217 31.4056 69.67 30.7846 68.8713C30.0735 67.9529 29.3724 67.0177 28.1137 66.4454C28.0576 66.7844 28.0252 67.1268 28.0169 67.4703C28.1505 69.2725 28.5861 71.0396 29.3056 72.6983C29.5449 73.1905 29.7372 73.7042 29.8798 74.2324C29.9545 74.501 29.9314 74.7873 29.8147 75.0407C29.698 75.294 29.4952 75.4981 29.2422 75.6167C28.9976 75.7496 28.7129 75.7891 28.4413 75.7278C28.1697 75.6666 27.9298 75.5088 27.7665 75.284C27.4506 74.8369 27.1842 74.3572 26.9719 73.853C25.7781 71.2721 25.3251 68.412 25.6631 65.5901C25.7378 65.2869 25.6951 64.9668 25.5434 64.6935C25.3918 64.4203 25.1425 64.2141 24.8451 64.1159C23.6165 63.5735 22.3779 63.1176 20.9957 63.1176C20.856 63.1316 20.7149 63.1162 20.5815 63.0723C20.4482 63.0284 20.3256 62.9571 20.2217 62.863C20.1179 62.7688 20.035 62.654 19.9785 62.5259C19.922 62.3977 19.8932 62.2592 19.8939 62.1193C19.8678 61.9627 19.8752 61.8024 19.9157 61.6489C19.9562 61.4955 20.0288 61.3522 20.1288 61.2287C20.2287 61.1052 20.3538 61.0042 20.4957 60.9322C20.6376 60.8603 20.7932 60.8192 20.9523 60.8114C21.8895 60.7651 22.8288 60.84 23.7467 61.0344C25.9169 61.5635 27.8032 62.6983 29.5727 64.0294C30.2404 64.5485 30.9482 65.0577 31.636 65.5702L32.0667 65.8464L31.9765 65.2507C31.6427 63.081 31.3088 60.9246 30.995 58.7482C30.9664 58.4375 30.8507 58.1411 30.6612 57.8928C30.4717 57.6445 30.216 57.4543 29.9232 57.3439C28.5759 56.694 27.1274 56.2776 25.6397 56.1126C20.2979 55.6301 16.7355 59.0078 16.5853 64.0128C16.4451 68.6883 18.3448 72.5885 21.5165 75.8463C25.3192 79.7498 29.7263 82.1924 35.4654 80.5851C35.7762 80.4855 36.1119 80.4953 36.4164 80.6128C36.7208 80.7303 36.9756 80.9485 37.1381 81.2307C37.4519 81.6766 37.7123 82.1625 37.9961 82.6317C40.8949 87.5777 44.198 92.2769 47.8719 96.6816C51.8115 101.311 56.1451 105.507 61.4803 108.558C64.849 110.482 68.4614 111.813 72.371 112.059C77.2621 112.365 81.6725 110.858 85.6789 108.109C88.7018 105.976 91.3802 103.395 93.6215 100.455C97.3809 95.6666 100.269 90.3621 102.603 84.7715C104.112 81.1575 105.38 77.4503 106.773 73.7898C107.257 72.5119 107.52 72.3156 108.859 72.432C112.371 72.7449 115.346 71.4836 117.987 69.3339C121.069 66.8378 123.244 63.4033 124.18 59.5569C124.791 57.3544 124.866 55.0384 124.397 52.8015C123.563 49.0311 120.585 44.7449 114.411 45.6667C113.18 45.895 111.979 46.2635 110.832 46.7649C109.68 47.2274 109.667 47.3838 109.864 48.5419C110.352 51.4038 110.595 54.2524 109.317 57.0045C109.274 57.1505 109.253 57.3017 109.253 57.4537L109.263 57.4471ZM61.1865 27.8298C60.9561 29.2474 60.7291 30.5353 60.5488 31.8231C60.482 32.3123 60.8125 32.4887 61.2699 32.4687C63.3766 32.329 65.4833 32.1925 67.59 32.0461C67.8655 31.9997 68.1376 31.9352 68.4046 31.8531C66.2084 30.1635 63.7724 28.8087 61.1764 27.8331L61.1865 27.8298ZM77.212 31.9662C78.1235 31.9196 78.7077 31.8997 79.292 31.8597C79.9898 31.8132 80.6876 31.7167 81.3887 31.7033C83.4453 31.6667 83.442 31.8098 83.2416 29.5935C83.1388 28.8244 82.9713 28.0652 82.7408 27.324C82.7291 27.2283 82.6914 27.1377 82.6318 27.0618C82.5722 26.9859 82.4929 26.9277 82.4026 26.8935C82.3122 26.8592 82.2141 26.8502 82.119 26.8674C82.0239 26.8847 81.9353 26.9275 81.8628 26.9912C80.1687 28.5143 78.6094 30.1799 77.202 31.9696L77.212 31.9662ZM66.7887 27.8298C64.9758 25.9663 63.9642 25.5403 62.6488 25.7766L66.7887 27.8298Z" fill="#1A1A1A"/>
<path d="M70.5682 5.13434C71.0723 4.80156 71.5163 4.48542 71.9504 4.16928C76.2739 1.0212 81.155 -0.156833 86.4268 0.242501C90.6698 0.60395 94.8115 1.73156 98.6496 3.57028C105.15 6.56528 110.822 10.745 116.011 15.6235C125.91 24.9413 133.465 35.9696 139.398 48.1392C139.675 48.698 139.879 49.2895 140.006 49.8996C140.071 50.1707 140.034 50.4561 139.901 50.7016C139.769 50.9471 139.551 51.1355 139.288 51.2308C139.039 51.3608 138.752 51.3967 138.479 51.3319C138.205 51.267 137.965 51.1058 137.802 50.878C137.408 50.2956 137.062 49.6824 136.767 49.0444C133.049 41.3334 128.468 34.066 123.112 27.3806C118.064 21.1077 112.428 15.4505 105.778 10.8348C100.967 7.50705 95.8285 4.84482 90.0526 3.5603C86.6238 2.80489 83.1916 2.64516 79.7628 3.50705C77.1599 4.16065 74.7375 5.38891 72.6749 7.10106C71.0289 8.45546 70.1942 8.47876 68.5416 7.13766C65.6778 4.75904 62.172 3.27814 58.4655 2.88143C54.8517 2.51131 51.2003 2.91407 47.7551 4.06279C42.4299 5.78326 37.7825 8.6518 33.6059 12.3124C28.7047 16.6453 24.6374 21.8328 21.6034 27.6202C21.3287 28.183 21.0199 28.7287 20.6786 29.2541C20.501 29.5195 20.2316 29.7104 19.9218 29.7904C19.6119 29.8704 19.2834 29.8338 18.9989 29.6877C18.7144 29.5416 18.4939 29.2962 18.3794 28.9983C18.2649 28.7004 18.2645 28.3709 18.3782 28.0727C18.4946 27.6986 18.6467 27.3365 18.8323 26.9912C23.9371 17.2275 30.9717 9.28408 40.8107 4.02951C45.5115 1.51371 50.4928 -0.000427246 55.9114 -0.000427246C60.8694 -0.000427246 65.3665 1.36063 69.3729 4.29241C69.7468 4.56529 70.1275 4.82485 70.5682 5.13434Z" fill="#1A1A1A"/>
<path d="M73.5292 17.121C72.7246 17.0511 72.1937 16.4887 72.2738 15.9729C72.3079 15.5863 72.4413 15.215 72.6611 14.8947C74.1402 13.1742 75.6192 11.4438 77.1917 9.80984C77.993 8.97789 78.6941 8.96458 79.275 9.47706C79.8559 9.98954 79.7792 10.7483 78.9178 11.6967C77.4955 13.2641 76.0966 14.8514 74.6476 16.3922C74.3084 16.6828 73.9323 16.9278 73.5292 17.121Z" fill="#1A1A1A"/>
<path d="M81.5885 13.9996C81.5188 14.309 81.3957 14.604 81.2246 14.8714C79.8357 16.5464 78.4223 18.2003 76.9845 19.8332C76.813 20.0515 76.5626 20.1943 76.2868 20.231C76.011 20.2677 75.7318 20.1954 75.5088 20.0295C75.028 19.6768 74.7676 19.2009 75.0414 18.6152C75.2612 18.1198 75.5367 17.6509 75.8627 17.2175C76.5772 16.2991 77.3351 15.4105 78.1029 14.532C78.5104 14.0589 78.9499 13.6141 79.4184 13.2009C79.6594 13.0064 79.9395 12.8657 80.2397 12.7882C80.8139 12.6452 81.5418 13.1976 81.5885 13.9996Z" fill="#1A1A1A"/>
<path d="M109.253 57.4537C109.516 57.4337 109.94 57.5103 110.021 57.3805C110.752 56.1825 111.336 54.8913 112.131 53.7399C113.344 51.9911 115.008 50.6011 116.948 49.7166C117.443 49.4792 117.963 49.2962 118.497 49.1709C118.81 49.122 119.13 49.1804 119.404 49.3363C119.679 49.4923 119.893 49.7367 120.01 50.0294C120.112 50.3291 120.098 50.6561 119.971 50.9462C119.844 51.2362 119.612 51.4683 119.322 51.5968C118.561 51.9862 117.76 52.309 116.985 52.695C116.61 52.9198 116.25 53.1676 115.907 53.4371C116.224 53.9828 116.518 54.502 116.828 55.0078C118.385 57.4874 119.049 60.4214 118.711 63.3272C118.63 63.9397 118.428 64.53 118.117 65.0643C118.049 65.1862 117.957 65.293 117.847 65.3784C117.737 65.4638 117.61 65.526 117.475 65.5611C117.34 65.5963 117.199 65.6037 117.061 65.583C116.922 65.5622 116.79 65.5137 116.671 65.4404C116.321 65.1612 116.071 64.7774 115.957 64.3455C115.863 64.086 116.01 63.7366 116.067 63.4304C116.584 60.5785 115.756 58.056 114.187 55.5535C113.626 56.0122 113.176 56.59 112.868 57.2446C112.56 57.8993 112.403 58.6142 112.408 59.3372C112.415 59.5769 112.336 59.8114 112.185 59.9978C112.034 60.1841 111.82 60.31 111.583 60.3522C111.321 60.444 111.035 60.4401 110.776 60.3414C110.517 60.2427 110.301 60.0555 110.167 59.8131C110.01 59.5469 109.934 59.2307 109.773 58.9645C109.607 58.7311 109.425 58.5088 109.229 58.299C109.253 57.9995 109.253 57.7266 109.253 57.4537Z" fill="#1A1A1A"/>
<path d="M86.1227 50.9945C85.9892 50.7882 85.859 50.5818 85.7288 50.3755L92.8234 50.4687C92.3227 50.6412 91.806 50.7639 91.281 50.8347C89.665 50.8913 88.0491 50.8747 86.4299 50.8847C86.3903 50.9249 86.3422 50.9557 86.289 50.9747C86.2358 50.9938 86.1789 51.0005 86.1227 50.9945Z" fill="#1A1A1A"/>
<path d="M92.9465 77.6433C92.833 79.7698 92.4224 81.3571 91.5877 82.8114C88.7699 87.7099 84.9805 91.5867 79.652 93.7365C77.3984 94.6416 75.068 95.3671 72.7577 96.1292C71.9297 96.4054 71.3755 96.7947 71.3988 97.7565C71.3702 98.1472 71.2671 98.529 71.095 98.8812C70.3805 100.668 68.758 101.311 67.0886 100.382C66.33 99.9713 65.6623 99.4122 65.1255 98.7381C63.2692 96.3155 61.039 94.412 58.1944 93.2407C57.4963 92.961 56.8625 92.5427 56.3316 92.0112C55.8007 91.4798 55.3838 90.8462 55.1062 90.1491C54.3516 88.2922 54.9225 86.4886 56.5518 85.7132C56.9623 85.5005 57.429 85.4202 57.8873 85.4836C61.0189 86.219 63.9837 85.4337 66.9184 84.5318C70.9247 83.3039 74.6807 81.5368 78.38 79.6134C80.8239 78.3522 83.231 77.0177 85.6649 75.7365C86.4808 75.2668 87.3352 74.8672 88.219 74.5418C90.8899 73.7066 93 75.3339 92.9465 77.6433ZM68.394 98.0859C68.511 97.8243 68.5995 97.551 68.6578 97.2706C68.6077 95.3804 69.6594 94.4253 71.3855 93.9728C72.0532 93.7897 72.7209 93.5501 73.3887 93.3072C75.0847 92.6882 76.7974 92.1092 78.4634 91.417C83.1376 89.4603 86.4929 86.0194 89.0503 81.7332C89.685 80.644 90.0842 79.4345 90.2222 78.1824C90.319 77.3971 89.8115 76.9578 89.0871 77.2007C88.493 77.4037 87.9158 77.653 87.361 77.9462C85.4156 78.9689 83.4759 80.0061 81.5417 81.0576C78.0973 82.9393 74.5277 84.5838 70.858 85.9794C66.9284 87.4603 62.9253 88.5119 58.6652 88.1392C58.5073 88.1291 58.349 88.1291 58.1911 88.1392C57.3731 88.1658 57.1695 88.6217 57.5801 89.3838C58.0609 90.2756 58.8588 90.7481 59.7436 91.1109C62.5121 92.276 64.935 94.1286 66.7815 96.4919C67.2897 97.0519 67.828 97.584 68.394 98.0859Z" fill="#1A1A1A"/>
<path d="M62.9891 54.8414C62.7577 55.1798 62.4865 55.4892 62.1812 55.7632C61.9105 55.9169 61.6007 55.9886 61.2898 55.9695C57.5805 55.9196 54.2385 57.2507 50.9199 58.685C50.5043 58.9007 50.0723 59.0831 49.6278 59.2308C49.0202 59.3838 48.5728 59.071 48.269 58.5652C48.1416 58.3631 48.0847 58.1247 48.107 57.8871C48.1294 57.6494 48.2297 57.4258 48.3925 57.2507C48.7157 56.9138 49.0996 56.6406 49.5243 56.4454C52.7651 54.8587 56.2542 53.8356 59.8408 53.4205C60.6172 53.3654 61.3963 53.4789 62.1244 53.7532C62.4783 53.8697 62.6753 54.4254 62.9891 54.8414Z" fill="#1A1A1A"/>
<path d="M86.1225 50.9945C86.1787 51.0005 86.2355 50.9938 86.2887 50.9747C86.3419 50.9557 86.3901 50.9249 86.4296 50.8847C86.8636 51.6135 87.7317 51.2474 88.3126 51.6268C88.7633 51.9229 89.3142 52.0793 89.7249 52.4154C89.9218 52.5543 90.0559 52.7647 90.0984 53.0013C90.1409 53.238 90.0883 53.4817 89.9519 53.68C89.6718 54.0291 89.2906 54.2835 88.8602 54.4088C88.5263 54.4953 88.0989 54.3056 87.725 54.2025C84.2595 53.2274 80.7873 53.0511 77.2917 54.0694C76.9222 54.1992 76.5251 54.2302 76.1399 54.1592C75.806 54.0727 75.3486 53.7798 75.2885 53.4936C75.205 53.101 75.2885 52.4953 75.5623 52.2457C76.0414 51.8479 76.6171 51.5828 77.2316 51.477C78.8508 51.2034 80.4835 51.0156 82.1227 50.9146C83.4482 50.8181 84.787 50.9546 86.1225 50.9945Z" fill="#1A1A1A"/>
<path d="M69.5229 71.3139C69.5508 71.8584 69.5452 72.4041 69.5062 72.9478C69.4827 73.2245 69.3583 73.4829 69.1565 73.6742C68.9547 73.8656 68.6895 73.9765 68.4112 73.9861C68.1359 74.014 67.8596 73.9428 67.6324 73.7853C67.4052 73.6279 67.2421 73.3945 67.1725 73.1275C67.1039 72.8229 67.057 72.5137 67.0323 72.2024C66.7096 69.7288 66.3857 67.2551 66.0607 64.7815C66.0199 64.5518 65.9987 64.3192 65.9973 64.086C66.0207 63.5502 66.5148 62.8946 66.9989 62.9479C67.4355 63.0318 67.8408 63.2332 68.1708 63.5302C68.3806 63.7647 68.5104 64.0595 68.5414 64.3722C68.942 66.675 69.3226 68.9845 69.7066 71.2906L69.5229 71.3139Z" fill="#1A1A1A"/>
</g>
<defs>
<clipPath id="clip0_475_1863">
<rect width="151.044" height="114.835" fill="white" transform="translate(0.412598 -0.000366211)"/>
</clipPath>
</defs>
</svg>
