<svg width="142" height="143" viewBox="0 0 142 143" fill="none" xmlns="http://www.w3.org/2000/svg">
<g clip-path="url(#clip0_475_1887)">
<path d="M121.819 9.33516C122.306 10.0338 122.615 10.5097 122.955 10.9606C131.811 22.6977 137.567 35.7959 139.991 50.2997C141.778 60.9931 141.519 71.6252 138.458 82.1015C137.502 85.4874 136.196 88.7644 134.561 91.8792C134.315 92.3844 134.169 92.9327 134.132 93.4936C133.684 97.9246 133.284 102.358 132.827 106.787C132.746 107.571 132.563 108.342 132.284 109.08C132.006 109.826 131.171 110.043 130.484 109.667C130.238 109.519 130.001 109.356 129.777 109.177C126.836 107.112 123.898 105.047 120.965 102.982C120.18 102.425 120.096 101.729 120.731 100.975C121.062 100.596 121.421 100.243 121.805 99.9174C125.145 96.9727 128.507 94.0502 131.825 91.0777C132.331 90.5764 132.736 89.9831 133.019 89.3298C135.252 84.6588 136.801 79.6907 137.617 74.5783C139.791 61.2185 138.079 48.24 133.529 35.5816C130.53 27.2564 126.268 19.4423 120.892 12.4135C120.608 12.0899 120.347 11.7467 120.11 11.3864C119.47 10.2397 118.593 10.0477 117.402 10.4986C116.342 10.8966 115.198 11.1332 114.115 11.4755C113.954 11.5561 113.804 11.6561 113.667 11.7733C113.809 12.2743 113.929 12.8198 114.112 13.3403C117.21 22.155 119.554 31.1924 122.011 40.1935C122.07 40.3995 122.095 40.6166 122.139 40.8253C122.54 42.8015 122.106 43.4639 120.057 43.9927C119.387 44.1653 119.261 44.3072 119.373 45.0587C119.651 46.9764 120.013 48.8857 120.266 50.8062C120.931 55.7939 121.555 60.7871 121.641 65.836C121.661 66.9938 122.148 67.6284 123.061 68.2575C126.278 70.459 128.299 73.5457 129.209 77.3115C129.987 80.6272 129.641 84.1075 128.225 87.2051C126.809 90.3027 124.404 92.8419 121.388 94.4232C120.949 94.6683 120.495 94.8831 120.027 95.0661C119.412 95.286 119.178 95.7091 119.016 96.3214C118.097 99.8683 116.818 103.312 115.201 106.6C114.087 108.855 112.821 111.053 111.209 112.977C110.442 113.832 110.019 114.942 110.021 116.091C110.021 116.809 109.948 117.525 109.901 118.396C110.363 118.471 110.825 118.571 111.293 118.621C112.368 118.723 113.411 119.047 114.354 119.574C115.297 120.102 116.12 120.82 116.77 121.683C117.856 123.06 118.251 124.566 117.692 126.322C116.445 130.247 114.908 134.027 112.434 137.35C111.746 138.268 111.042 139.17 110.263 140.025C108.189 142.332 105.531 143.2 102.5 142.961C101.22 142.858 99.9592 142.532 98.69 142.299C96.6858 141.925 94.9047 140.789 93.7219 139.128C92.7338 137.809 91.8236 136.426 90.972 135.015C90.4598 134.163 89.9143 133.606 88.8372 133.481C87.7683 133.35 86.7262 133.054 85.7477 132.604C83.2288 131.463 81.943 129.409 81.7843 126.668C81.7033 125.579 82.0044 124.496 82.636 123.606C82.9143 123.208 83.2177 122.829 83.6408 122.273C80.7322 121.329 77.9434 120.444 75.3855 119.05C72.8277 117.655 70.2364 116.191 67.7983 114.558C65.3601 112.924 63.0834 111.053 60.6285 109.189C60.4057 109.289 60.19 109.404 59.9828 109.534C55.3681 112.779 50.2635 113.327 44.953 111.961C38.852 110.388 34.19 106.837 31.7268 100.922C29.734 96.1405 30.2043 91.4979 33.4413 87.3007C33.9736 86.6219 34.5773 86.0023 35.2421 85.4526C35.8544 84.9405 35.8628 84.4507 35.6151 83.7548C34.3709 80.2367 33.1101 76.7215 31.9634 73.1783C28.668 63.0638 26.0823 52.7629 23.8028 42.3812C23.4938 40.9895 23.2238 39.5673 22.901 38.1673C22.7543 37.6629 22.5805 37.1667 22.3805 36.681C19.5276 37.4603 16.7666 38.2062 14.0084 38.9661C10.5496 39.9161 7.0928 40.8708 3.6378 41.8301C3.42906 41.8858 3.23144 41.986 3.0227 42.0277C2.29347 42.1697 1.6561 41.9247 1.43065 41.2679C0.924093 39.776 0.473199 38.2591 0.052922 36.7395C-0.0315382 36.4584 -0.0177389 36.1569 0.0920467 35.8847C0.201832 35.6125 0.401055 35.3859 0.656896 35.242C1.25538 34.8622 1.89979 34.5601 2.57458 34.343C7.81274 32.8271 13.0555 31.3306 18.303 29.8536C33.0767 25.6824 47.8504 21.5158 62.6241 17.3538L122.276 0.528819C122.832 0.372955 123.375 0.194824 123.946 0.0751425C125.026 -0.158654 125.599 0.139158 125.938 1.17176C126.231 2.05685 126.42 2.97255 126.684 3.86599C126.878 4.55157 127.108 5.22612 127.375 5.88666C127.848 6.99997 127.633 7.61508 126.442 8.01031C125.357 8.37214 124.235 8.63377 123.13 8.9455C122.785 9.03734 122.465 9.14311 121.819 9.33516ZM47.92 84.0248L44.825 84.3978C41.9777 84.3504 39.4783 85.3552 37.2628 87.0558C35.0473 88.7564 33.6445 90.9524 33.2632 93.7162C32.8658 96.3707 33.3768 99.0816 34.7133 101.409C37.029 105.501 40.5582 108.12 44.9975 109.378C49.9212 110.769 54.6695 110.405 58.914 107.193C60.7287 105.824 60.7426 105.829 62.5323 107.371C66.262 110.64 70.3323 113.498 74.673 115.896C78.9314 118.206 83.4014 119.94 88.2527 120.461C90.0256 120.653 91.8348 120.583 93.6244 120.564C94.5568 120.564 95.1274 120.141 95.4141 119.089C95.9707 117.018 96.7334 114.994 97.5043 112.988C98.3001 110.902 99.4352 108.962 100.864 107.246C101.491 106.461 102.203 105.749 102.987 105.122C104.488 103.978 106.077 104.106 107.507 105.348C108.317 106.069 108.906 107.005 109.205 108.047C109.411 108.701 109.606 109.361 109.862 110.196C110.859 109.481 111.232 108.54 111.727 107.713C112.284 106.792 112.762 105.826 113.227 104.855C113.661 103.95 114.062 103.024 114.424 102.091C114.825 101.095 115.209 100.087 115.554 99.0685C115.863 98.1444 116.111 97.2009 116.372 96.2852C116.259 96.2216 116.138 96.1711 116.013 96.1349C115.37 96.1349 114.725 96.1349 114.079 96.1349C108.997 96.0681 104.947 93.9417 101.871 89.9365C100.329 87.9341 99.3484 85.5559 99.0324 83.0479C98.8904 81.9652 98.3171 81.4697 97.0841 81.3612C97.2371 82.1962 97.5934 82.8057 97.7743 83.4709C97.8429 83.7166 97.825 83.9784 97.7237 84.2124C97.6223 84.4465 97.4437 84.6387 97.2177 84.7568C96.9653 84.8984 96.669 84.9404 96.3872 84.8745C96.1054 84.8085 95.8585 84.6395 95.6952 84.4005C95.5014 84.1011 95.3418 83.7809 95.2193 83.4459C94.9599 82.8541 94.7396 82.2461 94.5596 81.6256C94.3425 80.7906 93.7859 80.8908 93.2431 81.1552C92.2126 81.681 91.3554 82.4928 90.7743 83.4932C90.304 84.253 90.1036 84.9238 90.5405 85.8785C91.7251 88.4379 92.085 91.3023 91.5704 94.0753C90.0284 102.765 81.5505 106.878 75.0766 105.696C66.7573 104.179 61.9951 96.2045 63.3589 89.2936C63.6623 87.76 64.1522 86.2598 64.6086 84.5425C61.7056 81.7592 58.3156 79.4463 54.1852 78.3497C53.7481 78.2629 53.3068 78.1988 52.8631 78.1576C53.186 79.3377 53.4198 80.3091 53.7176 81.2666C54.4579 83.7381 55.2317 86.2041 55.9693 88.6785C56.1812 89.3626 56.3385 90.0625 56.4396 90.7715C56.4543 91.0609 56.3771 91.3475 56.2192 91.5904C56.0612 91.8333 55.8306 92.0201 55.5601 92.1242C55.3217 92.2101 55.0626 92.2209 54.8178 92.1552C54.573 92.0895 54.3542 91.9505 54.1907 91.7568C54.0425 91.6016 53.9022 91.4391 53.7705 91.2697C52.1923 89.3214 50.5975 87.3731 49.0584 85.3886C48.78 85.0268 48.7383 84.4757 48.588 84.0137C49.2504 83.3178 49.949 83.2956 50.6671 83.9218C51.1319 84.3254 51.5828 84.7568 52.4067 85.4944C51.5911 82.7918 50.9204 80.5401 50.2329 78.294C50.077 77.7847 49.6902 77.7373 49.2031 77.8014C47.0513 78.0774 45.0232 78.9629 43.3582 80.3536C42.8015 80.8045 42.2449 81.2638 42.114 81.9791C43.7534 81.9262 45.3955 81.8149 47.0377 81.8399C48.0981 81.8594 48.4071 82.4606 48.1232 83.6184C48.0761 83.7541 48.0155 83.8846 47.9423 84.0081L47.92 84.0248ZM111.262 12.2854C110.541 12.4441 110.051 12.5304 109.573 12.6612C86.6885 18.9496 63.8024 25.2398 40.9144 31.5319C36.0103 32.8827 31.1089 34.2475 26.2103 35.6261C25.0107 35.9629 25.0024 35.9963 25.2306 37.0567C27.0815 45.685 29.0326 54.2992 31.4819 62.7855C31.644 63.2511 31.8298 63.7082 32.0385 64.1549C37.7805 61.7139 43.5614 59.7907 49.3673 57.9342C57.6365 55.2873 65.8834 52.5708 74.3279 50.5446C82.7 48.535 91.0944 46.6276 99.5111 44.8221C105.05 43.6281 110.644 42.679 116.211 41.6325C116.987 41.485 117.772 41.4015 118.554 41.279C119.406 41.1426 119.565 40.9255 119.389 40.1657C119.359 40.0265 119.3 39.8874 119.261 39.7565C117.177 32.3585 115.117 24.9661 113.002 17.5821C112.52 15.8648 111.888 14.1948 111.262 12.2854ZM114.271 53.1024C116.456 56.7207 117.333 60.5839 117.377 64.6698C117.371 64.8853 117.388 65.1008 117.427 65.3127C117.577 65.964 118.129 65.9418 118.618 65.9612C119.108 65.9807 119.1 65.5437 119.1 65.2097C119.111 64.4909 119.086 63.7718 119.025 63.0555C118.563 58.7024 118.101 54.3466 117.591 49.9991C117.408 48.4321 117.107 46.8762 116.84 45.3203C116.659 44.2822 116.509 44.1597 115.39 44.2989C114.109 44.4603 112.829 44.6524 111.563 44.9001C100.655 47.0265 89.8197 49.4758 78.9982 51.9863C69.9108 54.0933 61.007 56.8265 52.1339 59.6793C50.848 60.0941 49.5649 60.5143 48.2568 60.9513C48.2537 61.2701 48.2779 61.5885 48.3291 61.9032C49.4703 66.1282 50.6337 70.3477 51.7582 74.5755C51.9168 75.1684 52.248 75.3549 52.7991 75.455C57.5307 76.3067 61.5581 78.5417 65.1514 81.6534C65.4742 81.9318 65.8277 82.1711 66.1394 82.4049C67.417 81.3695 68.6305 80.3731 69.8579 79.3934C70.6929 78.731 72.1346 78.7226 72.4881 77.7234C72.8221 76.7771 72.5076 75.6053 72.4881 74.5338C72.4742 74.03 72.4686 73.5262 72.4464 73.0252C72.4018 72.0483 72.3044 71.8535 71.4444 71.6336C68.7195 70.9489 65.9529 70.5064 63.1335 70.7624C61.7808 70.8877 60.4476 71.1994 59.1005 71.4053C58.606 71.4841 58.1065 71.5269 57.6058 71.5334C57.3882 71.5259 57.1784 71.4508 57.0053 71.3186C56.8323 71.1865 56.7046 71.0038 56.64 70.7958C56.5548 70.5562 56.5561 70.2943 56.6435 70.0554C56.7309 69.8165 56.899 69.6157 57.1188 69.4877C57.5587 69.2553 58.0263 69.0795 58.5104 68.9644C62.0154 68.1277 65.6528 68.0037 69.2066 68.5998C76.3597 69.8523 82.2018 73.3676 86.7413 79.0399C87.1978 79.5966 87.6209 80.1532 87.6543 80.9381C87.6849 81.6228 88.1163 82.0375 88.7398 82.3799C89.8698 80.7823 91.0833 79.4964 92.8228 78.7894C93.7469 78.4165 93.7358 78.3524 93.5994 77.3115C93.4964 76.5266 93.3211 75.7529 93.2403 74.9707C93.137 74.4067 93.137 73.8286 93.2403 73.2646C93.3266 72.9417 93.797 72.605 94.1366 72.5075C94.3871 72.4407 94.7962 72.7107 95.0356 72.9362C95.2061 73.1639 95.3093 73.4348 95.3334 73.7183C95.503 74.3421 95.6065 74.9821 95.6423 75.6276C95.6201 77.5481 96.4411 78.7226 98.3978 78.9926C98.5243 78.995 98.6506 78.9809 98.7735 78.9509C98.8487 78.8312 98.9739 78.7198 98.9934 78.5918C99.4491 75.6659 100.701 72.9217 102.612 70.6594C102.802 70.4475 102.931 70.1885 102.987 69.9095C103.043 69.6305 103.023 69.3416 102.929 69.073C102.3 66.6905 102.177 64.2551 102.255 61.8058C102.272 61.3382 102.255 60.8734 102.255 60.4141C102.03 60.3974 101.924 60.3585 101.891 60.3919C101.579 60.6834 101.286 60.9949 101.014 61.3243C99.292 63.631 97.9917 66.2241 97.1731 68.9839C97.0486 69.4676 96.8829 69.9397 96.6777 70.395C96.5696 70.6255 96.3858 70.8121 96.1569 70.9235C95.928 71.0349 95.6678 71.0645 95.4197 71.0073C95.1357 70.9465 94.8842 70.7831 94.7132 70.5484C94.5423 70.3138 94.4638 70.0243 94.4928 69.7354C94.5166 69.3785 94.581 69.0255 94.6849 68.6833C94.8853 67.9958 95.0829 67.2916 95.3417 66.6348C98.587 58.3072 104.396 52.8241 113.155 50.6225C113.639 50.4945 114.134 50.4088 114.633 50.3665C115.56 50.2969 115.969 50.5362 116.191 51.1847C116.414 51.8332 116.152 52.2257 115.315 52.6543C115.008 52.8213 114.672 52.9354 114.271 53.1024ZM107.591 115.212C107.519 112.492 107.477 110.48 106.739 108.565C106.002 106.65 105.016 106.428 103.583 107.878C103.187 108.293 102.816 108.731 102.47 109.189C101.093 110.942 100.005 112.905 99.2495 115.003C98.4646 117.157 97.7994 119.353 97.1091 121.538C96.7306 122.74 96.4077 123.052 95.1775 123.158C94.8213 123.191 94.4594 123.158 94.1004 123.172C92.8089 123.205 91.5147 123.194 90.2288 123.294C89.012 123.362 87.8023 123.524 86.6105 123.779C84.601 124.257 83.8718 125.727 84.4785 127.711C84.8905 129.047 85.7199 129.983 87.0225 130.425C87.9062 130.721 88.8143 130.939 89.7362 131.076C91.0471 131.274 91.8793 131.911 92.5334 133.111C93.4607 134.727 94.5054 136.273 95.659 137.737C96.4411 138.775 97.4487 139.629 98.7513 139.963C100.344 140.405 101.994 140.611 103.647 140.573C104.583 140.562 105.505 140.35 106.352 139.951C107.198 139.553 107.949 138.977 108.554 138.263C111.858 134.447 114.037 130.052 115.329 125.201C115.44 124.796 115.429 124.367 115.298 123.968C115.049 123.328 114.66 122.752 114.158 122.283C113.657 121.814 113.056 121.465 112.401 121.26C111.198 120.845 109.946 120.622 108.782 121.647C108.059 122.278 106.987 121.663 106.942 120.695C106.945 120.264 106.985 119.835 107.062 119.412C107.268 117.783 107.482 116.152 107.602 115.212H107.591ZM124.666 5.89501C124.602 5.4135 124.589 5.13238 124.527 4.85962C124.018 2.63299 124.015 2.65247 121.722 3.2982C107.434 7.3284 93.1522 11.3568 78.8758 15.3833C54.1045 22.36 29.3332 29.335 4.56186 36.308C4.07756 36.4444 3.5877 36.5585 3.11454 36.7228C3.02836 36.7476 2.94818 36.7898 2.87893 36.8468C2.80968 36.9037 2.75283 36.9743 2.71189 37.0541C2.67095 37.1339 2.64679 37.2212 2.64088 37.3107C2.63498 37.4002 2.64746 37.49 2.67757 37.5744C2.76385 37.9223 2.91415 38.2508 3.006 38.5959C3.15073 39.1386 3.52647 39.2361 3.99406 39.1303C4.34198 39.0524 4.68154 38.9216 5.02667 38.8269C9.72486 37.528 14.4249 36.2292 19.1268 34.9303L115.376 8.48625C118.412 7.65126 121.446 6.79401 124.666 5.89501ZM86.5354 84.2168C86.2571 84.6844 86.0427 85.0518 85.8284 85.4192C85.3247 86.2876 84.8571 87.1783 84.3088 88.016C83.8078 88.7842 83.3318 88.9178 82.4773 88.6562C82.2078 88.5609 81.9439 88.4503 81.6869 88.325C79.178 87.2574 76.5227 86.5734 73.8102 86.296C71.7867 86.0816 69.6603 85.6697 67.7509 86.9139C66.4985 86.8387 66.2034 87.7294 66.0142 88.6813C65.8114 89.5154 65.6819 90.3657 65.6273 91.2224C65.4742 99.5973 73.3537 104.899 80.4205 103.029C88.261 100.956 91.8598 91.7039 87.3119 85.0017C87.0753 84.7181 86.8145 84.4555 86.5326 84.2168H86.5354ZM104.156 73.0837C102.505 74.9959 101.527 77.3975 101.373 79.9194C101.24 81.8243 101.533 83.7349 102.231 85.5124C102.929 87.2899 104.013 88.8897 105.406 90.1957C106.799 91.5016 108.466 92.4809 110.285 93.0624C112.104 93.6439 114.029 93.8131 115.921 93.5576C117.102 93.4128 117.174 93.4296 117.391 92.1381C117.928 88.9596 118.521 85.7811 118.852 82.5775C119.287 78.438 119.456 74.275 119.359 70.1139C119.331 69.0924 119.142 68.8726 118.22 68.5636C117.589 68.3521 117.241 68.5163 117.093 69.1203C116.865 70.0944 116.72 71.0964 116.431 72.0511C115.874 73.8519 115.078 75.5274 113.647 76.8328C111.671 78.6475 109.306 78.7811 107.246 77.0861C106.48 76.4598 105.871 75.6332 105.253 74.8594C104.853 74.2901 104.486 73.6981 104.154 73.0865L104.156 73.0837ZM45.646 61.8837C45.1767 61.9557 44.7121 62.0551 44.2544 62.1815C41.1427 63.267 38.0365 64.3664 34.9359 65.4797C34.3292 65.6968 33.7447 65.9696 33.1546 66.2312C33.0704 66.2606 32.9928 66.3063 32.9262 66.3657C32.8597 66.4252 32.8057 66.4972 32.7671 66.5777C32.7286 66.6582 32.7063 66.7455 32.7016 66.8345C32.697 66.9236 32.71 67.0128 32.7399 67.0968C32.8123 67.3752 32.8568 67.6535 32.9459 67.9318C34.5212 72.8471 36.0984 77.7643 37.6775 82.6833C37.8247 82.9814 38.0059 83.2616 38.2174 83.5182C42.4675 77.3477 42.5371 77.2948 49.2838 75.1155C48.0675 70.7234 46.9264 66.3064 45.646 61.8837ZM119.96 92.1965C124.255 90.3234 127.355 85.3775 127.119 80.2674C127.018 77.7403 126.163 75.3011 124.664 73.2646C123.581 71.7811 123.044 71.3163 121.752 70.8125C121.85 77.9322 121.382 84.9906 119.96 92.1965ZM131.625 94.5123C129.587 95.8621 124.511 100.635 123.676 101.985C125.852 103.416 127.834 105.142 130.369 106.505C130.951 102.406 131.583 98.5536 131.63 94.5123H131.625ZM74.108 83.6435C73.7573 82.5497 73.4567 81.6145 73.1283 80.5819C71.4583 81.2304 70.0026 81.9874 68.9533 83.6435H74.108Z" fill="#1A1A1A"/>
<path d="M43.6476 93.1262C42.7235 92.6809 41.9303 92.9508 41.2373 93.5186C40.6963 93.9867 40.1903 94.4937 39.7231 95.0355C39.4838 95.2972 39.3363 95.6367 39.1136 95.9178C38.607 96.5663 38.0226 96.7528 37.4436 96.4745C36.8647 96.1962 36.7367 95.5365 37.1653 94.7823C37.88 93.4518 38.8973 92.3077 40.1351 91.4423C41.7438 90.329 43.475 90.1342 45.2202 91.0332C46.2462 91.5394 47.1909 92.1961 48.0229 92.9815C49.5955 94.5429 51.0344 96.2407 52.5096 97.8995C52.7456 98.1672 52.9254 98.4796 53.0384 98.818C53.1252 99.057 53.1254 99.3188 53.0389 99.5579C52.9525 99.7969 52.7848 99.998 52.5653 100.126C52.3986 100.268 52.1879 100.346 51.9694 100.349C51.7509 100.351 51.5383 100.278 51.3684 100.14C50.8906 99.7118 50.4415 99.2525 50.0241 98.7651C48.8718 97.4904 47.7502 96.185 46.5756 94.9325C46.1581 94.4844 45.6655 94.6208 45.3788 95.1775C44.6496 96.6025 44.7164 98.0999 45.081 99.5834C45.4252 100.912 46.1348 102.117 47.1295 103.063C47.4998 103.4 47.8519 103.757 48.1844 104.131C48.3666 104.356 48.4625 104.638 48.4549 104.927C48.4472 105.216 48.3365 105.492 48.1426 105.707C47.968 105.894 47.7332 106.015 47.479 106.047C47.2248 106.08 46.9672 106.022 46.751 105.885C46.2605 105.591 45.8097 105.235 45.4094 104.827C42.9378 102.386 41.2484 97.7103 43.5029 93.7636C43.5787 93.5583 43.6274 93.3441 43.6476 93.1262Z" fill="#1A1A1A"/>
<path d="M103.157 97.6379C103.245 99.3736 102.764 101.091 101.788 102.528C101.353 103.185 100.811 103.763 100.184 104.24C98.3837 105.565 96.2127 105.195 94.8823 103.405C94.0871 102.282 93.6566 100.942 93.6493 99.5667C93.5657 97.7605 94.0283 95.9709 94.9769 94.4315C95.4289 93.7034 96.0281 93.0777 96.7359 92.5946C98.6843 91.2781 100.864 91.7763 102.141 93.7524C102.879 94.909 103.234 96.2682 103.157 97.6379ZM96.0151 99.0295C96.26 99.9091 96.3908 100.839 96.7749 101.651C97.262 102.676 98.2111 102.765 99.0572 101.955C99.4165 101.61 99.7149 101.208 99.9395 100.764C100.788 99.0212 100.986 97.2093 100.196 95.4001C99.6695 94.1978 98.7566 94.0502 97.8353 94.9437C96.6998 96.0542 96.2016 97.4291 96.0234 99.0379L96.0151 99.0295Z" fill="#1A1A1A"/>
<path d="M86.7746 72.0622C86.847 73.0252 86.1178 73.7127 85.383 73.5707C84.9604 73.4896 84.5577 73.327 84.1973 73.092C83.251 72.4491 82.249 71.8367 81.4335 71.0519C79.3599 69.0702 77.3643 67.0022 75.3492 64.9592C75.0899 64.7116 74.8719 64.4241 74.7035 64.1075C74.5683 63.891 74.5117 63.6345 74.5431 63.3811C74.5745 63.1278 74.6921 62.8929 74.8761 62.7159C75.066 62.5446 75.3115 62.4477 75.5672 62.4431C75.8229 62.4385 76.0717 62.5265 76.2677 62.6909C76.7075 63.0555 77.1027 63.4869 77.4951 63.896C78.8116 65.2209 80.0975 66.5735 81.4446 67.865C82.7917 69.1564 84.2056 70.37 85.8979 71.2244C86.282 71.4304 86.577 71.8674 86.7746 72.0622Z" fill="#1A1A1A"/>
<path d="M98.4781 53.2694C98.401 53.6209 98.2823 53.9619 98.1247 54.2853C97.7732 54.8247 97.3932 55.345 96.9863 55.844C95.0714 58.3489 93.1955 60.879 91.8762 63.768C91.7883 63.9626 91.683 64.1489 91.5617 64.3247C91.431 64.5388 91.2291 64.7 90.9914 64.7799C90.7536 64.8598 90.4953 64.8534 90.2619 64.7616C90.0249 64.6657 89.8323 64.4845 89.7221 64.2538C89.6119 64.023 89.592 63.7594 89.6662 63.5147C89.8476 62.8256 90.1013 62.1576 90.4233 61.5219C91.9903 58.3601 94.1752 55.6018 96.2432 52.7712C96.4167 52.5463 96.6322 52.3573 96.8778 52.2146C97.529 51.8221 98.4114 52.3259 98.4781 53.2694Z" fill="#1A1A1A"/>
<path d="M80.6458 93.1067C80.6145 93.4283 80.4635 93.7263 80.2227 93.9418C79.982 94.1572 79.6691 94.2744 79.346 94.2701C79.0608 94.2269 78.8044 94.0721 78.6332 93.8398C78.462 93.6076 78.39 93.3168 78.4331 93.0316C78.4736 92.7473 78.6109 92.4858 78.8218 92.2911C79.0328 92.0964 79.3044 91.9804 79.591 91.9628C79.8791 91.984 80.1485 92.1139 80.3444 92.3264C80.5403 92.5388 80.648 92.8178 80.6458 93.1067Z" fill="#1A1A1A"/>
<path d="M82.263 93.7969C82.5125 93.7929 82.7551 93.8787 82.9467 94.0386C83.1383 94.1985 83.266 94.4219 83.3067 94.6681C83.3333 94.8258 83.3282 94.9872 83.2917 95.1429C83.2553 95.2986 83.1882 95.4455 83.0944 95.575C83.0007 95.7045 82.8821 95.8141 82.7455 95.8973C82.609 95.9805 82.4572 96.0358 82.2991 96.0598C82.1579 96.0736 82.0154 96.0592 81.8798 96.0176C81.7441 95.9761 81.6181 95.908 81.5089 95.8174C81.3997 95.7269 81.3095 95.6156 81.2435 95.49C81.1776 95.3644 81.1372 95.2269 81.1246 95.0856C81.1085 94.7647 81.2185 94.4502 81.4313 94.2094C81.644 93.9686 81.9425 93.8205 82.263 93.7969Z" fill="#1A1A1A"/>
<path d="M78.973 96.6972C78.9805 96.8386 78.9599 96.9801 78.9124 97.1135C78.8648 97.2469 78.7913 97.3696 78.696 97.4744C78.6008 97.5792 78.4857 97.6641 78.3575 97.7242C78.2292 97.7843 78.0903 97.8183 77.9488 97.8244C77.7429 97.8293 77.5401 97.7737 77.3655 97.6644C77.191 97.5552 77.0523 97.3971 76.9667 97.2098C76.8811 97.0225 76.8524 96.8142 76.8841 96.6107C76.9158 96.4072 77.0065 96.2175 77.145 96.0651C77.2835 95.9127 77.4637 95.8043 77.6632 95.7533C77.8627 95.7023 78.0728 95.711 78.2675 95.7783C78.4621 95.8456 78.6327 95.9685 78.7581 96.1319C78.8835 96.2952 78.9583 96.4918 78.973 96.6972Z" fill="#1A1A1A"/>
<path d="M111.704 80.3592C111.648 80.7126 111.48 81.0387 111.224 81.2892C110.969 81.5398 110.639 81.7016 110.285 81.7508C110.001 81.7298 109.734 81.6045 109.536 81.3991C109.339 81.1937 109.224 80.9225 109.213 80.6375C109.258 80.284 109.421 79.9563 109.678 79.7087C109.934 79.4612 110.267 79.3087 110.622 79.2765C110.906 79.2842 111.177 79.4008 111.379 79.6022C111.58 79.8036 111.697 80.0745 111.704 80.3592Z" fill="#1A1A1A"/>
<path d="M112.69 84.4869C112.549 84.4901 112.409 84.4643 112.279 84.4109C112.148 84.3575 112.03 84.2777 111.932 84.1765C111.834 84.0753 111.758 83.955 111.709 83.8231C111.66 83.6911 111.638 83.5504 111.646 83.4097C111.646 82.6248 112.219 81.9541 112.876 81.9374C113.158 81.9589 113.422 82.085 113.616 82.291C113.809 82.497 113.919 82.768 113.923 83.0507C113.931 83.8634 113.419 84.459 112.69 84.4869Z" fill="#1A1A1A"/>
<path d="M109.82 84.3894C109.794 84.7086 109.658 85.0088 109.436 85.2395C109.214 85.4702 108.919 85.6172 108.601 85.6558C108.316 85.6437 108.045 85.5274 107.84 85.3288C107.635 85.1303 107.509 84.8634 107.488 84.5787C107.515 84.2596 107.651 83.9594 107.872 83.7276C108.093 83.4959 108.387 83.3464 108.704 83.304C108.989 83.322 109.258 83.4414 109.463 83.6404C109.667 83.8395 109.794 84.1051 109.82 84.3894Z" fill="#1A1A1A"/>
</g>
<defs>
<clipPath id="clip0_475_1887">
<rect width="141.105" height="143" fill="white"/>
</clipPath>
</defs>
</svg>
