<svg width="314" height="355" viewBox="0 0 314 355" fill="none" xmlns="http://www.w3.org/2000/svg">
<path fill-rule="evenodd" clip-rule="evenodd" d="M17.0137 73.712L259.46 49.0787C264.113 48.6059 268.764 50.001 272.39 52.9571C276.015 55.9133 278.317 60.1883 278.79 64.8418L305.333 325.861C305.333 325.862 305.332 325.864 305.331 325.864L27.7949 354.06C27.7937 354.06 27.7925 354.059 27.7924 354.058L1.252 93.0406C0.266559 83.3503 7.3233 74.6966 17.0137 73.712Z" fill="#EFC083"/>
<path fill-rule="evenodd" clip-rule="evenodd" d="M17.0137 73.712L259.46 49.0787C264.113 48.6059 268.764 50.001 272.39 52.9571C276.015 55.9133 278.317 60.1883 278.79 64.8418L305.333 325.861C305.333 325.862 305.332 325.864 305.331 325.864L27.7949 354.06C27.7937 354.06 27.7925 354.059 27.7924 354.058L1.252 93.0406C0.266559 83.3503 7.3233 74.6966 17.0137 73.712Z" stroke="black" stroke-width="1.35859" stroke-miterlimit="10" stroke-linejoin="round"/>
<path fill-rule="evenodd" clip-rule="evenodd" d="M49.1627 2.39644L292.88 1.08815C297.558 1.06303 302.054 2.89723 305.38 6.18722C308.706 9.47722 310.589 13.9535 310.615 18.6314L312.358 336.855C312.358 336.856 312.357 336.857 312.356 336.857L33.3648 338.353C33.3635 338.353 33.3624 338.352 33.3624 338.35L31.6214 20.129C31.568 10.3879 39.4216 2.44873 49.1627 2.39644Z" fill="white"/>
<path fill-rule="evenodd" clip-rule="evenodd" d="M49.1627 2.39644L292.88 1.08815C297.558 1.06303 302.054 2.89723 305.38 6.18723C308.706 9.47722 310.589 13.9535 310.615 18.6314L312.358 336.855C312.358 336.856 312.357 336.857 312.356 336.857L33.3648 338.353C33.3635 338.353 33.3624 338.352 33.3624 338.35L31.6214 20.129C31.568 10.3879 39.4216 2.44873 49.1627 2.39644Z" stroke="black" stroke-width="1.35859" stroke-miterlimit="10" stroke-linejoin="round"/>
</svg>
