<svg width="54" height="54" viewBox="0 0 54 54" fill="none" xmlns="http://www.w3.org/2000/svg">
<path d="M40.5 50.625H13.5C12.6052 50.6241 11.7472 50.2682 11.1145 49.6355C10.4818 49.0028 10.1259 48.1448 10.125 47.25V6.75C10.1259 5.85517 10.4818 4.99724 11.1145 4.3645C11.7472 3.73176 12.6052 3.37589 13.5 3.375H40.5C41.3948 3.37589 42.2528 3.73176 42.8855 4.3645C43.5182 4.99724 43.8741 5.85517 43.875 6.75V34.7929L35.4375 30.5741L27 34.7929V6.75H13.5V47.25H40.5V40.5H43.875V47.25C43.8737 48.1447 43.5177 49.0024 42.885 49.635C42.2524 50.2677 41.3947 50.6237 40.5 50.625ZM35.4375 26.8009L40.5 29.3321V6.75H30.375V29.3321L35.4375 26.8009Z" fill="#F08C03"/>
</svg>
