<svg width="312" height="354" viewBox="0 0 312 354" fill="none" xmlns="http://www.w3.org/2000/svg">
<path fill-rule="evenodd" clip-rule="evenodd" d="M17.0526 71.9395L259.761 49.9975C264.419 49.5763 269.054 51.023 272.645 54.0193C276.236 57.0157 278.49 61.3161 278.91 65.9747L302.486 327.274C302.486 327.276 302.485 327.277 302.484 327.277L24.6484 352.392C24.6471 352.392 24.646 352.391 24.6458 352.39L1.07247 91.0926C0.197192 81.3916 7.35172 72.8165 17.0526 71.9395Z" fill="#EFC083"/>
<path fill-rule="evenodd" clip-rule="evenodd" d="M17.0526 71.9395L259.761 49.9975C264.419 49.5763 269.054 51.023 272.645 54.0193C276.236 57.0157 278.49 61.3161 278.91 65.9747L302.486 327.274C302.486 327.276 302.485 327.277 302.484 327.277L24.6484 352.392C24.6471 352.392 24.646 352.391 24.6458 352.39L1.07247 91.0926C0.197192 81.3916 7.35172 72.8165 17.0526 71.9395Z" stroke="#1A1A1A" stroke-width="1.35859" stroke-miterlimit="10" stroke-linejoin="round"/>
<path fill-rule="evenodd" clip-rule="evenodd" d="M50.0217 1.00032L293.776 2.45813C298.455 2.48612 302.931 4.37152 306.22 7.69959C309.51 11.0276 311.343 15.5257 311.316 20.2043L309.491 338.382L309.489 338.385L30.4554 336.714L30.4531 336.711L32.2798 18.5355C32.3357 8.79279 40.279 0.942028 50.0217 1.00032Z" fill="white"/>
<path fill-rule="evenodd" clip-rule="evenodd" d="M50.0217 1.00032L293.776 2.45813C298.455 2.48612 302.931 4.37152 306.22 7.69959C309.51 11.0276 311.343 15.5257 311.316 20.2043L309.491 338.382C309.491 338.384 309.49 338.385 309.489 338.385L30.4554 336.713C30.4542 336.713 30.4531 336.712 30.4531 336.711L32.2798 18.5355C32.3357 8.79279 40.279 0.942028 50.0217 1.00032Z" stroke="#1A1A1A" stroke-width="1.35859" stroke-miterlimit="10" stroke-linejoin="round"/>
<path d="M62.2284 45.8369L62.2268 50.4646L67.279 50.4724L67.2785 51.9796L62.2262 51.9718L62.2246 56.7481L67.8712 56.7568L67.8707 58.2427L60.3984 58.2312L60.4033 44.3268L67.8755 44.3384L67.875 45.8456L62.2284 45.8369ZM76.3024 58.2557L73.7352 54.1972L71.2289 58.2479L69.3396 58.245L72.8653 52.8373L69.3434 47.3338L71.4025 47.337L73.9909 51.3743L76.4548 47.3447L78.3441 47.3476L74.8396 52.7341L78.3615 58.2589L76.3024 58.2557ZM79.4737 52.7837C79.4741 51.6516 79.7009 50.6683 80.154 49.8341C80.6072 48.9857 81.2372 48.3357 82.044 47.884C82.8508 47.4182 83.7708 47.1861 84.8039 47.1877C86.1483 47.1898 87.2521 47.517 88.1151 48.1693C88.9782 48.8075 89.551 49.707 89.8336 50.8679L87.8807 50.8649C87.6969 50.1995 87.3362 49.6753 86.7986 49.2924C86.2609 48.9094 85.5959 48.7174 84.8034 48.7162C83.7703 48.7146 82.9352 49.0671 82.2981 49.7737C81.661 50.4803 81.3422 51.4846 81.3418 52.7866C81.3413 54.1028 81.6594 55.1222 82.296 55.8449C82.9326 56.5535 83.7674 56.9086 84.8005 56.9102C85.593 56.9114 86.2511 56.7284 86.7749 56.3613C87.3128 55.9941 87.6809 55.464 87.8793 54.7709L89.8323 54.7739C89.5347 55.8914 88.9471 56.7821 88.0694 57.4459C87.2059 58.1097 86.1161 58.4406 84.8 58.4386C83.7669 58.437 82.8471 58.2092 82.0406 57.7551C81.2341 57.2868 80.6045 56.6278 80.152 55.778C79.6994 54.9281 79.4733 53.93 79.4737 52.7837ZM94.0684 43.5508L94.0632 58.283L92.2376 58.2802L92.2428 43.548L94.0684 43.5508ZM106.82 47.3914L106.816 58.3026L105.012 58.2999L105.012 56.6865C104.658 57.2379 104.17 57.6759 103.547 58.0004C102.938 58.3108 102.266 58.4655 101.53 58.4643C100.681 58.463 99.9169 58.285 99.2377 57.9301C98.5585 57.5753 98.0209 57.0437 97.6249 56.3355C97.243 55.6273 97.0523 54.7709 97.0526 53.7661L97.0549 47.3764L98.838 47.3792L98.8359 53.5353C98.8355 54.6108 99.1041 55.4392 99.6417 56.0202C100.193 56.5872 100.936 56.8713 101.87 56.8728C102.847 56.8743 103.611 56.5783 104.163 55.9847C104.73 55.3912 105.013 54.5213 105.013 53.375L105.015 47.3887L106.82 47.3914ZM113.743 58.4831C112.908 58.4819 112.158 58.3392 111.493 58.0551C110.828 57.7711 110.304 57.374 109.923 56.8639C109.541 56.3539 109.329 55.7662 109.286 55.101L111.154 55.1039C111.211 55.6417 111.465 56.0879 111.918 56.4425C112.385 56.7828 112.986 56.9536 113.722 56.9547C114.416 56.9557 114.961 56.808 115.357 56.5114C115.753 56.2007 115.952 55.8118 115.952 55.3448C115.952 54.8636 115.74 54.5095 115.315 54.2824C114.891 54.0553 114.233 53.8279 113.341 53.6001C112.535 53.3865 111.877 53.1732 111.367 52.9602C110.858 52.733 110.419 52.4068 110.052 51.9817C109.684 51.5424 109.5 50.969 109.5 50.2614C109.501 49.7094 109.663 49.2002 109.989 48.7337C110.329 48.2672 110.803 47.9 111.412 47.632C112.035 47.3641 112.735 47.2307 113.513 47.2319C114.716 47.2337 115.686 47.5395 116.421 48.1492C117.171 48.7589 117.574 49.5945 117.631 50.656L115.826 50.6532C115.784 50.087 115.551 49.6338 115.126 49.2935C114.716 48.9391 114.157 48.7613 113.449 48.7602C112.798 48.7592 112.282 48.9 111.899 49.1824C111.517 49.4507 111.326 49.8113 111.326 50.2641C111.326 50.6179 111.439 50.9153 111.665 51.1563C111.906 51.3831 112.196 51.5675 112.535 51.7095C112.889 51.8516 113.377 52.008 114 52.1788C114.792 52.3923 115.429 52.6056 115.91 52.8186C116.406 53.0175 116.83 53.3224 117.184 53.7334C117.537 54.1443 117.721 54.6824 117.735 55.3475C117.735 55.9419 117.565 56.4794 117.225 56.9601C116.899 57.4407 116.432 57.815 115.824 58.083C115.229 58.351 114.536 58.4843 113.743 58.4831ZM121.212 45.6304C120.872 45.6299 120.582 45.5162 120.342 45.2894C120.101 45.0485 119.981 44.7511 119.981 44.3973C119.981 44.0576 120.102 43.7677 120.342 43.5275C120.583 43.2873 120.873 43.1674 121.213 43.168C121.553 43.1685 121.836 43.2892 122.062 43.5302C122.302 43.7711 122.423 44.0614 122.423 44.4011C122.422 44.7549 122.302 45.0519 122.061 45.2921C121.835 45.5182 121.552 45.6309 121.212 45.6304ZM122.103 47.4149L122.099 58.3262L120.274 58.3234L120.277 47.4121L122.103 47.4149ZM129.248 56.6602L132.627 47.4312L134.559 47.4341L130.267 58.3388L128.165 58.3355L123.881 47.4177L125.834 47.4207L129.248 56.6602ZM146.301 52.4832C146.3 52.837 146.279 53.2049 146.236 53.587L137.533 53.5736C137.589 54.6492 137.95 55.4918 138.615 56.1014C139.294 56.6968 140.115 56.9953 141.077 56.9968C141.855 56.998 142.506 56.8221 143.03 56.4691C143.554 56.1019 143.922 55.6072 144.134 54.9848L146.087 54.9878C145.79 56.0488 145.202 56.9041 144.325 57.5537C143.447 58.2033 142.364 58.5272 141.076 58.5252C140.029 58.5236 139.095 58.2957 138.275 57.8416C137.468 57.3733 136.831 56.7143 136.365 55.8644C135.898 55.0005 135.665 54.0024 135.665 52.8702C135.666 51.7381 135.892 50.7478 136.346 49.8993C136.799 49.0509 137.429 48.4009 138.235 47.9493C139.056 47.4977 140.005 47.2727 141.08 47.2744C142.113 47.2759 143.026 47.5038 143.818 47.9578C144.611 48.3978 145.219 49.0143 145.643 49.8075C146.082 50.6007 146.301 51.4926 146.301 52.4832ZM144.433 52.0983C144.433 51.419 144.277 50.8314 143.966 50.3356C143.669 49.8257 143.259 49.4429 142.735 49.1874C142.212 48.9319 141.632 48.8036 140.995 48.8026C140.075 48.8012 139.289 49.0901 138.638 49.6693C138.001 50.2486 137.64 51.0547 137.555 52.0877L144.433 52.0983ZM153.327 52.8761C153.327 51.7581 153.554 50.782 154.007 49.9477C154.461 49.0993 155.083 48.4493 155.876 47.9976C156.669 47.5318 157.546 47.2997 158.509 47.3011C159.471 47.3026 160.299 47.5091 160.992 47.9206C161.7 48.3321 162.23 48.8495 162.584 49.4727L162.584 47.4773L164.41 47.48L164.406 58.3913L162.581 58.3885L162.581 56.3506C162.213 56.9868 161.675 57.5167 160.967 57.9402C160.26 58.3495 159.432 58.5535 158.484 58.552C157.521 58.5505 156.644 58.3156 155.852 57.8474C155.073 57.365 154.458 56.6919 154.005 55.8279C153.553 54.9639 153.327 53.98 153.327 52.8761ZM162.583 52.9116C162.583 52.0908 162.413 51.3759 162.074 50.7668C161.748 50.1578 161.303 49.6901 160.737 49.3637C160.171 49.0373 159.548 48.8736 158.869 48.8726C158.19 48.8715 157.567 49.0333 157.001 49.3579C156.449 49.6684 156.01 50.1277 155.684 50.7358C155.358 51.3438 155.195 52.0582 155.195 52.879C155.195 53.714 155.357 54.4431 155.683 55.0663C156.008 55.6753 156.446 56.143 156.998 56.4694C157.564 56.7957 158.187 56.9594 158.866 56.9605C159.545 56.9615 160.168 56.7997 160.734 56.4751C161.301 56.1505 161.747 55.6841 162.072 55.0761C162.412 54.4539 162.582 53.7325 162.583 52.9116ZM166.788 52.9181C166.788 51.7859 167.015 50.8027 167.468 49.9684C167.921 49.12 168.551 48.47 169.358 48.0184C170.165 47.5526 171.085 47.3205 172.118 47.3221C173.462 47.3241 174.566 47.6513 175.429 48.3037C176.292 48.9418 176.865 49.8414 177.148 51.0023L175.195 50.9993C175.011 50.3338 174.65 49.8096 174.112 49.4267C173.575 49.0438 172.91 48.8517 172.117 48.8505C171.084 48.8489 170.249 49.2014 169.612 49.908C168.975 50.6147 168.656 51.619 168.656 52.921C168.655 54.2371 168.973 55.2565 169.61 55.9793C170.246 56.6879 171.081 57.0429 172.114 57.0445C172.907 57.0458 173.565 56.8628 174.089 56.4956C174.627 56.1285 174.995 55.5984 175.193 54.9052L177.146 54.9082C176.849 56.0258 176.261 56.9165 175.383 57.5803C174.52 58.2441 173.43 58.575 172.114 58.573C171.081 58.5714 170.161 58.3435 169.354 57.8894C168.548 57.4211 167.918 56.7621 167.466 55.9123C167.013 55.0625 166.787 54.0644 166.788 52.9181ZM178.874 52.9367C178.875 51.8045 179.101 50.8213 179.554 49.987C180.008 49.1386 180.638 48.4886 181.444 48.037C182.251 47.5712 183.171 47.3391 184.204 47.3407C185.549 47.3428 186.652 47.67 187.516 48.3223C188.379 48.9604 188.951 49.86 189.234 51.0209L187.281 51.0179C187.097 50.3524 186.737 49.8283 186.199 49.4453C185.661 49.0624 184.996 48.8703 184.204 48.8691C183.171 48.8675 182.336 49.22 181.699 49.9267C181.061 50.6333 180.743 51.6376 180.742 52.9396C180.742 54.2557 181.06 55.2751 181.696 55.9979C182.333 56.7065 183.168 57.0615 184.201 57.0631C184.993 57.0643 185.652 56.8814 186.175 56.5142C186.713 56.1471 187.081 55.617 187.28 54.9238L189.233 54.9268C188.935 56.0444 188.348 56.9351 187.47 57.5988C186.606 58.2627 185.517 58.5936 184.2 58.5915C183.167 58.59 182.247 58.3621 181.441 57.908C180.634 57.4398 180.005 56.7807 179.552 55.9309C179.1 55.0811 178.874 54.083 178.874 52.9367ZM201.596 52.5683C201.596 52.9221 201.575 53.2901 201.532 53.6721L192.829 53.6587C192.885 54.7343 193.245 55.5769 193.91 56.1865C194.589 56.7819 195.41 57.0804 196.372 57.0819C197.151 57.0831 197.802 56.9071 198.326 56.5541C198.849 56.187 199.217 55.6922 199.43 55.0699L201.383 55.0729C201.085 56.1338 200.498 56.9891 199.62 57.6388C198.742 58.2884 197.66 58.6123 196.372 58.6103C195.325 58.6087 194.391 58.3808 193.57 57.9267C192.763 57.4584 192.127 56.7994 191.66 55.9495C191.193 55.0855 190.96 54.0875 190.961 52.9553C190.961 51.8231 191.188 50.8328 191.641 49.9844C192.094 49.136 192.724 48.486 193.531 48.0343C194.352 47.5827 195.3 47.3578 196.376 47.3594C197.409 47.361 198.322 47.5888 199.114 48.0429C199.906 48.4828 200.515 49.0994 200.939 49.8926C201.377 50.6858 201.596 51.5777 201.596 52.5683ZM199.728 52.1833C199.728 51.504 199.573 50.9165 199.262 50.4207C198.965 49.9108 198.554 49.528 198.031 49.2725C197.507 49.0169 196.927 48.8887 196.29 48.8877C195.37 48.8863 194.585 49.1752 193.934 49.7544C193.297 50.3337 192.936 51.1398 192.85 52.1728L199.728 52.1833ZM207.847 58.6279C207.012 58.6266 206.262 58.484 205.597 58.1999C204.932 57.9158 204.408 57.5188 204.026 57.0087C203.645 56.4987 203.432 55.911 203.39 55.2458L205.258 55.2487C205.315 55.7866 205.569 56.2327 206.022 56.5872C206.489 56.9276 207.09 57.0984 207.826 57.0995C208.52 57.1006 209.065 56.9528 209.461 56.6562C209.857 56.3455 210.056 55.9566 210.056 55.4896C210.056 55.0084 209.844 54.6543 209.419 54.4272C208.995 54.2001 208.337 53.9727 207.445 53.7449C206.639 53.5314 205.981 53.3181 205.471 53.105C204.962 52.8778 204.523 52.5516 204.156 52.1265C203.788 51.6872 203.604 51.1137 203.604 50.4061C203.604 49.8542 203.767 49.345 204.093 48.8785C204.433 48.412 204.907 48.0448 205.516 47.7768C206.138 47.5089 206.839 47.3755 207.617 47.3767C208.82 47.3786 209.79 47.6843 210.525 48.294C211.275 48.9037 211.678 49.7393 211.734 50.8008L209.93 50.798C209.888 50.2318 209.654 49.7786 209.23 49.4383C208.82 49.0839 208.261 48.9061 207.553 48.9051C206.902 48.904 206.386 49.0447 206.003 49.3272C205.621 49.5955 205.43 49.9561 205.43 50.409C205.43 50.7628 205.543 51.0601 205.769 51.301C206.01 51.5279 206.3 51.7123 206.639 51.8543C206.993 51.9964 207.481 52.1528 208.104 52.3236C208.896 52.5371 209.533 52.7504 210.014 52.9634C210.509 53.1623 210.934 53.4672 211.287 53.8781C211.641 54.2891 211.825 54.8272 211.839 55.4923C211.839 56.0867 211.669 56.6242 211.329 57.1049C211.003 57.5855 210.536 57.9599 209.927 58.2278C209.333 58.4958 208.639 58.6292 207.847 58.6279ZM218.241 58.6439C217.406 58.6426 216.656 58.5 215.991 58.2159C215.326 57.9318 214.802 57.5348 214.42 57.0247C214.039 56.5147 213.826 55.927 213.784 55.2618L215.652 55.2647C215.709 55.8025 215.963 56.2487 216.416 56.6032C216.883 56.9436 217.484 57.1144 218.22 57.1155C218.914 57.1165 219.459 56.9688 219.855 56.6722C220.251 56.3615 220.45 55.9726 220.45 55.5056C220.45 55.0244 220.238 54.6703 219.813 54.4432C219.389 54.2161 218.731 53.9887 217.839 53.7608C217.033 53.5473 216.375 53.3341 215.865 53.121C215.356 52.8938 214.917 52.5676 214.55 52.1425C214.182 51.7032 213.998 51.1298 213.998 50.4222C213.998 49.8702 214.161 49.361 214.487 48.8945C214.827 48.428 215.301 48.0608 215.91 47.7928C216.532 47.5249 217.233 47.3915 218.011 47.3927C219.214 47.3946 220.184 47.7003 220.919 48.31C221.669 48.9197 222.072 49.7553 222.128 50.8168L220.324 50.814C220.282 50.2478 220.048 49.7946 219.624 49.4543C219.214 49.0999 218.655 48.9221 217.947 48.921C217.296 48.92 216.78 49.0608 216.397 49.3432C216.015 49.6115 215.824 49.9721 215.824 50.425C215.824 50.7788 215.937 51.0761 216.163 51.317C216.404 51.5439 216.694 51.7283 217.033 51.8703C217.387 52.0124 217.875 52.1688 218.498 52.3396C219.29 52.5531 219.927 52.7664 220.408 52.9794C220.903 53.1783 221.328 53.4832 221.682 53.8941C222.035 54.3051 222.219 54.8432 222.233 55.5083C222.233 56.1027 222.063 56.6402 221.723 57.1209C221.397 57.6016 220.93 57.9759 220.321 58.2438C219.727 58.5118 219.033 58.6452 218.241 58.6439Z" fill="#1A1A1A"/>
<path d="M61.8185 69.8717C61.2241 69.8708 60.7359 69.6931 60.354 69.3387C59.972 68.9844 59.7811 68.5524 59.7813 68.043C59.7814 67.5052 59.9726 67.0668 60.3549 66.7277C60.7371 66.3745 61.2254 66.1983 61.8198 66.1992C62.4 66.2001 62.8811 66.3778 63.2631 66.7322C63.6451 67.0724 63.836 67.5114 63.8358 68.0492C63.8356 68.5586 63.6444 68.99 63.2622 69.3432C62.88 69.6964 62.3987 69.8726 61.8185 69.8717ZM63.5163 71.0418L63.5125 82.1441L60.0948 82.1389L60.0986 71.0366L63.5163 71.0418ZM72.7444 70.9287C74.0464 70.9307 75.0864 71.3568 75.8645 72.2072C76.6426 73.0433 77.0313 74.1973 77.0308 75.6691L77.0286 82.1649L73.6321 82.1597L73.6342 76.1309C73.6345 75.3809 73.4436 74.8003 73.0616 74.3893C72.6797 73.9783 72.1632 73.7723 71.5122 73.7713C70.8612 73.7703 70.3446 73.9747 69.9624 74.3846C69.5801 74.7944 69.3889 75.3743 69.3886 76.1244L69.3865 82.1532L65.9688 82.1479L65.9727 71.0456L69.3904 71.0509L69.3899 72.5156C69.7297 72.0208 70.1897 71.6323 70.7701 71.3502C71.3504 71.0681 72.0085 70.9275 72.7444 70.9287ZM84.9753 73.8982L83.1497 73.8954L83.1468 82.1743L79.7291 82.169L79.732 73.8901L78.5008 73.8882L78.5017 71.0649L79.733 71.0668L79.7331 70.7484C79.7335 69.3756 80.1231 68.336 80.9017 67.6296C81.6945 66.9233 82.848 66.5713 84.3622 66.5736C84.617 66.574 84.8009 66.5813 84.9141 66.5956L84.9131 69.4826C84.2622 69.4392 83.8022 69.5305 83.5332 69.7565C83.2784 69.9825 83.1509 70.3857 83.1507 70.9659L83.1507 71.072L84.9763 71.0749L84.9753 73.8982ZM91.61 82.3572C90.5203 82.3555 89.5438 82.1205 88.6807 81.6521C87.8176 81.1838 87.1315 80.5176 86.6223 79.6535C86.1273 78.7895 85.88 77.7773 85.8804 76.6168C85.8808 75.4846 86.1359 74.4873 86.6456 73.6248C87.1554 72.7482 87.842 72.077 88.7055 71.6113C89.583 71.1456 90.5667 70.9136 91.6564 70.9153C92.7461 70.917 93.7296 71.152 94.6068 71.6204C95.4841 72.0887 96.1702 72.762 96.6653 73.6402C97.1744 74.5043 97.4288 75.5024 97.4284 76.6345C97.428 77.7809 97.1729 78.7923 96.6632 79.669C96.1534 80.5315 95.4526 81.1955 94.5609 81.6612C93.6833 82.1269 92.6997 82.3588 91.61 82.3572ZM91.611 79.4065C92.262 79.4075 92.814 79.1677 93.267 78.6873C93.7342 78.2068 93.968 77.5208 93.9683 76.6292C93.9686 75.7377 93.7424 75.058 93.2897 74.5903C92.8511 74.1084 92.3064 73.867 91.6554 73.866C90.9902 73.865 90.4382 74.1047 89.9993 74.5852C89.5605 75.0516 89.3409 75.7305 89.3406 76.6221C89.3402 77.5137 89.5523 78.2004 89.9767 78.6822C90.4152 79.164 90.96 79.4055 91.611 79.4065ZM102.663 72.9489C103.059 72.341 103.555 71.8606 104.149 71.5077C104.744 71.1548 105.409 70.9789 106.145 70.98L106.143 74.5888L105.209 74.5874C104.36 74.5861 103.723 74.7691 103.299 75.1364C102.874 75.4895 102.661 76.126 102.661 77.0459L102.659 82.2043L99.2416 82.1991L99.2455 71.0968L102.663 71.1021L102.663 72.9489ZM121.948 71.0044C123.335 71.0065 124.432 71.4257 125.238 72.2619C126.059 73.0981 126.469 74.2592 126.468 75.7452L126.466 82.241L123.069 82.2358L123.071 76.207C123.072 75.4852 122.881 74.933 122.499 74.5503C122.131 74.1535 121.615 73.9546 120.949 73.9535C120.284 73.9525 119.761 74.1499 119.378 74.5455C119.01 74.9271 118.826 75.4787 118.826 76.2004L118.824 82.2292L115.427 82.224L115.429 76.1952C115.43 75.4735 115.239 74.9212 114.857 74.5386C114.489 74.1417 113.972 73.9428 113.307 73.9418C112.642 73.9407 112.119 74.1381 111.736 74.5338C111.368 74.9153 111.184 75.467 111.184 76.1887L111.182 82.2175L107.764 82.2122L107.768 71.1099L111.186 71.1152L111.185 72.495C111.525 72.0285 111.971 71.6612 112.523 71.3932C113.089 71.1252 113.719 70.9917 114.412 70.9928C115.261 70.9941 116.011 71.1792 116.662 71.5482C117.313 71.903 117.829 72.4132 118.211 73.079C118.594 72.4569 119.117 71.9553 119.783 71.5742C120.448 71.1931 121.17 71.0032 121.948 71.0044ZM128.173 76.6606C128.174 75.5285 128.386 74.5311 128.811 73.6685C129.25 72.8059 129.838 72.1416 130.574 71.6757C131.324 71.2099 132.159 70.9776 133.079 70.9791C133.857 70.9802 134.544 71.144 135.138 71.4704C135.732 71.7827 136.185 72.2009 136.496 72.725L136.497 71.1541L139.914 71.1594L139.91 82.2617L136.493 82.2564L136.493 80.6855C136.168 81.1945 135.708 81.6113 135.113 81.9359C134.519 82.2605 133.832 82.4221 133.054 82.4209C132.148 82.4195 131.32 82.1848 130.57 81.7166C129.835 81.2343 129.248 80.5612 128.809 79.6972C128.385 78.8191 128.173 77.8069 128.173 76.6606ZM136.495 76.6947C136.495 75.8455 136.262 75.18 135.795 74.6981C135.328 74.2021 134.755 73.9536 134.076 73.9525C133.396 73.9515 132.816 74.1911 132.335 74.6716C131.868 75.152 131.634 75.8168 131.634 76.666C131.633 77.5151 131.867 78.1947 132.333 78.7049C132.814 79.201 133.394 79.4495 134.074 79.4506C134.753 79.4516 135.326 79.2048 135.794 78.7102C136.261 78.2156 136.494 77.5438 136.495 76.6947ZM148.57 79.388L148.569 82.275L146.829 82.2723C145.598 82.2704 144.635 81.9717 143.942 81.3763C143.249 80.7667 142.902 79.7755 142.903 78.4028L142.905 73.9873L141.567 73.9853L141.568 71.1619L142.905 71.164L142.906 68.4468L146.324 68.452L146.323 71.1693L148.552 71.1727L148.551 73.996L146.322 73.9926L146.321 78.4505C146.321 78.776 146.398 79.0167 146.554 79.1726C146.71 79.3143 146.978 79.3855 147.361 79.3861L148.57 79.388ZM152.179 70.0107C151.585 70.0098 151.096 69.8322 150.714 69.4778C150.332 69.1234 150.141 68.6914 150.142 68.182C150.142 67.6442 150.333 67.2058 150.715 66.8667C151.097 66.5135 151.586 66.3374 152.18 66.3383C152.76 66.3392 153.242 66.5168 153.623 66.8712C154.005 67.2114 154.196 67.6505 154.196 68.1882C154.196 68.6977 154.005 69.129 153.623 69.4822C153.24 69.8354 152.759 70.0116 152.179 70.0107ZM153.877 71.1809L153.873 82.2831L150.455 82.2779L150.459 71.1756L153.877 71.1809ZM161.381 82.4645C160.292 82.4628 159.315 82.2278 158.452 81.7595C157.589 81.2911 156.903 80.625 156.394 79.7609C155.899 78.8969 155.651 77.8846 155.652 76.7241C155.652 75.592 155.907 74.5946 156.417 73.7321C156.927 72.8555 157.613 72.1844 158.477 71.7187C159.354 71.253 160.338 71.021 161.428 71.0227C162.518 71.0244 163.501 71.2594 164.378 71.7278C165.256 72.1961 165.942 72.8694 166.437 73.7476C166.946 74.6116 167.2 75.6097 167.2 76.7419C167.199 77.8882 166.944 78.8997 166.435 79.7763C165.925 80.6388 165.224 81.3029 164.332 81.7685C163.455 82.2342 162.471 82.4662 161.381 82.4645ZM161.382 79.5138C162.033 79.5148 162.585 79.2751 163.038 78.7946C163.506 78.3142 163.739 77.6282 163.74 76.7366C163.74 75.845 163.514 75.1654 163.061 74.6976C162.623 74.2158 162.078 73.9744 161.427 73.9734C160.762 73.9723 160.21 74.2121 159.771 74.6926C159.332 75.1589 159.112 75.8379 159.112 76.7294C159.112 77.621 159.324 78.3077 159.748 78.7896C160.187 79.2714 160.731 79.5128 161.382 79.5138ZM175.789 71.0872C177.091 71.0892 178.131 71.5154 178.909 72.3657C179.687 73.2019 180.076 74.3559 180.075 75.8277L180.073 82.3234L176.676 82.3182L176.678 76.2895C176.679 75.5394 176.488 74.9589 176.106 74.5479C175.724 74.1369 175.207 73.9309 174.557 73.9299C173.906 73.9289 173.389 74.1333 173.007 74.5431C172.624 74.953 172.433 75.5329 172.433 76.283L172.431 82.3117L169.013 82.3064L169.017 71.2042L172.435 71.2095L172.434 72.6742C172.774 72.1794 173.234 71.7909 173.814 71.5088C174.395 71.2266 175.053 71.0861 175.789 71.0872ZM191.707 82.5112C190.618 82.5095 189.641 82.2745 188.778 81.8061C187.915 81.3378 187.229 80.6716 186.72 79.8075C186.225 78.9435 185.977 77.9312 185.978 76.7708C185.978 75.6386 186.233 74.6413 186.743 73.7788C187.253 72.9022 187.939 72.231 188.803 71.7653C189.68 71.2997 190.664 71.0677 191.754 71.0694C192.843 71.071 193.827 71.306 194.704 71.7744C195.581 72.2428 196.268 72.9161 196.763 73.7943C197.272 74.6583 197.526 75.6564 197.526 76.7886C197.525 77.9349 197.27 78.9464 196.76 79.823C196.251 80.6855 195.55 81.3496 194.658 81.8152C193.781 82.2809 192.797 82.5129 191.707 82.5112ZM191.708 79.5605C192.359 79.5615 192.911 79.3218 193.364 78.8413C193.832 78.3609 194.065 77.6748 194.066 76.7833C194.066 75.8917 193.84 75.212 193.387 74.7443C192.948 74.2625 192.404 74.021 191.753 74.0201C191.088 74.019 190.536 74.2588 190.097 74.7392C189.658 75.2056 189.438 75.8846 189.438 76.7761C189.438 77.6677 189.65 78.3544 190.074 78.8362C190.513 79.3181 191.057 79.5595 191.708 79.5605ZM206.115 71.1339C207.417 71.1359 208.457 71.562 209.235 72.4124C210.013 73.2485 210.402 74.4025 210.401 75.8744L210.399 82.3701L207.002 82.3649L207.004 76.3361C207.005 75.5861 206.814 75.0056 206.432 74.5945C206.05 74.1835 205.533 73.9776 204.882 73.9766C204.231 73.9756 203.715 74.18 203.333 74.5898C202.95 74.9996 202.759 75.5795 202.759 76.3296L202.757 82.3584L199.339 82.3531L199.343 71.2508L202.761 71.2561L202.76 72.7208C203.1 72.226 203.56 71.8376 204.14 71.5554C204.721 71.2733 205.379 71.1328 206.115 71.1339Z" fill="#1A1A1A"/>
<path d="M59.5156 99.0463C59.5161 97.6594 59.8137 96.4287 60.4085 95.354C61.0033 94.2653 61.8314 93.4245 62.893 92.8317C63.9688 92.2248 65.186 91.9224 66.5446 91.9245C68.2004 91.9271 69.6154 92.368 70.7897 93.2472C71.9782 94.1265 72.7703 95.3235 73.166 96.8384L69.4299 96.8326C69.147 96.2378 68.7509 95.7914 68.2416 95.4934C67.7322 95.1813 67.152 95.0248 66.501 95.0238C65.4538 95.0221 64.6045 95.3888 63.9533 96.1237C63.3021 96.8586 62.9762 97.8346 62.9758 99.0517C62.9754 100.269 63.3005 101.246 63.9513 101.983C64.602 102.705 65.451 103.068 66.4982 103.069C67.1492 103.07 67.7295 102.922 68.2391 102.626C68.7487 102.316 69.1451 101.87 69.4283 101.291L73.1645 101.296C72.7677 102.81 71.9747 104.005 70.7857 104.88C69.6108 105.742 68.1954 106.171 66.5396 106.169C65.181 106.166 63.9641 105.86 62.8887 105.25C61.8275 104.64 60.9999 103.797 60.4059 102.72C59.8119 101.644 59.5151 100.419 59.5156 99.0463ZM74.5819 100.492C74.5823 99.3597 74.7949 98.3623 75.2198 97.4996C75.6588 96.637 76.2463 95.9728 76.9824 95.5069C77.7326 95.041 78.5677 94.8088 79.4875 94.8103C80.2659 94.8114 80.9522 94.9752 81.5465 95.3017C82.1408 95.6139 82.5935 96.0321 82.9047 96.5562L82.9052 94.9853L86.3229 94.9906L86.319 106.093L82.9013 106.088L82.9019 104.517C82.5762 105.026 82.1161 105.442 81.5216 105.767C80.9271 106.092 80.2407 106.253 79.4623 106.252C78.5566 106.251 77.7288 106.016 76.9789 105.548C76.2432 105.065 75.6561 104.392 75.2177 103.528C74.7934 102.65 74.5815 101.638 74.5819 100.492ZM82.9033 100.526C82.9036 99.6767 82.6703 99.0112 82.2034 98.5293C81.7366 98.0333 81.1635 97.7847 80.4842 97.7837C79.8049 97.7827 79.2246 98.0223 78.7433 98.5028C78.2761 98.9832 78.0424 99.648 78.0421 100.497C78.0418 101.346 78.275 102.026 78.7419 102.536C79.2229 103.032 79.803 103.281 80.4823 103.282C81.1616 103.283 81.7349 103.036 82.202 102.541C82.6692 102.047 82.903 101.375 82.9033 100.526ZM92.2004 96.8464C92.5969 96.2385 93.0923 95.7581 93.6868 95.4053C94.2814 95.0524 94.9466 94.8765 95.6825 94.8776L95.6812 98.4864L94.7472 98.4849C93.8981 98.4836 93.2611 98.6666 92.8365 99.0339C92.4118 99.3871 92.1993 100.024 92.199 100.943L92.1972 106.102L88.7795 106.097L88.7833 94.9944L92.201 94.9996L92.2004 96.8464ZM107.79 100.394C107.79 100.706 107.769 101.038 107.726 101.392L100.021 101.38C100.063 102.074 100.282 102.605 100.678 102.973C101.074 103.328 101.555 103.505 102.121 103.506C102.971 103.507 103.565 103.147 103.905 102.426L107.514 102.432C107.329 103.167 106.997 103.832 106.515 104.426C106.034 105.005 105.425 105.464 104.689 105.803C103.967 106.127 103.154 106.289 102.248 106.287C101.158 106.286 100.189 106.051 99.3398 105.582C98.4909 105.114 97.826 104.448 97.3451 103.584C96.8642 102.72 96.624 101.707 96.6244 100.547C96.6248 99.4006 96.8587 98.3962 97.326 97.5337C97.8075 96.6711 98.4728 96.007 99.3221 95.5413C100.171 95.0756 101.148 94.8436 102.252 94.8452C103.327 94.8469 104.283 95.0748 105.117 95.529C105.952 95.9831 106.603 96.628 107.07 97.4637C107.551 98.2994 107.791 99.2763 107.79 100.394ZM104.288 99.4973C104.288 98.903 104.09 98.4356 103.694 98.0954C103.298 97.7551 102.803 97.5845 102.208 97.5836C101.642 97.5827 101.161 97.7447 100.765 98.0696C100.368 98.3945 100.128 98.8682 100.042 99.4908L104.288 99.4973ZM120.056 100.413C120.056 100.725 120.035 101.057 119.992 101.411L112.286 101.399C112.329 102.092 112.548 102.623 112.944 102.992C113.34 103.346 113.821 103.524 114.387 103.525C115.236 103.526 115.831 103.166 116.171 102.445L119.779 102.451C119.595 103.186 119.262 103.851 118.781 104.445C118.3 105.024 117.691 105.483 116.955 105.822C116.233 106.146 115.419 106.307 114.514 106.306C113.424 106.304 112.455 106.069 111.606 105.601C110.757 105.133 110.092 104.467 109.611 103.603C109.13 102.739 108.89 101.726 108.89 100.566C108.891 99.4195 109.124 98.4151 109.592 97.5525C110.073 96.69 110.739 96.0259 111.588 95.5602C112.437 95.0944 113.414 94.8624 114.518 94.8642C115.593 94.8658 116.548 95.0937 117.383 95.5478C118.218 96.002 118.869 96.6469 119.335 97.4826C119.816 98.3183 120.057 99.2952 120.056 100.413ZM116.554 99.5162C116.554 98.9218 116.356 98.4545 115.96 98.1142C115.564 97.774 115.069 97.6034 114.474 97.6025C113.908 97.6016 113.427 97.7636 113.03 98.0885C112.634 98.4134 112.393 98.8871 112.308 99.5097L116.554 99.5162ZM125.254 96.8973C125.651 96.2894 126.146 95.809 126.741 95.4561C127.335 95.1032 128 94.9273 128.736 94.9285L128.735 98.5372L127.801 98.5358C126.952 98.5345 126.315 98.7175 125.89 99.0848C125.466 99.4379 125.253 100.074 125.253 100.994L125.251 106.153L121.833 106.147L121.837 95.0452L125.255 95.0505L125.254 96.8973ZM134.029 103.025L131.819 108.731L129.633 108.728L130.802 103.02L134.029 103.025ZM145.344 106.332C144.325 106.331 143.412 106.167 142.606 105.84C141.799 105.499 141.148 105.003 140.653 104.351C140.172 103.699 139.918 102.913 139.89 101.993L143.52 101.999C143.576 102.523 143.753 102.919 144.05 103.189C144.361 103.458 144.765 103.593 145.26 103.594C145.755 103.594 146.152 103.482 146.449 103.256C146.746 103.016 146.895 102.69 146.895 102.28C146.895 101.94 146.775 101.657 146.534 101.43C146.308 101.204 146.025 101.019 145.685 100.877C145.346 100.721 144.865 100.55 144.242 100.365C143.336 100.081 142.594 99.8039 142.013 99.5342C141.447 99.2503 140.959 98.8391 140.549 98.3007C140.139 97.7481 139.934 97.0331 139.934 96.1557C139.935 94.8537 140.402 93.8355 141.336 93.101C142.285 92.3666 143.516 92.0005 145.03 92.0028C146.573 92.0052 147.811 92.3751 148.745 93.1124C149.693 93.8498 150.202 94.8766 150.272 96.1929L146.6 96.1872C146.572 95.7343 146.402 95.3802 146.091 95.125C145.794 94.8698 145.405 94.7418 144.923 94.7411C144.513 94.7405 144.18 94.8532 143.926 95.0792C143.671 95.2911 143.543 95.6023 143.543 96.0127C143.543 96.4655 143.755 96.8196 144.18 97.075C144.604 97.3163 145.269 97.5862 146.175 97.8848C147.08 98.1834 147.809 98.4746 148.361 98.7585C148.927 99.0424 149.415 99.4536 149.825 99.992C150.25 100.516 150.462 101.196 150.461 102.031C150.461 102.823 150.256 103.545 149.845 104.195C149.434 104.846 148.847 105.368 148.082 105.763C147.318 106.144 146.405 106.334 145.344 106.332ZM151.86 100.632C151.861 99.4856 152.094 98.4812 152.562 97.6187C153.043 96.7561 153.701 96.092 154.537 95.6262C155.386 95.1605 156.355 94.9285 157.445 94.9302C158.832 94.9323 159.992 95.3021 160.926 96.0394C161.874 96.7626 162.489 97.7896 162.772 99.1203L159.163 99.1148C158.852 98.2652 158.258 97.8397 157.38 97.8383C156.758 97.8374 156.255 98.0843 155.873 98.579C155.505 99.0596 155.321 99.7457 155.32 100.637C155.32 101.543 155.504 102.244 155.872 102.74C156.253 103.221 156.756 103.463 157.378 103.464C158.256 103.465 158.85 103.041 159.162 102.193L162.771 102.198C162.487 103.486 161.871 104.504 160.923 105.252C159.974 106.001 158.814 106.374 157.441 106.372C156.351 106.37 155.382 106.135 154.533 105.667C153.698 105.199 153.04 104.533 152.56 103.669C152.093 102.805 151.86 101.792 151.86 100.632ZM171.424 94.9942C172.697 94.9961 173.716 95.4222 174.48 96.2725C175.258 97.1087 175.647 98.2627 175.646 99.7345L175.644 106.23L172.248 106.225L172.25 100.196C172.25 99.4462 172.059 98.8657 171.677 98.4547C171.295 98.0437 170.779 97.8377 170.128 97.8367C169.477 97.8357 168.96 98.0401 168.578 98.4499C168.196 98.8598 168.004 99.4397 168.004 100.19L168.002 106.219L164.584 106.213L164.589 91.481L168.007 91.4863L168.005 96.6022C168.345 96.1074 168.812 95.719 169.407 95.4369C170.001 95.1406 170.673 94.993 171.424 94.9942ZM183.057 106.412C181.967 106.41 180.991 106.175 180.128 105.706C179.265 105.238 178.579 104.572 178.069 103.708C177.574 102.844 177.327 101.832 177.328 100.671C177.328 99.539 177.583 98.5416 178.093 97.6791C178.603 96.8025 179.289 96.1313 180.153 95.6656C181.03 95.2 182.014 94.968 183.104 94.9697C184.193 94.9714 185.177 95.2064 186.054 95.6747C186.931 96.1431 187.617 96.8164 188.112 97.6946C188.622 98.5586 188.876 99.5567 188.876 100.689C188.875 101.835 188.62 102.847 188.11 103.723C187.601 104.586 186.9 105.25 186.008 105.716C185.13 106.181 184.147 106.413 183.057 106.412ZM183.058 103.461C183.709 103.462 184.261 103.222 184.714 102.742C185.181 102.261 185.415 101.575 185.415 100.684C185.416 99.792 185.19 99.1124 184.737 98.6447C184.298 98.1628 183.754 97.9214 183.103 97.9204C182.437 97.9193 181.885 98.1591 181.446 98.6396C181.008 99.1059 180.788 99.7849 180.788 100.676C180.787 101.568 180.999 102.255 181.424 102.737C181.862 103.218 182.407 103.46 183.058 103.461ZM194.112 91.5264L194.106 106.259L190.689 106.253L190.694 91.5212L194.112 91.5264ZM195.885 100.678C195.886 99.5463 196.098 98.5489 196.523 97.6863C196.962 96.8237 197.55 96.1594 198.286 95.6935C199.036 95.2277 199.871 94.9955 200.791 94.9969C201.569 94.9981 202.256 95.1619 202.85 95.4883C203.444 95.8006 203.897 96.2187 204.208 96.7428L204.209 95.172L207.626 95.1772L207.623 106.279L204.205 106.274L204.205 104.703C203.88 105.212 203.42 105.629 202.825 105.954C202.231 106.278 201.544 106.44 200.766 106.439C199.86 106.437 199.032 106.203 198.282 105.734C197.547 105.252 196.96 104.579 196.521 103.715C196.097 102.837 195.885 101.825 195.885 100.678ZM204.207 100.712C204.207 99.8634 203.974 99.1979 203.507 98.716C203.04 98.2199 202.467 97.9714 201.788 97.9703C201.108 97.9693 200.528 98.209 200.047 98.6894C199.58 99.1699 199.346 99.8347 199.346 100.684C199.345 101.533 199.579 102.213 200.045 102.723C200.526 103.219 201.107 103.467 201.786 103.468C202.465 103.469 203.038 103.223 203.506 102.728C203.973 102.233 204.207 101.562 204.207 100.712ZM213.504 97.0331C213.9 96.4252 214.396 95.9448 214.99 95.5919C215.585 95.239 216.25 95.0631 216.986 95.0642L216.985 98.6731L216.051 98.6716C215.202 98.6703 214.565 98.8533 214.14 99.2206C213.715 99.5737 213.503 100.21 213.503 101.13L213.501 106.289L210.083 106.283L210.087 95.181L213.505 95.1863L213.504 97.0331ZM223.127 106.473C222.164 106.472 221.301 106.308 220.537 105.981C219.787 105.64 219.193 105.179 218.755 104.598C218.316 104.017 218.069 103.366 218.012 102.644L221.387 102.649C221.416 103.046 221.585 103.364 221.897 103.606C222.222 103.832 222.618 103.946 223.085 103.947C223.51 103.948 223.835 103.87 224.062 103.715C224.302 103.546 224.423 103.326 224.423 103.057C224.423 102.746 224.253 102.512 223.914 102.356C223.588 102.2 223.058 102.029 222.322 101.844C221.515 101.659 220.843 101.467 220.305 101.268C219.782 101.055 219.329 100.729 218.947 100.289C218.565 99.8359 218.374 99.2271 218.375 98.4629C218.375 97.826 218.552 97.2461 218.906 96.723C219.26 96.1999 219.777 95.7903 220.456 95.4942C221.135 95.1839 221.949 95.0294 222.897 95.0309C224.284 95.033 225.381 95.3814 226.187 96.0761C226.994 96.7708 227.453 97.6843 227.566 98.8167L224.424 98.8119C224.368 98.4296 224.198 98.1251 223.915 97.8983C223.632 97.6714 223.257 97.5576 222.79 97.5569C222.394 97.5563 222.09 97.6336 221.877 97.789C221.665 97.9443 221.559 98.1564 221.559 98.4253C221.559 98.7367 221.728 98.9775 222.068 99.1479C222.408 99.3041 222.931 99.4605 223.639 99.6173C224.474 99.8309 225.146 100.044 225.655 100.257C226.179 100.456 226.631 100.789 227.013 101.257C227.409 101.711 227.614 102.319 227.628 103.084C227.628 103.735 227.444 104.315 227.076 104.823C226.708 105.332 226.184 105.735 225.505 106.031C224.825 106.327 224.033 106.475 223.127 106.473ZM236.556 95.0944C237.829 95.0963 238.848 95.5225 239.612 96.3728C240.39 97.2089 240.779 98.3629 240.778 99.8347L240.776 106.331L237.38 106.325L237.382 100.297C237.382 99.5465 237.191 98.9659 236.809 98.5549C236.427 98.1439 235.911 97.9379 235.26 97.937C234.609 97.9359 234.092 98.1403 233.71 98.5502C233.328 98.96 233.136 99.5399 233.136 100.29L233.134 106.319L229.716 106.313L229.721 91.5812L233.139 91.5865L233.137 96.7025C233.477 96.2077 233.944 95.8192 234.539 95.5371C235.133 95.2408 235.805 95.0932 236.556 95.0944ZM244.861 94.067C244.266 94.0661 243.778 93.8884 243.396 93.534C243.014 93.1796 242.823 92.7477 242.823 92.2382C242.824 91.7004 243.015 91.262 243.397 90.923C243.779 90.5698 244.267 90.3936 244.862 90.3945C245.442 90.3954 245.923 90.5731 246.305 90.9274C246.687 91.2677 246.878 91.7067 246.878 92.2445C246.878 92.754 246.687 93.1853 246.304 93.5385C245.922 93.8917 245.441 94.0679 244.861 94.067ZM246.558 95.2371L246.555 106.339L243.137 106.334L243.141 95.2319L246.558 95.2371ZM252.432 96.817C252.758 96.2939 253.211 95.8771 253.791 95.5667C254.385 95.2421 255.072 95.0804 255.85 95.0816C256.77 95.083 257.598 95.3178 258.334 95.786C259.084 96.2541 259.671 96.9202 260.095 97.7841C260.533 98.6481 260.752 99.6461 260.752 100.778C260.752 101.925 260.532 102.936 260.093 103.813C259.668 104.675 259.08 105.347 258.33 105.827C257.594 106.293 256.766 106.525 255.846 106.524C255.068 106.522 254.382 106.359 253.787 106.032C253.207 105.706 252.754 105.295 252.429 104.799L252.427 111.655L249.009 111.65L249.015 95.2409L252.432 95.2462L252.432 96.817ZM257.271 100.773C257.271 99.9238 257.038 99.2583 256.571 98.7764C256.104 98.2945 255.524 98.053 254.83 98.052C254.151 98.0509 253.578 98.2977 253.111 98.7923C252.643 99.2727 252.41 99.9375 252.409 100.787C252.409 101.636 252.642 102.308 253.109 102.804C253.576 103.3 254.149 103.549 254.828 103.55C255.508 103.551 256.081 103.304 256.548 102.81C257.029 102.301 257.27 101.622 257.271 100.773ZM266.205 103.228L263.995 108.935L261.808 108.931L262.978 103.223L266.205 103.228Z" fill="#1A1A1A"/>
<path d="M59.5078 122.955C59.5083 121.568 59.8059 120.337 60.4007 119.262C60.9954 118.173 61.8236 117.333 62.8852 116.74C63.961 116.133 65.1782 115.831 66.5368 115.833C68.1926 115.835 69.6076 116.276 70.7819 117.155C71.9704 118.035 72.7625 119.232 73.1582 120.747L69.4221 120.741C69.1392 120.146 68.7431 119.7 68.2338 119.402C67.7244 119.089 67.1442 118.933 66.4932 118.932C65.446 118.93 64.5967 119.297 63.9455 120.032C63.2942 120.767 62.9684 121.743 62.968 122.96C62.9676 124.177 63.2927 125.154 63.9435 125.891C64.5942 126.614 65.4432 126.976 66.4904 126.977C67.1414 126.978 67.7217 126.831 68.2313 126.534C68.7409 126.224 69.1373 125.778 69.4205 125.199L73.1566 125.204C72.7599 126.718 71.9669 127.913 70.7779 128.788C69.6029 129.65 68.1876 130.079 66.5318 130.077C65.1732 130.075 63.9563 129.768 62.8809 129.158C61.8197 128.548 60.9921 127.705 60.3981 126.628C59.8041 125.552 59.5073 124.327 59.5078 122.955ZM80.3036 130.162C79.2139 130.16 78.2375 129.925 77.3744 129.457C76.5113 128.988 75.8252 128.322 75.316 127.458C74.821 126.594 74.5737 125.582 74.5741 124.421C74.5745 123.289 74.8296 122.292 75.3393 121.429C75.8491 120.553 76.5357 119.881 77.3991 119.416C78.2767 118.95 79.2604 118.718 80.3501 118.72C81.4398 118.721 82.4233 118.956 83.3005 119.425C84.1778 119.893 84.8639 120.566 85.3589 121.445C85.8681 122.309 86.1225 123.307 86.1221 124.439C86.1217 125.585 85.8666 126.597 85.3568 127.473C84.8471 128.336 84.1463 129 83.2546 129.466C82.377 129.931 81.3933 130.163 80.3036 130.162ZM80.3047 127.211C80.9557 127.212 81.5077 126.972 81.9607 126.492C82.4279 126.011 82.6616 125.325 82.6619 124.434C82.6623 123.542 82.4361 122.862 81.9834 122.395C81.5448 121.913 81 121.671 80.3491 121.67C79.6839 121.669 79.1319 121.909 78.693 122.39C78.2541 122.856 78.0346 123.535 78.0342 124.426C78.0339 125.318 78.246 126.005 78.6704 126.487C79.1089 126.968 79.6537 127.21 80.3047 127.211ZM102.12 118.796C103.506 118.798 104.603 119.217 105.409 120.053C106.23 120.889 106.64 122.051 106.639 123.536L106.637 130.032L103.241 130.027L103.243 123.998C103.243 123.277 103.052 122.724 102.67 122.342C102.302 121.945 101.786 121.746 101.121 121.745C100.456 121.744 99.932 121.941 99.5497 122.337C99.1816 122.718 98.9975 123.27 98.9972 123.992L98.9951 130.02L95.5987 130.015L95.6007 123.987C95.601 123.265 95.4101 122.713 95.0282 122.33C94.6603 121.933 94.1439 121.734 93.4787 121.733C92.8136 121.732 92.2899 121.929 91.9077 122.325C91.5396 122.707 91.3554 123.258 91.3551 123.98L91.353 130.009L87.9353 130.003L87.9392 118.901L91.3569 118.906L91.3564 120.286C91.6962 119.82 92.1422 119.453 92.6942 119.185C93.2603 118.916 93.8902 118.783 94.5836 118.784C95.4327 118.785 96.1827 118.971 96.8336 119.339C97.4845 119.694 98.0008 120.205 98.3827 120.87C98.765 120.248 99.2888 119.747 99.9541 119.366C100.619 118.984 101.341 118.794 102.12 118.796ZM112.443 120.51C112.769 119.987 113.222 119.57 113.802 119.259C114.397 118.935 115.083 118.773 115.861 118.774C116.781 118.776 117.609 119.011 118.345 119.479C119.095 119.947 119.682 120.613 120.106 121.477C120.544 122.341 120.763 123.339 120.763 124.471C120.763 125.617 120.543 126.629 120.104 127.506C119.679 128.368 119.092 129.04 118.341 129.52C117.605 129.985 116.777 130.218 115.857 130.216C115.079 130.215 114.393 130.051 113.798 129.725C113.218 129.398 112.766 128.987 112.44 128.492L112.438 135.348L109.02 135.343L109.026 118.934L112.444 118.939L112.443 120.51ZM117.282 124.466C117.282 123.617 117.049 122.951 116.582 122.469C116.115 121.987 115.535 121.746 114.841 121.745C114.162 121.744 113.589 121.99 113.122 122.485C112.655 122.965 112.421 123.63 112.42 124.479C112.42 125.329 112.653 126.001 113.12 126.497C113.587 126.993 114.16 127.242 114.84 127.243C115.519 127.244 116.092 126.997 116.559 126.502C117.041 125.994 117.281 125.315 117.282 124.466ZM133.031 124.341C133.031 124.653 133.009 124.985 132.967 125.339L125.261 125.327C125.303 126.021 125.523 126.552 125.919 126.92C126.315 127.275 126.796 127.452 127.362 127.453C128.211 127.454 128.806 127.094 129.145 126.373L132.754 126.379C132.57 127.114 132.237 127.779 131.756 128.373C131.274 128.952 130.666 129.411 129.93 129.75C129.208 130.074 128.394 130.236 127.488 130.234C126.399 130.232 125.429 129.997 124.58 129.529C123.731 129.061 123.066 128.395 122.586 127.531C122.105 126.667 121.865 125.654 121.865 124.494C121.865 123.348 122.099 122.343 122.567 121.481C123.048 120.618 123.713 119.954 124.563 119.488C125.412 119.023 126.388 118.791 127.492 118.792C128.568 118.794 129.523 119.022 130.358 119.476C131.193 119.93 131.843 120.575 132.31 121.411C132.791 122.246 133.031 123.223 133.031 124.341ZM129.529 123.444C129.529 122.85 129.331 122.383 128.935 122.042C128.539 121.702 128.043 121.532 127.449 121.531C126.883 121.53 126.402 121.692 126.005 122.017C125.609 122.342 125.368 122.815 125.283 123.438L129.529 123.444ZM141.008 127.198L141.007 130.085L139.266 130.082C138.035 130.081 137.072 129.782 136.379 129.186C135.686 128.577 135.34 127.586 135.34 126.213L135.342 121.797L134.004 121.795L134.005 118.972L135.343 118.974L135.344 116.257L138.761 116.262L138.76 118.979L140.989 118.983L140.988 121.806L138.759 121.803L138.758 126.261C138.758 126.586 138.835 126.827 138.991 126.983C139.147 127.125 139.416 127.196 139.798 127.196L141.008 127.198ZM144.616 117.821C144.022 117.82 143.533 117.642 143.151 117.288C142.77 116.934 142.579 116.502 142.579 115.992C142.579 115.454 142.77 115.016 143.152 114.677C143.535 114.324 144.023 114.148 144.617 114.148C145.198 114.149 145.679 114.327 146.061 114.681C146.443 115.022 146.634 115.461 146.633 115.998C146.633 116.508 146.442 116.939 146.06 117.292C145.678 117.646 145.196 117.822 144.616 117.821ZM146.314 118.991L146.31 130.093L142.892 130.088L142.896 118.986L146.314 118.991ZM154.966 127.22L154.965 130.107L153.224 130.104C151.993 130.102 151.031 129.803 150.337 129.208C149.644 128.598 149.298 127.607 149.298 126.234L149.3 121.819L147.963 121.817L147.964 118.994L149.301 118.996L149.302 116.278L152.72 116.284L152.719 119.001L154.948 119.004L154.947 121.828L152.718 121.824L152.716 126.282C152.716 126.608 152.794 126.848 152.949 127.004C153.105 127.146 153.374 127.217 153.756 127.218L154.966 127.22ZM158.574 117.842C157.98 117.841 157.492 117.664 157.11 117.309C156.728 116.955 156.537 116.523 156.537 116.014C156.537 115.476 156.728 115.037 157.111 114.698C157.493 114.345 157.981 114.169 158.576 114.17C159.156 114.171 159.637 114.348 160.019 114.703C160.401 115.043 160.592 115.482 160.592 116.02C160.591 116.529 160.4 116.961 160.018 117.314C159.636 117.667 159.155 117.843 158.574 117.842ZM160.272 119.013L160.268 130.115L156.851 130.11L156.854 119.007L160.272 119.013ZM167.777 130.296C166.687 130.294 165.711 130.059 164.848 129.591C163.984 129.123 163.298 128.457 162.789 127.593C162.294 126.728 162.047 125.716 162.047 124.556C162.048 123.424 162.303 122.426 162.812 121.564C163.322 120.687 164.009 120.016 164.872 119.55C165.75 119.085 166.734 118.853 167.823 118.854C168.913 118.856 169.896 119.091 170.774 119.559C171.651 120.028 172.337 120.701 172.832 121.579C173.341 122.443 173.596 123.441 173.595 124.574C173.595 125.72 173.34 126.731 172.83 127.608C172.32 128.47 171.619 129.135 170.728 129.6C169.85 130.066 168.866 130.298 167.777 130.296ZM167.778 127.345C168.429 127.346 168.981 127.107 169.434 126.626C169.901 126.146 170.135 125.46 170.135 124.568C170.135 123.677 169.909 122.997 169.456 122.529C169.018 122.047 168.473 121.806 167.822 121.805C167.157 121.804 166.605 122.044 166.166 122.524C165.727 122.991 165.508 123.67 165.507 124.561C165.507 125.453 165.719 126.139 166.143 126.621C166.582 127.103 167.127 127.344 167.778 127.345ZM182.184 118.919C183.486 118.921 184.526 119.347 185.304 120.197C186.082 121.034 186.471 122.187 186.471 123.659L186.468 130.155L183.072 130.15L183.074 124.121C183.074 123.371 182.883 122.791 182.501 122.38C182.119 121.969 181.603 121.763 180.952 121.762C180.301 121.761 179.784 121.965 179.402 122.375C179.02 122.785 178.829 123.365 178.828 124.115L178.826 130.143L175.408 130.138L175.412 119.036L178.83 119.041L178.83 120.506C179.169 120.011 179.629 119.623 180.21 119.34C180.79 119.058 181.448 118.918 182.184 118.919Z" fill="#1A1A1A"/>
<path d="M190.995 127.661L188.765 133.007L187.555 133.005L189.021 127.658L190.995 127.661ZM208.344 124.312C208.343 124.666 208.322 125.034 208.28 125.416L199.576 125.402C199.632 126.478 199.993 127.321 200.658 127.93C201.337 128.526 202.158 128.824 203.12 128.826C203.898 128.827 204.549 128.651 205.073 128.298C205.597 127.931 205.965 127.436 206.177 126.814L208.13 126.817C207.833 127.878 207.245 128.733 206.368 129.382C205.49 130.032 204.407 130.356 203.119 130.354C202.072 130.352 201.138 130.125 200.318 129.67C199.511 129.202 198.874 128.543 198.408 127.693C197.941 126.829 197.708 125.831 197.708 124.699C197.709 123.567 197.935 122.577 198.389 121.728C198.842 120.88 199.472 120.23 200.279 119.778C201.099 119.326 202.048 119.101 203.123 119.103C204.156 119.105 205.069 119.333 205.861 119.787C206.654 120.227 207.262 120.843 207.686 121.636C208.125 122.429 208.344 123.321 208.344 124.312ZM206.476 123.927C206.476 123.248 206.32 122.66 206.009 122.164C205.712 121.654 205.302 121.272 204.778 121.016C204.255 120.761 203.675 120.632 203.038 120.631C202.118 120.63 201.332 120.919 200.681 121.498C200.044 122.077 199.683 122.883 199.598 123.916L206.476 123.927ZM212.942 120.774L212.94 127.206C212.94 127.744 213.053 128.126 213.279 128.353C213.505 128.566 213.902 128.672 214.468 128.673L215.784 128.675L215.783 130.204L214.17 130.201C213.151 130.2 212.387 129.965 211.878 129.497C211.382 129.029 211.135 128.265 211.135 127.203L211.138 120.771L209.715 120.769L209.716 119.283L211.138 119.285L211.139 116.547L212.943 116.55L212.943 119.288L215.787 119.292L215.787 120.778L212.942 120.774ZM217.302 124.729C217.302 123.597 217.529 122.614 217.982 121.78C218.435 120.931 219.065 120.281 219.872 119.829C220.679 119.364 221.599 119.132 222.632 119.133C223.976 119.135 225.08 119.462 225.943 120.115C226.806 120.753 227.379 121.652 227.661 122.813L225.709 122.81C225.525 122.145 225.164 121.621 224.626 121.238C224.089 120.855 223.424 120.663 222.631 120.662C221.598 120.66 220.763 121.012 220.126 121.719C219.489 122.426 219.17 123.43 219.17 124.732C219.169 126.048 219.487 127.068 220.124 127.79C220.76 128.499 221.595 128.854 222.628 128.856C223.421 128.857 224.079 128.674 224.603 128.307C225.141 127.94 225.509 127.409 225.707 126.716L227.66 126.719C227.363 127.837 226.775 128.728 225.897 129.391C225.034 130.055 223.944 130.386 222.628 130.384C221.595 130.382 220.675 130.155 219.868 129.7C219.062 129.232 218.432 128.573 217.98 127.723C217.527 126.874 217.301 125.875 217.302 124.729ZM230.639 130.354C230.299 130.353 230.009 130.233 229.768 129.992C229.528 129.751 229.408 129.453 229.408 129.1C229.408 128.76 229.528 128.47 229.769 128.23C230.01 127.99 230.3 127.87 230.639 127.87C230.979 127.871 231.262 127.991 231.488 128.232C231.729 128.473 231.849 128.764 231.849 129.103C231.849 129.457 231.729 129.754 231.488 129.994C231.261 130.235 230.978 130.354 230.639 130.354Z" fill="#1A1A1A"/>
<path fill-rule="evenodd" clip-rule="evenodd" d="M51.4766 177.921C51.4766 164.356 62.4732 153.359 76.0382 153.359H262.176C268.69 153.359 274.938 155.947 279.544 160.553C284.15 165.16 286.738 171.407 286.738 177.921C286.738 191.486 275.741 202.483 262.176 202.483H76.0382C62.4732 202.483 51.4766 191.486 51.4766 177.921Z" fill="#FF4778"/>
<path fill-rule="evenodd" clip-rule="evenodd" d="M51.4766 177.921C51.4766 164.356 62.4732 153.359 76.0382 153.359H262.176C268.69 153.359 274.938 155.947 279.544 160.553C284.15 165.16 286.738 171.407 286.738 177.921C286.738 191.486 275.741 202.483 262.176 202.483H76.0382C62.4732 202.483 51.4766 191.486 51.4766 177.921Z" stroke="#44546A" stroke-width="1.35859" stroke-miterlimit="10" stroke-linejoin="round"/>
<path d="M89.15 169.532C91.0322 169.532 92.6738 169.907 94.0749 170.657C95.4759 171.393 96.5585 172.433 97.3228 173.778C98.087 175.122 98.4691 176.672 98.4691 178.427C98.4691 180.167 98.087 181.717 97.3228 183.076C96.5585 184.42 95.4688 185.467 94.0536 186.217C92.6384 186.953 91.0039 187.321 89.15 187.321H82.4844V169.532H89.15ZM88.874 183.564C90.5156 183.564 91.7893 183.118 92.6951 182.227C93.6149 181.335 94.0749 180.068 94.0749 178.427C94.0749 176.785 93.6149 175.511 92.6951 174.606C91.7893 173.686 90.5156 173.226 88.874 173.226H86.8149V183.564H88.874ZM103.098 171.698C102.333 171.698 101.711 171.478 101.23 171.039C100.748 170.587 100.508 170.035 100.508 169.384C100.508 168.704 100.748 168.145 101.23 167.707C101.711 167.254 102.333 167.027 103.098 167.027C103.833 167.027 104.442 167.254 104.923 167.707C105.404 168.145 105.645 168.704 105.645 169.384C105.645 170.035 105.404 170.587 104.923 171.039C104.442 171.478 103.833 171.698 103.098 171.698ZM105.242 173.183V187.321H100.911V173.183H105.242ZM114.141 187.534C112.91 187.534 111.813 187.321 110.851 186.897C109.888 186.472 109.124 185.892 108.558 185.156C108.006 184.42 107.695 183.592 107.624 182.672H111.912C111.969 183.168 112.195 183.571 112.591 183.882C113.002 184.18 113.504 184.328 114.099 184.328C114.636 184.328 115.054 184.222 115.351 184.01C115.648 183.797 115.797 183.522 115.797 183.182C115.797 182.786 115.585 182.488 115.16 182.29C114.735 182.092 114.049 181.88 113.101 181.653C112.082 181.413 111.233 181.165 110.554 180.91C109.888 180.642 109.308 180.224 108.813 179.658C108.332 179.092 108.091 178.328 108.091 177.365C108.091 176.545 108.31 175.802 108.749 175.136C109.202 174.471 109.86 173.948 110.723 173.566C111.601 173.169 112.641 172.971 113.844 172.971C115.613 172.971 117.007 173.41 118.026 174.287C119.059 175.165 119.646 176.332 119.788 177.79H115.797C115.726 177.295 115.507 176.905 115.139 176.622C114.785 176.339 114.311 176.198 113.716 176.198C113.207 176.198 112.818 176.297 112.549 176.495C112.28 176.679 112.146 176.941 112.146 177.28C112.146 177.691 112.358 177.995 112.782 178.193C113.221 178.391 113.893 178.597 114.799 178.809C115.846 179.078 116.695 179.347 117.346 179.616C118.012 179.87 118.592 180.288 119.087 180.868C119.597 181.448 119.858 182.234 119.873 183.224C119.873 184.045 119.639 184.781 119.172 185.432C118.705 186.083 118.033 186.6 117.155 186.982C116.292 187.35 115.287 187.534 114.141 187.534ZM121.661 180.252C121.661 178.781 121.958 177.5 122.553 176.41C123.161 175.306 124.003 174.457 125.079 173.863C126.154 173.268 127.386 172.971 128.773 172.971C130.542 172.971 132.02 173.438 133.209 174.372C134.398 175.306 135.183 176.615 135.565 178.299H130.938C130.556 177.224 129.806 176.686 128.688 176.686C127.895 176.686 127.258 176.997 126.777 177.62C126.31 178.229 126.077 179.106 126.077 180.252C126.077 181.399 126.31 182.283 126.777 182.906C127.258 183.514 127.895 183.819 128.688 183.819C129.806 183.819 130.556 183.281 130.938 182.205H135.565C135.183 183.861 134.391 185.163 133.188 186.111C131.999 187.06 130.527 187.534 128.773 187.534C127.386 187.534 126.154 187.236 125.079 186.642C124.003 186.048 123.161 185.206 122.553 184.116C121.958 183.012 121.661 181.724 121.661 180.252ZM144.298 187.534C142.911 187.534 141.666 187.236 140.562 186.642C139.458 186.048 138.588 185.206 137.951 184.116C137.314 183.012 136.996 181.724 136.996 180.252C136.996 178.795 137.314 177.514 137.951 176.41C138.602 175.306 139.486 174.457 140.604 173.863C141.722 173.268 142.975 172.971 144.362 172.971C145.749 172.971 146.994 173.268 148.098 173.863C149.216 174.457 150.093 175.306 150.73 176.41C151.381 177.514 151.707 178.795 151.707 180.252C151.707 181.71 151.381 182.991 150.73 184.095C150.079 185.199 149.188 186.048 148.055 186.642C146.937 187.236 145.685 187.534 144.298 187.534ZM144.298 183.776C145.133 183.776 145.841 183.472 146.421 182.863C147.001 182.255 147.291 181.385 147.291 180.252C147.291 179.12 147.008 178.25 146.442 177.641C145.876 177.033 145.183 176.729 144.362 176.729C143.513 176.729 142.805 177.033 142.239 177.641C141.687 178.236 141.411 179.106 141.411 180.252C141.411 181.385 141.687 182.255 142.239 182.863C142.791 183.472 143.477 183.776 144.298 183.776ZM160.38 183.267L163.437 173.183H168.064L163.033 187.321H157.684L152.674 173.183H157.302L160.38 183.267ZM183.21 180.019C183.21 180.429 183.181 180.854 183.125 181.293H173.317C173.388 182.17 173.671 182.842 174.166 183.309C174.676 183.776 175.291 184.01 176.013 184.01C177.089 184.01 177.839 183.55 178.263 182.63H182.891C182.651 183.564 182.219 184.406 181.596 185.156C180.988 185.892 180.216 186.472 179.282 186.897C178.348 187.321 177.308 187.534 176.162 187.534C174.775 187.534 173.537 187.236 172.447 186.642C171.371 186.048 170.529 185.206 169.921 184.116C169.312 183.012 169.008 181.724 169.008 180.252C169.008 178.781 169.305 177.5 169.9 176.41C170.508 175.306 171.35 174.457 172.426 173.863C173.515 173.268 174.761 172.971 176.162 172.971C177.535 172.971 178.752 173.261 179.813 173.842C180.874 174.408 181.702 175.228 182.297 176.304C182.905 177.365 183.21 178.604 183.21 180.019ZM178.773 178.873C178.773 178.137 178.518 177.549 178.009 177.111C177.499 176.672 176.869 176.453 176.119 176.453C175.383 176.453 174.768 176.665 174.273 177.089C173.777 177.5 173.473 178.094 173.36 178.873H178.773ZM189.822 175.54C190.332 174.761 190.961 174.153 191.711 173.714C192.476 173.261 193.325 173.035 194.259 173.035V177.62H193.07C191.994 177.62 191.181 177.854 190.629 178.321C190.091 178.774 189.822 179.587 189.822 180.762V187.321H185.492V173.183H189.822V175.54ZM217.634 187.321H213.304L206.044 176.346V187.321H201.713V169.532H206.044L213.304 180.55V169.532H217.634V187.321ZM227.206 187.534C225.819 187.534 224.573 187.236 223.47 186.642C222.366 186.048 221.495 185.206 220.859 184.116C220.222 183.012 219.903 181.724 219.903 180.252C219.903 178.795 220.222 177.514 220.859 176.41C221.51 175.306 222.394 174.457 223.512 173.863C224.63 173.268 225.882 172.971 227.269 172.971C228.656 172.971 229.902 173.268 231.006 173.863C232.124 174.457 233.001 175.306 233.638 176.41C234.289 177.514 234.614 178.795 234.614 180.252C234.614 181.71 234.289 182.991 233.638 184.095C232.987 185.199 232.095 186.048 230.963 186.642C229.845 187.236 228.593 187.534 227.206 187.534ZM227.206 183.776C228.041 183.776 228.748 183.472 229.329 182.863C229.909 182.255 230.199 181.385 230.199 180.252C230.199 179.12 229.916 178.25 229.35 177.641C228.784 177.033 228.09 176.729 227.269 176.729C226.42 176.729 225.713 177.033 225.147 177.641C224.595 178.236 224.319 179.106 224.319 180.252C224.319 181.385 224.595 182.255 225.147 182.863C225.699 183.472 226.385 183.776 227.206 183.776ZM257.213 173.183L253.392 187.321H248.595L246.366 178.151L244.073 187.321H239.297L235.454 173.183H239.785L241.78 183.288L244.179 173.183H248.764L251.163 183.246L253.137 173.183H257.213Z" fill="white"/>
</svg>
