<svg width="313" height="355" viewBox="0 0 313 355" fill="none" xmlns="http://www.w3.org/2000/svg">
<path fill-rule="evenodd" clip-rule="evenodd" d="M16.6426 73.7589L259.089 49.1256C263.742 48.6527 268.393 50.0479 272.018 53.004C275.643 55.9601 277.946 60.2352 278.419 64.8886L304.962 325.908C304.962 325.909 304.961 325.91 304.96 325.911L27.4239 354.107C27.4226 354.107 27.4214 354.106 27.4213 354.105L0.880909 93.0875C-0.104536 83.3972 6.95229 74.7435 16.6426 73.7589Z" fill="#EFC083"/>
<path fill-rule="evenodd" clip-rule="evenodd" d="M16.6426 73.7589L259.089 49.1256C263.742 48.6527 268.393 50.0479 272.018 53.004C275.643 55.9601 277.946 60.2352 278.419 64.8886L304.962 325.908C304.962 325.909 304.961 325.91 304.96 325.911L27.4239 354.107C27.4226 354.107 27.4214 354.106 27.4213 354.105L0.880909 93.0875C-0.104536 83.3972 6.95229 74.7435 16.6426 73.7589Z" stroke="#1A1A1A" stroke-width="1.35859" stroke-miterlimit="10" stroke-linejoin="round"/>
<path fill-rule="evenodd" clip-rule="evenodd" d="M48.7915 2.44528L292.509 1.13697C297.187 1.11185 301.683 2.94604 305.009 6.23605C308.335 9.52602 310.218 14.0024 310.243 18.6802L311.987 336.904L311.984 336.906L32.9936 338.401L32.9913 338.399L31.2503 20.1779C31.1969 10.4367 39.0503 2.49756 48.7915 2.44528Z" fill="white"/>
<path fill-rule="evenodd" clip-rule="evenodd" d="M48.7915 2.44528L292.509 1.13697C297.187 1.11185 301.683 2.94604 305.009 6.23605C308.335 9.52602 310.218 14.0024 310.243 18.6802L311.987 336.904C311.987 336.905 311.986 336.906 311.984 336.906L32.9936 338.401C32.9923 338.401 32.9913 338.4 32.9913 338.399L31.2503 20.1779C31.1969 10.4367 39.0503 2.49756 48.7915 2.44528Z" stroke="#1A1A1A" stroke-width="1.35859" stroke-miterlimit="10" stroke-linejoin="round"/>
<path d="M67.9904 45.5276L61.9408 45.5866L60.848 48.6754L58.9375 48.694L63.8027 34.8478L65.9041 34.8273L71.037 48.5761L69.1265 48.5947L67.9904 45.5276ZM67.4443 44.0469L64.8661 37.0664L62.4347 44.0957L67.4443 44.0469ZM72.4913 43.0849C72.4794 41.9527 72.6956 40.967 73.1397 40.1277C73.5836 39.2742 74.2065 38.6171 75.0084 38.1564C75.8101 37.6815 76.7275 37.4391 77.7606 37.429C79.105 37.4159 80.2121 37.7306 81.0821 38.3732C81.9521 39.0016 82.5346 39.8946 82.8298 41.0522L80.877 41.0713C80.6861 40.4079 80.3197 39.8879 79.778 39.511C79.2362 39.1342 78.5691 38.9496 77.7765 38.9573C76.7436 38.9674 75.9123 39.3293 75.2829 40.0431C74.6535 40.7569 74.3456 41.7647 74.3593 43.0666C74.373 44.3827 74.7021 45.3985 75.3464 46.114C75.9907 46.8153 76.8294 47.161 77.8625 47.1509C78.6549 47.1432 79.3109 46.9528 79.8307 46.5798C80.3646 46.2066 80.727 45.6723 80.9178 44.977L82.8708 44.958C82.5853 46.0788 82.0073 46.9761 81.1369 47.6497C80.2807 48.3233 79.1945 48.6664 77.8784 48.6793C76.8454 48.6893 75.9232 48.4719 75.1118 48.0269C74.3002 47.5678 73.6636 46.9159 73.2019 46.0712C72.7402 45.2265 72.5033 44.2311 72.4913 43.0849ZM84.5773 42.967C84.5654 41.8349 84.7815 40.8492 85.2256 40.0099C85.6696 39.1564 86.2925 38.4993 87.0943 38.0386C87.8961 37.5638 88.8135 37.3213 89.8465 37.3112C91.1909 37.2981 92.2982 37.6128 93.1682 38.2554C94.0381 38.8838 94.6207 39.7768 94.9159 40.9344L92.9629 40.9535C92.7719 40.2901 92.4056 39.7701 91.8638 39.3932C91.3221 39.0164 90.655 38.8318 89.8626 38.8395C88.8295 38.8496 87.9983 39.2115 87.369 39.9253C86.7395 40.6391 86.4316 41.6469 86.4452 42.9488C86.459 44.2649 86.7881 45.2807 87.4325 45.9962C88.0767 46.6976 88.9153 47.0432 89.9483 47.0331C90.7408 47.0254 91.397 46.835 91.9167 46.462C92.4506 46.0888 92.813 45.5545 93.0038 44.8592L94.9567 44.8402C94.6712 45.961 94.0933 46.8583 93.2229 47.5319C92.3666 48.2054 91.2804 48.5486 89.9644 48.5614C88.9313 48.5715 88.0091 48.3541 87.1978 47.9091C86.3863 47.45 85.7497 46.7981 85.288 45.9534C84.8261 45.1087 84.5893 44.1133 84.5773 42.967ZM107.294 42.3423C107.297 42.6961 107.28 43.0642 107.242 43.4467L98.5386 43.5315C98.6064 44.6065 98.9761 45.4449 99.6476 46.047C100.333 46.6347 101.157 46.9239 102.119 46.9145C102.898 46.9069 103.547 46.7237 104.067 46.3648C104.586 45.9918 104.949 45.4929 105.155 44.8681L107.108 44.8491C106.822 45.9134 106.243 46.7752 105.373 47.4347C104.502 48.0942 103.423 48.4303 102.135 48.4428C101.088 48.453 100.152 48.2357 99.3261 47.7909C98.5146 47.3317 97.8709 46.6799 97.3951 45.8354C96.9191 44.9767 96.6751 43.9813 96.6632 42.8492C96.6514 41.7171 96.8675 40.7243 97.3115 39.8708C97.7554 39.0174 98.3783 38.3603 99.1802 37.8996C99.9962 37.4387 100.942 37.2031 102.017 37.1926C103.05 37.1825 103.966 37.4 104.763 37.8451C105.56 38.2761 106.175 38.8858 106.608 39.6741C107.055 40.4623 107.283 41.3517 107.294 42.3423ZM105.422 41.9784C105.415 41.2991 105.253 40.7134 104.936 40.2211C104.634 39.7146 104.219 39.3365 103.693 39.0869C103.167 38.8372 102.585 38.7155 101.948 38.7217C101.029 38.7307 100.246 39.0285 99.6014 39.615C98.9707 40.2014 98.6183 41.0116 98.5442 42.0454L105.422 41.9784ZM113.61 48.331C112.775 48.3391 112.023 48.2049 111.355 47.9284C110.687 47.6518 110.159 47.2607 109.772 46.755C109.385 46.2493 109.166 45.6641 109.117 44.9994L110.985 44.9812C111.047 45.5184 111.306 45.9616 111.763 46.311C112.234 46.6461 112.837 46.81 113.573 46.8029C114.266 46.7961 114.809 46.6422 115.202 46.3412C115.595 46.026 115.789 45.6349 115.785 45.1679C115.78 44.6868 115.564 44.335 115.137 44.1128C114.71 43.8905 114.049 43.6705 113.155 43.4527C112.347 43.2483 111.686 43.0425 111.175 42.8352C110.663 42.6137 110.221 42.2925 109.848 41.8716C109.476 41.4365 109.286 40.8651 109.278 40.1576C109.273 39.6057 109.43 39.0946 109.751 38.6245C110.085 38.1542 110.556 37.7816 111.161 37.5068C111.781 37.2319 112.48 37.0906 113.259 37.083C114.461 37.0713 115.434 37.3661 116.176 37.9674C116.933 38.5686 117.345 39.3996 117.412 40.4604L115.608 40.478C115.56 39.9124 115.321 39.4618 114.893 39.1263C114.479 38.7765 113.918 38.6051 113.211 38.612C112.56 38.6183 112.045 38.7649 111.666 39.0516C111.286 39.3242 111.099 39.6869 111.104 40.1398C111.108 40.4936 111.224 40.7896 111.453 41.028C111.696 41.2521 111.988 41.4332 112.329 41.5714C112.684 41.7095 113.174 41.8604 113.799 42.0241C114.593 42.2287 115.232 42.4347 115.716 42.6423C116.213 42.8356 116.641 43.1357 116.999 43.5427C117.357 43.9496 117.547 44.4855 117.568 45.1505C117.574 45.7449 117.41 46.2842 117.075 46.7687C116.755 47.253 116.291 47.6326 115.686 47.9074C115.094 48.1821 114.402 48.3233 113.61 48.331ZM124.003 48.2297C123.168 48.2378 122.417 48.1036 121.749 47.8271C121.081 47.5505 120.553 47.1594 120.166 46.6537C119.778 46.148 119.56 45.5627 119.51 44.8981L121.378 44.8799C121.44 45.4171 121.7 45.8603 122.157 46.2097C122.627 46.5448 123.23 46.7087 123.966 46.7015C124.66 46.6948 125.203 46.5409 125.596 46.2399C125.989 45.9247 126.183 45.5336 126.178 45.0666C126.173 44.5854 125.957 44.2337 125.53 44.0115C125.103 43.7892 124.443 43.5692 123.549 43.3514C122.74 43.147 122.08 42.9412 121.568 42.7338C121.056 42.5124 120.614 42.1912 120.242 41.7703C119.869 41.3352 119.679 40.7638 119.672 40.0563C119.666 39.5044 119.824 38.9933 120.144 38.5232C120.479 38.0529 120.949 37.6803 121.555 37.4055C122.175 37.1306 122.874 36.9893 123.652 36.9817C124.855 36.97 125.827 37.2648 126.57 37.8661C127.326 38.4673 127.738 39.2983 127.806 40.3591L126.002 40.3767C125.953 39.8111 125.715 39.3605 125.287 39.025C124.873 38.6752 124.312 38.5038 123.604 38.5107C122.953 38.517 122.438 38.6636 122.059 38.9503C121.68 39.2229 121.493 39.5856 121.497 40.0385C121.501 40.3922 121.617 40.6883 121.846 40.9267C122.089 41.1508 122.381 41.3319 122.723 41.4701C123.078 41.6082 123.568 41.7591 124.192 41.9228C124.987 42.1274 125.626 42.3334 126.109 42.541C126.607 42.7343 127.034 43.0344 127.392 43.4413C127.75 43.8483 127.94 44.3842 127.961 45.0492C127.967 45.6436 127.803 46.183 127.469 46.6674C127.148 47.1517 126.685 47.5313 126.079 47.8061C125.488 48.0808 124.796 48.222 124.003 48.2297ZM135.111 42.4533C135.1 41.3353 135.316 40.3567 135.76 39.5173C136.204 38.6639 136.82 38.0068 137.607 37.5462C138.395 37.0715 139.27 36.8295 140.232 36.8201C141.194 36.8107 142.024 37.0079 142.722 37.4115C143.434 37.815 143.97 38.3263 144.33 38.9455L144.309 36.9502L146.135 36.9324L146.249 47.843L144.424 47.8608L144.402 45.823C144.041 46.4634 143.509 46.9993 142.806 47.4308C142.103 47.848 141.277 48.0613 140.329 48.0705C139.366 48.0799 138.487 47.855 137.689 47.3957C136.906 46.9222 136.283 46.256 135.821 45.3972C135.36 44.5384 135.123 43.5571 135.111 42.4533ZM144.366 42.3843C144.358 41.5635 144.18 40.8505 143.835 40.2453C143.503 39.64 143.052 39.1773 142.483 38.8574C141.913 38.5374 141.289 38.3808 140.61 38.3874C139.93 38.394 139.309 38.5628 138.747 38.8938C138.198 39.2105 137.764 39.6747 137.445 40.2864C137.126 40.898 136.971 41.6143 136.979 42.435C136.988 43.27 137.158 43.9972 137.49 44.6167C137.822 45.222 138.266 45.6847 138.821 46.0048C139.391 46.3248 140.015 46.4814 140.694 46.4748C141.373 46.4682 141.994 46.2994 142.557 45.9684C143.12 45.6374 143.561 45.1661 143.88 44.5544C144.213 43.9284 144.375 43.205 144.366 42.3843ZM154.52 36.6596C155.836 36.6468 156.908 37.0397 157.738 37.8383C158.581 38.6226 159.01 39.7719 159.026 41.2861L159.094 47.7178L157.289 47.7354L157.225 41.5584C157.213 40.4687 156.929 39.6436 156.371 39.0829C155.827 38.508 155.088 38.225 154.154 38.2341C153.192 38.2435 152.431 38.5482 151.871 39.148C151.325 39.7477 151.058 40.6207 151.07 41.767L151.133 47.7954L149.308 47.8132L149.194 36.9026L151.019 36.8848L151.035 38.4344C151.383 37.879 151.86 37.4498 152.466 37.1467C153.085 36.8293 153.77 36.6669 154.52 36.6596ZM161.314 42.1979C161.302 41.0799 161.519 40.1013 161.963 39.2619C162.407 38.4085 163.023 37.7514 163.81 37.2908C164.598 36.8161 165.48 36.574 166.456 36.5645C167.305 36.5562 168.093 36.7467 168.819 37.1359C169.559 37.5108 170.13 38.0147 170.533 38.6477L170.472 32.874L172.298 32.8562L172.452 47.5876L170.627 47.6054L170.605 45.5464C170.244 46.201 169.712 46.7439 169.009 47.1754C168.32 47.5925 167.501 47.8057 166.553 47.8149C165.591 47.8243 164.711 47.5994 163.913 47.1401C163.116 46.6667 162.486 46.0006 162.024 45.1418C161.562 44.283 161.326 43.3017 161.314 42.1979ZM170.569 42.1289C170.561 41.3081 170.383 40.5951 170.037 39.9899C169.706 39.3846 169.255 38.9219 168.685 38.602C168.116 38.282 167.492 38.1254 166.812 38.132C166.133 38.1386 165.512 38.3074 164.949 38.6384C164.401 38.9551 163.967 39.4193 163.648 40.031C163.329 40.6426 163.174 41.3589 163.182 42.1796C163.191 43.0146 163.361 43.7418 163.693 44.3613C164.025 44.9666 164.469 45.4293 165.024 45.7494C165.593 46.0694 166.218 46.226 166.897 46.2194C167.576 46.2128 168.197 46.044 168.76 45.713C169.323 45.382 169.763 44.9107 170.083 44.299C170.416 43.673 170.578 42.9496 170.569 42.1289ZM185.584 47.6295C184.565 47.6394 183.636 47.422 182.796 46.9773C181.97 46.5183 181.312 45.8666 180.822 45.0222C180.346 44.1636 180.102 43.1682 180.091 42.0361C180.079 40.9181 180.309 39.9323 180.781 39.0785C181.267 38.2105 181.926 37.5459 182.756 37.085C183.586 36.624 184.518 36.3885 185.551 36.3784C186.584 36.3683 187.52 36.5856 188.36 37.0303C189.214 37.4749 189.886 38.1194 190.376 38.9638C190.866 39.8082 191.117 40.7964 191.129 41.9285C191.14 43.0606 190.903 44.0607 190.417 44.9287C189.93 45.7826 189.265 46.4472 188.421 46.9225C187.577 47.3836 186.631 47.6192 185.584 47.6295ZM185.567 46.0375C186.218 46.0311 186.825 45.8766 187.388 45.5739C187.965 45.2569 188.427 44.7924 188.774 44.1805C189.122 43.5685 189.291 42.8239 189.282 41.9465C189.273 41.0691 189.088 40.3279 188.728 39.7228C188.382 39.1176 187.924 38.6692 187.355 38.3776C186.8 38.0858 186.197 37.943 185.546 37.9494C184.881 37.9559 184.274 38.1104 183.725 38.4129C183.176 38.7155 182.742 39.1726 182.423 39.7843C182.104 40.396 181.949 41.1405 181.958 42.0179C181.968 42.9094 182.138 43.6578 182.47 44.2632C182.802 44.8685 183.238 45.3171 183.779 45.609C184.32 45.901 184.916 46.0438 185.567 46.0375ZM195.3 38.2152C195.605 37.5895 196.052 37.104 196.643 36.7585C197.234 36.4131 197.954 36.2363 198.803 36.228L198.823 38.096L198.334 38.1007C196.311 38.1204 195.31 39.227 195.333 41.4205L195.396 47.364L193.57 47.3818L193.456 36.4712L195.281 36.4534L195.3 38.2152ZM200.26 41.8183C200.248 40.7003 200.465 39.7217 200.909 38.8823C201.353 38.0288 201.968 37.3718 202.756 36.9112C203.544 36.4365 204.426 36.1944 205.402 36.1849C206.251 36.1766 207.039 36.3671 207.765 36.7563C208.505 37.1312 209.076 37.6351 209.479 38.2681L209.418 32.4943L211.244 32.4766L211.398 47.208L209.573 47.2258L209.551 45.1668C209.19 45.8213 208.658 46.3643 207.955 46.7958C207.266 47.2129 206.447 47.4261 205.499 47.4354C204.537 47.4447 203.657 47.2198 202.859 46.7605C202.062 46.2871 201.432 45.621 200.97 44.7622C200.508 43.9034 200.272 42.9221 200.26 41.8183ZM209.515 41.7493C209.507 40.9285 209.329 40.2155 208.983 39.6103C208.652 39.005 208.201 38.5424 207.631 38.2224C207.062 37.9024 206.438 37.7458 205.758 37.7524C205.079 37.759 204.458 37.9278 203.895 38.2588C203.347 38.5755 202.913 39.0397 202.594 39.6514C202.275 40.263 202.12 40.9793 202.128 41.8001C202.137 42.635 202.307 43.3622 202.639 43.9817C202.971 44.587 203.415 45.0497 203.97 45.3698C204.539 45.6898 205.164 45.8464 205.843 45.8398C206.522 45.8332 207.143 45.6644 207.706 45.3334C208.268 45.0024 208.709 44.5311 209.028 43.9194C209.362 43.2934 209.524 42.5701 209.515 41.7493ZM224.351 41.2013C224.354 41.5551 224.337 41.9232 224.299 42.3058L215.596 42.3906C215.663 43.4655 216.033 44.304 216.705 44.906C217.39 45.4938 218.214 45.7829 219.176 45.7736C219.955 45.766 220.604 45.5827 221.123 45.2238C221.643 44.8508 222.006 44.3519 222.212 43.7272L224.165 43.7082C223.879 44.7724 223.3 45.6343 222.43 46.2938C221.559 46.9533 220.48 47.2893 219.192 47.3019C218.145 47.3121 217.209 47.0948 216.383 46.6499C215.572 46.1908 214.928 45.539 214.452 44.6945C213.976 43.8358 213.732 42.8404 213.72 41.7083C213.708 40.5762 213.924 39.5834 214.368 38.7299C214.812 37.8764 215.435 37.2193 216.237 36.7586C217.053 36.2978 217.999 36.0621 219.074 36.0516C220.107 36.0416 221.023 36.2591 221.82 36.7042C222.617 37.1352 223.232 37.7448 223.665 38.5331C224.112 39.3213 224.34 40.2107 224.351 41.2013ZM222.479 40.8375C222.472 40.1582 222.31 39.5724 221.993 39.0802C221.691 38.5736 221.276 38.1956 220.75 37.9459C220.224 37.6963 219.642 37.5746 219.005 37.5808C218.086 37.5898 217.303 37.8875 216.658 38.4741C216.028 39.0605 215.675 39.8706 215.601 40.9045L222.479 40.8375ZM228.531 37.8913C228.836 37.2656 229.284 36.7801 229.875 36.4346C230.466 36.0892 231.185 35.9124 232.034 35.9041L232.054 37.772L231.566 37.7768C229.542 37.7965 228.542 38.9031 228.565 41.0966L228.627 47.0401L226.802 47.0579L226.687 36.1473L228.513 36.1295L228.531 37.8913ZM244.301 47.0571C243.282 47.0671 242.353 46.8497 241.513 46.405C240.688 45.946 240.03 45.2943 239.54 44.4499C239.064 43.5913 238.82 42.5959 238.808 41.4638C238.796 40.3458 239.027 39.36 239.499 38.5062C239.985 37.6381 240.643 36.9736 241.474 36.5127C242.304 36.0517 243.235 35.8161 244.268 35.8061C245.301 35.796 246.238 36.0133 247.078 36.458C247.931 36.9026 248.603 37.5471 249.093 38.3914C249.583 39.2358 249.834 40.2241 249.846 41.3562C249.858 42.4883 249.621 43.4884 249.134 44.3564C248.648 45.2103 247.983 45.8749 247.139 46.3502C246.294 46.8113 245.349 47.0469 244.301 47.0571ZM244.285 45.4651C244.936 45.4588 245.543 45.3042 246.106 45.0016C246.682 44.6846 247.145 44.2201 247.492 43.6082C247.839 42.9962 248.009 42.2515 247.999 41.3742C247.99 40.4968 247.805 39.7556 247.445 39.1505C247.099 38.5453 246.642 38.0969 246.073 37.8053C245.517 37.5135 244.915 37.3707 244.264 37.3771C243.599 37.3836 242.992 37.5381 242.443 37.8406C241.894 38.1432 241.46 38.6003 241.141 39.212C240.822 39.8236 240.667 40.5682 240.676 41.4456C240.685 42.3371 240.856 43.0855 241.188 43.6908C241.52 44.2962 241.956 44.7448 242.497 45.0368C243.038 45.3287 243.634 45.4715 244.285 45.4651ZM261.853 35.8045L261.967 46.7151L260.163 46.7327L260.146 45.1195C259.798 45.6748 259.314 46.1183 258.695 46.4498C258.09 46.7671 257.419 46.9293 256.684 46.9365C255.834 46.9447 255.068 46.7753 254.385 46.4281C253.703 46.081 253.159 45.5555 252.756 44.8518C252.366 44.148 252.166 43.2937 252.156 42.289L252.089 35.8997L253.872 35.8823L253.936 42.0381C253.947 43.1136 254.225 43.9388 254.769 44.5138C255.327 45.0745 256.073 45.3502 257.006 45.3411C257.983 45.3316 258.744 45.027 259.29 44.4272C259.85 43.8274 260.123 42.9543 260.111 41.8081L260.049 35.8221L261.853 35.8045ZM266.761 37.5187C267.065 36.893 267.513 36.4075 268.104 36.062C268.695 35.7166 269.415 35.5398 270.264 35.5315L270.283 37.3994L269.795 37.4042C267.771 37.4239 266.771 38.5305 266.794 40.7239L266.856 46.6675L265.031 46.6852L264.917 35.7747L266.742 35.7569L266.761 37.5187Z" fill="#1A1A1A"/>
<path d="M69.6238 61.5908L69.738 72.5014L67.9338 72.519L67.9169 70.9058C67.5689 71.4611 67.0853 71.9045 66.4661 72.2361C65.8608 72.5533 65.1902 72.7156 64.4544 72.7228C63.6053 72.731 62.8393 72.5616 62.1563 72.2144C61.4734 71.8673 60.9301 71.3418 60.5264 70.6381C60.1369 69.9343 59.9369 69.08 59.9264 68.0753L59.8594 61.686L61.6425 61.6686L61.7069 67.8244C61.7182 68.8999 61.9957 69.7251 62.5396 70.3001C63.0974 70.8607 63.8433 71.1365 64.7773 71.1274C65.7538 71.1179 66.5149 70.8133 67.0605 70.2135C67.6204 69.6137 67.8943 68.7406 67.8822 67.5944L67.8196 61.6084L69.6238 61.5908ZM74.5341 63.5597C74.8812 62.9336 75.4065 62.4119 76.1098 61.9946C76.8129 61.5632 77.6386 61.3429 78.5866 61.3336C79.549 61.3242 80.4288 61.5492 81.2262 62.0084C82.0234 62.4535 82.6529 63.0984 83.1147 63.9431C83.5762 64.7736 83.8128 65.7479 83.8245 66.8658C83.8361 67.9696 83.62 68.9553 83.1762 69.8229C82.7324 70.6906 82.1168 71.3688 81.3294 71.8577C80.5417 72.3324 79.6668 72.5745 78.7046 72.5839C77.7705 72.593 76.9476 72.3957 76.2358 71.9923C75.5238 71.5746 74.9805 71.0563 74.6061 70.4372L74.6813 77.6331L72.8559 77.6509L72.6874 61.561L74.5129 61.5431L74.5341 63.5597ZM81.9778 66.8838C81.9692 66.063 81.7919 65.35 81.446 64.7448C81.114 64.1395 80.6635 63.6839 80.0942 63.3781C79.5247 63.0582 78.9003 62.9015 78.2211 62.9081C77.556 62.9146 76.9421 63.0833 76.3794 63.4143C75.8168 63.7453 75.3689 64.2238 75.0358 64.8498C74.7167 65.4615 74.5613 66.1706 74.5697 66.9772C74.5784 67.798 74.7487 68.5181 75.0807 69.1376C75.4267 69.7428 75.8844 70.2054 76.4539 70.5253C77.0234 70.8453 77.6407 71.002 78.3057 70.9956C78.985 70.9889 79.606 70.8201 80.1686 70.4891C80.7313 70.1581 81.1721 69.6868 81.4912 69.0751C81.8244 68.4492 81.9866 67.7187 81.9778 66.8838ZM85.5247 66.8492C85.513 65.7313 85.7292 64.7526 86.1732 63.9133C86.6172 63.0598 87.233 62.4028 88.0207 61.9422C88.8083 61.4675 89.6903 61.2254 90.6667 61.2159C91.5158 61.2076 92.3033 61.398 93.0292 61.7872C93.769 62.1622 94.3404 62.6661 94.7433 63.299L94.683 57.5253L96.5084 57.5075L96.6628 72.239L94.8372 72.2568L94.8156 70.1978C94.4545 70.8523 93.9224 71.3953 93.2192 71.8267C92.5302 72.2439 91.7116 72.4571 90.7634 72.4663C89.8011 72.4757 88.9213 72.2507 88.124 71.7915C87.3264 71.3181 86.6967 70.6519 86.2349 69.7931C85.7729 68.9343 85.5362 67.953 85.5247 66.8492ZM94.7798 66.7802C94.7712 65.9595 94.5939 65.2465 94.248 64.6413C93.916 64.036 93.4654 63.5733 92.896 63.2534C92.3265 62.9334 91.7021 62.7767 91.023 62.7833C90.3437 62.79 89.7227 62.9588 89.16 63.2898C88.6114 63.6065 88.1775 64.0707 87.8583 64.6823C87.5392 65.294 87.384 66.0102 87.3926 66.831C87.4014 67.6659 87.5717 68.3931 87.9038 69.0126C88.2356 69.6179 88.6791 70.0807 89.2345 70.4008C89.804 70.7207 90.4283 70.8774 91.1075 70.8708C91.7868 70.8642 92.4078 70.6954 92.9705 70.3644C93.5331 70.0334 93.974 69.562 94.2931 68.9503C94.6262 68.3244 94.7884 67.601 94.7798 66.7802ZM98.9845 66.718C98.9727 65.6001 99.1889 64.6214 99.6331 63.7821C100.077 62.9286 100.693 62.2716 101.481 61.811C102.268 61.3363 103.143 61.0943 104.105 61.0849C105.068 61.0755 105.898 61.2726 106.595 61.6763C107.307 62.0797 107.843 62.5911 108.204 63.2103L108.183 61.215L110.008 61.1972L110.123 72.1078L108.297 72.1256L108.276 70.0878C107.914 70.7282 107.382 71.2641 106.679 71.6956C105.976 72.1128 105.15 72.3261 104.202 72.3353C103.24 72.3447 102.36 72.1198 101.563 71.6605C100.779 71.1869 100.157 70.5208 99.6946 69.6619C99.2328 68.8031 98.9961 67.8218 98.9845 66.718ZM108.24 66.649C108.231 65.8283 108.054 65.1153 107.708 64.5101C107.376 63.9048 106.925 63.4421 106.356 63.1222C105.786 62.8022 105.162 62.6455 104.483 62.6522C103.803 62.6588 103.183 62.8276 102.62 63.1586C102.071 63.4753 101.637 63.9395 101.318 64.5512C100.999 65.1628 100.844 65.879 100.853 66.6998C100.861 67.5348 101.032 68.262 101.364 68.8814C101.695 69.4868 102.139 69.9495 102.694 70.2696C103.264 70.5895 103.888 70.7462 104.567 70.7396C105.247 70.733 105.868 70.5641 106.43 70.2331C106.993 69.9021 107.434 69.4308 107.753 68.8192C108.086 68.1932 108.248 67.4698 108.24 66.649ZM115.29 62.6317L115.357 69.0634C115.363 69.6012 115.48 69.9822 115.709 70.2064C115.938 70.4165 116.335 70.5187 116.901 70.5132L118.217 70.5004L118.233 72.0287L116.62 72.0445C115.601 72.0544 114.835 71.8283 114.32 71.3663C113.82 70.9042 113.564 70.1424 113.553 69.0811L113.486 62.6493L112.064 62.6632L112.048 61.1773L113.47 61.1634L113.442 58.4252L115.246 58.4076L115.274 61.1458L118.119 61.1181L118.134 62.604L115.29 62.6317ZM130.323 66.0305C130.326 66.3842 130.309 66.7524 130.271 67.1349L121.568 67.2197C121.635 68.2946 122.005 69.1331 122.677 69.7352C123.362 70.3229 124.186 70.6121 125.148 70.6027C125.927 70.5951 126.576 70.4118 127.096 70.053C127.615 69.6799 127.978 69.181 128.184 68.5563L130.137 68.5373C129.851 69.6015 129.272 70.4634 128.402 71.1229C127.531 71.7824 126.452 72.1185 125.164 72.131C124.117 72.1412 123.181 71.9239 122.355 71.479C121.544 71.0199 120.9 70.3681 120.424 69.5236C119.948 68.6649 119.704 67.6695 119.692 66.5374C119.68 65.4053 119.896 64.4125 120.34 63.559C120.784 62.7056 121.407 62.0485 122.209 61.5877C123.025 61.1269 123.971 60.8912 125.046 60.8807C126.079 60.8707 126.995 61.0882 127.792 61.5333C128.589 61.9643 129.204 62.574 129.637 63.3623C130.084 64.1505 130.312 65.0399 130.323 66.0305ZM128.451 65.6666C128.444 64.9873 128.282 64.4016 127.965 63.9093C127.663 63.4028 127.248 63.0247 126.722 62.7751C126.196 62.5254 125.614 62.4037 124.978 62.4099C124.058 62.4189 123.275 62.7167 122.63 63.3032C122 63.8896 121.647 64.6998 121.573 65.7336L128.451 65.6666ZM132.037 66.3959C132.025 65.2779 132.241 64.2993 132.685 63.46C133.129 62.6065 133.745 61.9494 134.533 61.4889C135.32 61.0142 136.202 60.772 137.179 60.7625C138.028 60.7542 138.816 60.9447 139.541 61.3339C140.281 61.7088 140.853 62.2127 141.256 62.8457L141.195 57.072L143.021 57.0542L143.175 71.7856L141.349 71.8034L141.328 69.7444C140.967 70.399 140.435 70.9419 139.731 71.3734C139.042 71.7905 138.224 72.0037 137.276 72.0129C136.313 72.0223 135.433 71.7974 134.636 71.3381C133.839 70.8647 133.209 70.1986 132.747 69.3398C132.285 68.481 132.048 67.4997 132.037 66.3959ZM141.292 66.3269C141.283 65.5061 141.106 64.7931 140.76 64.1879C140.428 63.5826 139.978 63.12 139.408 62.8C138.839 62.48 138.214 62.3234 137.535 62.33C136.856 62.3366 136.235 62.5054 135.672 62.8364C135.124 63.1531 134.69 63.6173 134.371 64.229C134.052 64.8407 133.896 65.5569 133.905 66.3776C133.914 67.2126 134.084 67.9398 134.416 68.5593C134.748 69.1646 135.191 69.6273 135.747 69.9474C136.316 70.2674 136.941 70.424 137.62 70.4174C138.299 70.4108 138.92 70.242 139.483 69.911C140.045 69.58 140.486 69.1087 140.805 68.497C141.138 67.871 141.301 67.1477 141.292 66.3269ZM153.221 56.9548L153.375 71.6862L151.55 71.704L151.395 56.9725L153.221 56.9548ZM166.342 65.6794C166.345 66.0332 166.328 66.4013 166.29 66.7838L157.587 66.8686C157.654 67.9436 158.024 68.7821 158.696 69.3841C159.381 69.9718 160.205 70.261 161.167 70.2516C161.946 70.244 162.595 70.0608 163.115 69.7019C163.634 69.3289 163.997 68.83 164.203 68.2052L166.156 68.1862C165.87 69.2505 165.291 70.1123 164.421 70.7718C163.55 71.4314 162.471 71.7674 161.183 71.7799C160.136 71.7901 159.2 71.5728 158.374 71.128C157.563 70.6689 156.919 70.017 156.443 69.1725C155.967 68.3138 155.723 67.3184 155.711 66.1863C155.699 65.0542 155.915 64.0614 156.359 63.208C156.803 62.3545 157.426 61.6974 158.228 61.2367C159.044 60.7758 159.99 60.5402 161.065 60.5297C162.098 60.5196 163.014 60.7372 163.811 61.1823C164.608 61.6132 165.223 62.2229 165.656 63.0112C166.103 63.7994 166.331 64.6888 166.342 65.6794ZM164.47 65.3155C164.463 64.6362 164.301 64.0505 163.984 63.5582C163.682 63.0517 163.267 62.6736 162.741 62.424C162.215 62.1743 161.633 62.0526 160.997 62.0589C160.077 62.0678 159.294 62.3656 158.649 62.9521C158.019 63.5385 157.666 64.3487 157.592 65.3825L164.47 65.3155ZM168.056 66.0448C168.044 64.9268 168.26 63.9482 168.704 63.1089C169.148 62.2554 169.764 61.5984 170.552 61.1378C171.34 60.6631 172.215 60.421 173.177 60.4117C174.139 60.4023 174.969 60.5994 175.667 61.003C176.379 61.4065 176.915 61.9179 177.275 62.5371L177.254 60.5417L179.08 60.5239L179.194 71.4346L177.368 71.4523L177.347 69.4146C176.986 70.055 176.454 70.5909 175.75 71.0223C175.047 71.4396 174.222 71.6529 173.273 71.6621C172.311 71.6715 171.431 71.4465 170.634 70.9873C169.851 70.5137 169.228 69.8475 168.766 68.9887C168.304 68.1299 168.067 67.1486 168.056 66.0448ZM177.311 65.9758C177.302 65.155 177.125 64.4421 176.779 63.8369C176.447 63.2315 175.997 62.7689 175.427 62.4489C174.858 62.129 174.233 61.9723 173.554 61.9789C172.875 61.9855 172.254 62.1543 171.691 62.4853C171.143 62.802 170.709 63.2662 170.39 63.8779C170.07 64.4896 169.915 65.2058 169.924 66.0266C169.933 66.8615 170.103 67.5887 170.435 68.2082C170.767 68.8135 171.21 69.2762 171.766 69.5963C172.335 69.9163 172.96 70.073 173.639 70.0663C174.318 70.0597 174.939 69.8909 175.502 69.5599C176.064 69.2289 176.505 68.7576 176.824 68.1459C177.157 67.52 177.32 66.7966 177.311 65.9758ZM183.982 62.2382C184.287 61.6125 184.735 61.1269 185.326 60.7815C185.916 60.4361 186.636 60.2592 187.486 60.251L187.505 62.1189L187.017 62.1237C184.993 62.1434 183.993 63.25 184.016 65.4434L184.078 71.387L182.253 71.4047L182.138 60.4941L183.964 60.4763L183.982 62.2382ZM194.891 60.1788C196.207 60.1659 197.28 60.5588 198.109 61.3575C198.952 62.1418 199.382 63.2911 199.398 64.8052L199.465 71.237L197.661 71.2546L197.596 65.0776C197.585 63.9879 197.3 63.1627 196.742 62.6021C196.198 62.0271 195.459 61.7442 194.526 61.7533C193.563 61.7627 192.802 62.0673 192.242 62.6671C191.697 63.2669 191.43 64.1399 191.442 65.2861L191.505 71.3146L189.679 71.3324L189.565 60.4217L191.391 60.4039L191.407 61.9535C191.755 61.3982 192.232 60.9689 192.837 60.6658C193.456 60.3484 194.141 60.1861 194.891 60.1788ZM203.224 58.5054C202.884 58.5087 202.593 58.3983 202.35 58.1742C202.107 57.936 201.983 57.64 201.979 57.2862C201.976 56.9466 202.093 56.6553 202.331 56.4124C202.569 56.1695 202.858 56.0464 203.198 56.043C203.537 56.0397 203.822 56.1573 204.051 56.3956C204.294 56.6339 204.417 56.9228 204.421 57.2624C204.424 57.6162 204.307 57.9146 204.069 58.1575C203.845 58.3861 203.563 58.502 203.224 58.5054ZM204.134 60.2797L204.248 71.1904L202.423 71.2081L202.308 60.2975L204.134 60.2797ZM212.532 60.0068C213.848 59.994 214.921 60.3869 215.75 61.1855C216.593 61.9699 217.023 63.1191 217.039 64.6333L217.106 71.065L215.302 71.0826L215.237 64.9056C215.226 63.8159 214.941 62.9908 214.383 62.4301C213.839 61.8551 213.101 61.5722 212.167 61.5813C211.204 61.5907 210.443 61.8953 209.883 62.4952C209.338 63.0949 209.071 63.9679 209.083 65.1142L209.146 71.1426L207.321 71.1604L207.206 60.2498L209.032 60.232L209.048 61.7816C209.396 61.2262 209.873 60.797 210.478 60.4939C211.098 60.1765 211.782 60.0141 212.532 60.0068ZM224.448 59.9119C225.396 59.9027 226.226 60.0998 226.938 60.5033C227.65 60.9068 228.186 61.4181 228.546 62.0373L228.525 60.042L230.351 60.0242L230.467 71.1683C230.478 72.173 230.275 73.0596 229.858 73.8279C229.442 74.6103 228.84 75.2248 228.052 75.6712C227.264 76.1176 226.346 76.3459 225.299 76.3561C223.87 76.37 222.671 76.0421 221.701 75.3722C220.746 74.7163 220.178 73.802 219.995 72.6291L221.778 72.6117C221.984 73.2748 222.4 73.8015 223.026 74.1917C223.653 74.596 224.405 74.7939 225.283 74.7853C226.273 74.7757 227.084 74.4564 227.714 73.8276C228.344 73.1987 228.654 72.3182 228.642 71.1861L228.618 68.8936C228.257 69.534 227.724 70.0699 227.021 70.5014C226.332 70.9326 225.514 71.1529 224.565 71.1622C223.603 71.1715 222.723 70.9466 221.926 70.4873C221.128 70.0139 220.499 69.3478 220.037 68.489C219.575 67.6302 219.338 66.6489 219.327 65.5451C219.315 64.4271 219.531 63.4485 219.975 62.6091C220.419 61.7556 221.035 61.0986 221.823 60.638C222.61 60.1633 223.485 59.9213 224.448 59.9119ZM228.582 65.4761C228.573 64.6553 228.396 63.9423 228.05 63.3371C227.718 62.7318 227.268 62.2692 226.698 61.9492C226.129 61.6292 225.504 61.4726 224.825 61.4792C224.146 61.4858 223.525 61.6546 222.962 61.9856C222.414 62.3023 221.98 62.7665 221.661 63.3782C221.341 63.9899 221.186 64.7061 221.195 65.5269C221.203 66.3618 221.374 67.089 221.706 67.7085C222.038 68.3138 222.481 68.7765 223.037 69.0966C223.606 69.4166 224.23 69.5733 224.91 69.5666C225.589 69.56 226.21 69.3912 226.773 69.0602C227.335 68.7292 227.776 68.2579 228.095 67.6462C228.428 67.0202 228.591 66.2968 228.582 65.4761Z" fill="#1A1A1A"/>
<path d="M59.5708 91.0327C59.5588 89.9006 59.7749 88.9149 60.2191 88.0755C60.663 87.222 61.2859 86.5649 62.0878 86.1043C62.8896 85.6294 63.807 85.3869 64.84 85.3769C66.1844 85.3638 67.2916 85.6785 68.1617 86.321C69.0316 86.9494 69.6141 87.8424 69.9093 89.0001L67.9563 89.0191C67.7654 88.3558 67.3991 87.8357 66.8573 87.4589C66.3155 87.082 65.6485 86.8975 64.8561 86.9052C63.823 86.9153 62.9917 87.2772 62.3623 87.9909C61.7329 88.7047 61.4251 89.7126 61.4387 91.0145C61.4525 92.3305 61.7816 93.3463 62.426 94.0618C63.0702 94.7632 63.9088 95.1088 64.9418 95.0988C65.7343 95.091 66.3905 94.9007 66.9102 94.5276C67.4441 94.1545 67.8065 93.6202 67.9973 92.9248L69.9501 92.9058C69.6647 94.0267 69.0867 94.9239 68.2164 95.5976C67.3601 96.2711 66.2739 96.6143 64.9579 96.6271C63.9248 96.6372 63.0026 96.4197 62.1913 95.9747C61.3798 95.5156 60.7431 94.8637 60.2813 94.019C59.8195 93.1744 59.5827 92.1789 59.5708 91.0327ZM77.1499 96.5083C76.1311 96.5182 75.2018 96.3008 74.3621 95.8561C73.5364 95.3971 72.8785 94.7454 72.3885 93.901C71.9126 93.0424 71.6686 92.047 71.6567 90.9149C71.6449 89.7969 71.8752 88.8111 72.3476 87.9573C72.8338 87.0893 73.492 86.4247 74.3221 85.9638C75.1523 85.5028 76.084 85.2673 77.1171 85.2572C78.1501 85.2471 79.0864 85.4644 79.9261 85.9091C80.7799 86.3537 81.4518 86.9982 81.942 87.8426C82.432 88.687 82.6829 89.6752 82.6947 90.8073C82.7066 91.9394 82.4694 92.9395 81.9831 93.8075C81.4967 94.6614 80.8315 95.326 79.9873 95.8013C79.143 96.2624 78.1972 96.4981 77.1499 96.5083ZM77.1333 94.9162C77.7842 94.9099 78.3911 94.7554 78.9541 94.4527C79.531 94.1357 79.9932 93.6712 80.3407 93.0593C80.6881 92.4473 80.8572 91.7027 80.8481 90.8253C80.8389 89.9479 80.6542 89.2067 80.294 88.6017C79.948 87.9965 79.4905 87.548 78.9213 87.2564C78.3663 86.9646 77.7633 86.8218 77.1123 86.8282C76.4471 86.8347 75.8402 86.9892 75.2915 87.2917C74.7426 87.5943 74.3087 88.0514 73.9896 88.6631C73.6705 89.2748 73.5155 90.0193 73.5247 90.8967C73.534 91.7882 73.7046 92.5366 74.0365 93.142C74.3683 93.7473 74.8047 94.1959 75.3455 94.4879C75.8864 94.7798 76.4823 94.9226 77.1333 94.9162ZM94.7017 85.2556L94.8159 96.1663L93.0116 96.1838L92.9946 94.5706C92.6467 95.1259 92.1631 95.5694 91.5438 95.9009C90.9386 96.2182 90.2681 96.3804 89.5322 96.3876C88.683 96.3958 87.917 96.2264 87.2341 95.8793C86.5511 95.5321 86.0078 95.0067 85.6041 94.303C85.2146 93.5991 85.0146 92.7448 85.0041 91.7401L84.9371 85.3508L86.7203 85.3334L86.7848 91.4892C86.7961 92.5647 87.0736 93.3899 87.6173 93.9649C88.1752 94.5256 88.9211 94.8014 89.855 94.7922C90.8315 94.7827 91.5926 94.4781 92.1382 93.8784C92.6981 93.2785 92.972 92.4054 92.96 91.2592L92.8973 85.2732L94.7017 85.2556ZM99.6092 86.9698C99.914 86.3441 100.362 85.8586 100.952 85.5131C101.543 85.1677 102.263 84.9909 103.112 84.9826L103.132 86.8506L102.644 86.8553C100.62 86.8751 99.6197 87.9816 99.6427 90.1751L99.705 96.1186L97.8794 96.1364L97.7651 85.2258L99.5908 85.208L99.6092 86.9698ZM109.171 96.1961C108.336 96.2043 107.585 96.0701 106.917 95.7936C106.249 95.517 105.721 95.1259 105.334 94.6201C104.946 94.1144 104.728 93.5292 104.678 92.8645L106.546 92.8463C106.608 93.3835 106.868 93.8268 107.324 94.1762C107.795 94.5113 108.398 94.6752 109.134 94.668C109.828 94.6613 110.371 94.5074 110.764 94.2063C111.157 93.8911 111.351 93.5 111.346 93.033C111.341 92.5519 111.125 92.2002 110.698 91.9779C110.271 91.7556 109.611 91.5356 108.717 91.3179C107.908 91.1135 107.248 90.9076 106.736 90.7003C106.224 90.4789 105.782 90.1577 105.41 89.7367C105.037 89.3016 104.847 88.7303 104.84 88.0227C104.834 87.4708 104.992 86.9598 105.312 86.4896C105.647 86.0193 106.117 85.6468 106.723 85.372C107.343 85.097 108.042 84.9558 108.82 84.9482C110.023 84.9365 110.995 85.2313 111.738 85.8326C112.494 86.4338 112.906 87.2648 112.974 88.3256L111.169 88.3431C111.121 87.7775 110.883 87.327 110.455 86.9915C110.041 86.6417 109.48 86.4702 108.772 86.4772C108.121 86.4835 107.606 86.63 107.227 86.9168C106.848 87.1894 106.661 87.5521 106.665 88.0049C106.669 88.3587 106.785 88.6548 107.014 88.8932C107.257 89.1173 107.549 89.2984 107.89 89.4366C108.246 89.5746 108.736 89.7255 109.36 89.8893C110.155 90.0939 110.794 90.2999 111.277 90.5075C111.775 90.7008 112.202 91.0009 112.56 91.4078C112.918 91.8147 113.108 92.3507 113.129 93.0157C113.135 93.61 112.971 94.1494 112.637 94.6339C112.316 95.1182 111.853 95.4978 111.247 95.7726C110.656 96.0472 109.964 96.1884 109.171 96.1961ZM125.594 89.9858C125.597 90.3396 125.58 90.7077 125.542 91.0902L116.839 91.1751C116.906 92.25 117.276 93.0885 117.948 93.6905C118.633 94.2782 119.457 94.5674 120.419 94.558C121.198 94.5505 121.847 94.3672 122.366 94.0083C122.886 93.6353 123.249 93.1364 123.455 92.5117L125.408 92.4926C125.122 93.5569 124.543 94.4188 123.673 95.0783C122.802 95.7378 121.723 96.0738 120.435 96.0864C119.388 96.0966 118.452 95.8792 117.626 95.4344C116.815 94.9753 116.171 94.3235 115.695 93.4789C115.219 92.6203 114.975 91.6249 114.963 90.4928C114.951 89.3607 115.167 88.3679 115.611 87.5144C116.055 86.6609 116.678 86.0038 117.48 85.5431C118.296 85.0823 119.242 84.8466 120.317 84.8361C121.35 84.8261 122.266 85.0436 123.063 85.4887C123.86 85.9197 124.475 86.5293 124.908 87.3177C125.355 88.1058 125.583 88.9952 125.594 89.9858ZM123.722 89.6219C123.715 88.9427 123.553 88.3569 123.236 87.8646C122.934 87.3581 122.519 86.98 121.993 86.7304C121.467 86.4808 120.885 86.3591 120.248 86.3653C119.329 86.3742 118.546 86.672 117.901 87.2586C117.271 87.845 116.918 88.6551 116.844 89.689L123.722 89.6219ZM129.886 93.3194L127.714 98.6903L126.504 98.7021L127.912 93.3386L129.886 93.3194ZM138.975 81.0029L139.129 95.7343L137.303 95.7521L137.149 81.0207L138.975 81.0029ZM141.465 90.2132C141.453 89.0953 141.669 88.1166 142.113 87.2773C142.557 86.4238 143.173 85.7668 143.961 85.3063C144.748 84.8315 145.623 84.5895 146.585 84.5801C147.548 84.5707 148.378 84.7678 149.075 85.1715C149.787 85.575 150.323 86.0863 150.684 86.7055L150.663 84.7102L152.488 84.6924L152.603 95.603L150.777 95.6208L150.756 93.583C150.394 94.2234 149.862 94.7593 149.159 95.1908C148.456 95.6081 147.63 95.8213 146.682 95.8305C145.72 95.8399 144.84 95.615 144.043 95.1557C143.259 94.6822 142.637 94.016 142.175 93.1571C141.713 92.2983 141.476 91.317 141.465 90.2132ZM150.72 90.1443C150.711 89.3235 150.534 88.6105 150.188 88.0053C149.856 87.4 149.405 86.9373 148.836 86.6174C148.266 86.2974 147.642 86.1407 146.963 86.1474C146.283 86.154 145.662 86.3228 145.1 86.6538C144.551 86.9705 144.117 87.4347 143.798 88.0464C143.479 88.658 143.324 89.3743 143.332 90.195C143.341 91.03 143.512 91.7572 143.844 92.3766C144.175 92.982 144.619 93.4447 145.174 93.7648C145.744 94.0848 146.368 94.2414 147.047 94.2348C147.727 94.2282 148.348 94.0594 148.91 93.7284C149.473 93.3974 149.914 92.9261 150.233 92.3144C150.566 91.6884 150.728 90.965 150.72 90.1443ZM157.77 86.1269L157.837 92.5587C157.843 93.0964 157.96 93.4774 158.189 93.7016C158.418 93.9117 158.815 94.014 159.381 94.0085L160.697 93.9956L160.713 95.5239L159.1 95.5397C158.081 95.5496 157.314 95.3236 156.8 94.8615C156.3 94.3994 156.044 93.6376 156.033 92.5763L155.966 86.1445L154.544 86.1584L154.528 84.6725L155.95 84.6586L155.922 81.9204L157.726 81.9028L157.755 84.6411L160.599 84.6133L160.615 86.0992L157.77 86.1269ZM172.803 89.5257C172.806 89.8795 172.789 90.2476 172.751 90.6301L164.047 90.7149C164.115 91.7899 164.485 92.6283 165.156 93.2304C165.842 93.8181 166.666 94.1073 167.628 94.0979C168.407 94.0903 169.056 93.9071 169.576 93.5482C170.095 93.1752 170.458 92.6763 170.664 92.0515L172.617 92.0325C172.331 93.0968 171.752 93.9586 170.882 94.6181C170.011 95.2776 168.932 95.6137 167.644 95.6262C166.597 95.6364 165.661 95.4191 164.835 94.9743C164.024 94.5152 163.38 93.8633 162.904 93.0188C162.428 92.1601 162.184 91.1647 162.172 90.0326C162.16 88.9005 162.376 87.9077 162.82 87.0542C163.264 86.2008 163.887 85.5437 164.689 85.083C165.505 84.6221 166.451 84.3865 167.526 84.376C168.56 84.3659 169.475 84.5834 170.272 85.0285C171.069 85.4595 171.684 86.0692 172.117 86.8575C172.564 87.6457 172.792 88.5351 172.803 89.5257ZM170.931 89.1618C170.924 88.4825 170.762 87.8968 170.445 87.4045C170.143 86.898 169.728 86.5199 169.202 86.2703C168.676 86.0206 168.094 85.8989 167.458 85.9052C166.538 85.9141 165.755 86.2119 165.11 86.7984C164.48 87.3848 164.127 88.195 164.053 89.2288L170.931 89.1618ZM179.119 95.5144C178.284 95.5225 177.532 95.3883 176.864 95.1118C176.196 94.8352 175.668 94.4441 175.281 93.9384C174.894 93.4327 174.675 92.8475 174.626 92.1828L176.494 92.1646C176.556 92.7018 176.815 93.145 177.272 93.4944C177.742 93.8295 178.346 93.9934 179.082 93.9862C179.775 93.9795 180.318 93.8256 180.711 93.5246C181.104 93.2094 181.298 92.8183 181.293 92.3513C181.288 91.8702 181.072 91.5184 180.645 91.2962C180.219 91.0739 179.558 90.8539 178.664 90.6361C177.855 90.4317 177.195 90.2259 176.683 90.0186C176.172 89.7971 175.73 89.4759 175.357 89.0549C174.985 88.6199 174.795 88.0485 174.787 87.341C174.782 86.7891 174.939 86.278 175.26 85.8079C175.594 85.3376 176.065 84.965 176.67 84.6902C177.29 84.4153 177.989 84.274 178.767 84.2664C179.97 84.2547 180.943 84.5495 181.685 85.1508C182.442 85.752 182.854 86.583 182.921 87.6438L181.117 87.6614C181.069 87.0958 180.83 86.6452 180.402 86.3097C179.988 85.9599 179.427 85.7885 178.72 85.7954C178.069 85.8017 177.554 85.9483 177.175 86.235C176.795 86.5076 176.608 86.8703 176.613 87.3232C176.617 87.6769 176.733 87.973 176.962 88.2114C177.205 88.4355 177.497 88.6166 177.838 88.7548C178.193 88.8929 178.683 89.0438 179.307 89.2075C180.102 89.4121 180.741 89.6181 181.225 89.8257C181.722 90.019 182.15 90.3191 182.508 90.726C182.866 91.133 183.055 91.6689 183.077 92.3339C183.083 92.9282 182.919 93.4677 182.584 93.9521C182.264 94.4364 181.8 94.816 181.195 95.0908C180.603 95.3655 179.911 95.5067 179.119 95.5144ZM187.756 85.8347L187.824 92.2664C187.829 92.8041 187.946 93.1851 188.175 93.4093C188.404 93.6194 188.801 93.7217 189.367 93.7162L190.683 93.7033L190.699 95.2317L189.086 95.2474C188.067 95.2573 187.301 95.0313 186.786 94.5693C186.286 94.1071 186.03 93.3454 186.019 92.284L185.952 85.8523L184.53 85.8661L184.514 84.3802L185.936 84.3664L185.908 81.6281L187.712 81.6105L187.741 84.3488L190.585 84.3211L190.601 85.8069L187.756 85.8347ZM208.105 89.1816C208.109 89.5354 208.091 89.9035 208.053 90.286L199.35 90.3708C199.418 91.4458 199.787 92.2843 200.459 92.8863C201.144 93.474 201.968 93.7632 202.93 93.7538C203.709 93.7462 204.358 93.563 204.878 93.2041C205.398 92.8311 205.76 92.3322 205.966 91.7075L207.919 91.6884C207.633 92.7527 207.055 93.6146 206.184 94.2741C205.313 94.9336 204.234 95.2696 202.947 95.2821C201.899 95.2923 200.963 95.075 200.137 94.6302C199.326 94.1711 198.682 93.5192 198.206 92.6747C197.73 91.816 197.486 90.8207 197.475 89.6886C197.463 88.5564 197.679 87.5637 198.123 86.7102C198.567 85.8567 199.189 85.1996 199.991 84.7389C200.807 84.278 201.753 84.0424 202.829 84.0319C203.862 84.0218 204.777 84.2393 205.574 84.6845C206.371 85.1154 206.986 85.7251 207.419 86.5134C207.866 87.3016 208.095 88.191 208.105 89.1816ZM206.233 88.8177C206.226 88.1384 206.064 87.5527 205.747 87.0604C205.445 86.5539 205.031 86.1758 204.504 85.9262C203.978 85.6766 203.397 85.5549 202.76 85.5611C201.84 85.57 201.058 85.8678 200.413 86.4543C199.782 87.0407 199.43 87.8509 199.356 88.8848L206.233 88.8177ZM214.614 93.3215L217.892 84.0549L219.824 84.0361L215.65 94.9885L213.549 95.009L209.147 84.1402L211.1 84.1211L214.614 93.3215ZM231.62 88.9524C231.624 89.3061 231.606 89.6743 231.568 90.0568L222.865 90.1416C222.933 91.2166 223.302 92.0551 223.974 92.6571C224.659 93.2448 225.483 93.534 226.445 93.5246C227.224 93.517 227.873 93.3338 228.393 92.9749C228.912 92.6019 229.275 92.103 229.481 91.4783L231.434 91.4592C231.148 92.5235 230.57 93.3853 229.699 94.0449C228.828 94.7044 227.749 95.0404 226.461 95.0529C225.414 95.0631 224.478 94.8458 223.652 94.401C222.841 93.9419 222.197 93.29 221.721 92.4455C221.245 91.5868 221.001 90.5915 220.989 89.4594C220.978 88.3273 221.194 87.3345 221.637 86.481C222.081 85.6275 222.704 84.9704 223.506 84.5097C224.322 84.0488 225.268 83.8132 226.344 83.8027C227.377 83.7926 228.292 84.0101 229.089 84.4553C229.886 84.8862 230.501 85.4959 230.934 86.2842C231.381 87.0724 231.61 87.9618 231.62 88.9524ZM229.748 88.5885C229.741 87.9092 229.579 87.3235 229.262 86.8312C228.96 86.3247 228.546 85.9466 228.019 85.697C227.493 85.4474 226.911 85.3257 226.275 85.3319C225.355 85.3408 224.573 85.6386 223.928 86.2251C223.297 86.8115 222.944 87.6217 222.87 88.6556L229.748 88.5885ZM239.283 83.6554C240.599 83.6425 241.671 84.0354 242.5 84.8341C243.344 85.6184 243.773 86.7676 243.789 88.2818L243.856 94.7135L242.052 94.7311L241.988 88.5541C241.976 87.4645 241.692 86.6393 241.134 86.0786C240.59 85.5037 239.851 85.2208 238.917 85.2299C237.955 85.2393 237.194 85.5439 236.634 86.1437C236.088 86.7435 235.821 87.6165 235.833 88.7627L235.896 94.7912L234.071 94.8089L233.957 83.8983L235.782 83.8805L235.798 85.4301C236.146 84.8747 236.623 84.4455 237.228 84.1424C237.848 83.825 238.533 83.6627 239.283 83.6554ZM248.923 85.2385L248.99 91.6702C248.996 92.208 249.113 92.589 249.342 92.8132C249.571 93.0232 249.968 93.1255 250.534 93.12L251.85 93.1071L251.866 94.6355L250.253 94.6512C249.234 94.6612 248.467 94.4351 247.953 93.9731C247.453 93.5109 247.197 92.7492 247.186 91.6878L247.119 85.2561L245.696 85.2699L245.681 83.7841L247.103 83.7702L247.074 81.0319L248.879 81.0143L248.907 83.7526L251.752 83.7249L251.767 85.2108L248.923 85.2385ZM270.034 94.4584L268.21 92.6505C267.538 93.3505 266.815 93.8741 266.04 94.2214C265.28 94.5684 264.418 94.7467 263.456 94.756C262.494 94.7654 261.643 94.6039 260.903 94.2714C260.164 93.9248 259.585 93.4351 259.168 92.8023C258.765 92.1694 258.559 91.4284 258.551 90.5793C258.54 89.617 258.808 88.7652 259.352 88.024C259.896 87.2827 260.704 86.6946 261.775 86.2596C261.345 85.7543 261.028 85.2903 260.826 84.8677C260.638 84.445 260.541 83.9789 260.535 83.4694C260.529 82.8892 260.672 82.3642 260.965 81.8943C261.257 81.4244 261.678 81.0523 262.227 80.7781C262.79 80.5037 263.44 80.3629 264.175 80.3557C264.897 80.3487 265.521 80.4842 266.048 80.7621C266.588 81.0257 266.989 81.411 267.249 81.918C267.523 82.4106 267.649 82.9614 267.627 83.5702L265.823 83.5877C265.831 83.0498 265.671 82.6268 265.342 82.3187C265.028 81.9962 264.615 81.8375 264.106 81.8424C263.582 81.8475 263.159 82.0074 262.837 82.3218C262.515 82.6222 262.356 82.9988 262.361 83.4516C262.365 83.862 262.475 84.2502 262.691 84.616C262.922 84.9817 263.295 85.4381 263.81 85.985L267.993 90.1051L268.347 89.5285L269.682 87.244L271.635 87.2249L270.03 90.0853C269.808 90.4837 269.544 90.9038 269.237 91.3455L272.411 94.4352L270.034 94.4584ZM263.44 93.2065C264.147 93.1996 264.79 93.0589 265.367 92.7843C265.944 92.4956 266.485 92.0517 266.988 91.4523L262.869 87.3953C261.178 88.0628 260.34 89.1041 260.354 90.5192C260.363 91.2976 260.652 91.9458 261.224 92.4638C261.795 92.9677 262.534 93.2153 263.44 93.2065Z" fill="#1A1A1A"/>
<path d="M62.2931 111.524C62.6543 110.87 63.1865 110.334 63.8896 109.917C64.6071 109.499 65.4257 109.286 66.3456 109.277C67.322 109.268 68.2018 109.492 68.985 109.952C69.7823 110.397 70.4118 111.042 70.8735 111.887C71.3351 112.717 71.5717 113.691 71.5835 114.809C71.5951 115.913 71.379 116.899 70.9352 117.766C70.4913 118.634 69.8756 119.312 69.0882 119.801C68.3006 120.276 67.4257 120.518 66.4634 120.527C65.5153 120.537 64.6853 120.339 63.9734 119.936C63.2616 119.532 62.7254 119.014 62.3649 118.381L62.3861 120.397L60.5605 120.415L60.4062 105.684L62.2317 105.666L62.2931 111.524ZM69.7368 114.827C69.7282 114.007 69.5508 113.294 69.2048 112.688C68.873 112.083 68.4224 111.627 67.853 111.322C67.2836 111.002 66.6592 110.845 65.9799 110.852C65.3148 110.858 64.7009 111.027 64.1384 111.358C63.5757 111.689 63.1279 112.167 62.7947 112.793C62.4757 113.405 62.3203 114.114 62.3287 114.921C62.3373 115.741 62.5077 116.462 62.8397 117.081C63.1856 117.686 63.6434 118.149 64.2129 118.469C64.7823 118.789 65.3995 118.946 66.0647 118.939C66.744 118.932 67.365 118.764 67.9276 118.433C68.4903 118.102 68.9311 117.63 69.2502 117.019C69.5833 116.393 69.7455 115.662 69.7368 114.827ZM78.7771 120.407C77.7582 120.417 76.8288 120.2 75.9891 119.755C75.1635 119.296 74.5057 118.644 74.0156 117.8C73.5396 116.941 73.2956 115.946 73.2837 114.814C73.2721 113.696 73.5024 112.71 73.9746 111.856C74.4609 110.988 75.1191 110.324 75.9493 109.863C76.7794 109.402 77.711 109.166 78.7441 109.156C79.7772 109.146 80.7136 109.363 81.5532 109.808C82.4071 110.253 83.079 110.897 83.569 111.742C84.059 112.586 84.3099 113.574 84.3218 114.706C84.3337 115.838 84.0966 116.839 83.6103 117.707C83.1238 118.56 82.4585 119.225 81.6144 119.7C80.77 120.161 79.8243 120.397 78.7771 120.407ZM78.7604 118.815C79.4114 118.809 80.0183 118.654 80.5812 118.352C81.1582 118.035 81.6204 117.57 81.9678 116.958C82.3152 116.346 82.4843 115.602 82.4751 114.724C82.4659 113.847 82.2812 113.106 81.921 112.501C81.5751 111.895 81.1175 111.447 80.5483 111.155C79.9933 110.864 79.3903 110.721 78.7393 110.727C78.0742 110.734 77.4672 110.888 76.9185 111.191C76.3697 111.493 75.9357 111.95 75.6166 112.562C75.2975 113.174 75.1426 113.918 75.1518 114.796C75.1611 115.687 75.3317 116.436 75.6636 117.041C75.9954 117.646 76.4317 118.095 76.9726 118.387C77.5134 118.679 78.1094 118.822 78.7604 118.815ZM91.5201 120.283C90.5012 120.293 89.572 120.076 88.7322 119.631C87.9066 119.172 87.2487 118.52 86.7587 117.676C86.2826 116.817 86.0386 115.822 86.0268 114.69C86.0151 113.572 86.2453 112.586 86.7176 111.732C87.2039 110.864 87.8622 110.2 88.6923 109.739C89.5225 109.278 90.4541 109.042 91.4872 109.032C92.5202 109.022 93.4566 109.239 94.2963 109.684C95.1501 110.129 95.822 110.773 96.312 111.617C96.8021 112.462 97.0531 113.45 97.0649 114.582C97.0767 115.714 96.8395 116.714 96.3533 117.582C95.8669 118.436 95.2016 119.101 94.3573 119.576C93.5131 120.037 92.5673 120.273 91.5201 120.283ZM91.5035 118.691C92.1544 118.685 92.7613 118.53 93.3243 118.228C93.9012 117.911 94.3634 117.446 94.7107 116.834C95.0582 116.222 95.2273 115.478 95.2181 114.6C95.2089 113.723 95.0242 112.982 94.6641 112.376C94.3181 111.771 93.8605 111.323 93.2913 111.031C92.7363 110.739 92.1333 110.597 91.4824 110.603C90.8173 110.61 90.2103 110.764 89.6615 111.067C89.1127 111.369 88.6788 111.826 88.3597 112.438C88.0406 113.05 87.8856 113.794 87.8949 114.672C87.9042 115.563 88.0747 116.311 88.4065 116.917C88.7384 117.522 89.1748 117.971 89.7157 118.263C90.2566 118.555 90.8525 118.697 91.5035 118.691ZM101.615 110.589L101.683 117.021C101.688 117.559 101.806 117.94 102.034 118.164C102.263 118.374 102.66 118.476 103.226 118.471L104.542 118.458L104.559 119.986L102.945 120.002C101.926 120.012 101.16 119.786 100.645 119.324C100.145 118.862 99.8896 118.1 99.8784 117.039L99.8111 110.607L98.3888 110.621L98.3734 109.135L99.7955 109.121L99.7668 106.383L101.571 106.365L101.6 109.103L104.444 109.076L104.46 110.561L101.615 110.589ZM112.051 108.81C112.886 108.802 113.63 108.972 114.285 109.319C114.954 109.652 115.483 110.171 115.872 110.875C116.262 111.579 116.462 112.433 116.472 113.438L116.54 119.869L114.735 119.887L114.671 113.71C114.659 112.62 114.375 111.795 113.817 111.235C113.273 110.66 112.534 110.377 111.6 110.386C110.638 110.395 109.877 110.7 109.317 111.3C108.771 111.899 108.505 112.772 108.517 113.919L108.58 119.947L106.754 119.965L106.6 105.233L108.425 105.216L108.482 110.586C108.83 110.031 109.313 109.601 109.933 109.298C110.566 108.981 111.272 108.818 112.051 108.81ZM118.761 114.371C118.749 113.239 118.965 112.253 119.409 111.413C119.853 110.56 120.476 109.903 121.278 109.442C122.079 108.967 122.997 108.725 124.03 108.715C125.374 108.702 126.481 109.016 127.351 109.659C128.221 110.287 128.804 111.18 129.099 112.338L127.146 112.357C126.955 111.694 126.589 111.174 126.047 110.797C125.505 110.42 124.838 110.235 124.046 110.243C123.013 110.253 122.182 110.615 121.552 111.329C120.923 112.043 120.615 113.051 120.629 114.352C120.642 115.669 120.971 116.684 121.616 117.4C122.26 118.101 123.099 118.447 124.132 118.437C124.924 118.429 125.58 118.239 126.1 117.866C126.634 117.492 126.996 116.958 127.187 116.263L129.14 116.244C128.854 117.365 128.277 118.262 127.406 118.936C126.55 119.609 125.464 119.952 124.148 119.965C123.115 119.975 122.192 119.758 121.381 119.313C120.57 118.854 119.933 118.202 119.471 117.357C119.009 116.512 118.773 115.517 118.761 114.371ZM130.846 114.232C130.835 113.114 131.051 112.135 131.495 111.296C131.939 110.442 132.555 109.785 133.342 109.325C134.13 108.85 135.005 108.608 135.967 108.599C136.93 108.589 137.76 108.786 138.457 109.19C139.169 109.593 139.705 110.105 140.066 110.724L140.045 108.729L141.87 108.711L141.984 119.621L140.159 119.639L140.138 117.601C139.776 118.242 139.244 118.778 138.541 119.209C137.838 119.626 137.012 119.84 136.064 119.849C135.102 119.858 134.222 119.633 133.424 119.174C132.641 118.701 132.018 118.034 131.556 117.176C131.095 116.317 130.858 115.335 130.846 114.232ZM140.102 114.163C140.093 113.342 139.916 112.629 139.57 112.024C139.238 111.418 138.787 110.956 138.218 110.636C137.648 110.316 137.024 110.159 136.345 110.166C135.665 110.172 135.044 110.341 134.482 110.672C133.933 110.989 133.499 111.453 133.18 112.065C132.861 112.676 132.706 113.393 132.714 114.213C132.723 115.048 132.893 115.776 133.225 116.395C133.557 117 134.001 117.463 134.556 117.783C135.126 118.103 135.75 118.26 136.429 118.253C137.109 118.247 137.73 118.078 138.292 117.747C138.855 117.416 139.296 116.944 139.615 116.333C139.948 115.707 140.11 114.983 140.102 114.163ZM158.045 108.362C158.894 108.354 159.653 108.523 160.322 108.871C160.991 109.204 161.52 109.722 161.909 110.426C162.313 111.13 162.52 111.984 162.53 112.989L162.598 119.42L160.793 119.438L160.729 113.261C160.717 112.171 160.44 111.346 159.896 110.785C159.352 110.21 158.62 109.927 157.701 109.936C156.767 109.945 156.02 110.257 155.46 110.871C154.914 111.471 154.648 112.344 154.66 113.49L154.723 119.497L152.94 119.515L152.875 113.338C152.863 112.248 152.586 111.423 152.042 110.862C151.498 110.287 150.766 110.004 149.847 110.013C148.898 110.022 148.152 110.334 147.606 110.948C147.06 111.547 146.794 112.42 146.806 113.567L146.868 119.574L145.043 119.592L144.929 108.681L146.754 108.663L146.771 110.234C147.119 109.664 147.588 109.228 148.179 108.925C148.785 108.608 149.455 108.446 150.191 108.439C151.111 108.43 151.92 108.627 152.617 109.031C153.329 109.434 153.859 110.03 154.207 110.82C154.51 110.052 155.007 109.453 155.696 109.022C156.399 108.59 157.182 108.37 158.045 108.362ZM167.284 110.48C167.631 109.854 168.156 109.332 168.86 108.915C169.563 108.483 170.388 108.263 171.336 108.254C172.299 108.244 173.178 108.469 173.976 108.929C174.773 109.374 175.403 110.019 175.864 110.863C176.326 111.694 176.563 112.668 176.574 113.786C176.586 114.89 176.37 115.875 175.926 116.743C175.482 117.611 174.866 118.289 174.079 118.778C173.291 119.253 172.417 119.495 171.454 119.504C170.52 119.513 169.697 119.316 168.985 118.912C168.273 118.495 167.73 117.976 167.356 117.357L167.431 124.553L165.606 124.571L165.437 108.481L167.263 108.463L167.284 110.48ZM174.727 113.804C174.719 112.983 174.542 112.27 174.196 111.665C173.864 111.06 173.413 110.604 172.844 110.298C172.274 109.978 171.65 109.822 170.971 109.828C170.306 109.835 169.692 110.003 169.129 110.334C168.567 110.665 168.119 111.144 167.786 111.77C167.466 112.382 167.311 113.091 167.32 113.897C167.328 114.718 167.498 115.438 167.83 116.058C168.176 116.663 168.634 117.126 169.204 117.445C169.773 117.765 170.39 117.922 171.056 117.916C171.735 117.909 172.356 117.74 172.918 117.409C173.481 117.078 173.922 116.607 174.241 115.995C174.574 115.369 174.736 114.639 174.727 113.804ZM180.853 116.738L178.68 122.108L177.47 122.12L178.879 116.757L180.853 116.738ZM187.533 113.679C187.521 112.561 187.737 111.583 188.182 110.743C188.626 109.89 189.241 109.233 190.029 108.772C190.817 108.297 191.692 108.055 192.654 108.046C193.616 108.037 194.446 108.234 195.144 108.637C195.856 109.041 196.392 109.552 196.752 110.171L196.731 108.176L198.557 108.158L198.671 119.069L196.846 119.087L196.824 117.049C196.463 117.689 195.931 118.225 195.228 118.657C194.524 119.074 193.699 119.287 192.751 119.296C191.788 119.306 190.908 119.081 190.111 118.622C189.328 118.148 188.705 117.482 188.243 116.623C187.781 115.764 187.545 114.783 187.533 113.679ZM196.788 113.61C196.78 112.789 196.602 112.076 196.256 111.471C195.924 110.866 195.474 110.403 194.904 110.083C194.335 109.763 193.71 109.607 193.031 109.613C192.352 109.62 191.731 109.789 191.168 110.12C190.62 110.436 190.186 110.901 189.867 111.512C189.548 112.124 189.392 112.84 189.401 113.661C189.41 114.496 189.58 115.223 189.912 115.843C190.244 116.448 190.688 116.911 191.243 117.231C191.812 117.551 192.437 117.707 193.116 117.701C193.795 117.694 194.416 117.525 194.979 117.194C195.541 116.863 195.982 116.392 196.301 115.78C196.635 115.154 196.797 114.431 196.788 113.61ZM206.941 107.885C208.258 107.873 209.33 108.266 210.159 109.064C211.003 109.848 211.432 110.998 211.448 112.512L211.515 118.944L209.711 118.961L209.646 112.784C209.635 111.695 209.35 110.869 208.792 110.309C208.249 109.734 207.51 109.451 206.576 109.46C205.613 109.469 204.852 109.774 204.293 110.374C203.747 110.974 203.48 111.847 203.492 112.993L203.555 119.021L201.73 119.039L201.615 108.128L203.441 108.111L203.457 109.66C203.805 109.105 204.282 108.676 204.887 108.373C205.507 108.055 206.191 107.893 206.941 107.885ZM213.736 113.424C213.724 112.306 213.94 111.327 214.385 110.488C214.828 109.634 215.444 108.977 216.232 108.517C217.02 108.042 217.902 107.8 218.878 107.79C219.727 107.782 220.515 107.973 221.241 108.362C221.98 108.737 222.552 109.241 222.955 109.874L222.894 104.1L224.72 104.082L224.874 118.813L223.048 118.831L223.027 116.772C222.666 117.427 222.134 117.97 221.431 118.401C220.741 118.818 219.923 119.032 218.975 119.041C218.012 119.05 217.133 118.825 216.335 118.366C215.538 117.893 214.908 117.226 214.446 116.368C213.984 115.509 213.747 114.528 213.736 113.424ZM222.991 113.355C222.983 112.534 222.805 111.821 222.459 111.216C222.127 110.61 221.677 110.148 221.107 109.828C220.538 109.508 219.913 109.351 219.234 109.358C218.555 109.364 217.934 109.533 217.371 109.864C216.823 110.181 216.389 110.645 216.07 111.257C215.751 111.869 215.595 112.585 215.604 113.406C215.613 114.24 215.783 114.968 216.115 115.587C216.447 116.192 216.89 116.655 217.446 116.975C218.015 117.295 218.64 117.452 219.319 117.445C219.998 117.439 220.619 117.27 221.182 116.939C221.744 116.608 222.185 116.137 222.504 115.525C222.837 114.899 223 114.176 222.991 113.355ZM237.633 107.608C238.581 107.598 239.411 107.795 240.123 108.199C240.835 108.602 241.371 109.114 241.731 109.733L241.71 107.738L243.536 107.72L243.653 118.864C243.663 119.869 243.46 120.755 243.044 121.524C242.627 122.306 242.025 122.92 241.237 123.367C240.449 123.813 239.532 124.042 238.485 124.052C237.055 124.066 235.856 123.738 234.887 123.068C233.931 122.412 233.363 121.498 233.181 120.325L234.964 120.307C235.169 120.97 235.585 121.497 236.212 121.887C236.839 122.292 237.591 122.49 238.468 122.481C239.459 122.471 240.269 122.152 240.899 121.523C241.53 120.894 241.839 120.014 241.827 118.882L241.803 116.589C241.442 117.23 240.91 117.766 240.206 118.197C239.517 118.628 238.699 118.849 237.751 118.858C236.788 118.867 235.909 118.642 235.111 118.183C234.314 117.71 233.684 117.043 233.222 116.185C232.76 115.326 232.524 114.345 232.512 113.241C232.5 112.123 232.716 111.144 233.161 110.305C233.605 109.451 234.22 108.794 235.008 108.334C235.796 107.859 236.671 107.617 237.633 107.608ZM241.767 113.172C241.759 112.351 241.581 111.638 241.235 111.033C240.903 110.427 240.453 109.965 239.883 109.645C239.314 109.325 238.689 109.168 238.01 109.175C237.331 109.181 236.71 109.35 236.147 109.681C235.599 109.998 235.165 110.462 234.846 111.074C234.527 111.686 234.371 112.402 234.38 113.223C234.389 114.057 234.559 114.785 234.891 115.404C235.223 116.009 235.667 116.472 236.222 116.792C236.791 117.112 237.416 117.269 238.095 117.262C238.774 117.256 239.395 117.087 239.958 116.756C240.521 116.425 240.961 115.954 241.28 115.342C241.614 114.716 241.776 113.992 241.767 113.172ZM256.603 112.624C256.606 112.978 256.589 113.346 256.551 113.728L247.847 113.813C247.915 114.888 248.285 115.726 248.956 116.328C249.642 116.916 250.466 117.205 251.428 117.196C252.207 117.188 252.856 117.005 253.375 116.646C253.895 116.273 254.258 115.774 254.464 115.15L256.417 115.131C256.131 116.195 255.552 117.057 254.682 117.716C253.811 118.376 252.732 118.712 251.444 118.724C250.397 118.735 249.461 118.517 248.635 118.072C247.823 117.613 247.18 116.961 246.704 116.117C246.228 115.258 245.984 114.263 245.972 113.131C245.96 111.999 246.176 111.006 246.62 110.152C247.064 109.299 247.687 108.642 248.489 108.181C249.305 107.72 250.251 107.485 251.326 107.474C252.359 107.464 253.274 107.682 254.072 108.127C254.869 108.558 255.484 109.167 255.917 109.956C256.364 110.744 256.592 111.633 256.603 112.624ZM254.731 112.26C254.724 111.581 254.562 110.995 254.245 110.503C253.943 109.996 253.528 109.618 253.002 109.368C252.476 109.119 251.894 108.997 251.257 109.003C250.338 109.012 249.555 109.31 248.91 109.897C248.28 110.483 247.927 111.293 247.853 112.327L254.731 112.26ZM261.163 109.034L261.23 115.466C261.235 116.004 261.353 116.385 261.581 116.609C261.81 116.819 262.207 116.921 262.774 116.916L264.09 116.903L264.106 118.431L262.492 118.447C261.473 118.457 260.707 118.231 260.192 117.769C259.692 117.306 259.437 116.545 259.425 115.483L259.358 109.052L257.936 109.066L257.92 107.58L259.343 107.566L259.314 104.828L261.118 104.81L261.147 107.548L263.991 107.52L264.007 109.006L261.163 109.034Z" fill="#1A1A1A"/>
<path d="M70.0969 133.32L63.6845 149.432L61.8166 149.45L63.9266 144.165L59.3984 133.425L61.4149 133.405L64.925 142.202L68.2288 133.339L70.0969 133.32ZM76.7741 144.337C75.7551 144.347 74.8259 144.129 73.9862 143.685C73.1606 143.226 72.5027 142.574 72.0127 141.73C71.5366 140.871 71.2927 139.876 71.2808 138.744C71.2691 137.626 71.4994 136.64 71.9716 135.786C72.4578 134.918 73.1161 134.253 73.9463 133.792C74.7765 133.331 75.7081 133.096 76.7411 133.086C77.7742 133.076 78.7105 133.293 79.5501 133.738C80.404 134.182 81.076 134.827 81.566 135.671C82.056 136.516 82.307 137.504 82.3189 138.636C82.3307 139.768 82.0935 140.768 81.6073 141.636C81.1209 142.49 80.4556 143.155 79.6113 143.63C78.767 144.091 77.8212 144.327 76.7741 144.337ZM76.7573 142.745C77.4083 142.739 78.0153 142.584 78.5783 142.281C79.1552 141.964 79.6174 141.5 79.9647 140.888C80.3121 140.276 80.4812 139.531 80.4721 138.654C80.4629 137.777 80.2782 137.035 79.9181 136.43C79.5721 135.825 79.1145 135.377 78.5453 135.085C77.9903 134.793 77.3873 134.651 76.7364 134.657C76.0713 134.663 75.4643 134.818 74.9155 135.12C74.3667 135.423 73.9328 135.88 73.6136 136.492C73.2945 137.103 73.1396 137.848 73.1487 138.725C73.1581 139.617 73.3287 140.365 73.6605 140.971C73.9924 141.576 74.4288 142.025 74.9697 142.317C75.5106 142.608 76.1064 142.751 76.7573 142.745ZM94.3257 133.084L94.4399 143.995L92.6357 144.012L92.6188 142.399C92.2708 142.955 91.7871 143.398 91.1678 143.73C90.5626 144.047 89.8921 144.209 89.1563 144.216C88.3072 144.225 87.5412 144.055 86.8582 143.708C86.1752 143.361 85.6319 142.835 85.2283 142.132C84.8388 141.428 84.6388 140.574 84.6283 139.569L84.5613 133.179L86.3444 133.162L86.4088 139.318C86.4201 140.393 86.6976 141.219 87.2415 141.794C87.7993 142.354 88.5452 142.63 89.4792 142.621C90.4556 142.611 91.2167 142.307 91.7624 141.707C92.3222 141.107 92.5961 140.234 92.5841 139.088L92.5215 133.102L94.3257 133.084ZM99.2332 134.798C99.538 134.173 99.9858 133.687 100.577 133.342C101.167 132.996 101.887 132.82 102.736 132.811L102.756 134.679L102.268 134.684C100.244 134.704 99.2438 135.81 99.2668 138.004L99.329 143.947L97.5036 143.965L97.3893 133.054L99.2148 133.037L99.2332 134.798ZM123.249 132.611C124.098 132.603 124.857 132.773 125.525 133.12C126.194 133.453 126.723 133.972 127.113 134.675C127.516 135.379 127.723 136.233 127.734 137.238L127.801 143.67L125.997 143.687L125.932 137.51C125.921 136.421 125.643 135.595 125.1 135.035C124.556 134.46 123.824 134.177 122.904 134.186C121.97 134.195 121.223 134.506 120.664 135.12C120.118 135.72 119.851 136.593 119.863 137.739L119.926 143.747L118.143 143.764L118.078 137.587C118.067 136.497 117.789 135.672 117.246 135.111C116.702 134.536 115.97 134.253 115.05 134.262C114.102 134.271 113.355 134.583 112.81 135.197C112.264 135.797 111.997 136.67 112.009 137.816L112.072 143.823L110.247 143.841L110.132 132.93L111.958 132.912L111.974 134.483C112.322 133.914 112.792 133.478 113.383 133.175C113.988 132.857 114.659 132.695 115.395 132.688C116.314 132.679 117.123 132.876 117.821 133.28C118.533 133.683 119.063 134.28 119.411 135.069C119.714 134.302 120.21 133.702 120.899 133.271C121.602 132.84 122.385 132.62 123.249 132.611ZM140.649 137.664C140.653 138.018 140.635 138.386 140.597 138.768L131.894 138.853C131.962 139.928 132.331 140.767 133.003 141.369C133.688 141.956 134.512 142.246 135.474 142.236C136.253 142.229 136.902 142.045 137.422 141.687C137.941 141.314 138.304 140.815 138.51 140.19L140.463 140.171C140.177 141.235 139.598 142.097 138.728 142.757C137.857 143.416 136.778 143.752 135.49 143.765C134.443 143.775 133.507 143.558 132.681 143.113C131.87 142.654 131.226 142.002 130.75 141.157C130.274 140.299 130.03 139.303 130.018 138.171C130.006 137.039 130.222 136.046 130.666 135.193C131.11 134.339 131.733 133.682 132.535 133.221C133.351 132.761 134.297 132.525 135.373 132.514C136.406 132.504 137.321 132.722 138.118 133.167C138.915 133.598 139.53 134.208 139.963 134.996C140.41 135.784 140.638 136.673 140.649 137.664ZM138.777 137.3C138.77 136.621 138.608 136.035 138.291 135.543C137.989 135.036 137.575 134.658 137.048 134.409C136.522 134.159 135.94 134.037 135.304 134.044C134.384 134.053 133.601 134.35 132.957 134.937C132.326 135.523 131.973 136.333 131.899 137.367L138.777 137.3ZM148.312 132.367C149.628 132.354 150.7 132.747 151.529 133.546C152.373 134.33 152.802 135.479 152.818 136.994L152.885 143.425L151.081 143.443L151.016 137.266C151.005 136.176 150.72 135.351 150.163 134.79C149.619 134.215 148.88 133.932 147.946 133.942C146.984 133.951 146.222 134.256 145.663 134.855C145.117 135.455 144.85 136.328 144.862 137.474L144.925 143.503L143.1 143.521L142.985 132.61L144.811 132.592L144.827 134.142C145.175 133.586 145.652 133.157 146.257 132.854C146.877 132.537 147.561 132.374 148.312 132.367ZM157.952 133.95L158.019 140.382C158.025 140.92 158.142 141.301 158.371 141.525C158.599 141.735 158.997 141.837 159.563 141.832L160.879 141.819L160.895 143.347L159.282 143.363C158.263 143.373 157.496 143.147 156.982 142.685C156.482 142.223 156.226 141.461 156.215 140.399L156.147 133.968L154.725 133.982L154.71 132.496L156.132 132.482L156.103 129.744L157.907 129.726L157.936 132.464L160.781 132.437L160.796 133.922L157.952 133.95ZM167.847 143.449C166.828 143.459 165.899 143.242 165.059 142.797C164.234 142.338 163.576 141.686 163.086 140.842C162.61 139.983 162.366 138.988 162.354 137.856C162.342 136.738 162.572 135.752 163.045 134.898C163.531 134.03 164.189 133.366 165.019 132.905C165.85 132.444 166.781 132.208 167.814 132.198C168.847 132.188 169.784 132.405 170.623 132.85C171.477 133.295 172.149 133.939 172.639 134.784C173.129 135.628 173.38 136.616 173.392 137.748C173.404 138.88 173.167 139.88 172.68 140.749C172.194 141.602 171.529 142.267 170.684 142.742C169.84 143.203 168.894 143.439 167.847 143.449ZM167.83 141.857C168.481 141.851 169.088 141.696 169.651 141.394C170.228 141.077 170.69 140.612 171.038 140C171.385 139.388 171.554 138.644 171.545 137.766C171.536 136.889 171.351 136.148 170.991 135.543C170.645 134.937 170.188 134.489 169.618 134.197C169.063 133.906 168.46 133.763 167.809 133.769C167.144 133.776 166.537 133.93 165.989 134.233C165.44 134.535 165.006 134.992 164.687 135.604C164.368 136.216 164.213 136.96 164.222 137.838C164.231 138.729 164.402 139.478 164.734 140.083C165.065 140.688 165.502 141.137 166.043 141.429C166.583 141.721 167.179 141.864 167.83 141.857ZM177.563 134.035C177.868 133.409 178.316 132.924 178.907 132.578C179.497 132.233 180.217 132.056 181.066 132.048L181.086 133.916L180.598 133.921C178.574 133.94 177.574 135.047 177.597 137.24L177.659 143.184L175.834 143.202L175.719 132.291L177.545 132.273L177.563 134.035ZM193.873 131.923C194.708 131.915 195.453 132.084 196.108 132.432C196.776 132.765 197.305 133.284 197.695 133.987C198.084 134.691 198.284 135.546 198.295 136.55L198.362 142.982L196.558 143L196.493 136.823C196.482 135.733 196.197 134.908 195.639 134.347C195.096 133.772 194.357 133.489 193.423 133.498C192.46 133.508 191.699 133.812 191.139 134.412C190.594 135.012 190.327 135.885 190.339 137.031L190.402 143.06L188.576 143.077L188.422 128.346L190.248 128.328L190.304 133.699C190.652 133.143 191.136 132.714 191.755 132.411C192.389 132.093 193.095 131.931 193.873 131.923ZM211.214 136.976C211.217 137.33 211.2 137.698 211.161 138.081L202.458 138.166C202.526 139.24 202.896 140.079 203.567 140.681C204.253 141.269 205.077 141.558 206.039 141.549C206.817 141.541 207.466 141.358 207.986 140.999C208.506 140.626 208.869 140.127 209.075 139.502L211.027 139.483C210.741 140.547 210.163 141.409 209.293 142.069C208.422 142.728 207.343 143.064 206.055 143.077C205.008 143.087 204.071 142.87 203.246 142.425C202.434 141.966 201.791 141.314 201.315 140.469C200.839 139.611 200.595 138.615 200.583 137.483C200.571 136.351 200.787 135.358 201.231 134.505C201.675 133.651 202.298 132.994 203.1 132.534C203.916 132.073 204.862 131.837 205.937 131.827C206.97 131.817 207.885 132.034 208.683 132.479C209.48 132.91 210.095 133.52 210.527 134.308C210.974 135.096 211.203 135.986 211.214 136.976ZM209.341 136.612C209.334 135.933 209.173 135.347 208.856 134.855C208.554 134.349 208.139 133.97 207.613 133.721C207.087 133.471 206.505 133.35 205.868 133.356C204.948 133.365 204.166 133.662 203.521 134.249C202.89 134.835 202.538 135.646 202.464 136.679L209.341 136.612ZM215.394 133.666C215.699 133.041 216.147 132.555 216.738 132.21C217.328 131.864 218.048 131.687 218.897 131.679L218.917 133.547L218.429 133.552C216.405 133.572 215.405 134.678 215.428 136.872L215.49 142.815L213.665 142.833L213.55 131.922L215.376 131.904L215.394 133.666ZM230.985 136.784C230.989 137.137 230.971 137.506 230.933 137.888L222.23 137.973C222.298 139.048 222.667 139.886 223.339 140.488C224.025 141.076 224.848 141.365 225.811 141.356C226.589 141.348 227.238 141.165 227.758 140.806C228.278 140.433 228.64 139.934 228.846 139.309L230.799 139.29C230.513 140.355 229.935 141.217 229.064 141.876C228.194 142.536 227.114 142.872 225.827 142.884C224.779 142.894 223.843 142.677 223.018 142.232C222.206 141.773 221.562 141.121 221.087 140.277C220.61 139.418 220.366 138.423 220.355 137.291C220.343 136.158 220.559 135.166 221.003 134.312C221.447 133.459 222.07 132.802 222.872 132.341C223.688 131.88 224.633 131.644 225.709 131.634C226.742 131.624 227.657 131.841 228.454 132.286C229.251 132.717 229.866 133.327 230.299 134.115C230.746 134.904 230.975 135.793 230.985 136.784ZM229.113 136.42C229.106 135.74 228.944 135.155 228.628 134.662C228.325 134.156 227.911 133.778 227.384 133.528C226.858 133.279 226.277 133.157 225.64 133.163C224.72 133.172 223.938 133.47 223.293 134.056C222.662 134.643 222.31 135.453 222.236 136.487L229.113 136.42ZM235.647 128.735L235.539 138.692L234.011 138.707L233.694 128.754L235.647 128.735ZM234.902 142.753C234.548 142.757 234.25 142.639 234.007 142.401C233.778 142.163 233.661 141.867 233.658 141.513C233.654 141.173 233.764 140.882 233.988 140.639C234.226 140.396 234.522 140.273 234.876 140.27C235.202 140.266 235.479 140.384 235.708 140.622C235.951 140.861 236.074 141.15 236.078 141.489C236.081 141.843 235.964 142.141 235.726 142.384C235.502 142.627 235.228 142.75 234.902 142.753ZM241.58 128.677L241.472 138.634L239.944 138.649L239.628 128.696L241.58 128.677ZM240.836 142.695C240.482 142.699 240.183 142.581 239.94 142.343C239.711 142.105 239.595 141.809 239.591 141.455C239.588 141.115 239.698 140.824 239.922 140.581C240.16 140.338 240.456 140.215 240.81 140.212C241.135 140.209 241.412 140.326 241.641 140.565C241.884 140.803 242.008 141.092 242.011 141.431C242.015 141.785 241.898 142.084 241.66 142.326C241.436 142.569 241.161 142.692 240.836 142.695ZM247.514 128.619L247.406 138.577L245.878 138.592L245.561 128.638L247.514 128.619ZM246.769 142.638C246.415 142.641 246.117 142.524 245.874 142.285C245.645 142.047 245.528 141.751 245.525 141.397C245.521 141.058 245.631 140.766 245.855 140.524C246.093 140.281 246.389 140.157 246.743 140.154C247.069 140.151 247.346 140.268 247.575 140.507C247.818 140.745 247.941 141.034 247.945 141.374C247.948 141.727 247.831 142.026 247.593 142.269C247.369 142.511 247.095 142.634 246.769 142.638Z" fill="#1A1A1A"/>
<path fill-rule="evenodd" clip-rule="evenodd" d="M53.9375 191.417C53.9375 177.852 64.9341 166.855 78.4992 166.855H264.637C271.151 166.855 277.399 169.443 282.005 174.049C286.611 178.656 289.199 184.903 289.199 191.417C289.199 204.982 278.202 215.979 264.637 215.979H78.4992C64.9341 215.979 53.9375 204.982 53.9375 191.417Z" fill="#FF4778"/>
<path fill-rule="evenodd" clip-rule="evenodd" d="M53.9375 191.417C53.9375 177.852 64.9341 166.855 78.4992 166.855H264.637C271.151 166.855 277.399 169.443 282.005 174.049C286.611 178.656 289.199 184.903 289.199 191.417C289.199 204.982 278.202 215.979 264.637 215.979H78.4992C64.9341 215.979 53.9375 204.982 53.9375 191.417Z" stroke="#44546A" stroke-width="1.35859" stroke-miterlimit="10" stroke-linejoin="round"/>
<path d="M97.6352 186.491V190.1H103.452V193.454H97.6352V197.339H104.195V200.82H93.3047V183.031H104.195V186.491H97.6352ZM115.636 186.534C117.291 186.534 118.615 187.072 119.605 188.147C120.596 189.209 121.091 190.68 121.091 192.563V200.82H116.782V193.136C116.782 192.188 116.534 191.452 116.039 190.928C115.544 190.404 114.886 190.143 114.065 190.143C113.23 190.143 112.565 190.404 112.069 190.928C111.588 191.452 111.348 192.188 111.348 193.136V200.82H107.017V186.682H111.348V188.551C111.786 187.928 112.374 187.44 113.109 187.086C113.859 186.718 114.702 186.534 115.636 186.534ZM128.431 189.039C128.94 188.26 129.57 187.652 130.32 187.213C131.084 186.76 131.934 186.534 132.868 186.534V191.119H131.679C130.603 191.119 129.79 191.353 129.238 191.82C128.7 192.272 128.431 193.086 128.431 194.261V200.82H124.1V186.682H128.431V189.039ZM141.381 201.033C139.994 201.033 138.748 200.735 137.645 200.141C136.541 199.547 135.67 198.705 135.034 197.615C134.397 196.511 134.078 195.223 134.078 193.751C134.078 192.294 134.397 191.013 135.034 189.909C135.685 188.805 136.569 187.956 137.687 187.362C138.805 186.767 140.057 186.47 141.444 186.47C142.831 186.47 144.077 186.767 145.181 187.362C146.299 187.956 147.176 188.805 147.813 189.909C148.464 191.013 148.789 192.294 148.789 193.751C148.789 195.209 148.464 196.49 147.813 197.594C147.162 198.698 146.27 199.547 145.138 200.141C144.02 200.735 142.768 201.033 141.381 201.033ZM141.381 197.275C142.216 197.275 142.923 196.971 143.504 196.362C144.084 195.754 144.374 194.884 144.374 193.751C144.374 192.619 144.091 191.749 143.525 191.14C142.959 190.532 142.265 190.228 141.444 190.228C140.595 190.228 139.888 190.532 139.322 191.14C138.77 191.735 138.494 192.605 138.494 193.751C138.494 194.884 138.77 195.754 139.322 196.362C139.874 196.971 140.56 197.275 141.381 197.275ZM155.425 182.055V200.82H151.094V182.055H155.425ZM162.902 182.055V200.82H158.571V182.055H162.902ZM184.222 183.031V186.491H179.51V200.82H175.179V186.491H170.467V183.031H184.222ZM192.834 201.033C191.447 201.033 190.201 200.735 189.097 200.141C187.994 199.547 187.123 198.705 186.486 197.615C185.85 196.511 185.531 195.223 185.531 193.751C185.531 192.294 185.85 191.013 186.486 189.909C187.137 188.805 188.022 187.956 189.14 187.362C190.258 186.767 191.51 186.47 192.897 186.47C194.284 186.47 195.53 186.767 196.633 187.362C197.751 187.956 198.629 188.805 199.266 189.909C199.917 191.013 200.242 192.294 200.242 193.751C200.242 195.209 199.917 196.49 199.266 197.594C198.615 198.698 197.723 199.547 196.591 200.141C195.473 200.735 194.221 201.033 192.834 201.033ZM192.834 197.275C193.669 197.275 194.376 196.971 194.956 196.362C195.537 195.754 195.827 194.884 195.827 193.751C195.827 192.619 195.544 191.749 194.978 191.14C194.412 190.532 193.718 190.228 192.897 190.228C192.048 190.228 191.341 190.532 190.775 191.14C190.223 191.735 189.947 192.605 189.947 193.751C189.947 194.884 190.223 195.754 190.775 196.362C191.326 196.971 192.013 197.275 192.834 197.275ZM201.677 193.73C201.677 192.272 201.953 190.999 202.505 189.909C203.057 188.805 203.807 187.956 204.755 187.362C205.703 186.767 206.757 186.47 207.918 186.47C208.852 186.47 209.701 186.668 210.465 187.065C211.229 187.447 211.838 187.97 212.291 188.635V182.055H216.621V200.82H212.291V198.782C211.88 199.462 211.3 200.007 210.55 200.417C209.8 200.827 208.923 201.033 207.918 201.033C206.757 201.033 205.703 200.735 204.755 200.141C203.807 199.532 203.057 198.676 202.505 197.572C201.953 196.454 201.677 195.174 201.677 193.73ZM212.291 193.751C212.291 192.662 211.987 191.805 211.378 191.183C210.784 190.56 210.055 190.249 209.191 190.249C208.328 190.249 207.592 190.56 206.984 191.183C206.389 191.791 206.092 192.64 206.092 193.73C206.092 194.806 206.389 195.662 206.984 196.299C207.592 196.936 208.328 197.254 209.191 197.254C210.055 197.254 210.784 196.943 211.378 196.32C211.987 195.683 212.291 194.827 212.291 193.751ZM218.887 193.73C218.887 192.272 219.163 190.999 219.715 189.909C220.267 188.805 221.017 187.956 221.965 187.362C222.913 186.767 223.967 186.47 225.128 186.47C226.133 186.47 227.01 186.675 227.76 187.086C228.51 187.496 229.09 188.027 229.501 188.678V186.682H233.831V200.82H229.501V198.825C229.076 199.476 228.482 200.007 227.718 200.417C226.968 200.827 226.097 201.033 225.107 201.033C223.96 201.033 222.913 200.735 221.965 200.141C221.017 199.532 220.267 198.676 219.715 197.572C219.163 196.454 218.887 195.174 218.887 193.73ZM229.501 193.751C229.501 192.662 229.197 191.805 228.588 191.183C227.994 190.56 227.265 190.249 226.402 190.249C225.538 190.249 224.802 190.56 224.194 191.183C223.6 191.791 223.302 192.64 223.302 193.73C223.302 194.806 223.6 195.662 224.194 196.299C224.802 196.936 225.538 197.254 226.402 197.254C227.265 197.254 227.994 196.943 228.588 196.32C229.197 195.683 229.501 194.827 229.501 193.751ZM251.424 186.682L242.55 207.528H237.88L241.128 200.332L235.375 186.682H240.215L243.484 195.513L246.732 186.682H251.424Z" fill="white"/>
</svg>
