<svg width="314" height="355" viewBox="0 0 314 355" fill="none" xmlns="http://www.w3.org/2000/svg">
<path fill-rule="evenodd" clip-rule="evenodd" d="M17.0176 73.712L259.464 49.0787C264.117 48.6059 268.768 50.001 272.393 52.9571C276.018 55.9133 278.321 60.1883 278.794 64.8418L305.337 325.861C305.337 325.862 305.336 325.864 305.335 325.864L27.7988 354.06C27.7976 354.06 27.7964 354.059 27.7963 354.058L1.25591 93.0406C0.270465 83.3503 7.32721 74.6966 17.0176 73.712Z" fill="#EFC083"/>
<path fill-rule="evenodd" clip-rule="evenodd" d="M17.0176 73.712L259.464 49.0787C264.117 48.6059 268.768 50.001 272.393 52.9571C276.018 55.9133 278.321 60.1883 278.794 64.8418L305.337 325.861C305.337 325.862 305.336 325.864 305.335 325.864L27.7988 354.06C27.7976 354.06 27.7964 354.059 27.7963 354.058L1.25591 93.0406C0.270465 83.3503 7.32721 74.6966 17.0176 73.712Z" stroke="#1A1A1A" stroke-width="1.35859" stroke-miterlimit="10" stroke-linejoin="round"/>
<path fill-rule="evenodd" clip-rule="evenodd" d="M49.1666 2.39449L292.884 1.08619C297.562 1.06108 302.058 2.89527 305.384 6.18527C308.71 9.47527 310.593 13.9516 310.618 18.6294L312.362 336.853C312.362 336.854 312.361 336.855 312.359 336.855L33.3687 338.351C33.3674 338.351 33.3663 338.35 33.3663 338.348L31.6253 20.1271C31.572 10.3859 39.4255 2.44678 49.1666 2.39449Z" fill="white"/>
<path fill-rule="evenodd" clip-rule="evenodd" d="M49.1666 2.39449L292.884 1.08619C297.562 1.06108 302.058 2.89527 305.384 6.18527C308.71 9.47527 310.593 13.9516 310.618 18.6294L312.362 336.853C312.362 336.854 312.361 336.855 312.359 336.855L33.3687 338.351C33.3674 338.351 33.3663 338.35 33.3663 338.348L31.6253 20.1271C31.572 10.3859 39.4255 2.44678 49.1666 2.39449Z" stroke="#1A1A1A" stroke-width="1.35859" stroke-miterlimit="10" stroke-linejoin="round"/>
<path d="M68.3654 56.3472L62.3158 56.4062L61.2229 59.495L59.3125 59.5137L64.1775 45.6674L66.279 45.6469L71.4119 59.3957L69.5015 59.4144L68.3654 56.3472ZM67.8192 54.8665L65.241 47.8861L62.8097 54.9153L67.8192 54.8665ZM77.4679 59.5066C76.633 59.5147 75.8815 59.3805 75.2135 59.104C74.5454 58.8274 74.0176 58.4363 73.6302 57.9306C73.2428 57.4248 73.0243 56.8396 72.9749 56.1749L74.8429 56.1567C74.9051 56.6939 75.1645 57.1372 75.6211 57.4866C76.0917 57.8217 76.6949 57.9856 77.4307 57.9784C78.1242 57.9717 78.6674 57.8178 79.0605 57.5167C79.4535 57.2015 79.6476 56.8105 79.6426 56.3435C79.6376 55.8623 79.4216 55.5106 78.9947 55.2883C78.5678 55.0661 77.9074 54.846 77.0135 54.6283C76.2046 54.4239 75.5444 54.218 75.0327 54.0107C74.5209 53.7893 74.0788 53.4681 73.7064 53.0471C73.3339 52.612 73.1439 52.0407 73.1365 51.3331C73.1307 50.7812 73.2881 50.2702 73.6087 49.8C73.9435 49.3297 74.4137 48.9572 75.0193 48.6824C75.6392 48.4074 76.3383 48.2662 77.1166 48.2586C78.3195 48.2469 79.292 48.5417 80.0343 49.143C80.7906 49.7442 81.2027 50.5752 81.2705 51.636L79.4662 51.6536C79.4178 51.0879 79.1795 50.6374 78.7514 50.3019C78.3373 49.9521 77.7765 49.7806 77.0689 49.7875C76.418 49.7939 75.903 49.9404 75.5238 50.2272C75.1445 50.4998 74.9573 50.8625 74.962 51.3153C74.9657 51.6691 75.0821 51.9652 75.311 52.2036C75.5539 52.4276 75.846 52.6088 76.1871 52.747C76.5424 52.885 77.0322 53.0359 77.6567 53.1997C78.4513 53.4042 79.0904 53.6103 79.5737 53.8179C80.0711 54.0112 80.4988 54.3113 80.857 54.7182C81.215 55.1252 81.4046 55.6611 81.4257 56.3261C81.432 56.9204 81.2678 57.4598 80.9332 57.9443C80.6128 58.4286 80.1497 58.8082 79.544 59.083C78.9524 59.3576 78.2604 59.4988 77.4679 59.5066ZM90.0886 59.2137L85.7715 54.4368L85.8219 59.2553L83.9964 59.2731L83.8421 44.5417L85.6676 44.5239L85.7583 53.1844L89.9106 48.3037L92.4366 48.2791L87.3565 53.7633L92.5721 59.1895L90.0886 59.2137ZM98.83 53.6302C98.8182 52.5123 99.0345 51.5336 99.4786 50.6943C99.9225 49.8408 100.538 49.1838 101.326 48.7232C102.114 48.2485 102.989 48.0065 103.951 47.9971C104.913 47.9877 105.743 48.1848 106.441 48.5885C107.153 48.9919 107.689 49.5033 108.049 50.1225L108.028 48.1272L109.854 48.1094L109.968 59.02L108.143 59.0378L108.121 57C107.76 57.6404 107.228 58.1763 106.525 58.6077C105.821 59.025 104.996 59.2383 104.048 59.2475C103.085 59.2569 102.205 59.032 101.408 58.5727C100.625 58.0991 100.002 57.4329 99.5402 56.5741C99.0783 55.7153 98.8415 54.734 98.83 53.6302ZM108.085 53.5613C108.077 52.7405 107.899 52.0275 107.553 51.4223C107.221 50.817 106.771 50.3543 106.201 50.0344C105.632 49.7144 105.007 49.5577 104.328 49.5644C103.649 49.571 103.028 49.7398 102.465 50.0708C101.917 50.3875 101.483 50.8517 101.164 51.4633C100.845 52.075 100.689 52.7912 100.698 53.612C100.707 54.4469 100.877 55.1741 101.209 55.7936C101.541 56.399 101.985 56.8617 102.54 57.1818C103.109 57.5017 103.734 57.6584 104.413 57.6518C105.092 57.6452 105.713 57.4764 106.276 57.1454C106.838 56.8144 107.279 56.343 107.598 55.7314C107.932 55.1054 108.094 54.382 108.085 53.5613ZM118.238 47.8366C119.554 47.8238 120.627 48.2167 121.456 49.0153C122.3 49.7996 122.729 50.9489 122.745 52.4631L122.812 58.8948L121.008 58.9124L120.943 52.7354C120.932 51.6457 120.647 50.8206 120.09 50.2599C119.546 49.685 118.807 49.402 117.873 49.4111C116.91 49.4205 116.149 49.7251 115.59 50.325C115.044 50.9247 114.777 51.7977 114.789 52.944L114.852 58.9724L113.027 58.9902L112.912 48.0796L114.738 48.0618L114.754 49.6113C115.102 49.056 115.579 48.6268 116.184 48.3237C116.804 48.0063 117.488 47.8439 118.238 47.8366ZM135.059 47.8637L128.647 63.9754L126.779 63.9936L128.889 58.7082L124.361 47.968L126.377 47.9484L129.887 56.7454L133.191 47.8819L135.059 47.8637ZM141.559 53.2138C141.547 52.0959 141.763 51.1172 142.208 50.2779C142.652 49.4244 143.267 48.7674 144.055 48.3068C144.843 47.8321 145.725 47.59 146.701 47.5805C147.649 47.5712 148.479 47.7754 149.191 48.193C149.903 48.5965 150.432 49.1009 150.778 49.7061L150.757 47.7108L152.583 47.693L152.751 63.7829L150.926 63.8007L150.85 56.6048C150.503 57.2168 149.971 57.7385 149.254 58.1701C148.55 58.6015 147.718 58.8219 146.755 58.8313C145.807 58.8406 144.934 58.6155 144.137 58.1563C143.354 57.6827 142.731 57.0165 142.269 56.1577C141.807 55.2989 141.571 54.3176 141.559 53.2138ZM150.814 53.1448C150.806 52.3241 150.628 51.6111 150.282 51.0059C149.95 50.4005 149.5 49.9379 148.93 49.6179C148.361 49.298 147.737 49.1413 147.057 49.1479C146.378 49.1545 145.757 49.3234 145.194 49.6544C144.646 49.9711 144.212 50.4352 143.893 51.0469C143.574 51.6586 143.418 52.3748 143.427 53.1956C143.436 54.0305 143.606 54.7577 143.938 55.3772C144.27 55.9825 144.714 56.4452 145.269 56.7653C145.838 57.0853 146.463 57.242 147.142 57.2354C147.821 57.2287 148.442 57.0599 149.005 56.7289C149.568 56.3979 150.008 55.9266 150.328 55.3149C150.661 54.689 150.823 53.9656 150.814 53.1448ZM165.321 47.5688L165.435 58.4794L163.631 58.497L163.614 56.8838C163.266 57.4391 162.782 57.8826 162.163 58.2141C161.558 58.5314 160.887 58.6936 160.152 58.7008C159.302 58.709 158.536 58.5396 157.854 58.1924C157.17 57.8453 156.627 57.3198 156.224 56.6161C155.834 55.9123 155.634 55.058 155.624 54.0533L155.557 47.664L157.34 47.6466L157.404 53.8024C157.415 54.8779 157.693 55.7031 158.237 56.2781C158.795 56.8387 159.54 57.1145 160.475 57.1054C161.451 57.0959 162.212 56.7913 162.758 56.1916C163.317 55.5917 163.591 54.7186 163.579 53.5724L163.517 47.5864L165.321 47.5688ZM178.393 52.4727C178.396 52.8265 178.379 53.1946 178.341 53.5771L169.638 53.6619C169.705 54.7369 170.075 55.5754 170.747 56.1774C171.432 56.7651 172.256 57.0543 173.218 57.0449C173.997 57.0373 174.646 56.8541 175.165 56.4952C175.685 56.1222 176.048 55.6233 176.254 54.9986L178.207 54.9795C177.921 56.0438 177.342 56.9057 176.472 57.5652C175.601 58.2247 174.522 58.5607 173.234 58.5733C172.187 58.5835 171.251 58.3661 170.425 57.9213C169.614 57.4622 168.97 56.8103 168.494 55.9658C168.018 55.1071 167.774 54.1118 167.762 52.9797C167.75 51.8476 167.966 50.8548 168.41 50.0013C168.854 49.1478 169.477 48.4907 170.279 48.03C171.095 47.5692 172.041 47.3335 173.116 47.323C174.149 47.313 175.065 47.5305 175.862 47.9756C176.659 48.4066 177.274 49.0162 177.707 49.8045C178.154 50.5927 178.382 51.4821 178.393 52.4727ZM176.521 52.1088C176.514 51.4296 176.352 50.8438 176.035 50.3516C175.733 49.845 175.318 49.4669 174.792 49.2173C174.266 48.9677 173.684 48.846 173.047 48.8522C172.128 48.8611 171.345 49.1589 170.7 49.7454C170.07 50.3319 169.717 51.142 169.643 52.1759L176.521 52.1088ZM184.709 58.4614C183.874 58.4696 183.122 58.3354 182.454 58.0588C181.786 57.7823 181.258 57.3911 180.871 56.8854C180.484 56.3797 180.265 55.7945 180.216 55.1298L182.084 55.1116C182.146 55.6488 182.405 56.0921 182.862 56.4414C183.333 56.7765 183.936 56.9405 184.671 56.9333C185.365 56.9265 185.908 56.7726 186.301 56.4716C186.694 56.1564 186.888 55.7653 186.883 55.2983C186.878 54.8172 186.662 54.4655 186.236 54.2432C185.809 54.0209 185.148 53.8009 184.254 53.5832C183.445 53.3788 182.785 53.1729 182.274 52.9656C181.762 52.7442 181.32 52.423 180.947 52.002C180.575 51.5669 180.385 50.9956 180.377 50.288C180.372 49.7361 180.529 49.2251 180.849 48.7549C181.184 48.2846 181.654 47.9121 182.26 47.6373C182.88 47.3623 183.579 47.2211 184.357 47.2135C185.56 47.2017 186.533 47.4965 187.275 48.0979C188.031 48.6991 188.443 49.5301 188.511 50.5909L186.707 50.6084C186.659 50.0428 186.42 49.5922 185.992 49.2568C185.578 48.907 185.017 48.7355 184.31 48.7424C183.659 48.7488 183.144 48.8953 182.765 49.1821C182.385 49.4547 182.198 49.8174 182.203 50.2702C182.207 50.624 182.323 50.9201 182.552 51.1584C182.795 51.3825 183.087 51.5636 183.428 51.7019C183.783 51.8399 184.273 51.9908 184.898 52.1546C185.692 52.3591 186.331 52.5652 186.815 52.7728C187.312 52.966 187.74 53.2662 188.098 53.6731C188.456 54.08 188.645 54.616 188.666 55.281C188.673 55.8753 188.508 56.4147 188.174 56.8992C187.854 57.3835 187.39 57.763 186.785 58.0378C186.193 58.3125 185.501 58.4537 184.709 58.4614ZM193.346 48.7817L193.413 55.2135C193.419 55.7512 193.536 56.1322 193.765 56.3564C193.994 56.5665 194.391 56.6687 194.957 56.6632L196.273 56.6504L196.289 58.1787L194.676 58.1945C193.657 58.2044 192.89 57.9783 192.376 57.5163C191.876 57.0542 191.62 56.2924 191.609 55.2311L191.542 48.7993L190.12 48.8132L190.104 47.3273L191.526 47.3134L191.498 44.5752L193.302 44.5576L193.331 47.2959L196.175 47.2681L196.19 48.754L193.346 48.7817ZM199.286 45.4546C198.946 45.4579 198.655 45.3475 198.412 45.1234C198.169 44.8852 198.045 44.5892 198.042 44.2354C198.038 43.8958 198.156 43.6045 198.394 43.3616C198.632 43.1187 198.92 42.9956 199.26 42.9923C199.6 42.9889 199.884 43.1065 200.113 43.3448C200.356 43.5831 200.479 43.872 200.483 44.2116C200.487 44.5654 200.369 44.8638 200.131 45.1067C199.907 45.3353 199.625 45.4513 199.286 45.4546ZM200.196 47.2289L200.31 58.1396L198.485 58.1573L198.371 47.2467L200.196 47.2289ZM208.14 58.2331C207.121 58.243 206.191 58.0256 205.352 57.5809C204.526 57.1219 203.868 56.4702 203.378 55.6259C202.902 54.7672 202.658 53.7718 202.646 52.6397C202.635 51.5217 202.865 50.5359 203.337 49.6821C203.823 48.8141 204.482 48.1496 205.312 47.6886C206.142 47.2276 207.074 46.9921 208.107 46.982C209.14 46.9719 210.076 47.1893 210.916 47.634C211.77 48.0785 212.441 48.723 212.931 49.5674C213.422 50.4118 213.673 51.4 213.684 52.5321C213.696 53.6642 213.459 54.6643 212.973 55.5323C212.486 56.3863 211.821 57.0508 210.977 57.5261C210.133 57.9872 209.187 58.2229 208.14 58.2331ZM208.123 56.6411C208.774 56.6347 209.381 56.4802 209.944 56.1775C210.521 55.8605 210.983 55.3961 211.33 54.7841C211.678 54.1722 211.847 53.4275 211.838 52.5501C211.828 51.6727 211.644 50.9315 211.284 50.3265C210.938 49.7213 210.48 49.2728 209.911 48.9812C209.356 48.6894 208.753 48.5467 208.102 48.553C207.437 48.5595 206.83 48.714 206.281 49.0166C205.732 49.3191 205.298 49.7762 204.979 50.3879C204.66 50.9996 204.505 51.7441 204.514 52.6215C204.524 53.513 204.694 54.2614 205.026 54.8668C205.358 55.4721 205.794 55.9207 206.335 56.2127C206.876 56.5046 207.472 56.6474 208.123 56.6411ZM221.338 46.8318C222.654 46.819 223.726 47.2119 224.556 48.0105C225.399 48.7949 225.828 49.9441 225.844 51.4583L225.912 57.89L224.107 57.9076L224.043 51.7306C224.031 50.641 223.747 49.8158 223.189 49.2551C222.645 48.6802 221.906 48.3973 220.972 48.4064C220.01 48.4157 219.249 48.7204 218.689 49.3202C218.143 49.92 217.876 50.7929 217.888 51.9392L217.952 57.9676L216.126 57.9854L216.012 47.0748L217.837 47.057L217.854 48.6066C218.201 48.0512 218.678 47.622 219.284 47.3189C219.903 47.0015 220.588 46.8392 221.338 46.8318ZM232.734 57.9934C231.899 58.0015 231.148 57.8673 230.48 57.5908C229.812 57.3142 229.284 56.9231 228.896 56.4174C228.509 55.9117 228.291 55.3265 228.241 54.6618L230.109 54.6436C230.171 55.1808 230.431 55.624 230.887 55.9734C231.358 56.3085 231.961 56.4724 232.697 56.4653C233.39 56.4585 233.934 56.3046 234.327 56.0036C234.72 55.6884 234.914 55.2973 234.909 54.8303C234.904 54.3492 234.688 53.9974 234.261 53.7752C233.834 53.5529 233.174 53.3329 232.28 53.1151C231.471 52.9107 230.811 52.7049 230.299 52.4976C229.787 52.2761 229.345 51.9549 228.973 51.534C228.6 51.0989 228.41 50.5275 228.403 49.82C228.397 49.2681 228.554 48.757 228.875 48.2869C229.21 47.8166 229.68 47.444 230.286 47.1692C230.905 46.8943 231.604 46.753 232.383 46.7454C233.586 46.7337 234.558 47.0285 235.3 47.6298C236.057 48.231 236.469 49.062 236.537 50.1228L234.732 50.1404C234.684 49.5748 234.446 49.1242 234.018 48.7887C233.604 48.4389 233.043 48.2675 232.335 48.2744C231.684 48.2807 231.169 48.4273 230.79 48.714C230.411 48.9866 230.223 49.3493 230.228 49.8022C230.232 50.156 230.348 50.452 230.577 50.6904C230.82 50.9145 231.112 51.0956 231.453 51.2338C231.808 51.3719 232.298 51.5228 232.923 51.6865C233.718 51.8911 234.357 52.0971 234.84 52.3047C235.337 52.498 235.765 52.7981 236.123 53.2051C236.481 53.612 236.671 54.148 236.692 54.8129C236.698 55.4073 236.534 55.9467 236.199 56.4311C235.879 56.9154 235.416 57.295 234.81 57.5698C234.219 57.8445 233.527 57.9857 232.734 57.9934Z" fill="#1A1A1A"/>
<path d="M62.1642 74.2444C62.4691 73.6187 62.9169 73.1332 63.5077 72.7877C64.0985 72.4423 64.8184 72.2655 65.6675 72.2572L65.687 74.1252L65.1989 74.1299C63.1752 74.1496 62.1748 75.2562 62.1978 77.4497L62.2601 83.3932L60.4346 83.411L60.3203 72.5004L62.1458 72.4826L62.1642 74.2444ZM77.7552 77.3617C77.7589 77.7155 77.7416 78.0836 77.7032 78.4661L69.0001 78.551C69.0679 79.6259 69.4376 80.4644 70.1091 81.0664C70.7946 81.6541 71.6185 81.9433 72.5807 81.9339C73.3591 81.9264 74.0082 81.7431 74.5281 81.3842C75.0478 81.0112 75.4106 80.5123 75.6164 79.8876L77.5692 79.8686C77.2832 80.9328 76.7048 81.7947 75.8343 82.4542C74.9637 83.1137 73.8845 83.4497 72.5967 83.4623C71.5496 83.4725 70.6132 83.2552 69.7877 82.8103C68.9762 82.3512 68.3325 81.6994 67.8566 80.8548C67.3806 79.9962 67.1366 79.0008 67.1247 77.8687C67.1129 76.7366 67.3289 75.7438 67.7728 74.8903C68.2168 74.0368 68.8397 73.3797 69.6417 72.919C70.4577 72.4582 71.4034 72.2225 72.4789 72.212C73.512 72.202 74.4271 72.4195 75.2243 72.8646C76.0214 73.2956 76.6364 73.9052 77.0692 74.6936C77.5162 75.4818 77.7448 76.3711 77.7552 77.3617ZM75.8833 76.9978C75.8761 76.3186 75.7143 75.7328 75.3979 75.2406C75.0953 74.734 74.6809 74.3559 74.1547 74.1063C73.6284 73.8567 73.0468 73.735 72.41 73.7412C71.4902 73.7502 70.7078 74.0479 70.063 74.6345C69.4322 75.2209 69.0798 76.031 69.0057 77.0649L75.8833 76.9978ZM81.8775 68.4691L82.0317 83.2005L80.2062 83.2183L80.0519 68.4868L81.8775 68.4691ZM84.3674 77.6794C84.3558 76.5615 84.572 75.5828 85.0161 74.7435C85.46 73.89 86.0759 73.233 86.8636 72.7724C87.6512 72.2977 88.5261 72.0556 89.4884 72.0463C90.4507 72.0369 91.2807 72.234 91.9784 72.6376C92.6903 73.0411 93.2264 73.5525 93.5866 74.1717L93.5657 72.1764L95.3913 72.1586L95.5055 83.0692L93.68 83.087L93.6587 81.0492C93.2974 81.6896 92.7652 82.2255 92.0621 82.6569C91.3588 83.0742 90.5331 83.2875 89.585 83.2967C88.6227 83.3061 87.7429 83.0812 86.9455 82.6219C86.1621 82.1483 85.5395 81.4821 85.0777 80.6233C84.6157 79.7645 84.379 78.7832 84.3674 77.6794ZM93.6227 77.6104C93.6141 76.7897 93.4368 76.0767 93.0907 75.4715C92.7589 74.8662 92.3082 74.4035 91.7388 74.0836C91.1693 73.7636 90.545 73.6069 89.8657 73.6135C89.1864 73.6202 88.5655 73.789 88.0028 74.12C87.4542 74.4367 87.0203 74.9009 86.7012 75.5125C86.3821 76.1242 86.2269 76.8404 86.2354 77.6612C86.2442 78.4961 86.4145 79.2233 86.7466 79.8428C87.0784 80.4481 87.522 80.9109 88.0773 81.231C88.6468 81.5509 89.2712 81.7076 89.9504 81.701C90.6297 81.6944 91.2506 81.5255 91.8133 81.1946C92.3759 80.8636 92.8168 80.3922 93.1359 79.7806C93.469 79.1546 93.6313 78.4312 93.6227 77.6104ZM100.673 73.5931L100.74 80.0249C100.746 80.5626 100.863 80.9436 101.092 81.1678C101.321 81.3779 101.718 81.4802 102.284 81.4746L103.6 81.4618L103.616 82.9901L102.003 83.0059C100.984 83.0158 100.217 82.7897 99.7031 82.3277C99.2029 81.8656 98.9473 81.1038 98.9362 80.0425L98.8688 73.6107L97.4466 73.6246L97.431 72.1387L98.8532 72.1248L98.8246 69.3866L100.629 69.369L100.658 72.1073L103.502 72.0795L103.518 73.5654L100.673 73.5931ZM115.706 76.9919C115.709 77.3457 115.692 77.7138 115.654 78.0963L106.95 78.1811C107.018 79.2561 107.388 80.0945 108.059 80.6966C108.745 81.2843 109.569 81.5735 110.531 81.5641C111.31 81.5565 111.959 81.3733 112.478 81.0144C112.998 80.6414 113.361 80.1425 113.567 79.5178L115.52 79.4987C115.234 80.563 114.655 81.4248 113.785 82.0843C112.914 82.7439 111.835 83.0799 110.547 83.0924C109.5 83.1026 108.564 82.8853 107.738 82.4405C106.927 81.9813 106.283 81.3295 105.807 80.485C105.331 79.6263 105.087 78.6309 105.075 77.4988C105.063 76.3667 105.279 75.3739 105.723 74.5205C106.167 73.667 106.79 73.0099 107.592 72.5492C108.408 72.0883 109.354 71.8527 110.429 71.8422C111.462 71.8321 112.378 72.0496 113.175 72.4948C113.972 72.9257 114.587 73.5354 115.02 74.3237C115.467 75.1119 115.695 76.0013 115.706 76.9919ZM113.834 76.628C113.827 75.9487 113.665 75.363 113.348 74.8707C113.046 74.3642 112.631 73.9861 112.105 73.7365C111.579 73.4868 110.997 73.3651 110.36 73.3713C109.441 73.3803 108.658 73.6781 108.013 74.2646C107.383 74.851 107.03 75.6612 106.956 76.695L113.834 76.628ZM117.42 77.3573C117.408 76.2393 117.624 75.2607 118.068 74.4214C118.512 73.5679 119.128 72.9109 119.916 72.4503C120.703 71.9756 121.585 71.7335 122.562 71.7239C123.411 71.7157 124.198 71.9061 124.924 72.2953C125.664 72.6703 126.236 73.1742 126.638 73.8071L126.578 68.0334L128.404 68.0156L128.558 82.7471L126.732 82.7649L126.711 80.7059C126.35 81.3604 125.818 81.9034 125.114 82.3348C124.425 82.752 123.607 82.9652 122.659 82.9744C121.696 82.9838 120.816 82.7588 120.019 82.2996C119.222 81.8261 118.592 81.16 118.13 80.3012C117.668 79.4424 117.431 78.4611 117.42 77.3573ZM126.675 77.2883C126.666 76.4676 126.489 75.7546 126.143 75.1494C125.811 74.5441 125.361 74.0814 124.791 73.7614C124.222 73.4415 123.597 73.2848 122.918 73.2914C122.239 73.298 121.618 73.4669 121.055 73.7978C120.506 74.1146 120.073 74.5787 119.754 75.1904C119.434 75.8021 119.279 76.5183 119.288 77.3391C119.297 78.174 119.467 78.9012 119.799 79.5207C120.131 80.126 120.574 80.5888 121.13 80.9089C121.699 81.2288 122.323 81.3855 123.003 81.3789C123.682 81.3722 124.303 81.2034 124.866 80.8724C125.428 80.5414 125.869 80.0701 126.188 79.4584C126.521 78.8325 126.684 78.1091 126.675 77.2883ZM139.042 73.2192L139.109 79.6509C139.115 80.1887 139.232 80.5697 139.461 80.7939C139.689 81.004 140.087 81.1062 140.653 81.1007L141.969 81.0879L141.985 82.6162L140.372 82.6319C139.353 82.6419 138.586 82.4158 138.072 81.9538C137.571 81.4916 137.316 80.7299 137.305 79.6685L137.237 73.2368L135.815 73.2507L135.8 71.7648L137.222 71.7509L137.193 69.0126L138.997 68.9951L139.026 71.7333L141.87 71.7056L141.886 73.1915L139.042 73.2192ZM148.937 82.7183C147.918 82.7282 146.989 82.5108 146.149 82.0661C145.324 81.6071 144.666 80.9555 144.176 80.1111C143.7 79.2524 143.456 78.257 143.444 77.1249C143.432 76.007 143.662 75.0211 144.135 74.1673C144.621 73.2993 145.279 72.6348 146.109 72.1738C146.939 71.7128 147.871 71.4773 148.904 71.4672C149.937 71.4572 150.873 71.6745 151.713 72.1192C152.567 72.5637 153.239 73.2082 153.729 74.0526C154.219 74.897 154.47 75.8852 154.482 77.0173C154.494 78.1494 154.256 79.1495 153.77 80.0176C153.284 80.8715 152.618 81.5361 151.774 82.0113C150.93 82.4724 149.984 82.7081 148.937 82.7183ZM148.92 81.1263C149.571 81.1199 150.178 80.9654 150.741 80.6627C151.318 80.3457 151.78 79.8813 152.128 79.2693C152.475 78.6574 152.644 77.9127 152.635 77.0353C152.626 76.158 152.441 75.4167 152.081 74.8117C151.735 74.2065 151.277 73.7581 150.708 73.4664C150.153 73.1746 149.55 73.0319 148.899 73.0382C148.234 73.0447 147.627 73.1992 147.078 73.5018C146.53 73.8043 146.096 74.2614 145.777 74.8731C145.457 75.4848 145.303 76.2293 145.312 77.1067C145.321 77.9982 145.492 78.7467 145.823 79.352C146.155 79.9573 146.592 80.406 147.133 80.6979C147.673 80.9898 148.269 81.1326 148.92 81.1263Z" fill="#1A1A1A"/>
<path d="M161.297 75.4238C161.283 74.037 161.567 72.8029 162.15 71.7216C162.733 70.6262 163.552 69.7761 164.607 69.1714C165.677 68.5524 166.89 68.2363 168.249 68.2231C169.905 68.2069 171.324 68.6318 172.508 69.4978C173.706 70.3636 174.511 71.5516 174.923 73.0619L171.187 73.0983C170.898 72.5067 170.497 72.0648 169.984 71.7726C169.472 71.4663 168.89 71.3163 168.239 71.3226C167.192 71.3328 166.346 71.709 165.703 72.4512C165.06 73.1934 164.745 74.173 164.757 75.3901C164.77 76.6071 165.106 77.5803 165.765 78.3098C166.423 79.0252 167.276 79.3778 168.323 79.3676C168.974 79.3613 169.553 79.207 170.059 78.9049C170.565 78.5886 170.957 78.1389 171.234 77.556L174.97 77.5196C174.589 79.0376 173.809 80.2411 172.63 81.1301C171.464 82.0048 170.054 82.4502 168.398 82.4663C167.04 82.4795 165.819 82.1871 164.738 81.5891C163.67 80.991 162.833 80.157 162.227 79.0873C161.622 78.0176 161.312 76.7964 161.297 75.4238ZM182.17 82.3958C181.08 82.4064 180.101 82.1824 179.233 81.7238C178.365 81.2653 177.672 80.6068 177.153 79.7486C176.649 78.8902 176.391 77.8808 176.379 76.7204C176.367 75.5883 176.611 74.5881 177.111 73.7199C177.612 72.8376 178.291 72.1587 179.149 71.6833C180.022 71.2078 181.003 70.9647 182.093 70.9541C183.182 70.9435 184.168 71.1674 185.051 71.6258C185.933 72.0843 186.626 72.7497 187.131 73.6223C187.649 74.4806 187.914 75.4757 187.926 76.6078C187.938 77.7541 187.694 78.7684 187.194 79.6507C186.693 80.5189 186 81.1909 185.113 81.6665C184.241 82.1421 183.26 82.3852 182.17 82.3958ZM182.139 79.4452C182.79 79.4389 183.339 79.1929 183.787 78.7074C184.249 78.2217 184.476 77.5331 184.466 76.6416C184.457 75.75 184.223 75.073 183.766 74.6104C183.322 74.1335 182.774 73.8983 182.123 73.9046C181.458 73.9111 180.909 74.157 180.475 74.6425C180.042 75.1137 179.829 75.7951 179.839 76.6867C179.848 77.5782 180.067 78.2625 180.497 78.7395C180.941 79.2163 181.488 79.4516 182.139 79.4452ZM193.063 67.3868L193.217 82.1183L189.8 82.1516L189.645 67.4201L193.063 67.3868ZM198.937 67.3296L199.091 82.061L195.673 82.0943L195.519 67.3629L198.937 67.3296ZM211.973 76.2037C211.976 76.515 211.959 76.8477 211.92 77.2019L204.215 77.277C204.264 77.97 204.489 78.4986 204.889 78.8626C205.289 79.2125 205.772 79.3848 206.338 79.3792C207.187 79.371 207.778 79.0043 208.11 78.2793L211.718 78.2441C211.542 78.9818 211.217 79.6501 210.742 80.2492C210.267 80.8341 209.663 81.2999 208.931 81.6467C208.212 81.9792 207.4 82.1499 206.495 82.1587C205.405 82.1693 204.433 81.9453 203.579 81.4866C202.725 81.0279 202.053 80.3692 201.563 79.5107C201.073 78.6522 200.822 77.6427 200.809 76.4823C200.797 75.336 201.02 74.329 201.478 73.4612C201.951 72.5933 202.609 71.9217 203.453 71.4465C204.297 70.9712 205.271 70.7282 206.375 70.7174C207.45 70.707 208.408 70.9241 209.248 71.3688C210.087 71.8135 210.745 72.451 211.221 73.2814C211.711 74.1116 211.961 75.0857 211.973 76.2037ZM208.461 75.3463C208.455 74.7519 208.252 74.2868 207.852 73.9511C207.452 73.6153 206.955 73.4503 206.361 73.4561C205.795 73.4616 205.315 73.6291 204.923 73.9584C204.53 74.2877 204.294 74.7641 204.216 75.3876L208.461 75.3463ZM217.918 70.6049C218.697 70.5973 219.385 70.7534 219.982 71.0731C220.58 71.3786 221.037 71.7917 221.354 72.3122L221.338 70.7414L224.755 70.7081L224.871 81.7886C224.882 82.8075 224.686 83.7364 224.285 84.5753C223.897 85.4141 223.289 86.0781 222.459 86.5674C221.629 87.0708 220.598 87.3285 219.367 87.3405C217.726 87.3565 216.384 86.9804 215.343 86.2121C214.316 85.4438 213.725 84.3951 213.569 83.0663L216.923 83.0336C217.041 83.4571 217.299 83.7871 217.698 84.0238C218.097 84.2747 218.594 84.3972 219.188 84.3914C219.881 84.3847 220.431 84.1741 220.837 83.7597C221.258 83.3593 221.463 82.7134 221.454 81.8219L221.437 80.2511C221.117 80.7778 220.662 81.2069 220.071 81.5381C219.494 81.8693 218.816 82.0386 218.038 82.0462C217.118 82.0552 216.281 81.8298 215.526 81.3701C214.785 80.8962 214.191 80.2297 213.743 79.3708C213.309 78.4975 213.086 77.4878 213.074 76.3415C213.063 75.2094 213.264 74.2097 213.68 73.3423C214.11 72.4748 214.69 71.804 215.421 71.3298C216.166 70.8555 216.998 70.6139 217.918 70.6049ZM221.396 76.2817C221.387 75.4326 221.146 74.7697 220.674 74.2932C220.202 73.8024 219.626 73.5604 218.947 73.567C218.268 73.5736 217.69 73.8198 217.214 74.3057C216.752 74.7913 216.526 75.4587 216.534 76.3078C216.543 77.1569 216.784 77.8339 217.256 78.3388C217.743 78.8294 218.325 79.0714 219.005 79.0647C219.684 79.0581 220.254 78.8049 220.716 78.305C221.178 77.8052 221.405 77.1307 221.396 76.2817ZM237.758 75.9524C237.761 76.2637 237.743 76.5965 237.705 76.9506L229.999 77.0257C230.049 77.7187 230.274 78.2473 230.674 78.6113C231.074 78.9613 231.557 79.1335 232.123 79.128C232.972 79.1197 233.563 78.753 233.895 78.028L237.503 77.9928C237.327 78.7305 237.001 79.3988 236.527 79.9979C236.051 80.5828 235.448 81.0486 234.715 81.3954C233.997 81.7279 233.185 81.8986 232.279 81.9074C231.19 81.918 230.218 81.694 229.364 81.2353C228.51 80.7766 227.838 80.1179 227.348 79.2594C226.858 78.4009 226.606 77.3914 226.594 76.231C226.582 75.0847 226.805 74.0777 227.263 73.21C227.735 72.342 228.393 71.6704 229.238 71.1952C230.082 70.7199 231.056 70.4769 232.16 70.4661C233.235 70.4557 234.193 70.6728 235.032 71.1175C235.872 71.5622 236.53 72.1997 237.006 73.0301C237.495 73.8603 237.746 74.8344 237.758 75.9524ZM234.246 75.095C234.24 74.5006 234.037 74.0356 233.637 73.6998C233.237 73.364 232.74 73.199 232.146 73.2048C231.58 73.2103 231.1 73.3778 230.708 73.7071C230.315 74.0365 230.079 74.5129 230.001 75.1363L234.246 75.095ZM254.516 81.5209L253.208 80.2811C251.931 81.2701 250.394 81.7733 248.596 81.7909C247.521 81.8013 246.585 81.6406 245.789 81.3087C244.993 80.9627 244.372 80.4734 243.927 79.8408C243.495 79.194 243.275 78.439 243.266 77.5758C243.257 76.6984 243.482 75.9037 243.942 75.1915C244.401 74.4653 245.103 73.8711 246.046 73.409C245.702 72.9878 245.45 72.5869 245.29 72.2063C245.145 71.8115 245.069 71.3806 245.065 70.9136C245.058 70.2485 245.221 69.6454 245.555 69.1043C245.903 68.549 246.401 68.1125 247.049 67.7948C247.711 67.477 248.487 67.3137 249.379 67.305C250.299 67.2961 251.079 67.4583 251.719 67.7917C252.359 68.111 252.838 68.5521 253.155 69.1152C253.486 69.6639 253.641 70.2709 253.62 70.9363L250.415 70.9676C250.425 70.6136 250.33 70.3386 250.13 70.1424C249.944 69.9461 249.688 69.8495 249.363 69.8527C249.052 69.8557 248.791 69.9573 248.581 70.1575C248.37 70.3435 248.267 70.5781 248.27 70.8611C248.273 71.1441 248.361 71.4405 248.534 71.7501C248.721 72.0455 249.007 72.3895 249.394 72.782L252.846 76.0813C252.874 76.0103 252.908 75.9321 252.95 75.8468C252.991 75.7473 253.04 75.6407 253.095 75.5269L253.825 74.2673L257.221 74.2342L256.284 75.9629C255.939 76.7588 255.536 77.5057 255.076 78.2037L258.486 81.4822L254.516 81.5209ZM248.737 79.0509C249.629 79.0423 250.412 78.7799 251.086 78.2638L247.955 75.301C247.012 75.7914 246.545 76.4541 246.554 77.289C246.559 77.7984 246.755 78.2211 247.14 78.557C247.54 78.8928 248.072 79.0574 248.737 79.0509Z" fill="#1A1A1A"/>
<path d="M70.9453 97.7553C70.9537 98.5619 70.7704 99.2996 70.3952 99.9684C70.0343 100.637 69.474 101.187 68.7142 101.619C67.9543 102.037 67.0013 102.252 65.855 102.263L63.7535 102.283L63.806 107.293L60.3885 107.326L60.2422 93.359L65.7612 93.3052C66.8792 93.2943 67.8222 93.4762 68.5904 93.8508C69.3727 94.2253 69.9585 94.7503 70.3477 95.4259C70.7369 96.1014 70.9361 96.8779 70.9453 97.7553ZM65.5718 99.5484C66.2228 99.5421 66.7024 99.3888 67.0106 99.0886C67.3328 98.7741 67.4911 98.3409 67.4853 97.789C67.4793 97.2229 67.3121 96.7929 66.9835 96.4989C66.6689 96.1906 66.1861 96.0396 65.5352 96.046L63.6884 96.064L63.7251 99.5664L65.5718 99.5484ZM76.1336 97.917C76.5234 97.3046 77.0137 96.8186 77.6043 96.4591C78.195 96.0995 78.8583 95.9161 79.5941 95.909L79.6319 99.5175L78.698 99.5266C77.8488 99.5349 77.2139 99.7251 76.7932 100.097C76.3724 100.455 76.1669 101.094 76.1765 102.014L76.2305 107.172L72.813 107.205L72.6967 96.1035L76.1142 96.0702L76.1336 97.917ZM86.3886 107.243C85.299 107.253 84.3201 107.029 83.452 106.571C82.5839 106.112 81.8906 105.454 81.3721 104.596C80.8678 103.737 80.6095 102.728 80.5974 101.567C80.5855 100.435 80.8298 99.4351 81.3302 98.5669C81.8305 97.6846 82.5098 97.0057 83.368 96.5303C84.2406 96.0547 85.2216 95.8117 86.3113 95.801C87.4009 95.7904 88.3869 96.0143 89.2692 96.4728C90.1515 96.9312 90.8449 97.5967 91.3494 98.4692C91.8679 99.3275 92.133 100.323 92.1448 101.455C92.1568 102.601 91.9127 103.615 91.4125 104.498C90.9121 105.366 90.2185 106.038 89.3319 106.513C88.4594 106.989 87.4783 107.232 86.3886 107.243ZM86.3578 104.292C87.0087 104.286 87.5581 104.04 88.006 103.554C88.4679 103.069 88.6942 102.38 88.6848 101.489C88.6755 100.597 88.442 99.9199 87.9842 99.4574C87.5405 98.9805 86.9931 98.7452 86.3422 98.7516C85.6771 98.758 85.1277 99.004 84.6941 99.4894C84.2603 99.9607 84.048 100.642 84.0574 101.534C84.0667 102.425 84.2862 103.109 84.7158 103.586C85.1595 104.063 85.7068 104.299 86.3578 104.292ZM99.5142 98.6657L97.6887 98.6834L97.7753 106.962L94.3578 106.995L94.2711 98.7168L93.0399 98.7288L93.0104 95.9056L94.2415 95.8936L94.2382 95.5752C94.2238 94.2025 94.6021 93.1586 95.373 92.4435C96.158 91.7282 97.3077 91.3631 98.8219 91.3484C99.0766 91.3459 99.2607 91.3512 99.374 91.3642L99.4042 94.2511C98.7529 94.215 98.2939 94.3114 98.0274 94.5405C97.7751 94.7694 97.6519 95.1739 97.658 95.7541L97.6591 95.8603L99.4846 95.8425L99.5142 98.6657ZM111.612 101.095C111.616 101.407 111.598 101.739 111.559 102.094L103.854 102.169C103.903 102.862 104.128 103.39 104.528 103.754C104.928 104.104 105.411 104.276 105.977 104.271C106.826 104.263 107.417 103.896 107.749 103.171L111.358 103.136C111.181 103.873 110.856 104.542 110.381 105.141C109.906 105.726 109.302 106.191 108.57 106.538C107.852 106.871 107.04 107.041 106.134 107.05C105.044 107.061 104.072 106.837 103.218 106.378C102.364 105.919 101.692 105.261 101.202 104.402C100.712 103.544 100.461 102.534 100.449 101.374C100.437 100.228 100.66 99.2206 101.118 98.3528C101.59 97.4849 102.248 96.8133 103.092 96.338C103.936 95.8628 104.91 95.6198 106.014 95.609C107.089 95.5985 108.047 95.8156 108.887 96.2604C109.726 96.7051 110.384 97.3426 110.86 98.173C111.35 99.0032 111.601 99.9773 111.612 101.095ZM108.1 100.238C108.094 99.6435 107.891 99.1784 107.491 98.8427C107.092 98.5069 106.595 98.3419 106 98.3477C105.434 98.3532 104.955 98.5206 104.562 98.85C104.169 99.1793 103.933 99.6557 103.855 100.279L108.1 100.238ZM117.974 106.935C117.012 106.944 116.147 106.79 115.38 106.472C114.626 106.14 114.027 105.685 113.582 105.11C113.137 104.534 112.883 103.885 112.819 103.164L116.194 103.131C116.226 103.527 116.399 103.844 116.713 104.081C117.041 104.305 117.439 104.414 117.906 104.409C118.33 104.405 118.655 104.324 118.88 104.166C119.118 103.994 119.236 103.774 119.234 103.505C119.23 103.193 119.058 102.962 118.717 102.809C118.39 102.657 117.857 102.492 117.119 102.315C116.311 102.139 115.637 101.955 115.097 101.762C114.571 101.555 114.115 101.234 113.728 100.799C113.341 100.35 113.144 99.7429 113.136 98.9787C113.129 98.3419 113.3 97.76 113.648 97.2329C113.997 96.7059 114.509 96.2905 115.185 95.9867C115.861 95.6687 116.673 95.5051 117.621 95.4959C119.008 95.4824 120.108 95.8184 120.922 96.504C121.736 97.1895 122.206 98.0978 122.331 99.2288L119.189 99.2594C119.128 98.8779 118.955 98.5753 118.67 98.3516C118.385 98.1279 118.008 98.0184 117.541 98.0229C117.145 98.0268 116.842 98.1076 116.631 98.2653C116.421 98.4231 116.317 98.6364 116.319 98.9052C116.323 99.2166 116.495 99.4555 116.836 99.622C117.178 99.7743 117.703 99.9249 118.412 100.074C119.249 100.278 119.924 100.484 120.435 100.691C120.961 100.884 121.417 101.212 121.804 101.675C122.205 102.124 122.417 102.731 122.439 103.495C122.446 104.146 122.268 104.728 121.905 105.241C121.543 105.754 121.023 106.162 120.347 106.466C119.671 106.77 118.88 106.926 117.974 106.935ZM129.085 106.827C128.123 106.836 127.258 106.682 126.49 106.364C125.736 106.031 125.137 105.577 124.693 105.001C124.248 104.425 123.993 103.777 123.929 103.056L127.304 103.023C127.337 103.419 127.51 103.735 127.824 103.973C128.152 104.196 128.549 104.306 129.016 104.301C129.44 104.297 129.765 104.216 129.99 104.058C130.229 103.886 130.347 103.665 130.344 103.396C130.341 103.085 130.168 102.853 129.827 102.701C129.5 102.548 128.968 102.384 128.23 102.207C127.421 102.031 126.747 101.846 126.207 101.654C125.681 101.446 125.225 101.125 124.838 100.69C124.452 100.241 124.254 99.6346 124.246 98.8704C124.239 98.2336 124.41 97.6517 124.759 97.1247C125.107 96.5976 125.619 96.1822 126.295 95.8784C126.971 95.5605 127.783 95.3969 128.731 95.3876C130.118 95.3741 131.219 95.7101 132.033 96.3957C132.847 97.0812 133.316 97.9895 133.441 99.1205L130.299 99.1511C130.239 98.7696 130.066 98.467 129.78 98.2433C129.495 98.0197 129.119 97.9101 128.652 97.9147C128.256 97.9185 127.952 97.9993 127.742 98.157C127.531 98.3148 127.427 98.5281 127.43 98.797C127.433 99.1083 127.605 99.3472 127.947 99.5137C128.288 99.6661 128.813 99.8166 129.523 99.9654C130.36 100.17 131.034 100.375 131.546 100.583C132.071 100.776 132.528 101.104 132.915 101.567C133.316 102.016 133.527 102.622 133.549 103.386C133.556 104.037 133.378 104.619 133.016 105.132C132.653 105.645 132.134 106.054 131.458 106.358C130.781 106.661 129.991 106.818 129.085 106.827ZM137.263 94.3067C136.669 94.3125 136.178 94.1404 135.793 93.7903C135.407 93.4403 135.211 93.0105 135.206 92.5011C135.2 91.9633 135.387 91.5228 135.765 91.1794C136.144 90.8219 136.63 90.6403 137.224 90.6345C137.805 90.6288 138.288 90.801 138.673 91.1511C139.059 91.487 139.255 91.9238 139.26 92.4615C139.266 92.971 139.079 93.4045 138.701 93.762C138.322 94.1195 137.843 94.3011 137.263 94.3067ZM138.973 95.4576L139.09 106.559L135.672 106.593L135.556 95.4909L138.973 95.4576ZM146.6 106.656C145.51 106.667 144.531 106.443 143.663 105.984C142.795 105.525 142.102 104.867 141.583 104.009C141.079 103.15 140.821 102.141 140.808 100.981C140.796 99.8484 141.041 98.8483 141.541 97.9801C142.041 97.0978 142.721 96.4189 143.579 95.9435C144.452 95.4679 145.433 95.2249 146.522 95.2142C147.612 95.2036 148.598 95.4275 149.48 95.886C150.362 96.3444 151.056 97.0099 151.56 97.8825C152.079 98.7407 152.344 99.7359 152.356 100.868C152.368 102.014 152.124 103.029 151.623 103.911C151.123 104.779 150.429 105.451 149.543 105.927C148.67 106.402 147.689 106.645 146.6 106.656ZM146.569 103.705C147.22 103.699 147.769 103.453 148.217 102.968C148.679 102.482 148.905 101.793 148.896 100.902C148.886 100.01 148.653 99.3331 148.195 98.8706C147.751 98.3937 147.204 98.1584 146.553 98.1648C145.888 98.1713 145.339 98.4172 144.905 98.9026C144.471 99.3739 144.259 100.055 144.268 100.947C144.278 101.838 144.497 102.523 144.927 103C145.37 103.476 145.918 103.712 146.569 103.705ZM160.883 95.1167C162.185 95.1041 163.229 95.5185 164.017 96.3599C164.804 97.1873 165.205 98.3368 165.22 99.8086L165.288 106.304L161.892 106.337L161.829 100.309C161.821 99.5586 161.624 98.9803 161.238 98.5736C160.851 98.167 160.333 97.9668 159.682 97.9731C159.031 97.9795 158.516 98.1897 158.138 98.6038C157.761 99.0179 157.576 99.6 157.583 100.35L157.647 106.378L154.229 106.412L154.113 95.3101L157.53 95.2768L157.546 96.7414C157.88 96.2428 158.336 95.8492 158.913 95.5605C159.49 95.2718 160.147 95.1239 160.883 95.1167ZM166.911 100.705C166.9 99.5728 167.101 98.5731 167.517 97.7057C167.947 96.8382 168.527 96.1674 169.258 95.6932C170.003 95.2189 170.835 94.9773 171.755 94.9683C172.534 94.9607 173.222 95.1168 173.819 95.4365C174.417 95.742 174.874 96.1551 175.191 96.6756L175.175 95.1048L178.592 95.0715L178.709 106.173L175.291 106.206L175.274 104.636C174.954 105.148 174.499 105.57 173.908 105.902C173.317 106.233 172.632 106.402 171.854 106.41C170.948 106.419 170.118 106.193 169.363 105.734C168.622 105.26 168.028 104.593 167.58 103.734C167.146 102.861 166.923 101.851 166.911 100.705ZM175.233 100.645C175.224 99.796 174.983 99.1331 174.511 98.6565C174.039 98.1658 173.463 97.9237 172.784 97.9304C172.105 97.937 171.527 98.1832 171.051 98.669C170.589 99.1547 170.363 99.8221 170.371 100.671C170.38 101.52 170.621 102.197 171.093 102.702C171.58 103.193 172.162 103.435 172.842 103.428C173.521 103.422 174.091 103.168 174.553 102.668C175.015 102.169 175.242 101.494 175.233 100.645ZM184.432 91.3845L184.586 106.116L181.169 106.149L181.014 91.4178L184.432 91.3845ZM194.654 103.385L199.111 103.342L199.139 105.974L191.264 106.051L191.117 92.0835L194.535 92.0502L194.654 103.385ZM202.352 93.6724C201.758 93.6782 201.268 93.506 200.882 93.156C200.496 92.8059 200.301 92.3762 200.295 91.8667C200.289 91.329 200.476 90.8884 200.854 90.5451C201.233 90.1876 201.719 90.0059 202.314 90.0001C202.894 89.9945 203.377 90.1667 203.763 90.5167C204.148 90.8526 204.344 91.2895 204.349 91.8272C204.355 92.3367 204.168 92.7701 203.79 93.1276C203.412 93.4851 202.932 93.6667 202.352 93.6724ZM204.062 94.8233L204.179 105.925L200.761 105.958L200.645 94.8566L204.062 94.8233ZM212.131 97.5681L210.305 97.5859L210.392 105.864L206.975 105.898L206.888 97.6192L205.657 97.6312L205.627 94.8081L206.858 94.7961L206.855 94.4777C206.841 93.105 207.219 92.0611 207.99 91.3459C208.775 90.6306 209.924 90.2656 211.439 90.2509C211.693 90.2484 211.877 90.2537 211.991 90.2667L212.021 93.1536C211.37 93.1175 210.911 93.2139 210.644 93.443C210.392 93.6719 210.269 94.0764 210.275 94.6566L210.276 94.7628L212.101 94.745L212.131 97.5681ZM224.229 99.9977C224.232 100.309 224.214 100.642 224.176 100.996L216.47 101.071C216.52 101.764 216.745 102.293 217.145 102.657C217.545 103.007 218.028 103.179 218.594 103.173C219.443 103.165 220.034 102.798 220.366 102.073L223.974 102.038C223.798 102.776 223.472 103.444 222.998 104.043C222.523 104.628 221.919 105.094 221.187 105.441C220.468 105.773 219.656 105.944 218.751 105.953C217.661 105.963 216.689 105.739 215.835 105.281C214.981 104.822 214.309 104.163 213.819 103.305C213.329 102.446 213.078 101.437 213.065 100.276C213.053 99.1301 213.276 98.1231 213.734 97.2553C214.206 96.3874 214.865 95.7158 215.709 95.2405C216.553 94.7653 217.527 94.5223 218.631 94.5115C219.706 94.501 220.664 94.7181 221.504 95.1628C222.343 95.6075 223.001 96.2451 223.477 97.0754C223.966 97.9057 224.217 98.8798 224.229 99.9977ZM220.717 99.1403C220.711 98.546 220.508 98.0809 220.108 97.7451C219.708 97.4094 219.211 97.2444 218.617 97.2502C218.051 97.2557 217.571 97.4231 217.179 97.7525C216.786 98.0818 216.55 98.5582 216.472 99.1817L220.717 99.1403ZM240.336 100.138L236.876 100.172L236.913 103.717L233.687 103.748L233.65 100.203L230.169 100.237L230.137 97.1804L233.618 97.1464L233.581 93.6016L236.807 93.5701L236.844 97.115L240.304 97.0813L240.336 100.138Z" fill="#1A1A1A"/>
<path d="M62.6146 117.335L62.76 131.218L60.9344 131.235L60.7891 117.353L62.6146 117.335ZM71.0443 120.034C72.3604 120.021 73.433 120.414 74.2622 121.213C75.1054 121.997 75.535 123.146 75.5508 124.661L75.6182 131.092L73.8139 131.11L73.7492 124.933C73.7378 123.843 73.4532 123.018 72.8953 122.457C72.3515 121.882 71.6126 121.599 70.6786 121.609C69.7163 121.618 68.9552 121.923 68.3954 122.522C67.8497 123.122 67.5829 123.995 67.595 125.141L67.6581 131.17L65.8325 131.188L65.7183 120.277L67.5438 120.259L67.5601 121.809C67.9081 121.253 68.3847 120.824 68.9901 120.521C69.6095 120.204 70.2942 120.041 71.0443 120.034ZM82.6336 129.347L85.912 120.08L87.8437 120.061L83.6701 131.014L81.5686 131.034L77.1665 120.165L79.1194 120.146L82.6336 129.347ZM90.5467 118.252C90.207 118.255 89.9158 118.145 89.6729 117.921C89.4297 117.682 89.3063 117.386 89.3026 117.033C89.2991 116.693 89.4163 116.402 89.6544 116.159C89.8924 115.916 90.1813 115.793 90.5209 115.789C90.8606 115.786 91.1448 115.904 91.3738 116.142C91.6169 116.38 91.7402 116.669 91.7438 117.009C91.7475 117.363 91.6303 117.661 91.3922 117.904C91.1682 118.133 90.8863 118.249 90.5467 118.252ZM91.4569 120.026L91.5712 130.937L89.7457 130.955L89.6314 120.044L91.4569 120.026ZM96.7527 121.461L96.8201 127.892C96.8257 128.43 96.9429 128.811 97.1717 129.035C97.4003 129.245 97.7977 129.348 98.3637 129.342L99.6798 129.329L99.6958 130.858L98.0826 130.873C97.0637 130.883 96.2971 130.657 95.7827 130.195C95.2825 129.733 95.0269 128.971 95.0158 127.91L94.9484 121.478L93.5262 121.492L93.5106 120.006L94.9329 119.992L94.9042 117.254L96.7085 117.236L96.7372 119.975L99.5815 119.947L99.5971 121.433L96.7527 121.461ZM111.785 124.859C111.789 125.213 111.772 125.581 111.733 125.964L103.03 126.049C103.098 127.124 103.468 127.962 104.139 128.564C104.825 129.152 105.648 129.441 106.611 129.432C107.389 129.424 108.038 129.241 108.558 128.882C109.078 128.509 109.441 128.01 109.646 127.385L111.599 127.366C111.313 128.43 110.735 129.292 109.864 129.952C108.994 130.611 107.915 130.947 106.627 130.96C105.58 130.97 104.643 130.753 103.818 130.308C103.006 129.849 102.363 129.197 101.887 128.352C101.411 127.494 101.167 126.498 101.155 125.366C101.143 124.234 101.359 123.241 101.803 122.388C102.247 121.534 102.87 120.877 103.672 120.417C104.488 119.956 105.434 119.72 106.509 119.71C107.542 119.7 108.457 119.917 109.254 120.362C110.051 120.793 110.666 121.403 111.099 122.191C111.546 122.979 111.775 123.869 111.785 124.859ZM109.913 124.495C109.906 123.816 109.744 123.23 109.428 122.738C109.125 122.232 108.711 121.854 108.185 121.604C107.658 121.354 107.077 121.233 106.44 121.239C105.52 121.248 104.738 121.546 104.093 122.132C103.462 122.718 103.11 123.529 103.036 124.562L109.913 124.495ZM113.499 125.225C113.488 124.107 113.704 123.128 114.148 122.289C114.592 121.435 115.208 120.778 115.996 120.318C116.783 119.843 117.665 119.601 118.642 119.591C119.491 119.583 120.278 119.774 121.004 120.163C121.744 120.538 122.315 121.042 122.718 121.675L122.658 115.901L124.483 115.883L124.637 130.615L122.812 130.632L122.79 128.573C122.429 129.228 121.897 129.771 121.194 130.202C120.505 130.619 119.686 130.833 118.738 130.842C117.776 130.851 116.896 130.626 116.099 130.167C115.301 129.694 114.671 129.027 114.21 128.169C113.748 127.31 113.511 126.329 113.499 125.225ZM122.755 125.156C122.746 124.335 122.569 123.622 122.223 123.017C121.891 122.412 121.44 121.949 120.871 121.629C120.301 121.309 119.677 121.152 118.998 121.159C118.318 121.166 117.697 121.334 117.135 121.665C116.586 121.982 116.152 122.446 115.833 123.058C115.514 123.67 115.359 124.386 115.367 125.207C115.376 126.041 115.547 126.769 115.879 127.388C116.21 127.994 116.654 128.456 117.209 128.776C117.779 129.096 118.403 129.253 119.082 129.246C119.762 129.24 120.383 129.071 120.945 128.74C121.508 128.409 121.949 127.938 122.268 127.326C122.601 126.7 122.763 125.977 122.755 125.156ZM141.195 127.375L135.145 127.434L134.053 130.523L132.142 130.541L137.007 116.695L139.109 116.675L144.241 130.423L142.331 130.442L141.195 127.375ZM140.649 125.894L138.071 118.914L135.639 125.943L140.649 125.894ZM159.434 119.173C160.283 119.164 161.042 119.334 161.711 119.681C162.38 120.014 162.909 120.533 163.298 121.237C163.702 121.94 163.909 122.795 163.92 123.799L163.987 130.231L162.183 130.249L162.118 124.072C162.107 122.982 161.829 122.157 161.285 121.596C160.742 121.021 160.01 120.738 159.09 120.747C158.156 120.756 157.409 121.068 156.849 121.682C156.304 122.281 156.037 123.154 156.049 124.301L156.112 130.308L154.329 130.325L154.264 124.148C154.253 123.059 153.975 122.233 153.432 121.672C152.888 121.098 152.156 120.815 151.236 120.823C150.288 120.833 149.541 121.144 148.996 121.758C148.45 122.358 148.183 123.231 148.195 124.377L148.258 130.384L146.432 130.402L146.318 119.492L148.144 119.474L148.16 121.045C148.508 120.475 148.977 120.039 149.569 119.736C150.174 119.419 150.845 119.256 151.58 119.249C152.5 119.24 153.309 119.438 154.007 119.841C154.719 120.245 155.249 120.841 155.596 121.63C155.9 120.863 156.396 120.264 157.085 119.832C157.788 119.401 158.571 119.181 159.434 119.173ZM166.204 124.711C166.192 123.593 166.408 122.615 166.852 121.775C167.296 120.922 167.912 120.265 168.7 119.804C169.488 119.329 170.362 119.087 171.325 119.078C172.287 119.069 173.117 119.266 173.815 119.669C174.527 120.073 175.063 120.584 175.423 121.203L175.402 119.208L177.228 119.19L177.342 130.101L175.517 130.119L175.495 128.081C175.134 128.721 174.602 129.257 173.899 129.689C173.195 130.106 172.37 130.319 171.421 130.328C170.459 130.338 169.579 130.113 168.782 129.654C167.999 129.18 167.376 128.514 166.914 127.655C166.452 126.796 166.215 125.815 166.204 124.711ZM175.459 124.642C175.451 123.821 175.273 123.108 174.927 122.503C174.595 121.898 174.145 121.435 173.575 121.115C173.006 120.795 172.381 120.639 171.702 120.645C171.023 120.652 170.402 120.821 169.839 121.152C169.291 121.468 168.857 121.933 168.538 122.544C168.219 123.156 168.063 123.872 168.072 124.693C168.081 125.528 168.251 126.255 168.583 126.875C168.915 127.48 169.358 127.943 169.914 128.263C170.483 128.583 171.108 128.739 171.787 128.733C172.466 128.726 173.087 128.557 173.65 128.226C174.212 127.895 174.653 127.424 174.972 126.812C175.305 126.186 175.468 125.463 175.459 124.642ZM181.744 128.572L187.093 128.52L187.108 130.006L179.679 130.078L179.663 128.592L184.887 120.58L179.622 120.632L179.607 119.167L186.952 119.096L186.967 120.56L181.744 128.572ZM190.261 117.28C189.922 117.283 189.63 117.173 189.387 116.949C189.144 116.711 189.021 116.415 189.017 116.061C189.014 115.721 189.131 115.43 189.369 115.187C189.607 114.944 189.896 114.821 190.235 114.818C190.575 114.814 190.859 114.932 191.088 115.17C191.331 115.409 191.455 115.697 191.458 116.037C191.462 116.391 191.345 116.689 191.107 116.932C190.883 117.161 190.601 117.277 190.261 117.28ZM191.171 119.054L191.286 129.965L189.46 129.983L189.346 119.072L191.171 119.054ZM199.57 118.781C200.886 118.769 201.959 119.162 202.788 119.96C203.631 120.745 204.061 121.894 204.077 123.408L204.144 129.84L202.34 129.857L202.275 123.68C202.263 122.591 201.979 121.765 201.421 121.205C200.877 120.63 200.138 120.347 199.204 120.356C198.242 120.365 197.481 120.67 196.921 121.27C196.375 121.87 196.109 122.743 196.121 123.889L196.184 129.917L194.358 129.935L194.244 119.024L196.069 119.007L196.086 120.556C196.434 120.001 196.91 119.572 197.516 119.269C198.135 118.951 198.82 118.789 199.57 118.781ZM211.485 118.687C212.433 118.677 213.263 118.874 213.975 119.278C214.687 119.681 215.223 120.193 215.584 120.812L215.563 118.817L217.388 118.799L217.505 129.943C217.515 130.948 217.313 131.834 216.896 132.603C216.48 133.385 215.877 133.999 215.09 134.446C214.302 134.892 213.384 135.121 212.337 135.131C210.908 135.145 209.708 134.817 208.739 134.147C207.784 133.491 207.215 132.577 207.033 131.404L208.816 131.386C209.021 132.05 209.437 132.576 210.064 132.966C210.691 133.371 211.443 133.569 212.32 133.56C213.311 133.55 214.122 133.231 214.752 132.602C215.382 131.973 215.691 131.093 215.679 129.961L215.655 127.668C215.294 128.309 214.762 128.845 214.059 129.276C213.37 129.707 212.551 129.928 211.603 129.937C210.641 129.946 209.761 129.721 208.964 129.262C208.166 128.789 207.536 128.122 207.075 127.264C206.613 126.405 206.376 125.424 206.364 124.32C206.353 123.202 206.569 122.223 207.013 121.384C207.457 120.53 208.073 119.873 208.861 119.413C209.648 118.938 210.523 118.696 211.485 118.687ZM215.62 124.251C215.611 123.43 215.434 122.717 215.088 122.112C214.756 121.506 214.305 121.044 213.736 120.724C213.166 120.404 212.542 120.247 211.863 120.254C211.183 120.26 210.562 120.429 210 120.76C209.451 121.077 209.017 121.541 208.698 122.153C208.379 122.765 208.224 123.481 208.232 124.302C208.241 125.136 208.411 125.864 208.744 126.483C209.075 127.088 209.519 127.551 210.074 127.871C210.644 128.191 211.268 128.348 211.947 128.341C212.627 128.335 213.248 128.166 213.81 127.835C214.373 127.504 214.814 127.033 215.133 126.421C215.466 125.795 215.628 125.072 215.62 124.251ZM235.051 119.731C235.063 120.877 234.677 121.836 233.892 122.608C233.122 123.38 231.923 123.773 230.296 123.789L227.642 123.815L227.703 129.61L225.877 129.628L225.732 115.746L230.211 115.702C231.782 115.687 232.974 116.057 233.789 116.813C234.618 117.555 235.038 118.528 235.051 119.731ZM230.28 122.303C231.299 122.293 232.04 122.067 232.502 121.624C232.979 121.18 233.213 120.555 233.204 119.749C233.186 118.036 232.194 117.19 230.227 117.209L227.573 117.235L227.627 122.329L230.28 122.303ZM247.3 123.539C247.304 123.892 247.286 124.261 247.248 124.643L238.545 124.728C238.612 125.803 238.982 126.641 239.654 127.243C240.339 127.831 241.163 128.12 242.125 128.111C242.904 128.103 243.553 127.92 244.073 127.561C244.592 127.188 244.955 126.689 245.161 126.065L247.114 126.046C246.828 127.11 246.249 127.972 245.379 128.631C244.508 129.291 243.429 129.627 242.141 129.639C241.094 129.649 240.158 129.432 239.332 128.987C238.521 128.528 237.877 127.876 237.401 127.032C236.925 126.173 236.681 125.178 236.669 124.046C236.657 122.914 236.873 121.921 237.317 121.067C237.761 120.214 238.384 119.557 239.186 119.096C240.002 118.635 240.948 118.399 242.023 118.389C243.057 118.379 243.972 118.596 244.769 119.042C245.566 119.473 246.181 120.082 246.614 120.871C247.061 121.659 247.289 122.548 247.3 123.539ZM245.428 123.175C245.421 122.496 245.259 121.91 244.942 121.418C244.64 120.911 244.225 120.533 243.699 120.283C243.173 120.034 242.591 119.912 241.955 119.918C241.035 119.927 240.252 120.225 239.607 120.811C238.977 121.398 238.624 122.208 238.55 123.242L245.428 123.175ZM254.507 129.519C253.488 129.529 252.559 129.311 251.719 128.867C250.894 128.408 250.236 127.756 249.746 126.911C249.27 126.053 249.026 125.057 249.014 123.925C249.002 122.807 249.233 121.822 249.705 120.968C250.191 120.1 250.849 119.435 251.68 118.974C252.51 118.513 253.441 118.278 254.474 118.268C255.507 118.258 256.444 118.475 257.284 118.92C258.137 119.364 258.809 120.009 259.299 120.853C259.789 121.697 260.04 122.686 260.052 123.818C260.064 124.95 259.827 125.95 259.341 126.818C258.854 127.672 258.189 128.336 257.345 128.812C256.5 129.273 255.555 129.508 254.507 129.519ZM254.491 127.927C255.142 127.92 255.749 127.766 256.312 127.463C256.888 127.146 257.351 126.682 257.698 126.07C258.045 125.458 258.215 124.713 258.205 123.836C258.196 122.958 258.011 122.217 257.651 121.612C257.305 121.007 256.848 120.558 256.279 120.267C255.724 119.975 255.121 119.832 254.47 119.839C253.805 119.845 253.198 120 252.649 120.302C252.1 120.605 251.666 121.062 251.347 121.674C251.028 122.285 250.873 123.03 250.882 123.907C250.891 124.799 251.062 125.547 251.394 126.152C251.726 126.758 252.162 127.206 252.703 127.498C253.244 127.79 253.84 127.933 254.491 127.927ZM264.226 120.359C264.573 119.733 265.099 119.211 265.802 118.794C266.505 118.363 267.331 118.142 268.279 118.133C269.241 118.124 270.121 118.349 270.918 118.808C271.716 119.253 272.345 119.898 272.807 120.743C273.268 121.573 273.505 122.547 273.517 123.665C273.528 124.769 273.312 125.755 272.868 126.622C272.424 127.49 271.809 128.168 271.021 128.657C270.234 129.132 269.359 129.374 268.397 129.383C267.463 129.392 266.64 129.195 265.928 128.792C265.216 128.374 264.673 127.856 264.298 127.237L264.374 134.433L262.548 134.45L262.379 118.36L264.205 118.343L264.226 120.359ZM271.67 123.683C271.661 122.863 271.484 122.15 271.138 121.544C270.806 120.939 270.356 120.483 269.786 120.178C269.217 119.858 268.592 119.701 267.913 119.708C267.248 119.714 266.634 119.883 266.072 120.214C265.509 120.545 265.061 121.023 264.728 121.649C264.409 122.261 264.254 122.97 264.262 123.777C264.271 124.597 264.441 125.318 264.773 125.937C265.119 126.542 265.577 127.005 266.146 127.325C266.715 127.645 267.333 127.802 267.998 127.795C268.677 127.788 269.298 127.62 269.861 127.289C270.423 126.958 270.864 126.486 271.183 125.875C271.517 125.249 271.679 124.518 271.67 123.683ZM277.625 114.391L277.779 129.122L275.954 129.14L275.799 114.408L277.625 114.391ZM290.746 123.115C290.749 123.469 290.732 123.837 290.693 124.22L281.99 124.304C282.058 125.379 282.428 126.218 283.099 126.82C283.785 127.408 284.609 127.697 285.571 127.687C286.349 127.68 286.999 127.497 287.518 127.138C288.038 126.765 288.401 126.266 288.607 125.641L290.56 125.622C290.274 126.686 289.695 127.548 288.825 128.208C287.954 128.867 286.875 129.203 285.587 129.216C284.54 129.226 283.604 129.009 282.778 128.564C281.967 128.105 281.323 127.453 280.847 126.608C280.371 125.75 280.127 124.754 280.115 123.622C280.103 122.49 280.319 121.497 280.763 120.644C281.207 119.79 281.83 119.133 282.632 118.673C283.448 118.212 284.394 117.976 285.469 117.966C286.502 117.956 287.418 118.173 288.215 118.618C289.012 119.049 289.627 119.659 290.06 120.447C290.507 121.235 290.735 122.125 290.746 123.115ZM288.874 122.751C288.866 122.072 288.705 121.486 288.388 120.994C288.086 120.488 287.671 120.109 287.145 119.86C286.619 119.61 286.037 119.489 285.4 119.495C284.481 119.504 283.698 119.801 283.053 120.388C282.423 120.974 282.07 121.785 281.996 122.818L288.874 122.751Z" fill="#1A1A1A"/>
<path d="M63.2968 145.698L63.3641 152.13C63.3697 152.668 63.487 153.049 63.7158 153.273C63.9444 153.483 64.3418 153.585 64.9078 153.58L66.2238 153.567L66.2398 155.095L64.6266 155.111C63.6077 155.121 62.8411 154.895 62.3267 154.433C61.8266 153.971 61.5709 153.209 61.5598 152.148L61.4925 145.716L60.0702 145.73L60.0547 144.244L61.4769 144.23L61.4482 141.492L63.2525 141.474L63.2812 144.212L66.1256 144.185L66.1412 145.67L63.2968 145.698ZM73.1921 155.197C72.1732 155.207 71.2439 154.99 70.4043 154.545C69.5786 154.086 68.9207 153.434 68.4306 152.59C67.9546 151.731 67.7107 150.736 67.6989 149.604C67.6871 148.486 67.9174 147.5 68.3897 146.646C68.8759 145.778 69.5341 145.114 70.3643 144.653C71.1945 144.192 72.1261 143.956 73.1592 143.946C74.1922 143.936 75.1286 144.153 75.9682 144.598C76.8221 145.043 77.494 145.687 77.984 146.532C78.4741 147.376 78.725 148.364 78.7368 149.496C78.7487 150.628 78.5115 151.628 78.0253 152.497C77.5389 153.35 76.8736 154.015 76.0294 154.49C75.185 154.951 74.2393 155.187 73.1921 155.197ZM73.1754 153.605C73.8264 153.599 74.4333 153.444 74.9962 153.142C75.5732 152.825 76.0354 152.36 76.3828 151.748C76.7302 151.136 76.8993 150.392 76.8902 149.514C76.8809 148.637 76.6962 147.896 76.3361 147.291C75.9901 146.685 75.5325 146.237 74.9633 145.945C74.4083 145.654 73.8054 145.511 73.1544 145.517C72.4893 145.524 71.8823 145.678 71.3336 145.981C70.7847 146.283 70.3508 146.74 70.0317 147.352C69.7126 147.964 69.5576 148.708 69.5668 149.586C69.5762 150.477 69.7468 151.226 70.0786 151.831C70.4105 152.436 70.8468 152.885 71.3876 153.177C71.9285 153.469 72.5244 153.612 73.1754 153.605ZM85.7581 149.428C85.7463 148.296 85.9624 147.31 86.4065 146.471C86.8504 145.617 87.4734 144.96 88.2753 144.499C89.077 144.025 89.9944 143.782 91.0275 143.772C92.3718 143.759 93.479 144.074 94.3491 144.716C95.219 145.345 95.8015 146.238 96.0966 147.395L94.1438 147.414C93.9529 146.751 93.5865 146.231 93.0448 145.854C92.503 145.477 91.8359 145.293 91.0435 145.3C90.0104 145.31 89.1791 145.672 88.5498 146.386C87.9204 147.1 87.6125 148.108 87.6261 149.41C87.6399 150.726 87.969 151.742 88.6134 152.457C89.2575 153.158 90.0962 153.504 91.1293 153.494C91.9217 153.486 92.5779 153.296 93.0976 152.923C93.6315 152.55 93.9939 152.015 94.1847 151.32L96.1376 151.301C95.8521 152.422 95.2742 153.319 94.4038 153.993C93.5475 154.666 92.4613 155.009 91.1453 155.022C90.1122 155.032 89.19 154.815 88.3786 154.37C87.5671 153.911 86.9305 153.259 86.4687 152.414C86.007 151.57 85.7701 150.574 85.7581 149.428ZM103.337 154.903C102.319 154.913 101.389 154.696 100.55 154.251C99.7239 153.792 99.066 153.141 98.5759 152.296C98.0999 151.438 97.856 150.442 97.8441 149.31C97.8324 148.192 98.0627 147.206 98.535 146.353C99.0212 145.484 99.6794 144.82 100.51 144.359C101.34 143.898 102.271 143.662 103.304 143.652C104.338 143.642 105.274 143.86 106.114 144.304C106.967 144.749 107.639 145.393 108.129 146.238C108.619 147.082 108.87 148.07 108.882 149.203C108.894 150.335 108.657 151.335 108.171 152.203C107.684 153.057 107.019 153.721 106.175 154.197C105.33 154.658 104.385 154.893 103.337 154.903ZM103.321 153.311C103.972 153.305 104.579 153.151 105.142 152.848C105.718 152.531 106.181 152.066 106.528 151.455C106.876 150.843 107.045 150.098 107.035 149.221C107.026 148.343 106.842 147.602 106.481 146.997C106.135 146.392 105.678 145.943 105.109 145.652C104.554 145.36 103.951 145.217 103.3 145.223C102.635 145.23 102.028 145.384 101.479 145.687C100.93 145.99 100.496 146.447 100.177 147.058C99.8578 147.67 99.7029 148.415 99.7121 149.292C99.7215 150.183 99.8921 150.932 100.224 151.537C100.556 152.143 100.992 152.591 101.533 152.883C102.074 153.175 102.67 153.318 103.321 153.311ZM124.326 143.426C125.175 143.418 125.934 143.588 126.603 143.935C127.271 144.268 127.8 144.787 128.19 145.49C128.594 146.194 128.801 147.048 128.811 148.053L128.879 154.485L127.074 154.502L127.01 148.325C126.998 147.236 126.721 146.41 126.177 145.85C125.633 145.275 124.901 144.992 123.981 145.001C123.047 145.01 122.301 145.321 121.741 145.935C121.195 146.535 120.928 147.408 120.94 148.554L121.003 154.561L119.22 154.579L119.156 148.402C119.144 147.312 118.867 146.487 118.323 145.926C117.779 145.351 117.047 145.068 116.127 145.077C115.179 145.086 114.432 145.398 113.887 146.012C113.341 146.612 113.074 147.485 113.086 148.631L113.149 154.638L111.324 154.656L111.21 143.745L113.035 143.727L113.052 145.298C113.399 144.729 113.869 144.292 114.46 143.989C115.065 143.672 115.736 143.51 116.472 143.503C117.392 143.494 118.2 143.691 118.898 144.095C119.61 144.498 120.14 145.095 120.488 145.884C120.791 145.117 121.287 144.517 121.976 144.086C122.679 143.655 123.463 143.435 124.326 143.426ZM141.726 148.479C141.73 148.833 141.712 149.201 141.674 149.583L132.971 149.668C133.039 150.743 133.408 151.582 134.08 152.184C134.765 152.772 135.589 153.061 136.552 153.051C137.33 153.044 137.979 152.86 138.499 152.502C139.019 152.129 139.381 151.63 139.587 151.005L141.54 150.986C141.254 152.05 140.676 152.912 139.805 153.572C138.934 154.231 137.855 154.567 136.568 154.58C135.52 154.59 134.584 154.373 133.758 153.928C132.947 153.469 132.303 152.817 131.827 151.972C131.351 151.114 131.107 150.118 131.096 148.986C131.084 147.854 131.3 146.861 131.744 146.008C132.188 145.154 132.81 144.497 133.612 144.036C134.428 143.576 135.374 143.34 136.45 143.329C137.483 143.319 138.398 143.537 139.195 143.982C139.992 144.413 140.607 145.023 141.04 145.811C141.487 146.599 141.716 147.488 141.726 148.479ZM139.854 148.115C139.847 147.436 139.685 146.85 139.369 146.358C139.066 145.851 138.652 145.473 138.125 145.224C137.599 144.974 137.018 144.852 136.381 144.859C135.461 144.868 134.679 145.165 134.034 145.752C133.403 146.338 133.051 147.148 132.977 148.182L139.854 148.115ZM160.149 154.18L158.326 152.372C157.654 153.072 156.93 153.596 156.156 153.943C155.395 154.29 154.534 154.468 153.571 154.478C152.609 154.487 151.758 154.325 151.019 153.993C150.279 153.646 149.701 153.157 149.284 152.524C148.881 151.891 148.675 151.15 148.666 150.301C148.656 149.339 148.923 148.487 149.467 147.746C150.011 147.004 150.819 146.416 151.89 145.981C151.46 145.476 151.144 145.012 150.941 144.589C150.753 144.167 150.656 143.7 150.651 143.191C150.645 142.611 150.788 142.086 151.08 141.616C151.372 141.146 151.793 140.774 152.342 140.5C152.905 140.225 153.555 140.084 154.291 140.077C155.013 140.07 155.637 140.206 156.163 140.484C156.704 140.747 157.104 141.133 157.364 141.64C157.638 142.132 157.764 142.683 157.742 143.292L155.938 143.309C155.947 142.771 155.787 142.348 155.458 142.04C155.143 141.718 154.731 141.559 154.221 141.564C153.698 141.569 153.275 141.729 152.953 142.043C152.63 142.344 152.472 142.72 152.476 143.173C152.481 143.584 152.591 143.972 152.807 144.338C153.037 144.703 153.41 145.16 153.925 145.707L158.108 149.827L158.463 149.25L159.798 146.966L161.751 146.947L160.146 149.807C159.924 150.205 159.659 150.625 159.352 151.067L162.527 154.157L160.149 154.18ZM153.555 152.928C154.263 152.921 154.905 152.78 155.483 152.506C156.06 152.217 156.6 151.773 157.103 151.174L152.985 147.117C151.293 147.784 150.455 148.826 150.47 150.241C150.478 151.019 150.768 151.667 151.339 152.185C151.911 152.689 152.649 152.937 153.555 152.928ZM171.633 144.642L171.7 151.074C171.706 151.612 171.823 151.993 172.052 152.217C172.28 152.427 172.678 152.529 173.244 152.524L174.56 152.511L174.576 154.039L172.963 154.055C171.944 154.065 171.177 153.839 170.663 153.377C170.162 152.915 169.907 152.153 169.896 151.092L169.828 144.66L168.406 144.674L168.391 143.188L169.813 143.174L169.784 140.436L171.588 140.418L171.617 143.157L174.461 143.129L174.477 144.615L171.633 144.642ZM176.034 148.527C176.023 147.409 176.239 146.43 176.683 145.591C177.127 144.737 177.743 144.08 178.531 143.62C179.318 143.145 180.193 142.903 181.155 142.894C182.118 142.884 182.948 143.081 183.645 143.485C184.357 143.889 184.893 144.4 185.254 145.019L185.233 143.024L187.058 143.006L187.173 153.917L185.347 153.934L185.326 151.897C184.964 152.537 184.432 153.073 183.729 153.504C183.026 153.922 182.2 154.135 181.252 154.144C180.29 154.154 179.41 153.929 178.612 153.469C177.829 152.996 177.207 152.33 176.745 151.471C176.283 150.612 176.046 149.631 176.034 148.527ZM185.29 148.458C185.281 147.637 185.104 146.924 184.758 146.319C184.426 145.714 183.975 145.251 183.406 144.931C182.836 144.611 182.212 144.454 181.533 144.461C180.853 144.468 180.233 144.636 179.67 144.967C179.121 145.284 178.687 145.748 178.368 146.36C178.049 146.972 177.894 147.688 177.903 148.509C177.911 149.344 178.082 150.071 178.414 150.69C178.745 151.296 179.189 151.758 179.744 152.078C180.314 152.398 180.938 152.555 181.617 152.548C182.297 152.542 182.918 152.373 183.48 152.042C184.043 151.711 184.484 151.24 184.803 150.628C185.136 150.002 185.298 149.279 185.29 148.458ZM191.902 139.138L192.057 153.869L190.231 153.887L190.077 139.155L191.902 139.138ZM201.221 153.78L196.904 149.003L196.955 153.821L195.129 153.839L194.975 139.108L196.801 139.09L196.891 147.75L201.044 142.87L203.57 142.845L198.49 148.329L203.705 153.756L201.221 153.78Z" fill="#1A1A1A"/>
<path fill-rule="evenodd" clip-rule="evenodd" d="M54.3203 201.234C54.3203 187.668 65.3169 176.672 78.882 176.672H265.02C271.534 176.672 277.782 179.26 282.388 183.866C286.994 188.472 289.582 194.719 289.582 201.234C289.582 214.799 278.585 225.795 265.02 225.795H78.882C65.3169 225.795 54.3203 214.799 54.3203 201.234Z" fill="#FF4778"/>
<path fill-rule="evenodd" clip-rule="evenodd" d="M54.3203 201.234C54.3203 187.668 65.3169 176.672 78.882 176.672H265.02C271.534 176.672 277.782 179.26 282.388 183.866C286.994 188.472 289.582 194.719 289.582 201.234C289.582 214.799 278.585 225.795 265.02 225.795H78.882C65.3169 225.795 54.3203 214.799 54.3203 201.234Z" stroke="#44546A" stroke-width="1.35859" stroke-miterlimit="10" stroke-linejoin="round"/>
<path d="M125.714 192.845V204.966C125.714 206.834 125.183 208.278 124.122 209.296C123.074 210.301 121.659 210.804 119.876 210.804C117.994 210.804 116.487 210.273 115.354 209.212C114.222 208.15 113.656 206.636 113.656 204.669H117.966C117.966 205.419 118.114 205.985 118.411 206.367C118.723 206.749 119.168 206.94 119.749 206.94C120.272 206.94 120.676 206.77 120.959 206.431C121.242 206.091 121.383 205.603 121.383 204.966V192.845H125.714ZM135.651 210.846C134.264 210.846 133.019 210.549 131.915 209.955C130.811 209.36 129.941 208.518 129.304 207.428C128.667 206.325 128.349 205.037 128.349 203.565C128.349 202.107 128.667 200.826 129.304 199.723C129.955 198.619 130.84 197.77 131.958 197.175C133.076 196.581 134.328 196.284 135.715 196.284C137.102 196.284 138.347 196.581 139.451 197.175C140.569 197.77 141.447 198.619 142.083 199.723C142.734 200.826 143.06 202.107 143.06 203.565C143.06 205.023 142.734 206.303 142.083 207.407C141.432 208.511 140.541 209.36 139.409 209.955C138.291 210.549 137.038 210.846 135.651 210.846ZM135.651 207.089C136.486 207.089 137.194 206.784 137.774 206.176C138.354 205.567 138.644 204.697 138.644 203.565C138.644 202.433 138.361 201.562 137.795 200.954C137.229 200.345 136.536 200.041 135.715 200.041C134.866 200.041 134.158 200.345 133.592 200.954C133.04 201.548 132.764 202.419 132.764 203.565C132.764 204.697 133.04 205.567 133.592 206.176C134.144 206.784 134.83 207.089 135.651 207.089ZM147.551 195.01C146.787 195.01 146.164 194.791 145.683 194.352C145.202 193.899 144.961 193.347 144.961 192.696C144.961 192.017 145.202 191.458 145.683 191.019C146.164 190.566 146.787 190.34 147.551 190.34C148.287 190.34 148.896 190.566 149.377 191.019C149.858 191.458 150.099 192.017 150.099 192.696C150.099 193.347 149.858 193.899 149.377 194.352C148.896 194.791 148.287 195.01 147.551 195.01ZM149.695 196.496V210.634H145.365V196.496H149.695ZM161.46 196.347C163.116 196.347 164.439 196.885 165.43 197.961C166.421 199.022 166.916 200.494 166.916 202.376V210.634H162.607V202.949C162.607 202.001 162.359 201.265 161.864 200.742C161.368 200.218 160.71 199.956 159.89 199.956C159.055 199.956 158.389 200.218 157.894 200.742C157.413 201.265 157.172 202.001 157.172 202.949V210.634H152.842V196.496H157.172V198.364C157.611 197.741 158.198 197.253 158.934 196.899C159.684 196.531 160.526 196.347 161.46 196.347ZM191.22 210.634H186.889L179.629 199.659V210.634H175.299V192.845H179.629L186.889 203.862V192.845H191.22V210.634ZM200.791 210.846C199.404 210.846 198.159 210.549 197.055 209.955C195.951 209.36 195.081 208.518 194.444 207.428C193.807 206.325 193.489 205.037 193.489 203.565C193.489 202.107 193.807 200.826 194.444 199.723C195.095 198.619 195.979 197.77 197.097 197.175C198.215 196.581 199.468 196.284 200.855 196.284C202.242 196.284 203.487 196.581 204.591 197.175C205.709 197.77 206.586 198.619 207.223 199.723C207.874 200.826 208.2 202.107 208.2 203.565C208.2 205.023 207.874 206.303 207.223 207.407C206.572 208.511 205.681 209.36 204.549 209.955C203.431 210.549 202.178 210.846 200.791 210.846ZM200.791 207.089C201.626 207.089 202.334 206.784 202.914 206.176C203.494 205.567 203.784 204.697 203.784 203.565C203.784 202.433 203.501 201.562 202.935 200.954C202.369 200.345 201.676 200.041 200.855 200.041C200.006 200.041 199.298 200.345 198.732 200.954C198.18 201.548 197.904 202.419 197.904 203.565C197.904 204.697 198.18 205.567 198.732 206.176C199.284 206.784 199.97 207.089 200.791 207.089ZM230.799 196.496L226.978 210.634H222.18L219.951 201.463L217.658 210.634H212.882L209.04 196.496H213.37L215.366 206.601L217.765 196.496H222.35L224.749 206.558L226.723 196.496H230.799Z" fill="white"/>
</svg>
