<svg width="263" height="265" viewBox="0 0 263 265" fill="none" xmlns="http://www.w3.org/2000/svg">
<g filter="url(#filter0_d_3132_4699)">
<circle cx="127.25" cy="127.25" r="127.25" fill="#F2EEE9"/>
</g>
<path d="M162.884 72.7467C162.158 70.8367 160.384 69.5004 158.344 69.4132C156.753 69.3434 154.807 69.4979 152.708 70.2112C150.185 71.068 148.299 72.4369 146.971 73.7092C145.469 75.149 144.986 77.3484 145.727 79.293L155.962 106.171C156.79 108.343 158.963 109.713 161.276 109.495C162.678 109.362 164.269 109.068 165.96 108.485C168.197 107.717 170.01 106.65 171.418 105.612C173.269 104.242 173.942 101.785 173.122 99.6332L162.884 72.7467ZM191.802 91.1575C191.703 95.3534 190.815 99.3132 189.15 103.028C188.286 104.947 187.235 106.756 185.99 108.448C185.735 108.79 185.478 109.122 185.211 109.462C184.244 110.66 183.174 111.804 181.991 112.883C178.898 115.733 175.199 117.971 170.904 119.607C166.565 121.259 162.299 122.052 158.114 121.976C156.529 121.949 154.979 121.806 153.465 121.55C153.183 121.499 152.911 121.447 152.632 121.388C150.44 120.961 148.32 120.283 146.263 119.36C142.549 117.695 139.249 115.33 136.384 112.264C133.519 109.2 131.263 105.5 129.607 101.152C127.955 96.8125 127.177 92.5405 127.277 88.3474C127.377 84.1544 128.268 80.2004 129.931 76.4802C131.605 72.762 133.97 69.4651 137.028 66.6034C140.091 63.7392 143.797 61.4706 148.136 59.8186C152.484 58.1628 156.757 57.3942 160.944 57.497C165.137 57.5972 169.097 58.4857 172.817 60.1481C176.534 61.8189 179.832 64.1778 182.694 67.2453C185.558 70.3086 187.827 74.038 189.503 78.4393C191.135 82.7255 191.902 86.9644 191.802 91.1575ZM81.3859 106.961C80.4911 105.13 78.6009 103.959 76.5635 104.057C74.9725 104.133 73.0461 104.465 71.0224 105.363C68.5874 106.447 66.8347 107.985 65.6273 109.373C64.262 110.941 63.9838 113.174 64.8954 115.043L77.5394 140.879C78.5598 142.969 80.8475 144.132 83.1329 143.706C84.5174 143.446 86.0739 143.005 87.7043 142.272C89.8614 141.301 91.5703 140.077 92.8779 138.914C94.595 137.382 95.0439 134.873 94.0308 132.807L81.3859 106.961ZM111.862 122.666C112.145 126.851 111.62 130.874 110.3 134.725C109.617 136.716 108.733 138.614 107.646 140.411C107.424 140.776 107.199 141.132 106.965 141.492C106.109 142.776 105.147 144.009 104.071 145.194C101.245 148.312 97.7694 150.879 93.6425 152.9C89.4695 154.941 85.2956 156.118 81.1198 156.422C79.5409 156.54 77.9803 156.537 76.45 156.423C76.1655 156.398 75.8869 156.37 75.6085 156.335C73.3862 156.111 71.2108 155.627 69.0776 154.897C65.2291 153.575 61.7287 151.521 58.595 148.73C55.4642 145.937 52.8786 142.459 50.8349 138.281C48.795 134.11 47.6308 129.927 47.3475 125.742C47.0671 121.556 47.5948 117.539 48.9128 113.682C50.2391 109.828 52.2932 106.328 55.0799 103.2C57.8724 100.069 61.3522 97.4721 65.5223 95.4322C69.7011 93.3884 73.8869 92.23 78.0643 91.9534C82.252 91.6688 86.2747 92.194 90.1318 93.512C93.9858 94.8383 97.4836 96.8866 100.614 99.6791C103.748 102.47 106.347 105.977 108.413 110.208C110.431 114.329 111.582 118.48 111.862 122.666Z" fill="#F08C03"/>
<path d="M180.742 28.331C180.458 28.2533 180.178 28.1743 179.893 28.1007C180.624 28.2904 179.684 28.0588 179.596 28.0393C179.118 27.9373 178.639 27.8466 178.157 27.7671C177.095 27.5936 176.026 27.4751 174.95 27.4042C174.412 27.3674 173.871 27.3488 173.331 27.3402C173.083 27.3333 172.838 27.3351 172.592 27.334C171.612 27.3211 173.26 27.296 172.28 27.3383C171.183 27.3839 170.094 27.461 169.004 27.5903C166.802 27.8479 164.621 28.2832 162.478 28.8573C162.184 28.9361 161.892 29.0177 161.599 29.1035C162.232 28.9184 161.715 29.0691 161.591 29.1103C161.01 29.2963 160.428 29.4795 159.849 29.6783C158.793 30.0452 157.747 30.4451 156.714 30.8739C154.664 31.7279 152.666 32.7001 150.729 33.784C150.294 34.026 149.862 34.2739 149.435 34.5262C149.339 34.5827 148.494 35.1005 149.192 34.6652C149.025 34.7708 148.856 34.8735 148.693 34.9807C147.712 35.6041 146.747 36.255 145.808 36.9396C144.062 38.2045 142.389 39.5716 140.796 41.0272C140.071 41.6888 139.361 42.3681 138.673 43.0683C138.466 43.2781 138.266 43.4883 138.058 43.6981C137.405 44.3729 138.34 43.3757 137.96 43.804C137.542 44.2773 137.115 44.7403 136.707 45.2196C135.371 46.7856 134.128 48.435 133 50.1573C132.453 50.9924 131.937 51.8444 131.445 52.7131C131.395 52.8013 130.947 53.6366 131.309 52.9501C131.221 53.1172 131.136 53.2831 131.048 53.4502C130.789 53.956 130.538 54.4651 130.3 54.979C129.421 56.8708 128.683 58.8241 128.097 60.8238C127.949 61.329 127.815 61.8347 127.684 62.3421C127.541 62.8899 127.842 61.5772 127.654 62.4835C127.596 62.7651 127.531 63.0464 127.473 63.3279C127.261 64.3731 127.09 65.4244 126.962 66.4804C125.78 76.0949 128.139 86.5707 131.3 95.5032C133.073 100.511 135.2 105.389 137.501 110.176C139.857 115.073 141.871 119.255 145.695 123.076C146.216 123.595 145.876 123.048 145.685 123.077C145.744 123.069 146.108 123.453 146.168 123.502C146.435 123.729 146.711 123.945 146.992 124.155C147.596 124.605 148.232 125 148.882 125.381C149.513 125.75 148.174 125.057 148.838 125.352C149.02 125.434 149.198 125.531 149.38 125.615C149.682 125.757 149.992 125.893 150.3 126.018C150.98 126.296 151.676 126.54 152.379 126.752C152.733 126.857 153.092 126.939 153.445 127.049C153.889 127.186 152.606 126.865 153.293 127.012C153.488 127.053 153.685 127.1 153.884 127.143C154.614 127.299 155.346 127.429 156.083 127.547C157.571 127.776 159.07 127.942 160.567 128.091C166.805 128.709 173.297 129.196 178.684 132.747C186.008 137.573 189.457 147.417 187.615 155.85C185.443 165.788 177.307 172.345 168.771 176.972C167.482 177.67 166.179 178.347 164.902 179.065C164.259 179.423 163.623 179.796 162.993 180.174C162.307 180.583 163.673 179.736 162.998 180.171C162.84 180.273 162.683 180.37 162.525 180.475C162.115 180.741 161.711 181.014 161.311 181.296C160.706 181.724 160.114 182.171 159.545 182.649C159.237 182.904 158.937 183.169 158.646 183.44C158.515 183.564 158.386 183.687 158.259 183.813C157.58 184.485 158.509 183.49 158.132 183.939C157.697 184.461 157.269 184.983 156.903 185.557C156.81 185.706 156.651 185.901 156.601 186.068C156.826 185.315 156.821 185.607 156.741 185.83C156.6 186.221 156.428 186.602 156.288 186.996C156.114 187.489 156.097 187.047 156.326 186.81C156.248 186.89 156.242 187.272 156.227 187.379C156.212 187.507 156.207 187.637 156.189 187.766C156.153 188.028 155.962 188.576 156.154 187.681C156.093 187.971 156.208 188.401 156.259 188.7C156.293 188.909 156.346 189.114 156.392 189.325C156.551 190.087 156.135 188.554 156.395 189.309C156.971 190.975 156.485 193.059 154.687 193.766C153.103 194.385 150.845 193.841 150.23 192.055C148.893 188.183 149.433 184.278 151.875 180.958C154.1 177.928 157.261 175.801 160.438 173.892C163.232 172.216 166.189 170.83 168.961 169.119C168.315 169.518 169.204 168.959 169.265 168.918C169.534 168.746 169.798 168.57 170.062 168.394C170.504 168.097 170.937 167.797 171.368 167.484C172.395 166.74 173.39 165.955 174.341 165.116C174.733 164.769 175.118 164.415 175.493 164.047C175.718 163.829 175.94 163.606 176.158 163.381C176.854 162.677 175.928 163.68 176.305 163.222C177.063 162.3 177.834 161.408 178.502 160.415C178.817 159.943 179.112 159.463 179.394 158.971C179.685 158.461 179.074 159.666 179.494 158.777C179.629 158.496 179.767 158.217 179.894 157.936C180.103 157.459 180.3 156.977 180.472 156.486C180.582 156.174 180.685 155.862 180.779 155.544C180.84 155.333 180.899 155.123 180.956 154.908C180.892 155.161 180.887 155.174 180.938 154.947C181.177 153.814 181.32 152.668 181.359 151.513C181.362 151.488 181.364 150.405 181.379 151.069C181.372 150.796 181.356 150.519 181.334 150.246C181.283 149.532 181.193 148.825 181.066 148.121C180.967 147.581 180.846 147.044 180.703 146.513C180.888 147.209 180.586 146.174 180.57 146.123C180.479 145.863 180.384 145.604 180.284 145.348C179.888 144.342 179.392 143.391 178.86 142.452C178.447 141.727 179.302 143.088 178.833 142.416C178.722 142.258 178.617 142.094 178.507 141.939C178.27 141.602 178.024 141.272 177.764 140.953C177.536 140.674 177.299 140.399 177.054 140.135C176.911 139.977 176.765 139.828 176.615 139.677C176.516 139.579 176.417 139.481 176.315 139.385C176.681 139.724 176.766 139.807 176.576 139.635C176.011 139.213 175.498 138.736 174.909 138.338C174.582 138.117 174.248 137.917 173.908 137.712C173.807 137.649 173.676 137.563 173.567 137.521C174.529 137.881 173.687 137.596 173.458 137.487C172.16 136.869 170.801 136.433 169.417 136.057C168.724 135.868 170.194 136.219 169.487 136.075C169.327 136.042 169.165 136.004 169.004 135.968C168.646 135.896 168.286 135.824 167.926 135.76C167.167 135.624 166.402 135.512 165.637 135.41C164.113 135.21 162.583 135.066 161.056 134.919C154.67 134.305 147.94 133.468 142.72 129.383C138.47 126.058 135.573 121.281 133.134 116.549C130.637 111.711 128.374 106.728 126.401 101.653C122.441 91.4687 119.635 80.577 119.961 69.5768C120.227 60.6395 123.398 51.9468 128.566 44.6852C133.893 37.2004 141.195 31.1598 149.304 26.9028C157.502 22.5961 166.973 19.9765 176.279 20.7384C178.615 20.9293 180.907 21.3953 183.16 22.0307C184.865 22.5128 185.779 24.8229 185.101 26.3901C184.318 28.1943 182.561 28.8451 180.742 28.331Z" fill="#15172A"/>
<path d="M90.2636 211.877C90.2969 211.828 98.3248 215.416 99.0147 215.669C102.748 217.035 106.559 218.118 110.431 218.894C118.225 220.46 126.044 221.031 133.894 220.208C138.769 219.697 143.838 218.837 148.432 217.134C153.209 215.363 157.792 213.07 162.355 210.817C164.508 209.752 168.098 210.711 167.037 213.88C166.64 215.07 165.526 215.804 164.469 216.427C150.661 224.542 134.085 228.168 117.995 226.34C107.256 225.126 96.6903 221.637 87.0029 216.527C88.089 214.975 89.1763 213.426 90.2636 211.877Z" fill="#F08C03"/>
<path d="M83.5013 224.215L83.6426 224.028C87.9382 218.302 92.2512 212.569 96.5469 206.843C96.6485 206.722 96.744 206.579 96.8295 206.468L97.9108 205.022C98.7028 203.975 98.0518 202.474 96.7784 202.308L71.9393 198.969C70.9353 198.88 69.9893 199.325 69.4325 200.14C68.6685 201.289 69.1432 202.526 69.1802 202.648C69.2178 202.725 69.2463 202.781 69.2826 202.855L79.2999 225.595C79.8205 226.787 81.4297 226.97 82.2229 225.925L83.5013 224.215Z" fill="#F08C03"/>
<defs>
<filter id="filter0_d_3132_4699" x="0" y="0" width="262.397" height="264.371" filterUnits="userSpaceOnUse" color-interpolation-filters="sRGB">
<feFlood flood-opacity="0" result="BackgroundImageFix"/>
<feColorMatrix in="SourceAlpha" type="matrix" values="0 0 0 0 0 0 0 0 0 0 0 0 0 0 0 0 0 0 127 0" result="hardAlpha"/>
<feOffset dx="7.89708" dy="9.87135"/>
<feComposite in2="hardAlpha" operator="out"/>
<feColorMatrix type="matrix" values="0 0 0 0 0.0823529 0 0 0 0 0.0901961 0 0 0 0 0.168627 0 0 0 1 0"/>
<feBlend mode="normal" in2="BackgroundImageFix" result="effect1_dropShadow_3132_4699"/>
<feBlend mode="normal" in="SourceGraphic" in2="effect1_dropShadow_3132_4699" result="shape"/>
</filter>
</defs>
</svg>
