<svg width="17" height="15" viewBox="0 0 17 15" fill="none" xmlns="http://www.w3.org/2000/svg">
<path d="M4.53019 0.441016C4.67081 0.250391 4.89581 0.134766 5.13331 0.134766H12.6333C12.8708 0.134766 13.0958 0.247266 13.2364 0.441016L16.7364 5.19102C16.9489 5.47852 16.9271 5.87539 16.6896 6.14102L9.43956 14.141C9.29894 14.2973 9.09581 14.3879 8.88331 14.3879C8.67081 14.3879 8.47081 14.2973 8.32706 14.141L1.07706 6.14102C0.836437 5.87539 0.817687 5.47852 1.03019 5.19102L4.53019 0.441016ZM5.73331 1.68477C5.63019 1.76289 5.60206 1.90352 5.66769 2.01289L7.46144 5.00039L2.86144 5.38477C2.73331 5.39414 2.63331 5.50352 2.63331 5.63477C2.63331 5.76602 2.73331 5.87227 2.86144 5.88477L8.86144 6.38477C8.87394 6.38477 8.88956 6.38477 8.90206 6.38477L14.9021 5.88477C15.0302 5.87539 15.1302 5.76602 15.1302 5.63477C15.1302 5.50352 15.0302 5.39727 14.9021 5.38477L10.3052 5.00352L12.0989 2.01602C12.1646 1.90664 12.1364 1.76289 12.0333 1.68789C11.9302 1.61289 11.7864 1.62539 11.6989 1.71914L8.88331 4.76602L6.06769 1.71602C5.98019 1.62227 5.83644 1.60977 5.73331 1.68477Z" fill="#15172A"/>
</svg>
