<svg width="257" height="77" viewBox="0 0 257 77" fill="none" xmlns="http://www.w3.org/2000/svg">
<g filter="url(#filter0_d_2689_3656)">
<path d="M32.1942 59.4396L38.8123 11.1523H47.3624L40.8016 59.4396H32.1942ZM4 48.4109V40.8795H53.292V48.4109H4ZM12.4544 59.4396L19.0917 11.1523H27.6992L20.9854 59.4396H12.4544ZM6.50572 29.7124V22.1983H55.7403L55.8168 29.7124H6.50572Z" fill="#F08C03"/>
<path d="M71.0764 19.7314H80.3677V22.8997H71.0764V19.7314ZM71.4064 26.9424H81.9074V30.1844H66.9688V12.7194H81.5536V15.9657H71.4064V26.9424ZM104.153 16.563C105.329 16.563 106.372 16.7751 107.28 17.1993C108.189 17.6234 108.901 18.2727 109.418 19.147C109.929 20.017 110.188 21.1381 110.188 22.5015V30.1844H105.889V23.0988C105.889 22.0167 105.645 21.2203 105.157 20.7052C104.669 20.1902 103.986 19.9305 103.106 19.9305C102.46 19.9305 101.891 20.0603 101.394 20.32C100.901 20.5754 100.519 20.9606 100.251 21.467C99.9879 21.9734 99.854 22.6357 99.854 23.4494V30.1844H95.555V23.0988C95.555 22.0167 95.3064 21.2203 94.8234 20.7052C94.3356 20.1902 93.6327 19.9305 92.7146 19.9305C92.0881 19.9305 91.5287 20.0603 91.0313 20.32C90.534 20.5754 90.1515 20.9606 89.8741 21.467C89.5968 21.9734 89.4629 22.6357 89.4629 23.4494V30.1844H85.1591V16.7621H89.2668V20.4066L88.4969 19.3591C88.9942 18.4415 89.7163 17.749 90.6727 17.2728C91.6291 16.801 92.705 16.563 93.9005 16.563C95.2585 16.563 96.454 16.8746 97.4821 17.4979C98.5102 18.1212 99.1893 19.0734 99.5192 20.3546L98.0034 19.9824C98.5007 18.9479 99.2897 18.1212 100.375 17.4979C101.461 16.8746 102.718 16.563 104.153 16.563ZM122.798 27.3579C123.51 27.306 124.132 27.1069 124.663 26.7649C125.193 26.423 125.605 25.9642 125.891 25.3799C126.178 24.7999 126.284 24.129 126.212 23.3672C126.14 22.5881 125.911 21.9388 125.518 21.4151C125.131 20.8957 124.643 20.5105 124.055 20.2637C123.472 20.017 122.821 19.9218 122.109 19.9781C121.392 20.03 120.765 20.2248 120.225 20.5581C119.685 20.8914 119.269 21.3458 118.982 21.9172C118.695 22.4885 118.589 23.1681 118.661 23.9472C118.733 24.709 118.962 25.3539 119.355 25.882C119.742 26.4143 120.239 26.8039 120.832 27.0593C121.43 27.3146 122.085 27.4142 122.798 27.3579ZM123.811 30.4873C122.582 30.5782 121.478 30.4138 120.497 29.9896C119.517 29.5611 118.719 28.8599 118.102 27.8817C117.485 26.9035 117.107 25.6352 116.959 24.077C116.811 22.5015 116.94 21.19 117.337 20.1425C117.738 19.0908 118.384 18.2814 119.283 17.7143C120.177 17.143 121.258 16.8097 122.52 16.7145C123.931 16.6063 125.217 16.7967 126.379 17.2815C127.536 17.7706 128.493 18.5021 129.239 19.4803C129.985 20.4585 130.425 21.6402 130.554 23.0339C130.683 24.4406 130.473 25.6829 129.918 26.752C129.363 27.8211 128.56 28.6824 127.503 29.3403C126.451 29.9982 125.222 30.3791 123.811 30.4873ZM115.534 35.7766L113.831 17.5802L117.93 17.2685L118.183 19.9997L118.47 23.9861L119.116 27.9163L119.818 35.4476L115.534 35.7766ZM156.969 29.2581L154.095 14.3772L158.514 14.9658L160.886 27.9639L158.624 27.6652L165.247 15.8618L169.259 16.3985L171.602 29.3923L169.45 29.1066L175.968 17.2902L180.137 17.8442L172.654 31.3487L168.044 30.7341L165.954 19.5885L167.178 19.753L161.579 29.8727L156.969 29.2581ZM189.395 32.0845C187.707 32.2014 186.211 32.0023 184.895 31.4958C183.58 30.9851 182.533 30.2363 181.749 29.2451C180.965 28.2582 180.515 27.1026 180.405 25.7737C180.291 24.4493 180.525 23.2373 181.108 22.1466C181.687 21.0558 182.552 20.1772 183.705 19.5019C184.852 18.8311 186.182 18.4458 187.683 18.3419C189.132 18.2424 190.457 18.4328 191.671 18.9176C192.881 19.3981 193.871 20.1339 194.631 21.1121C195.397 22.0946 195.841 23.3066 195.961 24.7479C195.975 24.8994 195.98 25.0682 195.98 25.263C195.975 25.4534 195.97 25.6352 195.97 25.7997L183.958 26.6308L183.767 24.367L193.522 23.6918L191.906 24.4796C191.863 23.7827 191.667 23.1854 191.313 22.6963C190.959 22.2028 190.49 21.8306 189.921 21.5752C189.343 21.3242 188.688 21.2246 187.956 21.2766C187.224 21.3242 186.593 21.5146 186.057 21.8436C185.522 22.1726 185.12 22.6097 184.852 23.1508C184.585 23.6961 184.484 24.3237 184.542 25.0379L184.594 25.6352C184.656 26.3797 184.895 27.016 185.307 27.5354C185.718 28.0591 186.258 28.4443 186.923 28.6911C187.588 28.9335 188.372 29.0287 189.271 28.9638C190.041 28.9118 190.71 28.756 191.289 28.5006C191.868 28.2452 192.384 27.8817 192.843 27.4185L195.31 29.5005C194.694 30.2406 193.885 30.8379 192.891 31.2794C191.896 31.7252 190.729 31.9936 189.395 32.0845ZM199.571 30.1844V16.7621H203.679V20.5797L203.1 19.4587C203.54 18.5108 204.248 17.7922 205.219 17.2988C206.194 16.8097 207.38 16.563 208.776 16.563V20.1815C208.609 20.1469 208.451 20.1209 208.293 20.1079C208.136 20.0906 207.987 20.0819 207.839 20.0819C206.629 20.0819 205.663 20.3893 204.946 21.0039C204.229 21.6185 203.87 22.5664 203.87 23.8476V30.1844H199.571ZM211.588 15.6194H215.887V29.0417H211.588V15.6194ZM213.74 13.7452C212.927 13.7452 212.277 13.5418 211.779 13.1219C211.287 12.7107 211.038 12.1913 211.038 11.5767C211.038 10.9621 211.287 10.447 211.779 10.0315C212.277 9.61596 212.927 9.4082 213.74 9.4082C214.529 9.4082 215.175 9.60298 215.681 9.99253C216.188 10.3821 216.437 10.8885 216.437 11.5031C216.437 12.1481 216.188 12.6891 215.696 13.1133C215.198 13.5331 214.548 13.7452 213.74 13.7452ZM228.894 16.563C230.07 16.563 231.122 16.7751 232.05 17.1993C232.982 17.6234 233.709 18.2727 234.245 19.147C234.776 20.017 235.043 21.1381 235.043 22.5015V30.1844H230.744V23.0988C230.744 22.0167 230.481 21.2203 229.955 20.7052C229.434 20.1902 228.693 19.9305 227.737 19.9305C227.058 19.9305 226.446 20.0646 225.905 20.3287C225.365 20.597 224.944 20.9866 224.638 21.5017C224.337 22.0167 224.184 22.7006 224.184 23.549V30.1844H219.885V16.7621H223.992V20.4802L223.218 19.3591C223.753 18.4588 224.514 17.7706 225.508 17.2858C226.498 16.8054 227.627 16.563 228.894 16.563ZM245.444 25.4491C246.147 25.4491 246.769 25.3149 247.314 25.0509C247.864 24.7912 248.289 24.4276 248.595 23.9645C248.901 23.5014 249.054 22.969 249.054 22.363C249.054 21.7484 248.901 21.2073 248.595 20.7528C248.289 20.2984 247.864 19.9478 247.314 19.6967C246.769 19.45 246.147 19.3288 245.444 19.3288C244.765 19.3288 244.143 19.45 243.589 19.6967C243.034 19.9478 242.599 20.2984 242.283 20.7528C241.968 21.2073 241.81 21.7484 241.81 22.363C241.81 22.969 241.968 23.5014 242.283 23.9645C242.599 24.4276 243.034 24.7912 243.589 25.0509C244.143 25.3149 244.765 25.4491 245.444 25.4491ZM245.267 33.6773C243.971 33.6773 242.718 33.5302 241.513 33.2488C240.313 32.9588 239.309 32.5303 238.505 31.959L240.093 29.3403C240.691 29.7905 241.432 30.1411 242.307 30.3964C243.187 30.6518 244.081 30.7773 244.985 30.7773C246.386 30.7773 247.409 30.4917 248.06 29.9203C248.705 29.349 249.03 28.5006 249.03 27.3709V25.514L249.289 22.363L249.212 19.1903V16.524H252.999V26.9078C252.999 29.2105 252.335 30.9115 251.001 32.0196C249.671 33.1233 247.758 33.6773 245.267 33.6773ZM244.626 28.3924C243.383 28.3924 242.235 28.1414 241.193 27.6393C240.155 27.1372 239.328 26.4317 238.711 25.527C238.099 24.6224 237.788 23.5706 237.788 22.363C237.788 21.1424 238.099 20.0819 238.711 19.1773C239.328 18.2727 240.155 17.5758 241.193 17.0824C242.235 16.5846 243.383 16.3379 244.626 16.3379C245.822 16.3379 246.859 16.55 247.739 16.9742C248.619 17.4027 249.303 18.0606 249.8 18.9566C250.293 19.8525 250.542 20.9909 250.542 22.363C250.542 23.7394 250.293 24.8734 249.8 25.7608C249.303 26.6481 248.619 27.3103 247.739 27.7432C246.859 28.176 245.822 28.3924 244.626 28.3924ZM71.0764 47.5151H80.3677V50.6835H71.0764V47.5151ZM71.4064 54.7262H81.9074V57.9681H66.9688V40.5075H81.5536V43.7494H71.4064V54.7262ZM92.2172 58.1672C90.6201 58.1672 89.1999 57.8729 87.9613 57.2842C86.718 56.6912 85.7425 55.8732 85.0396 54.8257C84.3319 53.7783 83.978 52.588 83.978 51.2592C83.978 49.9087 84.3319 48.7227 85.0396 47.6926C85.7425 46.6581 86.718 45.8444 87.9613 45.2471C89.1999 44.6454 90.6201 44.3468 92.2172 44.3468C93.7809 44.3468 95.1438 44.6411 96.3106 45.2341C97.4773 45.8227 98.319 46.6581 98.8306 47.7402L95.5263 49.3893C95.1199 48.753 94.6369 48.2942 94.0631 48.0042C93.494 47.7099 92.8676 47.5671 92.1886 47.5671C91.476 47.5671 90.8209 47.7099 90.2328 48.0042C89.6446 48.2942 89.1759 48.7141 88.8269 49.2638C88.4778 49.8135 88.3056 50.4757 88.3056 51.2592C88.3056 52.0383 88.4778 52.7092 88.8269 53.2675C89.1759 53.8259 89.6446 54.2457 90.2328 54.5401C90.8209 54.8301 91.476 54.9772 92.1886 54.9772C92.8676 54.9772 93.494 54.8301 94.0631 54.5401C94.6369 54.2457 95.1199 53.7783 95.5263 53.129L98.8306 54.7738C98.319 55.8386 97.4773 56.6696 96.3106 57.2713C95.1438 57.8686 93.7809 58.1672 92.2172 58.1672ZM128.215 44.3468C129.387 44.3468 130.439 44.5588 131.367 44.983C132.299 45.4072 133.031 46.0565 133.562 46.9308C134.092 47.8008 134.36 48.9218 134.36 50.2853V57.9681H130.061V50.8826C130.061 49.8048 129.798 49.0041 129.272 48.489C128.751 47.9739 128.01 47.7142 127.058 47.7142C126.374 47.7142 125.762 47.8484 125.227 48.1124C124.682 48.3808 124.261 48.7703 123.955 49.2854C123.654 49.8048 123.501 50.4844 123.501 51.3327V57.9681H119.202V44.5459H123.309V48.2639L122.535 47.1429C123.07 46.2426 123.83 45.5544 124.825 45.0696C125.815 44.5891 126.943 44.3468 128.215 44.3468ZM175.399 44.3468C176.575 44.3468 177.617 44.5588 178.526 44.983C179.435 45.4072 180.147 46.0565 180.663 46.9308C181.18 47.8008 181.433 48.9218 181.433 50.2853V57.9681H177.134V50.8826C177.134 49.8048 176.891 49.0041 176.403 48.489C175.92 47.9739 175.236 47.7142 174.351 47.7142C173.711 47.7142 173.137 47.8441 172.644 48.1038C172.147 48.3591 171.764 48.7444 171.497 49.2508C171.234 49.7572 171.1 50.4195 171.1 51.2332V57.9681H166.801V50.8826C166.801 49.8048 166.557 49.0041 166.069 48.489C165.581 47.9739 164.878 47.7142 163.96 47.7142C163.339 47.7142 162.774 47.8441 162.277 48.1038C161.785 48.3591 161.397 48.7444 161.12 49.2508C160.847 49.7572 160.709 50.4195 160.709 51.2332V57.9681H156.41V44.5459H160.517V48.1903L159.743 47.1429C160.24 46.2253 160.967 45.5327 161.923 45.0609C162.88 44.5848 163.951 44.3468 165.146 44.3468C166.504 44.3468 167.7 44.6584 168.728 45.2817C169.761 45.905 170.44 46.8615 170.77 48.1384L169.254 47.7662C169.751 46.736 170.54 45.905 171.621 45.2817C172.706 44.6584 173.964 44.3468 175.399 44.3468ZM185.321 44.5459H189.62V57.9681H185.321V44.5459ZM187.473 42.676C186.66 42.676 186.01 42.4682 185.512 42.0527C185.02 41.6372 184.771 41.1221 184.771 40.5075C184.771 39.8885 185.02 39.3735 185.512 38.9579C186.01 38.5424 186.66 38.3347 187.473 38.3347C188.262 38.3347 188.908 38.5294 189.414 38.9233C189.921 39.3129 190.175 39.815 190.175 40.4296C190.175 41.0788 189.926 41.6156 189.429 42.0397C188.931 42.4639 188.281 42.676 187.473 42.676ZM198.605 58.1672C197.338 58.1672 196.128 58.033 194.966 57.756C193.809 57.4833 192.881 57.1371 192.183 56.7215L193.589 53.9514C194.287 54.3193 195.1 54.6223 196.033 54.8647C196.955 55.1027 197.869 55.2239 198.773 55.2239C199.762 55.2239 200.47 55.1157 200.881 54.8993C201.293 54.6829 201.498 54.3842 201.498 54.0033C201.498 53.6874 201.34 53.4493 201.015 53.2892C200.695 53.1333 200.274 53.0121 199.753 52.9299C199.227 52.8477 198.643 52.7654 197.998 52.6789C197.357 52.5966 196.716 52.4798 196.085 52.3283C195.449 52.1811 194.861 51.969 194.321 51.6963C193.78 51.4193 193.345 51.0427 193.025 50.558C192.704 50.0775 192.542 49.4542 192.542 48.6881C192.542 47.8397 192.819 47.0866 193.369 46.433C193.919 45.7751 194.703 45.2644 195.712 44.8965C196.721 44.5329 197.945 44.3468 199.38 44.3468C200.408 44.3468 201.441 44.4506 202.479 44.6584C203.516 44.8662 204.396 45.1562 205.109 45.5197L203.65 48.2899C202.952 47.922 202.239 47.6666 201.513 47.5151C200.786 47.368 200.092 47.29 199.432 47.29C198.443 47.29 197.725 47.4069 197.281 47.6406C196.841 47.8744 196.621 48.173 196.621 48.5366C196.621 48.8742 196.788 49.1253 197.118 49.2984C197.448 49.4759 197.878 49.6014 198.414 49.688C198.945 49.7702 199.533 49.8524 200.178 49.9347C200.819 50.0212 201.455 50.1338 202.077 50.2853C202.703 50.4324 203.287 50.6489 203.832 50.9215C204.372 51.1942 204.803 51.5751 205.123 52.0556C205.443 52.5404 205.606 53.1636 205.606 53.9254C205.606 54.7435 205.333 55.4707 204.779 56.1113C204.229 56.7519 203.435 57.2539 202.397 57.6218C201.36 57.9854 200.092 58.1672 198.605 58.1672ZM214.319 58.1672C212.568 58.1672 211.21 57.7647 210.235 56.9596C209.264 56.1502 208.776 54.9513 208.776 53.3541V41.5766H213.104V53.2805C213.104 53.8432 213.267 54.2847 213.587 54.6007C213.907 54.9166 214.342 55.0768 214.897 55.0768C215.595 55.0768 216.179 54.908 216.657 54.5747L217.79 57.3189C217.365 57.6045 216.848 57.8166 216.231 57.9551C215.614 58.098 214.978 58.1672 214.319 58.1672ZM206.491 44.8445H216.767V47.8397H206.491V44.8445ZM225.231 58.1672C223.964 58.1672 222.754 58.033 221.592 57.756C220.435 57.4833 219.507 57.1371 218.809 56.7215L220.215 53.9514C220.913 54.3193 221.726 54.6223 222.653 54.8647C223.581 55.1027 224.494 55.2239 225.393 55.2239C226.388 55.2239 227.091 55.1157 227.502 54.8993C227.918 54.6829 228.124 54.3842 228.124 54.0033C228.124 53.6874 227.961 53.4493 227.641 53.2892C227.321 53.1333 226.9 53.0121 226.374 52.9299C225.853 52.8477 225.269 52.7654 224.624 52.6789C223.983 52.5966 223.342 52.4798 222.711 52.3283C222.075 52.1811 221.487 51.969 220.946 51.6963C220.406 51.4193 219.971 51.0427 219.65 50.558C219.33 50.0775 219.167 49.4542 219.167 48.6881C219.167 47.8397 219.445 47.0866 219.995 46.433C220.545 45.7751 221.329 45.2644 222.338 44.8965C223.347 44.5329 224.571 44.3468 226.001 44.3468C227.029 44.3468 228.067 44.4506 229.104 44.6584C230.142 44.8662 231.022 45.1562 231.734 45.5197L230.276 48.2899C229.578 47.922 228.865 47.6666 228.138 47.5151C227.411 47.368 226.718 47.29 226.058 47.29C225.064 47.29 224.346 47.4069 223.906 47.6406C223.466 47.8744 223.246 48.173 223.246 48.5366C223.246 48.8742 223.414 49.1253 223.744 49.2984C224.074 49.4759 224.504 49.6014 225.04 49.688C225.57 49.7702 226.159 49.8524 226.799 49.9347C227.445 50.0212 228.076 50.1338 228.703 50.2853C229.329 50.4324 229.912 50.6489 230.453 50.9215C230.998 51.1942 231.428 51.5751 231.749 52.0556C232.069 52.5404 232.232 53.1636 232.232 53.9254C232.232 54.7435 231.954 55.4707 231.404 56.1113C230.854 56.7519 230.056 57.2539 229.023 57.6218C227.981 57.9854 226.718 58.1672 225.231 58.1672Z" fill="#82DBD4"/>
<path d="M110.7 54.4398C110.7 54.9636 110.351 55.4397 109.811 55.6345C109.466 55.7557 109.041 55.8552 108.548 55.8725C107.95 55.8898 107.434 55.7816 107.027 55.6388C106.478 55.4484 106.114 54.9722 106.114 54.4355V48.1074C106.114 47.5145 106.564 46.9994 107.2 46.8565C107.506 46.7916 107.855 46.7397 108.242 46.7267C108.768 46.7137 109.237 46.7743 109.629 46.8609C110.26 47.0037 110.7 47.5231 110.7 48.1074V54.4398ZM115.807 48.3066C115.41 47.4322 114.851 46.6661 114.133 46.0168C113.76 45.6792 113.354 45.3806 112.919 45.1252C112.823 45.0733 112.737 45.0257 112.646 44.9737C112.311 44.8006 111.962 44.6448 111.589 44.5106C110.614 44.16 109.552 43.9825 108.405 43.9825C107.247 43.9825 106.186 44.16 105.215 44.5106C104.847 44.6448 104.498 44.8006 104.168 44.9737C104.106 45.0083 104.048 45.0386 103.991 45.0776C103.513 45.3416 103.078 45.6533 102.681 46.0168C101.963 46.6661 101.404 47.4322 101.007 48.3066C100.615 49.1852 100.414 50.1461 100.414 51.1979C100.414 52.2454 100.615 53.2106 101.007 54.0892C101.404 54.9636 101.963 55.7254 102.681 56.379C103.403 57.0282 104.244 57.5346 105.215 57.8939C106.186 58.2531 107.247 58.4349 108.405 58.4349C109.567 58.4349 110.633 58.2531 111.599 57.8939C112.57 57.5346 113.411 57.0282 114.133 56.379C114.851 55.7254 115.41 54.9636 115.807 54.0892C116.204 53.2106 116.4 52.241 116.4 51.1763C116.4 50.1418 116.204 49.1852 115.807 48.3066ZM141.806 53.0072C141.228 53.0072 140.702 52.6955 140.491 52.2064C140.357 51.8948 140.247 51.5095 140.228 51.0637C140.204 50.5227 140.324 50.0552 140.482 49.6873C140.692 49.1895 141.223 48.8606 141.811 48.8606H148.802C149.457 48.8606 150.026 49.2674 150.184 49.8388C150.261 50.1201 150.318 50.4361 150.328 50.7867C150.347 51.2628 150.28 51.687 150.179 52.0419C150.022 52.6133 149.453 53.0072 148.802 53.0072H141.806ZM148.582 57.6342C149.553 57.2749 150.399 56.7685 151.117 56.1192C151.485 55.7816 151.815 55.4137 152.097 55.0155C152.154 54.9333 152.212 54.8554 152.264 54.7688C152.46 54.4701 152.633 54.1498 152.776 53.8166C153.168 52.9336 153.364 51.9727 153.364 50.9339C153.364 49.8864 153.168 48.9212 152.776 48.0425C152.633 47.7136 152.46 47.3976 152.264 47.0989C152.231 47.0427 152.193 46.9907 152.154 46.9345C151.858 46.506 151.514 46.1121 151.117 45.7528C150.399 45.1036 149.553 44.5971 148.582 44.2379C147.616 43.8786 146.55 43.7012 145.393 43.7012C144.231 43.7012 143.164 43.8786 142.198 44.2379C141.228 44.5971 140.386 45.1036 139.664 45.7528C138.947 46.4064 138.387 47.1682 137.99 48.0425C137.598 48.9212 137.397 49.8864 137.397 50.9339C137.397 51.9857 137.598 52.9509 137.99 53.8252C138.387 54.7039 138.947 55.4657 139.664 56.1192C140.386 56.7685 141.228 57.2749 142.198 57.6342C143.164 57.9891 144.236 58.1709 145.412 58.1709C146.56 58.1709 147.616 57.9891 148.582 57.6342Z" fill="#F08C03"/>
<path d="M142.091 62.3476C141.13 62.8021 139.939 63.3128 138.543 63.7976C137.62 64.1136 135.99 64.6416 133.905 65.0485C130.734 65.6675 127.545 65.9228 124.341 65.6588C122.347 65.4987 120.276 65.2087 118.392 64.6027C116.432 63.9751 114.547 63.1527 112.673 62.3433C111.788 61.9624 110.33 62.3389 110.779 63.5033C110.951 63.9404 111.411 64.2045 111.846 64.4295C117.527 67.3512 124.307 68.6021 130.863 67.8403C135.234 67.3339 139.523 65.9878 143.445 64.0487C144.286 63.5942 144.544 62.7848 144.286 62.3822C144.004 61.9451 142.966 61.7416 142.091 62.3476Z" fill="#F3EEE9"/>
<path d="M150.803 19.9017C150.899 20.9578 150.784 21.9317 150.444 22.832C150.109 23.7323 149.588 24.533 148.89 25.2386C148.187 25.9354 147.346 26.5024 146.356 26.9353C145.371 27.3681 144.261 27.6321 143.042 27.7274C141.818 27.8183 140.68 27.7187 139.628 27.4417C138.724 27.2036 137.906 26.8487 137.174 26.3812C137.055 26.3077 136.94 26.2254 136.821 26.1432C136.515 25.9268 136.228 25.6844 135.965 25.429C135.534 25.0005 135.156 24.5287 134.85 24.005C134.353 23.1653 134.057 22.2303 133.961 21.1872C133.865 20.1484 133.99 19.1788 134.324 18.2785C134.659 17.3782 135.18 16.5775 135.879 15.8763C136.266 15.4867 136.696 15.1405 137.17 14.8418C137.227 14.7985 137.289 14.7639 137.351 14.725C137.681 14.5258 138.035 14.3441 138.408 14.1839C139.398 13.7597 140.503 13.5 141.727 13.4048C142.521 13.3442 143.286 13.3658 144.022 13.4654C143.788 14.3787 143.487 15.266 143.128 16.1447C142.741 16.1014 142.291 16.0884 141.803 16.1403C141.397 16.1836 141.033 16.2615 140.713 16.3524C140.058 16.5429 139.637 17.0926 139.69 17.6769L140.264 23.9487C140.311 24.4768 140.737 24.9183 141.335 25.0654C141.775 25.1736 142.329 25.2429 142.956 25.178C143.477 25.1174 143.917 24.9875 144.266 24.836C144.821 24.6066 145.136 24.1088 145.093 23.5894L144.562 17.8457C145.175 16.5905 145.658 15.2833 146.002 13.9458C146.097 13.9805 146.193 14.0151 146.284 14.0541C146.384 14.0973 146.485 14.1363 146.58 14.1839C147.068 14.4003 147.522 14.6644 147.943 14.9717C148.761 15.556 149.421 16.2658 149.918 17.1056C150.416 17.9409 150.707 18.8759 150.803 19.9017Z" fill="#82DBD4"/>
<path d="M146.606 5.25411C146.912 8.0762 146.754 10.9416 146.061 13.6728C146.056 13.6901 146.051 13.7074 146.047 13.7204C145.697 15.0795 145.21 16.4083 144.588 17.6852C143.493 19.9229 142.011 22.0006 140.208 23.8055L139.969 21.2128C140.925 20.1177 141.7 18.8495 142.355 17.6029C142.642 17.0619 142.895 16.5079 143.125 15.9538C143.493 15.0622 143.794 14.1576 144.033 13.2313C144.253 12.4219 144.425 11.5995 144.555 10.7641C144.741 9.57815 144.822 8.37919 144.808 7.1759C144.808 7.07202 144.751 6.44008 144.698 5.79516C144.641 5.055 144.574 4.29754 144.579 4.29321C145.195 4.14172 145.803 3.9859 146.415 3.83008C146.491 4.30187 146.553 4.77799 146.606 5.25411Z" fill="#F3EEE9"/>
<path d="M148.12 4.81915L148.068 4.83213C146.408 5.30825 144.744 5.78004 143.09 6.25183C143.051 6.26482 143.013 6.27781 142.98 6.28646L142.559 6.40333C142.258 6.48989 141.966 6.24751 142.028 5.97049L143.271 0.573021C143.333 0.360931 143.51 0.196453 143.74 0.140184C144.065 0.0666026 144.314 0.252723 144.338 0.270035C144.352 0.283021 144.362 0.296005 144.376 0.308991L148.775 4.0487C149.01 4.24347 148.919 4.58974 148.617 4.67631L148.12 4.81915Z" fill="#F3EEE9"/>
</g>
<defs>
<filter id="filter0_d_2689_3656" x="0" y="0.123047" width="257" height="75.9355" filterUnits="userSpaceOnUse" color-interpolation-filters="sRGB">
<feFlood flood-opacity="0" result="BackgroundImageFix"/>
<feColorMatrix in="SourceAlpha" type="matrix" values="0 0 0 0 0 0 0 0 0 0 0 0 0 0 0 0 0 0 127 0" result="hardAlpha"/>
<feOffset dy="4"/>
<feGaussianBlur stdDeviation="2"/>
<feComposite in2="hardAlpha" operator="out"/>
<feColorMatrix type="matrix" values="0 0 0 0 0 0 0 0 0 0 0 0 0 0 0 0 0 0 0.25 0"/>
<feBlend mode="normal" in2="BackgroundImageFix" result="effect1_dropShadow_2689_3656"/>
<feBlend mode="normal" in="SourceGraphic" in2="effect1_dropShadow_2689_3656" result="shape"/>
</filter>
</defs>
</svg>
