<svg width="386" height="154" viewBox="0 0 386 154" fill="none" xmlns="http://www.w3.org/2000/svg">
<path d="M35.9947 125.189C35.7478 125.604 35.4768 126.014 35.26 126.441C33.9472 129.018 32.6404 131.598 31.3397 134.183C30.894 135.068 30.611 135.339 29.6836 135.122C28.6832 134.917 27.7191 134.564 26.8232 134.075C23.4774 132.21 20.0248 130.543 16.4834 129.084C15.0163 128.448 13.4918 127.954 11.9308 127.609C9.33529 127.007 6.78799 127.555 4.28284 128.211C3.4217 128.446 2.57259 128.711 1.73554 129.012C1.49203 129.127 1.21749 129.16 0.953455 129.106C0.689424 129.052 0.450274 128.913 0.272192 128.711C0.112068 128.521 0.017355 128.286 0.002163 128.038C-0.013029 127.791 0.0521128 127.545 0.187884 127.338C0.856326 125.935 1.46455 124.49 2.20525 123.124C4.57606 118.585 7.47464 114.341 10.8408 110.481C12.4598 108.567 13.5037 106.234 13.8518 103.751C14.1325 101.95 14.0712 100.111 13.6711 98.3328C12.9967 94.8772 12.2138 91.4457 11.5815 87.9902C10.1125 80.5819 11.0405 72.8985 14.2312 66.0527C17.9613 57.7851 23.2484 50.3126 29.8041 44.0429C33.3066 40.6032 37.2299 37.6196 41.4807 35.1632C43.4421 34.0105 45.5595 33.1468 47.7677 32.5986C51.3809 31.81 54.5123 32.5986 57.0716 35.2595C58.1411 36.4533 59.1462 37.7033 60.0826 39.0041C60.3008 39.3097 60.5019 39.6273 60.6848 39.9553C61.0702 39.6904 61.3954 39.4797 61.7086 39.2509C63.1719 38.1552 64.5811 36.9753 66.0986 35.9699C67.9052 34.7659 69.7841 33.6341 71.7111 32.6167C74.7436 31.0327 78.2457 30.5945 81.5751 31.3825C83.717 31.8092 85.7941 32.5135 87.7537 33.4776C91.4602 35.3454 94.9161 37.6735 98.0393 40.4068C105.309 46.8166 111.445 54.4061 116.19 62.856C118.032 66.1249 119.67 69.4781 120.405 73.1986C120.751 74.9448 120.974 76.713 121.073 78.4903C121.242 81.38 121.26 84.2817 121.35 87.1714C121.403 91.1413 122.977 94.9398 125.746 97.785C126.704 98.7843 127.68 99.7596 128.619 100.795C129.438 101.674 130.251 102.565 131.028 103.498C133.325 106.268 134.638 109.721 134.761 113.317C134.791 114.16 134.96 114.997 135.002 115.839C134.996 116.152 135.077 116.461 135.235 116.73C135.394 117 135.624 117.221 135.9 117.369C136.154 117.463 136.363 117.65 136.485 117.892C136.607 118.135 136.632 118.415 136.556 118.675C136.399 119.223 135.954 119.494 135.171 119.458C132.008 119.393 128.845 119.595 125.716 120.06C124.254 120.247 122.853 120.766 121.621 121.577C121.236 121.802 120.87 122.057 120.525 122.341C118.153 124.472 115.31 125.502 112.215 126.007C111.011 126.212 109.806 126.567 108.602 126.88C107.699 127.121 107.265 127.025 106.868 126.158C106.461 125.268 106.142 124.341 105.916 123.389C105.543 121.884 105.272 120.379 104.922 118.663C104.703 118.828 104.501 119.016 104.32 119.223C102.694 121.563 101.078 123.91 99.4725 126.266C98.9727 127.007 98.7318 127.127 97.8104 126.965C95.2691 126.501 92.7339 126.026 90.1806 125.61C89.2552 125.48 88.3205 125.427 87.3864 125.454C86.1366 125.448 84.9288 125.904 83.996 126.736C81.012 129.377 77.4204 131.238 73.5418 132.154C68.5372 133.311 63.2831 132.623 58.7458 130.216C57.1659 129.433 55.3639 129.22 53.6451 129.614C51.8867 129.921 50.1524 130.33 48.406 130.685C45.8388 131.284 43.2135 131.599 40.5774 131.624C39.7316 131.597 38.8886 131.513 38.0542 131.371C37.0545 131.215 36.8498 131.004 36.7474 130.005C36.6812 129.403 36.6932 128.759 36.633 128.133C36.5427 127.175 36.4282 126.224 36.3259 125.267L35.9947 125.189ZM55.5541 48.1969L56.4755 48.7447L56.614 48.5219L55.8552 47.9199C54.357 46.4538 52.6251 45.2473 50.7305 44.35C50.3692 45.0965 50.0741 45.7166 49.8332 46.2222L55.5541 48.1969ZM69.7359 47.041L67.2729 49.5273L67.4837 49.744L70.0912 47.4022C71.1992 46.6677 72.2772 45.8851 73.4213 45.2109C74.5655 44.5366 75.7458 44.0068 76.9984 43.3446L76.1072 41.7794C73.7608 43.245 71.6185 45.0142 69.7359 47.041ZM75.6134 71.6153C75.246 71.7177 75.1617 71.4949 75.1256 71.1939C75.0894 70.8929 75.0051 70.4655 74.3668 70.64C74.5354 71.6514 74.0717 72.5424 73.7104 73.4695C73.5371 73.838 73.4766 74.2495 73.5366 74.6523C73.5966 75.055 73.7744 75.4311 74.0476 75.7331C74.9088 76.4977 74.8967 77.4248 75.0112 78.3699C75.1375 79.0309 75.1558 79.7079 75.0654 80.3746C74.2705 80.2001 74.5234 79.1706 73.7164 79.0924C73.6321 79.2308 73.4996 79.3452 73.5117 79.4415C73.5135 79.7059 73.584 79.9652 73.7164 80.194C74.1922 80.7599 74.7221 81.2837 75.3665 81.964C75.4749 82.1927 75.1738 82.879 76.0409 83.0837C76.0891 82.7165 76.1192 82.4335 76.1674 82.1566C76.2156 81.8797 76.2637 81.6509 76.33 81.3138C76.9322 81.8556 76.3721 82.9091 77.4621 83.1198C77.5104 82.8113 77.5245 82.4984 77.5043 82.1867C77.2106 81.1512 77.2982 80.0447 77.7512 79.0683C77.8538 78.7741 77.9067 78.4648 77.9077 78.1532C78.0101 77.2381 77.968 76.3833 77.1128 75.7451C77.0152 75.665 76.9358 75.5651 76.8797 75.452C76.8236 75.3389 76.7923 75.2151 76.7877 75.0889C76.8358 74.1799 76.3179 73.2829 76.7877 72.3558C76.8539 72.2233 76.5769 71.9103 76.4625 71.6815C76.4782 70.9889 76.2667 70.3102 75.8603 69.7491C75.6856 70.0681 75.4989 70.2608 75.4869 70.4655C75.4991 70.8514 75.5414 71.2359 75.6134 71.6153ZM75.6856 63.6928L72.6746 64.7042C72.0122 64.8607 71.3197 65.0413 70.8981 64.2888C70.4766 63.5362 70.9704 63.0546 71.3739 62.4827C72.1326 61.4352 72.8372 60.3576 73.5418 59.274C73.7457 58.9083 73.9267 58.5303 74.0838 58.1422C73.4816 58.1 73.0299 58.0458 72.5963 58.0398C71.7472 58.0398 70.9042 58.082 70.0551 58.0398C69.9214 58.0455 69.7879 58.0247 69.6623 57.9788C69.5366 57.9328 69.4213 57.8625 69.3228 57.7719C69.2244 57.6813 69.1448 57.5722 69.0886 57.4508C69.0323 57.3295 69.0006 57.1982 68.9952 57.0646C68.9808 56.8169 69.0519 56.5717 69.1966 56.3701C69.3412 56.1685 69.5508 56.0226 69.7901 55.9569C70.0034 55.8864 70.2283 55.8578 70.4525 55.8726L75.2701 55.999L76.0951 53.922C72.5843 53.32 69.3505 53.32 66.2492 54.819C65.2856 55.2886 64.9424 55.2645 64.4426 54.5602C64.3371 54.4043 64.2425 54.2414 64.1595 54.0725C63.6236 54.0725 63.1779 54.0725 62.7383 54.0725C62.2675 54.1363 61.7919 54.1585 61.3171 54.1388C56.5028 53.4761 51.6076 54.5038 47.4666 57.0465C47.2439 57.156 47.0584 57.3285 46.9331 57.5426C46.8078 57.7567 46.7483 58.0029 46.762 58.2505C46.7138 60.7429 46.6415 63.2352 46.5934 65.7276C46.633 66.0433 46.7057 66.3541 46.8102 66.6547L48.0627 65.6794C49.1179 64.8539 50.3313 64.2536 51.6278 63.9155C54.9037 63.1208 57.5956 64.6018 58.6554 67.8045C58.8782 68.4848 59.0709 69.1711 59.3178 69.8333C60.7907 73.8746 61.3281 78.197 60.8896 82.4757C60.7494 84.6634 60.1328 86.794 59.083 88.7186C58.9222 89.0257 58.8532 89.3727 58.8843 89.7179C58.9084 90.0076 58.8366 90.2971 58.6799 90.5419C58.5232 90.7866 58.2903 90.9731 58.0171 91.0725C55.2229 92.5414 52.4347 94.0284 49.6405 95.5033C49.4009 95.667 49.1061 95.7288 48.821 95.6752C48.5358 95.6215 48.2836 95.4569 48.1199 95.2174C47.9562 94.9779 47.8944 94.6832 47.948 94.3981C48.0017 94.113 48.1664 93.8609 48.406 93.6973C48.7601 93.4388 49.137 93.2132 49.5321 93.023C50.8509 92.2946 52.1758 91.5782 53.5247 90.8437C48.9359 86.738 48.4602 81.2115 48.0146 75.6609C46.9667 76.2087 46.0695 75.9318 45.2023 75.2214C44.4556 74.6194 43.6426 74.0776 42.7935 73.4153C42.2816 74.1257 41.842 74.7338 41.4145 75.3478C41.2163 75.6115 41.1017 75.9286 41.0856 76.258C41.0695 76.5875 41.1526 76.9142 41.3241 77.196C42.2575 79.002 43.1307 80.8864 44.016 82.7165C44.841 84.372 44.7085 85.0463 43.1608 86.0757C40.8574 87.6119 38.3553 88.8271 35.7237 89.6878C35.266 89.8444 34.8264 90.031 34.3928 90.1935C34.4024 90.3125 34.4267 90.4297 34.4651 90.5427C37.3255 96.0993 40.8725 101.024 46.6114 103.98C47.7375 104.582 47.8158 105.485 46.7861 106.273C46.4306 106.541 46.0187 106.724 45.5817 106.809C43.3869 107.233 41.1258 107.172 38.9575 106.629C33.5377 105.328 29.4126 102.192 26.1607 97.7729L25.2454 96.5027C25.0949 96.6231 24.9985 96.6652 24.9624 96.7375C22.8005 101.12 23.8122 106.58 28.4551 109.344C30.6233 110.62 33.1413 111.175 35.6454 110.927C37.2922 110.777 38.9055 110.371 40.4268 109.723C41.3904 109.326 41.7999 109.56 42.1913 110.5C42.3337 110.871 42.5049 111.232 42.7032 111.577C44.6149 114.694 46.8231 117.62 49.2972 120.312C52.7298 124.009 56.5839 127.127 61.3412 129C64.0676 130.133 67.0174 130.626 69.9643 130.443C72.9112 130.259 75.7768 129.403 78.3413 127.94C81.7703 126.012 84.7863 123.428 87.2177 120.337C90.3677 116.397 92.9614 112.044 94.9259 107.399C95.0704 107.074 95.1909 106.737 95.3655 106.43C95.8232 105.641 96.4495 105.455 97.1179 106.057C97.8872 106.674 98.854 106.993 99.8398 106.954C101.139 106.996 102.428 106.708 103.586 106.117C105.459 105.257 107.098 103.962 108.367 102.338C109.636 100.714 110.497 98.8104 110.878 96.7856C111.311 95.0298 111.055 93.1748 110.162 91.6023C109.729 90.8469 109.112 90.2143 108.367 89.7645C107.621 89.3146 106.774 89.0624 105.904 89.0316C104.991 91.1089 103.773 93.0384 102.291 94.7568C100.4 96.9 98.2019 98.6037 95.3836 99.3442C94.0533 99.7481 92.6418 99.8053 91.2832 99.5102C89.9246 99.2152 88.664 98.5778 87.6212 97.6585C86.8384 96.9963 86.7179 96.611 86.9769 95.9488C87.3201 95.0699 87.7477 94.7448 88.6871 94.7869C89.4683 94.8142 90.2467 94.6784 90.9725 94.3882C91.6983 94.098 92.3556 93.6597 92.9025 93.1013C94.098 91.9581 95.045 90.581 95.6847 89.0557C97.3134 85.3644 97.9367 81.3082 97.4913 77.2983C97.431 76.6963 97.2986 76.0943 97.2082 75.5645L89.1267 76.7144C89.3375 77.2201 89.5603 77.7017 89.7289 78.1953C89.9583 78.7833 90.1454 79.3868 90.2889 80.0014C90.3238 80.1426 90.3302 80.2892 90.3078 80.4329C90.2853 80.5766 90.2345 80.7143 90.1583 80.8382C90.0821 80.962 89.9819 81.0694 89.8638 81.1542C89.7456 81.2389 89.6117 81.2993 89.47 81.3319C89.2049 81.3852 88.9295 81.3376 88.6978 81.1983C88.466 81.0591 88.2947 80.8383 88.2174 80.5793C88.115 80.3325 88.0849 80.0556 87.9765 79.8148C87.5128 78.7131 87.0371 77.6234 86.6216 76.6722L81.0873 75.8294C81.0873 80.1218 80.7802 84.354 78.2269 88.1768L79.1362 88.3032C80.0215 88.4056 80.9428 88.4778 81.7919 88.6042C81.938 88.6096 82.0816 88.6441 82.2141 88.7057C82.3467 88.7674 82.4655 88.8549 82.5637 88.9632C82.6619 89.0714 82.7375 89.1982 82.7859 89.3361C82.8344 89.474 82.8547 89.6202 82.8458 89.7661C82.8036 90.3681 82.3761 90.7113 81.6414 90.7354C81.2831 90.7393 80.925 90.7192 80.5695 90.6751C78.7629 90.4584 76.9563 90.2297 75.1497 90.0009C74.3126 89.8925 73.4635 89.8383 72.6385 89.6638C72.4602 89.6381 72.2919 89.5657 72.1508 89.4538C72.0097 89.3419 71.9008 89.1945 71.8353 89.0268C71.7698 88.8591 71.7499 88.677 71.7778 88.4991C71.8058 88.3212 71.8804 88.1539 71.9941 88.0142C72.1381 87.8314 72.3086 87.6711 72.5 87.5386C71.8995 86.1069 71.3828 84.6416 70.9523 83.1499C69.5379 77.346 70.0494 71.2396 72.4097 65.7517C72.5616 65.4835 72.7456 65.2349 72.9577 65.0112C73.9392 64.434 75.0656 64.1498 76.2035 64.1924C78.8212 64.4702 81.3279 65.3973 83.4961 66.8895L84.6102 67.5938C85.9082 64.1476 86.6442 60.5153 86.7902 56.8358C83.2312 59.6412 79.7685 62.1817 75.6856 63.6928ZM96.8589 108.633C95.9617 110.403 95.1728 112.101 94.2514 113.726C93.3301 115.352 92.3063 117.031 91.2404 118.615C90.1745 120.198 89.0364 121.577 87.9283 123.058L97.8164 124.587C97.9549 124.382 98.1236 124.123 98.3042 123.876C100.199 121.236 102.096 118.593 103.995 115.948C104.38 115.406 104.742 114.78 105.567 114.936C106.392 115.093 106.56 115.87 106.705 116.562C107.157 118.699 107.578 120.836 108.042 122.967C108.156 123.509 108.367 124.033 108.536 124.563C109.999 124.244 111.294 123.888 112.606 123.678C114.956 123.338 117.16 122.336 118.96 120.788C119.444 120.392 119.955 120.03 120.489 119.704C121.895 118.747 123.51 118.14 125.198 117.934C126.788 117.748 128.384 117.579 129.98 117.411C130.943 117.314 131.913 117.242 132.949 117.152C132.774 115.514 132.551 113.979 132.467 112.432C132.339 110.1 131.522 107.858 130.118 105.99C129.095 104.6 127.926 103.305 126.788 101.999C125.301 100.283 123.711 98.6519 122.296 96.8819C120.768 94.8825 119.803 92.5108 119.502 90.0129C119.153 87.2736 118.983 84.5146 118.99 81.7533C118.966 79.5262 118.827 77.3018 118.574 75.0889C118.153 71.7779 116.816 68.7497 115.286 65.8179C110.271 56.1774 103.377 47.6377 95.0102 40.7018C91.6119 37.7999 87.6949 35.5672 83.466 34.1217C79.5939 32.8214 75.8 32.8214 72.0784 34.808C68.3569 36.7947 64.9183 39.4797 61.5881 42.1647C60.6668 42.9112 60.1368 42.9774 59.3419 42.0984C59.1009 41.7826 58.8988 41.439 58.7397 41.075C57.8697 39.4135 56.7347 37.9048 55.3795 36.608C54.5771 35.794 53.5916 35.1835 52.5054 34.8275C51.4191 34.4714 50.2634 34.3801 49.1346 34.5612C48.2513 34.6965 47.3837 34.9204 46.5452 35.2294C43.7833 36.2656 41.1805 37.6842 38.813 39.4435C35.7116 41.6258 32.8006 44.0667 30.1112 46.74C23.9817 52.934 19.0781 60.2299 15.6584 68.244C13.3184 73.7806 12.5657 79.8589 13.4844 85.7988C13.8518 88.4838 14.5323 91.1267 15.0502 93.7936C15.4055 95.5996 15.8029 97.4599 16.0558 99.3081C16.7062 104.124 15.5741 108.429 12.3463 112.107C9.03519 115.962 6.18557 120.191 3.85528 124.707C3.6144 125.159 3.39761 125.628 3.09651 126.248C3.69871 126.122 4.06003 126.056 4.43339 125.947C8.62379 124.687 13.1339 125.037 17.0796 126.929C20.6326 128.566 24.306 130.005 27.6482 132.058C28.2083 132.356 28.7854 132.621 29.3765 132.852C31.2915 129.27 33.1402 125.815 34.9769 122.359C35.254 121.829 35.5009 121.27 36.1813 121.24C36.4987 121.24 36.8072 121.344 37.0596 121.537C37.3119 121.729 37.4942 121.999 37.5784 122.305C37.9708 123.247 38.2713 124.225 38.4757 125.225C38.7226 126.531 38.8009 127.862 38.9454 129.156C41.0712 129.836 49.1467 128.777 53.6933 127.212C48.1772 123.082 44.0581 117.832 40.481 112.161C40.3971 112.151 40.3121 112.151 40.2281 112.161C39.8427 112.269 39.4633 112.396 39.0779 112.498C36.3293 113.3 33.4133 113.334 30.6471 112.595C24.3843 110.879 20.7711 105.25 21.9333 99.1937C22.2351 97.7587 22.7209 96.3686 23.3786 95.0578C23.5703 94.7191 23.677 94.339 23.6896 93.95C23.7021 93.561 23.6202 93.1748 23.4508 92.8243C22.9992 91.7648 22.6981 90.6451 22.3368 89.5434C22.2623 89.3333 22.2138 89.115 22.1922 88.8932C22.1541 88.6522 22.2028 88.4056 22.3297 88.1972C22.4565 87.9888 22.6532 87.8323 22.8848 87.7554C23.1398 87.6664 23.4194 87.6794 23.6651 87.7916C23.9109 87.9037 24.1038 88.1064 24.2036 88.3574C24.3164 88.6466 24.405 88.9446 24.4686 89.2484C25.0866 91.5789 26.0923 93.7891 27.4434 95.7863C30.346 100.073 34.176 103.113 39.2586 104.413C40.5567 104.833 41.9437 104.897 43.2752 104.6C43.209 104.407 43.0103 104.389 42.8718 104.293C38.0542 100.831 34.7662 96.2017 32.1888 90.9762C31.436 89.4109 31.6769 88.8089 33.3269 88.1346C33.6943 87.9841 34.0857 87.8878 34.4711 87.7674C36.6818 87.0714 38.8085 86.1326 40.8123 84.968C41.2639 84.7031 41.6915 84.366 42.1853 84.077C42.0106 83.7158 41.8781 83.4389 41.7396 83.168C39.4842 78.7163 37.5091 74.128 35.826 69.43C35.6716 69.0614 35.5546 68.6782 35.4768 68.2862C35.3262 67.2447 36.079 66.6246 37.0244 66.9978C37.6432 67.2539 38.2311 67.579 38.7768 67.9671C40.6497 69.2494 42.5044 70.5678 44.3713 71.8682C44.6518 72.0273 44.9413 72.17 45.2384 72.2956C45.1662 71.8621 45.1662 71.5972 45.124 71.3504C43.9576 65.246 44.0622 58.9668 45.4311 52.9046C46.0903 49.5412 47.2472 46.2948 48.8637 43.2724C49.5502 42.0683 50.2066 41.7553 51.4832 42.3453C52.5351 42.8282 53.5426 43.4023 54.4942 44.061C57.7039 46.2584 60.2753 49.1179 62.6781 52.2063L63.455 51.1106C65.987 47.5438 69.0306 44.3693 72.4879 41.6891C73.3744 40.9997 74.3059 40.3702 75.2761 39.8047C75.4784 39.664 75.7081 39.5674 75.9503 39.5215C76.1924 39.4755 76.4415 39.4811 76.6814 39.5379C76.9212 39.5947 77.1464 39.7015 77.3421 39.8512C77.5379 40.0009 77.6998 40.1902 77.8174 40.4068C78.366 41.2675 78.8088 42.1913 79.1362 43.158C79.7697 45.2716 79.9058 47.503 79.5337 49.6778C78.9917 53.5849 77.3658 57.0886 75.4267 60.472C75.246 60.791 75.0774 61.1222 74.7883 61.676C75.2822 61.5014 75.529 61.4292 75.7639 61.3329C78.7485 60.0263 81.534 58.3057 84.0381 56.2217C85.0799 55.3849 86.0615 54.4819 87.0491 53.5849C87.7176 52.9829 88.2234 52.8023 88.6931 53.1093C88.9384 53.267 89.1182 53.5082 89.199 53.7883C89.2799 54.0684 89.2563 54.3684 89.1327 54.6324C89.0413 55.0268 89.0089 55.4326 89.0364 55.8364C88.9646 58.6774 88.5912 61.5026 87.9223 64.2647C87.0853 67.7142 85.8989 71.0073 83.3817 73.6561C83.3456 73.6983 83.3817 73.8127 83.3817 73.8849C83.3817 73.9571 83.4359 73.9933 83.466 73.9993C88.1448 74.7488 92.9329 74.4235 97.4672 73.0481C98.3765 72.7652 99.0088 73.0481 99.1714 73.9331C99.8871 77.3427 99.9667 80.8552 99.4063 84.2938C98.9264 87.5679 97.6391 90.6712 95.6606 93.324C94.6099 94.7216 93.2131 95.8213 91.6078 96.5147L90.5419 96.9783C91.3945 97.3289 92.3099 97.5013 93.2316 97.4847C94.1534 97.4681 95.062 97.263 95.9015 96.8819C97.9183 96.0148 99.6772 94.6421 101.008 92.8966C103.323 89.9956 104.833 86.5364 105.386 82.867C105.429 82.5122 105.493 82.1604 105.579 81.8135C105.631 81.5704 105.774 81.3566 105.979 81.2156C106.184 81.0746 106.435 81.0171 106.681 81.0549C106.929 81.0616 107.166 81.1601 107.347 81.3313C107.527 81.5025 107.637 81.7343 107.656 81.982C107.692 82.2513 107.677 82.5246 107.614 82.7887C107.355 84.1372 107.084 85.4797 106.813 86.8283C106.813 86.8283 106.868 86.9005 106.904 86.9125C107.197 87.0169 107.492 87.1132 107.789 87.2015C108.694 87.4598 109.539 87.8943 110.276 88.4801C111.013 89.0658 111.627 89.7914 112.083 90.6149C112.948 92.1371 113.336 93.8843 113.197 95.6297C112.989 99.3176 111.341 102.776 108.608 105.262C105.332 108.405 101.544 110.018 96.8589 108.633ZM53.0309 70.4053L52.6816 70.3451C52.6033 70.5919 52.4046 70.8748 52.4708 71.0795C52.5593 71.4188 52.5701 71.7736 52.5023 72.1176C52.4345 72.4616 52.29 72.7858 52.0794 73.0662C51.2785 74.4749 51.7241 75.8595 53.1875 76.8288L53.7174 81.1091L52.7719 80.0195C52.6214 80.2904 52.4227 80.4951 52.4588 80.6215C52.5257 81.016 52.6961 81.3858 52.9526 81.6931C53.2897 81.9386 53.563 82.2613 53.7495 82.6342C53.936 83.0071 54.0303 83.4193 54.0245 83.8362C54.0245 84.1553 54.2955 84.3841 54.699 84.1553C55.0242 83.6436 54.4942 82.9513 54.97 82.4396C55.5722 82.6322 55.2048 83.5894 56.0539 83.5413C56.0961 83.4148 56.2225 83.2463 56.1924 83.1138C56.0772 82.3254 56.177 81.5204 56.4815 80.784C56.7103 80.0776 56.7674 79.3268 56.648 78.594C56.5286 77.8611 56.2362 77.1672 55.795 76.5699C55.2882 75.7933 55.0376 74.8775 55.0784 73.9511L56.084 74.0174L56.2286 73.7886C55.7336 73.3268 55.2839 72.8188 54.8857 72.2715C54.5424 71.7056 54.7773 70.8929 54.3497 70.327C53.2236 70.5317 54.3015 71.531 53.5789 71.9886L53.0309 70.4053ZM73.0721 51.3334C73.5538 49.8825 73.9874 48.5641 74.4812 47.0651C72.3268 48.3097 70.3634 49.8588 68.6519 51.6645L73.0721 51.3334ZM47.3401 54.5241L51.3568 52.8324L48.7071 49.148C48.0975 50.8974 47.6401 52.6961 47.3401 54.5241ZM80.9308 72.6749C81.9097 72.1475 82.6961 71.3233 83.177 70.321C82.3526 69.1388 81.1369 68.2858 79.7444 67.9129C80.1299 69.4781 80.5092 71.0073 80.9308 72.6749ZM56.8428 51.833C56.0419 50.7675 53.4825 49.425 51.3748 49.0517C52.1095 50.1655 52.8081 51.213 53.5247 52.2906L56.8428 51.833ZM47.8821 73.8969L48.0326 73.8247C48.4502 71.7738 48.8637 69.745 49.2732 67.7383L49.0925 67.6119L46.9728 69.6226L47.8821 73.8969ZM77.3898 46.752C76.378 48.1926 75.6917 49.836 75.3785 51.5682L76.8599 51.8812C77.4125 50.2314 77.5875 48.4785 77.3718 46.752H77.3898ZM39.8307 73.7224L41.0351 72.127L38.8912 70.64L38.6744 70.8327L39.8307 73.7224Z" fill="#F2EEE9"/>
<path d="M53.0304 70.4036L53.5965 72.017C54.3191 71.5776 53.2412 70.5602 54.3673 70.3555C54.7949 70.9214 54.56 71.7341 54.9033 72.3C55.3016 72.8473 55.7512 73.3553 56.2462 73.8171L56.1016 74.0458L55.096 73.9796C55.0553 74.9059 55.3059 75.8218 55.8126 76.5984C56.2538 77.1957 56.5462 77.8896 56.6656 78.6224C56.785 79.3553 56.7279 80.1061 56.4991 80.8125C56.1947 81.5489 56.0948 82.3538 56.21 83.1423C56.21 83.2747 56.1137 83.4433 56.0715 83.5697C55.2224 83.6179 55.5958 82.6607 54.9876 82.468C54.5118 82.9737 55.0418 83.6721 54.7166 84.1838C54.3131 84.4126 54.0241 84.1838 54.0421 83.8647C54.0479 83.4478 53.9536 83.0356 53.7671 82.6627C53.5806 82.2898 53.3073 81.967 52.9702 81.7215C52.7137 81.4143 52.5434 81.0445 52.4764 80.65C52.4403 80.5175 52.639 80.3128 52.7896 80.0479L53.735 81.1376L53.2051 76.8573C51.7417 75.888 51.2961 74.5034 52.097 73.0946C52.3076 72.8143 52.4521 72.49 52.5199 72.146C52.5877 71.8021 52.5769 71.4472 52.4885 71.108C52.4222 70.9033 52.6209 70.6204 52.6992 70.3735L53.0304 70.4036ZM54.7527 81.5349C55.2525 80.3309 54.8129 77.2546 53.9337 76.4178C54.1987 78.29 54.2408 79.9396 54.7527 81.5349ZM53.6266 72.7635C53.5784 74.7622 53.6989 75.28 54.2288 75.6893C54.3596 75.1881 54.3733 74.6636 54.2689 74.1563C54.1644 73.6489 53.9447 73.1724 53.6266 72.7635ZM53.0846 75.5629L52.8498 73.5221C52.2476 74.4793 52.3921 75.0632 53.0846 75.5629Z" fill="#F3EEE9"/>
<path d="M76.4806 71.6805C76.595 71.9093 76.872 72.2223 76.8057 72.3548C76.324 73.2759 76.8419 74.1608 76.8057 75.0879C76.8104 75.2141 76.8417 75.3379 76.8978 75.451C76.9539 75.5641 77.0333 75.664 77.1309 75.7441C77.9861 76.3462 78.0282 77.2191 77.9258 78.1522C77.9248 78.4638 77.8719 78.7731 77.7693 79.0673C77.3103 80.0415 77.2163 81.148 77.5043 82.1857C77.5273 82.5094 77.5132 82.8346 77.4621 83.155C76.3722 82.9262 76.9623 81.8727 76.33 81.3489C76.2638 81.686 76.2096 81.9509 76.1674 82.1917C76.1253 82.4325 76.0891 82.7516 76.041 83.1188C75.1738 82.9142 75.4749 82.2279 75.3665 81.9991C74.7221 81.3188 74.1621 80.7951 73.7165 80.2292C73.5841 80.0003 73.5135 79.741 73.5117 79.4766C73.5117 79.3803 73.6322 79.2659 73.7165 79.1275C74.5234 79.1877 74.2705 80.2352 75.0654 80.4098C75.1558 79.743 75.1375 79.066 75.0112 78.4051C74.8968 77.4599 74.9088 76.5328 74.0477 75.7682C73.7745 75.4662 73.5967 75.0902 73.5367 74.6874C73.4767 74.2846 73.5371 73.8731 73.7104 73.5046C74.0718 72.5775 74.5355 71.6986 74.3668 70.6752C75.0052 70.5006 75.0895 70.8497 75.1256 71.229C75.1617 71.6083 75.2461 71.7528 75.6134 71.6504L76.4806 71.6805ZM75.9747 80.4941C76.5769 79.5188 76.3963 77.3455 75.6194 76.3341C75.7399 77.8392 75.8784 79.0733 75.9687 80.4941H75.9747ZM75.6014 72.4391C75.395 72.9981 75.3282 73.599 75.4069 74.1897C75.4857 74.7804 75.7074 75.3429 76.053 75.8284C75.8362 74.5823 76.1373 73.5408 75.5953 72.4391H75.6014ZM74.674 75.2565C74.8486 74.3896 74.8426 74.3896 74.3066 73.7394C74.3367 74.3234 74.138 74.8532 74.674 75.2565Z" fill="#F3EEE9"/>
<path d="M76.4813 71.6825L75.6201 71.6163C75.5542 71.2364 75.5179 70.8519 75.5117 70.4664C75.5117 70.2617 75.7104 70.0691 75.8851 69.75C76.2893 70.3119 76.4987 70.9906 76.4813 71.6825Z" fill="#F2EEE9"/>
<path d="M78.1416 99.6044C77.973 104.421 77.6358 109.237 76.4555 113.914C76.0774 115.659 75.4054 117.326 74.4682 118.845C73.8826 119.858 72.9847 120.654 71.9089 121.114C71.2765 121.344 70.5982 121.419 69.9309 121.333C69.2635 121.248 68.6264 121.003 68.0728 120.621C66.8276 119.827 65.7429 118.806 64.8752 117.611C63.3433 115.584 62.0198 113.407 60.9247 111.115C58.9578 107.07 57.2619 102.899 55.8482 98.6291C55.7483 98.3824 55.6737 98.1263 55.6254 97.8646C55.5987 97.6883 55.6162 97.5082 55.6763 97.3404C55.7364 97.1725 55.8372 97.0222 55.9697 96.9029C56.1022 96.7836 56.2622 96.699 56.4354 96.6567C56.6087 96.6144 56.7897 96.6157 56.9623 96.6605C57.2634 96.7268 57.5645 96.8893 57.8355 96.9856C64.02 98.9723 69.8794 98.4365 75.2992 94.6498C75.793 94.3067 76.2507 93.6745 76.9372 94.0478C77.2925 94.2343 77.5915 94.5124 77.8033 94.8532C78.015 95.194 78.1318 95.5852 78.1416 95.9863C78.1657 97.1963 78.1416 98.4004 78.1416 99.6044ZM58.6484 99.5322C58.6394 99.7343 58.6576 99.9368 58.7026 100.134C60.3707 104.746 62.1833 109.297 64.7246 113.499C65.6015 114.893 66.5818 116.219 67.6573 117.466C68.1923 118.059 68.8311 118.548 69.5422 118.911C69.9256 119.154 70.3862 119.243 70.8324 119.162C71.2787 119.08 71.678 118.834 71.951 118.472C72.3586 118.06 72.6926 117.581 72.9386 117.057C73.4797 115.89 73.9287 114.682 74.2815 113.445C75.6244 108.183 75.9014 102.807 75.9195 97.407C75.9195 97.3047 75.8051 97.2024 75.7148 97.0458C70.4214 100.315 64.7487 101.031 58.6484 99.5322Z" fill="#F2EEE9"/>
<path d="M65.9727 82.5408C66.0397 85.9738 65.4827 89.3905 64.3287 92.6246C64.2108 93.0055 64.0406 93.3681 63.8229 93.7022C63.7006 93.8991 63.5127 94.0463 63.2922 94.118C63.0718 94.1896 62.8331 94.1809 62.6185 94.0935C62.3805 94.022 62.1774 93.8649 62.0485 93.6526C61.9195 93.4402 61.8737 93.1877 61.9199 92.9436C61.9568 92.6801 62.0298 92.4228 62.1367 92.1791C63.7807 87.965 64.0276 83.6124 63.5037 79.1876C63.2929 77.3815 62.8232 75.6176 62.4679 73.8356C62.4007 73.6252 62.3503 73.4098 62.3174 73.1915C62.3089 72.9211 62.396 72.6564 62.5634 72.4439C62.7308 72.2314 62.9678 72.0847 63.2327 72.0296C63.481 71.9783 63.7395 72.0183 63.9607 72.1421C64.1819 72.266 64.3511 72.4654 64.4371 72.7038C64.5456 72.995 64.6361 73.2926 64.7081 73.5948C65.4827 76.5162 65.9072 79.5192 65.9727 82.5408Z" fill="#F2EEE9"/>
<path d="M56.1999 57.671C56.0086 57.984 55.7616 58.2594 55.4712 58.4837C53.8513 59.3927 52.1892 60.2416 50.5452 61.1205C49.8346 61.4998 49.2565 61.4336 48.8952 60.9038C48.5339 60.374 48.6122 59.772 49.383 59.3084C50.9788 58.3512 52.6349 57.5024 54.2849 56.6174C54.6066 56.4691 54.962 56.4088 55.3147 56.4429C55.8506 56.5091 56.1216 56.9004 56.1999 57.671Z" fill="#F2EEE9"/>
<path d="M54.7526 81.5351C54.2407 79.9398 54.1986 78.2902 53.9336 76.418C54.8008 77.2548 55.2524 80.3311 54.7526 81.5351Z" fill="#F2EEE9"/>
<path d="M53.6259 72.7656C53.9439 73.1745 54.1637 73.651 54.2681 74.1584C54.3725 74.6657 54.3588 75.1902 54.2281 75.6914C53.6981 75.2821 53.5957 74.7643 53.6259 72.7656Z" fill="#F2EEE9"/>
<path d="M53.0858 75.5643C52.3813 75.0586 52.2488 74.4746 52.851 73.5234L53.0858 75.5643Z" fill="#F2EEE9"/>
<path d="M75.9686 80.4959C75.8481 79.0751 75.7397 77.841 75.6133 76.3359C76.3901 77.3714 76.5527 79.5206 75.9686 80.4959Z" fill="#F2EEE9"/>
<path d="M75.5936 72.4414C76.1356 73.5431 75.8345 74.5846 76.0453 75.8308C75.6997 75.3452 75.478 74.7827 75.3993 74.192C75.3205 73.6014 75.3873 73.0004 75.5936 72.4414Z" fill="#F2EEE9"/>
<path d="M74.6737 75.2593C74.1196 74.8559 74.3184 74.3261 74.3063 73.7422C74.8603 74.3924 74.8664 74.3924 74.6737 75.2593Z" fill="#F2EEE9"/>
<path d="M156.055 13.3998L149.116 13.7645C148.861 13.7645 148.606 13.8314 148.356 13.8253C147.553 13.8253 147.14 13.5031 147.085 12.7067C147 11.1565 147 9.57596 147 8.00145C147 7.30842 147.383 7.04094 148.083 7.00446L177.043 5.30837C187.333 4.6964 197.622 4.07024 207.912 3.4299C215.52 2.96788 223.116 2.46939 230.736 2.00129C238.356 1.53319 245.94 1.08333 253.572 0.627394C254.928 0.554444 256.291 0.445019 257.683 0.390306C259.252 0.329514 259.97 1.04078 259.94 2.56666C259.94 3.4603 259.94 4.35394 259.873 5.24758C259.831 5.62409 259.766 5.99766 259.678 6.36615C259.638 6.70913 259.465 7.02247 259.194 7.23775C258.924 7.45302 258.58 7.55273 258.237 7.51511C256.832 7.57591 255.433 7.67317 254.028 7.7522C251.942 7.86771 249.863 7.97105 247.777 8.09264C247.489 8.12207 247.202 8.16672 246.919 8.22638V9.63675C246.919 17.4303 246.899 25.2218 246.858 33.0112C246.907 36.2685 246.401 39.5104 245.362 42.5981C246.001 43.3337 246.579 43.9902 247.156 44.6833C248.556 46.4256 249.416 48.5384 249.631 50.7624C250.592 59.1882 248.056 66.4711 242.2 72.5807C240.728 74.1398 238.872 75.2846 236.818 75.8999C235.844 76.2191 234.817 76.3415 233.796 76.2601C232.775 76.1787 231.78 75.8951 230.87 75.4257L230.231 75.1157C229.97 75.6081 229.727 76.0458 229.502 76.4896C227.087 81.38 224.177 86.0102 220.817 90.3076C218.246 93.6539 215.168 96.5787 211.695 98.9765C209.344 100.607 206.691 101.754 203.892 102.35C199.631 103.228 195.196 102.464 191.474 100.211C188.62 98.4919 186.099 96.2742 184.03 93.6633C180.853 89.7031 178.245 85.318 176.282 80.6356C175.907 79.7443 175.328 78.9532 174.592 78.3255C170.882 75.0914 169.617 71.0305 170.748 66.2401C170.944 65.4619 170.944 64.6474 170.748 63.8692C169.532 59.0058 168.62 54.0574 167.884 49.0846C167.85 48.7358 167.74 48.3987 167.561 48.0971C167.383 47.7956 167.14 47.5371 166.85 47.3399C165.516 46.2643 164.457 44.8869 163.761 43.3215C162.383 40.4325 161.425 37.3621 160.914 34.2027C159.836 27.9827 159.479 21.6591 159.85 15.3573C159.887 14.6825 159.85 14.0077 159.85 13.2599H158.299C158.252 13.6006 158.224 13.9436 158.214 14.2873C158.664 25.6919 159.12 37.0964 159.583 48.501C159.891 56.4161 160.193 64.3312 160.489 72.2463C160.58 74.6293 160.726 77.0124 160.75 79.3954C160.75 81.6873 161.51 83.8271 162.009 86.0157C163.274 91.5295 164.636 97.0494 165.92 102.521C166.357 104.344 165.853 104.873 164.095 104.344L149.274 99.9674C149.026 99.9093 148.784 99.8279 148.551 99.7242C148.412 99.6729 148.287 99.5913 148.184 99.4854C148.082 99.3795 148.004 99.2519 147.957 99.1121C147.909 98.9723 147.894 98.8237 147.912 98.6772C147.929 98.5306 147.979 98.3899 148.058 98.2652C148.253 97.9347 148.471 97.6178 148.709 97.3169C151.865 92.9459 154.997 88.5993 158.166 84.2831C158.638 83.6944 158.874 82.9511 158.829 82.1979C158.36 71.2554 157.953 60.3128 157.515 49.3703C157.061 37.7591 156.597 26.1458 156.122 14.5305C156.122 14.2022 156.08 13.8739 156.055 13.3998ZM173.442 73.4925L173.552 73.839L173.643 73.76C173.582 73.6627 173.515 73.5776 173.448 73.4864C173.367 72.4145 173.042 71.3751 172.5 70.4469C172.467 71.5385 172.799 72.6099 173.442 73.4925ZM244.718 31.3212V8.35404C244.109 8.35404 243.617 8.35404 243.112 8.35404C239.919 8.53034 236.733 8.71879 233.546 8.90117L224.612 9.4179L208.156 10.3845C204.799 10.579 201.466 10.7492 198.079 10.9499C191.231 11.345 184.383 11.7584 177.535 12.1657C172.67 12.4514 167.841 12.7067 162.994 12.9864C162.674 13.0261 162.357 13.0891 162.046 13.1748C161.985 14.877 161.9 16.5305 161.869 18.178C161.633 24.2244 162.175 30.2761 163.481 36.1846C164.029 38.815 165.007 41.3372 166.376 43.6498C166.609 43.9621 166.861 44.2605 167.13 44.5434C167.081 43.9355 167.081 43.5768 167.032 43.2425C166.668 40.7561 166.309 38.2697 165.92 35.7894C165.591 33.6617 165.92 33.2726 168.036 33.2483L189.893 33.0355C199.688 32.9302 209.487 32.8167 219.291 32.6951C219.867 32.6514 220.444 32.775 220.953 33.0511C221.461 33.3271 221.878 33.7439 222.155 34.2514C222.763 35.2788 223.372 36.3183 223.84 37.4004C224.921 39.9503 225.76 42.5962 226.345 45.3033C226.424 45.6255 226.522 45.9113 226.625 46.3246C227.458 45.8809 228.182 45.4432 228.948 45.1088C230.475 44.3975 232.056 43.8626 233.759 44.4219C233.984 44.4795 234.221 44.4748 234.443 44.4085C234.666 44.3421 234.867 44.2164 235.024 44.0449C236.315 42.9871 237.856 42.2776 239.5 41.9841C240.702 41.8921 241.909 41.8819 243.112 41.9537C244.164 40.3245 245.022 35.1025 244.541 33.5097C244.499 33.504 244.456 33.504 244.413 33.5097L225.135 34.3061C224.798 34.3426 224.457 34.3426 224.12 34.3061C223.881 34.2861 223.66 34.1764 223.499 33.9992C223.339 33.822 223.252 33.5905 223.256 33.3517C223.228 33.1147 223.293 32.876 223.437 32.6856C223.58 32.4953 223.793 32.3679 224.028 32.3304C224.403 32.2582 224.784 32.2196 225.166 32.2148C230.146 32.0142 235.127 31.8258 240.108 31.6069C241.598 31.5036 243.088 31.3942 244.718 31.3212ZM178.575 80.6356C180.819 85.4989 183.361 90.0158 186.937 93.87C188.623 95.7416 190.598 97.3303 192.788 98.5752C194.822 99.7567 197.104 100.449 199.453 100.596C201.801 100.744 204.152 100.343 206.319 99.4263C210.327 97.8397 213.574 95.1709 216.487 92.0827C220.994 87.2923 224.393 81.7481 227.385 75.9424C227.835 75.067 228.231 74.1734 228.699 73.3162C228.776 73.1384 228.891 72.98 229.037 72.8525C229.183 72.725 229.355 72.6316 229.542 72.5792C229.728 72.5267 229.924 72.5166 230.115 72.5495C230.306 72.5823 230.487 72.6573 230.645 72.7691C230.827 72.8724 230.979 73.0305 231.156 73.1521C231.774 73.6097 232.484 73.9277 233.236 74.0841C233.989 74.2405 234.767 74.2316 235.516 74.0579C237.308 73.6348 238.956 72.7479 240.296 71.4864C242.355 69.6221 244.011 67.3568 245.162 64.8297C247.168 60.5743 248.202 56.1668 247.594 51.4555C247.41 49.6681 246.806 47.9495 245.83 46.4401C245.184 45.3705 244.191 44.5543 243.016 44.1274C241.841 43.7005 240.555 43.6885 239.372 44.0936C238.061 44.4901 236.843 45.1453 235.79 46.0207C234.167 47.3435 232.781 48.9325 231.691 50.7199C230.465 52.666 229.505 54.768 228.839 56.9693C228.602 57.7535 228.152 58.1 227.586 58.0028C227.02 57.9055 226.704 57.4496 226.583 56.8477C226.224 55.024 225.835 53.2002 225.451 51.3764C225.384 51.0664 225.287 50.7685 225.153 50.264C221.86 53.3461 219.178 57.0213 217.247 61.0971C219.717 64.8418 220.227 68.7143 218.348 72.7022C216.469 76.6902 213.161 78.7328 208.618 79.2556C209.171 79.7845 209.566 80.1492 209.95 80.5201C210.771 81.3164 210.637 82.1189 209.573 82.4168C209.21 82.5025 208.892 82.719 208.679 83.0247C208.356 83.4745 208.022 83.9123 207.663 84.3378C205.279 87.1768 202.548 89.5781 199.045 90.958C196.883 91.9085 194.474 92.147 192.167 91.6389C188.683 90.7878 186.53 88.4716 185.198 85.2679C185.049 84.6978 184.688 84.2061 184.188 83.894C184.028 83.8042 183.897 83.6694 183.813 83.5062C183.728 83.3431 183.693 83.1588 183.711 82.9759C183.73 82.7931 183.802 82.6197 183.918 82.4771C184.034 82.3346 184.189 82.2291 184.365 82.1736C184.872 81.9529 185.405 81.7976 185.952 81.7116C186.943 81.5414 187.497 82.2466 187.065 83.1828C186.98 83.3482 186.935 83.5316 186.935 83.7177C186.935 83.9038 186.98 84.0873 187.065 84.2527C187.307 84.8436 187.583 85.42 187.892 85.9792C188.658 87.371 189.849 88.4816 191.291 89.1487C192.733 89.8159 194.35 90.0047 195.907 89.6875C198.009 89.2977 199.993 88.4281 201.703 87.1464C203.924 85.5374 205.832 83.537 207.335 81.2435L206.562 79.1766C198.656 77.9607 194.01 69.2371 198.516 61.5834C197.483 60.0393 196.692 59.8022 195.232 60.6654C195.232 61.7719 195.232 62.9147 195.232 64.0637C195.196 67.5775 194.703 70.9332 193.043 74.1673C190.61 78.9212 185.745 81.7116 180.448 80.9395C179.84 80.8605 179.287 80.7572 178.575 80.6356ZM204.726 56.7748C204.373 51.1515 204.932 45.5222 207.858 40.2819C207.012 40.6611 206.209 41.1277 205.461 41.6741C203.757 43.0317 202.289 44.6629 201.119 46.5009C200.946 46.7935 200.743 47.0666 200.511 47.3155C200.364 47.4746 200.164 47.5752 199.948 47.5986C199.732 47.6221 199.516 47.5669 199.337 47.4432C199.121 47.3365 198.953 47.1518 198.867 46.9262C198.781 46.7006 198.784 46.4509 198.875 46.2274C198.933 46.0662 199.01 45.913 199.106 45.7714C200.742 43.2486 202.621 40.9081 205.188 39.3153C206.193 38.6931 207.283 38.2182 208.423 37.905C209.699 37.4993 211.08 37.5753 212.304 38.1186C213.528 38.6619 214.51 39.6349 215.064 40.8534C215.561 41.7948 215.908 42.8081 216.092 43.8565C216.59 46.7571 216.652 49.716 216.274 52.6348C216.013 54.4586 215.563 56.2216 215.161 58.0028C215.034 58.6107 214.93 59.0849 215.721 59.2186C215.812 59.1199 215.896 59.0142 215.97 58.9025C218.074 54.9079 220.873 51.3199 224.235 48.3065C224.404 48.1794 224.53 48.0032 224.596 47.8019C224.661 47.6006 224.662 47.384 224.6 47.1818C224.405 46.355 224.259 45.5161 224.047 44.6893C223.344 41.6169 222.234 38.6523 220.744 35.8745C220.573 35.5172 220.295 35.222 219.949 35.0302C219.602 34.8384 219.204 34.7595 218.81 34.8046C204.239 34.9707 189.668 35.1146 175.097 35.2362C174.677 35.2362 174.263 35.2727 173.838 35.2909C173.771 35.601 173.71 35.8016 173.68 36.0083C172.925 40.4582 172.159 44.9021 171.429 49.3825C171.071 51.5953 170.487 53.7716 171.131 56.0696C171.691 58.0575 172.013 60.1122 172.5 62.4223C174.179 60.1139 176.601 58.4527 179.36 57.717C179.36 57.2489 179.36 56.8295 179.287 56.4222C178.979 53.7961 178.992 51.1424 179.323 48.5192C179.7 45.583 180.26 42.7075 182.206 40.3184C182.206 40.288 182.206 40.1907 182.157 40.0935C181.257 40.1128 180.4 40.4812 179.767 41.1209C178.911 41.9568 178.239 42.9634 177.797 44.0753C177.529 44.6833 177.335 45.358 177.073 45.9842C176.812 46.6104 176.337 46.89 175.79 46.7259C175.655 46.6912 175.529 46.6286 175.42 46.5422C175.312 46.4557 175.222 46.3473 175.158 46.2241C175.094 46.1008 175.056 45.9654 175.048 45.8267C175.039 45.688 175.06 45.549 175.109 45.4188C175.759 43.1331 176.732 41.0175 178.563 39.4126C180.612 37.5888 183.033 37.5524 185.253 39.139C186.713 40.1912 187.841 41.6409 188.5 43.3154C190.473 48.0669 190.994 53.2962 189.996 58.3432C189.741 59.6685 189.954 60.5378 191.012 61.2673C191.09 61.3182 191.172 61.3648 191.255 61.4071C191.638 60.9572 192.044 60.527 192.471 60.1183C192.703 59.933 192.881 59.6896 192.988 59.4131C193.095 59.1365 193.126 58.8366 193.08 58.5438C192.66 53.3218 192.167 48.1119 190.878 43.0115C190.82 42.8135 190.786 42.6095 190.775 42.4036C190.743 42.1684 190.799 41.9299 190.931 41.7328C191.063 41.5358 191.263 41.3938 191.492 41.3336C191.739 41.2607 192.005 41.2827 192.236 41.3951C192.468 41.5076 192.65 41.7024 192.745 41.9415C192.828 42.1807 192.889 42.4269 192.928 42.6771C194.003 47.2725 194.695 51.9493 194.995 56.6593C195.038 57.1456 195.117 57.6319 195.172 58.1C197.86 58.0028 197.884 58.0149 199.939 59.6745L204.726 56.7748ZM149.153 11.7098C167.361 10.6581 185.417 9.63067 203.473 8.57897C221.529 7.52727 239.652 6.51205 257.726 5.43603V2.44507L253.183 2.71863L243.617 3.29008L228.322 4.25059L218.762 4.82203L202.95 5.7947L193.767 6.36007L178.35 7.32058C175.163 7.51511 171.977 7.69749 168.79 7.8981C163.653 8.21422 158.512 8.53439 153.367 8.85861C151.975 8.94372 150.588 9.05315 149.153 9.15041V11.7098ZM179.755 59.8022C177.265 60.432 175.124 62.0207 173.801 64.2218C173.593 64.5154 173.458 64.8545 173.407 65.2108C173.356 65.5671 173.391 65.9304 173.509 66.2705C174.659 69.7417 175.808 73.2068 176.915 76.6902C177.023 77.0539 177.217 77.3862 177.48 77.6592C177.744 77.9322 178.069 78.1378 178.429 78.2586C180.431 79.093 182.654 79.238 184.747 78.6709C186.84 78.1037 188.685 76.8566 189.992 75.1259C191.298 73.3953 191.991 71.2794 191.962 69.1115C191.934 66.9437 191.184 64.8471 189.832 63.1518C189.591 62.8844 189.333 62.6326 189.06 62.398C188.528 63.4358 187.931 64.4389 187.272 65.4011C185.83 67.2614 183.781 67.31 182.309 65.4862C181.628 64.5669 181.064 63.5662 180.631 62.5074C180.283 61.6246 179.991 60.7211 179.755 59.8022ZM205.091 59.1943C201.454 60.2095 198.498 64.2218 198.875 68.4772C199.024 70.6102 199.908 72.6258 201.376 74.1808C202.844 75.7358 204.806 76.7341 206.928 77.0058C209.049 77.2774 211.2 76.8056 213.012 75.6707C214.825 74.5358 216.189 72.8079 216.87 70.7812C218.087 67.1763 216.785 62.5986 214.109 61.0059C213.442 61.9335 212.711 62.8131 211.92 63.6382C211.59 63.9931 211.182 64.2674 210.729 64.44C210.275 64.6126 209.788 64.6789 209.305 64.6336C208.822 64.5884 208.356 64.4329 207.943 64.1792C207.529 63.9254 207.18 63.5802 206.921 63.1701C206.365 62.32 205.892 61.4181 205.51 60.477C205.34 60.0577 205.2 59.627 205.091 59.1882V59.1943ZM159.771 85.5962C156.609 89.9185 153.69 94.0098 150.649 98.1862C152.863 98.8731 154.955 99.4811 157.065 100.089C159.175 100.697 161.279 101.463 163.639 101.949C162.338 96.4415 161.091 91.2012 159.771 85.5962ZM169.611 46.4766H169.818L171.642 35.4307H167.933C168.522 39.1877 169.07 42.8291 169.611 46.4766ZM227.884 52.9935L232.226 46.2395C230.244 46.4827 228.656 47.4979 227.063 48.6712C227.343 50.118 227.61 51.5284 227.884 52.9935ZM193.122 62.6473C192.447 63.3646 192.447 63.3646 193.122 64.2643V62.6473Z" fill="#F2EEE9"/>
<path d="M173.441 73.4927C172.799 72.6117 172.467 71.5427 172.498 70.4531C173.041 71.3814 173.365 72.4208 173.447 73.4927H173.441Z" fill="#F2EEE9"/>
<path d="M193.123 62.6484V64.2655C192.448 63.3658 192.448 63.3658 193.123 62.6484Z" fill="#F2EEE9"/>
<path d="M173.448 73.4883C173.515 73.5797 173.582 73.665 173.643 73.7625L173.551 73.8417L173.441 73.4944L173.448 73.4883Z" fill="#F2EEE9"/>
<path d="M235.413 55.4503C234.467 57.1853 234.088 59.1732 234.331 61.1344C234.464 62.2104 234.276 62.6481 233.625 62.7697C232.974 62.8913 232.409 62.49 232.281 61.4444C232.001 59.4061 232.281 57.3301 233.09 55.4382C233.937 53.1887 235.455 51.2534 237.438 49.894C238.057 49.4372 238.766 49.117 239.517 48.9546C240.269 48.7922 241.047 48.7912 241.799 48.9517C242.635 49.1557 243.384 49.6197 243.939 50.277C244.053 50.374 244.145 50.4934 244.209 50.6276C244.274 50.7618 244.311 50.908 244.316 51.057C244.322 51.206 244.297 51.3545 244.243 51.4933C244.188 51.6321 244.106 51.7582 244 51.8636C243.581 52.2588 243.076 52.2345 242.516 51.7907C241.148 50.7207 240.278 50.6235 238.819 51.511C238.096 52.0113 237.402 52.5512 236.739 53.1281C236.938 53.2001 237.141 53.261 237.347 53.3105C239.92 53.6387 241.519 55.6266 241.355 58.496C241.184 61.5356 239.676 63.9673 237.511 66.0464C237.416 66.1634 237.297 66.2589 237.163 66.3265C237.028 66.3942 236.88 66.4324 236.73 66.4387C236.579 66.4451 236.429 66.4193 236.289 66.3632C236.149 66.3071 236.022 66.2219 235.918 66.1132C235.492 65.6512 235.504 65.1345 236.1 64.5448C237.299 63.4465 238.217 62.0768 238.776 60.5508C239.083 59.6283 239.227 58.6594 239.202 57.6875C239.123 56.1191 238.144 55.3592 236.563 55.3713C236.198 55.3713 235.79 55.4199 235.413 55.4503Z" fill="#F2EEE9"/>
<path d="M189.599 41.0344C189.271 40.8904 188.957 40.7154 188.663 40.5116C187.708 39.6666 186.771 38.7973 185.847 37.9219C185.281 37.393 185.19 36.8216 185.567 36.3474C185.658 36.2277 185.774 36.1297 185.907 36.0603C186.04 35.9909 186.187 35.9519 186.337 35.9461C186.487 35.9403 186.637 35.9678 186.775 36.0267C186.913 36.0856 187.036 36.1743 187.136 36.2866C188.194 37.2046 189.21 38.1772 190.226 39.1377C190.398 39.2707 190.516 39.4625 190.556 39.6766C190.597 39.8907 190.557 40.1122 190.445 40.2989C190.197 40.5812 189.913 40.8286 189.599 41.0344Z" fill="#F2EEE9"/>
<path d="M202.659 38.0032C202.542 38.2511 202.393 38.4822 202.215 38.6902C201.424 39.45 200.591 40.1674 199.782 40.9151C199.61 41.1304 199.365 41.2749 199.094 41.3209C198.822 41.3669 198.543 41.3112 198.31 41.1644C198.201 41.0799 198.109 40.9745 198.04 40.8543C197.971 40.734 197.927 40.6013 197.91 40.4639C197.893 40.3265 197.904 40.187 197.941 40.0537C197.978 39.9203 198.042 39.7957 198.128 39.6871C198.898 38.5507 199.925 37.6115 201.126 36.9454C201.862 36.532 202.646 37.0123 202.659 38.0032Z" fill="#F2EEE9"/>
<path d="M182.14 74.7511C182.28 74.7369 182.422 74.7531 182.555 74.7987C182.688 74.8442 182.81 74.918 182.912 75.015C183.014 75.1119 183.095 75.2298 183.147 75.3605C183.199 75.4912 183.223 75.6317 183.216 75.7724C183.214 75.9212 183.182 76.068 183.121 76.2037C183.06 76.3395 182.971 76.4612 182.861 76.5615C182.751 76.6618 182.622 76.7385 182.481 76.7868C182.34 76.835 182.191 76.854 182.042 76.8423C181.786 76.8348 181.541 76.7303 181.358 76.5498C181.176 76.3693 181.068 76.1263 181.057 75.8696C181.047 75.7232 181.068 75.5762 181.118 75.4382C181.168 75.3003 181.247 75.1745 181.349 75.0689C181.451 74.9634 181.574 74.8806 181.71 74.8258C181.847 74.771 181.993 74.7456 182.14 74.7511Z" fill="#F2EEE9"/>
<path d="M184.466 73.1047C184.459 73.398 184.347 73.679 184.149 73.8957C183.951 74.1125 183.681 74.2504 183.39 74.2841C183.254 74.3033 183.116 74.292 182.985 74.2511C182.854 74.2102 182.733 74.1407 182.633 74.0475C182.532 73.9544 182.453 73.84 182.402 73.7127C182.351 73.5854 182.329 73.4483 182.338 73.3114C182.321 73.0118 182.421 72.7174 182.618 72.4905C182.814 72.2636 183.091 72.1219 183.39 72.0956C183.528 72.0873 183.666 72.1072 183.796 72.1542C183.926 72.2011 184.045 72.274 184.145 72.3685C184.246 72.4629 184.327 72.5769 184.382 72.7035C184.437 72.8301 184.466 72.9666 184.466 73.1047Z" fill="#F2EEE9"/>
<path d="M186.616 75.2997C186.613 75.5576 186.514 75.8049 186.337 75.9927C186.16 76.1804 185.919 76.2948 185.662 76.3132C185.404 76.3316 185.15 76.2526 184.948 76.0918C184.746 75.9311 184.612 75.7005 184.573 75.4456C184.554 75.1714 184.641 74.9003 184.817 74.6886C184.992 74.477 185.242 74.341 185.516 74.3088C185.791 74.3032 186.058 74.4025 186.262 74.5866C186.466 74.7707 186.593 75.0257 186.616 75.2997Z" fill="#F2EEE9"/>
<path d="M210.856 71.6697C210.859 71.8187 210.833 71.9668 210.778 72.1057C210.724 72.2445 210.643 72.3712 210.539 72.4785C210.436 72.5859 210.312 72.6717 210.176 72.7311C210.039 72.7905 209.892 72.8224 209.743 72.8247C209.605 72.8398 209.466 72.827 209.334 72.7871C209.201 72.7471 209.078 72.6809 208.972 72.5924C208.866 72.5038 208.779 72.3948 208.716 72.2718C208.653 72.1487 208.615 72.0142 208.605 71.8764C208.616 71.5785 208.736 71.2951 208.943 71.0799C209.149 70.8647 209.427 70.7328 209.724 70.7092C209.863 70.6941 210.002 70.7073 210.135 70.748C210.268 70.7888 210.391 70.8562 210.497 70.9461C210.603 71.036 210.689 71.1465 210.751 71.2709C210.813 71.3953 210.848 71.531 210.856 71.6697Z" fill="#F2EEE9"/>
<path d="M206.989 71.8082C206.991 72.1082 206.878 72.3976 206.673 72.617C206.468 72.8363 206.187 72.9689 205.888 72.9876C205.75 72.9877 205.613 72.9599 205.486 72.906C205.359 72.8521 205.244 72.7732 205.148 72.6739C205.052 72.5746 204.977 72.457 204.928 72.3281C204.878 72.1992 204.855 72.0617 204.86 71.9237C204.881 71.6476 204.995 71.3869 205.184 71.1846C205.373 70.9823 205.626 70.8506 205.9 70.8112C206.038 70.8013 206.176 70.8196 206.307 70.865C206.437 70.9104 206.557 70.9819 206.659 71.0753C206.761 71.1686 206.843 71.2817 206.899 71.4078C206.956 71.5338 206.986 71.6701 206.989 71.8082Z" fill="#F2EEE9"/>
<path d="M209.219 69.6932C209.219 69.964 209.112 70.2238 208.92 70.4154C208.728 70.6069 208.468 70.7145 208.197 70.7145C207.927 70.7145 207.667 70.6069 207.475 70.4154C207.283 70.2238 207.176 69.964 207.176 69.6932C207.176 69.4223 207.283 69.1625 207.475 68.971C207.667 68.7795 207.927 68.6719 208.197 68.6719C208.468 68.6719 208.728 68.7795 208.92 68.971C209.112 69.1625 209.219 69.4223 209.219 69.6932Z" fill="#F2EEE9"/>
<path d="M360.593 60.799C361.823 60.9568 363.015 61.3379 364.108 61.9236C365.399 62.698 366.447 63.8183 367.134 65.1576C367.964 66.7872 368.659 68.4895 369.375 70.1774C369.859 71.3126 370.252 72.4918 370.728 73.635C371.009 74.2832 371.417 74.8684 371.928 75.3559C372.439 75.8435 373.042 76.2234 373.703 76.4731C374.418 76.7582 375.099 77.1205 375.734 77.5538C377.047 78.484 376.931 79.7403 375.504 80.4614C373.5 81.5285 371.306 82.1932 369.047 82.4177C368.557 82.4576 368.067 82.5252 367.394 82.6041C367.67 82.935 367.964 83.251 368.274 83.5508C369.585 84.6394 370.907 85.715 372.228 86.7907C372.461 86.9827 372.719 87.1344 372.948 87.3247C373.989 88.2026 373.887 89.1849 372.599 89.6539C370.995 90.2411 369.332 90.6869 367.688 91.1558C367.365 91.2494 367.032 91.3232 366.612 91.4264C366.476 92.2432 366.352 93.075 366.205 93.9047C365.632 97.526 363.792 100.826 361.013 103.218C359.24 104.824 357.268 106.195 355.145 107.299C354.615 107.551 354.189 107.982 353.943 108.516C352.723 110.923 351.027 113.056 348.957 114.787C347.636 115.942 346.127 116.862 344.495 117.51C341.729 118.583 339.012 118.82 336.415 116.8C336.126 117.169 335.861 117.485 335.618 117.815C332.225 122.45 328.466 126.741 323.935 130.31C321.271 132.46 318.307 134.206 315.136 135.494C312.059 136.798 308.707 137.321 305.379 137.015C301.263 136.543 297.458 134.593 294.672 131.527C292.323 128.972 290.486 125.991 289.259 122.745C287.249 117.558 286.117 112.073 285.909 106.514C285.754 103.535 285.837 100.532 285.85 97.5584C285.85 97.1422 285.872 96.7231 285.883 96.2451C284.236 96.487 282.556 96.1769 281.104 95.3632C280 94.7069 279.028 93.8502 278.238 92.8372C274.415 87.9741 273.781 79.7621 276.811 74.4076C277.137 73.8544 277.506 73.328 277.916 72.8334C278.049 72.6738 278.138 72.4813 278.172 72.2758C278.207 72.0704 278.185 71.8595 278.11 71.6651C277.519 69.3974 276.962 67.1215 276.439 64.8376C276.351 64.2911 276.093 63.7862 275.702 63.3941C275.152 62.8926 274.642 62.3674 274.163 61.8362C273.869 61.527 273.603 61.1927 273.367 60.8372C272.591 59.6264 272.886 58.7178 274.238 58.2386C275.008 57.9802 275.798 57.782 276.599 57.6458C278.815 57.2705 280.798 56.0491 282.13 54.2392C282.986 53.1354 283.897 52.062 284.854 50.8899C284.288 50.5415 283.743 50.2393 283.241 49.8806C282.585 49.4131 281.938 48.9212 281.331 48.3942C281.124 48.2352 280.974 48.0137 280.902 47.7626C280.83 47.5114 280.841 47.2439 280.933 46.9994C281.03 46.7579 281.2 46.5524 281.418 46.4112C281.637 46.27 281.894 46.2 282.154 46.2109C282.959 46.1785 283.769 46.1478 284.582 46.1563C285.61 46.1669 286.62 45.8777 287.488 45.324C288.79 44.5206 290.112 43.7241 291.485 43.0331C294.588 41.4721 298.033 40.7155 301.504 40.8327C301.677 40.8392 301.847 40.8391 302.02 40.8292C302.121 40.8091 302.219 40.7758 302.312 40.7302L301.572 36.6359C301.525 36.3837 301.464 36.1377 301.412 35.8838C301.34 35.6567 301.349 35.4118 301.438 35.1906C301.526 34.9694 301.688 34.7856 301.896 34.6703C302.124 34.5524 302.384 34.5123 302.636 34.5562C302.888 34.6001 303.119 34.7255 303.294 34.9133C304.265 35.7266 305.285 36.4808 306.348 37.1718C308.913 38.7503 311.886 39.5367 314.897 39.4327C317.583 39.3601 320.265 39.1438 322.949 38.9994C324.442 38.9259 325.93 38.8507 327.423 38.8098C330.401 38.7064 333.314 39.7009 335.608 41.6042C337.058 42.7802 338.376 44.1284 339.738 45.399C340.072 45.7088 340.387 46.0395 340.828 46.4802C341.085 45.6651 341.03 44.7833 340.674 44.0062C340.387 43.3422 340.044 42.704 339.648 42.0987C339.299 41.5373 338.947 40.9856 339.396 40.3345C339.789 39.7509 340.391 39.7507 341.005 39.8421C342.495 40.0116 343.933 40.4892 345.228 41.2447C346.523 42.0002 347.646 43.0169 348.527 44.2303C349.835 46.1352 350.821 48.2416 351.448 50.4656C351.636 51.0795 351.814 51.69 351.981 52.2367C353.573 52.3788 355.103 52.4333 356.604 52.6635C359.821 53.1931 362.861 54.4989 365.46 56.4677C365.538 56.4953 365.584 56.5826 365.653 56.6345C366.145 57.006 366.618 57.4032 366.376 58.1169C366.134 58.8306 365.524 58.8388 364.904 58.8714C363.277 58.9519 361.702 59.4727 360.347 60.3783L360.003 60.6232L360.593 60.799ZM342.377 42.337C342.495 42.7456 342.548 42.9833 342.617 43.2049C343.269 44.8968 343.236 46.7763 342.524 48.4442C342.054 49.5862 341.343 49.8162 340.373 49.0017C339.755 48.4875 339.227 47.8624 338.64 47.2932C337.126 45.881 335.633 44.4219 334.021 43.0846C332.263 41.6256 330.033 40.8557 327.749 40.9182C326.099 40.9414 324.419 41.0473 322.748 41.129C320.108 41.2563 317.472 41.4505 314.83 41.506C311.486 41.5837 308.189 40.7067 305.325 38.9776C304.981 38.7737 304.617 38.6119 304.111 38.3561C304.202 39.4285 304.246 40.2323 304.933 40.9029C305.063 41.0028 305.164 41.1352 305.225 41.2867C305.287 41.4381 305.308 41.6033 305.286 41.7654C305.263 41.9275 305.199 42.0807 305.098 42.2097C304.997 42.3387 304.864 42.4389 304.713 42.5C303.978 42.811 303.188 42.9707 302.39 42.9694C298.658 42.6778 294.922 43.4821 291.64 45.2835C290.476 45.9115 289.385 46.6747 288.199 47.273C287.383 47.6345 286.544 47.9391 285.686 48.1844C285.47 48.2451 285.25 48.2934 285.028 48.3289C285.558 48.7724 286.159 49.1239 286.805 49.369C287.316 49.5498 287.75 49.7913 287.77 50.4168C287.789 51.0423 287.718 51.8603 286.97 52.1647C286.317 52.4833 285.755 52.9626 285.338 53.5577C284.651 54.3709 284.005 55.2207 283.32 56.0404C281.858 57.8423 279.823 59.0886 277.554 59.5716C276.897 59.7112 276.247 59.8754 275.423 60.0707C276.175 60.8844 276.799 61.5652 277.467 62.2125C278.019 62.7432 278.37 63.4478 278.463 64.2076C278.691 65.7281 279.033 67.2345 279.353 68.7274C279.507 69.4223 279.772 70.0964 280.006 70.8418L281.181 70.4147C282.681 69.8678 284.333 69.9072 285.805 70.525C287.597 71.2761 289.117 72.5572 290.16 74.1966C291.446 76.1173 292.309 78.2891 292.693 80.5684C292.776 81.0139 292.882 81.4566 293.041 82.2299C294.113 80.7482 295.048 79.5463 295.857 78.267C296.666 76.9876 297.353 75.5885 298.115 74.2545C298.68 73.2612 299.577 73.2174 300.227 74.1647C300.415 74.4493 300.563 74.7579 300.669 75.0821C300.896 75.7702 301.082 76.4657 301.298 77.2156C301.648 77.0768 301.964 76.9586 302.27 76.8207C304.236 75.9072 306.205 74.984 308.2 74.0809C308.541 73.9025 308.903 73.7641 309.276 73.6683C309.453 73.6248 309.639 73.6276 309.815 73.6765C309.991 73.7255 310.151 73.8188 310.28 73.9477C310.409 74.0765 310.503 74.2365 310.553 74.4121C310.602 74.5878 310.606 74.7732 310.563 74.9506C310.474 75.2359 310.347 75.5076 310.184 75.7581C309.837 76.429 309.475 77.0948 309.034 77.9239C309.458 77.946 309.884 77.9468 310.308 77.9263C312.341 77.7208 314.378 77.5008 316.414 77.2855C316.836 77.2379 317.259 77.1413 317.684 77.1328C318.724 77.1015 319.187 77.7254 318.848 78.7001C318.663 79.2206 318.401 79.7136 318.186 80.2286C318.055 80.5983 317.924 80.968 317.726 81.5275C318.347 81.3203 318.731 81.1936 319.122 81.0474C321.652 80.0873 324.136 79.1002 326.649 78.1398C327.044 77.9801 327.454 77.8592 327.872 77.7789C328.028 77.7387 328.192 77.7326 328.351 77.761C328.51 77.7893 328.661 77.8515 328.794 77.9432C328.927 78.0349 329.039 78.1541 329.122 78.2927C329.205 78.4313 329.257 78.5861 329.275 78.7467C329.338 79.0827 329.369 79.4236 329.369 79.7653C329.424 81.898 329.468 84.0321 329.522 86.1647C329.549 87.1266 329.601 88.0922 329.647 89.3678C330.722 88.2485 331.618 87.3282 332.47 86.4202C332.847 86.0061 333.207 85.6684 333.777 85.821C334.024 85.8963 334.242 86.0451 334.402 86.2476C334.562 86.45 334.657 86.6964 334.673 86.954C334.887 88.174 335.09 89.3953 335.303 90.6153C335.382 91.0591 335.471 91.5014 335.551 91.9404C336.809 91.6519 337.947 91.3597 339.052 91.1435C339.807 90.9991 340.575 90.9334 341.344 90.9477C342.542 90.9667 342.967 91.8674 342.3 92.885C342.135 93.1342 341.952 93.3713 341.753 93.5946C339.906 95.8989 338.532 98.5453 337.709 101.382C337.559 101.805 337.512 102.265 337.417 102.702C337.808 102.486 338.145 102.184 338.403 101.819C340.194 99.5159 342.507 97.6722 345.152 96.4406C346.655 95.7059 348.321 95.365 349.992 95.4499C352.741 95.6461 354.784 97.251 355.399 99.9212C355.577 101.053 355.655 102.198 355.632 103.343C355.619 103.79 355.581 104.235 355.521 104.678C355.943 104.453 356.351 104.202 356.744 103.929C358.001 102.912 359.277 101.908 360.477 100.822C361.82 99.5634 362.836 97.9977 363.439 96.2592C364.026 94.564 364.384 92.7983 364.505 91.0086C364.619 89.7295 364.762 89.6326 366.026 89.3573C367.473 89.043 368.909 88.6649 370.578 88.265C369.99 87.7774 369.619 87.449 369.23 87.1415C367.569 85.8803 366.062 84.428 364.741 82.8144C364.385 82.3655 364.072 81.9206 364.323 81.3034C364.575 80.6862 365.113 80.6195 365.677 80.5728C366.987 80.4894 368.313 80.3786 369.633 80.2219C370.999 80.0416 372.31 79.573 373.481 78.8471C373.431 78.7091 373.431 78.6487 373.402 78.6384C373.174 78.5248 372.936 78.4078 372.708 78.3105C371.098 77.683 369.787 76.4673 369.04 74.9095C368.608 74.0282 368.248 73.1124 367.893 72.1983C367.442 71.0425 367.083 69.8476 366.59 68.7204C366.118 67.6306 365.56 66.58 364.922 65.5785C363.668 63.6618 361.809 62.8667 359.55 62.9701C359.074 62.987 358.6 63.0349 358.131 63.1135C357.864 63.1927 357.579 63.1853 357.317 63.0925C357.055 62.9996 356.829 62.8261 356.672 62.5968C356.473 62.3674 356.357 62.0782 356.341 61.7751C356.325 61.4721 356.411 61.1724 356.585 60.9238C356.917 60.3801 357.345 59.9008 357.847 59.5092C358.921 58.7947 360.064 58.2413 361.185 57.6419C361.549 57.4479 361.943 57.3246 362.508 57.0919C360.749 56.0148 358.818 55.2511 356.798 54.8347C355.302 54.4718 353.754 54.3795 352.225 54.5622C350.818 54.7646 350.638 54.7008 350.105 53.4227C349.974 53.1134 349.94 52.7619 349.823 52.4414C349.194 50.7241 348.607 48.9831 347.902 47.2937C347.38 46.0693 346.584 44.9816 345.574 44.1151C344.665 43.2754 343.569 42.6658 342.377 42.337ZM299 77.2121C298.649 77.772 298.432 78.1058 298.25 78.4191C296.874 80.6808 295.293 82.8113 293.527 84.7836C293.261 85.0257 292.935 85.1921 292.582 85.2657C292.23 85.3392 291.864 85.3171 291.523 85.2018C290.895 84.9355 290.835 84.4104 290.849 83.8133C290.853 83.6012 290.836 83.3871 290.828 83.1764C290.736 80.9063 290.16 78.6822 289.137 76.6537C288.428 75.1843 287.35 73.9238 286.009 72.995C284.441 71.9523 282.337 71.8643 281.054 72.8117C279.413 73.9901 278.218 75.6899 277.666 77.634C276.617 81.1889 276.789 84.9927 278.154 88.4385C278.803 90.3078 279.992 91.9425 281.57 93.1357C282.186 93.6379 282.921 93.9725 283.704 94.1069C284.487 94.2412 285.291 94.1708 286.039 93.9025C286.278 93.8094 286.526 93.7412 286.779 93.6991C286.946 93.6546 287.12 93.6508 287.288 93.6881C287.457 93.7254 287.614 93.8026 287.746 93.9133C287.878 94.024 287.981 94.1648 288.047 94.3239C288.113 94.4831 288.14 94.6558 288.126 94.8275C288.141 95.1232 288.079 95.424 288.078 95.7194C288.036 99.1316 287.851 102.543 287.997 105.95C288.138 111.685 289.324 117.346 291.497 122.655C292.695 125.636 294.482 128.345 296.75 130.62C298.957 132.857 301.825 134.324 304.931 134.803C308.646 135.364 312.132 134.562 315.506 133.074C319.854 131.121 323.515 128.202 326.871 124.879C329.85 121.886 332.549 118.627 334.933 115.142C335.777 113.935 336.583 113.838 337.507 114.876C337.905 115.356 338.415 115.729 338.993 115.962C339.571 116.195 340.197 116.281 340.816 116.213C341.88 116.146 342.924 115.899 343.905 115.483C346.271 114.421 348.358 112.821 349.999 110.812C351.64 108.802 352.79 106.438 353.358 103.907C353.668 102.737 353.656 101.505 353.323 100.341C353.131 99.567 352.689 98.8779 352.065 98.3815C351.44 97.8851 350.669 97.6094 349.872 97.5972C348.715 97.5143 347.556 97.7212 346.5 98.199C342.524 99.891 339.381 103.093 337.764 107.101C337.327 108.15 336.422 108.355 335.722 107.472C335.468 107.131 335.278 106.747 335.161 106.337C334.896 105.387 334.874 104.385 335.098 103.424C335.676 100.093 336.931 96.9149 338.787 94.088C338.92 93.8832 339.012 93.6531 339.168 93.3524C337.904 93.5072 336.672 93.8577 335.516 94.3913C334.63 94.7731 334.009 94.4874 333.729 93.5616C333.541 92.8635 333.393 92.155 333.287 91.4397C333.162 90.7274 333.064 90.0139 332.931 89.1839C332.622 89.4524 332.397 89.6245 332.196 89.8215C331.649 90.3614 331.121 90.9245 330.573 91.4367C330.025 91.9488 329.456 92.4263 328.64 92.1206C327.823 91.8149 327.722 91.1553 327.644 90.465C327.565 89.7748 327.473 88.9374 327.45 88.1682C327.385 85.9553 327.369 83.7597 327.309 81.516C327.299 81.1126 327.249 80.7118 327.219 80.2249C326.735 80.3872 326.405 80.484 326.091 80.5973C323.627 81.5586 321.17 82.5446 318.691 83.4845C318.017 83.7561 317.312 83.9458 316.592 84.0494C316.391 84.0786 316.185 84.0603 315.993 83.9961C315.8 83.9319 315.624 83.8236 315.481 83.6797C315.337 83.5357 315.229 83.3603 315.165 83.1672C315.101 82.9742 315.084 82.7689 315.113 82.5677C315.186 82.1045 315.308 81.6504 315.478 81.2132C315.65 80.7267 315.834 80.2062 316.074 79.53C315.326 79.6157 314.747 79.7062 314.164 79.7459C312.062 79.8832 309.978 80.0649 307.891 80.1143C306.628 80.1431 306.151 79.3394 306.555 78.1521C306.671 77.8262 306.786 77.5002 306.9 77.1792C306.711 77.1561 306.662 77.1389 306.629 77.1546C305.245 77.7703 303.847 78.4414 302.462 79.0457C302.002 79.2766 301.526 79.474 301.037 79.6362C300.109 79.9095 299.552 79.5809 299.298 78.6589C299.195 78.2995 299.144 77.9199 299 77.2121Z" fill="#F2EEE9"/>
<path d="M360.593 60.8008L360.002 60.6462L360.346 60.4013L360.593 60.8008Z" fill="#F2EEE9"/>
<path d="M297.058 100.329C298.519 96.6025 300.634 93.1669 303.305 90.1854C302.437 89.0584 301.2 88.2719 299.812 87.9628C299.064 87.7901 298.307 87.6627 297.544 87.5812C296.636 87.4403 296.216 87.111 296.261 86.4589C296.305 85.8069 296.805 85.4473 297.662 85.4991C302.481 85.8039 305.85 88.4258 307.07 92.8162C307.935 95.9089 307.688 99.0023 306.934 102.075C306.487 103.707 305.958 105.316 305.347 106.895C305.197 107.287 304.944 107.632 304.616 107.895C303.972 108.384 303.499 108.326 302.928 107.713C300.834 105.523 298.452 103.628 295.847 102.08C294.581 101.297 293.228 100.649 291.897 99.9856C291.134 99.6059 290.85 99.248 291.026 98.6588C291.202 98.0696 291.811 97.7267 292.58 98.0429C293.639 98.4837 294.655 99.0298 295.689 99.5435C296.096 99.7861 296.503 100.012 297.058 100.329Z" fill="#F2EEE9"/>
<path d="M323.823 97.3752C324.546 102.011 324.546 102.011 323.29 107.878C323.842 107.866 324.311 107.824 324.802 107.812C325.184 107.777 325.568 107.786 325.947 107.84C326.154 107.889 326.339 108.004 326.476 108.167C326.613 108.33 326.694 108.532 326.708 108.744C326.721 108.956 326.667 109.167 326.552 109.346C326.437 109.525 326.267 109.663 326.069 109.738C325.741 109.826 325.403 109.87 325.064 109.87C322.124 110.088 319.227 110.703 316.452 111.698C315.579 112.039 314.727 112.432 313.9 112.875C313.411 113.129 312.945 113.286 312.479 112.886C312.013 112.486 312.092 112.016 312.327 111.491C312.482 111.101 312.586 110.693 312.637 110.276C313.143 106.45 314.665 102.83 317.044 99.7924C318.728 97.6124 321.053 96.0155 323.692 95.2264C325.009 94.8469 326.388 94.7319 327.749 94.888C329.111 95.0441 330.428 95.4682 331.625 96.1359C331.851 96.2513 332.056 96.4053 332.23 96.5911C332.379 96.7452 332.474 96.9443 332.499 97.1577C332.524 97.371 332.477 97.5866 332.367 97.771C332.257 97.9553 332.089 98.0982 331.889 98.1773C331.69 98.2564 331.469 98.2674 331.263 98.2086C330.82 98.0519 330.398 97.8367 329.973 97.6477C328.039 96.7474 325.828 96.6494 323.823 97.3752Z" fill="#F2EEE9"/>
<path d="M324.363 117.131C321.121 118.14 317.97 119.247 314.766 120.072C311.845 120.839 308.858 121.374 305.898 121.925C304.342 122.212 302.746 122.204 301.194 121.901C300.171 121.698 299.322 121.282 298.89 120.275C298.591 119.573 298.736 118.995 299.248 118.694C299.759 118.393 300.178 118.569 300.741 119.223C300.999 119.54 301.354 119.765 301.751 119.865C302.762 120.004 303.785 120.032 304.803 119.949C306.703 119.73 308.606 119.441 310.478 119.041C315.157 117.995 319.751 116.6 324.222 114.87C324.282 114.496 324.367 114.128 324.476 113.766C324.652 113.244 324.885 112.743 325.17 112.271C325.237 112.16 325.326 112.065 325.431 111.99C325.537 111.915 325.656 111.863 325.783 111.836C325.909 111.809 326.04 111.808 326.167 111.833C326.293 111.858 326.414 111.909 326.52 111.982C326.73 112.094 326.891 112.279 326.974 112.502C327.056 112.725 327.054 112.971 326.968 113.192C326.897 113.391 326.768 113.57 326.697 113.77C326.218 115.122 326.163 116.422 327.08 117.65C327.557 118.284 327.486 118.856 326.999 119.225C326.878 119.316 326.74 119.38 326.594 119.413C326.447 119.447 326.295 119.449 326.147 119.42C326 119.391 325.86 119.331 325.737 119.245C325.614 119.158 325.51 119.046 325.433 118.917C325.041 118.343 324.684 117.747 324.363 117.131Z" fill="#F2EEE9"/>
<path d="M285.781 81.7077C284.091 82.4614 283.085 83.6 282.762 85.2703C282.608 85.8949 282.636 86.5504 282.842 87.1598C283.048 87.7692 283.424 88.3069 283.925 88.7097C284.022 88.7931 284.138 88.8507 284.235 88.9341C284.905 89.4999 285.041 90.0737 284.628 90.5737C284.216 91.0736 283.642 91.0564 282.916 90.586C280.646 89.114 279.855 85.8888 281.123 83.2829C281.728 81.9987 282.71 80.9294 283.938 80.2176L284.795 79.7161C283.942 78.5381 283.022 77.7359 281.501 77.8873C280.685 77.9652 280.267 77.6147 280.176 76.9911C280.085 76.3675 280.523 75.9039 281.364 75.7694C281.959 75.6794 282.565 75.7124 283.146 75.8664C283.727 76.0204 284.27 76.292 284.742 76.6645C287.547 78.8074 288.416 81.7484 288.198 85.1475C288.151 85.7014 288.037 86.2474 287.857 86.7734C287.832 86.9111 287.78 87.0422 287.703 87.159C287.626 87.2757 287.526 87.3755 287.409 87.4524C287.292 87.5293 287.161 87.5817 287.023 87.6063C286.885 87.631 286.744 87.6273 286.608 87.5957C285.997 87.4669 285.673 86.9581 285.844 86.2301C286.157 85.0291 286.202 83.7737 285.974 82.5535C285.98 82.3202 285.89 82.0802 285.781 81.7077Z" fill="#F2EEE9"/>
<path d="M344.792 104.6C344.318 105.352 343.849 106.089 343.386 106.84C343.257 107.105 343.113 107.363 342.954 107.612C342.808 107.801 342.596 107.928 342.361 107.968C342.126 108.008 341.884 107.959 341.683 107.83C341.487 107.739 341.329 107.582 341.237 107.386C341.145 107.191 341.125 106.969 341.181 106.76C341.208 106.635 341.251 106.514 341.308 106.4C342.306 104.109 343.748 102.2 346.065 101.099C346.75 100.74 347.502 100.532 348.273 100.486C349.044 100.44 349.816 100.558 350.539 100.832C351.477 101.165 351.802 101.624 351.59 102.299C351.378 102.975 350.871 103.14 349.907 102.848C349.401 102.67 348.862 102.604 348.328 102.655C347.794 102.706 347.277 102.873 346.814 103.143C346.87 103.294 346.883 103.425 346.954 103.505C348.797 105.564 348.663 107.86 347.676 110.199C346.983 111.831 344.568 113.133 342.828 112.96C342.679 112.962 342.53 112.934 342.392 112.878C342.253 112.823 342.127 112.74 342.021 112.635C341.914 112.53 341.83 112.405 341.772 112.267C341.714 112.13 341.684 111.982 341.684 111.832C341.686 111.209 342.097 110.851 342.878 110.793C345.518 110.589 346.891 108.552 346.079 106.036C345.869 105.469 345.727 105.315 344.792 104.6Z" fill="#F2EEE9"/>
<path d="M308.261 109.211C307.549 111.266 306.587 113.226 305.395 115.045C305.216 115.335 305.003 115.604 304.762 115.845C304.589 116.039 304.35 116.161 304.091 116.186C303.833 116.211 303.574 116.138 303.367 115.981C303.163 115.822 303.026 115.593 302.982 115.339C302.938 115.084 302.992 114.822 303.132 114.605C303.182 114.526 303.238 114.451 303.299 114.38C305.613 111.263 306.772 107.666 307.548 103.928C307.861 102.473 308.042 100.987 308.297 99.5231C308.314 99.3978 308.317 99.2672 308.345 99.1404C308.362 98.9941 308.408 98.8525 308.48 98.7238C308.552 98.5952 308.649 98.482 308.764 98.3907C308.88 98.2994 309.013 98.2319 309.154 98.192C309.296 98.1521 309.445 98.1406 309.591 98.1581C310.174 98.244 310.508 98.7676 310.418 99.5021C310.036 102.804 309.313 106.058 308.261 109.211Z" fill="#F2EEE9"/>
<path d="M316.519 96.1951C315.617 95.8209 315.405 94.9356 316.007 94.4261C317.047 93.5566 318.132 92.7421 319.257 91.9859C319.373 91.9092 319.503 91.8565 319.64 91.8312C319.776 91.8058 319.916 91.8083 320.052 91.8384C320.187 91.8685 320.315 91.9256 320.428 92.0063C320.541 92.0871 320.637 92.1898 320.709 92.3083C320.782 92.4261 320.831 92.5575 320.853 92.6948C320.875 92.832 320.868 92.9721 320.834 93.1068C320.8 93.2415 320.74 93.368 320.656 93.4787C320.572 93.5894 320.466 93.682 320.346 93.7509C319.442 94.4491 318.536 95.152 317.585 95.7955C317.25 95.9773 316.891 96.1118 316.519 96.1951Z" fill="#F2EEE9"/>
<path d="M312.351 93.8797C312.306 94.0523 312.216 94.2102 312.092 94.3379C311.967 94.4656 311.811 94.5588 311.64 94.6084C311.468 94.6581 311.287 94.6624 311.113 94.6209C310.94 94.5795 310.78 94.4938 310.649 94.3721C310.454 94.15 310.306 93.8907 310.213 93.6099C309.856 92.6566 309.504 91.7165 309.193 90.7249C308.946 89.9695 309.212 89.3737 309.846 89.1603C310.48 88.9468 310.917 89.2275 311.196 89.9835C311.572 91.0252 311.925 92.0699 312.281 93.1048C312.332 93.3599 312.355 93.6196 312.351 93.8797Z" fill="#F2EEE9"/>
</svg>
