<svg width="25" height="25" viewBox="0 0 25 25" fill="none" xmlns="http://www.w3.org/2000/svg">
<path d="M18.3128 14.5833C18.6212 14.5833 18.917 14.4579 19.135 14.2347C19.3531 14.0114 19.4756 13.7086 19.4756 13.3929C19.4756 13.0771 19.3531 12.7743 19.135 12.5511C18.917 12.3278 18.6212 12.2024 18.3128 12.2024C18.0044 12.2024 17.7086 12.3278 17.4905 12.5511C17.2724 12.7743 17.1499 13.0771 17.1499 13.3929C17.1499 13.7086 17.2724 14.0114 17.4905 14.2347C17.7086 14.4579 18.0044 14.5833 18.3128 14.5833ZM18.3128 19.3452C18.6212 19.3452 18.917 19.2198 19.135 18.9966C19.3531 18.7733 19.4756 18.4705 19.4756 18.1548C19.4756 17.839 19.3531 17.5362 19.135 17.313C18.917 17.0897 18.6212 16.9643 18.3128 16.9643C18.0044 16.9643 17.7086 17.0897 17.4905 17.313C17.2724 17.5362 17.1499 17.839 17.1499 18.1548C17.1499 18.4705 17.2724 18.7733 17.4905 18.9966C17.7086 19.2198 18.0044 19.3452 18.3128 19.3452ZM13.6614 13.3929C13.6614 13.7086 13.5389 14.0114 13.3208 14.2347C13.1027 14.4579 12.807 14.5833 12.4986 14.5833C12.1901 14.5833 11.8944 14.4579 11.6763 14.2347C11.4582 14.0114 11.3357 13.7086 11.3357 13.3929C11.3357 13.0771 11.4582 12.7743 11.6763 12.5511C11.8944 12.3278 12.1901 12.2024 12.4986 12.2024C12.807 12.2024 13.1027 12.3278 13.3208 12.5511C13.5389 12.7743 13.6614 13.0771 13.6614 13.3929ZM13.6614 18.1548C13.6614 18.4705 13.5389 18.7733 13.3208 18.9966C13.1027 19.2198 12.807 19.3452 12.4986 19.3452C12.1901 19.3452 11.8944 19.2198 11.6763 18.9966C11.4582 18.7733 11.3357 18.4705 11.3357 18.1548C11.3357 17.839 11.4582 17.5362 11.6763 17.313C11.8944 17.0897 12.1901 16.9643 12.4986 16.9643C12.807 16.9643 13.1027 17.0897 13.3208 17.313C13.5389 17.5362 13.6614 17.839 13.6614 18.1548ZM6.68433 14.5833C6.99273 14.5833 7.28851 14.4579 7.50658 14.2347C7.72466 14.0114 7.84717 13.7086 7.84717 13.3929C7.84717 13.0771 7.72466 12.7743 7.50658 12.5511C7.28851 12.3278 6.99273 12.2024 6.68433 12.2024C6.37592 12.2024 6.08015 12.3278 5.86207 12.5511C5.644 12.7743 5.52148 13.0771 5.52148 13.3929C5.52148 13.7086 5.644 14.0114 5.86207 14.2347C6.08015 14.4579 6.37592 14.5833 6.68433 14.5833ZM6.68433 19.3452C6.99273 19.3452 7.28851 19.2198 7.50658 18.9966C7.72466 18.7733 7.84717 18.4705 7.84717 18.1548C7.84717 17.839 7.72466 17.5362 7.50658 17.313C7.28851 17.0897 6.99273 16.9643 6.68433 16.9643C6.37592 16.9643 6.08015 17.0897 5.86207 17.313C5.644 17.5362 5.52148 17.839 5.52148 18.1548C5.52148 18.4705 5.644 18.7733 5.86207 18.9966C6.08015 19.2198 6.37592 19.3452 6.68433 19.3452Z" fill="#FF4778"/>
<path fill-rule="evenodd" clip-rule="evenodd" d="M6.68519 0C6.9165 0 7.13833 0.0940686 7.30189 0.261512C7.46544 0.428955 7.55733 0.656057 7.55733 0.892857V1.80119C8.32713 1.78571 9.17484 1.78571 10.1074 1.78571H14.8902C15.824 1.78571 16.6717 1.78571 17.4415 1.80119V0.892857C17.4415 0.656057 17.5334 0.428955 17.6969 0.261512C17.8605 0.0940686 18.0823 0 18.3136 0C18.5449 0 18.7668 0.0940686 18.9303 0.261512C19.0939 0.428955 19.1858 0.656057 19.1858 0.892857V1.87738C19.4881 1.90119 19.7746 1.93135 20.0451 1.96786C21.408 2.15595 22.5115 2.55119 23.3825 3.44167C24.2523 4.33333 24.6384 5.4631 24.8221 6.85833C25 8.21548 25 9.94762 25 12.1357V14.65C25 16.8381 25 18.5714 24.8221 19.9274C24.6384 21.3226 24.2523 22.4524 23.3825 23.344C22.5115 24.2345 21.408 24.6298 20.0451 24.8179C18.7195 25 17.0275 25 14.8902 25H10.1098C7.97246 25 6.27936 25 4.95488 24.8179C3.59203 24.6298 2.48849 24.2345 1.61752 23.344C0.747709 22.4524 0.361645 21.3226 0.177915 19.9274C0 18.5702 0 16.8381 0 14.65V12.1357C0 9.94762 0 8.21429 0.177915 6.85833C0.361645 5.4631 0.747709 4.33333 1.61752 3.44167C2.48849 2.55119 3.59203 2.15595 4.95488 1.96786C5.22621 1.93135 5.51266 1.90119 5.81422 1.87738V0.892857C5.81422 0.656263 5.90595 0.429341 6.06925 0.261932C6.23256 0.0945233 6.45409 0.000315459 6.68519 0ZM5.18512 3.7381C4.01647 3.89881 3.34202 4.20119 2.85013 4.70476C2.35825 5.20833 2.06289 5.89881 1.9059 7.09524C1.87954 7.29762 1.85706 7.51151 1.83846 7.7369H23.1604C23.1418 7.51151 23.1193 7.29722 23.0929 7.09405C22.936 5.89762 22.6406 5.20714 22.1487 4.70357C21.6568 4.2 20.9824 3.89762 19.8125 3.7369C18.6183 3.57262 17.0427 3.57024 14.8251 3.57024H10.1737C7.95618 3.57024 6.38169 3.57381 5.18512 3.7381ZM1.7431 12.2024C1.7431 11.1857 1.7431 10.3012 1.75822 9.52381H23.2406C23.2557 10.3012 23.2557 11.1857 23.2557 12.2024V14.5833C23.2557 16.8536 23.2534 18.4667 23.0929 19.6905C22.936 20.8869 22.6406 21.5774 22.1487 22.081C21.6568 22.5845 20.9824 22.8869 19.8125 23.0476C18.6183 23.2119 17.0427 23.2143 14.8251 23.2143H10.1737C7.95618 23.2143 6.38169 23.2119 5.18512 23.0476C4.01647 22.8869 3.34202 22.5845 2.85013 22.081C2.35825 21.5774 2.06289 20.8869 1.9059 19.6893C1.74543 18.4667 1.7431 16.8536 1.7431 14.5833V12.2024Z" fill="#FF4778"/>
</svg>
