<svg width="36" height="33" viewBox="0 0 36 33" fill="none" xmlns="http://www.w3.org/2000/svg">
<path d="M23.6252 22.3333H26.2518C30.3764 22.3333 32.4396 22.3333 33.7205 21.032C35.0015 19.7307 35.0015 17.6347 35.0015 13.4444V9.88889C35.0015 5.69867 35.0015 3.60267 33.7205 2.30133C32.4396 1 30.3799 1 26.2518 1H19.2522C15.1276 1 13.0662 1 11.7853 2.30133C10.7003 3.40356 10.5323 5.07644 10.5078 8.11111" stroke="black" stroke-width="2" stroke-linecap="round" stroke-linejoin="round"/>
<path d="M9.67052 14.6836C10.067 14.0959 10.9321 14.0959 11.3285 14.6836L12.9738 17.1224C13.3614 17.697 13.9361 18.1197 14.6001 18.3186L17.4382 19.1685C18.1064 19.3686 18.3696 20.1741 17.9484 20.7302L16.1177 23.1475C15.706 23.691 15.4918 24.3585 15.5103 25.04L15.592 28.0583C15.6111 28.7626 14.9152 29.2653 14.2526 29.0259L11.5188 28.0383C10.8601 27.8003 10.1389 27.8003 9.48022 28.0383L6.74646 29.0259C6.0838 29.2653 5.38799 28.7626 5.40706 28.0583L5.48877 25.04C5.50722 24.3585 5.293 23.691 4.88139 23.1475L3.0506 20.7302C2.62946 20.1741 2.89266 19.3686 3.56089 19.1685L6.39895 18.3186C7.06297 18.1197 7.63765 17.697 8.02529 17.1224L9.67052 14.6836Z" stroke="black" stroke-width="2"/>
<path d="M17.498 8.11115H27.9976M27.9976 15.2223H22.7478" stroke="black" stroke-width="2" stroke-linecap="round" stroke-linejoin="round"/>
</svg>
