<svg width="37" height="34" viewBox="0 0 37 34" fill="none" xmlns="http://www.w3.org/2000/svg">
<path d="M19.7619 22.8171C15.6271 33.7256 5.13484 22.0915 1 33M24.272 22.8171H26.9798C31.2319 22.8171 33.3589 22.8171 34.6794 21.4863C36 20.1554 36 18.0119 36 13.7266V10.0905C36 5.80522 36 3.66169 34.6794 2.33084C33.3589 1 31.2355 1 26.9798 1H19.7637C15.5116 1 13.3864 1 12.0659 2.33084C10.9474 3.45806 10.7742 5.16888 10.7489 8.27236" stroke="#15172B" stroke-width="2" stroke-linecap="round" stroke-linejoin="round"/>
<path d="M9.84016 22.8171C12.331 22.8171 14.3502 20.7822 14.3502 18.2719C14.3502 15.7617 12.331 13.7267 9.84016 13.7267C7.34931 13.7267 5.33008 15.7617 5.33008 18.2719C5.33008 20.7822 7.34931 22.8171 9.84016 22.8171Z" stroke="#15172B" stroke-width="2" stroke-linecap="round" stroke-linejoin="round"/>
<path d="M17.957 8.27234H28.7812M28.7812 15.5447H23.3691" stroke="#15172B" stroke-width="2" stroke-linecap="round" stroke-linejoin="round"/>
</svg>
