<svg width="1728" height="979" viewBox="0 0 1728 979" fill="none" xmlns="http://www.w3.org/2000/svg">
<path fill-rule="evenodd" clip-rule="evenodd" d="M-11.0038 0.00195312H1728V978.19H-11.0038V0.00195312Z" fill="#84DFD8"/>
<path d="M-314.207 54.918L-0.404468 1385.84" stroke="white" stroke-width="5.88724" stroke-miterlimit="800"/>
<path d="M-154.375 17.248L159.428 1348.17" stroke="white" stroke-width="5.88724" stroke-miterlimit="800"/>
<path d="M5.45312 -20.418L319.256 1310.5" stroke="white" stroke-width="5.88724" stroke-miterlimit="800"/>
<path d="M165.281 -58.0859L479.084 1272.84" stroke="white" stroke-width="5.88724" stroke-miterlimit="800"/>
<path d="M325.113 -95.7559L638.916 1235.17" stroke="white" stroke-width="5.88724" stroke-miterlimit="800"/>
<path d="M484.941 -133.422L798.744 1197.5" stroke="white" stroke-width="5.88724" stroke-miterlimit="800"/>
<path d="M644.77 -171.092L958.572 1159.83" stroke="white" stroke-width="5.88724" stroke-miterlimit="800"/>
<path d="M804.602 -208.758L1118.4 1122.16" stroke="white" stroke-width="5.88724" stroke-miterlimit="800"/>
<path d="M1904.91 -313.02L-423.086 235.635" stroke="white" stroke-width="5.88724" stroke-miterlimit="800"/>
<path d="M1945.67 -140.164L-382.328 408.49" stroke="white" stroke-width="5.88724" stroke-miterlimit="800"/>
<path d="M1986.43 32.6914L-341.574 581.346" stroke="white" stroke-width="5.88724" stroke-miterlimit="800"/>
<path d="M2027.18 205.547L-300.816 754.201" stroke="white" stroke-width="5.88724" stroke-miterlimit="800"/>
<path d="M964.43 -246.428L1278.23 1084.49" stroke="white" stroke-width="5.88724" stroke-miterlimit="800"/>
<path d="M1124.26 -284.096L1438.06 1046.83" stroke="white" stroke-width="5.88724" stroke-miterlimit="800"/>
<path d="M1284.09 -321.764L1597.89 1009.16" stroke="white" stroke-width="5.88724" stroke-miterlimit="800"/>
<path d="M1443.92 -359.432L1757.72 971.49" stroke="white" stroke-width="5.88724" stroke-miterlimit="800"/>
<path d="M1603.75 -397.098L1917.55 933.824" stroke="white" stroke-width="5.88724" stroke-miterlimit="800"/>
<path d="M2067.93 378.4L-260.066 927.055" stroke="white" stroke-width="5.88724" stroke-miterlimit="800"/>
<path d="M2108.69 551.258L-219.309 1099.91" stroke="white" stroke-width="5.88724" stroke-miterlimit="800"/>
<path d="M2149.44 724.113L-178.555 1272.77" stroke="white" stroke-width="5.88724" stroke-miterlimit="800"/>
</svg>
