<svg width="1728" height="491" viewBox="0 0 1728 491" fill="none" xmlns="http://www.w3.org/2000/svg">
<g clip-path="url(#clip0_2848_3318)">
<rect width="1728" height="491" fill="#FFFBF7"/>
<mask id="mask0_2848_3318" style="mask-type:alpha" maskUnits="userSpaceOnUse" x="1404" y="-101" width="594" height="439">
<rect x="1404" y="-101" width="593.941" height="439" fill="#D9D9D9"/>
</mask>
<g mask="url(#mask0_2848_3318)">
</g>
<mask id="mask1_2848_3318" style="mask-type:alpha" maskUnits="userSpaceOnUse" x="1404" y="-101" width="594" height="439">
<rect x="1404" y="-101" width="593.941" height="439" fill="#D9D9D9"/>
</mask>
<g mask="url(#mask1_2848_3318)">
<path d="M1632.06 118.927L1631.98 118.67C1629.45 110.832 1626.9 102.973 1624.37 95.1322C1624.31 94.9621 1624.26 94.7761 1624.21 94.621L1623.57 92.6397C1623.1 91.2054 1624.37 89.8134 1625.82 90.1101L1654.11 95.7862C1655.23 96.066 1656.09 96.9077 1656.39 97.998C1656.8 99.5349 1655.82 100.706 1655.73 100.825C1655.66 100.894 1655.61 100.945 1655.54 101.011L1636.12 122.003C1635.11 123.108 1633.28 122.704 1632.81 121.269L1632.06 118.927ZM1817.38 288.31L1817.29 288.053C1814.76 280.212 1812.22 272.356 1809.69 264.513C1809.62 264.345 1809.57 264.154 1809.52 264.004L1808.89 262.02C1808.42 260.586 1809.69 259.197 1811.13 259.493L1839.42 265.167C1840.54 265.446 1841.41 266.288 1841.71 267.381C1842.11 268.918 1841.13 270.086 1841.05 270.208C1840.98 270.277 1840.92 270.328 1840.86 270.394L1821.43 291.386C1820.42 292.489 1818.6 292.084 1818.13 290.652L1817.38 288.31Z" fill="#15172A"/>
<path d="M1632.06 118.927L1631.98 118.67C1629.45 110.832 1626.9 102.973 1624.37 95.1322C1624.31 94.9621 1624.26 94.7761 1624.21 94.621L1623.57 92.6397C1623.1 91.2054 1624.37 89.8134 1625.82 90.1101L1654.11 95.7862C1655.23 96.066 1656.09 96.9077 1656.39 97.998C1656.8 99.5349 1655.82 100.706 1655.73 100.825C1655.66 100.894 1655.61 100.945 1655.54 101.011L1636.12 122.003C1635.11 123.108 1633.28 122.704 1632.81 121.269L1632.06 118.927ZM1817.38 288.31L1817.29 288.053C1814.76 280.212 1812.22 272.356 1809.69 264.513C1809.62 264.345 1809.57 264.154 1809.52 264.004L1808.89 262.02C1808.42 260.586 1809.69 259.197 1811.13 259.493L1839.42 265.167C1840.54 265.446 1841.41 266.288 1841.71 267.381C1842.11 268.918 1841.13 270.086 1841.05 270.208C1840.98 270.277 1840.92 270.328 1840.86 270.394L1821.43 291.386C1820.42 292.489 1818.6 292.084 1818.13 290.652L1817.38 288.31Z" fill="#15172A"/>
<path d="M1744.1 16.0163C1723.24 19.4006 1720.5 22.1414 1717.12 43.0031C1713.73 22.1414 1710.99 19.4006 1690.13 16.0163C1710.99 12.6357 1713.73 9.89123 1717.12 -10.9668C1720.5 9.89123 1723.24 12.6357 1744.1 16.0163ZM1390.19 358.687C1373.14 361.453 1370.9 363.696 1368.13 380.748C1365.37 363.696 1363.12 361.453 1346.07 358.687C1363.12 355.921 1365.37 353.682 1368.13 336.626C1370.9 353.682 1373.14 355.921 1390.19 358.687Z" fill="#15172A"/>
<path d="M1744.1 16.0163C1723.24 19.4006 1720.5 22.1414 1717.12 43.0031C1713.73 22.1414 1710.99 19.4006 1690.13 16.0163C1710.99 12.6357 1713.73 9.89123 1717.12 -10.9668C1720.5 9.89123 1723.24 12.6357 1744.1 16.0163ZM1390.19 358.687C1373.14 361.453 1370.9 363.696 1368.13 380.748C1365.37 363.696 1363.12 361.453 1346.07 358.687C1363.12 355.921 1365.37 353.682 1368.13 336.626C1370.9 353.682 1373.14 355.921 1390.19 358.687Z" fill="#15172A"/>
<path d="M1700.83 238.657C1679.97 242.041 1677.22 244.782 1673.84 265.644C1670.46 244.782 1667.72 242.041 1646.86 238.657C1667.72 235.276 1670.46 232.532 1673.84 211.674C1677.22 232.532 1679.97 235.276 1700.83 238.657ZM1346.92 581.328C1329.86 584.094 1327.62 586.337 1324.86 603.389C1322.09 586.337 1319.85 584.094 1302.8 581.328C1319.85 578.561 1322.09 576.322 1324.86 559.266C1327.62 576.322 1329.86 578.561 1346.92 581.328Z" fill="#15172A"/>
<path d="M1700.83 238.657C1679.97 242.041 1677.22 244.782 1673.84 265.644C1670.46 244.782 1667.72 242.041 1646.86 238.657C1667.72 235.276 1670.46 232.532 1673.84 211.674C1677.22 232.532 1679.97 235.276 1700.83 238.657ZM1346.92 581.328C1329.86 584.094 1327.62 586.337 1324.86 603.389C1322.09 586.337 1319.85 584.094 1302.8 581.328C1319.85 578.561 1322.09 576.322 1324.86 559.266C1327.62 576.322 1329.86 578.561 1346.92 581.328Z" fill="#15172A"/>
<path d="M1544.66 -6.51726C1543.69 -8.65831 1544.04 -11.192 1545.63 -12.9259C1546.87 -14.2781 1548.58 -15.7394 1550.86 -16.8699C1553.61 -18.2295 1556.26 -18.6548 1558.38 -18.702C1560.77 -18.7565 1562.95 -17.3607 1563.94 -15.1796L1577.52 15.0096C1578.62 17.4487 1577.97 20.3314 1575.92 22.0398C1574.67 23.0758 1573.13 24.1336 1571.29 25.0388C1568.84 26.2347 1566.5 26.849 1564.51 27.1507C1561.89 27.547 1559.34 26.1002 1558.25 23.6829L1544.66 -6.51726ZM1536.16 32.0181C1539.66 35.3478 1543.61 37.8415 1547.99 39.5027C1550.26 40.3606 1552.59 40.9749 1554.98 41.3312C1555.46 41.4002 1555.95 41.462 1556.44 41.5202C1558.2 41.7056 1560 41.7637 1561.84 41.6801C1566.68 41.4729 1571.51 40.277 1576.33 38.1068C1581.21 35.9149 1585.32 33.0832 1588.66 29.6081C1589.92 28.2958 1591.07 26.9145 1592.09 25.4713C1592.28 25.2024 1592.46 24.937 1592.63 24.6607C1594.07 22.5306 1595.24 20.2478 1596.16 17.8195C1597.82 13.4393 1598.57 8.83 1598.4 4.00263C1598.23 -0.821106 1597.05 -5.66665 1594.86 -10.5485C1592.66 -15.4232 1589.81 -19.5308 1586.31 -22.8569C1582.81 -26.183 1578.86 -28.6694 1574.48 -30.3379C1570.09 -31.9955 1565.48 -32.7479 1560.66 -32.5807C1555.84 -32.4135 1550.98 -31.2357 1546.11 -29.0438C1541.22 -26.8446 1537.12 -23.9874 1533.8 -20.4905C1530.48 -16.9935 1527.98 -13.0422 1526.32 -8.65831C1524.66 -4.26715 1523.9 0.334844 1524.07 5.15858C1524.24 9.98595 1525.44 14.8642 1527.66 19.8079C1529.83 24.6207 1532.66 28.692 1536.16 32.0181ZM1785.48 398.702C1787.14 397.048 1789.64 396.488 1791.82 397.364C1793.52 398.048 1795.49 399.138 1797.35 400.879C1799.59 402.977 1800.91 405.307 1801.7 407.274C1802.59 409.495 1802.05 412.032 1800.35 413.715L1776.85 437.03C1774.95 438.917 1772.02 439.32 1769.7 437.993C1768.3 437.187 1766.77 436.121 1765.27 434.707C1763.29 432.839 1761.9 430.861 1760.91 429.102C1759.63 426.787 1760.09 423.893 1761.97 422.025L1785.48 398.702ZM1746.41 404.264C1744.52 408.709 1743.57 413.282 1743.56 417.968C1743.54 420.392 1743.79 422.788 1744.29 425.151C1744.39 425.631 1744.51 426.103 1744.62 426.583C1745.07 428.302 1745.65 430.007 1746.37 431.701C1748.27 436.161 1751.08 440.265 1754.8 444.02C1758.57 447.815 1762.66 450.673 1767.08 452.577C1768.76 453.304 1770.45 453.89 1772.16 454.344C1772.48 454.424 1772.8 454.497 1773.12 454.566C1775.61 455.162 1778.16 455.456 1780.76 455.467C1785.44 455.485 1790.02 454.573 1794.48 452.723C1798.94 450.869 1803.06 448.066 1806.86 444.293C1810.66 440.527 1813.5 436.42 1815.39 431.977C1817.28 427.532 1818.22 422.966 1818.25 418.273C1818.26 413.58 1817.35 409 1815.5 404.547C1813.65 400.087 1810.84 395.95 1807.08 392.159C1803.31 388.357 1799.19 385.518 1794.76 383.638C1790.31 381.748 1785.74 380.799 1781.05 380.774C1776.36 380.763 1771.78 381.668 1767.32 383.522C1762.86 385.372 1758.71 388.204 1754.86 392.021C1751.12 395.739 1748.3 399.822 1746.41 404.264Z" fill="#15172A"/>
<path d="M1544.66 -6.51726C1543.69 -8.65831 1544.04 -11.192 1545.63 -12.9259C1546.87 -14.2781 1548.58 -15.7394 1550.86 -16.8699C1553.61 -18.2295 1556.26 -18.6548 1558.38 -18.702C1560.77 -18.7565 1562.95 -17.3607 1563.94 -15.1796L1577.52 15.0096C1578.62 17.4487 1577.97 20.3314 1575.92 22.0398C1574.67 23.0758 1573.13 24.1336 1571.29 25.0388C1568.84 26.2347 1566.5 26.849 1564.51 27.1507C1561.89 27.547 1559.34 26.1002 1558.25 23.6829L1544.66 -6.51726ZM1536.16 32.0181C1539.66 35.3478 1543.61 37.8415 1547.99 39.5027C1550.26 40.3606 1552.59 40.9749 1554.98 41.3312C1555.46 41.4002 1555.95 41.462 1556.44 41.5202C1558.2 41.7056 1560 41.7637 1561.84 41.6801C1566.68 41.4729 1571.51 40.277 1576.33 38.1068C1581.21 35.9149 1585.32 33.0832 1588.66 29.6081C1589.92 28.2958 1591.07 26.9145 1592.09 25.4713C1592.28 25.2024 1592.46 24.937 1592.63 24.6607C1594.07 22.5306 1595.24 20.2478 1596.16 17.8195C1597.82 13.4393 1598.57 8.83 1598.4 4.00263C1598.23 -0.821106 1597.05 -5.66665 1594.86 -10.5485C1592.66 -15.4232 1589.81 -19.5308 1586.31 -22.8569C1582.81 -26.183 1578.86 -28.6694 1574.48 -30.3379C1570.09 -31.9955 1565.48 -32.7479 1560.66 -32.5807C1555.84 -32.4135 1550.98 -31.2357 1546.11 -29.0438C1541.22 -26.8446 1537.12 -23.9874 1533.8 -20.4905C1530.48 -16.9935 1527.98 -13.0422 1526.32 -8.65831C1524.66 -4.26715 1523.9 0.334844 1524.07 5.15858C1524.24 9.98595 1525.44 14.8642 1527.66 19.8079C1529.83 24.6207 1532.66 28.692 1536.16 32.0181ZM1785.48 398.702C1787.14 397.048 1789.64 396.488 1791.82 397.364C1793.52 398.048 1795.49 399.138 1797.35 400.879C1799.59 402.977 1800.91 405.307 1801.7 407.274C1802.59 409.495 1802.05 412.032 1800.35 413.715L1776.85 437.03C1774.95 438.917 1772.02 439.32 1769.7 437.993C1768.3 437.187 1766.77 436.121 1765.27 434.707C1763.29 432.839 1761.9 430.861 1760.91 429.102C1759.63 426.787 1760.09 423.893 1761.97 422.025L1785.48 398.702ZM1746.41 404.264C1744.52 408.709 1743.57 413.282 1743.56 417.968C1743.54 420.392 1743.79 422.788 1744.29 425.151C1744.39 425.631 1744.51 426.103 1744.62 426.583C1745.07 428.302 1745.65 430.007 1746.37 431.701C1748.27 436.161 1751.08 440.265 1754.8 444.02C1758.57 447.815 1762.66 450.673 1767.08 452.577C1768.76 453.304 1770.45 453.89 1772.16 454.344C1772.48 454.424 1772.8 454.497 1773.12 454.566C1775.61 455.162 1778.16 455.456 1780.76 455.467C1785.44 455.485 1790.02 454.573 1794.48 452.723C1798.94 450.869 1803.06 448.066 1806.86 444.293C1810.66 440.527 1813.5 436.42 1815.39 431.977C1817.28 427.532 1818.22 422.966 1818.25 418.273C1818.26 413.58 1817.35 409 1815.5 404.547C1813.65 400.087 1810.84 395.95 1807.08 392.159C1803.31 388.357 1799.19 385.518 1794.76 383.638C1790.31 381.748 1785.74 380.799 1781.05 380.774C1776.36 380.763 1771.78 381.668 1767.32 383.522C1762.86 385.372 1758.71 388.204 1754.86 392.021C1751.12 395.739 1748.3 399.822 1746.41 404.264Z" fill="#15172A"/>
<path d="M1834.75 -45.4527C1835.78 -47.7204 1835.41 -50.4039 1833.73 -52.2404C1832.42 -53.6727 1830.6 -55.2204 1828.18 -56.4178C1825.27 -57.8577 1822.47 -58.3082 1820.22 -58.3582C1817.69 -58.416 1815.38 -56.9375 1814.34 -54.6275L1799.95 -22.6525C1798.78 -20.0691 1799.47 -17.0159 1801.65 -15.2064C1802.97 -14.1091 1804.6 -12.9887 1806.55 -12.0301C1809.14 -10.7634 1811.62 -10.1127 1813.73 -9.79317C1816.51 -9.37351 1819.21 -10.9058 1820.36 -13.4662L1834.75 -45.4527ZM1843.76 -4.6379C1840.05 -1.11122 1835.86 1.52995 1831.22 3.28944C1828.83 4.19806 1826.36 4.84873 1823.82 5.22603C1823.31 5.29919 1822.8 5.36464 1822.28 5.42624C1820.41 5.62259 1818.5 5.6842 1816.56 5.59564C1811.43 5.37619 1806.32 4.10951 1801.21 1.811C1796.05 -0.510601 1791.69 -3.50982 1788.15 -7.19051C1786.81 -8.58039 1785.6 -10.0434 1784.52 -11.5719C1784.32 -11.8568 1784.13 -12.1379 1783.94 -12.4305C1782.42 -14.6866 1781.18 -17.1045 1780.21 -19.6764C1778.45 -24.3157 1777.65 -29.1976 1777.83 -34.3106C1778.01 -39.4196 1779.26 -44.5518 1781.59 -49.7225C1783.91 -54.8854 1786.93 -59.236 1790.64 -62.7589C1794.34 -66.2817 1798.53 -68.9152 1803.17 -70.6824C1807.82 -72.438 1812.7 -73.235 1817.8 -73.0579C1822.91 -72.8808 1828.06 -71.6333 1833.22 -69.3117C1838.39 -66.9824 1842.74 -63.9563 1846.25 -60.2525C1849.77 -56.5487 1852.42 -52.3636 1854.18 -47.7204C1855.94 -43.0695 1856.74 -38.1953 1856.56 -33.0862C1856.38 -27.9733 1855.11 -22.8065 1852.76 -17.5704C1850.46 -12.4728 1847.46 -8.16073 1843.76 -4.6379ZM1579.69 383.736C1577.93 381.984 1575.28 381.391 1572.98 382.319C1571.17 383.043 1569.09 384.198 1567.12 386.042C1564.74 388.264 1563.34 390.732 1562.51 392.815C1561.56 395.167 1562.14 397.854 1563.94 399.637L1588.83 424.332C1590.84 426.33 1593.94 426.757 1596.4 425.352C1597.89 424.497 1599.51 423.369 1601.09 421.871C1603.19 419.892 1604.67 417.798 1605.71 415.935C1607.07 413.482 1606.58 410.417 1604.59 408.438L1579.69 383.736ZM1621.07 389.627C1623.07 394.335 1624.07 399.179 1624.09 404.142C1624.1 406.71 1623.85 409.247 1623.31 411.749C1623.2 412.258 1623.08 412.758 1622.96 413.266C1622.49 415.087 1621.88 416.893 1621.11 418.687C1619.1 423.411 1616.12 427.758 1612.18 431.735C1608.19 435.755 1603.86 438.781 1599.17 440.798C1597.4 441.568 1595.6 442.188 1593.79 442.67C1593.45 442.754 1593.12 442.831 1592.78 442.904C1590.14 443.536 1587.44 443.848 1584.69 443.859C1579.73 443.879 1574.88 442.912 1570.15 440.952C1565.43 438.989 1561.06 436.02 1557.04 432.024C1553.02 428.035 1550.01 423.685 1548.01 418.98C1546.01 414.271 1545.01 409.436 1544.98 404.465C1544.97 399.495 1545.94 394.644 1547.89 389.927C1549.85 385.203 1552.82 380.822 1556.81 376.806C1560.81 372.779 1565.16 369.772 1569.86 367.781C1574.57 365.779 1579.41 364.774 1584.38 364.748C1589.35 364.736 1594.2 365.695 1598.92 367.658C1603.65 369.618 1608.04 372.617 1612.12 376.66C1616.09 380.598 1619.07 384.922 1621.07 389.627Z" fill="#15172A"/>
<path d="M1834.75 -45.4527C1835.78 -47.7204 1835.41 -50.4039 1833.73 -52.2404C1832.42 -53.6727 1830.6 -55.2204 1828.18 -56.4178C1825.27 -57.8577 1822.47 -58.3082 1820.22 -58.3582C1817.69 -58.416 1815.38 -56.9375 1814.34 -54.6275L1799.95 -22.6525C1798.78 -20.0691 1799.47 -17.0159 1801.65 -15.2064C1802.97 -14.1091 1804.6 -12.9887 1806.55 -12.0301C1809.14 -10.7634 1811.62 -10.1127 1813.73 -9.79317C1816.51 -9.37351 1819.21 -10.9058 1820.36 -13.4662L1834.75 -45.4527ZM1843.76 -4.6379C1840.05 -1.11122 1835.86 1.52995 1831.22 3.28944C1828.83 4.19806 1826.36 4.84873 1823.82 5.22603C1823.31 5.29919 1822.8 5.36464 1822.28 5.42624C1820.41 5.62259 1818.5 5.6842 1816.56 5.59564C1811.43 5.37619 1806.32 4.10951 1801.21 1.811C1796.05 -0.510601 1791.69 -3.50982 1788.15 -7.19051C1786.81 -8.58039 1785.6 -10.0434 1784.52 -11.5719C1784.32 -11.8568 1784.13 -12.1379 1783.94 -12.4305C1782.42 -14.6866 1781.18 -17.1045 1780.21 -19.6764C1778.45 -24.3157 1777.65 -29.1976 1777.83 -34.3106C1778.01 -39.4196 1779.26 -44.5518 1781.59 -49.7225C1783.91 -54.8854 1786.93 -59.236 1790.64 -62.7589C1794.34 -66.2817 1798.53 -68.9152 1803.17 -70.6824C1807.82 -72.438 1812.7 -73.235 1817.8 -73.0579C1822.91 -72.8808 1828.06 -71.6333 1833.22 -69.3117C1838.39 -66.9824 1842.74 -63.9563 1846.25 -60.2525C1849.77 -56.5487 1852.42 -52.3636 1854.18 -47.7204C1855.94 -43.0695 1856.74 -38.1953 1856.56 -33.0862C1856.38 -27.9733 1855.11 -22.8065 1852.76 -17.5704C1850.46 -12.4728 1847.46 -8.16073 1843.76 -4.6379ZM1579.69 383.736C1577.93 381.984 1575.28 381.391 1572.98 382.319C1571.17 383.043 1569.09 384.198 1567.12 386.042C1564.74 388.264 1563.34 390.732 1562.51 392.815C1561.56 395.167 1562.14 397.854 1563.94 399.637L1588.83 424.332C1590.84 426.33 1593.94 426.757 1596.4 425.352C1597.89 424.497 1599.51 423.369 1601.09 421.871C1603.19 419.892 1604.67 417.798 1605.71 415.935C1607.07 413.482 1606.58 410.417 1604.59 408.438L1579.69 383.736ZM1621.07 389.627C1623.07 394.335 1624.07 399.179 1624.09 404.142C1624.1 406.71 1623.85 409.247 1623.31 411.749C1623.2 412.258 1623.08 412.758 1622.96 413.266C1622.49 415.087 1621.88 416.893 1621.11 418.687C1619.1 423.411 1616.12 427.758 1612.18 431.735C1608.19 435.755 1603.86 438.781 1599.17 440.798C1597.4 441.568 1595.6 442.188 1593.79 442.67C1593.45 442.754 1593.12 442.831 1592.78 442.904C1590.14 443.536 1587.44 443.848 1584.69 443.859C1579.73 443.879 1574.88 442.912 1570.15 440.952C1565.43 438.989 1561.06 436.02 1557.04 432.024C1553.02 428.035 1550.01 423.685 1548.01 418.98C1546.01 414.271 1545.01 409.436 1544.98 404.465C1544.97 399.495 1545.94 394.644 1547.89 389.927C1549.85 385.203 1552.82 380.822 1556.81 376.806C1560.81 372.779 1565.16 369.772 1569.86 367.781C1574.57 365.779 1579.41 364.774 1584.38 364.748C1589.35 364.736 1594.2 365.695 1598.92 367.658C1603.65 369.618 1608.04 372.617 1612.12 376.66C1616.09 380.598 1619.07 384.922 1621.07 389.627Z" fill="#15172A"/>
<path d="M1797.07 134.614C1798.09 132.346 1797.72 129.662 1796.04 127.826C1794.73 126.394 1792.92 124.846 1790.5 123.649C1787.58 122.209 1784.78 121.758 1782.54 121.708C1780 121.65 1777.69 123.129 1776.65 125.439L1762.26 157.414C1761.09 159.997 1761.78 163.05 1763.96 164.86C1765.28 165.957 1766.91 167.078 1768.87 168.036C1771.46 169.303 1773.93 169.954 1776.04 170.273C1778.82 170.693 1781.52 169.161 1782.67 166.6L1797.07 134.614ZM1806.07 175.429C1802.36 178.955 1798.18 181.596 1793.54 183.356C1791.14 184.264 1788.67 184.915 1786.14 185.292C1785.62 185.366 1785.11 185.431 1784.59 185.493C1782.73 185.689 1780.82 185.751 1778.87 185.662C1773.74 185.443 1768.63 184.176 1763.52 181.877C1758.36 179.556 1754 176.557 1750.47 172.876C1749.13 171.486 1747.91 170.023 1746.83 168.494C1746.63 168.21 1746.44 167.929 1746.25 167.636C1744.74 165.38 1743.5 162.962 1742.52 160.39C1740.76 155.751 1739.96 150.869 1740.14 145.756C1740.32 140.647 1741.58 135.515 1743.9 130.344C1746.23 125.181 1749.25 120.83 1752.95 117.308C1756.66 113.785 1760.84 111.151 1765.48 109.384C1770.13 107.628 1775.01 106.831 1780.12 107.009C1785.22 107.186 1790.37 108.433 1795.53 110.755C1800.71 113.084 1805.05 116.11 1808.56 119.814C1812.09 123.518 1814.73 127.703 1816.5 132.346C1818.25 136.997 1819.05 141.871 1818.87 146.98C1818.69 152.093 1817.43 157.26 1815.07 162.496C1812.78 167.594 1809.78 171.906 1806.07 175.429ZM1542 563.803C1540.24 562.051 1537.59 561.458 1535.29 562.386C1533.49 563.11 1531.4 564.265 1529.43 566.109C1527.06 568.33 1525.66 570.798 1524.82 572.881C1523.88 575.234 1524.45 577.921 1526.25 579.703L1551.14 604.398C1553.15 606.396 1556.25 606.824 1558.71 605.418C1560.2 604.564 1561.82 603.435 1563.41 601.938C1565.5 599.959 1566.98 597.864 1568.02 596.001C1569.38 593.548 1568.9 590.484 1566.91 588.505L1542 563.803ZM1583.38 569.693C1585.38 574.402 1586.39 579.245 1586.41 584.208C1586.42 586.776 1586.16 589.313 1585.62 591.816C1585.52 592.324 1585.4 592.825 1585.27 593.333C1584.8 595.154 1584.19 596.96 1583.42 598.754C1581.42 603.478 1578.44 607.825 1574.49 611.802C1570.51 615.821 1566.17 618.847 1561.48 620.865C1559.71 621.635 1557.92 622.255 1556.11 622.736C1555.77 622.821 1555.44 622.898 1555.1 622.971C1552.45 623.602 1549.75 623.914 1547 623.926C1542.04 623.945 1537.19 622.979 1532.47 621.019C1527.74 619.055 1523.38 616.087 1519.35 612.09C1515.33 608.102 1512.32 603.751 1510.32 599.046C1508.32 594.338 1507.32 589.502 1507.29 584.531C1507.28 579.561 1508.25 574.71 1510.2 569.994C1512.16 565.269 1515.14 560.888 1519.12 556.872C1523.12 552.845 1527.48 549.838 1532.17 547.848C1536.88 545.846 1541.73 544.841 1546.7 544.814C1551.66 544.802 1556.51 545.761 1561.23 547.725C1565.96 549.684 1570.35 552.684 1574.43 556.726C1578.4 560.665 1581.38 564.988 1583.38 569.693Z" fill="#15172A"/>
<path d="M1797.07 134.614C1798.09 132.346 1797.72 129.662 1796.04 127.826C1794.73 126.394 1792.92 124.846 1790.5 123.649C1787.58 122.209 1784.78 121.758 1782.54 121.708C1780 121.65 1777.69 123.129 1776.65 125.439L1762.26 157.414C1761.09 159.997 1761.78 163.05 1763.96 164.86C1765.28 165.957 1766.91 167.078 1768.87 168.036C1771.46 169.303 1773.93 169.954 1776.04 170.273C1778.82 170.693 1781.52 169.161 1782.67 166.6L1797.07 134.614ZM1806.07 175.429C1802.36 178.955 1798.18 181.596 1793.54 183.356C1791.14 184.264 1788.67 184.915 1786.14 185.292C1785.62 185.366 1785.11 185.431 1784.59 185.493C1782.73 185.689 1780.82 185.751 1778.87 185.662C1773.74 185.443 1768.63 184.176 1763.52 181.877C1758.36 179.556 1754 176.557 1750.47 172.876C1749.13 171.486 1747.91 170.023 1746.83 168.494C1746.63 168.21 1746.44 167.929 1746.25 167.636C1744.74 165.38 1743.5 162.962 1742.52 160.39C1740.76 155.751 1739.96 150.869 1740.14 145.756C1740.32 140.647 1741.58 135.515 1743.9 130.344C1746.23 125.181 1749.25 120.83 1752.95 117.308C1756.66 113.785 1760.84 111.151 1765.48 109.384C1770.13 107.628 1775.01 106.831 1780.12 107.009C1785.22 107.186 1790.37 108.433 1795.53 110.755C1800.71 113.084 1805.05 116.11 1808.56 119.814C1812.09 123.518 1814.73 127.703 1816.5 132.346C1818.25 136.997 1819.05 141.871 1818.87 146.98C1818.69 152.093 1817.43 157.26 1815.07 162.496C1812.78 167.594 1809.78 171.906 1806.07 175.429ZM1542 563.803C1540.24 562.051 1537.59 561.458 1535.29 562.386C1533.49 563.11 1531.4 564.265 1529.43 566.109C1527.06 568.33 1525.66 570.798 1524.82 572.881C1523.88 575.234 1524.45 577.921 1526.25 579.703L1551.14 604.398C1553.15 606.396 1556.25 606.824 1558.71 605.418C1560.2 604.564 1561.82 603.435 1563.41 601.938C1565.5 599.959 1566.98 597.864 1568.02 596.001C1569.38 593.548 1568.9 590.484 1566.91 588.505L1542 563.803ZM1583.38 569.693C1585.38 574.402 1586.39 579.245 1586.41 584.208C1586.42 586.776 1586.16 589.313 1585.62 591.816C1585.52 592.324 1585.4 592.825 1585.27 593.333C1584.8 595.154 1584.19 596.96 1583.42 598.754C1581.42 603.478 1578.44 607.825 1574.49 611.802C1570.51 615.821 1566.17 618.847 1561.48 620.865C1559.71 621.635 1557.92 622.255 1556.11 622.736C1555.77 622.821 1555.44 622.898 1555.1 622.971C1552.45 623.602 1549.75 623.914 1547 623.926C1542.04 623.945 1537.19 622.979 1532.47 621.019C1527.74 619.055 1523.38 616.087 1519.35 612.09C1515.33 608.102 1512.32 603.751 1510.32 599.046C1508.32 594.338 1507.32 589.502 1507.29 584.531C1507.28 579.561 1508.25 574.71 1510.2 569.994C1512.16 565.269 1515.14 560.888 1519.12 556.872C1523.12 552.845 1527.48 549.838 1532.17 547.848C1536.88 545.846 1541.73 544.841 1546.7 544.814C1551.66 544.802 1556.51 545.761 1561.23 547.725C1565.96 549.684 1570.35 552.684 1574.43 556.726C1578.4 560.665 1581.38 564.988 1583.38 569.693Z" fill="#15172A"/>
<path d="M1545.11 161.135C1546.14 158.867 1545.76 156.184 1544.09 154.347C1542.78 152.915 1540.96 151.367 1538.54 150.17C1535.63 148.73 1532.83 148.28 1530.58 148.23C1528.05 148.172 1525.74 149.65 1524.7 151.96L1510.31 183.935C1509.14 186.519 1509.83 189.572 1512.01 191.381C1513.33 192.479 1514.96 193.599 1516.91 194.558C1519.5 195.824 1521.98 196.475 1524.09 196.795C1526.86 197.214 1529.57 195.682 1530.72 193.122L1545.11 161.135ZM1554.12 201.95C1550.41 205.477 1546.22 208.118 1541.58 209.877C1539.19 210.786 1536.72 211.437 1534.18 211.814C1533.67 211.887 1533.16 211.953 1532.64 212.014C1530.77 212.21 1528.86 212.272 1526.91 212.184C1521.79 211.964 1516.68 210.697 1511.57 208.399C1506.41 206.077 1502.05 203.078 1498.51 199.397C1497.17 198.007 1495.96 196.544 1494.88 195.016C1494.68 194.731 1494.49 194.45 1494.3 194.157C1492.78 191.901 1491.54 189.483 1490.57 186.912C1488.81 182.272 1488.01 177.39 1488.19 172.277C1488.37 167.168 1489.62 162.036 1491.95 156.865C1494.27 151.702 1497.29 147.352 1501 143.829C1504.7 140.306 1508.88 137.673 1513.53 135.906C1518.18 134.15 1523.06 133.353 1528.16 133.53C1533.27 133.707 1538.42 134.955 1543.58 137.276C1548.75 139.605 1553.1 142.632 1556.61 146.335C1560.13 150.039 1562.77 154.224 1564.54 158.867C1566.3 163.518 1567.1 168.393 1566.92 173.502C1566.74 178.615 1565.47 183.781 1563.12 189.018C1560.82 194.115 1557.82 198.427 1554.12 201.95ZM1290.05 590.324C1288.29 588.572 1285.64 587.979 1283.34 588.907C1281.53 589.631 1279.45 590.786 1277.48 592.63C1275.1 594.852 1273.7 597.32 1272.87 599.403C1271.92 601.755 1272.5 604.442 1274.3 606.225L1299.19 630.919C1301.2 632.918 1304.3 633.345 1306.76 631.94C1308.25 631.085 1309.87 629.957 1311.45 628.459C1313.55 626.48 1315.03 624.386 1316.07 622.522C1317.43 620.07 1316.94 617.005 1314.95 615.026L1290.05 590.324ZM1331.43 596.215C1333.43 600.923 1334.43 605.767 1334.45 610.73C1334.46 613.298 1334.21 615.835 1333.67 618.337C1333.56 618.846 1333.44 619.346 1333.32 619.854C1332.85 621.675 1332.24 623.481 1331.47 625.275C1329.46 629.999 1326.48 634.346 1322.54 638.323C1318.55 642.343 1314.22 645.369 1309.53 647.386C1307.76 648.156 1305.96 648.776 1304.15 649.257C1303.81 649.342 1303.48 649.419 1303.14 649.492C1300.5 650.124 1297.8 650.436 1295.05 650.447C1290.09 650.466 1285.24 649.5 1280.51 647.54C1275.79 645.577 1271.42 642.608 1267.4 638.612C1263.38 634.623 1260.37 630.273 1258.37 625.568C1256.37 620.859 1255.37 616.023 1255.34 611.053C1255.33 606.083 1256.3 601.231 1258.25 596.515C1260.21 591.791 1263.18 587.41 1267.17 583.394C1271.16 579.367 1275.52 576.36 1280.22 574.369C1284.93 572.367 1289.77 571.362 1294.74 571.335C1299.71 571.324 1304.56 572.283 1309.28 574.246C1314 576.206 1318.4 579.205 1322.48 583.248C1326.44 587.186 1329.43 591.51 1331.43 596.215Z" fill="#15172A"/>
<path d="M1545.11 161.135C1546.14 158.867 1545.76 156.184 1544.09 154.347C1542.78 152.915 1540.96 151.367 1538.54 150.17C1535.63 148.73 1532.83 148.28 1530.58 148.23C1528.05 148.172 1525.74 149.65 1524.7 151.96L1510.31 183.935C1509.14 186.519 1509.83 189.572 1512.01 191.381C1513.33 192.479 1514.96 193.599 1516.91 194.558C1519.5 195.824 1521.98 196.475 1524.09 196.795C1526.86 197.214 1529.57 195.682 1530.72 193.122L1545.11 161.135ZM1554.12 201.95C1550.41 205.477 1546.22 208.118 1541.58 209.877C1539.19 210.786 1536.72 211.437 1534.18 211.814C1533.67 211.887 1533.16 211.953 1532.64 212.014C1530.77 212.21 1528.86 212.272 1526.91 212.184C1521.79 211.964 1516.68 210.697 1511.57 208.399C1506.41 206.077 1502.05 203.078 1498.51 199.397C1497.17 198.007 1495.96 196.544 1494.88 195.016C1494.68 194.731 1494.49 194.45 1494.3 194.157C1492.78 191.901 1491.54 189.483 1490.57 186.912C1488.81 182.272 1488.01 177.39 1488.19 172.277C1488.37 167.168 1489.62 162.036 1491.95 156.865C1494.27 151.702 1497.29 147.352 1501 143.829C1504.7 140.306 1508.88 137.673 1513.53 135.906C1518.18 134.15 1523.06 133.353 1528.16 133.53C1533.27 133.707 1538.42 134.955 1543.58 137.276C1548.75 139.605 1553.1 142.632 1556.61 146.335C1560.13 150.039 1562.77 154.224 1564.54 158.867C1566.3 163.518 1567.1 168.393 1566.92 173.502C1566.74 178.615 1565.47 183.781 1563.12 189.018C1560.82 194.115 1557.82 198.427 1554.12 201.95ZM1290.05 590.324C1288.29 588.572 1285.64 587.979 1283.34 588.907C1281.53 589.631 1279.45 590.786 1277.48 592.63C1275.1 594.852 1273.7 597.32 1272.87 599.403C1271.92 601.755 1272.5 604.442 1274.3 606.225L1299.19 630.919C1301.2 632.918 1304.3 633.345 1306.76 631.94C1308.25 631.085 1309.87 629.957 1311.45 628.459C1313.55 626.48 1315.03 624.386 1316.07 622.522C1317.43 620.07 1316.94 617.005 1314.95 615.026L1290.05 590.324ZM1331.43 596.215C1333.43 600.923 1334.43 605.767 1334.45 610.73C1334.46 613.298 1334.21 615.835 1333.67 618.337C1333.56 618.846 1333.44 619.346 1333.32 619.854C1332.85 621.675 1332.24 623.481 1331.47 625.275C1329.46 629.999 1326.48 634.346 1322.54 638.323C1318.55 642.343 1314.22 645.369 1309.53 647.386C1307.76 648.156 1305.96 648.776 1304.15 649.257C1303.81 649.342 1303.48 649.419 1303.14 649.492C1300.5 650.124 1297.8 650.436 1295.05 650.447C1290.09 650.466 1285.24 649.5 1280.51 647.54C1275.79 645.577 1271.42 642.608 1267.4 638.612C1263.38 634.623 1260.37 630.273 1258.37 625.568C1256.37 620.859 1255.37 616.023 1255.34 611.053C1255.33 606.083 1256.3 601.231 1258.25 596.515C1260.21 591.791 1263.18 587.41 1267.17 583.394C1271.16 579.367 1275.52 576.36 1280.22 574.369C1284.93 572.367 1289.77 571.362 1294.74 571.335C1299.71 571.324 1304.56 572.283 1309.28 574.246C1314 576.206 1318.4 579.205 1322.48 583.248C1326.44 587.186 1329.43 591.51 1331.43 596.215Z" fill="#15172A"/>
</g>
<mask id="mask2_2848_3318" style="mask-type:alpha" maskUnits="userSpaceOnUse" x="1443" y="287" width="594" height="439">
<rect x="2036.94" y="726" width="593.941" height="439" transform="rotate(-180 2036.94 726)" fill="#D9D9D9"/>
</mask>
<g mask="url(#mask2_2848_3318)">
</g>
<mask id="mask3_2848_3318" style="mask-type:alpha" maskUnits="userSpaceOnUse" x="1443" y="287" width="594" height="439">
<rect x="2036.94" y="726" width="593.941" height="439" transform="rotate(-180 2036.94 726)" fill="#D9D9D9"/>
</mask>
<g mask="url(#mask3_2848_3318)">
<path d="M1808.88 506.073L1808.96 506.33C1811.49 514.168 1814.03 522.027 1816.56 529.868C1816.63 530.038 1816.68 530.224 1816.73 530.379L1817.37 532.36C1817.83 533.795 1816.56 535.187 1815.12 534.89L1786.83 529.214C1785.71 528.934 1784.84 528.092 1784.54 527.002C1784.14 525.465 1785.12 524.294 1785.21 524.175C1785.28 524.106 1785.33 524.055 1785.39 523.989L1804.82 502.997C1805.83 501.892 1807.66 502.296 1808.12 503.731L1808.88 506.073ZM1623.56 336.69L1623.65 336.947C1626.18 344.788 1628.72 352.644 1631.25 360.487C1631.32 360.655 1631.37 360.846 1631.41 360.996L1632.05 362.98C1632.52 364.414 1631.25 365.803 1629.8 365.507L1601.52 359.833C1600.39 359.554 1599.53 358.712 1599.23 357.619C1598.83 356.082 1599.81 354.914 1599.89 354.792C1599.96 354.723 1600.01 354.672 1600.08 354.606L1619.51 333.614C1620.52 332.511 1622.34 332.916 1622.81 334.348L1623.56 336.69Z" fill="#15172A"/>
<path d="M1808.88 506.073L1808.96 506.33C1811.49 514.168 1814.03 522.027 1816.56 529.868C1816.63 530.038 1816.68 530.224 1816.73 530.379L1817.37 532.36C1817.83 533.795 1816.56 535.187 1815.12 534.89L1786.83 529.214C1785.71 528.934 1784.84 528.092 1784.54 527.002C1784.14 525.465 1785.12 524.294 1785.21 524.175C1785.28 524.106 1785.33 524.055 1785.39 523.989L1804.82 502.997C1805.83 501.892 1807.66 502.296 1808.12 503.731L1808.88 506.073ZM1623.56 336.69L1623.65 336.947C1626.18 344.788 1628.72 352.644 1631.25 360.487C1631.32 360.655 1631.37 360.846 1631.41 360.996L1632.05 362.98C1632.52 364.414 1631.25 365.803 1629.8 365.507L1601.52 359.833C1600.39 359.554 1599.53 358.712 1599.23 357.619C1598.83 356.082 1599.81 354.914 1599.89 354.792C1599.96 354.723 1600.01 354.672 1600.08 354.606L1619.51 333.614C1620.52 332.511 1622.34 332.916 1622.81 334.348L1623.56 336.69Z" fill="#15172A"/>
<path d="M1563.9 545.157L1563.98 545.414C1566.51 553.252 1569.06 561.111 1571.59 568.952C1571.65 569.122 1571.7 569.308 1571.75 569.463L1572.39 571.444C1572.86 572.879 1571.59 574.271 1570.14 573.974L1541.85 568.298C1540.73 568.018 1539.87 567.176 1539.57 566.086C1539.17 564.549 1540.14 563.378 1540.23 563.259C1540.3 563.19 1540.35 563.139 1540.42 563.073L1559.84 542.081C1560.85 540.976 1562.68 541.38 1563.15 542.815L1563.9 545.157ZM1378.59 375.774L1378.67 376.031C1381.2 383.872 1383.74 391.728 1386.27 399.571C1386.34 399.739 1386.39 399.93 1386.44 400.08L1387.07 402.064C1387.55 403.498 1386.27 404.887 1384.83 404.591L1356.54 398.917C1355.42 398.638 1354.55 397.796 1354.25 396.703C1353.85 395.166 1354.83 393.998 1354.92 393.876C1354.99 393.807 1355.04 393.756 1355.1 393.69L1374.53 372.698C1375.54 371.595 1377.36 372 1377.83 373.432L1378.59 375.774Z" fill="#15172A"/>
<path d="M1696.84 608.984C1717.7 605.599 1720.44 602.859 1723.82 581.997C1727.21 602.859 1729.95 605.599 1750.8 608.984C1729.95 612.364 1727.21 615.109 1723.82 635.967C1720.44 615.109 1717.7 612.364 1696.84 608.984ZM2050.74 266.313C2067.8 263.547 2070.04 261.304 2072.81 244.252C2075.57 261.304 2077.82 263.547 2094.87 266.313C2077.82 269.079 2075.57 271.318 2072.81 288.374C2070.04 271.318 2067.8 269.079 2050.74 266.313Z" fill="#15172A"/>
<path d="M1696.84 608.984C1717.7 605.599 1720.44 602.859 1723.82 581.997C1727.21 602.859 1729.95 605.599 1750.8 608.984C1729.95 612.364 1727.21 615.109 1723.82 635.967C1720.44 615.109 1717.7 612.364 1696.84 608.984ZM2050.74 266.313C2067.8 263.547 2070.04 261.304 2072.81 244.252C2075.57 261.304 2077.82 263.547 2094.87 266.313C2077.82 269.079 2075.57 271.318 2072.81 288.374C2070.04 271.318 2067.8 269.079 2050.74 266.313Z" fill="#15172A"/>
<path d="M1533.73 463.286C1517.32 460.623 1515.16 458.466 1512.5 442.053C1509.83 458.466 1507.68 460.623 1491.27 463.286C1507.68 465.945 1509.83 468.105 1512.5 484.516C1515.16 468.105 1517.32 465.945 1533.73 463.286ZM1255.28 193.676C1241.86 191.5 1240.1 189.735 1237.92 176.319C1235.74 189.735 1233.98 191.5 1220.56 193.676C1233.98 195.853 1235.74 197.614 1237.92 211.034C1240.1 197.614 1241.86 195.853 1255.28 193.676Z" fill="#15172A"/>
<path d="M1896.28 631.517C1897.25 633.658 1896.89 636.192 1895.31 637.926C1894.07 639.278 1892.36 640.739 1890.07 641.87C1887.33 643.229 1884.68 643.655 1882.56 643.702C1880.17 643.757 1877.98 642.361 1877 640.18L1863.41 609.99C1862.31 607.551 1862.96 604.669 1865.02 602.96C1866.27 601.924 1867.81 600.866 1869.65 599.961C1872.1 598.765 1874.44 598.151 1876.43 597.849C1879.05 597.453 1881.6 598.9 1882.69 601.317L1896.28 631.517ZM1904.78 592.982C1901.28 589.652 1897.33 587.159 1892.95 585.497C1890.68 584.639 1888.35 584.025 1885.96 583.669C1885.48 583.6 1884.99 583.538 1884.5 583.48C1882.74 583.294 1880.94 583.236 1879.1 583.32C1874.26 583.527 1869.43 584.723 1864.61 586.893C1859.73 589.085 1855.62 591.917 1852.28 595.392C1851.01 596.704 1849.87 598.086 1848.85 599.529C1848.66 599.798 1848.48 600.063 1848.3 600.339C1846.87 602.469 1845.7 604.752 1844.78 607.18C1843.12 611.561 1842.36 616.17 1842.53 620.997C1842.71 625.821 1843.89 630.667 1846.08 635.549C1848.28 640.423 1851.13 644.531 1854.62 647.857C1858.13 651.183 1862.07 653.669 1866.46 655.338C1870.84 656.995 1875.45 657.748 1880.27 657.581C1885.1 657.413 1889.96 656.236 1894.83 654.044C1899.71 651.845 1903.81 648.987 1907.13 645.49C1910.46 641.994 1912.95 638.042 1914.62 633.658C1916.28 629.267 1917.04 624.665 1916.87 619.841C1916.7 615.014 1915.5 610.136 1913.28 605.192C1911.11 600.379 1908.28 596.308 1904.78 592.982ZM1655.46 226.298C1653.79 227.952 1651.3 228.512 1649.12 227.636C1647.42 226.952 1645.45 225.862 1643.59 224.121C1641.35 222.023 1640.02 219.693 1639.24 217.726C1638.35 215.505 1638.89 212.968 1640.58 211.285L1664.09 187.97C1665.99 186.083 1668.91 185.68 1671.24 187.007C1672.64 187.813 1674.17 188.879 1675.67 190.293C1677.65 192.161 1679.04 194.139 1680.02 195.898C1681.31 198.213 1680.85 201.107 1678.97 202.975L1655.46 226.298ZM1694.53 220.736C1696.42 216.291 1697.36 211.718 1697.38 207.032C1697.39 204.608 1697.15 202.212 1696.64 199.849C1696.54 199.369 1696.43 198.897 1696.31 198.417C1695.87 196.698 1695.29 194.993 1694.57 193.299C1692.67 188.839 1689.86 184.735 1686.14 180.98C1682.37 177.185 1678.28 174.327 1673.85 172.423C1672.18 171.696 1670.48 171.11 1668.77 170.656C1668.45 170.576 1668.14 170.503 1667.82 170.434C1665.32 169.838 1662.78 169.544 1660.18 169.533C1655.5 169.515 1650.92 170.427 1646.46 172.277C1641.99 174.131 1637.87 176.934 1634.07 180.707C1630.28 184.473 1627.43 188.58 1625.55 193.023C1623.66 197.468 1622.71 202.034 1622.69 206.727C1622.68 211.42 1623.59 216 1625.43 220.453C1627.29 224.913 1630.09 229.05 1633.86 232.841C1637.63 236.643 1641.74 239.482 1646.18 241.362C1650.62 243.252 1655.2 244.201 1659.89 244.226C1664.58 244.237 1669.16 243.332 1673.62 241.478C1678.08 239.628 1682.22 236.796 1686.07 232.979C1689.82 229.261 1692.64 225.178 1694.53 220.736Z" fill="#15172A"/>
<path d="M1896.28 631.517C1897.25 633.658 1896.89 636.192 1895.31 637.926C1894.07 639.278 1892.36 640.739 1890.07 641.87C1887.33 643.229 1884.68 643.655 1882.56 643.702C1880.17 643.757 1877.98 642.361 1877 640.18L1863.41 609.99C1862.31 607.551 1862.96 604.669 1865.02 602.96C1866.27 601.924 1867.81 600.866 1869.65 599.961C1872.1 598.765 1874.44 598.151 1876.43 597.849C1879.05 597.453 1881.6 598.9 1882.69 601.317L1896.28 631.517ZM1904.78 592.982C1901.28 589.652 1897.33 587.159 1892.95 585.497C1890.68 584.639 1888.35 584.025 1885.96 583.669C1885.48 583.6 1884.99 583.538 1884.5 583.48C1882.74 583.294 1880.94 583.236 1879.1 583.32C1874.26 583.527 1869.43 584.723 1864.61 586.893C1859.73 589.085 1855.62 591.917 1852.28 595.392C1851.01 596.704 1849.87 598.086 1848.85 599.529C1848.66 599.798 1848.48 600.063 1848.3 600.339C1846.87 602.469 1845.7 604.752 1844.78 607.18C1843.12 611.561 1842.36 616.17 1842.53 620.997C1842.71 625.821 1843.89 630.667 1846.08 635.549C1848.28 640.423 1851.13 644.531 1854.62 647.857C1858.13 651.183 1862.07 653.669 1866.46 655.338C1870.84 656.995 1875.45 657.748 1880.27 657.581C1885.1 657.413 1889.96 656.236 1894.83 654.044C1899.71 651.845 1903.81 648.987 1907.13 645.49C1910.46 641.994 1912.95 638.042 1914.62 633.658C1916.28 629.267 1917.04 624.665 1916.87 619.841C1916.7 615.014 1915.5 610.136 1913.28 605.192C1911.11 600.379 1908.28 596.308 1904.78 592.982ZM1655.46 226.298C1653.79 227.952 1651.3 228.512 1649.12 227.636C1647.42 226.952 1645.45 225.862 1643.59 224.121C1641.35 222.023 1640.02 219.693 1639.24 217.726C1638.35 215.505 1638.89 212.968 1640.58 211.285L1664.09 187.97C1665.99 186.083 1668.91 185.68 1671.24 187.007C1672.64 187.813 1674.17 188.879 1675.67 190.293C1677.65 192.161 1679.04 194.139 1680.02 195.898C1681.31 198.213 1680.85 201.107 1678.97 202.975L1655.46 226.298ZM1694.53 220.736C1696.42 216.291 1697.36 211.718 1697.38 207.032C1697.39 204.608 1697.15 202.212 1696.64 199.849C1696.54 199.369 1696.43 198.897 1696.31 198.417C1695.87 196.698 1695.29 194.993 1694.57 193.299C1692.67 188.839 1689.86 184.735 1686.14 180.98C1682.37 177.185 1678.28 174.327 1673.85 172.423C1672.18 171.696 1670.48 171.11 1668.77 170.656C1668.45 170.576 1668.14 170.503 1667.82 170.434C1665.32 169.838 1662.78 169.544 1660.18 169.533C1655.5 169.515 1650.92 170.427 1646.46 172.277C1641.99 174.131 1637.87 176.934 1634.07 180.707C1630.28 184.473 1627.43 188.58 1625.55 193.023C1623.66 197.468 1622.71 202.034 1622.69 206.727C1622.68 211.42 1623.59 216 1625.43 220.453C1627.29 224.913 1630.09 229.05 1633.86 232.841C1637.63 236.643 1641.74 239.482 1646.18 241.362C1650.62 243.252 1655.2 244.201 1659.89 244.226C1664.58 244.237 1669.16 243.332 1673.62 241.478C1678.08 239.628 1682.22 236.796 1686.07 232.979C1689.82 229.261 1692.64 225.178 1694.53 220.736Z" fill="#15172A"/>
<path d="M1606.18 670.453C1605.16 672.72 1605.53 675.404 1607.21 677.24C1608.52 678.673 1610.33 680.22 1612.75 681.418C1615.67 682.858 1618.47 683.308 1620.71 683.358C1623.25 683.416 1625.56 681.938 1626.6 679.627L1640.99 647.652C1642.16 645.069 1641.47 642.016 1639.29 640.206C1637.97 639.109 1636.34 637.989 1634.38 637.03C1631.79 635.763 1629.32 635.113 1627.21 634.793C1624.43 634.374 1621.73 635.906 1620.58 638.466L1606.18 670.453ZM1597.18 629.638C1600.89 626.111 1605.07 623.47 1609.71 621.711C1612.11 620.802 1614.58 620.151 1617.11 619.774C1617.63 619.701 1618.14 619.635 1618.66 619.574C1620.52 619.377 1622.43 619.316 1624.38 619.404C1629.51 619.624 1634.62 620.89 1639.73 623.189C1644.89 625.511 1649.25 628.51 1652.78 632.191C1654.12 633.58 1655.34 635.043 1656.42 636.572C1656.62 636.857 1656.81 637.138 1657 637.43C1658.51 639.687 1659.75 642.104 1660.73 644.676C1662.49 649.316 1663.29 654.198 1663.11 659.311C1662.93 664.42 1661.67 669.552 1659.35 674.722C1657.02 679.885 1654 684.236 1650.3 687.759C1646.59 691.282 1642.41 693.915 1637.77 695.682C1633.12 697.438 1628.24 698.235 1623.13 698.058C1618.03 697.881 1612.88 696.633 1607.72 694.312C1602.54 691.982 1598.2 688.956 1594.69 685.252C1591.16 681.549 1588.52 677.364 1586.75 672.72C1585 668.07 1584.2 663.195 1584.38 658.086C1584.56 652.973 1585.82 647.806 1588.18 642.57C1590.47 637.473 1593.47 633.161 1597.18 629.638ZM1861.25 241.264C1863.01 243.016 1865.66 243.609 1867.96 242.681C1869.76 241.957 1871.85 240.802 1873.82 238.958C1876.19 236.736 1877.59 234.268 1878.43 232.185C1879.37 229.833 1878.8 227.146 1877 225.363L1852.11 200.668C1850.1 198.67 1847 198.243 1844.54 199.648C1843.05 200.503 1841.43 201.631 1839.84 203.129C1837.75 205.108 1836.27 207.202 1835.23 209.065C1833.87 211.518 1834.35 214.583 1836.34 216.562L1861.25 241.264ZM1819.87 235.373C1817.87 230.665 1816.86 225.821 1816.84 220.858C1816.83 218.29 1817.09 215.753 1817.63 213.251C1817.73 212.742 1817.85 212.242 1817.98 211.734C1818.45 209.913 1819.06 208.107 1819.83 206.313C1821.83 201.589 1824.81 197.242 1828.76 193.265C1832.74 189.245 1837.08 186.219 1841.77 184.202C1843.54 183.432 1845.33 182.812 1847.14 182.33C1847.48 182.246 1847.81 182.169 1848.15 182.096C1850.8 181.464 1853.5 181.152 1856.25 181.141C1861.21 181.121 1866.06 182.088 1870.78 184.048C1875.51 186.011 1879.87 188.98 1883.9 192.976C1887.92 196.965 1890.93 201.315 1892.93 206.02C1894.93 210.729 1895.93 215.564 1895.96 220.535C1895.97 225.505 1895 230.356 1893.05 235.073C1891.09 239.797 1888.11 244.178 1884.13 248.194C1880.13 252.221 1875.77 255.228 1871.08 257.219C1866.37 259.221 1861.52 260.226 1856.55 260.252C1851.59 260.264 1846.74 259.305 1842.02 257.342C1837.29 255.382 1832.9 252.383 1828.82 248.34C1824.85 244.402 1821.87 240.078 1819.87 235.373Z" fill="#15172A"/>
<path d="M1606.18 670.453C1605.16 672.72 1605.53 675.404 1607.21 677.24C1608.52 678.673 1610.33 680.22 1612.75 681.418C1615.67 682.858 1618.47 683.308 1620.71 683.358C1623.25 683.416 1625.56 681.938 1626.6 679.627L1640.99 647.652C1642.16 645.069 1641.47 642.016 1639.29 640.206C1637.97 639.109 1636.34 637.989 1634.38 637.03C1631.79 635.763 1629.32 635.113 1627.21 634.793C1624.43 634.374 1621.73 635.906 1620.58 638.466L1606.18 670.453ZM1597.18 629.638C1600.89 626.111 1605.07 623.47 1609.71 621.711C1612.11 620.802 1614.58 620.151 1617.11 619.774C1617.63 619.701 1618.14 619.635 1618.66 619.574C1620.52 619.377 1622.43 619.316 1624.38 619.404C1629.51 619.624 1634.62 620.89 1639.73 623.189C1644.89 625.511 1649.25 628.51 1652.78 632.191C1654.12 633.58 1655.34 635.043 1656.42 636.572C1656.62 636.857 1656.81 637.138 1657 637.43C1658.51 639.687 1659.75 642.104 1660.73 644.676C1662.49 649.316 1663.29 654.198 1663.11 659.311C1662.93 664.42 1661.67 669.552 1659.35 674.722C1657.02 679.885 1654 684.236 1650.3 687.759C1646.59 691.282 1642.41 693.915 1637.77 695.682C1633.12 697.438 1628.24 698.235 1623.13 698.058C1618.03 697.881 1612.88 696.633 1607.72 694.312C1602.54 691.982 1598.2 688.956 1594.69 685.252C1591.16 681.549 1588.52 677.364 1586.75 672.72C1585 668.07 1584.2 663.195 1584.38 658.086C1584.56 652.973 1585.82 647.806 1588.18 642.57C1590.47 637.473 1593.47 633.161 1597.18 629.638ZM1861.25 241.264C1863.01 243.016 1865.66 243.609 1867.96 242.681C1869.76 241.957 1871.85 240.802 1873.82 238.958C1876.19 236.736 1877.59 234.268 1878.43 232.185C1879.37 229.833 1878.8 227.146 1877 225.363L1852.11 200.668C1850.1 198.67 1847 198.243 1844.54 199.648C1843.05 200.503 1841.43 201.631 1839.84 203.129C1837.75 205.108 1836.27 207.202 1835.23 209.065C1833.87 211.518 1834.35 214.583 1836.34 216.562L1861.25 241.264ZM1819.87 235.373C1817.87 230.665 1816.86 225.821 1816.84 220.858C1816.83 218.29 1817.09 215.753 1817.63 213.251C1817.73 212.742 1817.85 212.242 1817.98 211.734C1818.45 209.913 1819.06 208.107 1819.83 206.313C1821.83 201.589 1824.81 197.242 1828.76 193.265C1832.74 189.245 1837.08 186.219 1841.77 184.202C1843.54 183.432 1845.33 182.812 1847.14 182.33C1847.48 182.246 1847.81 182.169 1848.15 182.096C1850.8 181.464 1853.5 181.152 1856.25 181.141C1861.21 181.121 1866.06 182.088 1870.78 184.048C1875.51 186.011 1879.87 188.98 1883.9 192.976C1887.92 196.965 1890.93 201.315 1892.93 206.02C1894.93 210.729 1895.93 215.564 1895.96 220.535C1895.97 225.505 1895 230.356 1893.05 235.073C1891.09 239.797 1888.11 244.178 1884.13 248.194C1880.13 252.221 1875.77 255.228 1871.08 257.219C1866.37 259.221 1861.52 260.226 1856.55 260.252C1851.59 260.264 1846.74 259.305 1842.02 257.342C1837.29 255.382 1832.9 252.383 1828.82 248.34C1824.85 244.402 1821.87 240.078 1819.87 235.373Z" fill="#15172A"/>
<path d="M1643.87 490.386C1642.85 492.654 1643.22 495.338 1644.9 497.174C1646.21 498.606 1648.02 500.154 1650.44 501.351C1653.35 502.791 1656.16 503.242 1658.4 503.292C1660.93 503.35 1663.25 501.871 1664.29 499.561L1678.68 467.586C1679.85 465.003 1679.16 461.95 1676.98 460.14C1675.66 459.043 1674.03 457.922 1672.07 456.964C1669.48 455.697 1667.01 455.046 1664.9 454.727C1662.12 454.307 1659.42 455.839 1658.27 458.4L1643.87 490.386ZM1634.87 449.571C1638.58 446.045 1642.76 443.404 1647.4 441.644C1649.8 440.736 1652.27 440.085 1654.8 439.708C1655.31 439.634 1655.82 439.569 1656.34 439.507C1658.21 439.311 1660.12 439.249 1662.07 439.338C1667.19 439.557 1672.31 440.824 1677.42 443.123C1682.58 445.444 1686.94 448.443 1690.47 452.124C1691.81 453.514 1693.02 454.977 1694.11 456.506C1694.31 456.79 1694.49 457.071 1694.68 457.364C1696.2 459.62 1697.44 462.038 1698.42 464.61C1700.18 469.249 1700.97 474.131 1700.79 479.244C1700.61 484.353 1699.36 489.485 1697.04 494.656C1694.71 499.819 1691.69 504.17 1687.99 507.692C1684.28 511.215 1680.1 513.849 1675.46 515.616C1670.81 517.372 1665.93 518.169 1660.82 517.991C1655.71 517.814 1650.57 516.567 1645.41 514.245C1640.23 511.916 1635.89 508.89 1632.37 505.186C1628.85 501.482 1626.21 497.297 1624.44 492.654C1622.69 488.003 1621.89 483.129 1622.06 478.02C1622.24 472.907 1623.51 467.74 1625.87 462.504C1628.16 457.406 1631.16 453.094 1634.87 449.571ZM1898.93 61.1974C1900.7 62.9492 1903.34 63.5421 1905.65 62.6142C1907.45 61.8904 1909.54 60.7354 1911.51 58.8912C1913.88 56.6697 1915.28 54.2018 1916.12 52.1189C1917.06 49.7665 1916.49 47.0791 1914.69 45.2965L1889.79 20.602C1887.78 18.6038 1884.69 18.1765 1882.23 19.5818C1880.74 20.4365 1879.12 21.5646 1877.53 23.0622C1875.43 25.0412 1873.96 27.1356 1872.92 28.9991C1871.55 31.4516 1872.04 34.5163 1874.03 36.4952L1898.93 61.1974ZM1857.56 55.3068C1855.56 50.5981 1854.55 45.7547 1854.53 40.7919C1854.52 38.2239 1854.78 35.6867 1855.31 33.1841C1855.42 32.6759 1855.54 32.1754 1855.66 31.6672C1856.14 29.8461 1856.75 28.0404 1857.52 26.2463C1859.52 21.5222 1862.5 17.1754 1866.44 13.1983C1870.43 9.17878 1874.77 6.15261 1879.45 4.13516C1881.23 3.36514 1883.02 2.74528 1884.83 2.26402C1885.17 2.17932 1885.5 2.10231 1885.84 2.02916C1888.49 1.39775 1891.18 1.08589 1893.93 1.07434C1898.9 1.05509 1903.75 2.02146 1908.47 3.98116C1913.2 5.94471 1917.56 8.91313 1921.58 12.9095C1925.6 16.8982 1928.62 21.2488 1930.62 25.9537C1932.62 30.6623 1933.62 35.498 1933.64 40.4685C1933.65 45.439 1932.69 50.2901 1930.74 55.0064C1928.77 59.7305 1925.8 64.1119 1921.82 68.1276C1917.82 72.1548 1913.46 75.1617 1908.76 77.1522C1904.06 79.1542 1899.21 80.1591 1894.24 80.186C1889.27 80.1976 1884.43 79.2389 1879.7 77.2754C1874.98 75.3157 1870.59 72.3165 1866.51 68.2739C1862.54 64.3352 1859.56 60.0116 1857.56 55.3068Z" fill="#15172A"/>
<path d="M1643.87 490.386C1642.85 492.654 1643.22 495.338 1644.9 497.174C1646.21 498.606 1648.02 500.154 1650.44 501.351C1653.35 502.791 1656.16 503.242 1658.4 503.292C1660.93 503.35 1663.25 501.871 1664.29 499.561L1678.68 467.586C1679.85 465.003 1679.16 461.95 1676.98 460.14C1675.66 459.043 1674.03 457.922 1672.07 456.964C1669.48 455.697 1667.01 455.046 1664.9 454.727C1662.12 454.307 1659.42 455.839 1658.27 458.4L1643.87 490.386ZM1634.87 449.571C1638.58 446.045 1642.76 443.404 1647.4 441.644C1649.8 440.736 1652.27 440.085 1654.8 439.708C1655.31 439.634 1655.82 439.569 1656.34 439.507C1658.21 439.311 1660.12 439.249 1662.07 439.338C1667.19 439.557 1672.31 440.824 1677.42 443.123C1682.58 445.444 1686.94 448.443 1690.47 452.124C1691.81 453.514 1693.02 454.977 1694.11 456.506C1694.31 456.79 1694.49 457.071 1694.68 457.364C1696.2 459.62 1697.44 462.038 1698.42 464.61C1700.18 469.249 1700.97 474.131 1700.79 479.244C1700.61 484.353 1699.36 489.485 1697.04 494.656C1694.71 499.819 1691.69 504.17 1687.99 507.692C1684.28 511.215 1680.1 513.849 1675.46 515.616C1670.81 517.372 1665.93 518.169 1660.82 517.991C1655.71 517.814 1650.57 516.567 1645.41 514.245C1640.23 511.916 1635.89 508.89 1632.37 505.186C1628.85 501.482 1626.21 497.297 1624.44 492.654C1622.69 488.003 1621.89 483.129 1622.06 478.02C1622.24 472.907 1623.51 467.74 1625.87 462.504C1628.16 457.406 1631.16 453.094 1634.87 449.571ZM1898.93 61.1974C1900.7 62.9492 1903.34 63.5421 1905.65 62.6142C1907.45 61.8904 1909.54 60.7354 1911.51 58.8912C1913.88 56.6697 1915.28 54.2018 1916.12 52.1189C1917.06 49.7665 1916.49 47.0791 1914.69 45.2965L1889.79 20.602C1887.78 18.6038 1884.69 18.1765 1882.23 19.5818C1880.74 20.4365 1879.12 21.5646 1877.53 23.0622C1875.43 25.0412 1873.96 27.1356 1872.92 28.9991C1871.55 31.4516 1872.04 34.5163 1874.03 36.4952L1898.93 61.1974ZM1857.56 55.3068C1855.56 50.5981 1854.55 45.7547 1854.53 40.7919C1854.52 38.2239 1854.78 35.6867 1855.31 33.1841C1855.42 32.6759 1855.54 32.1754 1855.66 31.6672C1856.14 29.8461 1856.75 28.0404 1857.52 26.2463C1859.52 21.5222 1862.5 17.1754 1866.44 13.1983C1870.43 9.17878 1874.77 6.15261 1879.45 4.13516C1881.23 3.36514 1883.02 2.74528 1884.83 2.26402C1885.17 2.17932 1885.5 2.10231 1885.84 2.02916C1888.49 1.39775 1891.18 1.08589 1893.93 1.07434C1898.9 1.05509 1903.75 2.02146 1908.47 3.98116C1913.2 5.94471 1917.56 8.91313 1921.58 12.9095C1925.6 16.8982 1928.62 21.2488 1930.62 25.9537C1932.62 30.6623 1933.62 35.498 1933.64 40.4685C1933.65 45.439 1932.69 50.2901 1930.74 55.0064C1928.77 59.7305 1925.8 64.1119 1921.82 68.1276C1917.82 72.1548 1913.46 75.1617 1908.76 77.1522C1904.06 79.1542 1899.21 80.1591 1894.24 80.186C1889.27 80.1976 1884.43 79.2389 1879.7 77.2754C1874.98 75.3157 1870.59 72.3165 1866.51 68.2739C1862.54 64.3352 1859.56 60.0116 1857.56 55.3068Z" fill="#15172A"/>
</g>
<mask id="mask4_2848_3318" style="mask-type:alpha" maskUnits="userSpaceOnUse" x="-352" y="-234" width="594" height="439">
<rect x="-352" y="-234" width="593.941" height="439" fill="#D9D9D9"/>
</mask>
<g mask="url(#mask4_2848_3318)">
</g>
<mask id="mask5_2848_3318" style="mask-type:alpha" maskUnits="userSpaceOnUse" x="-352" y="-234" width="594" height="439">
<rect x="-352" y="-234" width="593.941" height="439" fill="#D9D9D9"/>
</mask>
<g mask="url(#mask5_2848_3318)">
<path d="M-123.939 -14.0731L-124.022 -14.33C-126.549 -22.1685 -129.097 -30.0268 -131.626 -37.8678C-131.691 -38.0379 -131.742 -38.2239 -131.791 -38.379L-132.428 -40.3603C-132.895 -41.7946 -131.627 -43.1866 -130.179 -42.8899L-101.892 -37.2138C-100.771 -36.934 -99.9061 -36.0923 -99.6057 -35.002C-99.2048 -33.4651 -100.182 -32.2942 -100.268 -32.1755C-100.338 -32.1062 -100.39 -32.0555 -100.457 -31.9888L-119.883 -10.9972C-120.894 -9.892 -122.719 -10.2964 -123.185 -11.7306L-123.939 -14.0731ZM61.375 155.31L61.2915 155.053C58.7621 147.212 56.2167 139.356 53.6898 131.513C53.6222 131.345 53.5718 131.154 53.5228 131.004L52.8877 129.02C52.4158 127.586 53.6867 126.197 55.1348 126.493L83.4186 132.167C84.5446 132.446 85.4099 133.288 85.7078 134.381C86.1087 135.918 85.1284 137.086 85.0452 137.208C84.9756 137.277 84.9234 137.328 84.8563 137.394L65.4304 158.386C64.417 159.489 62.5973 159.084 62.1281 157.652L61.375 155.31Z" fill="#15172A"/>
<path d="M-123.939 -14.0731L-124.022 -14.33C-126.549 -22.1685 -129.097 -30.0268 -131.626 -37.8678C-131.691 -38.0379 -131.742 -38.2239 -131.791 -38.379L-132.428 -40.3603C-132.895 -41.7946 -131.627 -43.1866 -130.179 -42.8899L-101.892 -37.2138C-100.771 -36.934 -99.9061 -36.0923 -99.6057 -35.002C-99.2048 -33.4651 -100.182 -32.2942 -100.268 -32.1755C-100.338 -32.1062 -100.39 -32.0555 -100.457 -31.9888L-119.883 -10.9972C-120.894 -9.892 -122.719 -10.2964 -123.185 -11.7306L-123.939 -14.0731ZM61.375 155.31L61.2915 155.053C58.7621 147.212 56.2167 139.356 53.6898 131.513C53.6222 131.345 53.5718 131.154 53.5228 131.004L52.8877 129.02C52.4158 127.586 53.6867 126.197 55.1348 126.493L83.4186 132.167C84.5446 132.446 85.4099 133.288 85.7078 134.381C86.1087 135.918 85.1284 137.086 85.0452 137.208C84.9756 137.277 84.9234 137.328 84.8563 137.394L65.4304 158.386C64.417 159.489 62.5973 159.084 62.1281 157.652L61.375 155.31Z" fill="#15172A"/>
<path d="M121.038 -53.1571L120.954 -53.4139C118.428 -61.2525 115.88 -69.1108 113.35 -76.9518C113.285 -77.1218 113.235 -77.3078 113.186 -77.463L112.548 -79.4443C112.082 -80.8786 113.35 -82.2706 114.798 -81.9739L143.084 -76.2978C144.205 -76.018 145.07 -75.1763 145.371 -74.086C145.772 -72.5491 144.794 -71.3782 144.708 -71.2595C144.639 -71.1902 144.586 -71.1395 144.519 -71.0728L125.093 -50.0812C124.083 -48.976 122.258 -49.3804 121.791 -50.8146L121.038 -53.1571ZM306.352 116.226L306.268 115.969C303.739 108.128 301.193 100.272 298.666 92.4287C298.599 92.2613 298.548 92.0701 298.499 91.9201L297.864 89.9362C297.392 88.5021 298.663 87.1126 300.111 87.4092L328.395 93.0829C329.521 93.3625 330.386 94.2041 330.684 95.2971C331.085 96.834 330.105 98.0024 330.022 98.1237C329.952 98.193 329.9 98.2436 329.833 98.3103L310.407 119.302C309.394 120.405 307.574 120 307.105 118.568L306.352 116.226Z" fill="#15172A"/>
<path d="M151.21 28.7144C167.621 31.3771 169.78 33.5335 172.44 49.9473C175.103 33.5335 177.259 31.3771 193.67 28.7144C177.259 26.0546 175.103 23.8952 172.44 7.48438C169.78 23.8952 167.621 26.0546 151.21 28.7144ZM429.66 298.324C443.079 300.5 444.841 302.265 447.017 315.681C449.194 302.265 450.959 300.5 464.375 298.324C450.959 296.147 449.194 294.386 447.017 280.966C444.841 294.386 443.079 296.147 429.66 298.324Z" fill="#15172A"/>
<path d="M-211.341 -139.517C-212.308 -141.658 -211.956 -144.192 -210.371 -145.926C-209.135 -147.278 -207.423 -148.739 -205.136 -149.87C-202.388 -151.229 -199.742 -151.655 -197.623 -151.702C-195.231 -151.757 -193.046 -150.361 -192.065 -148.18L-178.477 -117.99C-177.375 -115.551 -178.026 -112.669 -180.083 -110.96C-181.33 -109.924 -182.868 -108.866 -184.714 -107.961C-187.161 -106.765 -189.498 -106.151 -191.49 -105.849C-194.111 -105.453 -196.663 -106.9 -197.75 -109.317L-211.341 -139.517ZM-219.84 -100.982C-216.34 -97.6522 -212.388 -95.1585 -208.008 -93.4973C-205.743 -92.6394 -203.413 -92.0251 -201.021 -91.6688C-200.538 -91.5998 -200.054 -91.538 -199.564 -91.4798C-197.801 -91.2944 -195.998 -91.2363 -194.158 -91.3199C-189.32 -91.5271 -184.493 -92.723 -179.669 -94.8932C-174.794 -97.0851 -170.679 -99.9168 -167.342 -103.392C-166.077 -104.704 -164.932 -106.086 -163.911 -107.529C-163.722 -107.798 -163.544 -108.063 -163.366 -108.339C-161.934 -110.469 -160.763 -112.752 -159.84 -115.18C-158.178 -119.561 -157.426 -124.17 -157.597 -128.997C-157.768 -133.821 -158.949 -138.667 -161.145 -143.549C-163.34 -148.423 -166.19 -152.531 -169.687 -155.857C-173.188 -159.183 -177.135 -161.669 -181.519 -163.338C-185.907 -164.995 -190.516 -165.748 -195.336 -165.581C-200.16 -165.413 -205.02 -164.236 -209.891 -162.044C-214.777 -159.845 -218.877 -156.987 -222.196 -153.49C-225.522 -149.994 -228.015 -146.042 -229.684 -141.658C-231.342 -137.267 -232.098 -132.665 -231.93 -127.841C-231.76 -123.014 -230.564 -118.136 -228.339 -113.192C-226.172 -108.379 -223.341 -104.308 -219.84 -100.982ZM29.4783 265.702C31.1432 264.048 33.6405 263.488 35.8179 264.364C37.5191 265.048 39.4893 266.138 41.3504 267.879C43.5896 269.977 44.9128 272.307 45.7016 274.274C46.5922 276.495 46.0506 279.032 44.353 280.715L20.8486 304.03C18.9511 305.917 16.0249 306.32 13.7021 304.993C12.2953 304.187 10.7686 303.121 9.27096 301.707C7.28984 299.839 5.89763 297.861 4.91252 296.102C3.62571 293.787 4.08736 290.893 5.96669 289.025L29.4783 265.702ZM-9.58777 271.264C-11.478 275.709 -12.4268 280.282 -12.4449 284.968C-12.4558 287.392 -12.2123 289.788 -11.707 292.151C-11.6052 292.631 -11.4925 293.103 -11.3762 293.583C-10.9291 295.302 -10.3511 297.007 -9.62775 298.701C-7.73388 303.161 -4.92034 307.265 -1.19803 311.02C2.5679 314.815 6.66098 317.673 11.0849 319.577C12.7606 320.304 14.4546 320.89 16.163 321.344C16.4829 321.424 16.7955 321.497 17.1154 321.566C19.6127 322.162 22.1609 322.456 24.7563 322.467C29.442 322.485 34.0221 321.573 38.4824 319.723C42.9426 317.869 47.0648 315.066 50.8634 311.293C54.6584 307.527 57.5047 303.42 59.3913 298.977C61.2815 294.532 62.223 289.966 62.2484 285.273C62.2594 280.58 61.347 276 59.504 271.547C57.6501 267.087 54.8438 262.95 51.0815 259.159C47.3083 255.357 43.1934 252.518 38.7586 250.638C34.3129 248.748 29.74 247.799 25.0472 247.774C20.3579 247.763 15.7814 248.668 11.3211 250.522C6.8609 252.372 2.71331 255.204 -1.13623 259.021C-4.88399 262.739 -7.70117 266.822 -9.58777 271.264Z" fill="#15172A"/>
<path d="M-211.341 -139.517C-212.308 -141.658 -211.956 -144.192 -210.371 -145.926C-209.135 -147.278 -207.423 -148.739 -205.136 -149.87C-202.388 -151.229 -199.742 -151.655 -197.623 -151.702C-195.231 -151.757 -193.046 -150.361 -192.065 -148.18L-178.477 -117.99C-177.375 -115.551 -178.026 -112.669 -180.083 -110.96C-181.33 -109.924 -182.868 -108.866 -184.714 -107.961C-187.161 -106.765 -189.498 -106.151 -191.49 -105.849C-194.111 -105.453 -196.663 -106.9 -197.75 -109.317L-211.341 -139.517ZM-219.84 -100.982C-216.34 -97.6522 -212.388 -95.1585 -208.008 -93.4973C-205.743 -92.6394 -203.413 -92.0251 -201.021 -91.6688C-200.538 -91.5998 -200.054 -91.538 -199.564 -91.4798C-197.801 -91.2944 -195.998 -91.2363 -194.158 -91.3199C-189.32 -91.5271 -184.493 -92.723 -179.669 -94.8932C-174.794 -97.0851 -170.679 -99.9168 -167.342 -103.392C-166.077 -104.704 -164.932 -106.086 -163.911 -107.529C-163.722 -107.798 -163.544 -108.063 -163.366 -108.339C-161.934 -110.469 -160.763 -112.752 -159.84 -115.18C-158.178 -119.561 -157.426 -124.17 -157.597 -128.997C-157.768 -133.821 -158.949 -138.667 -161.145 -143.549C-163.34 -148.423 -166.19 -152.531 -169.687 -155.857C-173.188 -159.183 -177.135 -161.669 -181.519 -163.338C-185.907 -164.995 -190.516 -165.748 -195.336 -165.581C-200.16 -165.413 -205.02 -164.236 -209.891 -162.044C-214.777 -159.845 -218.877 -156.987 -222.196 -153.49C-225.522 -149.994 -228.015 -146.042 -229.684 -141.658C-231.342 -137.267 -232.098 -132.665 -231.93 -127.841C-231.76 -123.014 -230.564 -118.136 -228.339 -113.192C-226.172 -108.379 -223.341 -104.308 -219.84 -100.982ZM29.4783 265.702C31.1432 264.048 33.6405 263.488 35.8179 264.364C37.5191 265.048 39.4893 266.138 41.3504 267.879C43.5896 269.977 44.9128 272.307 45.7016 274.274C46.5922 276.495 46.0506 279.032 44.353 280.715L20.8486 304.03C18.9511 305.917 16.0249 306.32 13.7021 304.993C12.2953 304.187 10.7686 303.121 9.27096 301.707C7.28984 299.839 5.89763 297.861 4.91252 296.102C3.62571 293.787 4.08736 290.893 5.96669 289.025L29.4783 265.702ZM-9.58777 271.264C-11.478 275.709 -12.4268 280.282 -12.4449 284.968C-12.4558 287.392 -12.2123 289.788 -11.707 292.151C-11.6052 292.631 -11.4925 293.103 -11.3762 293.583C-10.9291 295.302 -10.3511 297.007 -9.62775 298.701C-7.73388 303.161 -4.92034 307.265 -1.19803 311.02C2.5679 314.815 6.66098 317.673 11.0849 319.577C12.7606 320.304 14.4546 320.89 16.163 321.344C16.4829 321.424 16.7955 321.497 17.1154 321.566C19.6127 322.162 22.1609 322.456 24.7563 322.467C29.442 322.485 34.0221 321.573 38.4824 319.723C42.9426 317.869 47.0648 315.066 50.8634 311.293C54.6584 307.527 57.5047 303.42 59.3913 298.977C61.2815 294.532 62.223 289.966 62.2484 285.273C62.2594 280.58 61.347 276 59.504 271.547C57.6501 267.087 54.8438 262.95 51.0815 259.159C47.3083 255.357 43.1934 252.518 38.7586 250.638C34.3129 248.748 29.74 247.799 25.0472 247.774C20.3579 247.763 15.7814 248.668 11.3211 250.522C6.8609 252.372 2.71331 255.204 -1.13623 259.021C-4.88399 262.739 -7.70117 266.822 -9.58777 271.264Z" fill="#15172A"/>
<path d="M78.755 -178.453C79.7791 -180.72 79.4056 -183.404 77.727 -185.24C76.4179 -186.673 74.6046 -188.22 72.1828 -189.418C69.2722 -190.858 66.4693 -191.308 64.2247 -191.358C61.6913 -191.416 59.3774 -189.938 58.3379 -187.627L43.9463 -155.652C42.7797 -153.069 43.4689 -150.016 45.648 -148.206C46.9686 -147.109 48.5972 -145.989 50.553 -145.03C53.1441 -143.763 55.6198 -143.113 57.7296 -142.793C60.5055 -142.374 63.2083 -143.906 64.3595 -146.466L78.755 -178.453ZM87.7565 -137.638C84.0488 -134.111 79.8638 -131.47 75.2244 -129.711C72.8258 -128.802 70.3579 -128.151 67.8245 -127.774C67.3125 -127.701 66.8004 -127.635 66.2807 -127.574C64.4134 -127.377 62.5037 -127.316 60.5556 -127.404C55.4311 -127.624 50.3182 -128.89 45.2091 -131.189C40.0461 -133.511 35.6878 -136.51 32.1535 -140.191C30.8136 -141.58 29.6008 -143.043 28.519 -144.572C28.3188 -144.857 28.1301 -145.138 27.9415 -145.43C26.4245 -147.687 25.1848 -150.104 24.2069 -152.676C22.4474 -157.316 21.6504 -162.198 21.8314 -167.311C22.0123 -172.42 23.2636 -177.552 25.589 -182.722C27.9145 -187.885 30.933 -192.236 34.6368 -195.759C38.3444 -199.282 42.5256 -201.915 47.1688 -203.682C51.8159 -205.438 56.6978 -206.235 61.803 -206.058C66.9121 -205.881 72.0596 -204.633 77.2188 -202.312C82.3933 -199.982 86.7362 -196.956 90.2513 -193.252C93.7742 -189.549 96.4153 -185.364 98.1825 -180.72C99.9382 -176.07 100.739 -171.195 100.562 -166.086C100.381 -160.973 99.1142 -155.806 96.758 -150.57C94.4633 -145.473 91.4641 -141.161 87.7565 -137.638ZM-176.31 250.736C-178.073 248.984 -180.718 248.391 -183.024 249.319C-184.826 250.043 -186.913 251.198 -188.884 253.042C-191.256 255.264 -192.657 257.732 -193.493 259.815C-194.436 262.167 -193.862 264.854 -192.064 266.637L-167.17 291.332C-165.16 293.33 -162.061 293.757 -159.6 292.352C-158.11 291.497 -156.493 290.369 -154.907 288.871C-152.809 286.892 -151.334 284.798 -150.291 282.935C-148.928 280.482 -149.417 277.417 -151.407 275.438L-176.31 250.736ZM-134.933 256.627C-132.931 261.335 -131.926 266.179 -131.907 271.142C-131.895 273.71 -132.153 276.247 -132.688 278.749C-132.796 279.258 -132.915 279.758 -133.039 280.266C-133.512 282.087 -134.124 283.893 -134.89 285.687C-136.896 290.411 -139.876 294.758 -143.819 298.735C-147.807 302.755 -152.143 305.781 -156.828 307.798C-158.603 308.568 -160.397 309.188 -162.207 309.67C-162.546 309.754 -162.877 309.831 -163.216 309.904C-165.861 310.536 -168.559 310.848 -171.308 310.859C-176.271 310.879 -181.122 309.912 -185.846 307.952C-190.57 305.989 -194.936 303.02 -198.96 299.024C-202.979 295.035 -205.994 290.685 -207.992 285.98C-209.994 281.271 -210.991 276.436 -211.018 271.465C-211.03 266.495 -210.063 261.644 -208.111 256.927C-206.148 252.203 -203.176 247.822 -199.191 243.806C-195.194 239.779 -190.836 236.772 -186.139 234.781C-181.43 232.779 -176.587 231.774 -171.616 231.748C-166.65 231.736 -161.803 232.695 -157.079 234.658C-152.354 236.618 -147.962 239.617 -143.884 243.66C-139.915 247.598 -136.931 251.922 -134.933 256.627Z" fill="#15172A"/>
<path d="M78.755 -178.453C79.7791 -180.72 79.4056 -183.404 77.727 -185.24C76.4179 -186.673 74.6046 -188.22 72.1828 -189.418C69.2722 -190.858 66.4693 -191.308 64.2247 -191.358C61.6913 -191.416 59.3774 -189.938 58.3379 -187.627L43.9463 -155.652C42.7797 -153.069 43.4689 -150.016 45.648 -148.206C46.9686 -147.109 48.5972 -145.989 50.553 -145.03C53.1441 -143.763 55.6198 -143.113 57.7296 -142.793C60.5055 -142.374 63.2083 -143.906 64.3595 -146.466L78.755 -178.453ZM87.7565 -137.638C84.0488 -134.111 79.8638 -131.47 75.2244 -129.711C72.8258 -128.802 70.3579 -128.151 67.8245 -127.774C67.3125 -127.701 66.8004 -127.635 66.2807 -127.574C64.4134 -127.377 62.5037 -127.316 60.5556 -127.404C55.4311 -127.624 50.3182 -128.89 45.2091 -131.189C40.0461 -133.511 35.6878 -136.51 32.1535 -140.191C30.8136 -141.58 29.6008 -143.043 28.519 -144.572C28.3188 -144.857 28.1301 -145.138 27.9415 -145.43C26.4245 -147.687 25.1848 -150.104 24.2069 -152.676C22.4474 -157.316 21.6504 -162.198 21.8314 -167.311C22.0123 -172.42 23.2636 -177.552 25.589 -182.722C27.9145 -187.885 30.933 -192.236 34.6368 -195.759C38.3444 -199.282 42.5256 -201.915 47.1688 -203.682C51.8159 -205.438 56.6978 -206.235 61.803 -206.058C66.9121 -205.881 72.0596 -204.633 77.2188 -202.312C82.3933 -199.982 86.7362 -196.956 90.2513 -193.252C93.7742 -189.549 96.4153 -185.364 98.1825 -180.72C99.9382 -176.07 100.739 -171.195 100.562 -166.086C100.381 -160.973 99.1142 -155.806 96.758 -150.57C94.4633 -145.473 91.4641 -141.161 87.7565 -137.638ZM-176.31 250.736C-178.073 248.984 -180.718 248.391 -183.024 249.319C-184.826 250.043 -186.913 251.198 -188.884 253.042C-191.256 255.264 -192.657 257.732 -193.493 259.815C-194.436 262.167 -193.862 264.854 -192.064 266.637L-167.17 291.332C-165.16 293.33 -162.061 293.757 -159.6 292.352C-158.11 291.497 -156.493 290.369 -154.907 288.871C-152.809 286.892 -151.334 284.798 -150.291 282.935C-148.928 280.482 -149.417 277.417 -151.407 275.438L-176.31 250.736ZM-134.933 256.627C-132.931 261.335 -131.926 266.179 -131.907 271.142C-131.895 273.71 -132.153 276.247 -132.688 278.749C-132.796 279.258 -132.915 279.758 -133.039 280.266C-133.512 282.087 -134.124 283.893 -134.89 285.687C-136.896 290.411 -139.876 294.758 -143.819 298.735C-147.807 302.755 -152.143 305.781 -156.828 307.798C-158.603 308.568 -160.397 309.188 -162.207 309.67C-162.546 309.754 -162.877 309.831 -163.216 309.904C-165.861 310.536 -168.559 310.848 -171.308 310.859C-176.271 310.879 -181.122 309.912 -185.846 307.952C-190.57 305.989 -194.936 303.02 -198.96 299.024C-202.979 295.035 -205.994 290.685 -207.992 285.98C-209.994 281.271 -210.991 276.436 -211.018 271.465C-211.03 266.495 -210.063 261.644 -208.111 256.927C-206.148 252.203 -203.176 247.822 -199.191 243.806C-195.194 239.779 -190.836 236.772 -186.139 234.781C-181.43 232.779 -176.587 231.774 -171.616 231.748C-166.65 231.736 -161.803 232.695 -157.079 234.658C-152.354 236.618 -147.962 239.617 -143.884 243.66C-139.915 247.598 -136.931 251.922 -134.933 256.627Z" fill="#15172A"/>
<path d="M41.0675 1.61369C42.0916 -0.654012 41.7181 -3.33753 40.0395 -5.17402C38.7304 -6.60625 36.9171 -8.15399 34.4953 -9.35137C31.5847 -10.7913 28.7818 -11.2418 26.5372 -11.2918C24.0038 -11.3496 21.6899 -9.87113 20.6504 -7.56108L6.25878 24.4139C5.0922 26.9973 5.78137 30.0505 7.96052 31.86C9.2811 32.9573 10.9097 34.0777 12.8655 35.0363C15.4566 36.303 17.9323 36.9537 20.0421 37.2732C22.818 37.6929 25.5208 36.1606 26.672 33.6002L41.0675 1.61369ZM50.069 42.4285C46.3613 45.9552 42.1763 48.5964 37.5369 50.3558C35.1383 51.2645 32.6704 51.9151 30.137 52.2924C29.625 52.3656 29.1129 52.431 28.5932 52.4926C26.7259 52.689 24.8162 52.7506 22.8681 52.662C17.7436 52.4426 12.6307 51.1759 7.52161 48.8774C2.35864 46.5558 -1.99966 43.5566 -5.53405 39.8759C-6.87388 38.486 -8.08666 37.023 -9.16853 35.4945C-9.36874 35.2096 -9.55739 34.9285 -9.74605 34.6359C-11.263 32.3798 -12.5027 29.9619 -13.4806 27.3901C-15.2401 22.7507 -16.0371 17.8688 -15.8561 12.7559C-15.6752 7.64678 -14.4239 2.51461 -12.0985 -2.65606C-9.773 -7.81903 -6.75452 -12.1696 -3.05074 -15.6925C0.6569 -19.2153 4.83809 -21.8488 9.4813 -23.616C14.1284 -25.3716 19.0103 -26.1686 24.1155 -25.9915C29.2246 -25.8144 34.3721 -24.5669 39.5313 -22.2453C44.7058 -19.916 49.0487 -16.8898 52.5638 -13.1861C56.0867 -9.48227 58.7278 -5.29722 60.495 -0.654012C62.2507 3.9969 63.0515 8.87111 62.8744 13.9802C62.6934 19.0931 61.4267 24.2599 59.0705 29.4961C56.7758 34.5936 53.7766 38.9057 50.069 42.4285ZM-213.997 430.803C-215.761 429.051 -218.406 428.458 -220.712 429.386C-222.514 430.11 -224.6 431.265 -226.572 433.109C-228.943 435.33 -230.345 437.798 -231.18 439.881C-232.123 442.234 -231.55 444.921 -229.752 446.703L-204.857 471.398C-202.847 473.396 -199.748 473.824 -197.288 472.418C-195.798 471.564 -194.181 470.435 -192.595 468.938C-190.496 466.959 -189.022 464.864 -187.978 463.001C-186.615 460.548 -187.104 457.484 -189.095 455.505L-213.997 430.803ZM-172.62 436.693C-170.618 441.402 -169.613 446.245 -169.594 451.208C-169.583 453.776 -169.841 456.313 -170.376 458.816C-170.483 459.324 -170.603 459.825 -170.726 460.333C-171.2 462.154 -171.812 463.96 -172.578 465.754C-174.584 470.478 -177.564 474.825 -181.506 478.802C-185.495 482.821 -189.83 485.847 -194.516 487.865C-196.291 488.635 -198.085 489.255 -199.894 489.736C-200.233 489.821 -200.564 489.898 -200.903 489.971C-203.548 490.602 -206.247 490.914 -208.996 490.926C-213.959 490.945 -218.81 489.979 -223.534 488.019C-228.258 486.055 -232.624 483.087 -236.647 479.09C-240.667 475.102 -243.681 470.751 -245.68 466.046C-247.682 461.338 -248.679 456.502 -248.706 451.531C-248.717 446.561 -247.751 441.71 -245.799 436.994C-243.835 432.269 -240.863 427.888 -236.878 423.872C-232.882 419.845 -228.524 416.838 -223.826 414.848C-219.118 412.846 -214.274 411.841 -209.304 411.814C-204.337 411.802 -199.49 412.761 -194.766 414.725C-190.042 416.684 -185.649 419.684 -181.572 423.726C-177.602 427.665 -174.618 431.988 -172.62 436.693Z" fill="#15172A"/>
<path d="M41.0675 1.61369C42.0916 -0.654012 41.7181 -3.33753 40.0395 -5.17402C38.7304 -6.60625 36.9171 -8.15399 34.4953 -9.35137C31.5847 -10.7913 28.7818 -11.2418 26.5372 -11.2918C24.0038 -11.3496 21.6899 -9.87113 20.6504 -7.56108L6.25878 24.4139C5.0922 26.9973 5.78137 30.0505 7.96052 31.86C9.2811 32.9573 10.9097 34.0777 12.8655 35.0363C15.4566 36.303 17.9323 36.9537 20.0421 37.2732C22.818 37.6929 25.5208 36.1606 26.672 33.6002L41.0675 1.61369ZM50.069 42.4285C46.3613 45.9552 42.1763 48.5964 37.5369 50.3558C35.1383 51.2645 32.6704 51.9151 30.137 52.2924C29.625 52.3656 29.1129 52.431 28.5932 52.4926C26.7259 52.689 24.8162 52.7506 22.8681 52.662C17.7436 52.4426 12.6307 51.1759 7.52161 48.8774C2.35864 46.5558 -1.99966 43.5566 -5.53405 39.8759C-6.87388 38.486 -8.08666 37.023 -9.16853 35.4945C-9.36874 35.2096 -9.55739 34.9285 -9.74605 34.6359C-11.263 32.3798 -12.5027 29.9619 -13.4806 27.3901C-15.2401 22.7507 -16.0371 17.8688 -15.8561 12.7559C-15.6752 7.64678 -14.4239 2.51461 -12.0985 -2.65606C-9.773 -7.81903 -6.75452 -12.1696 -3.05074 -15.6925C0.6569 -19.2153 4.83809 -21.8488 9.4813 -23.616C14.1284 -25.3716 19.0103 -26.1686 24.1155 -25.9915C29.2246 -25.8144 34.3721 -24.5669 39.5313 -22.2453C44.7058 -19.916 49.0487 -16.8898 52.5638 -13.1861C56.0867 -9.48227 58.7278 -5.29722 60.495 -0.654012C62.2507 3.9969 63.0515 8.87111 62.8744 13.9802C62.6934 19.0931 61.4267 24.2599 59.0705 29.4961C56.7758 34.5936 53.7766 38.9057 50.069 42.4285ZM-213.997 430.803C-215.761 429.051 -218.406 428.458 -220.712 429.386C-222.514 430.11 -224.6 431.265 -226.572 433.109C-228.943 435.33 -230.345 437.798 -231.18 439.881C-232.123 442.234 -231.55 444.921 -229.752 446.703L-204.857 471.398C-202.847 473.396 -199.748 473.824 -197.288 472.418C-195.798 471.564 -194.181 470.435 -192.595 468.938C-190.496 466.959 -189.022 464.864 -187.978 463.001C-186.615 460.548 -187.104 457.484 -189.095 455.505L-213.997 430.803ZM-172.62 436.693C-170.618 441.402 -169.613 446.245 -169.594 451.208C-169.583 453.776 -169.841 456.313 -170.376 458.816C-170.483 459.324 -170.603 459.825 -170.726 460.333C-171.2 462.154 -171.812 463.96 -172.578 465.754C-174.584 470.478 -177.564 474.825 -181.506 478.802C-185.495 482.821 -189.83 485.847 -194.516 487.865C-196.291 488.635 -198.085 489.255 -199.894 489.736C-200.233 489.821 -200.564 489.898 -200.903 489.971C-203.548 490.602 -206.247 490.914 -208.996 490.926C-213.959 490.945 -218.81 489.979 -223.534 488.019C-228.258 486.055 -232.624 483.087 -236.647 479.09C-240.667 475.102 -243.681 470.751 -245.68 466.046C-247.682 461.338 -248.679 456.502 -248.706 451.531C-248.717 446.561 -247.751 441.71 -245.799 436.994C-243.835 432.269 -240.863 427.888 -236.878 423.872C-232.882 419.845 -228.524 416.838 -223.826 414.848C-219.118 412.846 -214.274 411.841 -209.304 411.814C-204.337 411.802 -199.49 412.761 -194.766 414.725C-190.042 416.684 -185.649 419.684 -181.572 423.726C-177.602 427.665 -174.618 431.988 -172.62 436.693Z" fill="#15172A"/>
</g>
<mask id="mask6_2848_3318" style="mask-type:alpha" maskUnits="userSpaceOnUse" x="-313" y="154" width="594" height="439">
<rect x="280.938" y="593" width="593.941" height="439" transform="rotate(-180 280.938 593)" fill="#D9D9D9"/>
</mask>
<g mask="url(#mask6_2848_3318)">
</g>
<mask id="mask7_2848_3318" style="mask-type:alpha" maskUnits="userSpaceOnUse" x="-313" y="154" width="594" height="439">
<rect x="280.938" y="593" width="593.941" height="439" transform="rotate(-180 280.938 593)" fill="#D9D9D9"/>
</mask>
<g mask="url(#mask7_2848_3318)">
<path d="M52.876 373.073L52.9596 373.33C55.4863 381.168 58.0343 389.027 60.5638 396.868C60.6288 397.038 60.6791 397.224 60.7282 397.379L61.3658 399.36C61.8325 400.795 60.5643 402.187 59.1162 401.89L30.8298 396.214C29.7089 395.934 28.8436 395.092 28.5432 394.002C28.1423 392.465 29.1199 391.294 29.2058 391.175C29.2754 391.106 29.3277 391.055 29.3948 390.989L48.8207 369.997C49.8314 368.892 51.6562 369.296 52.1229 370.731L52.876 373.073ZM-132.438 203.69L-132.354 203.947C-129.825 211.788 -127.279 219.644 -124.752 227.487C-124.685 227.655 -124.634 227.846 -124.585 227.996L-123.95 229.98C-123.478 231.414 -124.749 232.803 -126.197 232.507L-154.481 226.833C-155.607 226.554 -156.472 225.712 -156.77 224.619C-157.171 223.082 -156.191 221.914 -156.108 221.792C-156.038 221.723 -155.986 221.672 -155.919 221.606L-136.493 200.614C-135.479 199.511 -133.66 199.916 -133.191 201.348L-132.438 203.69Z" fill="#15172A"/>
<path d="M52.876 373.073L52.9596 373.33C55.4863 381.168 58.0343 389.027 60.5638 396.868C60.6288 397.038 60.6791 397.224 60.7282 397.379L61.3658 399.36C61.8325 400.795 60.5643 402.187 59.1162 401.89L30.8298 396.214C29.7089 395.934 28.8436 395.092 28.5432 394.002C28.1423 392.465 29.1199 391.294 29.2058 391.175C29.2754 391.106 29.3277 391.055 29.3948 390.989L48.8207 369.997C49.8314 368.892 51.6562 369.296 52.1229 370.731L52.876 373.073ZM-132.438 203.69L-132.354 203.947C-129.825 211.788 -127.279 219.644 -124.752 227.487C-124.685 227.655 -124.634 227.846 -124.585 227.996L-123.95 229.98C-123.478 231.414 -124.749 232.803 -126.197 232.507L-154.481 226.833C-155.607 226.554 -156.472 225.712 -156.77 224.619C-157.171 223.082 -156.191 221.914 -156.108 221.792C-156.038 221.723 -155.986 221.672 -155.919 221.606L-136.493 200.614C-135.479 199.511 -133.66 199.916 -133.191 201.348L-132.438 203.69Z" fill="#15172A"/>
<path d="M-59.162 475.984C-38.3039 472.599 -35.5594 469.859 -32.1788 448.997C-28.7946 469.859 -26.0537 472.599 -5.19572 475.984C-26.0537 479.364 -28.7946 482.109 -32.1788 502.967C-35.5594 482.109 -38.3039 479.364 -59.162 475.984ZM294.745 133.313C311.8 130.547 314.04 128.304 316.806 111.252C319.572 128.304 321.815 130.547 338.867 133.313C321.815 136.079 319.572 138.318 316.806 155.374C314.04 138.318 311.8 136.079 294.745 133.313Z" fill="#15172A"/>
<path d="M-59.162 475.984C-38.3039 472.599 -35.5594 469.859 -32.1788 448.997C-28.7946 469.859 -26.0537 472.599 -5.19572 475.984C-26.0537 479.364 -28.7946 482.109 -32.1788 502.967C-35.5594 482.109 -38.3039 479.364 -59.162 475.984ZM294.745 133.313C311.8 130.547 314.04 128.304 316.806 111.252C319.572 128.304 321.815 130.547 338.867 133.313C321.815 136.079 319.572 138.318 316.806 155.374C314.04 138.318 311.8 136.079 294.745 133.313Z" fill="#15172A"/>
<path d="M-15.8885 253.343C4.96951 249.959 7.71399 247.218 11.0946 226.356C14.4789 247.218 17.2197 249.959 38.0777 253.343C17.2197 256.724 14.4789 259.468 11.0946 280.326C7.71399 259.468 4.96951 256.724 -15.8885 253.343ZM338.018 -89.3276C355.074 -92.0939 357.313 -94.3367 360.079 -111.389C362.846 -94.3367 365.089 -92.0939 382.141 -89.3276C365.089 -86.5613 362.846 -84.3221 360.079 -67.2664C357.313 -84.3221 355.074 -86.5613 338.018 -89.3276Z" fill="#15172A"/>
<path d="M-15.8885 253.343C4.96951 249.959 7.71399 247.218 11.0946 226.356C14.4789 247.218 17.2197 249.959 38.0777 253.343C17.2197 256.724 14.4789 259.468 11.0946 280.326C7.71399 259.468 4.96951 256.724 -15.8885 253.343ZM338.018 -89.3276C355.074 -92.0939 357.313 -94.3367 360.079 -111.389C362.846 -94.3367 365.089 -92.0939 382.141 -89.3276C365.089 -86.5613 362.846 -84.3221 360.079 -67.2664C357.313 -84.3221 355.074 -86.5613 338.018 -89.3276Z" fill="#15172A"/>
<path d="M140.279 498.517C141.246 500.658 140.893 503.192 139.308 504.926C138.072 506.278 136.36 507.739 134.074 508.87C131.326 510.229 128.679 510.655 126.56 510.702C124.168 510.757 121.984 509.361 121.002 507.18L107.414 476.99C106.313 474.551 106.963 471.669 109.021 469.96C110.268 468.924 111.805 467.866 113.652 466.961C116.098 465.765 118.436 465.151 120.428 464.849C123.049 464.453 125.6 465.9 126.687 468.317L140.279 498.517ZM148.778 459.982C145.277 456.652 141.326 454.159 136.946 452.497C134.681 451.639 132.351 451.025 129.959 450.669C129.475 450.6 128.992 450.538 128.501 450.48C126.738 450.294 124.935 450.236 123.096 450.32C118.258 450.527 113.43 451.723 108.607 453.893C103.732 456.085 99.617 458.917 96.28 462.392C95.015 463.704 93.8699 465.086 92.8485 466.529C92.6595 466.798 92.4813 467.063 92.3032 467.339C90.871 469.469 89.7005 471.752 88.7772 474.18C87.116 478.561 86.3635 483.17 86.5344 487.997C86.7052 492.821 87.8866 497.667 90.0822 502.549C92.2778 507.423 95.1277 511.531 98.6246 514.857C102.125 518.183 106.073 520.669 110.457 522.338C114.844 523.995 119.454 524.748 124.274 524.581C129.097 524.413 133.957 523.236 138.828 521.044C143.714 518.845 147.814 515.987 151.133 512.49C154.459 508.994 156.953 505.042 158.621 500.658C160.279 496.267 161.035 491.665 160.868 486.841C160.697 482.014 159.501 477.136 157.276 472.192C155.11 467.379 152.278 463.308 148.778 459.982ZM-100.541 93.298C-102.206 94.9519 -104.703 95.5117 -106.88 94.6357C-108.582 93.9523 -110.552 92.8618 -112.413 91.1206C-114.652 89.0231 -115.975 86.693 -116.764 84.7265C-117.655 82.5054 -117.113 79.9682 -115.416 78.2851L-91.9111 54.9698C-90.0136 53.0832 -87.0874 52.6797 -84.7646 54.0065C-83.3578 54.8135 -81.8311 55.8786 -80.3335 57.2926C-78.3523 59.161 -76.9601 61.1385 -75.975 62.8979C-74.6882 65.2134 -75.1499 68.1069 -77.0292 69.9754L-100.541 93.298ZM-61.4747 87.7363C-59.5845 83.2906 -58.6357 78.7177 -58.6176 74.0321C-58.6067 71.6075 -58.8502 69.212 -59.3555 66.8492C-59.4573 66.3694 -59.57 65.8968 -59.6863 65.417C-60.1334 63.6976 -60.7114 61.9927 -61.4347 60.2988C-63.3286 55.8386 -66.1422 51.7346 -69.8645 47.9795C-73.6304 44.1845 -77.7235 41.3274 -82.1474 39.4226C-83.8231 38.6956 -85.5171 38.1103 -87.2255 37.6559C-87.5454 37.576 -87.858 37.5033 -88.1779 37.4342C-90.6752 36.838 -93.2234 36.5436 -95.8188 36.5327C-100.504 36.5145 -105.085 37.4269 -109.545 39.2772C-114.005 41.1311 -118.127 43.9337 -121.926 47.7069C-125.721 51.4728 -128.567 55.5805 -130.454 60.0225C-132.344 64.4682 -133.286 69.0339 -133.311 73.7268C-133.322 78.4196 -132.409 82.9998 -130.566 87.4528C-128.713 91.913 -125.906 96.0497 -122.144 99.8411C-118.371 103.643 -114.256 106.482 -109.821 108.362C-105.375 110.252 -100.803 111.201 -96.1097 111.226C-91.4204 111.237 -86.8439 110.332 -82.3836 108.478C-77.9234 106.628 -73.7758 103.796 -69.9263 99.9792C-66.1785 96.2605 -63.3613 92.1784 -61.4747 87.7363Z" fill="#15172A"/>
<path d="M140.279 498.517C141.246 500.658 140.893 503.192 139.308 504.926C138.072 506.278 136.36 507.739 134.074 508.87C131.326 510.229 128.679 510.655 126.56 510.702C124.168 510.757 121.984 509.361 121.002 507.18L107.414 476.99C106.313 474.551 106.963 471.669 109.021 469.96C110.268 468.924 111.805 467.866 113.652 466.961C116.098 465.765 118.436 465.151 120.428 464.849C123.049 464.453 125.6 465.9 126.687 468.317L140.279 498.517ZM148.778 459.982C145.277 456.652 141.326 454.159 136.946 452.497C134.681 451.639 132.351 451.025 129.959 450.669C129.475 450.6 128.992 450.538 128.501 450.48C126.738 450.294 124.935 450.236 123.096 450.32C118.258 450.527 113.43 451.723 108.607 453.893C103.732 456.085 99.617 458.917 96.28 462.392C95.015 463.704 93.8699 465.086 92.8485 466.529C92.6595 466.798 92.4813 467.063 92.3032 467.339C90.871 469.469 89.7005 471.752 88.7772 474.18C87.116 478.561 86.3635 483.17 86.5344 487.997C86.7052 492.821 87.8866 497.667 90.0822 502.549C92.2778 507.423 95.1277 511.531 98.6246 514.857C102.125 518.183 106.073 520.669 110.457 522.338C114.844 523.995 119.454 524.748 124.274 524.581C129.097 524.413 133.957 523.236 138.828 521.044C143.714 518.845 147.814 515.987 151.133 512.49C154.459 508.994 156.953 505.042 158.621 500.658C160.279 496.267 161.035 491.665 160.868 486.841C160.697 482.014 159.501 477.136 157.276 472.192C155.11 467.379 152.278 463.308 148.778 459.982ZM-100.541 93.298C-102.206 94.9519 -104.703 95.5117 -106.88 94.6357C-108.582 93.9523 -110.552 92.8618 -112.413 91.1206C-114.652 89.0231 -115.975 86.693 -116.764 84.7265C-117.655 82.5054 -117.113 79.9682 -115.416 78.2851L-91.9111 54.9698C-90.0136 53.0832 -87.0874 52.6797 -84.7646 54.0065C-83.3578 54.8135 -81.8311 55.8786 -80.3335 57.2926C-78.3523 59.161 -76.9601 61.1385 -75.975 62.8979C-74.6882 65.2134 -75.1499 68.1069 -77.0292 69.9754L-100.541 93.298ZM-61.4747 87.7363C-59.5845 83.2906 -58.6357 78.7177 -58.6176 74.0321C-58.6067 71.6075 -58.8502 69.212 -59.3555 66.8492C-59.4573 66.3694 -59.57 65.8968 -59.6863 65.417C-60.1334 63.6976 -60.7114 61.9927 -61.4347 60.2988C-63.3286 55.8386 -66.1422 51.7346 -69.8645 47.9795C-73.6304 44.1845 -77.7235 41.3274 -82.1474 39.4226C-83.8231 38.6956 -85.5171 38.1103 -87.2255 37.6559C-87.5454 37.576 -87.858 37.5033 -88.1779 37.4342C-90.6752 36.838 -93.2234 36.5436 -95.8188 36.5327C-100.504 36.5145 -105.085 37.4269 -109.545 39.2772C-114.005 41.1311 -118.127 43.9337 -121.926 47.7069C-125.721 51.4728 -128.567 55.5805 -130.454 60.0225C-132.344 64.4682 -133.286 69.0339 -133.311 73.7268C-133.322 78.4196 -132.409 82.9998 -130.566 87.4528C-128.713 91.913 -125.906 96.0497 -122.144 99.8411C-118.371 103.643 -114.256 106.482 -109.821 108.362C-105.375 110.252 -100.803 111.201 -96.1097 111.226C-91.4204 111.237 -86.8439 110.332 -82.3836 108.478C-77.9234 106.628 -73.7758 103.796 -69.9263 99.9792C-66.1785 96.2605 -63.3613 92.1784 -61.4747 87.7363Z" fill="#15172A"/>
<path d="M-149.817 537.453C-150.842 539.72 -150.468 542.404 -148.789 544.24C-147.48 545.673 -145.667 547.22 -143.245 548.418C-140.335 549.858 -137.532 550.308 -135.287 550.358C-132.754 550.416 -130.44 548.938 -129.4 546.627L-115.009 514.652C-113.842 512.069 -114.531 509.016 -116.711 507.206C-118.031 506.109 -119.66 504.989 -121.616 504.03C-124.207 502.763 -126.682 502.113 -128.792 501.793C-131.568 501.374 -134.271 502.906 -135.422 505.466L-149.817 537.453ZM-158.819 496.638C-155.111 493.111 -150.926 490.47 -146.287 488.711C-143.888 487.802 -141.42 487.151 -138.887 486.774C-138.375 486.701 -137.863 486.635 -137.343 486.574C-135.476 486.377 -133.566 486.316 -131.618 486.404C-126.494 486.624 -121.381 487.89 -116.272 490.189C-111.109 492.511 -106.75 495.51 -103.216 499.191C-101.876 500.58 -100.663 502.043 -99.5815 503.572C-99.3813 503.857 -99.1926 504.138 -99.004 504.43C-97.487 506.687 -96.2473 509.104 -95.2694 511.676C-93.5099 516.316 -92.7129 521.198 -92.8939 526.311C-93.0748 531.42 -94.3261 536.552 -96.6515 541.722C-98.977 546.885 -101.995 551.236 -105.699 554.759C-109.407 558.282 -113.588 560.915 -118.231 562.682C-122.878 564.438 -127.76 565.235 -132.865 565.058C-137.975 564.881 -143.122 563.633 -148.281 561.312C-153.456 558.982 -157.799 555.956 -161.314 552.252C-164.837 548.549 -167.478 544.364 -169.245 539.72C-171.001 535.07 -171.801 530.195 -171.624 525.086C-171.443 519.973 -170.177 514.806 -167.82 509.57C-165.526 504.473 -162.527 500.161 -158.819 496.638ZM105.247 108.264C107.011 110.016 109.656 110.609 111.962 109.681C113.764 108.957 115.85 107.802 117.822 105.958C120.193 103.736 121.595 101.268 122.43 99.1853C123.373 96.8329 122.8 94.1455 121.002 92.3629L96.1071 67.6684C94.0973 65.6702 90.998 65.2429 88.5378 66.6482C87.0478 67.5029 85.4308 68.631 83.8445 70.1286C81.7463 72.1076 80.2717 74.202 79.2283 76.0655C77.8654 78.518 78.3543 81.5827 80.3448 83.5616L105.247 108.264ZM63.8703 102.373C61.8682 97.6645 60.8634 92.8211 60.8441 87.8583C60.8326 85.2903 61.0905 82.7531 61.6257 80.2505C61.7335 79.7423 61.8528 79.2418 61.976 78.7336C62.4496 76.9125 63.0618 75.1068 63.8279 73.3127C65.8338 68.5886 68.8138 64.2418 72.7563 60.2647C76.745 56.2452 81.0802 53.219 85.7657 51.2016C87.5406 50.4316 89.3348 49.8117 91.1443 49.3304C91.4831 49.2457 91.8142 49.1687 92.153 49.0956C94.7981 48.4642 97.497 48.1523 100.246 48.1407C105.209 48.1215 110.06 49.0879 114.784 51.0476C119.508 53.0111 123.874 55.9795 127.897 59.9759C131.917 63.9646 134.931 68.3153 136.93 73.0201C138.932 77.7287 139.929 82.5644 139.956 87.5349C139.967 92.5054 139.001 97.3565 137.049 102.073C135.085 106.797 132.113 111.178 128.128 115.194C124.132 119.221 119.774 122.228 115.076 124.219C110.368 126.221 105.524 127.226 100.554 127.252C95.5873 127.264 90.7401 126.305 86.016 124.342C81.2919 122.382 76.899 119.383 72.8218 115.34C68.8523 111.402 65.8685 107.078 63.8703 102.373Z" fill="#15172A"/>
<path d="M-149.817 537.453C-150.842 539.72 -150.468 542.404 -148.789 544.24C-147.48 545.673 -145.667 547.22 -143.245 548.418C-140.335 549.858 -137.532 550.308 -135.287 550.358C-132.754 550.416 -130.44 548.938 -129.4 546.627L-115.009 514.652C-113.842 512.069 -114.531 509.016 -116.711 507.206C-118.031 506.109 -119.66 504.989 -121.616 504.03C-124.207 502.763 -126.682 502.113 -128.792 501.793C-131.568 501.374 -134.271 502.906 -135.422 505.466L-149.817 537.453ZM-158.819 496.638C-155.111 493.111 -150.926 490.47 -146.287 488.711C-143.888 487.802 -141.42 487.151 -138.887 486.774C-138.375 486.701 -137.863 486.635 -137.343 486.574C-135.476 486.377 -133.566 486.316 -131.618 486.404C-126.494 486.624 -121.381 487.89 -116.272 490.189C-111.109 492.511 -106.75 495.51 -103.216 499.191C-101.876 500.58 -100.663 502.043 -99.5815 503.572C-99.3813 503.857 -99.1926 504.138 -99.004 504.43C-97.487 506.687 -96.2473 509.104 -95.2694 511.676C-93.5099 516.316 -92.7129 521.198 -92.8939 526.311C-93.0748 531.42 -94.3261 536.552 -96.6515 541.722C-98.977 546.885 -101.995 551.236 -105.699 554.759C-109.407 558.282 -113.588 560.915 -118.231 562.682C-122.878 564.438 -127.76 565.235 -132.865 565.058C-137.975 564.881 -143.122 563.633 -148.281 561.312C-153.456 558.982 -157.799 555.956 -161.314 552.252C-164.837 548.549 -167.478 544.364 -169.245 539.72C-171.001 535.07 -171.801 530.195 -171.624 525.086C-171.443 519.973 -170.177 514.806 -167.82 509.57C-165.526 504.473 -162.527 500.161 -158.819 496.638ZM105.247 108.264C107.011 110.016 109.656 110.609 111.962 109.681C113.764 108.957 115.85 107.802 117.822 105.958C120.193 103.736 121.595 101.268 122.43 99.1853C123.373 96.8329 122.8 94.1455 121.002 92.3629L96.1071 67.6684C94.0973 65.6702 90.998 65.2429 88.5378 66.6482C87.0478 67.5029 85.4308 68.631 83.8445 70.1286C81.7463 72.1076 80.2717 74.202 79.2283 76.0655C77.8654 78.518 78.3543 81.5827 80.3448 83.5616L105.247 108.264ZM63.8703 102.373C61.8682 97.6645 60.8634 92.8211 60.8441 87.8583C60.8326 85.2903 61.0905 82.7531 61.6257 80.2505C61.7335 79.7423 61.8528 79.2418 61.976 78.7336C62.4496 76.9125 63.0618 75.1068 63.8279 73.3127C65.8338 68.5886 68.8138 64.2418 72.7563 60.2647C76.745 56.2452 81.0802 53.219 85.7657 51.2016C87.5406 50.4316 89.3348 49.8117 91.1443 49.3304C91.4831 49.2457 91.8142 49.1687 92.153 49.0956C94.7981 48.4642 97.497 48.1523 100.246 48.1407C105.209 48.1215 110.06 49.0879 114.784 51.0476C119.508 53.0111 123.874 55.9795 127.897 59.9759C131.917 63.9646 134.931 68.3153 136.93 73.0201C138.932 77.7287 139.929 82.5644 139.956 87.5349C139.967 92.5054 139.001 97.3565 137.049 102.073C135.085 106.797 132.113 111.178 128.128 115.194C124.132 119.221 119.774 122.228 115.076 124.219C110.368 126.221 105.524 127.226 100.554 127.252C95.5873 127.264 90.7401 126.305 86.016 124.342C81.2919 122.382 76.899 119.383 72.8218 115.34C68.8523 111.402 65.8685 107.078 63.8703 102.373Z" fill="#15172A"/>
<path d="M-112.13 357.386C-113.154 359.654 -112.781 362.338 -111.102 364.174C-109.793 365.606 -107.98 367.154 -105.558 368.351C-102.647 369.791 -99.8443 370.242 -97.5997 370.292C-95.0663 370.35 -92.7524 368.871 -91.7129 366.561L-77.3213 334.586C-76.1547 332.003 -76.8439 328.95 -79.023 327.14C-80.3436 326.043 -81.9722 324.922 -83.928 323.964C-86.5191 322.697 -88.9948 322.046 -91.1046 321.727C-93.8805 321.307 -96.5833 322.839 -97.7345 325.4L-112.13 357.386ZM-121.131 316.571C-117.424 313.045 -113.239 310.404 -108.599 308.644C-106.201 307.736 -103.733 307.085 -101.2 306.708C-100.687 306.634 -100.175 306.569 -99.6557 306.507C-97.7884 306.311 -95.8787 306.249 -93.9306 306.338C-88.8061 306.557 -83.6932 307.824 -78.5841 310.123C-73.4211 312.444 -69.0628 315.443 -65.5285 319.124C-64.1886 320.514 -62.9758 321.977 -61.894 323.506C-61.6938 323.79 -61.5051 324.071 -61.3165 324.364C-59.7995 326.62 -58.5598 329.038 -57.5819 331.61C-55.8224 336.249 -55.0254 341.131 -55.2064 346.244C-55.3873 351.353 -56.6386 356.485 -58.964 361.656C-61.2895 366.819 -64.308 371.17 -68.0118 374.692C-71.7194 378.215 -75.9006 380.849 -80.5438 382.616C-85.1909 384.372 -90.0728 385.169 -95.178 384.991C-100.287 384.814 -105.435 383.567 -110.594 381.245C-115.768 378.916 -120.111 375.89 -123.626 372.186C-127.149 368.482 -129.79 364.297 -131.558 359.654C-133.313 355.003 -134.114 350.129 -133.937 345.02C-133.756 339.907 -132.489 334.74 -130.133 329.504C-127.838 324.406 -124.839 320.094 -121.131 316.571ZM142.935 -71.8026C144.698 -70.0508 147.343 -69.4579 149.649 -70.3858C151.451 -71.1096 153.538 -72.2646 155.509 -74.1088C157.881 -76.3303 159.282 -78.7982 160.118 -80.8811C161.061 -83.2335 160.487 -85.9209 158.689 -87.7035L133.795 -112.398C131.785 -114.396 128.686 -114.824 126.225 -113.418C124.735 -112.564 123.118 -111.435 121.532 -109.938C119.434 -107.959 117.959 -105.864 116.916 -104.001C115.553 -101.548 116.042 -98.4837 118.032 -96.5048L142.935 -71.8026ZM101.558 -77.6932C99.5557 -82.4019 98.5509 -87.2453 98.5316 -92.2081C98.5201 -94.7761 98.778 -97.3133 99.3132 -99.8159C99.421 -100.324 99.5403 -100.825 99.6635 -101.333C100.137 -103.154 100.749 -104.96 101.515 -106.754C103.521 -111.478 106.501 -115.825 110.444 -119.802C114.432 -123.821 118.768 -126.847 123.453 -128.865C125.228 -129.635 127.022 -130.255 128.832 -130.736C129.171 -130.821 129.502 -130.898 129.841 -130.971C132.486 -131.602 135.184 -131.914 137.933 -131.926C142.896 -131.945 147.747 -130.979 152.471 -129.019C157.195 -127.055 161.561 -124.087 165.585 -120.09C169.604 -116.102 172.619 -111.751 174.617 -107.046C176.619 -102.338 177.616 -97.502 177.643 -92.5315C177.655 -87.561 176.688 -82.7099 174.736 -77.9936C172.773 -73.2695 169.801 -68.8881 165.816 -64.8724C161.819 -60.8452 157.461 -57.8383 152.764 -55.8478C148.055 -53.8458 143.212 -52.8409 138.241 -52.814C133.275 -52.8024 128.428 -53.7611 123.704 -55.7246C118.979 -57.6843 114.587 -60.6835 110.509 -64.7261C106.54 -68.6648 103.556 -72.9884 101.558 -77.6932Z" fill="#15172A"/>
<path d="M-112.13 357.386C-113.154 359.654 -112.781 362.338 -111.102 364.174C-109.793 365.606 -107.98 367.154 -105.558 368.351C-102.647 369.791 -99.8443 370.242 -97.5997 370.292C-95.0663 370.35 -92.7524 368.871 -91.7129 366.561L-77.3213 334.586C-76.1547 332.003 -76.8439 328.95 -79.023 327.14C-80.3436 326.043 -81.9722 324.922 -83.928 323.964C-86.5191 322.697 -88.9948 322.046 -91.1046 321.727C-93.8805 321.307 -96.5833 322.839 -97.7345 325.4L-112.13 357.386ZM-121.131 316.571C-117.424 313.045 -113.239 310.404 -108.599 308.644C-106.201 307.736 -103.733 307.085 -101.2 306.708C-100.687 306.634 -100.175 306.569 -99.6557 306.507C-97.7884 306.311 -95.8787 306.249 -93.9306 306.338C-88.8061 306.557 -83.6932 307.824 -78.5841 310.123C-73.4211 312.444 -69.0628 315.443 -65.5285 319.124C-64.1886 320.514 -62.9758 321.977 -61.894 323.506C-61.6938 323.79 -61.5051 324.071 -61.3165 324.364C-59.7995 326.62 -58.5598 329.038 -57.5819 331.61C-55.8224 336.249 -55.0254 341.131 -55.2064 346.244C-55.3873 351.353 -56.6386 356.485 -58.964 361.656C-61.2895 366.819 -64.308 371.17 -68.0118 374.692C-71.7194 378.215 -75.9006 380.849 -80.5438 382.616C-85.1909 384.372 -90.0728 385.169 -95.178 384.991C-100.287 384.814 -105.435 383.567 -110.594 381.245C-115.768 378.916 -120.111 375.89 -123.626 372.186C-127.149 368.482 -129.79 364.297 -131.558 359.654C-133.313 355.003 -134.114 350.129 -133.937 345.02C-133.756 339.907 -132.489 334.74 -130.133 329.504C-127.838 324.406 -124.839 320.094 -121.131 316.571ZM142.935 -71.8026C144.698 -70.0508 147.343 -69.4579 149.649 -70.3858C151.451 -71.1096 153.538 -72.2646 155.509 -74.1088C157.881 -76.3303 159.282 -78.7982 160.118 -80.8811C161.061 -83.2335 160.487 -85.9209 158.689 -87.7035L133.795 -112.398C131.785 -114.396 128.686 -114.824 126.225 -113.418C124.735 -112.564 123.118 -111.435 121.532 -109.938C119.434 -107.959 117.959 -105.864 116.916 -104.001C115.553 -101.548 116.042 -98.4837 118.032 -96.5048L142.935 -71.8026ZM101.558 -77.6932C99.5557 -82.4019 98.5509 -87.2453 98.5316 -92.2081C98.5201 -94.7761 98.778 -97.3133 99.3132 -99.8159C99.421 -100.324 99.5403 -100.825 99.6635 -101.333C100.137 -103.154 100.749 -104.96 101.515 -106.754C103.521 -111.478 106.501 -115.825 110.444 -119.802C114.432 -123.821 118.768 -126.847 123.453 -128.865C125.228 -129.635 127.022 -130.255 128.832 -130.736C129.171 -130.821 129.502 -130.898 129.841 -130.971C132.486 -131.602 135.184 -131.914 137.933 -131.926C142.896 -131.945 147.747 -130.979 152.471 -129.019C157.195 -127.055 161.561 -124.087 165.585 -120.09C169.604 -116.102 172.619 -111.751 174.617 -107.046C176.619 -102.338 177.616 -97.502 177.643 -92.5315C177.655 -87.561 176.688 -82.7099 174.736 -77.9936C172.773 -73.2695 169.801 -68.8881 165.816 -64.8724C161.819 -60.8452 157.461 -57.8383 152.764 -55.8478C148.055 -53.8458 143.212 -52.8409 138.241 -52.814C133.275 -52.8024 128.428 -53.7611 123.704 -55.7246C118.979 -57.6843 114.587 -60.6835 110.509 -64.7261C106.54 -68.6648 103.556 -72.9884 101.558 -77.6932Z" fill="#15172A"/>
<path d="M139.823 330.865C138.799 333.133 139.173 335.816 140.851 337.653C142.16 339.085 143.974 340.633 146.395 341.83C149.306 343.27 152.109 343.72 154.353 343.77C156.887 343.828 159.201 342.35 160.24 340.04L174.632 308.065C175.798 305.481 175.109 302.428 172.93 300.619C171.61 299.521 169.981 298.401 168.025 297.442C165.434 296.176 162.958 295.525 160.849 295.205C158.073 294.786 155.37 296.318 154.219 298.878L139.823 330.865ZM130.822 290.05C134.529 286.523 138.714 283.882 143.354 282.123C145.752 281.214 148.22 280.563 150.754 280.186C151.266 280.113 151.778 280.047 152.297 279.986C154.165 279.79 156.074 279.728 158.023 279.816C163.147 280.036 168.26 281.303 173.369 283.601C178.532 285.923 182.89 288.922 186.425 292.603C187.765 293.993 188.977 295.456 190.059 296.984C190.259 297.269 190.448 297.55 190.637 297.843C192.154 300.099 193.393 302.517 194.371 305.088C196.131 309.728 196.928 314.61 196.747 319.723C196.566 324.832 195.315 329.964 192.989 335.135C190.664 340.298 187.645 344.648 183.941 348.171C180.234 351.694 176.053 354.327 171.409 356.094C166.762 357.85 161.88 358.647 156.775 358.47C151.666 358.293 146.518 357.045 141.359 354.724C136.185 352.395 131.842 349.368 128.327 345.665C124.804 341.961 122.163 337.776 120.396 333.133C118.64 328.482 117.839 323.607 118.016 318.498C118.197 313.385 119.464 308.219 121.82 302.982C124.115 297.885 127.114 293.573 130.822 290.05ZM394.888 -98.3241C396.651 -96.5723 399.296 -95.9794 401.602 -96.9073C403.404 -97.6311 405.491 -98.7861 407.462 -100.63C409.834 -102.852 411.235 -105.32 412.071 -107.403C413.014 -109.755 412.44 -112.442 410.642 -114.225L385.748 -138.919C383.738 -140.918 380.639 -141.345 378.178 -139.94C376.688 -139.085 375.071 -137.957 373.485 -136.459C371.387 -134.48 369.912 -132.386 368.869 -130.522C367.506 -128.07 367.995 -125.005 369.985 -123.026L394.888 -98.3241ZM353.511 -104.215C351.509 -108.923 350.504 -113.767 350.485 -118.73C350.473 -121.298 350.731 -123.835 351.266 -126.337C351.374 -126.846 351.493 -127.346 351.617 -127.854C352.09 -129.675 352.702 -131.481 353.469 -133.275C355.474 -137.999 358.454 -142.346 362.397 -146.323C366.386 -150.343 370.721 -153.369 375.406 -155.386C377.181 -156.156 378.975 -156.776 380.785 -157.257C381.124 -157.342 381.455 -157.419 381.794 -157.492C384.439 -158.124 387.138 -158.436 389.887 -158.447C394.849 -158.466 399.7 -157.5 404.425 -155.54C409.149 -153.577 413.515 -150.608 417.538 -146.612C421.557 -142.623 424.572 -138.273 426.57 -133.568C428.572 -128.859 429.569 -124.023 429.596 -119.053C429.608 -114.083 428.642 -109.231 426.69 -104.515C424.726 -99.791 421.754 -95.4096 417.769 -91.3939C413.773 -87.3667 409.414 -84.3598 404.717 -82.3693C400.008 -80.3673 395.165 -79.3624 390.195 -79.3354C385.228 -79.3239 380.381 -80.2826 375.657 -82.2461C370.933 -84.2058 366.54 -87.205 362.462 -91.2476C358.493 -95.1863 355.509 -99.5099 353.511 -104.215Z" fill="#15172A"/>
<path d="M139.823 330.865C138.799 333.133 139.173 335.816 140.851 337.653C142.16 339.085 143.974 340.633 146.395 341.83C149.306 343.27 152.109 343.72 154.353 343.77C156.887 343.828 159.201 342.35 160.24 340.04L174.632 308.065C175.798 305.481 175.109 302.428 172.93 300.619C171.61 299.521 169.981 298.401 168.025 297.442C165.434 296.176 162.958 295.525 160.849 295.205C158.073 294.786 155.37 296.318 154.219 298.878L139.823 330.865ZM130.822 290.05C134.529 286.523 138.714 283.882 143.354 282.123C145.752 281.214 148.22 280.563 150.754 280.186C151.266 280.113 151.778 280.047 152.297 279.986C154.165 279.79 156.074 279.728 158.023 279.816C163.147 280.036 168.26 281.303 173.369 283.601C178.532 285.923 182.89 288.922 186.425 292.603C187.765 293.993 188.977 295.456 190.059 296.984C190.259 297.269 190.448 297.55 190.637 297.843C192.154 300.099 193.393 302.517 194.371 305.088C196.131 309.728 196.928 314.61 196.747 319.723C196.566 324.832 195.315 329.964 192.989 335.135C190.664 340.298 187.645 344.648 183.941 348.171C180.234 351.694 176.053 354.327 171.409 356.094C166.762 357.85 161.88 358.647 156.775 358.47C151.666 358.293 146.518 357.045 141.359 354.724C136.185 352.395 131.842 349.368 128.327 345.665C124.804 341.961 122.163 337.776 120.396 333.133C118.64 328.482 117.839 323.607 118.016 318.498C118.197 313.385 119.464 308.219 121.82 302.982C124.115 297.885 127.114 293.573 130.822 290.05ZM394.888 -98.3241C396.651 -96.5723 399.296 -95.9794 401.602 -96.9073C403.404 -97.6311 405.491 -98.7861 407.462 -100.63C409.834 -102.852 411.235 -105.32 412.071 -107.403C413.014 -109.755 412.44 -112.442 410.642 -114.225L385.748 -138.919C383.738 -140.918 380.639 -141.345 378.178 -139.94C376.688 -139.085 375.071 -137.957 373.485 -136.459C371.387 -134.48 369.912 -132.386 368.869 -130.522C367.506 -128.07 367.995 -125.005 369.985 -123.026L394.888 -98.3241ZM353.511 -104.215C351.509 -108.923 350.504 -113.767 350.485 -118.73C350.473 -121.298 350.731 -123.835 351.266 -126.337C351.374 -126.846 351.493 -127.346 351.617 -127.854C352.09 -129.675 352.702 -131.481 353.469 -133.275C355.474 -137.999 358.454 -142.346 362.397 -146.323C366.386 -150.343 370.721 -153.369 375.406 -155.386C377.181 -156.156 378.975 -156.776 380.785 -157.257C381.124 -157.342 381.455 -157.419 381.794 -157.492C384.439 -158.124 387.138 -158.436 389.887 -158.447C394.849 -158.466 399.7 -157.5 404.425 -155.54C409.149 -153.577 413.515 -150.608 417.538 -146.612C421.557 -142.623 424.572 -138.273 426.57 -133.568C428.572 -128.859 429.569 -124.023 429.596 -119.053C429.608 -114.083 428.642 -109.231 426.69 -104.515C424.726 -99.791 421.754 -95.4096 417.769 -91.3939C413.773 -87.3667 409.414 -84.3598 404.717 -82.3693C400.008 -80.3673 395.165 -79.3624 390.195 -79.3354C385.228 -79.3239 380.381 -80.2826 375.657 -82.2461C370.933 -84.2058 366.54 -87.205 362.462 -91.2476C358.493 -95.1863 355.509 -99.5099 353.511 -104.215Z" fill="#15172A"/>
</g>
</g>
<defs>
<clipPath id="clip0_2848_3318">
<rect width="1728" height="491" fill="white"/>
</clipPath>
</defs>
</svg>
