<svg width="394" height="320" viewBox="0 0 394 320" fill="none" xmlns="http://www.w3.org/2000/svg">
<g clip-path="url(#clip0_3929_4925)">
<rect width="394" height="320" fill="#F2EEE9"/>
<rect width="405" height="490" fill="#F2EEE9"/>
<mask id="mask0_3929_4925" style="mask-type:alpha" maskUnits="userSpaceOnUse" x="-135" y="0" width="230" height="305">
<rect x="-135" y="305" width="305" height="229.636" transform="rotate(-90 -135 305)" fill="#D9D9D9"/>
</mask>
<g mask="url(#mask0_3929_4925)">
</g>
<mask id="mask1_3929_4925" style="mask-type:alpha" maskUnits="userSpaceOnUse" x="-135" y="0" width="230" height="305">
<rect x="-135" y="305" width="305" height="229.636" transform="rotate(-90 -135 305)" fill="#D9D9D9"/>
</mask>
<g mask="url(#mask1_3929_4925)">
<path d="M-19.959 187.884L-20.0934 187.927C-24.1936 189.224 -28.3042 190.533 -32.4058 191.832C-32.4947 191.865 -32.592 191.891 -32.6732 191.916L-33.7096 192.244C-34.4598 192.483 -35.1879 191.832 -35.0328 191.088L-32.0637 176.563C-31.9173 175.987 -31.477 175.543 -30.9067 175.389C-30.1028 175.183 -29.4903 175.685 -29.4282 175.729C-29.3919 175.765 -29.3654 175.791 -29.3305 175.826L-18.3501 185.801C-17.772 186.32 -17.9835 187.258 -18.7337 187.497L-19.959 187.884ZM68.6432 92.7219L68.5089 92.7648C64.4074 94.0637 60.298 95.3708 56.1951 96.6684C56.1076 96.7031 56.0076 96.729 55.9291 96.7541L54.8913 97.0803C54.1412 97.3226 53.4143 96.6699 53.5695 95.9263L56.5373 81.4021C56.6836 80.8238 57.1239 80.3795 57.6956 80.2265C58.4995 80.0206 59.1107 80.524 59.1741 80.5668C59.2104 80.6025 59.2369 80.6293 59.2717 80.6638L70.2522 90.6394C70.829 91.1598 70.6174 92.0942 69.8686 92.3351L68.6432 92.7219Z" fill="#15172A"/>
<path d="M-19.959 187.884L-20.0934 187.927C-24.1936 189.224 -28.3042 190.533 -32.4058 191.832C-32.4947 191.865 -32.592 191.891 -32.6732 191.916L-33.7096 192.244C-34.4598 192.483 -35.1879 191.832 -35.0328 191.088L-32.0637 176.563C-31.9173 175.987 -31.477 175.543 -30.9067 175.389C-30.1028 175.183 -29.4903 175.685 -29.4282 175.729C-29.3919 175.765 -29.3654 175.791 -29.3305 175.826L-18.3501 185.801C-17.772 186.32 -17.9835 187.258 -18.7337 187.497L-19.959 187.884ZM68.6432 92.7219L68.5089 92.7648C64.4074 94.0637 60.298 95.3708 56.1951 96.6684C56.1076 96.7031 56.0076 96.729 55.9291 96.7541L54.8913 97.0803C54.1412 97.3226 53.4143 96.6699 53.5695 95.9263L56.5373 81.4021C56.6836 80.8238 57.1239 80.3795 57.6956 80.2265C58.4995 80.0206 59.1107 80.524 59.1741 80.5668C59.2104 80.6025 59.2369 80.6293 59.2717 80.6638L70.2522 90.6394C70.829 91.1598 70.6174 92.0942 69.8686 92.3351L68.6432 92.7219Z" fill="#15172A"/>
<path d="M-40.4044 62.0851L-40.5387 62.128C-44.6389 63.4256 -48.7495 64.734 -52.8511 66.0329C-52.94 66.0663 -53.0373 66.0921 -53.1185 66.1174L-54.1549 66.4448C-54.9051 66.6845 -55.6333 66.0332 -55.4781 65.2896L-52.509 50.7639C-52.3626 50.1884 -51.9224 49.744 -51.352 49.5898C-50.5481 49.3839 -49.9356 49.8859 -49.8735 49.93C-49.8372 49.9658 -49.8107 49.9926 -49.7759 50.027L-38.7954 60.0026C-38.2173 60.5217 -38.4288 61.4587 -39.179 61.6984L-40.4044 62.0851ZM48.1979 -33.077L48.0636 -33.0341C43.962 -31.7352 39.8527 -30.4281 35.7498 -29.1304C35.6623 -29.0957 35.5623 -29.0699 35.4838 -29.0447L34.446 -28.7186C33.6959 -28.4763 32.969 -29.1289 33.1242 -29.8725L36.092 -44.3968C36.2383 -44.975 36.6785 -45.4193 37.2503 -45.5723C38.0542 -45.7782 38.6654 -45.2748 38.7288 -45.2321C38.765 -45.1963 38.7916 -45.1695 38.8264 -45.135L49.8069 -35.1595C50.3837 -34.6391 50.1721 -33.7046 49.4232 -33.4637L48.1979 -33.077Z" fill="#15172A"/>
<path d="M-73.7878 130.35C-72.0175 141.061 -70.5838 142.471 -59.6714 144.207C-70.5838 145.945 -72.0175 147.352 -73.7878 158.063C-75.5562 147.352 -76.9918 145.945 -87.9023 144.207C-76.9918 142.471 -75.5562 141.061 -73.7878 130.35ZM105.459 312.088C106.906 320.847 108.079 321.997 116.999 323.417C108.079 324.838 106.906 325.99 105.459 334.746C104.012 325.99 102.841 324.838 93.9192 323.417C102.841 321.997 104.012 320.847 105.459 312.088Z" fill="#15172A"/>
<path d="M-73.7878 130.35C-72.0175 141.061 -70.5838 142.471 -59.6714 144.207C-70.5838 145.945 -72.0175 147.352 -73.7878 158.063C-75.5562 147.352 -76.9918 145.945 -87.9023 144.207C-76.9918 142.471 -75.5562 141.061 -73.7878 130.35ZM105.459 312.088C106.906 320.847 108.079 321.997 116.999 323.417C108.079 324.838 106.906 325.99 105.459 334.746C104.012 325.99 102.841 324.838 93.9192 323.417C102.841 321.997 104.012 320.847 105.459 312.088Z" fill="#15172A"/>
<path d="M42.6731 152.571C44.4434 163.282 45.8771 164.691 56.7896 166.427C45.8771 168.165 44.4434 169.573 42.6731 180.284C40.9048 169.573 39.4692 168.165 28.5586 166.427C39.4692 164.691 40.9048 163.282 42.6731 152.571ZM221.92 334.309C223.367 343.068 224.54 344.217 233.46 345.638C224.54 347.058 223.367 348.21 221.92 356.967C220.473 348.21 219.302 347.058 210.38 345.638C219.302 344.217 220.473 343.068 221.92 334.309Z" fill="#15172A"/>
<path d="M42.6731 152.571C44.4434 163.282 45.8771 164.691 56.7896 166.427C45.8771 168.165 44.4434 169.573 42.6731 180.284C40.9048 169.573 39.4692 168.165 28.5586 166.427C39.4692 164.691 40.9048 163.282 42.6731 152.571ZM221.92 334.309C223.367 343.068 224.54 344.217 233.46 345.638C224.54 347.058 223.367 348.21 221.92 356.967C220.473 348.21 219.302 347.058 210.38 345.638C219.302 344.217 220.473 343.068 221.92 334.309Z" fill="#15172A"/>
<path d="M2.42548 46.5916C3.8183 38.1643 4.94632 37.0554 13.5321 35.6896C4.94632 34.3222 3.8183 33.2148 2.42548 24.7875C1.03415 33.2148 -0.0953651 34.3222 -8.67969 35.6896C-0.0953651 37.0554 1.03415 38.1643 2.42548 46.5916ZM143.455 -96.3978C144.593 -103.289 145.516 -104.194 152.534 -105.311C145.516 -106.429 144.593 -107.335 143.455 -114.225C142.316 -107.335 141.395 -106.429 134.375 -105.311C141.395 -104.194 142.316 -103.289 143.455 -96.3978Z" fill="#15172A"/>
<path d="M-85.5733 232.773C-86.6933 233.269 -88.0186 233.088 -88.9256 232.274C-89.633 231.64 -90.3973 230.761 -90.9887 229.586C-91.6998 228.175 -91.9223 226.816 -91.947 225.728C-91.9756 224.5 -91.2454 223.378 -90.1045 222.874L-74.3129 215.896C-73.037 215.331 -71.5292 215.665 -70.6355 216.721C-70.0936 217.362 -69.5402 218.151 -69.0668 219.099C-68.4412 220.356 -68.1198 221.556 -67.962 222.579C-67.7548 223.925 -68.5115 225.235 -69.776 225.793L-85.5733 232.773ZM-65.416 237.137C-63.6742 235.34 -62.3698 233.31 -61.5008 231.061C-61.0521 229.898 -60.7308 228.702 -60.5444 227.473C-60.5083 227.225 -60.476 226.977 -60.4455 226.725C-60.3486 225.82 -60.3181 224.894 -60.3619 223.949C-60.4703 221.465 -61.0958 218.986 -62.231 216.509C-63.3776 214.005 -64.8588 211.892 -66.6766 210.179C-67.3631 209.529 -68.0856 208.941 -68.8405 208.416C-68.9812 208.319 -69.12 208.228 -69.2645 208.136C-70.3788 207.401 -71.5729 206.8 -72.8431 206.326C-75.1343 205.473 -77.5454 205.086 -80.0705 205.174C-82.5938 205.262 -85.1284 205.868 -87.6821 206.996C-90.2319 208.123 -92.3806 209.587 -94.1204 211.383C-95.8602 213.18 -97.1608 215.207 -98.0336 217.459C-98.9007 219.712 -99.2943 222.079 -99.2068 224.554C-99.1193 227.031 -98.5033 229.527 -97.3567 232.028C-96.2063 234.537 -94.7118 236.643 -92.8826 238.347C-91.0534 240.055 -88.9865 241.335 -86.6933 242.192C-84.3963 243.043 -81.9891 243.432 -79.4659 243.346C-76.9407 243.258 -74.389 242.644 -71.803 241.501C-69.2854 240.389 -67.1558 238.935 -65.416 237.137ZM126.392 109.107C125.527 108.252 125.234 106.97 125.692 105.852C126.05 104.978 126.62 103.967 127.531 103.011C128.628 101.861 129.847 101.181 130.876 100.776C132.037 100.319 133.365 100.597 134.245 101.469L146.441 113.539C147.428 114.513 147.639 116.016 146.945 117.209C146.523 117.931 145.966 118.715 145.226 119.484C144.249 120.502 143.214 121.216 142.294 121.722C141.083 122.383 139.569 122.146 138.592 121.181L126.392 109.107ZM129.301 129.169C131.627 130.139 134.019 130.626 136.47 130.636C137.738 130.641 138.991 130.516 140.227 130.257C140.478 130.205 140.725 130.147 140.976 130.087C141.876 129.857 142.767 129.561 143.653 129.189C145.987 128.217 148.133 126.772 150.098 124.86C152.083 122.926 153.577 120.824 154.574 118.553C154.954 117.692 155.26 116.822 155.498 115.945C155.54 115.781 155.578 115.62 155.614 115.456C155.926 114.174 156.08 112.865 156.085 111.532C156.095 109.126 155.617 106.774 154.65 104.484C153.68 102.193 152.214 100.076 150.24 98.1257C148.27 96.1769 146.122 94.7153 143.798 93.7464C141.472 92.7758 139.084 92.2923 136.629 92.2792C134.175 92.2736 131.779 92.7422 129.45 93.6886C127.116 94.6406 124.953 96.0817 122.969 98.0137C120.98 99.9513 119.495 102.064 118.512 104.342C117.524 106.625 117.027 108.973 117.014 111.383C117.008 113.791 117.482 116.141 118.451 118.431C119.419 120.722 120.901 122.852 122.897 124.828C124.842 126.753 126.978 128.2 129.301 129.169Z" fill="#15172A"/>
<path d="M-85.5733 232.773C-86.6933 233.269 -88.0186 233.088 -88.9256 232.274C-89.633 231.64 -90.3973 230.761 -90.9887 229.586C-91.6998 228.175 -91.9223 226.816 -91.947 225.728C-91.9756 224.5 -91.2454 223.378 -90.1045 222.874L-74.3129 215.896C-73.037 215.331 -71.5292 215.665 -70.6355 216.721C-70.0936 217.362 -69.5402 218.151 -69.0668 219.099C-68.4412 220.356 -68.1198 221.556 -67.962 222.579C-67.7548 223.925 -68.5115 225.235 -69.776 225.793L-85.5733 232.773ZM-65.416 237.137C-63.6742 235.34 -62.3698 233.31 -61.5008 231.061C-61.0521 229.898 -60.7308 228.702 -60.5444 227.473C-60.5083 227.225 -60.476 226.977 -60.4455 226.725C-60.3486 225.82 -60.3181 224.894 -60.3619 223.949C-60.4703 221.465 -61.0958 218.986 -62.231 216.509C-63.3776 214.005 -64.8588 211.892 -66.6766 210.179C-67.3631 209.529 -68.0856 208.941 -68.8405 208.416C-68.9812 208.319 -69.12 208.228 -69.2645 208.136C-70.3788 207.401 -71.5729 206.8 -72.8431 206.326C-75.1343 205.473 -77.5454 205.086 -80.0705 205.174C-82.5938 205.262 -85.1284 205.868 -87.6821 206.996C-90.2319 208.123 -92.3806 209.587 -94.1204 211.383C-95.8602 213.18 -97.1608 215.207 -98.0336 217.459C-98.9007 219.712 -99.2943 222.079 -99.2068 224.554C-99.1193 227.031 -98.5033 229.527 -97.3567 232.028C-96.2063 234.537 -94.7118 236.643 -92.8826 238.347C-91.0534 240.055 -88.9865 241.335 -86.6933 242.192C-84.3963 243.043 -81.9891 243.432 -79.4659 243.346C-76.9407 243.258 -74.389 242.644 -71.803 241.501C-69.2854 240.389 -67.1558 238.935 -65.416 237.137ZM126.392 109.107C125.527 108.252 125.234 106.97 125.692 105.852C126.05 104.978 126.62 103.967 127.531 103.011C128.628 101.861 129.847 101.181 130.876 100.776C132.037 100.319 133.365 100.597 134.245 101.469L146.441 113.539C147.428 114.513 147.639 116.016 146.945 117.209C146.523 117.931 145.966 118.715 145.226 119.484C144.249 120.502 143.214 121.216 142.294 121.722C141.083 122.383 139.569 122.146 138.592 121.181L126.392 109.107ZM129.301 129.169C131.627 130.139 134.019 130.626 136.47 130.636C137.738 130.641 138.991 130.516 140.227 130.257C140.478 130.205 140.725 130.147 140.976 130.087C141.876 129.857 142.767 129.561 143.653 129.189C145.987 128.217 148.133 126.772 150.098 124.86C152.083 122.926 153.577 120.824 154.574 118.553C154.954 117.692 155.26 116.822 155.498 115.945C155.54 115.781 155.578 115.62 155.614 115.456C155.926 114.174 156.08 112.865 156.085 111.532C156.095 109.126 155.617 106.774 154.65 104.484C153.68 102.193 152.214 100.076 150.24 98.1257C148.27 96.1769 146.122 94.7153 143.798 93.7464C141.472 92.7758 139.084 92.2923 136.629 92.2792C134.175 92.2736 131.779 92.7422 129.45 93.6886C127.116 94.6406 124.953 96.0817 122.969 98.0137C120.98 99.9513 119.495 102.064 118.512 104.342C117.524 106.625 117.027 108.973 117.014 111.383C117.008 113.791 117.482 116.141 118.451 118.431C119.419 120.722 120.901 122.852 122.897 124.828C124.842 126.753 126.978 128.2 129.301 129.169Z" fill="#15172A"/>
<path d="M-105.946 83.7985C-107.132 83.2726 -108.536 83.4644 -109.496 84.3264C-110.246 84.9986 -111.055 85.9298 -111.682 87.1734C-112.435 88.6681 -112.67 90.1074 -112.697 91.2601C-112.727 92.561 -111.953 93.7493 -110.745 94.2831L-94.0193 101.673C-92.668 102.273 -91.0709 101.919 -90.1244 100.8C-89.5504 100.121 -88.9644 99.2851 -88.4629 98.2808C-87.8003 96.9502 -87.4599 95.6789 -87.2928 94.5954C-87.0733 93.17 -87.8748 91.782 -89.2141 91.1909L-105.946 83.7985ZM-84.5961 79.1761C-82.7514 81.08 -81.3698 83.2291 -80.4494 85.6115C-79.9741 86.8433 -79.6338 88.1106 -79.4364 89.4115C-79.3982 89.6745 -79.3639 89.9374 -79.3317 90.2043C-79.229 91.1632 -79.1968 92.1438 -79.2431 93.1443C-79.3579 95.7758 -80.0205 98.4014 -81.2228 101.025C-82.4372 103.676 -84.006 105.914 -85.9314 107.729C-86.6584 108.417 -87.4237 109.04 -88.2232 109.596C-88.3723 109.698 -88.5193 109.795 -88.6723 109.892C-89.8525 110.671 -91.1173 111.308 -92.4626 111.81C-94.8894 112.714 -97.443 113.123 -100.118 113.03C-102.79 112.937 -105.475 112.294 -108.179 111.1C-110.88 109.906 -113.156 108.356 -114.999 106.454C-116.841 104.55 -118.219 102.403 -119.143 100.019C-120.062 97.6323 -120.478 95.1253 -120.386 92.5037C-120.293 89.8801 -119.641 87.2367 -118.426 84.5874C-117.208 81.9302 -115.625 79.7 -113.687 77.8949C-111.75 76.0859 -109.561 74.7296 -107.132 73.8221C-104.699 72.9205 -102.15 72.5093 -99.4771 72.6003C-96.8026 72.6932 -94.0999 73.3436 -91.3609 74.5536C-88.6945 75.732 -86.4389 77.2721 -84.5961 79.1761ZM118.558 214.779C117.641 215.685 117.331 217.043 117.817 218.227C118.195 219.152 118.799 220.224 119.764 221.236C120.926 222.454 122.217 223.174 123.307 223.603C124.537 224.087 125.943 223.793 126.875 222.869L139.793 210.086C140.838 209.053 141.061 207.462 140.326 206.199C139.879 205.433 139.289 204.603 138.506 203.788C137.471 202.711 136.375 201.954 135.4 201.418C134.117 200.718 132.514 200.969 131.479 201.991L118.558 214.779ZM121.639 193.531C124.102 192.503 126.636 191.987 129.232 191.977C130.575 191.971 131.902 192.104 133.211 192.379C133.477 192.434 133.739 192.495 134.005 192.559C134.957 192.802 135.902 193.116 136.84 193.51C139.311 194.54 141.585 196.07 143.665 198.094C145.768 200.143 147.351 202.369 148.406 204.775C148.809 205.686 149.133 206.608 149.385 207.537C149.429 207.711 149.47 207.881 149.508 208.055C149.838 209.413 150.001 210.799 150.007 212.211C150.017 214.759 149.512 217.251 148.487 219.676C147.46 222.102 145.907 224.344 143.817 226.41C141.73 228.475 139.454 230.023 136.993 231.049C134.53 232.077 132.001 232.589 129.401 232.603C126.801 232.609 124.263 232.112 121.796 231.11C119.325 230.102 117.033 228.575 114.933 226.529C112.826 224.477 111.253 222.239 110.212 219.827C109.165 217.409 108.639 214.922 108.625 212.369C108.619 209.819 109.12 207.329 110.148 204.904C111.173 202.478 112.741 200.222 114.856 198.128C116.916 196.09 119.178 194.557 121.639 193.531Z" fill="#15172A"/>
<path d="M-105.946 83.7985C-107.132 83.2726 -108.536 83.4644 -109.496 84.3264C-110.246 84.9986 -111.055 85.9298 -111.682 87.1734C-112.435 88.6681 -112.67 90.1074 -112.697 91.2601C-112.727 92.561 -111.953 93.7493 -110.745 94.2831L-94.0193 101.673C-92.668 102.273 -91.0709 101.919 -90.1244 100.8C-89.5504 100.121 -88.9644 99.2851 -88.4629 98.2808C-87.8003 96.9502 -87.4599 95.6789 -87.2928 94.5954C-87.0733 93.17 -87.8748 91.782 -89.2141 91.1909L-105.946 83.7985ZM-84.5961 79.1761C-82.7514 81.08 -81.3698 83.2291 -80.4494 85.6115C-79.9741 86.8433 -79.6338 88.1106 -79.4364 89.4115C-79.3982 89.6745 -79.3639 89.9374 -79.3317 90.2043C-79.229 91.1632 -79.1968 92.1438 -79.2431 93.1443C-79.3579 95.7758 -80.0205 98.4014 -81.2228 101.025C-82.4372 103.676 -84.006 105.914 -85.9314 107.729C-86.6584 108.417 -87.4237 109.04 -88.2232 109.596C-88.3723 109.698 -88.5193 109.795 -88.6723 109.892C-89.8525 110.671 -91.1173 111.308 -92.4626 111.81C-94.8894 112.714 -97.443 113.123 -100.118 113.03C-102.79 112.937 -105.475 112.294 -108.179 111.1C-110.88 109.906 -113.156 108.356 -114.999 106.454C-116.841 104.55 -118.219 102.403 -119.143 100.019C-120.062 97.6323 -120.478 95.1253 -120.386 92.5037C-120.293 89.8801 -119.641 87.2367 -118.426 84.5874C-117.208 81.9302 -115.625 79.7 -113.687 77.8949C-111.75 76.0859 -109.561 74.7296 -107.132 73.8221C-104.699 72.9205 -102.15 72.5093 -99.4771 72.6003C-96.8026 72.6932 -94.0999 73.3436 -91.3609 74.5536C-88.6945 75.732 -86.4389 77.2721 -84.5961 79.1761ZM118.558 214.779C117.641 215.685 117.331 217.043 117.817 218.227C118.195 219.152 118.799 220.224 119.764 221.236C120.926 222.454 122.217 223.174 123.307 223.603C124.537 224.087 125.943 223.793 126.875 222.869L139.793 210.086C140.838 209.053 141.061 207.462 140.326 206.199C139.879 205.433 139.289 204.603 138.506 203.788C137.471 202.711 136.375 201.954 135.4 201.418C134.117 200.718 132.514 200.969 131.479 201.991L118.558 214.779ZM121.639 193.531C124.102 192.503 126.636 191.987 129.232 191.977C130.575 191.971 131.902 192.104 133.211 192.379C133.477 192.434 133.739 192.495 134.005 192.559C134.957 192.802 135.902 193.116 136.84 193.51C139.311 194.54 141.585 196.07 143.665 198.094C145.768 200.143 147.351 202.369 148.406 204.775C148.809 205.686 149.133 206.608 149.385 207.537C149.429 207.711 149.47 207.881 149.508 208.055C149.838 209.413 150.001 210.799 150.007 212.211C150.017 214.759 149.512 217.251 148.487 219.676C147.46 222.102 145.907 224.344 143.817 226.41C141.73 228.475 139.454 230.023 136.993 231.049C134.53 232.077 132.001 232.589 129.401 232.603C126.801 232.609 124.263 232.112 121.796 231.11C119.325 230.102 117.033 228.575 114.933 226.529C112.826 224.477 111.253 222.239 110.212 219.827C109.165 217.409 108.639 214.922 108.625 212.369C108.619 209.819 109.12 207.329 110.148 204.904C111.173 202.478 112.741 200.222 114.856 198.128C116.916 196.09 119.178 194.557 121.639 193.531Z" fill="#15172A"/>
<path d="M-11.7545 103.154C-12.9407 102.628 -14.3444 102.82 -15.305 103.682C-16.0542 104.354 -16.8638 105.285 -17.4902 106.529C-18.2434 108.024 -18.479 109.463 -18.5052 110.616C-18.5354 111.916 -17.762 113.105 -16.5537 113.639L0.172065 121.029C1.52342 121.628 3.12047 121.274 4.06702 120.155C4.64099 119.477 5.22705 118.641 5.72852 117.636C6.3911 116.306 6.73146 115.034 6.89861 113.951C7.11813 112.525 6.31659 111.138 4.97732 110.546L-11.7545 103.154ZM9.59527 98.5315C11.44 100.435 12.8216 102.585 13.742 104.967C14.2173 106.199 14.5576 107.466 14.755 108.767C14.7932 109.03 14.8275 109.293 14.8597 109.56C14.9624 110.519 14.9946 111.499 14.9483 112.5C14.8335 115.131 14.1709 117.757 12.9686 120.38C11.7542 123.032 10.1854 125.27 8.26004 127.085C7.533 127.773 6.76771 128.396 5.96818 128.951C5.81914 129.054 5.67213 129.151 5.51907 129.248C4.3389 130.027 3.07415 130.663 1.72884 131.165C-0.697956 132.069 -3.25163 132.478 -5.92613 132.385C-8.59863 132.292 -11.2832 131.65 -13.9879 130.456C-16.6886 129.262 -18.9644 127.712 -20.8071 125.81C-22.6499 123.906 -24.0274 121.758 -24.9518 119.374C-25.8701 116.988 -26.287 114.481 -26.1944 111.859C-26.1018 109.236 -25.4492 106.592 -24.2348 103.943C-23.0164 101.286 -21.4334 99.0555 -19.496 97.2504C-17.5586 95.4413 -15.3695 94.0851 -12.9407 93.1776C-10.5078 92.276 -7.9582 91.8648 -5.2857 91.9557C-2.61119 92.0486 0.091508 92.6991 2.83046 93.9091C5.49691 95.0874 7.75252 96.6276 9.59527 98.5315ZM212.749 234.135C211.833 235.04 211.523 236.398 212.008 237.583C212.387 238.508 212.991 239.58 213.955 240.592C215.118 241.81 216.408 242.529 217.498 242.958C218.728 243.443 220.134 243.148 221.067 242.225L233.984 229.441C235.029 228.409 235.253 226.817 234.518 225.554C234.071 224.789 233.481 223.959 232.697 223.144C231.662 222.066 230.566 221.309 229.592 220.773C228.309 220.074 226.706 220.325 225.671 221.347L212.749 234.135ZM215.83 212.887C218.293 211.859 220.827 211.343 223.423 211.333C224.766 211.327 226.093 211.459 227.403 211.734C227.668 211.789 227.93 211.851 228.196 211.914C229.149 212.157 230.093 212.472 231.032 212.865C233.503 213.895 235.776 215.425 237.857 217.45C239.959 219.498 241.542 221.724 242.598 224.131C243 225.042 243.325 225.963 243.576 226.893C243.621 227.067 243.661 227.237 243.699 227.411C244.03 228.769 244.193 230.155 244.199 231.566C244.209 234.115 243.703 236.606 242.678 239.032C241.651 241.458 240.098 243.7 238.008 245.766C235.921 247.83 233.646 249.378 231.185 250.404C228.722 251.432 226.192 251.944 223.592 251.958C220.992 251.964 218.455 251.468 215.988 250.465C213.516 249.457 211.225 247.931 209.124 245.885C207.017 243.832 205.445 241.594 204.403 239.182C203.356 236.764 202.83 234.277 202.816 231.725C202.81 229.174 203.312 226.685 204.339 224.259C205.364 221.833 206.933 219.577 209.048 217.484C211.108 215.445 213.369 213.913 215.83 212.887Z" fill="#15172A"/>
<path d="M-11.7545 103.154C-12.9407 102.628 -14.3444 102.82 -15.305 103.682C-16.0542 104.354 -16.8638 105.285 -17.4902 106.529C-18.2434 108.024 -18.479 109.463 -18.5052 110.616C-18.5354 111.916 -17.762 113.105 -16.5537 113.639L0.172065 121.029C1.52342 121.628 3.12047 121.274 4.06702 120.155C4.64099 119.477 5.22705 118.641 5.72852 117.636C6.3911 116.306 6.73146 115.034 6.89861 113.951C7.11813 112.525 6.31659 111.138 4.97732 110.546L-11.7545 103.154ZM9.59527 98.5315C11.44 100.435 12.8216 102.585 13.742 104.967C14.2173 106.199 14.5576 107.466 14.755 108.767C14.7932 109.03 14.8275 109.293 14.8597 109.56C14.9624 110.519 14.9946 111.499 14.9483 112.5C14.8335 115.131 14.1709 117.757 12.9686 120.38C11.7542 123.032 10.1854 125.27 8.26004 127.085C7.533 127.773 6.76771 128.396 5.96818 128.951C5.81914 129.054 5.67213 129.151 5.51907 129.248C4.3389 130.027 3.07415 130.663 1.72884 131.165C-0.697956 132.069 -3.25163 132.478 -5.92613 132.385C-8.59863 132.292 -11.2832 131.65 -13.9879 130.456C-16.6886 129.262 -18.9644 127.712 -20.8071 125.81C-22.6499 123.906 -24.0274 121.758 -24.9518 119.374C-25.8701 116.988 -26.287 114.481 -26.1944 111.859C-26.1018 109.236 -25.4492 106.592 -24.2348 103.943C-23.0164 101.286 -21.4334 99.0555 -19.496 97.2504C-17.5586 95.4413 -15.3695 94.0851 -12.9407 93.1776C-10.5078 92.276 -7.9582 91.8648 -5.2857 91.9557C-2.61119 92.0486 0.091508 92.6991 2.83046 93.9091C5.49691 95.0874 7.75252 96.6276 9.59527 98.5315ZM212.749 234.135C211.833 235.04 211.523 236.398 212.008 237.583C212.387 238.508 212.991 239.58 213.955 240.592C215.118 241.81 216.408 242.529 217.498 242.958C218.728 243.443 220.134 243.148 221.067 242.225L233.984 229.441C235.029 228.409 235.253 226.817 234.518 225.554C234.071 224.789 233.481 223.959 232.697 223.144C231.662 222.066 230.566 221.309 229.592 220.773C228.309 220.074 226.706 220.325 225.671 221.347L212.749 234.135ZM215.83 212.887C218.293 211.859 220.827 211.343 223.423 211.333C224.766 211.327 226.093 211.459 227.403 211.734C227.668 211.789 227.93 211.851 228.196 211.914C229.149 212.157 230.093 212.472 231.032 212.865C233.503 213.895 235.776 215.425 237.857 217.45C239.959 219.498 241.542 221.724 242.598 224.131C243 225.042 243.325 225.963 243.576 226.893C243.621 227.067 243.661 227.237 243.699 227.411C244.03 228.769 244.193 230.155 244.199 231.566C244.209 234.115 243.703 236.606 242.678 239.032C241.651 241.458 240.098 243.7 238.008 245.766C235.921 247.83 233.646 249.378 231.185 250.404C228.722 251.432 226.192 251.944 223.592 251.958C220.992 251.964 218.455 251.468 215.988 250.465C213.516 249.457 211.225 247.931 209.124 245.885C207.017 243.832 205.445 241.594 204.403 239.182C203.356 236.764 202.83 234.277 202.816 231.725C202.81 229.174 203.312 226.685 204.339 224.259C205.364 221.833 206.933 219.577 209.048 217.484C211.108 215.445 213.369 213.913 215.83 212.887Z" fill="#15172A"/>
<path d="M2.12053 232.533C0.934325 232.007 -0.469389 232.199 -1.43004 233.061C-2.17922 233.733 -2.98882 234.664 -3.61516 235.908C-4.36837 237.402 -4.604 238.842 -4.63018 239.994C-4.66039 241.295 -3.88704 242.484 -2.67868 243.017L14.0471 250.408C15.3984 251.007 16.9955 250.653 17.942 249.534C18.516 248.856 19.102 248.019 19.6035 247.015C20.2661 245.685 20.6065 244.413 20.7736 243.33C20.9931 241.904 20.1916 240.516 18.8523 239.925L2.12053 232.533ZM23.4703 227.91C25.315 229.814 26.6966 231.963 27.617 234.346C28.0923 235.578 28.4326 236.845 28.63 238.146C28.6682 238.409 28.7025 238.672 28.7347 238.939C28.8374 239.898 28.8696 240.878 28.8233 241.879C28.7085 244.51 28.0459 247.136 26.8436 249.759C25.6292 252.411 24.0604 254.649 22.135 256.464C21.408 257.152 20.6427 257.774 19.8432 258.33C19.6941 258.433 19.5471 258.53 19.3941 258.627C18.2139 259.406 16.9491 260.042 15.6038 260.544C13.177 261.448 10.6234 261.857 7.94887 261.764C5.27637 261.671 2.5918 261.029 -0.112922 259.835C-2.81361 258.64 -5.08936 257.09 -6.93211 255.188C-8.77486 253.284 -10.1524 251.137 -11.0768 248.753C-11.9951 246.367 -12.412 243.86 -12.3194 241.238C-12.2268 238.614 -11.5742 235.971 -10.3598 233.322C-9.1414 230.665 -7.55845 228.434 -5.62104 226.629C-3.68363 224.82 -1.49448 223.464 0.934325 222.556C3.36716 221.655 5.9168 221.244 8.5893 221.335C11.2638 221.428 13.9665 222.078 16.7055 223.288C19.3719 224.466 21.6275 226.007 23.4703 227.91ZM226.624 363.514C225.708 364.419 225.398 365.777 225.883 366.962C226.262 367.887 226.866 368.958 227.83 369.971C228.993 371.189 230.283 371.908 231.373 372.337C232.603 372.822 234.009 372.527 234.942 371.604L247.859 358.82C248.904 357.788 249.128 356.196 248.393 354.933C247.946 354.168 247.356 353.337 246.572 352.523C245.537 351.445 244.441 350.688 243.467 350.152C242.184 349.452 240.581 349.704 239.546 350.726L226.624 363.514ZM229.705 342.266C232.168 341.238 234.702 340.722 237.298 340.712C238.641 340.706 239.968 340.838 241.278 341.113C241.543 341.168 241.805 341.23 242.071 341.293C243.024 341.536 243.968 341.85 244.907 342.244C247.378 343.274 249.651 344.804 251.732 346.829C253.834 348.877 255.417 351.103 256.473 353.509C256.875 354.421 257.2 355.342 257.451 356.271C257.496 356.445 257.536 356.615 257.574 356.789C257.905 358.148 258.068 359.534 258.074 360.945C258.084 363.494 257.578 365.985 256.553 368.411C255.526 370.837 253.973 373.079 251.883 375.145C249.796 377.209 247.521 378.757 245.06 379.783C242.597 380.811 240.067 381.323 237.467 381.337C234.867 381.343 232.33 380.847 229.863 379.844C227.391 378.836 225.1 377.31 222.999 375.263C220.892 373.211 219.32 370.973 218.278 368.561C217.231 366.143 216.705 363.656 216.691 361.103C216.685 358.553 217.187 356.064 218.214 353.638C219.239 351.212 220.808 348.956 222.923 346.862C224.983 344.824 227.244 343.292 229.705 342.266Z" fill="#15172A"/>
<path d="M2.12053 232.533C0.934325 232.007 -0.469389 232.199 -1.43004 233.061C-2.17922 233.733 -2.98882 234.664 -3.61516 235.908C-4.36837 237.402 -4.604 238.842 -4.63018 239.994C-4.66039 241.295 -3.88704 242.484 -2.67868 243.017L14.0471 250.408C15.3984 251.007 16.9955 250.653 17.942 249.534C18.516 248.856 19.102 248.019 19.6035 247.015C20.2661 245.685 20.6065 244.413 20.7736 243.33C20.9931 241.904 20.1916 240.516 18.8523 239.925L2.12053 232.533ZM23.4703 227.91C25.315 229.814 26.6966 231.963 27.617 234.346C28.0923 235.578 28.4326 236.845 28.63 238.146C28.6682 238.409 28.7025 238.672 28.7347 238.939C28.8374 239.898 28.8696 240.878 28.8233 241.879C28.7085 244.51 28.0459 247.136 26.8436 249.759C25.6292 252.411 24.0604 254.649 22.135 256.464C21.408 257.152 20.6427 257.774 19.8432 258.33C19.6941 258.433 19.5471 258.53 19.3941 258.627C18.2139 259.406 16.9491 260.042 15.6038 260.544C13.177 261.448 10.6234 261.857 7.94887 261.764C5.27637 261.671 2.5918 261.029 -0.112922 259.835C-2.81361 258.64 -5.08936 257.09 -6.93211 255.188C-8.77486 253.284 -10.1524 251.137 -11.0768 248.753C-11.9951 246.367 -12.412 243.86 -12.3194 241.238C-12.2268 238.614 -11.5742 235.971 -10.3598 233.322C-9.1414 230.665 -7.55845 228.434 -5.62104 226.629C-3.68363 224.82 -1.49448 223.464 0.934325 222.556C3.36716 221.655 5.9168 221.244 8.5893 221.335C11.2638 221.428 13.9665 222.078 16.7055 223.288C19.3719 224.466 21.6275 226.007 23.4703 227.91ZM226.624 363.514C225.708 364.419 225.398 365.777 225.883 366.962C226.262 367.887 226.866 368.958 227.83 369.971C228.993 371.189 230.283 371.908 231.373 372.337C232.603 372.822 234.009 372.527 234.942 371.604L247.859 358.82C248.904 357.788 249.128 356.196 248.393 354.933C247.946 354.168 247.356 353.337 246.572 352.523C245.537 351.445 244.441 350.688 243.467 350.152C242.184 349.452 240.581 349.704 239.546 350.726L226.624 363.514ZM229.705 342.266C232.168 341.238 234.702 340.722 237.298 340.712C238.641 340.706 239.968 340.838 241.278 341.113C241.543 341.168 241.805 341.23 242.071 341.293C243.024 341.536 243.968 341.85 244.907 342.244C247.378 343.274 249.651 344.804 251.732 346.829C253.834 348.877 255.417 351.103 256.473 353.509C256.875 354.421 257.2 355.342 257.451 356.271C257.496 356.445 257.536 356.615 257.574 356.789C257.905 358.148 258.068 359.534 258.074 360.945C258.084 363.494 257.578 365.985 256.553 368.411C255.526 370.837 253.973 373.079 251.883 375.145C249.796 377.209 247.521 378.757 245.06 379.783C242.597 380.811 240.067 381.323 237.467 381.337C234.867 381.343 232.33 380.847 229.863 379.844C227.391 378.836 225.1 377.31 222.999 375.263C220.892 373.211 219.32 370.973 218.278 368.561C217.231 366.143 216.705 363.656 216.691 361.103C216.685 358.553 217.187 356.064 218.214 353.638C219.239 351.212 220.808 348.956 222.923 346.862C224.983 344.824 227.244 343.292 229.705 342.266Z" fill="#15172A"/>
</g>
<mask id="mask2_3929_4925" style="mask-type:alpha" maskUnits="userSpaceOnUse" x="305" y="3" width="230" height="305">
<rect x="305" y="308" width="305" height="229.636" transform="rotate(-90 305 308)" fill="#D9D9D9"/>
</mask>
<g mask="url(#mask2_3929_4925)">
</g>
<mask id="mask3_3929_4925" style="mask-type:alpha" maskUnits="userSpaceOnUse" x="305" y="3" width="230" height="305">
<rect x="305" y="308" width="305" height="229.636" transform="rotate(-90 305 308)" fill="#D9D9D9"/>
</mask>
<g mask="url(#mask3_3929_4925)">
<path d="M399.596 65.0851L399.461 65.128C395.361 66.4256 391.25 67.734 387.149 69.0329C387.06 69.0663 386.963 69.0921 386.882 69.1174L385.845 69.4448C385.095 69.6845 384.367 69.0332 384.522 68.2896L387.491 53.7639C387.637 53.1884 388.078 52.744 388.648 52.5898C389.452 52.3839 390.064 52.8859 390.127 52.93C390.163 52.9658 390.189 52.9926 390.224 53.027L401.205 63.0026C401.783 63.5217 401.571 64.4587 400.821 64.6984L399.596 65.0851ZM488.198 -30.077L488.064 -30.0341C483.962 -28.7352 479.853 -27.4281 475.75 -26.1304C475.662 -26.0957 475.562 -26.0699 475.484 -26.0447L474.446 -25.7186C473.696 -25.4763 472.969 -26.1289 473.124 -26.8725L476.092 -41.3968C476.238 -41.975 476.679 -42.4193 477.25 -42.5723C478.054 -42.7782 478.665 -42.2748 478.729 -42.2321C478.765 -42.1963 478.792 -42.1695 478.826 -42.135L489.807 -32.1595C490.384 -31.6391 490.172 -30.7046 489.423 -30.4637L488.198 -30.077Z" fill="#15172A"/>
<path d="M366.212 133.35C367.982 144.061 369.416 145.471 380.329 147.207C369.416 148.945 367.982 150.352 366.212 161.063C364.444 150.352 363.008 148.945 352.098 147.207C363.008 145.471 364.444 144.061 366.212 133.35ZM545.459 315.088C546.906 323.847 548.079 324.997 556.999 326.417C548.079 327.838 546.906 328.99 545.459 337.746C544.012 328.99 542.841 327.838 533.919 326.417C542.841 324.997 544.012 323.847 545.459 315.088Z" fill="#15172A"/>
<path d="M366.212 133.35C367.982 144.061 369.416 145.471 380.329 147.207C369.416 148.945 367.982 150.352 366.212 161.063C364.444 150.352 363.008 148.945 352.098 147.207C363.008 145.471 364.444 144.061 366.212 133.35ZM545.459 315.088C546.906 323.847 548.079 324.997 556.999 326.417C548.079 327.838 546.906 328.99 545.459 337.746C544.012 328.99 542.841 327.838 533.919 326.417C542.841 324.997 544.012 323.847 545.459 315.088Z" fill="#15172A"/>
<path d="M354.427 235.773C353.307 236.269 351.981 236.088 351.074 235.274C350.367 234.64 349.603 233.761 349.011 232.586C348.3 231.175 348.078 229.816 348.053 228.728C348.024 227.5 348.755 226.378 349.895 225.874L365.687 218.896C366.963 218.331 368.471 218.665 369.365 219.721C369.906 220.362 370.46 221.151 370.933 222.099C371.559 223.356 371.88 224.556 372.038 225.579C372.245 226.925 371.488 228.235 370.224 228.793L354.427 235.773ZM374.584 240.137C376.326 238.34 377.63 236.31 378.499 234.061C378.948 232.898 379.269 231.702 379.456 230.473C379.492 230.225 379.524 229.977 379.554 229.725C379.651 228.82 379.682 227.894 379.638 226.949C379.53 224.465 378.904 221.986 377.769 219.509C376.622 217.005 375.141 214.892 373.323 213.179C372.637 212.529 371.914 211.941 371.16 211.416C371.019 211.319 370.88 211.228 370.735 211.136C369.621 210.401 368.427 209.8 367.157 209.326C364.866 208.473 362.455 208.086 359.929 208.174C357.406 208.262 354.872 208.868 352.318 209.996C349.768 211.123 347.619 212.587 345.88 214.383C344.14 216.18 342.839 218.207 341.966 220.459C341.099 222.712 340.706 225.079 340.793 227.554C340.881 230.031 341.497 232.527 342.643 235.028C343.794 237.537 345.288 239.643 347.117 241.347C348.947 243.055 351.014 244.335 353.307 245.192C355.604 246.043 358.011 246.432 360.534 246.346C363.059 246.258 365.611 245.644 368.197 244.501C370.715 243.389 372.844 241.935 374.584 240.137ZM566.392 112.107C565.527 111.252 565.234 109.97 565.692 108.852C566.05 107.978 566.62 106.967 567.531 106.011C568.628 104.861 569.847 104.181 570.876 103.776C572.037 103.319 573.365 103.597 574.245 104.469L586.441 116.539C587.428 117.513 587.639 119.016 586.945 120.209C586.523 120.931 585.966 121.715 585.226 122.484C584.249 123.502 583.214 124.216 582.294 124.722C581.083 125.383 579.569 125.146 578.592 124.181L566.392 112.107ZM569.301 132.169C571.627 133.139 574.019 133.626 576.47 133.636C577.738 133.641 578.991 133.516 580.227 133.257C580.478 133.205 580.725 133.147 580.976 133.087C581.876 132.857 582.767 132.561 583.653 132.189C585.987 131.217 588.133 129.772 590.098 127.86C592.083 125.926 593.577 123.824 594.574 121.553C594.954 120.692 595.26 119.822 595.498 118.945C595.54 118.781 595.578 118.62 595.614 118.456C595.926 117.174 596.08 115.865 596.085 114.532C596.095 112.126 595.617 109.774 594.65 107.484C593.68 105.193 592.214 103.076 590.24 101.126C588.27 99.1769 586.122 97.7153 583.798 96.7464C581.472 95.7758 579.084 95.2923 576.629 95.2792C574.175 95.2736 571.779 95.7422 569.45 96.6886C567.116 97.6406 564.953 99.0817 562.969 101.014C560.98 102.951 559.495 105.064 558.512 107.342C557.524 109.625 557.027 111.973 557.014 114.383C557.008 116.791 557.482 119.141 558.451 121.431C559.419 123.722 560.901 125.852 562.897 127.828C564.842 129.753 566.978 131.2 569.301 132.169Z" fill="#15172A"/>
<path d="M354.427 235.773C353.307 236.269 351.981 236.088 351.074 235.274C350.367 234.64 349.603 233.761 349.011 232.586C348.3 231.175 348.078 229.816 348.053 228.728C348.024 227.5 348.755 226.378 349.895 225.874L365.687 218.896C366.963 218.331 368.471 218.665 369.365 219.721C369.906 220.362 370.46 221.151 370.933 222.099C371.559 223.356 371.88 224.556 372.038 225.579C372.245 226.925 371.488 228.235 370.224 228.793L354.427 235.773ZM374.584 240.137C376.326 238.34 377.63 236.31 378.499 234.061C378.948 232.898 379.269 231.702 379.456 230.473C379.492 230.225 379.524 229.977 379.554 229.725C379.651 228.82 379.682 227.894 379.638 226.949C379.53 224.465 378.904 221.986 377.769 219.509C376.622 217.005 375.141 214.892 373.323 213.179C372.637 212.529 371.914 211.941 371.16 211.416C371.019 211.319 370.88 211.228 370.735 211.136C369.621 210.401 368.427 209.8 367.157 209.326C364.866 208.473 362.455 208.086 359.929 208.174C357.406 208.262 354.872 208.868 352.318 209.996C349.768 211.123 347.619 212.587 345.88 214.383C344.14 216.18 342.839 218.207 341.966 220.459C341.099 222.712 340.706 225.079 340.793 227.554C340.881 230.031 341.497 232.527 342.643 235.028C343.794 237.537 345.288 239.643 347.117 241.347C348.947 243.055 351.014 244.335 353.307 245.192C355.604 246.043 358.011 246.432 360.534 246.346C363.059 246.258 365.611 245.644 368.197 244.501C370.715 243.389 372.844 241.935 374.584 240.137ZM566.392 112.107C565.527 111.252 565.234 109.97 565.692 108.852C566.05 107.978 566.62 106.967 567.531 106.011C568.628 104.861 569.847 104.181 570.876 103.776C572.037 103.319 573.365 103.597 574.245 104.469L586.441 116.539C587.428 117.513 587.639 119.016 586.945 120.209C586.523 120.931 585.966 121.715 585.226 122.484C584.249 123.502 583.214 124.216 582.294 124.722C581.083 125.383 579.569 125.146 578.592 124.181L566.392 112.107ZM569.301 132.169C571.627 133.139 574.019 133.626 576.47 133.636C577.738 133.641 578.991 133.516 580.227 133.257C580.478 133.205 580.725 133.147 580.976 133.087C581.876 132.857 582.767 132.561 583.653 132.189C585.987 131.217 588.133 129.772 590.098 127.86C592.083 125.926 593.577 123.824 594.574 121.553C594.954 120.692 595.26 119.822 595.498 118.945C595.54 118.781 595.578 118.62 595.614 118.456C595.926 117.174 596.08 115.865 596.085 114.532C596.095 112.126 595.617 109.774 594.65 107.484C593.68 105.193 592.214 103.076 590.24 101.126C588.27 99.1769 586.122 97.7153 583.798 96.7464C581.472 95.7758 579.084 95.2923 576.629 95.2792C574.175 95.2736 571.779 95.7422 569.45 96.6886C567.116 97.6406 564.953 99.0817 562.969 101.014C560.98 102.951 559.495 105.064 558.512 107.342C557.524 109.625 557.027 111.973 557.014 114.383C557.008 116.791 557.482 119.141 558.451 121.431C559.419 123.722 560.901 125.852 562.897 127.828C564.842 129.753 566.978 131.2 569.301 132.169Z" fill="#15172A"/>
<path d="M334.054 86.7985C332.868 86.2726 331.464 86.4644 330.504 87.3264C329.754 87.9986 328.945 88.9298 328.318 90.1734C327.565 91.6681 327.33 93.1074 327.303 94.2601C327.273 95.561 328.047 96.7493 329.255 97.2831L345.981 104.673C347.332 105.273 348.929 104.919 349.876 103.8C350.45 103.121 351.036 102.285 351.537 101.281C352.2 99.9502 352.54 98.6789 352.707 97.5954C352.927 96.17 352.125 94.782 350.786 94.1909L334.054 86.7985ZM355.404 82.1761C357.249 84.08 358.63 86.2291 359.551 88.6115C360.026 89.8433 360.366 91.1106 360.564 92.4115C360.602 92.6745 360.636 92.9374 360.668 93.2043C360.771 94.1632 360.803 95.1438 360.757 96.1443C360.642 98.7758 359.98 101.401 358.777 104.025C357.563 106.676 355.994 108.914 354.069 110.729C353.342 111.417 352.576 112.04 351.777 112.596C351.628 112.698 351.481 112.795 351.328 112.892C350.147 113.671 348.883 114.308 347.537 114.81C345.111 115.714 342.557 116.123 339.882 116.03C337.21 115.937 334.525 115.294 331.821 114.1C329.12 112.906 326.844 111.356 325.001 109.454C323.159 107.55 321.781 105.403 320.857 103.019C319.938 100.632 319.522 98.1253 319.614 95.5037C319.707 92.8801 320.359 90.2367 321.574 87.5874C322.792 84.9302 324.375 82.7 326.313 80.8949C328.25 79.0859 330.439 77.7296 332.868 76.8221C335.301 75.9205 337.85 75.5093 340.523 75.6003C343.197 75.6932 345.9 76.3436 348.639 77.5536C351.306 78.732 353.561 80.2721 355.404 82.1761ZM558.558 217.779C557.641 218.685 557.331 220.043 557.817 221.227C558.195 222.152 558.799 223.224 559.764 224.236C560.926 225.454 562.217 226.174 563.307 226.603C564.537 227.087 565.943 226.793 566.875 225.869L579.793 213.086C580.838 212.053 581.061 210.462 580.326 209.199C579.879 208.433 579.289 207.603 578.506 206.788C577.471 205.711 576.375 204.954 575.4 204.418C574.117 203.718 572.514 203.969 571.479 204.991L558.558 217.779ZM561.639 196.531C564.102 195.503 566.636 194.987 569.232 194.977C570.575 194.971 571.902 195.104 573.211 195.379C573.477 195.434 573.739 195.495 574.005 195.559C574.957 195.802 575.902 196.116 576.84 196.51C579.311 197.54 581.585 199.07 583.665 201.094C585.768 203.143 587.351 205.369 588.406 207.775C588.809 208.686 589.133 209.608 589.385 210.537C589.429 210.711 589.47 210.881 589.508 211.055C589.838 212.413 590.001 213.799 590.007 215.211C590.017 217.759 589.512 220.251 588.487 222.676C587.46 225.102 585.907 227.344 583.817 229.41C581.73 231.475 579.454 233.023 576.993 234.049C574.53 235.077 572.001 235.589 569.401 235.603C566.801 235.609 564.263 235.112 561.796 234.11C559.325 233.102 557.033 231.575 554.933 229.529C552.826 227.477 551.253 225.239 550.212 222.827C549.165 220.409 548.639 217.922 548.625 215.369C548.619 212.819 549.12 210.329 550.148 207.904C551.173 205.478 552.741 203.222 554.856 201.128C556.916 199.09 559.178 197.557 561.639 196.531Z" fill="#15172A"/>
<path d="M334.054 86.7985C332.868 86.2726 331.464 86.4644 330.504 87.3264C329.754 87.9986 328.945 88.9298 328.318 90.1734C327.565 91.6681 327.33 93.1074 327.303 94.2601C327.273 95.561 328.047 96.7493 329.255 97.2831L345.981 104.673C347.332 105.273 348.929 104.919 349.876 103.8C350.45 103.121 351.036 102.285 351.537 101.281C352.2 99.9502 352.54 98.6789 352.707 97.5954C352.927 96.17 352.125 94.782 350.786 94.1909L334.054 86.7985ZM355.404 82.1761C357.249 84.08 358.63 86.2291 359.551 88.6115C360.026 89.8433 360.366 91.1106 360.564 92.4115C360.602 92.6745 360.636 92.9374 360.668 93.2043C360.771 94.1632 360.803 95.1438 360.757 96.1443C360.642 98.7758 359.98 101.401 358.777 104.025C357.563 106.676 355.994 108.914 354.069 110.729C353.342 111.417 352.576 112.04 351.777 112.596C351.628 112.698 351.481 112.795 351.328 112.892C350.147 113.671 348.883 114.308 347.537 114.81C345.111 115.714 342.557 116.123 339.882 116.03C337.21 115.937 334.525 115.294 331.821 114.1C329.12 112.906 326.844 111.356 325.001 109.454C323.159 107.55 321.781 105.403 320.857 103.019C319.938 100.632 319.522 98.1253 319.614 95.5037C319.707 92.8801 320.359 90.2367 321.574 87.5874C322.792 84.9302 324.375 82.7 326.313 80.8949C328.25 79.0859 330.439 77.7296 332.868 76.8221C335.301 75.9205 337.85 75.5093 340.523 75.6003C343.197 75.6932 345.9 76.3436 348.639 77.5536C351.306 78.732 353.561 80.2721 355.404 82.1761ZM558.558 217.779C557.641 218.685 557.331 220.043 557.817 221.227C558.195 222.152 558.799 223.224 559.764 224.236C560.926 225.454 562.217 226.174 563.307 226.603C564.537 227.087 565.943 226.793 566.875 225.869L579.793 213.086C580.838 212.053 581.061 210.462 580.326 209.199C579.879 208.433 579.289 207.603 578.506 206.788C577.471 205.711 576.375 204.954 575.4 204.418C574.117 203.718 572.514 203.969 571.479 204.991L558.558 217.779ZM561.639 196.531C564.102 195.503 566.636 194.987 569.232 194.977C570.575 194.971 571.902 195.104 573.211 195.379C573.477 195.434 573.739 195.495 574.005 195.559C574.957 195.802 575.902 196.116 576.84 196.51C579.311 197.54 581.585 199.07 583.665 201.094C585.768 203.143 587.351 205.369 588.406 207.775C588.809 208.686 589.133 209.608 589.385 210.537C589.429 210.711 589.47 210.881 589.508 211.055C589.838 212.413 590.001 213.799 590.007 215.211C590.017 217.759 589.512 220.251 588.487 222.676C587.46 225.102 585.907 227.344 583.817 229.41C581.73 231.475 579.454 233.023 576.993 234.049C574.53 235.077 572.001 235.589 569.401 235.603C566.801 235.609 564.263 235.112 561.796 234.11C559.325 233.102 557.033 231.575 554.933 229.529C552.826 227.477 551.253 225.239 550.212 222.827C549.165 220.409 548.639 217.922 548.625 215.369C548.619 212.819 549.12 210.329 550.148 207.904C551.173 205.478 552.741 203.222 554.856 201.128C556.916 199.09 559.178 197.557 561.639 196.531Z" fill="#15172A"/>
</g>
</g>
<defs>
<clipPath id="clip0_3929_4925">
<rect width="394" height="320" fill="white"/>
</clipPath>
</defs>
</svg>
