<svg width="462" height="279" viewBox="0 0 462 279" fill="none" xmlns="http://www.w3.org/2000/svg">
<g filter="url(#filter0_d_3700_9195)">
<g clip-path="url(#clip0_3700_9195)">
<path opacity="0.85" d="M6.01006 65.8074C13.6095 68.7453 21.9516 69.7668 29.8554 69.2155C38.3504 68.6292 46.677 66.8061 54.9431 64.9838C63.4013 63.1183 71.9081 61.1641 80.5894 60.4321C89.0459 59.7205 97.457 60.4876 105.623 62.6344C121.24 66.7404 135.375 77.057 138.982 92.3063C142.399 106.791 134.908 120.624 126.923 132.581C122.884 138.629 118.511 144.48 114.627 150.617C114.189 151.314 113.754 152.007 113.331 152.71C113.389 152.613 112.487 154.144 112.87 153.477C113.257 152.817 112.387 154.343 112.438 154.249C111.576 155.784 110.766 157.341 110.019 158.933C109.329 160.4 108.699 161.899 108.151 163.416C107.898 164.13 107.659 164.842 107.442 165.557C107.32 165.954 107.203 166.353 107.099 166.751C106.994 167.138 107.015 167.073 107.154 166.559C107.077 166.877 107.005 167.197 106.938 167.52C106.644 168.96 106.44 170.415 106.342 171.875C106.289 172.688 106.27 173.506 106.283 174.32C106.281 174.09 106.198 173.375 106.293 174.412C106.34 174.909 106.377 175.402 106.437 175.897C106.891 179.628 107.952 182.677 110.043 186.009C113.85 192.082 121.102 197.273 127.902 200.3C135.884 203.854 144.671 206.054 153.397 204.82C162.263 203.568 168.871 198.355 175.894 193.43C184.004 187.737 192.573 183.68 202.467 181.377C211.918 179.173 222.134 178.564 231.773 179.996C249.48 182.632 266.77 193.033 272.261 209.538C275.214 218.437 274.722 227.693 274.7 236.889C274.69 241.034 274.854 245.092 275.69 249.238C275.849 250.031 276.028 250.82 276.245 251.605C276.352 252.028 276.474 252.445 276.604 252.859C276.902 253.797 276.151 251.745 276.763 253.29C277.401 254.917 278.054 256.521 278.864 258.081C280.478 261.187 281.802 263.086 284.443 266.062C285.521 267.276 286.676 268.423 287.851 269.55C289.113 270.757 287.422 269.191 288.205 269.871C288.549 270.172 288.896 270.468 289.249 270.761C289.958 271.343 290.684 271.913 291.423 272.466C292.903 273.567 294.444 274.606 296.039 275.575C296.677 275.964 297.321 276.338 297.975 276.705C298.463 276.979 298.96 277.245 299.458 277.506C298.575 277.041 299.942 277.745 300.118 277.83C303.34 279.366 306.708 280.637 310.17 281.607C311.079 281.863 311.998 282.096 312.921 282.306C311.911 282.075 313.109 282.346 313.355 282.389C313.818 282.475 314.284 282.568 314.744 282.648C316.595 282.967 318.464 283.197 320.343 283.33C322.022 283.453 323.711 283.507 325.396 283.471C324.264 283.492 326.1 283.426 326.142 283.424C326.518 283.402 326.891 283.372 327.258 283.341C328.279 283.253 329.3 283.137 330.311 282.988C337.975 281.867 344.418 278.743 350.433 273.744C351.906 272.517 352.918 271.594 353.996 270.494C355.467 268.998 356.857 267.434 358.181 265.825C360.836 262.609 363.224 259.208 365.423 255.713C365.911 254.938 366.39 254.155 366.857 253.373C367.442 252.393 366.222 254.491 367.188 252.805C367.389 252.463 367.586 252.115 367.784 251.767C368.85 249.882 369.884 247.974 370.854 246.044C372.956 241.883 374.888 237.534 375.402 232.926C375.813 229.224 375.187 225.66 373.296 222.701C372.46 221.394 371.222 220.144 370.069 219.372C368.66 218.419 367.542 218.043 366.024 217.893C364.656 217.758 365.401 217.728 364.053 217.895C363.673 217.944 363.297 218.011 362.92 218.078C361.172 218.37 363.37 217.892 362.374 218.179C360.208 218.814 359.076 219.476 357.628 220.495C356.971 220.953 356.342 221.443 355.739 221.959C354.784 222.774 355.043 222.526 354.184 223.47C353.509 224.205 352.879 224.974 352.293 225.769C352.059 226.088 351.831 226.408 351.613 226.732C351.573 226.785 350.673 228.239 351.124 227.451C346.889 234.745 345.796 243.175 347.519 251.256C349.148 258.908 353.76 265.842 359.862 270.763C361.496 272.086 363.233 273.306 365.055 274.395C366.943 275.524 368.144 276.108 370.299 276.941C374.078 278.408 377.92 279.346 381.757 279.043C390.368 278.364 397.317 273.446 403.686 268.071C409.783 262.917 415.177 256.481 419.45 249.562C421.167 246.782 423.15 242.864 424.652 239.355C426.268 235.585 427.624 231.716 428.727 227.792C432.935 212.818 433.191 195.982 430.383 180.369C428.889 172.052 426.592 164.62 423.586 156.852C420.209 148.137 416.518 139.16 415.945 129.821C415.148 116.803 419.391 102.065 428.041 91.6844C432.459 86.379 438.326 82.32 445.495 80.9885C452.762 79.6364 454.598 90.1672 447.357 91.5123C446.888 91.6018 446.427 91.7 445.967 91.8097C446.188 91.7545 446.995 91.4447 446.022 91.807C445.292 92.0771 444.563 92.3308 443.857 92.6596C443.501 92.823 443.159 92.9969 442.815 93.1757C442.017 93.5947 443.869 92.4408 442.657 93.2814C441.948 93.7765 441.226 94.2448 440.549 94.7792C439.987 95.226 439.451 95.6937 438.928 96.1767C439.789 95.3844 438.177 96.9917 437.931 97.2668C436.715 98.6413 435.623 100.11 434.632 101.637C434.45 101.918 434.277 102.208 434.093 102.494C433.223 103.874 434.402 101.918 433.926 102.78C433.512 103.537 433.11 104.292 432.728 105.059C431.927 106.693 431.211 108.357 430.576 110.055C429.98 111.661 429.449 113.296 428.991 114.946C428.899 115.27 428.812 115.596 428.726 115.923C428.985 114.916 428.717 115.987 428.666 116.242C428.475 117.127 428.28 118.006 428.117 118.896C427.574 121.888 427.403 124.85 427.284 127.875C427.226 129.238 427.164 126.767 427.284 128.093C427.306 128.346 427.315 128.6 427.335 128.858C427.418 129.937 427.562 131.014 427.728 132.083C428.116 134.563 428.695 137.017 429.39 139.439C431.947 148.381 436.062 156.867 438.689 165.8C448.332 198.591 444.989 237.292 422.219 264.949C410.779 278.844 392.836 293.214 372.675 288.797C353.497 284.601 338.252 268.401 335.718 250.348C334.342 240.595 336.228 230.478 341.427 221.881C345.678 214.855 353.302 208.459 362.185 207.369C372.563 206.092 381.812 212.428 385.223 221.366C388.999 231.243 385.93 241.402 381.243 250.521C373.446 265.69 362.98 281.242 346.441 289.241C331.809 296.316 313.597 295.225 298.849 289.057C284.333 282.995 271.423 271.893 266.271 257.639C263.076 248.8 263.233 239.658 263.316 230.445C263.387 222.222 263.073 213.872 258.401 206.677C258.75 207.214 258.041 206.181 257.964 206.075C257.666 205.662 257.364 205.259 257.042 204.86C256.411 204.061 255.743 203.293 255.041 202.548C253.614 201.042 252.838 200.347 251.026 198.988C247.415 196.282 244.437 194.709 240.39 193.191C232.295 190.143 223.427 189.32 214.28 190.249C205.163 191.177 195.703 193.679 188.205 198.329C180.055 203.377 172.867 209.995 163.566 213.279C144.474 220.012 121.47 212.541 107.341 199.762C100.82 193.861 96.138 186.11 95.0982 177.625C94.2095 170.331 95.774 163.046 98.7584 156.293C101.815 149.366 106.128 142.93 110.484 136.654C112.619 133.576 114.79 130.512 116.893 127.411C117.933 125.879 118.955 124.335 119.941 122.773C120.379 122.076 120.812 121.376 121.24 120.675C121.365 120.474 121.958 119.458 121.469 120.294C121.74 119.827 122.005 119.358 122.271 118.889C124.008 115.77 125.55 112.543 126.699 109.192C126.946 108.477 127.154 107.753 127.38 107.031C127.861 105.473 127.186 108.083 127.518 106.494C127.584 106.172 127.664 105.849 127.725 105.525C128.08 103.749 128.298 101.953 128.352 100.148C128.363 99.8171 128.36 99.4873 128.364 99.1594C128.387 97.5892 128.421 99.7486 128.354 98.8045C128.297 98.0537 128.228 97.304 128.122 96.5578C127.84 94.6338 127.397 92.8978 126.947 91.7335C125.536 88.108 124.361 86.3403 121.741 83.534C121.127 82.8807 120.485 82.2395 119.816 81.6333C120.459 82.2137 119.77 81.6001 119.662 81.5116C119.227 81.1674 118.807 80.8171 118.371 80.4777C116.898 79.3457 115.335 78.3155 113.71 77.3751C113.214 77.0926 112.714 76.8199 112.209 76.5453C112.081 76.4774 111.209 76.0558 112.02 76.4501C111.148 76.0286 110.269 75.6266 109.373 75.2518C107.468 74.4516 105.515 73.7565 103.531 73.1624C96.8584 71.1676 88.3071 70.3618 81.2069 71.0762C63.5255 72.8618 46.6716 79.2365 28.8236 79.8975C19.584 80.2357 10.4846 79.0843 1.90011 75.768C-0.964222 74.6596 -2.54216 71.6274 -1.40831 68.8795C-0.318617 66.2386 3.13525 64.6953 6.01006 65.8074Z" fill="#E29134"/>
<path opacity="0.85" d="M6.50135 82.2023C24.6252 78.3837 27.7662 79.6195 37.3962 94.3819C33.2827 77.5499 34.6147 74.636 50.5086 65.6922C32.3859 69.5135 29.2467 68.2739 19.6149 53.5153C23.7302 70.3435 22.3964 73.2613 6.50135 82.2023ZM407.996 233.405C422.816 230.281 425.381 231.295 433.254 243.36C429.892 229.602 430.982 227.218 443.976 219.906C429.159 223.028 426.593 222.019 418.718 209.95C422.081 223.711 420.993 226.092 407.996 233.405Z" fill="white"/>
<path opacity="0.85" d="M185.275 197.202C203.399 193.384 206.54 194.619 216.17 209.382C212.056 192.55 213.388 189.636 229.282 180.692C211.159 184.514 208.02 183.274 198.388 168.515C202.504 185.343 201.17 188.261 185.275 197.202ZM586.769 348.405C601.589 345.281 604.154 346.295 612.028 358.36C608.666 344.602 609.756 342.218 622.75 334.906C607.933 338.028 605.366 337.019 597.491 324.95C600.855 338.711 599.766 341.092 586.769 348.405Z" fill="white"/>
<g opacity="0.85" filter="url(#filter1_d_3700_9195)">
<path d="M194.698 6.22392C193.051 4.76244 192.447 2.52804 193.242 0.545655C193.862 -1.00032 194.871 -2.79799 196.516 -4.51322C198.493 -6.57539 200.718 -7.82321 202.607 -8.57757C204.738 -9.42997 207.209 -9.00147 208.884 -7.51151L232.069 13.1111C233.946 14.7761 234.408 17.4024 233.179 19.523C232.434 20.8086 231.436 22.2105 230.104 23.5892C228.339 25.413 226.46 26.7144 224.779 27.6383C222.566 28.8532 219.746 28.5061 217.89 26.8544L194.698 6.22392ZM201.055 41.2658C205.413 42.8651 209.872 43.6142 214.414 43.5236C216.762 43.4759 219.08 43.2028 221.36 42.6934C221.82 42.588 222.277 42.4765 222.739 42.3595C224.392 41.9195 226.034 41.3599 227.658 40.6696C231.933 38.8645 235.839 36.2374 239.388 32.7983C242.975 29.3237 245.646 25.5713 247.384 21.544C248.045 20.0216 248.573 18.482 248.967 16.9325C249.039 16.6441 249.103 16.3625 249.163 16.0717C249.677 13.81 249.9 11.5091 249.848 9.17024C249.75 4.95257 248.753 0.850248 246.845 -3.12271C244.939 -7.09263 242.117 -10.7399 238.369 -14.0753C234.624 -17.4047 230.569 -19.873 226.216 -21.4704C221.86 -23.0666 217.407 -23.8109 212.859 -23.7252C208.312 -23.6291 203.894 -22.7025 199.621 -20.9368C195.344 -19.17 191.402 -16.5471 187.818 -13.0738C184.224 -9.58946 181.575 -5.82067 179.862 -1.78135C178.141 2.26042 177.335 6.40077 177.427 10.6239C177.532 14.8495 178.524 18.947 180.426 22.9181C182.334 26.8911 185.181 30.5607 188.978 33.938C192.674 37.2256 196.7 39.6696 201.055 41.2658ZM558.448 263.322C559.344 261.379 561.386 260.069 563.662 260.066C565.44 260.063 567.608 260.309 569.914 261.135C572.689 262.131 574.726 263.63 576.149 265.006C577.757 266.56 578.192 268.861 577.277 270.839L564.613 298.235C563.592 300.45 561.107 301.774 558.537 301.45C556.978 301.251 555.219 300.877 553.358 300.201C550.898 299.309 548.928 298.128 547.403 296.991C545.405 295.492 544.769 292.92 545.78 290.726L558.448 263.322ZM525.341 281.144C525.257 285.494 526.065 289.632 527.751 293.55C528.622 295.578 529.711 297.496 531.024 299.299C531.29 299.665 531.563 300.021 531.842 300.383C532.868 301.668 534.007 302.896 535.273 304.066C538.596 307.152 542.617 309.629 547.328 311.509C552.093 313.407 556.812 314.412 561.481 314.51C563.252 314.551 564.988 314.469 566.689 314.272C567.006 314.231 567.314 314.186 567.626 314.136C570.088 313.791 572.487 313.177 574.824 312.311C579.044 310.745 582.831 308.438 586.169 305.389C589.506 302.336 592.195 298.606 594.24 294.174C596.284 289.749 597.351 285.359 597.433 281.014C597.518 276.665 596.706 272.535 595.024 268.608C593.329 264.686 590.845 261.17 587.57 258.073C584.282 254.975 580.256 252.467 575.496 250.571C570.722 248.669 565.99 247.687 561.32 247.614C556.636 247.535 552.179 248.286 547.95 249.848C543.73 251.42 539.944 253.72 536.607 256.772C533.268 259.822 530.568 263.585 528.493 268.071C526.474 272.44 525.424 276.799 525.341 281.144Z" fill="white"/>
</g>
<g opacity="0.85" filter="url(#filter2_d_3700_9195)">
<path d="M39.5143 229.145L39.3202 228.93C33.419 222.369 27.4874 215.796 21.5825 209.234C21.4438 209.095 21.3139 208.936 21.1979 208.806L19.7075 207.147C18.6231 205.948 19.3547 204.115 20.9797 203.838L52.6738 198.301C53.9526 198.135 55.2019 198.608 55.9698 199.541C57.0289 200.864 56.506 202.371 56.4667 202.519C56.4236 202.613 56.3907 202.682 56.349 202.772L45.0055 230.528C44.4207 231.985 42.3601 232.305 41.2758 231.106L39.5143 229.145ZM302.509 320.103L302.315 319.889C296.41 313.326 290.483 306.755 284.579 300.189C284.439 300.054 284.307 299.89 284.193 299.764L282.704 298.102C281.614 296.905 282.35 295.074 283.975 294.796L315.665 289.259C316.949 289.09 318.198 289.564 318.965 290.5C320.024 291.823 319.497 293.329 319.462 293.478C319.419 293.571 319.386 293.64 319.344 293.731L308.001 321.487C307.412 322.942 305.357 323.26 304.271 322.065L302.509 320.103Z" fill="#F2EEE9"/>
</g>
</g>
</g>
<defs>
<filter id="filter0_d_3700_9195" x="0" y="0" width="462" height="279" filterUnits="userSpaceOnUse" color-interpolation-filters="sRGB">
<feFlood flood-opacity="0" result="BackgroundImageFix"/>
<feColorMatrix in="SourceAlpha" type="matrix" values="0 0 0 0 0 0 0 0 0 0 0 0 0 0 0 0 0 0 127 0" result="hardAlpha"/>
<feOffset dx="4" dy="6"/>
<feGaussianBlur stdDeviation="3.5"/>
<feComposite in2="hardAlpha" operator="out"/>
<feColorMatrix type="matrix" values="0 0 0 0 0.286275 0 0 0 0 0.243137 0 0 0 0 0.513726 0 0 0 0.1237 0"/>
<feBlend mode="normal" in2="BackgroundImageFix" result="effect1_dropShadow_3700_9195"/>
<feBlend mode="normal" in="SourceGraphic" in2="effect1_dropShadow_3700_9195" result="shape"/>
</filter>
<filter id="filter1_d_3700_9195" x="177.422" y="-23.7324" width="428.96" height="349.432" filterUnits="userSpaceOnUse" color-interpolation-filters="sRGB">
<feFlood flood-opacity="0" result="BackgroundImageFix"/>
<feColorMatrix in="SourceAlpha" type="matrix" values="0 0 0 0 0 0 0 0 0 0 0 0 0 0 0 0 0 0 127 0" result="hardAlpha"/>
<feOffset dx="8.94426" dy="11.1803"/>
<feComposite in2="hardAlpha" operator="out"/>
<feColorMatrix type="matrix" values="0 0 0 0 0.941176 0 0 0 0 0.54902 0 0 0 0 0.0117647 0 0 0 1 0"/>
<feBlend mode="normal" in2="BackgroundImageFix" result="effect1_dropShadow_3700_9195"/>
<feBlend mode="normal" in="SourceGraphic" in2="effect1_dropShadow_3700_9195" result="shape"/>
</filter>
<filter id="filter2_d_3700_9195" x="19.1953" y="198.268" width="309.374" height="135.712" filterUnits="userSpaceOnUse" color-interpolation-filters="sRGB">
<feFlood flood-opacity="0" result="BackgroundImageFix"/>
<feColorMatrix in="SourceAlpha" type="matrix" values="0 0 0 0 0 0 0 0 0 0 0 0 0 0 0 0 0 0 127 0" result="hardAlpha"/>
<feOffset dx="8.94426" dy="11.1803"/>
<feComposite in2="hardAlpha" operator="out"/>
<feColorMatrix type="matrix" values="0 0 0 0 0.941176 0 0 0 0 0.54902 0 0 0 0 0.0117647 0 0 0 1 0"/>
<feBlend mode="normal" in2="BackgroundImageFix" result="effect1_dropShadow_3700_9195"/>
<feBlend mode="normal" in="SourceGraphic" in2="effect1_dropShadow_3700_9195" result="shape"/>
</filter>
<clipPath id="clip0_3700_9195">
<rect x="3" y="1" width="448" height="265" rx="8" fill="white"/>
</clipPath>
</defs>
</svg>
