<svg width="458" height="279" viewBox="0 0 458 279" fill="none" xmlns="http://www.w3.org/2000/svg">
<g filter="url(#filter0_d_3700_9209)">
<g clip-path="url(#clip0_3700_9209)">
<path opacity="0.85" d="M5.98121 65.8074C13.5128 68.7453 21.7804 69.7668 29.6137 69.2155C38.0328 68.6292 46.285 66.8061 54.4774 64.9838C62.8601 63.1183 71.2909 61.1641 79.8947 60.4321C88.2757 59.7205 96.6117 60.4876 104.705 62.6344C120.182 66.7404 134.191 77.057 137.766 92.3063C141.153 106.791 133.728 120.624 125.814 132.581C121.811 138.629 117.478 144.48 113.629 150.617C113.195 151.314 112.763 152.007 112.344 152.71C112.402 152.613 111.508 154.144 111.887 153.477C112.27 152.817 111.408 154.343 111.459 154.249C110.605 155.784 109.801 157.341 109.061 158.933C108.378 160.4 107.753 161.899 107.21 163.416C106.96 164.13 106.722 164.842 106.507 165.557C106.386 165.954 106.271 166.353 106.168 166.751C106.063 167.138 106.084 167.073 106.222 166.559C106.146 166.877 106.074 167.197 106.008 167.52C105.717 168.96 105.515 170.415 105.418 171.875C105.365 172.688 105.346 173.506 105.359 174.32C105.357 174.09 105.275 173.375 105.368 174.412C105.415 174.909 105.452 175.402 105.511 175.897C105.962 179.628 107.013 182.677 109.085 186.009C112.858 192.082 120.046 197.273 126.785 200.3C134.696 203.854 143.404 206.054 152.052 204.819C160.839 203.568 167.388 198.355 174.349 193.43C182.386 187.737 190.879 183.68 200.684 181.377C210.051 179.173 220.176 178.564 229.728 179.996C247.277 182.632 264.413 193.033 269.855 209.538C272.782 218.437 272.294 227.693 272.273 236.889C272.262 241.034 272.424 245.092 273.253 249.238C273.411 250.031 273.588 250.82 273.803 251.605C273.91 252.028 274.031 252.445 274.159 252.859C274.454 253.797 273.71 251.745 274.316 253.29C274.949 254.917 275.596 256.521 276.399 258.081C277.998 261.187 279.311 263.086 281.928 266.062C282.997 267.276 284.141 268.423 285.306 269.55C286.556 270.757 284.881 269.191 285.657 269.871C285.998 270.172 286.341 270.468 286.691 270.761C287.394 271.343 288.113 271.913 288.846 272.466C290.312 273.567 291.84 274.606 293.42 275.575C294.053 275.964 294.692 276.338 295.339 276.705C295.823 276.979 296.315 277.245 296.81 277.506C295.934 277.041 297.289 277.745 297.463 277.83C300.656 279.366 303.994 280.637 307.425 281.607C308.327 281.863 309.238 282.096 310.151 282.306C309.151 282.075 310.338 282.346 310.582 282.389C311.041 282.475 311.503 282.568 311.958 282.648C313.793 282.967 315.645 283.197 317.508 283.33C319.172 283.453 320.846 283.507 322.516 283.471C321.394 283.492 323.213 283.426 323.255 283.424C323.628 283.402 323.997 283.372 324.361 283.341C325.373 283.253 326.385 283.137 327.386 282.988C334.982 281.867 341.367 278.743 347.329 273.744C348.789 272.517 349.792 271.594 350.86 270.494C352.318 268.998 353.695 267.434 355.008 265.825C357.639 262.609 360.006 259.208 362.185 255.713C362.669 254.938 363.144 254.155 363.606 253.373C364.186 252.393 362.977 254.491 363.934 252.805C364.133 252.463 364.329 252.115 364.525 251.767C365.582 249.882 366.606 247.974 367.568 246.044C369.65 241.883 371.566 237.534 372.075 232.926C372.482 229.224 371.862 225.66 369.988 222.701C369.16 221.394 367.932 220.144 366.79 219.372C365.393 218.419 364.285 218.043 362.781 217.893C361.425 217.758 362.164 217.728 360.827 217.895C360.45 217.944 360.078 218.011 359.705 218.078C357.972 218.37 360.15 217.892 359.164 218.179C357.017 218.814 355.895 219.476 354.46 220.495C353.808 220.953 353.185 221.443 352.587 221.959C351.641 222.774 351.897 222.526 351.047 223.47C350.377 224.205 349.753 224.974 349.172 225.769C348.94 226.088 348.714 226.408 348.498 226.732C348.459 226.785 347.567 228.239 348.014 227.451C343.817 234.745 342.733 243.175 344.441 251.256C346.056 258.908 350.626 265.842 356.674 270.763C358.294 272.086 360.015 273.306 361.82 274.395C363.692 275.524 364.882 276.108 367.017 276.941C370.763 278.408 374.571 279.346 378.373 279.043C386.908 278.364 393.794 273.446 400.106 268.071C406.149 262.917 411.495 256.481 415.729 249.562C417.432 246.782 419.397 242.864 420.886 239.355C422.487 235.585 423.831 231.716 424.924 227.792C429.094 212.818 429.348 195.982 426.565 180.369C425.085 172.052 422.808 164.62 419.829 156.852C416.482 148.137 412.824 139.16 412.256 129.821C411.466 116.803 415.671 102.065 424.244 91.6844C428.622 86.379 434.437 82.32 441.542 80.9885C448.744 79.6364 450.564 90.1672 443.388 91.5123C442.923 91.6018 442.466 91.7 442.01 91.8097C442.229 91.7545 443.029 91.4447 442.065 91.807C441.341 92.0771 440.618 92.3308 439.918 92.6596C439.566 92.823 439.227 92.9969 438.886 93.1757C438.095 93.5947 439.931 92.4408 438.73 93.2814C438.027 93.7765 437.312 94.2448 436.641 94.7792C436.083 95.226 435.552 95.6937 435.033 96.1767C435.887 95.3844 434.289 96.9917 434.046 97.2668C432.841 98.6413 431.758 100.11 430.776 101.637C430.596 101.918 430.424 102.208 430.242 102.494C429.379 103.874 430.548 101.918 430.077 102.78C429.666 103.537 429.268 104.292 428.889 105.059C428.096 106.693 427.386 108.357 426.757 110.055C426.165 111.661 425.639 113.296 425.185 114.946C425.094 115.27 425.008 115.596 424.923 115.923C425.18 114.916 424.914 115.987 424.864 116.242C424.674 117.127 424.481 118.006 424.32 118.896C423.781 121.888 423.611 124.85 423.493 127.875C423.436 129.238 423.375 126.767 423.494 128.093C423.515 128.346 423.524 128.6 423.544 128.858C423.627 129.937 423.769 131.014 423.934 132.083C424.318 134.563 424.892 137.017 425.581 139.439C428.115 148.381 432.193 156.867 434.797 165.8C444.354 198.591 441.041 237.292 418.474 264.949C407.136 278.844 389.354 293.214 369.372 288.797C350.366 284.601 335.257 268.401 332.745 250.348C331.382 240.595 333.251 230.478 338.403 221.881C342.616 214.855 350.173 208.459 358.976 207.369C369.262 206.092 378.428 212.428 381.809 221.366C385.55 231.243 382.509 241.402 377.863 250.521C370.136 265.69 359.764 281.242 343.373 289.241C328.871 296.316 310.822 295.225 296.205 289.057C281.819 282.995 269.025 271.893 263.918 257.639C260.752 248.8 260.907 239.658 260.989 230.445C261.06 222.222 260.749 213.872 256.119 206.677C256.465 207.214 255.762 206.181 255.686 206.075C255.391 205.662 255.091 205.259 254.772 204.86C254.146 204.061 253.484 203.293 252.789 202.548C251.375 201.041 250.605 200.347 248.809 198.988C245.231 196.282 242.279 194.709 238.268 193.191C230.246 190.143 221.457 189.32 212.391 190.249C203.356 191.177 193.981 193.679 186.549 198.329C178.472 203.377 171.349 209.995 162.13 213.279C143.209 220.012 120.41 212.541 106.408 199.762C99.9451 193.861 95.3044 186.11 94.2739 177.625C93.3931 170.331 94.9437 163.046 97.9015 156.293C100.931 149.366 105.206 142.93 109.522 136.654C111.638 133.576 113.79 130.512 115.874 127.411C116.905 125.879 117.917 124.335 118.895 122.773C119.329 122.076 119.758 121.376 120.182 120.675C120.306 120.474 120.894 119.458 120.409 120.294C120.678 119.827 120.941 119.358 121.204 118.889C122.926 115.77 124.454 112.543 125.592 109.192C125.837 108.477 126.044 107.753 126.268 107.031C126.744 105.473 126.076 108.083 126.404 106.494C126.47 106.172 126.549 105.849 126.61 105.525C126.961 103.749 127.178 101.953 127.231 100.148C127.241 99.8171 127.239 99.4873 127.242 99.1593C127.265 97.5892 127.299 99.7486 127.233 98.8045C127.177 98.0537 127.108 97.304 127.003 96.5578C126.724 94.6338 126.285 92.8978 125.838 91.7335C124.44 88.108 123.275 86.3403 120.678 83.534C120.071 82.8807 119.434 82.2394 118.771 81.6333C119.409 82.2137 118.725 81.6001 118.618 81.5116C118.188 81.1674 117.771 80.8171 117.339 80.4777C115.879 79.3457 114.33 78.3155 112.72 77.3751C112.228 77.0926 111.733 76.8199 111.232 76.5453C111.105 76.4773 110.241 76.0558 111.044 76.4501C110.181 76.0286 109.31 75.6266 108.421 75.2518C106.534 74.4516 104.598 73.7565 102.632 73.1624C96.0184 71.1676 87.5435 70.3618 80.5066 71.0762C62.9831 72.8618 46.2797 79.2365 28.591 79.8975C19.434 80.2357 10.4158 79.0843 1.90796 75.7679C-0.930796 74.6596 -2.49464 71.6274 -1.37092 68.8795C-0.290955 66.2385 3.13208 64.6953 5.98121 65.8074Z" fill="#82DBD4"/>
<path opacity="0.85" d="M6.47619 82.2023C24.4382 78.3837 27.5512 79.6195 37.0952 94.3819C33.0184 77.5499 34.3385 74.636 50.0905 65.6922C32.1296 69.5135 29.0184 68.2739 19.4727 53.5153C23.5512 70.3435 22.2293 73.2613 6.47619 82.2023ZM404.386 233.405C419.073 230.281 421.615 231.295 429.419 243.36C426.087 229.602 427.167 227.218 440.045 219.906C425.361 223.028 422.817 222.019 415.012 209.95C418.345 223.711 417.267 226.092 404.386 233.405Z" fill="white"/>
<path opacity="0.85" d="M183.648 197.202C201.61 193.384 204.723 194.619 214.267 209.382C210.19 192.55 211.51 189.636 227.262 180.692C209.302 184.514 206.19 183.274 196.645 168.515C200.723 185.344 199.401 188.261 183.648 197.202ZM581.558 348.405C596.245 345.281 598.787 346.295 606.591 358.36C603.259 344.602 604.339 342.218 617.217 334.906C602.532 338.028 599.989 337.019 592.184 324.95C595.517 338.711 594.439 341.092 581.558 348.405Z" fill="white"/>
<g opacity="0.85" filter="url(#filter1_d_3700_9209)">
<path d="M192.995 6.22392C191.362 4.76244 190.764 2.52804 191.552 0.545654C192.167 -1.00032 193.166 -2.79799 194.797 -4.51322C196.756 -6.57539 198.961 -7.82321 200.833 -8.57757C202.945 -9.42997 205.394 -9.00147 207.054 -7.51151L230.032 13.1111C231.892 14.7761 232.35 17.4024 231.132 19.523C230.394 20.8086 229.404 22.2105 228.085 23.5892C226.335 25.413 224.473 26.7144 222.807 27.6383C220.614 28.8532 217.819 28.5061 215.98 26.8544L192.995 6.22392ZM199.295 41.2658C203.614 42.8651 208.033 43.6142 212.534 43.5236C214.861 43.4759 217.159 43.2028 219.419 42.6934C219.875 42.588 220.328 42.4765 220.786 42.3595C222.424 41.9195 224.051 41.3599 225.66 40.6696C229.897 38.8645 233.769 36.2374 237.286 32.7983C240.841 29.3237 243.488 25.5712 245.211 21.544C245.866 20.0216 246.389 18.482 246.779 16.9325C246.851 16.6441 246.914 16.3625 246.973 16.0717C247.483 13.81 247.704 11.5091 247.652 9.17024C247.556 4.95257 246.567 0.850247 244.676 -3.12271C242.787 -7.09263 239.99 -10.7399 236.276 -14.0753C232.564 -17.4047 228.545 -19.873 224.232 -21.4704C219.915 -23.0666 215.501 -23.8109 210.994 -23.7252C206.487 -23.6291 202.109 -22.7025 197.874 -20.9368C193.635 -19.17 189.728 -16.5471 186.177 -13.0738C182.615 -9.58946 179.989 -5.82067 178.291 -1.78135C176.586 2.26042 175.786 6.40077 175.878 10.6239C175.982 14.8495 176.965 18.947 178.851 22.9181C180.741 26.8911 183.563 30.5607 187.326 33.938C190.989 37.2256 194.978 39.6696 199.295 41.2658ZM553.497 263.322C554.385 261.379 556.409 260.069 558.665 260.066C560.427 260.063 562.575 260.309 564.861 261.135C567.611 262.131 569.629 263.63 571.04 265.006C572.634 266.56 573.065 268.861 572.158 270.839L559.607 298.235C558.595 300.45 556.132 301.774 553.585 301.45C552.041 301.251 550.297 300.877 548.453 300.201C546.015 299.309 544.062 298.128 542.551 296.991C540.57 295.492 539.94 292.92 540.942 290.726L553.497 263.322ZM520.686 281.144C520.602 285.494 521.403 289.632 523.074 293.55C523.937 295.578 525.017 297.496 526.318 299.299C526.581 299.665 526.852 300.021 527.128 300.383C528.146 301.668 529.274 302.896 530.529 304.066C533.823 307.152 537.808 309.629 542.477 311.509C547.199 313.407 551.875 314.412 556.503 314.51C558.258 314.551 559.979 314.469 561.665 314.272C561.979 314.231 562.283 314.186 562.593 314.136C565.033 313.791 567.41 313.177 569.727 312.311C573.909 310.745 577.662 308.438 580.971 305.389C584.278 302.336 586.942 298.606 588.969 294.174C590.995 289.749 592.052 285.359 592.134 281.014C592.218 276.665 591.413 272.535 589.746 268.608C588.066 264.686 585.604 261.17 582.359 258.073C579.101 254.975 575.11 252.467 570.393 250.571C565.661 248.669 560.972 247.687 556.343 247.614C551.701 247.535 547.284 248.286 543.093 249.848C538.91 251.42 535.158 253.72 531.851 256.772C528.542 259.822 525.866 263.585 523.809 268.071C521.809 272.44 520.768 276.799 520.686 281.144Z" fill="white"/>
</g>
<g opacity="0.85" filter="url(#filter2_d_3700_9209)">
<path d="M39.1938 229.145L39.0014 228.93C33.1529 222.369 27.2743 215.796 21.4221 209.234C21.2846 209.095 21.1559 208.936 21.041 208.806L19.5638 207.147C18.4891 205.948 19.2142 204.115 20.8247 203.838L52.2358 198.301C53.5032 198.135 54.7413 198.608 55.5024 199.541C56.552 200.864 56.0338 202.371 55.9948 202.519C55.9521 202.613 55.9195 202.682 55.8782 202.772L44.6359 230.528C44.0564 231.985 42.0142 232.305 40.9395 231.106L39.1938 229.145ZM299.841 320.103L299.648 319.889C293.796 313.326 287.921 306.755 282.07 300.189C281.932 300.054 281.8 299.89 281.688 299.764L280.212 298.102C279.132 296.905 279.861 295.074 281.472 294.796L312.879 289.259C314.152 289.09 315.39 289.564 316.149 290.5C317.199 291.823 316.677 293.329 316.642 293.478C316.599 293.571 316.566 293.64 316.525 293.731L305.283 321.487C304.7 322.942 302.663 323.26 301.586 322.065L299.841 320.103Z" fill="#F2EEE9"/>
</g>
</g>
</g>
<defs>
<filter id="filter0_d_3700_9209" x="0" y="0" width="458" height="279" filterUnits="userSpaceOnUse" color-interpolation-filters="sRGB">
<feFlood flood-opacity="0" result="BackgroundImageFix"/>
<feColorMatrix in="SourceAlpha" type="matrix" values="0 0 0 0 0 0 0 0 0 0 0 0 0 0 0 0 0 0 127 0" result="hardAlpha"/>
<feOffset dx="4" dy="6"/>
<feGaussianBlur stdDeviation="3.5"/>
<feComposite in2="hardAlpha" operator="out"/>
<feColorMatrix type="matrix" values="0 0 0 0 0.286275 0 0 0 0 0.243137 0 0 0 0 0.513726 0 0 0 0.1237 0"/>
<feBlend mode="normal" in2="BackgroundImageFix" result="effect1_dropShadow_3700_9209"/>
<feBlend mode="normal" in="SourceGraphic" in2="effect1_dropShadow_3700_9209" result="shape"/>
</filter>
<filter id="filter1_d_3700_9209" x="175.867" y="-23.7324" width="425.218" height="349.432" filterUnits="userSpaceOnUse" color-interpolation-filters="sRGB">
<feFlood flood-opacity="0" result="BackgroundImageFix"/>
<feColorMatrix in="SourceAlpha" type="matrix" values="0 0 0 0 0 0 0 0 0 0 0 0 0 0 0 0 0 0 127 0" result="hardAlpha"/>
<feOffset dx="8.94426" dy="11.1803"/>
<feComposite in2="hardAlpha" operator="out"/>
<feColorMatrix type="matrix" values="0 0 0 0 0.941176 0 0 0 0 0.54902 0 0 0 0 0.0117647 0 0 0 1 0"/>
<feBlend mode="normal" in2="BackgroundImageFix" result="effect1_dropShadow_3700_9209"/>
<feBlend mode="normal" in="SourceGraphic" in2="effect1_dropShadow_3700_9209" result="shape"/>
</filter>
<filter id="filter2_d_3700_9209" x="19.0547" y="198.268" width="306.694" height="135.712" filterUnits="userSpaceOnUse" color-interpolation-filters="sRGB">
<feFlood flood-opacity="0" result="BackgroundImageFix"/>
<feColorMatrix in="SourceAlpha" type="matrix" values="0 0 0 0 0 0 0 0 0 0 0 0 0 0 0 0 0 0 127 0" result="hardAlpha"/>
<feOffset dx="8.94426" dy="11.1803"/>
<feComposite in2="hardAlpha" operator="out"/>
<feColorMatrix type="matrix" values="0 0 0 0 0.941176 0 0 0 0 0.54902 0 0 0 0 0.0117647 0 0 0 1 0"/>
<feBlend mode="normal" in2="BackgroundImageFix" result="effect1_dropShadow_3700_9209"/>
<feBlend mode="normal" in="SourceGraphic" in2="effect1_dropShadow_3700_9209" result="shape"/>
</filter>
<clipPath id="clip0_3700_9209">
<rect x="3" y="1" width="444" height="265" rx="8" fill="white"/>
</clipPath>
</defs>
</svg>
