<svg width="35" height="48" viewBox="0 0 35 48" fill="none" xmlns="http://www.w3.org/2000/svg">
<path d="M31 48.0005H4C3.10517 47.9996 2.24724 47.6437 1.6145 47.011C0.98176 46.3782 0.625893 45.5203 0.625 44.6255V4.12549C0.625893 3.23066 0.98176 2.37273 1.6145 1.73999C2.24724 1.10725 3.10517 0.751382 4 0.750488H31C31.8948 0.751382 32.7528 1.10725 33.3855 1.73999C34.0182 2.37273 34.3741 3.23066 34.375 4.12549V32.1684L25.9375 27.9496L17.5 32.1684V4.12549H4V44.6255H31V37.8755H34.375V44.6255C34.3737 45.5202 34.0177 46.3778 33.385 47.0105C32.7524 47.6431 31.8947 47.9991 31 48.0005ZM25.9375 24.1764L31 26.7076V4.12549H20.875V26.7076L25.9375 24.1764Z" fill="#FC8025"/>
</svg>
