<svg width="69" height="77" viewBox="0 0 69 77" fill="none" xmlns="http://www.w3.org/2000/svg">
<circle cx="34.5" cy="42.5" r="34.5" fill="#F08C03"/>
<path d="M34.8774 21.54C39.1574 21.54 42.5774 22.66 45.1374 24.9C47.7374 27.14 49.0374 30.3 49.0374 34.38C49.0374 38.14 47.7974 41.08 45.3174 43.2C42.8774 45.28 39.6374 46.34 35.5974 46.38L35.2974 50.88H26.2974L25.9974 39.72H29.5974C32.6774 39.72 35.0174 39.34 36.6174 38.58C38.2574 37.82 39.0774 36.44 39.0774 34.44C39.0774 33.04 38.6974 31.94 37.9374 31.14C37.1774 30.34 36.1174 29.94 34.7574 29.94C33.3174 29.94 32.1974 30.36 31.3974 31.2C30.5974 32 30.1974 33.1 30.1974 34.5H20.5374C20.4574 32.06 20.9574 29.86 22.0374 27.9C23.1574 25.94 24.7974 24.4 26.9574 23.28C29.1574 22.12 31.7974 21.54 34.8774 21.54ZM30.9174 66.48C29.1174 66.48 27.6374 65.96 26.4774 64.92C25.3574 63.84 24.7974 62.52 24.7974 60.96C24.7974 59.36 25.3574 58.02 26.4774 56.94C27.6374 55.86 29.1174 55.32 30.9174 55.32C32.6774 55.32 34.1174 55.86 35.2374 56.94C36.3974 58.02 36.9774 59.36 36.9774 60.96C36.9774 62.52 36.3974 63.84 35.2374 64.92C34.1174 65.96 32.6774 66.48 30.9174 66.48Z" fill="white"/>
</svg>
