<svg width="35" height="34" viewBox="0 0 35 34" fill="none" xmlns="http://www.w3.org/2000/svg">
<g clip-path="url(#clip0_3961_10674)">
<path d="M34.0975 6.69714V27.5393H0.75V6.69714H11.1711V4.61292C11.1711 4.31983 11.2254 4.04844 11.3339 3.79877C11.4425 3.5491 11.589 3.33199 11.7736 3.14745C11.9581 2.96291 12.1806 2.81094 12.4412 2.69153C12.7017 2.57212 12.9731 2.51785 13.2553 2.5287H21.5922C21.8853 2.5287 22.1567 2.58298 22.4064 2.69153C22.656 2.80008 22.8731 2.94663 23.0577 3.13117C23.2422 3.31571 23.3942 3.53824 23.5136 3.79877C23.633 4.0593 23.6873 4.33068 23.6764 4.61292V6.69714H34.0975ZM13.2553 6.69714H21.5922V4.61292H13.2553V6.69714ZM2.83422 8.78136V11.7937L13.2553 16.988V15.034H21.5922V16.988L32.0133 11.7937V8.78136H2.83422ZM15.3395 17.1182V19.2025H19.508V17.1182H15.3395ZM32.0133 25.4551V14.1059L21.5922 19.3327V21.2867H13.2553V19.3327L2.83422 14.1059V25.4551H32.0133Z" fill="white"/>
</g>
<defs>
<clipPath id="clip0_3961_10674">
<rect width="33.3475" height="33.3475" fill="white" transform="translate(0.75 0.445312)"/>
</clipPath>
</defs>
</svg>
